<svg width="416" height="227" viewBox="0 0 416 227" fill="none" xmlns="http://www.w3.org/2000/svg">
<path fill-rule="evenodd" clip-rule="evenodd" d="M35.6232 22.2114H115.419C128.773 22.2114 139.698 33.1489 139.698 46.5168V126.403C139.698 139.771 128.773 150.709 115.419 150.709H50.7583V145.427H115.419C125.861 145.427 134.422 136.856 134.422 126.403V46.5168C134.422 36.064 125.861 27.4931 115.419 27.4931H35.6232C25.1826 27.4931 16.6203 36.0646 16.6203 46.5168V126.403C16.6203 134.782 22.122 141.95 29.6829 144.466V149.967C19.1767 147.296 11.3442 137.721 11.3442 126.403V46.5168C11.3442 33.1489 22.2702 22.2114 35.6232 22.2114Z" fill="black"/>
<path fill-rule="evenodd" clip-rule="evenodd" d="M78.7698 46.5345C99.6528 48.191 116.083 65.6795 116.083 87.0111C116.083 88.3695 116.015 89.7123 115.886 91.0369H113.096H105.477H78.5566V81.7285H105.283C102.971 68.5843 92.183 58.365 78.7698 56.9294V46.5345ZM113.053 102.432C107.379 116.256 94.3078 126.256 78.7698 127.489V117.094C88.4618 116.056 96.7842 110.432 101.528 102.432H113.053ZM73.2821 127.557C62.2746 126.958 52.4346 121.965 45.4822 114.298V159.601H41.4037C39.1925 159.601 37.0349 159.355 34.9592 158.888V87.0111C34.9592 65.337 51.9231 47.6304 73.2821 46.4666V56.8376C57.6366 57.9845 45.2988 71.0551 45.2988 87.0111L45.4822 90.346C47.0611 104.754 58.7419 116.119 73.2821 117.186V127.557Z" fill="black"/>
<path fill-rule="evenodd" clip-rule="evenodd" d="M159.765 22.2114H162.967C163.281 22.2114 163.538 22.4682 163.538 22.7823V150.138C163.538 150.451 163.281 150.709 162.967 150.709H159.765C159.452 150.709 159.195 150.451 159.195 150.138V22.7823C159.195 22.4682 159.452 22.2114 159.765 22.2114Z" fill="black"/>
<path d="M195.301 37.9014H183.587V82.2727H189.982V66.6795H195.301C203.975 66.6795 208.914 61.5449 208.914 52.227C208.914 43.1621 203.975 37.9014 195.301 37.9014ZM195.237 60.5941H189.982V43.9867H195.237C200.049 43.9867 202.392 46.7756 202.392 52.227C202.392 57.9321 200.049 60.5941 195.237 60.5941ZM227.592 83.0967C236.077 83.0967 241.142 77.455 241.142 68.2006V51.9735C241.142 42.7185 236.077 37.0774 227.592 37.0774C219.108 37.0774 214.043 42.7185 214.043 51.9735V68.2006C214.043 77.455 219.108 83.0967 227.592 83.0967ZM227.592 76.8212C222.971 76.8212 220.627 73.7788 220.627 68.2006V51.9735C220.627 46.3953 222.971 43.3523 227.592 43.3523C232.151 43.3523 234.557 46.3953 234.557 51.9735V68.2006C234.557 73.7788 232.151 76.8212 227.592 76.8212ZM255.136 76.1874V37.9014H248.741V82.2727H269.825V76.1874H255.136ZM274.701 37.9014V82.2727H281.096V37.9014H274.701ZM301.737 82.9698C309.715 82.9698 314.717 78.0888 314.843 69.4049V58.1221H301.547V63.8267H308.575V69.4049C308.575 74.4761 306.042 76.8212 301.8 76.8212C297.685 76.8212 295.152 74.4761 295.152 69.088V51.0863C295.152 45.698 297.558 43.3523 301.61 43.3523C305.663 43.3523 307.942 45.5713 308.195 50.7059H314.527C314.21 41.9579 309.461 37.2043 301.61 37.2043C293.569 37.2043 288.63 42.0212 288.63 51.0228V69.088C288.63 78.0888 293.759 82.9698 301.737 82.9698ZM340.74 82.2727H347.831L338.207 65.2849C343.273 63.4463 346.185 58.6927 346.185 51.7833C346.185 42.9719 341.373 37.9014 332.889 37.9014H321.429V82.2727H327.824V66.1724H331.812L340.74 82.2727ZM327.824 43.9867H332.825C337.258 43.9867 339.6 46.6487 339.6 51.9101C339.6 57.1708 337.258 60.087 332.762 60.087H327.824V43.9867ZM371.892 82.2727H378.54L367.397 37.9014H360.495L349.351 82.2727H356.063L358.089 73.3352H369.803L371.892 82.2727ZM359.482 67.3766L362.205 55.4595C362.901 52.5439 363.534 48.2967 363.851 45.9516H364.041C364.357 48.2967 365.054 52.5439 365.687 55.4595L368.473 67.3766H359.482ZM404.374 43.9233V37.9014H383.479V82.2727H389.874V63.0027H403.234V57.1708H389.874V43.9233H404.374ZM189.982 136.366V122.8H204.102V116.905H189.982V104.038H205.305V98.0161H183.587V142.387H205.938V136.366H189.982ZM237.09 142.387L226.516 119.378L236.457 98.0161H229.428L223.033 113.039L216.575 98.0161H209.547L219.488 119.378L208.914 142.387H216.005L223.033 125.97L229.998 142.387H237.09ZM264.063 98.0161H239.116V104.101H248.297V142.387H254.818V104.101H264.063V98.0161ZM288.503 142.387H295.594L285.97 125.4C291.036 123.561 293.948 118.807 293.948 111.898C293.948 103.087 289.136 98.0161 280.652 98.0161H269.192V142.387H275.587V126.287H279.575L288.503 142.387ZM275.587 104.101H280.588C285.021 104.101 287.363 106.763 287.363 112.025C287.363 117.285 285.021 120.202 280.525 120.202H275.587V104.101ZM319.655 142.387H326.303L315.16 98.0161H308.259L297.115 142.387H303.826L305.852 133.45H317.566L319.655 142.387ZM307.246 127.491L309.968 115.574C310.664 112.659 311.297 108.411 311.614 106.066H311.804C312.12 108.411 312.817 112.659 313.45 115.574L316.236 127.491H307.246Z" fill="black"/>
<path d="M22.8479 179.277H11.3438V198.29H13.4782V181.305H20.7135V198.29H22.8479V179.277ZM33.4835 198.725C37.2819 198.725 39.8144 196.299 39.8144 191.844V185.724C39.8144 181.269 37.2819 178.842 33.4835 178.842C29.6852 178.842 27.1527 181.269 27.1527 185.724V191.844C27.1527 196.299 29.6852 198.725 33.4835 198.725ZM33.4835 196.625C30.915 196.625 29.3233 195.14 29.3233 191.844V185.724C29.3233 182.428 30.915 180.943 33.4835 180.943C36.0522 180.943 37.6439 182.428 37.6439 185.724V191.844C37.6439 195.14 36.0522 196.625 33.4835 196.625ZM41.9126 198.435C45.3131 198.435 46.5791 195.538 46.9048 189.816C47.0136 187.752 47.194 184.13 47.2665 181.305H52.8015V198.29H54.936V179.277H45.1685C45.096 182.826 45.0237 185.977 44.8066 189.49C44.5536 193.293 44.1555 196.371 41.9126 196.371V198.435ZM59.7109 198.29H61.9179L67.8146 186.375C68.4294 185.108 69.0806 183.768 69.3338 182.935L69.4063 182.971C69.3338 184.492 69.2616 186.049 69.2616 188.041V198.29H71.3959V179.277H69.1891L63.1114 191.663C62.7499 192.423 62.171 193.727 61.8454 194.488L61.7733 194.416C61.8816 193.003 61.8454 191.554 61.8454 190.142V179.277H59.7109V198.29ZM85.6128 179.277H76.171V198.29H78.3055V181.341H85.6128V179.277ZM95.0548 178.842C93.21 178.842 91.5822 179.639 90.5692 181.052L90.2797 179.277H88.543V204.809H90.6413V196.588C91.6906 198.037 93.3548 198.725 95.0548 198.725C98.7087 198.725 100.952 196.299 100.952 191.59V186.122C100.952 181.305 98.4916 178.842 95.0548 178.842ZM98.7812 191.59C98.7812 195.212 97.3702 196.733 94.5846 196.733C92.1971 196.733 90.6413 194.632 90.6413 191.59V186.049C90.6413 182.5 92.4142 180.834 94.5846 180.834C97.2254 180.834 98.7812 182.391 98.7812 186.122V191.59ZM110.827 178.842C107.319 178.842 104.967 180.979 104.822 184.238H106.957C107.101 182.138 108.585 180.907 110.755 180.907C113.215 180.907 114.518 182.391 114.518 185.18V187.208H110.755C106.595 187.208 104.244 189.237 104.244 192.894C104.244 196.588 106.776 198.725 110.249 198.725C112.311 198.725 113.758 197.784 114.626 196.516L114.807 198.29H116.652V185.144C116.652 181.269 114.445 178.842 110.827 178.842ZM110.574 196.625C108.114 196.625 106.414 195.43 106.414 192.931C106.414 190.504 107.897 189.2 110.683 189.2H114.518V192.931C114.518 195.104 112.998 196.625 110.574 196.625ZM132.135 178.987H131.195V172.215H129.096V178.987H128.156C124.176 178.987 120.957 181.74 120.957 186.52V191.228C120.957 195.9 124.213 198.58 128.156 198.58H129.096V204.809H131.195V198.58H132.135C136.078 198.58 139.334 195.9 139.334 191.228V186.52C139.334 181.74 136.114 178.987 132.135 178.987ZM128.156 196.48C125.407 196.48 123.127 194.741 123.127 191.228V186.52C123.127 182.863 125.37 181.088 128.156 181.088H129.096V196.48H128.156ZM137.164 191.228C137.164 194.741 134.885 196.48 132.135 196.48H131.195V181.088H132.135C134.921 181.088 137.164 182.863 137.164 186.52V191.228ZM143.639 198.29H145.846L151.743 186.375C152.358 185.108 153.009 183.768 153.262 182.935L153.334 182.971C153.262 184.492 153.19 186.049 153.19 188.041V198.29H155.324V179.277H153.117L147.04 191.663C146.678 192.423 146.099 193.727 145.774 194.488L145.701 194.416C145.81 193.003 145.774 191.554 145.774 190.142V179.277H143.639V198.29ZM164.802 179.277C161.185 179.277 158.797 181.704 158.797 185.325C158.797 188.439 160.353 190.721 162.74 191.228L158.146 198.29H160.678L165.019 191.337H167.913V198.29H170.048V179.277H164.802ZM167.913 189.345H164.585C162.197 189.345 160.967 187.896 160.967 185.325C160.967 182.826 162.378 181.341 164.802 181.341H167.913V189.345ZM194.394 179.277H182.89V198.29H185.024V181.305H192.26V198.29H194.394V179.277ZM205.03 198.725C208.828 198.725 211.361 196.299 211.361 191.844V185.724C211.361 181.269 208.828 178.842 205.03 178.842C201.231 178.842 198.699 181.269 198.699 185.724V191.844C198.699 196.299 201.231 198.725 205.03 198.725ZM205.03 196.625C202.461 196.625 200.87 195.14 200.87 191.844V185.724C200.87 182.428 202.461 180.943 205.03 180.943C207.598 180.943 209.19 182.428 209.19 185.724V191.844C209.19 195.14 207.598 196.625 205.03 196.625ZM213.459 198.435C216.859 198.435 218.125 195.538 218.451 189.816C218.56 187.752 218.74 184.13 218.813 181.305H224.348V198.29H226.482V179.277H216.715C216.642 182.826 216.57 185.977 216.353 189.49C216.1 193.293 215.702 196.371 213.459 196.371V198.435ZM240.627 179.277V187.426H233.391V179.277H231.257V198.29H233.391V189.454H240.627V198.29H242.761V179.277H240.627ZM253.397 198.725C257.195 198.725 259.728 196.299 259.728 191.844V185.724C259.728 181.269 257.195 178.842 253.397 178.842C249.599 178.842 247.066 181.269 247.066 185.724V191.844C247.066 196.299 249.599 198.725 253.397 198.725ZM253.397 196.625C250.828 196.625 249.237 195.14 249.237 191.844V185.724C249.237 182.428 250.828 180.943 253.397 180.943C255.966 180.943 257.557 182.428 257.557 185.724V191.844C257.557 195.14 255.966 196.625 253.397 196.625ZM273.474 179.277H264.033V198.29H266.167V181.341H273.474V179.277ZM281.469 198.725C285.268 198.725 287.801 196.299 287.801 191.844V185.724C287.801 181.269 285.268 178.842 281.469 178.842C277.671 178.842 275.139 181.269 275.139 185.724V191.844C275.139 196.299 277.671 198.725 281.469 198.725ZM281.469 196.625C278.901 196.625 277.309 195.14 277.309 191.844V185.724C277.309 182.428 278.901 180.943 281.469 180.943C284.038 180.943 285.63 182.428 285.63 185.724V191.844C285.63 195.14 284.038 196.625 281.469 196.625ZM305.997 198.653C309.759 198.653 312.183 196.226 312.291 191.88H310.121C310.012 195.067 308.529 196.552 305.997 196.552C303.573 196.552 302.09 195.067 302.09 191.88V185.615C302.09 182.428 303.573 180.943 305.997 180.943C308.529 180.943 309.976 182.428 310.085 185.615H312.255C312.147 181.269 309.759 178.842 305.997 178.842C302.343 178.842 299.919 181.269 299.919 185.615V191.88C299.919 196.226 302.343 198.653 305.997 198.653ZM327.522 179.277H316.017V198.29H318.152V181.305H325.387V198.29H327.522V179.277ZM342.426 192.46C342.137 195.248 340.762 196.552 338.012 196.552C335.516 196.552 333.997 195.067 333.997 191.88V189.816H344.307V185.615C344.307 181.269 341.775 178.842 337.976 178.842C334.286 178.842 331.826 181.269 331.826 185.615V191.88C331.826 196.226 334.25 198.653 337.94 198.653C341.919 198.653 344.271 196.443 344.56 192.46H342.426ZM338.012 180.943C340.617 180.943 342.173 182.428 342.173 185.615V187.824H333.997V185.615C333.997 182.428 335.516 180.943 338.012 180.943ZM358.814 198.29H361.454L353.604 187.534L360.514 179.277H357.765L353.532 184.456C352.592 185.615 351.651 186.774 350.71 187.896V179.277H348.576V198.29H350.71V191.011L352.193 189.2L358.814 198.29ZM373.429 179.277H361.888V181.269H366.591V198.29H368.726V181.269H373.429V179.277ZM382.762 178.842C380.917 178.842 379.289 179.639 378.276 181.052L377.987 179.277H376.25V204.809H378.348V196.588C379.398 198.037 381.062 198.725 382.762 198.725C386.416 198.725 388.659 196.299 388.659 191.59V186.122C388.659 181.305 386.199 178.842 382.762 178.842ZM386.488 191.59C386.488 195.212 385.077 196.733 382.292 196.733C379.904 196.733 378.348 194.632 378.348 191.59V186.049C378.348 182.5 380.121 180.834 382.292 180.834C384.933 180.834 386.488 182.391 386.488 186.122V191.59ZM398.535 178.842C395.026 178.842 392.674 180.979 392.529 184.238H394.664C394.808 182.138 396.292 180.907 398.462 180.907C400.922 180.907 402.225 182.391 402.225 185.18V187.208H398.462C394.302 187.208 391.951 189.237 391.951 192.894C391.951 196.588 394.483 198.725 397.956 198.725C400.018 198.725 401.465 197.784 402.333 196.516L402.514 198.29H404.359V185.144C404.359 181.269 402.152 178.842 398.535 178.842ZM398.281 196.625C395.821 196.625 394.121 195.43 394.121 192.931C394.121 190.504 395.604 189.2 398.39 189.2H402.225V192.931C402.225 195.104 400.705 196.625 398.281 196.625Z" fill="black"/>
</svg>
