<svg width="64" height="64" viewBox="0 0 64 64" fill="none" xmlns="http://www.w3.org/2000/svg">
<path d="M50.4799 31.7867C51.8745 32.0949 53.3313 31.947 54.6356 31.3648C55.9398 30.7827 57.0226 29.797 57.7245 28.5531C58.4264 27.3091 58.7102 25.8726 58.5341 24.4552C58.358 23.0378 57.7314 21.7144 56.7465 20.68L43.3465 7.34669C42.3121 6.3618 40.9887 5.73517 39.5713 5.5591C38.1539 5.38302 36.7174 5.66683 35.4735 6.3687C34.2295 7.07057 33.2439 8.15339 32.6617 9.45767C32.0796 10.7619 31.9317 12.2187 32.2399 13.6134L27.9999 9.33336C25.516 6.89918 22.1719 5.54358 18.6941 5.56114C15.2164 5.57871 11.8861 6.96802 9.427 9.42716C6.96785 11.8863 5.57854 15.2166 5.56098 18.6943C5.54341 22.172 6.89901 25.5162 9.33319 28L13.5465 32.2134C12.1519 31.9052 10.6951 32.0531 9.39083 32.6352C8.08656 33.2174 7.00373 34.203 6.30186 35.447C5.59999 36.6909 5.31619 38.1274 5.49226 39.5448C5.66833 40.9622 6.29497 42.2856 7.27986 43.32L20.6132 56.6534C21.6476 57.6383 22.971 58.2649 24.3884 58.441C25.8058 58.617 27.2423 58.3332 28.4862 57.6314C29.7302 56.9295 30.7158 55.8467 31.298 54.5424C31.8802 53.2381 32.028 51.7813 31.7199 50.3867L35.9999 54.6667C37.221 55.9128 38.6771 56.9044 40.2838 57.5842C41.8906 58.2641 43.6162 58.6187 45.3608 58.6275C47.1055 58.6363 48.8345 58.2992 50.4481 57.6356C52.0616 56.972 53.5276 55.9951 54.7613 54.7615C55.9949 53.5278 56.9718 52.0618 57.6354 50.4482C58.299 48.8347 58.6361 47.1056 58.6273 45.361C58.6185 43.6163 58.2639 41.8907 57.5841 40.284C56.9042 38.6772 55.9126 37.2212 54.6665 36L50.4799 31.7867Z" fill="#F4F4F6"/>
<path d="M9.36003 52H6.69336V53.3333H9.36003V52Z" fill="#E2DFF4"/>
<path d="M12.0267 54.6667H10.6934V57.3334H12.0267V54.6667Z" fill="#E2DFF4"/>
<path d="M58.668 14C58.6679 14.3967 58.5499 14.7844 58.329 15.1139C58.108 15.4433 57.7941 15.6996 57.427 15.8502C57.06 16.0007 56.6566 16.0387 56.2679 15.9594C55.8792 15.88 55.5229 15.6869 55.2443 15.4045C54.9657 15.1221 54.7773 14.7633 54.7032 14.3736C54.6291 13.9839 54.6725 13.5809 54.828 13.216C54.9834 12.851 55.2439 12.5405 55.5763 12.324C55.9087 12.1075 56.298 11.9947 56.6946 12C57.2204 12.007 57.7223 12.2208 58.0916 12.5951C58.461 12.9694 58.668 13.4741 58.668 14ZM56.0013 14C56.0013 14.1318 56.0404 14.2607 56.1137 14.3704C56.1869 14.48 56.291 14.5655 56.4128 14.6159C56.5347 14.6664 56.6687 14.6796 56.798 14.6539C56.9274 14.6281 57.0461 14.5646 57.1394 14.4714C57.2326 14.3782 57.2961 14.2594 57.3218 14.1301C57.3475 14.0007 57.3344 13.8667 57.2839 13.7449C57.2334 13.6231 57.148 13.5189 57.0384 13.4457C56.9287 13.3724 56.7998 13.3333 56.668 13.3333C56.4912 13.3333 56.3216 13.4036 56.1966 13.5286C56.0715 13.6536 56.0013 13.8232 56.0013 14Z" fill="#E2DFF4"/>
<path d="M35.3594 61.3333C36.4639 61.3333 37.3594 60.4379 37.3594 59.3333C37.3594 58.2287 36.4639 57.3333 35.3594 57.3333C34.2548 57.3333 33.3594 58.2287 33.3594 59.3333C33.3594 60.4379 34.2548 61.3333 35.3594 61.3333Z" fill="#F4F4F6"/>
<path d="M28.6934 6.66669C29.7979 6.66669 30.6934 5.77126 30.6934 4.66669C30.6934 3.56212 29.7979 2.66669 28.6934 2.66669C27.5888 2.66669 26.6934 3.56212 26.6934 4.66669C26.6934 5.77126 27.5888 6.66669 28.6934 6.66669Z" fill="#F4F4F6"/>
<path d="M4.6413 31.3333C4.24692 31.3281 3.86289 31.2063 3.53752 30.9834C3.21215 30.7604 2.95996 30.4463 2.81267 30.0804C2.66537 29.7145 2.62955 29.3132 2.70971 28.927C2.78986 28.5409 2.98241 28.187 3.26315 27.9099C3.54389 27.6329 3.90028 27.4451 4.28749 27.37C4.67471 27.295 5.07547 27.3361 5.43937 27.4882C5.80327 27.6404 6.11407 27.8967 6.33267 28.225C6.55128 28.5533 6.66793 28.9389 6.66797 29.3333C6.66799 29.5982 6.61539 29.8605 6.51322 30.1049C6.41105 30.3493 6.26134 30.571 6.07279 30.757C5.88424 30.9431 5.6606 31.0899 5.41486 31.1888C5.16912 31.2877 4.90618 31.3369 4.6413 31.3333ZM4.6413 28.6667C4.51071 28.6719 4.38454 28.7154 4.27847 28.7917C4.1724 28.8681 4.09111 28.9739 4.04472 29.0961C3.99833 29.2183 3.98887 29.3514 4.01753 29.479C4.04618 29.6065 4.11169 29.7228 4.2059 29.8133C4.30011 29.9039 4.41887 29.9648 4.54741 29.9885C4.67595 30.0121 4.8086 29.9974 4.92887 29.9463C5.04914 29.8951 5.15173 29.8098 5.22387 29.7008C5.29601 29.5918 5.33453 29.464 5.33464 29.3333C5.33471 29.2435 5.31662 29.1546 5.28146 29.0719C5.2463 28.9892 5.1948 28.9145 5.13004 28.8522C5.06528 28.79 4.98861 28.7414 4.90462 28.7095C4.82063 28.6776 4.73107 28.6631 4.6413 28.6667Z" fill="#E2DFF4"/>
<path d="M57.3607 34.6667H56.0273V37.3334H57.3607V34.6667Z" fill="#E2DFF4"/>
<path d="M57.3607 41.3333H56.0273V44H57.3607V41.3333Z" fill="#E2DFF4"/>
<path d="M61.36 38.6667H58.6934V40H61.36V38.6667Z" fill="#E2DFF4"/>
<path d="M22.1057 46.2533C20.6455 44.6432 19.5463 42.7395 18.8817 40.6699C18.2171 38.6003 18.0026 36.4126 18.2524 34.2533C18.4356 31.0639 19.5531 27.9988 21.4657 25.44L21.3324 25.3333C20.1991 24.3067 19.3191 23.6133 18.9857 23.36C16.1057 26.9067 14.6524 29.44 14.2124 34.2267C13.9626 36.3859 14.1771 38.5737 14.8417 40.6432C15.5063 42.7128 16.6055 44.6165 18.0657 46.2266C19.8618 48.1013 22.0277 49.5825 24.4262 50.5763C26.8247 51.5701 29.4034 52.0549 31.9991 52C32.6657 52 33.3324 52 33.9724 51.9067C29.4547 51.5513 25.2281 49.5377 22.1057 46.2533Z" fill="#DADDE2"/>
<path d="M24.4931 29.6933C24.1415 29.6883 23.806 29.5445 23.5598 29.2933C22.2966 28.0343 20.961 26.85 19.5598 25.7467C19.2804 25.5292 19.0989 25.2096 19.0552 24.8583C19.0114 24.507 19.109 24.1527 19.3265 23.8733C19.544 23.594 19.8635 23.4124 20.2148 23.3687C20.5661 23.3249 20.9204 23.4225 21.1998 23.64C21.5331 23.8933 22.4531 24.6267 23.6131 25.68C25.4798 18.8133 32.3731 12.44 32.4531 12.3467C32.7024 12.1024 33.0375 11.9655 33.3865 11.9655C33.7355 11.9655 34.0706 12.1024 34.3198 12.3467C34.4468 12.4708 34.5477 12.6191 34.6166 12.7828C34.6855 12.9466 34.721 13.1224 34.721 13.3C34.721 13.4776 34.6855 13.6534 34.6166 13.8171C34.5477 13.9809 34.4468 14.1291 34.3198 14.2533L34.1331 14.4C32.9465 15.5467 26.1331 22.4 25.8265 28.3867C25.8127 28.6437 25.7248 28.8913 25.5734 29.0996C25.4219 29.3078 25.2135 29.4677 24.9731 29.56C24.8239 29.6368 24.6606 29.6822 24.4931 29.6933Z" fill="#DADDE2"/>
<path d="M32.8546 30.9466C32.6204 30.7639 32.3317 30.6647 32.0346 30.6647C31.7375 30.6647 31.4489 30.7639 31.2146 30.9466C30.3346 31.6266 22.668 37.7466 22.668 42.6666C22.668 45.142 23.6513 47.516 25.4016 49.2663C27.152 51.0166 29.5259 52 32.0013 52C34.4767 52 36.8506 51.0166 38.601 49.2663C40.3513 47.516 41.3346 45.142 41.3346 42.6666C41.3346 37.7466 33.7213 31.6266 32.8546 30.9466Z" fill="#6666FF"/>
<path d="M31.9993 53.3334C29.2231 53.3887 26.4655 52.8688 23.9 51.8063C21.3346 50.7439 19.0168 49.1619 17.0926 47.16C15.5046 45.408 14.3085 43.3374 13.5843 41.0865C12.86 38.8355 12.6242 36.456 12.8926 34.1067C13.3593 29 14.9726 26.2 17.9726 22.52C18.1923 22.2492 18.5093 22.0751 18.8558 22.0352C19.2022 21.9954 19.5505 22.0928 19.8259 22.3067C20.1593 22.56 21.0793 23.2934 22.2393 24.3467C24.0393 17.68 30.5859 11.5067 31.0526 11.0134C31.2827 10.7844 31.5884 10.6472 31.9125 10.6276C32.2365 10.6079 32.5565 10.7072 32.8126 10.9067C35.0393 12.24 50.6526 22.52 51.1059 34.1334C51.2737 36.5873 50.934 39.0496 50.1082 41.3665C49.2823 43.6834 47.988 45.8054 46.3059 47.6C44.4256 49.4636 42.1907 50.9311 39.7334 51.9159C37.276 52.9007 34.6461 53.3827 31.9993 53.3334ZM19.2393 25.24C17.0737 27.8036 15.7925 30.9972 15.5859 34.3467C15.3549 36.3221 15.5482 38.324 16.1529 40.2187C16.7577 42.1133 17.7599 43.8571 19.0926 45.3334C20.7594 47.0649 22.7666 48.4327 24.9879 49.3506C27.2091 50.2684 29.5964 50.7165 31.9993 50.6667C34.2838 50.7151 36.5549 50.3046 38.678 49.4595C40.801 48.6144 42.7329 47.3519 44.3593 45.7467C45.793 44.2193 46.8965 42.4128 47.6008 40.4399C48.3051 38.467 48.595 36.37 48.4526 34.28C48.0926 24.8534 35.7859 16.08 32.1726 13.7067C30.1459 15.7734 24.7726 21.7067 24.4659 27.04C24.45 27.2953 24.361 27.5407 24.2095 27.7468C24.0579 27.9529 23.8503 28.1111 23.6114 28.2024C23.3724 28.2938 23.1122 28.3145 22.8619 28.2621C22.6115 28.2096 22.3815 28.0863 22.1993 27.9067C21.0793 26.8267 19.9993 25.88 19.2393 25.24Z" fill="#322F56"/>
</svg>
