<svg width="29" height="28" viewBox="0 0 29 28" fill="none" xmlns="http://www.w3.org/2000/svg">
<g clip-path="url(#clip0_424_323)">
<path fill-rule="evenodd" clip-rule="evenodd" d="M28.2459 24.2592C27.3816 26.8856 23.9955 28.196 21.5763 27.9776C18.2723 27.6789 14.6771 25.9261 11.948 23.996C7.93658 21.1587 4.17898 16.7701 1.98938 12.1128C0.441913 8.82188 0.0947127 4.77495 2.39631 1.77521C3.24751 0.666413 4.16965 0.0746794 5.55098 0.00561277C7.46991 -0.0877206 7.73871 1.00988 8.39765 2.71975C8.88858 3.99841 9.54378 5.30321 9.90965 6.62855C10.5947 9.10188 8.19978 9.20455 7.89738 11.2261C7.71071 12.5011 9.25445 14.2109 9.95258 15.12C11.2982 16.8905 12.9464 18.4091 14.8208 19.6056C15.8848 20.2757 17.5984 21.4835 18.8155 20.8171C20.6896 19.7904 20.5142 16.6301 23.1331 17.6997C24.4902 18.2523 25.8043 19.0493 27.0998 19.7475C29.1027 20.8245 29.0094 21.9408 28.2459 24.2592C28.8171 22.5269 27.6747 25.9915 28.2459 24.2592Z" fill="white"/>
</g>
<defs>
<clipPath id="clip0_424_323">
<rect width="28" height="28" fill="white" transform="translate(0.75)"/>
</clipPath>
</defs>
</svg>
