<svg width="40" height="40" viewBox="0 0 40 40" fill="none" xmlns="http://www.w3.org/2000/svg">
<path d="M36.0706 10.5592L36.5394 10.432L33.7442 23.9584L33.2754 24.0856L36.0706 10.5592Z" fill="#474B59"/>
<path d="M24.2168 3.71521L24.6856 3.58801L36.5392 10.432L36.0704 10.5592L24.2168 3.71521Z" fill="#5B5E71"/>
<path d="M36.0705 10.5592L33.2753 24.0856L21.4209 17.2416L24.2169 3.71521L36.0705 10.5592Z" fill="#525566"/>
<path d="M35.9074 5.95917L36.0162 5.92957L32.809 21.4496L32.7002 21.4792L35.9074 5.95917Z" fill="#D4D8EE"/>
<path d="M25.9639 0.217588L26.0727 0.187988L36.0159 5.92959L35.9071 5.95919L25.9639 0.217588Z" fill="#D4D8EE"/>
<path d="M35.9071 5.95913L32.6999 21.4791L22.7559 15.7375L25.9639 0.217529L35.9071 5.95913Z" fill="#E7EFFB"/>
<path d="M25.6734 29.4448L25.6974 37.005V37.421L6.54541 26.2928C6.48139 26.253 6.44141 26.1729 6.44141 26.0612L6.52939 17.8768L25.8014 29.069C25.7294 29.1889 25.6734 29.3249 25.6734 29.4448Z" fill="#525566"/>
<path d="M38.2093 21.8292C38.1213 21.8292 37.9693 21.9492 37.8733 21.989L26.0253 28.837C25.9373 28.8851 25.8573 28.973 25.8013 29.0691L6.5293 17.8769L18.7213 10.8613C18.8253 10.8128 18.9133 10.805 18.9773 10.8449L38.2093 21.8292Z" fill="#5B5E71"/>
<path d="M25.6729 29.0401L38.2297 21.7913L38.2561 30.1705V30.1713L25.6985 37.4201L25.6729 29.0401Z" fill="#525566"/>
<path d="M37.543 24.9632L37.547 26.4904L37.687 26.4104L37.6822 24.8824L37.543 24.9632Z" fill="#474B59"/>
<path d="M37.1572 25.1856L37.1612 26.7136L37.2988 26.6336L37.2948 25.1064L37.1572 25.1856Z" fill="#474B59"/>
<path d="M36.7695 25.4097L36.7743 26.9369L36.9135 26.8561L36.9095 25.3289L36.7695 25.4097Z" fill="#474B59"/>
<path d="M36.3838 25.6321L36.3886 27.1601L36.5278 27.0793L36.5238 25.5513L36.3838 25.6321Z" fill="#474B59"/>
<path d="M35.998 25.8545L36.0028 27.3825L36.1404 27.3025L36.1356 25.7753L35.998 25.8545Z" fill="#474B59"/>
<path d="M35.6113 26.0784L35.6153 27.6056L35.7553 27.5256L35.7505 25.9976L35.6113 26.0784Z" fill="#474B59"/>
<path d="M35.2256 26.3008L35.2296 27.8288L35.3688 27.748L35.3648 26.2208L35.2256 26.3008Z" fill="#474B59"/>
<path d="M34.8379 26.5248L34.8427 28.052L34.9819 27.972L34.9779 26.444L34.8379 26.5248Z" fill="#474B59"/>
<path d="M34.4521 26.7472L34.4569 28.2752L34.5961 28.1944L34.5922 26.6672L34.4521 26.7472Z" fill="#474B59"/>
<path d="M34.0664 26.9704L34.0712 28.4976L34.2088 28.4184L34.204 26.8904L34.0664 26.9704Z" fill="#474B59"/>
<path d="M33.6797 27.1936L33.6837 28.7216L33.8237 28.6408L33.8189 27.1136L33.6797 27.1936Z" fill="#474B59"/>
<path d="M37.5439 22.9088L37.5479 24.436L37.6879 24.3552L37.6831 22.828L37.5439 22.9088Z" fill="#474B59"/>
<path d="M37.1582 23.1312L37.1622 24.6592L37.2998 24.5792L37.2958 23.052L37.1582 23.1312Z" fill="#474B59"/>
<path d="M36.7705 23.3552L36.7753 24.8824L36.9145 24.8016L36.9105 23.2744L36.7705 23.3552Z" fill="#474B59"/>
<path d="M36.3848 23.5776L36.3896 25.1048L36.5288 25.0248L36.5248 23.4968L36.3848 23.5776Z" fill="#474B59"/>
<path d="M35.999 23.8L36.0038 25.328L36.1414 25.248L36.1366 23.7208L35.999 23.8Z" fill="#474B59"/>
<path d="M35.6113 24.024L35.6153 25.5512L35.7553 25.4712L35.7505 23.9432L35.6113 24.024Z" fill="#474B59"/>
<path d="M35.2266 24.2464L35.2306 25.7744L35.3698 25.6936L35.3658 24.1664L35.2266 24.2464Z" fill="#474B59"/>
<path d="M34.8379 24.4704L34.8427 25.9977L34.9819 25.9176L34.9779 24.3896L34.8379 24.4704Z" fill="#474B59"/>
<path d="M34.4521 24.6928L34.4569 26.2208L34.5961 26.14L34.5922 24.6128L34.4521 24.6928Z" fill="#474B59"/>
<path d="M34.0664 24.9161L34.0712 26.4433L34.2088 26.3641L34.204 24.8361L34.0664 24.9161Z" fill="#474B59"/>
<path d="M33.6797 25.1392L33.6837 26.6672L33.8237 26.5864L33.8189 25.0592L33.6797 25.1392Z" fill="#474B59"/>
<path d="M10.6816 20.2877L10.2392 20.544C9.37179 21.0512 8.65868 22.2716 8.66603 23.2785L8.68811 29.881L4.53971 27.4697L4.51763 20.8676C4.51027 19.8607 5.22339 18.6327 6.09084 18.1331L6.53317 17.8768L10.6816 20.2877Z" fill="#525566"/>
<path d="M10.6841 20.2871L10.71 28.7118L8.68475 29.8824L8.66407 23.2777C8.66122 22.2732 9.36866 21.048 10.2428 20.5433L10.6841 20.2871Z" fill="#474B59"/>
<path d="M22.0432 12.6246L20.3745 13.5949C19.8966 13.8745 19.7128 14.2564 19.8158 14.6168C19.8819 14.3889 20.0657 14.161 20.3745 13.9919L22.0432 13.0145L34.3127 20.1009L34.629 19.9361L22.0432 12.6246Z" fill="#474B59"/>
<path d="M20.3751 13.9918C20.0664 14.1609 19.8826 14.3888 19.8164 14.6168C19.8826 14.8447 20.0737 15.0726 20.3825 15.2489L30.1304 20.8802C30.917 21.336 32.2035 21.336 32.9827 20.8802L34.3133 20.1009L22.0439 13.0144L20.3751 13.9918Z" fill="#525566"/>
<path d="M23.1697 12.8615L22.9007 12.7824C22.8627 12.7713 22.8533 12.6722 22.8819 12.5333L23.1509 12.6123C23.1223 12.7512 23.1317 12.8503 23.1697 12.8615Z" fill="#525566"/>
<path d="M24.3831 7.09835L24.1143 7.01995L24.2551 6.93835L24.5239 7.01755L24.3831 7.09835Z" fill="#525566"/>
<path d="M23.1514 12.6127L22.8818 12.5335L23.9402 7.3927L24.2098 7.4719L23.1514 12.6127Z" fill="#525566"/>
<path d="M24.2094 7.47205L23.9404 7.39303C23.9756 7.22199 24.054 7.05446 24.1145 7.01953L24.3835 7.09855C24.323 7.13348 24.2446 7.30101 24.2094 7.47205Z" fill="#525566"/>
<path d="M24.5235 7.01746L23.3381 12.775L23.1975 12.8561C23.137 12.891 23.1158 12.781 23.1505 12.6124L24.2089 7.47211C24.2441 7.30107 24.3225 7.13354 24.383 7.09862L24.5235 7.01746Z" fill="#3F434F"/>
<path d="M33.7019 17.9379L33.4329 17.8589C33.3949 17.8477 33.3856 17.7486 33.4142 17.6097L33.6831 17.6888C33.6546 17.8276 33.6639 17.9267 33.7019 17.9379Z" fill="#525566"/>
<path d="M34.9153 12.1752L34.6465 12.096L34.7865 12.0144L35.0561 12.0936L34.9153 12.1752Z" fill="#525566"/>
<path d="M33.6829 17.6888L33.4141 17.6096L34.4725 12.4696L34.7413 12.5488L33.6829 17.6888Z" fill="#525566"/>
<path d="M34.7416 12.5485L34.4727 12.4694C34.5079 12.2984 34.5863 12.1309 34.6468 12.0959L34.9157 12.175C34.8552 12.2099 34.7769 12.3774 34.7416 12.5485Z" fill="#525566"/>
<path d="M35.0558 12.0939L33.8703 17.8514L33.7297 17.9325C33.6692 17.9675 33.648 17.8574 33.6827 17.6888L34.7411 12.5485C34.7763 12.3775 34.8547 12.21 34.9152 12.175L35.0558 12.0939Z" fill="#3F434F"/>
<path d="M12.4775 19.4171C12.6688 19.5276 12.67 19.7074 12.4798 19.8179C12.2896 19.9284 11.9791 19.9284 11.7878 19.818C11.5964 19.7075 11.5954 19.5276 11.7855 19.4171C11.9757 19.3066 12.2861 19.3066 12.4775 19.4171Z" fill="#75CA75"/>
<path d="M11.543 18.8921C11.7343 19.0026 11.7354 19.1824 11.5452 19.2929C11.355 19.4034 11.0445 19.4034 10.8532 19.293C10.6618 19.1824 10.6608 19.0026 10.851 18.8921C11.0411 18.7815 11.3516 18.7816 11.543 18.8921Z" fill="#F9607F"/>
<path d="M10.6093 18.7652C10.4253 18.8769 10.1133 18.8769 9.92134 18.7652C9.72935 18.6613 9.72935 18.4769 9.92134 18.3652C10.1053 18.2531 10.4173 18.2531 10.6093 18.3652C10.8013 18.4769 10.8013 18.6613 10.6093 18.7652Z" fill="#F9BB4A"/>
<path d="M9.46491 18.221C9.13694 18.421 8.59294 18.421 8.2569 18.221C7.92092 18.0292 7.92092 17.7171 8.2489 17.5249C8.58493 17.3249 9.12893 17.3249 9.46491 17.5249C9.8009 17.7171 9.8009 18.0292 9.46491 18.221Z" fill="#576CFB"/>
<path d="M19.0481 28.316C20.1818 28.9706 21.1007 30.5623 21.097 31.8697L21.0891 34.6803L10.9062 28.8012L10.9142 25.9906C10.9179 24.6832 11.8429 24.1561 12.9807 24.8131L19.0481 28.316Z" fill="#474B59"/>
<path d="M11.5093 26.9496L11.5029 28.4592L21.0909 34.0008L21.0973 32.4856L11.5093 26.9496Z" fill="#3F434F"/>
<path d="M11.5027 28.4592L10.9043 28.804L21.0907 34.6776V34.0008L11.5027 28.4592Z" fill="#5B5E71"/>
<path d="M11.5027 28.4591L11.5091 26.9495L10.9179 26.6119L10.9043 28.8039L11.5027 28.4591Z" fill="#474B59"/>
<path d="M20.2368 34.188L20.236 34.488L11.0752 39.812L11.076 39.512L20.2368 34.188Z" fill="#525566"/>
<path d="M11.0761 39.512L11.0753 39.812L1.74414 34.4248L1.74494 34.1248L11.0761 39.512Z" fill="#525566"/>
<path d="M20.2371 34.188L11.0763 39.512L1.74512 34.1248L10.9067 28.8008L20.2371 34.188Z" fill="#5B5E71"/>
<path d="M19.903 31.796L19.9022 31.9144L11.3662 36.8744L11.367 36.7568L19.903 31.796Z" fill="#CED1EB"/>
<path d="M11.3675 36.7568L11.3667 36.8744L4.91309 33.1488L4.91389 33.0312L11.3675 36.7568Z" fill="#CED1EB"/>
<path d="M19.9037 31.796L11.3677 36.7568L4.91406 33.0312L13.4501 28.0704L19.9037 31.796Z" fill="#E7EFFB"/>
<path d="M5.47461 32.9576L9.25861 30.7584L15.2426 34.2136L11.4586 36.412L5.47461 32.9576Z" fill="#F7AE13"/>
<path d="M13.3741 35.0032C13.3981 35.027 13.4301 35.0513 13.4541 35.0833V35.1071C13.4061 35.0714 13.3463 35.0435 13.3181 34.9872C13.2861 34.9712 13.2541 34.9552 13.2221 34.9314L13.1981 34.9392C13.2621 34.9954 13.3261 35.0431 13.3581 35.1071C13.2779 35.0284 13.0494 34.9153 13.2061 34.9153C13.1741 34.9071 13.1661 34.8993 13.1501 34.8993C13.1501 34.837 13.142 34.8552 12.9581 34.7232C12.9501 34.7232 12.9501 34.7153 12.9421 34.7232C13.0221 34.7712 13.0621 34.8353 13.1181 34.8911C13.0571 34.8792 13.0214 34.8666 12.9741 34.8193C13.0061 34.8833 13.0861 34.9232 13.1581 34.979C13.1261 34.979 13.1101 34.9872 13.0861 34.9872C13.0941 35.0032 13.0861 35.0192 13.1101 35.0271C13.1181 35.0353 13.1261 35.0353 13.1501 35.0353C13.1661 35.0431 13.1741 35.0431 13.1821 35.0513C13.2141 35.0673 13.2301 35.0911 13.2541 35.1071L13.2461 35.1313C13.2301 35.1392 13.2301 35.1552 13.2461 35.1634C13.2701 35.1712 13.2941 35.1634 13.3101 35.1634L13.3181 35.1552C13.3581 35.179 13.3981 35.211 13.4301 35.2353V35.2673C13.4221 35.2751 13.4061 35.2911 13.3981 35.3071C13.3842 35.2978 12.881 34.9497 12.8621 34.9313C12.8301 34.9231 12.8061 34.9231 12.7821 34.9231L12.7981 34.947C12.8448 34.9941 12.6883 35.0775 12.6461 35.0353C12.6381 35.0353 12.6221 35.0271 12.6061 35.011C12.5981 34.9954 12.5821 34.979 12.5581 34.9712C12.5501 34.9634 12.5341 34.9552 12.5181 34.9552C12.4941 34.9392 12.4541 34.947 12.4141 34.947C12.4221 34.9314 12.4221 34.9153 12.4621 34.9314C12.4461 34.9232 12.4381 34.9071 12.4301 34.8993C12.4141 34.8993 12.3981 34.8911 12.3741 34.8993L12.3341 34.8833C12.3261 34.8751 12.3181 34.8751 12.3181 34.8673C12.3021 34.8591 12.2781 34.8591 12.2541 34.8591L12.2221 34.8513C12.2301 34.8673 12.2541 34.8751 12.2781 34.8833C12.2541 34.8833 12.2301 34.8911 12.2061 34.8993C12.2221 34.9071 12.2381 34.9314 12.2701 34.8993C12.3501 34.947 12.4301 34.9954 12.5181 35.0431C12.4615 35.0576 12.4022 35.0075 12.3021 34.947V34.9712C12.2437 34.9569 12.1987 34.9297 12.1661 34.8751C12.1261 34.9314 12.2461 34.9392 12.2461 34.9872C12.2326 34.9826 11.9309 34.8556 11.9101 34.8353C11.8461 34.8032 11.7821 34.7712 11.7181 34.7314C11.7101 34.7314 11.7021 34.7232 11.7021 34.7232C11.6861 34.7153 11.6781 34.7071 11.6701 34.6993C11.6541 34.6911 11.6461 34.6911 11.6221 34.6993C11.6141 34.6833 11.6141 34.6751 11.6061 34.6673C11.5901 34.6673 11.5821 34.6591 11.5741 34.6513C11.5581 34.6431 11.5501 34.6353 11.5421 34.6353C11.4905 34.5963 11.4174 34.5634 11.3501 34.5634C11.321 34.5336 11.2861 34.5464 11.2861 34.5071C11.2941 34.4911 11.2861 34.4833 11.2781 34.4751C11.2701 34.4751 11.2621 34.4751 11.2621 34.4673C11.2141 34.4431 11.1741 34.4271 11.1421 34.4032C11.1181 34.3954 11.0941 34.379 11.0701 34.3712C11.0221 34.3392 10.9661 34.3153 10.9181 34.2911L10.9101 34.2833C10.9101 34.2751 10.9021 34.2751 10.9021 34.2751C10.8941 34.2673 10.8861 34.2673 10.8701 34.2751C10.8557 34.2655 10.7785 34.2153 10.7661 34.2032C10.7493 34.1868 10.6997 34.1856 10.6701 34.1712C10.6541 34.1634 10.6461 34.147 10.6461 34.1392H10.6061C10.5981 34.1314 10.5981 34.1314 10.5901 34.1232C10.5741 34.1153 10.5581 34.1153 10.5341 34.1232L10.5181 34.0833L10.4781 34.0911C10.4781 34.0911 10.4527 34.0908 10.4061 34.0431C10.3261 34.0039 10.1435 33.9083 10.1021 33.9392H10.0781C10.0541 33.947 10.0301 33.947 10.0141 33.9552C10.0061 33.9552 10.0061 33.9712 9.99813 33.979C10.0788 33.9718 10.0287 33.9525 10.1101 33.979C10.1421 33.9712 10.1581 33.979 10.1821 33.9954C10.1901 33.9954 10.1981 33.9954 10.1981 34.0032C10.2279 34.0178 10.2849 34.0418 10.3021 34.0591C10.3181 34.0591 10.3261 34.0751 10.3421 34.0833C10.3465 34.0875 10.3862 34.1113 10.3901 34.1153C10.3981 34.1153 10.4061 34.1232 10.4141 34.1232C10.4381 34.1392 10.4541 34.147 10.4621 34.1712L10.4701 34.179C10.526 34.1981 10.536 34.1962 10.5741 34.2353C10.5821 34.2431 10.5981 34.2513 10.6141 34.2591C10.6216 34.2591 10.7354 34.312 10.7421 34.3153C10.7581 34.3153 10.7661 34.3232 10.7821 34.3314C10.7741 34.3314 10.7661 34.3392 10.7581 34.347C10.7821 34.3552 10.7981 34.3634 10.8221 34.3634C11.1571 34.4746 11.1395 34.5066 11.2221 34.547C11.2221 34.5552 11.2301 34.5552 11.2301 34.5552C11.2346 34.5575 11.318 34.5915 11.3421 34.6032C11.3501 34.6032 11.3501 34.6111 11.3581 34.6111C11.3821 34.6353 11.4221 34.6591 11.4621 34.6751C11.5039 34.7173 11.5867 34.7659 11.6541 34.779C11.6701 34.7872 11.6941 34.7872 11.7101 34.7954C11.7181 34.8032 11.7181 34.811 11.7101 34.8193C11.7341 34.8271 11.7501 34.8353 11.7661 34.8353C11.7901 34.8431 11.8141 34.8513 11.8301 34.8591C11.8541 34.8751 11.8621 34.8833 11.8621 34.8833C11.8541 34.8993 11.8621 34.9072 11.8701 34.9072C11.8781 34.9154 11.9021 34.9154 11.9181 34.9154C11.9181 34.9314 11.9261 34.9392 11.9341 34.9392C11.9969 34.9671 12.2432 35.0562 12.2941 35.1072C12.3661 35.147 12.4381 35.1954 12.5181 35.2431V35.2591C12.5101 35.2673 12.4941 35.2751 12.4781 35.2673C12.2059 35.2363 11.615 34.9371 11.2381 34.747C11.2221 34.747 11.1981 34.7392 11.1741 34.7392C11.3528 34.9573 11.4709 35.0412 11.5261 35.2431L11.5021 35.2513C11.4701 35.2192 11.4461 35.1954 11.4061 35.1634V35.1954H11.3501V35.179C11.3501 35.1552 11.3421 35.1392 11.3261 35.1314C11.3181 35.1232 11.3021 35.1232 11.2781 35.1153C11.2621 35.0911 11.2461 35.0833 11.2301 35.0673C11.2221 35.0673 11.2141 35.0591 11.1981 35.0513C11.1901 35.0513 11.1821 35.0431 11.1741 35.0431C11.1501 35.0271 11.1341 35.0192 11.1181 35.0032C11.1158 35.003 11.0381 34.9954 11.0381 34.9954C11.0461 35.0032 11.0461 35.0193 11.0461 35.0271C11.0461 35.0271 11.0381 35.0193 11.0301 35.0193C10.9981 34.9954 10.9501 34.9552 10.9501 34.9392L10.9661 34.9232C10.9741 34.9153 10.9741 34.9071 10.9661 34.8993L10.9581 34.9232L10.9261 34.9153C10.8968 34.8973 10.7971 34.7958 10.0141 34.211L10.0061 34.1954C10.1318 34.2445 10.2048 34.305 10.2861 34.3634C10.2941 34.347 10.3021 34.3392 10.2941 34.3314C10.2701 34.3071 10.2461 34.2911 10.2301 34.2751C10.2221 34.2673 10.2141 34.2591 10.2221 34.2431C10.3501 34.2751 10.4701 34.3232 10.5901 34.379C10.5821 34.3634 10.5821 34.3552 10.5741 34.347C10.5581 34.3392 10.5421 34.3392 10.5261 34.3314L10.5341 34.2993C10.5021 34.2993 10.4781 34.2911 10.4621 34.2833C10.4464 34.2833 10.43 34.2513 10.4141 34.2513C10.326 34.1979 10.246 34.1402 10.1501 34.0993L10.1341 34.0833C10.1123 34.0398 10.018 34.0097 9.97408 33.9872C9.96607 33.9872 9.95806 34.0032 9.9501 34.011C9.94209 34.0032 9.93409 33.9954 9.92608 33.9872L9.91807 34.011C9.87808 33.979 9.88609 33.9712 9.94209 33.9634C9.94209 33.9552 9.94209 33.947 9.93409 33.947C9.93409 33.9392 9.92608 33.9392 9.91006 33.9392C9.86206 33.947 9.84609 33.9552 9.83008 33.947C9.82207 33.9392 9.82207 33.9314 9.82207 33.9071C9.78208 33.9232 9.74209 33.9153 9.71006 33.8993C9.70568 33.8948 9.66377 33.869 9.65405 33.8591C9.63809 33.8513 9.63008 33.8353 9.62207 33.8271L9.66206 33.811C9.67007 33.811 9.67808 33.811 9.68609 33.8192C9.69409 33.8192 9.69409 33.8353 9.69409 33.8431L9.70205 33.8591L9.73409 33.8271C9.70929 33.8029 9.66472 33.7712 9.63009 33.7712C9.60606 33.7872 9.59009 33.7954 9.56607 33.8032H9.53409C9.5501 33.7954 9.55806 33.7872 9.57408 33.779C9.54209 33.7872 9.51807 33.7872 9.51006 33.779C9.50205 33.779 9.50205 33.7712 9.50205 33.7634C9.47007 33.7552 9.44609 33.747 9.42207 33.7392C9.38855 33.7057 9.30139 33.6691 9.26206 33.6513C9.27007 33.6431 9.25405 33.6271 9.24609 33.6193C9.23818 33.6152 9.16606 33.6032 9.16606 33.6032C9.15805 33.5954 9.15009 33.5872 9.15009 33.579C9.12607 33.5712 9.11806 33.5634 9.10205 33.5552C9.09668 33.5497 9.04379 33.513 9.03808 33.5071C9.03007 33.5071 9.02206 33.4993 9.02206 33.4993C8.94169 33.4626 8.8545 33.4319 8.60605 33.347C8.63007 33.3314 8.64609 33.3232 8.66205 33.3071C8.59309 33.2959 8.57176 33.3625 8.50205 33.2911C8.48608 33.2911 8.47807 33.2833 8.47006 33.2833C8.46205 33.2751 8.45405 33.2673 8.45405 33.2513C8.42206 33.2431 8.40605 33.2431 8.37406 33.2353C8.39008 33.2271 8.39809 33.2271 8.40605 33.2193C8.38207 33.2032 8.35805 33.1872 8.33407 33.1712C8.36605 33.1712 8.39809 33.179 8.42206 33.1872C8.41405 33.1712 8.39809 33.1634 8.38207 33.147C8.36605 33.1392 8.35805 33.1392 8.34208 33.1314C8.33407 33.1232 8.31805 33.1232 8.31005 33.1153C8.29408 33.1071 8.27806 33.0911 8.27005 33.0833C8.38592 33.1116 8.46889 33.1639 8.75009 33.2911C8.76605 33.3071 8.77406 33.3071 8.78207 33.3153C8.79008 33.3153 8.79809 33.3232 8.80605 33.3232L8.84609 33.3392C8.83524 33.3311 8.48993 33.1409 8.46205 33.1232C8.43007 33.1153 8.40605 33.0993 8.38207 33.0911L8.36605 33.0751L8.39809 33.0673C8.42206 33.0751 8.45405 33.0751 8.47807 33.0833C8.47006 33.0673 8.44609 33.0591 8.43007 33.0431L8.41405 33.0193C8.47006 33.0271 8.51005 33.0431 8.54208 33.0591C8.51805 33.0353 8.48607 33.0193 8.45404 33.0032V32.9872C8.47806 32.9954 8.50204 32.9954 8.52606 33.0032V32.9872C8.52606 32.9872 8.54097 32.9931 8.40605 32.947V32.9954L8.39809 33.0111L8.35805 33.0032C8.32606 32.9954 8.30204 32.979 8.28607 32.9712C8.27732 32.9627 8.24597 32.9395 8.21405 32.9232C8.21405 32.9232 8.20604 32.9232 8.19808 32.9153C7.76678 32.6977 7.88828 32.7529 7.84608 32.7392L7.85404 32.7232C7.87806 32.7314 7.91005 32.7392 7.92606 32.7552C7.94672 32.7621 8.25901 32.9281 8.39809 32.9872C8.38207 32.9552 8.37406 32.9314 8.35805 32.9071C8.33407 32.9153 8.32606 32.9232 8.31005 32.9314C8.32606 32.9071 8.31805 32.8911 8.30204 32.8833C8.29408 32.8833 8.29408 32.8833 8.28607 32.8751C8.26205 32.8673 8.23006 32.8673 8.20604 32.8591C8.19808 32.8591 8.19808 32.8513 8.19007 32.8513C8.17405 32.8353 8.15008 32.8271 8.13406 32.811C8.11805 32.8032 8.11805 32.8032 8.11004 32.8032C8.10203 32.7954 8.10203 32.7954 8.09407 32.7872C8.07005 32.779 8.05403 32.7712 8.01404 32.7712L7.98212 32.7552C7.97411 32.747 7.9661 32.7392 7.95809 32.7313C7.95013 32.7313 7.95013 32.7231 7.94213 32.7231C7.9181 32.7071 7.90209 32.6993 7.90209 32.6833C7.81726 32.6397 7.82921 32.6431 7.8221 32.6431C7.9181 32.6673 7.99813 32.6993 8.08612 32.7392C8.03011 32.6993 7.9661 32.6673 7.90209 32.6353L7.91009 32.6192C7.99377 32.6611 8.07539 32.6997 8.13412 32.6911L8.20609 32.7231C8.19013 32.7071 8.17411 32.6993 8.15809 32.6833H8.2141C8.20609 32.6673 8.18212 32.6591 8.15809 32.6431C8.15013 32.6591 8.15013 32.6673 8.14213 32.6751H8.10209C8.0221 32.6431 7.94213 32.6032 7.86209 32.5712H7.83012L7.79013 32.5552L7.79813 32.547C7.8141 32.5392 7.83012 32.5392 7.84613 32.5392C7.8141 32.5071 7.77411 32.4911 7.73413 32.4833H7.70209L7.71811 32.5071C7.73413 32.5071 7.7581 32.5153 7.78213 32.5232C7.78213 32.5232 7.77412 32.5392 7.77412 32.547C7.66211 32.5072 7.5581 32.4751 7.4541 32.4353L7.46211 32.4193C7.51011 32.4271 7.55811 32.4353 7.62212 32.4431C7.57412 32.4111 7.53413 32.3872 7.48613 32.3634C8.14249 32.3634 8.61337 32.4985 9.19013 32.7872C9.48078 32.9215 9.76013 33.0873 9.83013 33.1154C9.87878 33.164 12.2862 34.6239 12.5421 34.7072C12.5421 34.627 12.5405 34.7289 12.2301 34.4193C12.1661 34.379 12.1021 34.3314 12.0381 34.2911C12.0221 34.2833 12.0141 34.2673 11.9981 34.2591L11.9821 34.2431C11.9341 34.2193 11.8941 34.1954 11.8541 34.1712L11.8301 34.1552C11.8221 34.1392 11.7981 34.1232 11.7741 34.1072C11.7501 34.0911 11.7261 34.0833 11.6941 34.0673C11.6941 34.0673 11.6861 34.0673 11.6781 34.0591C11.6701 34.0591 11.6621 34.0513 11.6621 34.0513C11.6701 34.0353 11.6621 34.0271 11.6541 34.0193C11.6381 34.0111 11.6221 34.0111 11.6061 34.0033L11.5821 33.9954C10.8965 33.4463 10.9408 33.5999 10.9101 33.5072C10.9021 33.4993 10.8941 33.4911 10.8941 33.4751H10.9261C10.9181 33.4591 10.9101 33.4431 10.8941 33.4193H10.9501C10.9181 33.4033 10.8701 33.3712 10.8301 33.347C10.8301 33.3634 10.8381 33.379 10.8541 33.3872C10.8541 33.4111 10.8541 33.4271 10.8621 33.4431C10.834 33.434 10.7122 33.3843 10.6941 33.347C10.6941 33.347 10.6709 33.3232 10.6221 33.3232C10.6141 33.3232 10.5981 33.3154 10.5821 33.3072C10.5741 33.2993 10.5581 33.2911 10.5581 33.2833C10.546 33.2465 10.4824 33.221 10.4461 33.2032C10.3821 33.1634 10.3261 33.1232 10.2861 33.0751C10.2861 33.0673 10.2781 33.0673 10.2701 33.0591C10.2621 33.0513 10.2541 33.0513 10.2461 33.0513C9.96128 32.8758 10.0478 32.732 10.2061 32.7552C10.2221 32.7634 10.2461 32.7712 10.2541 32.779C10.3101 32.8032 10.3501 32.8111 10.4061 32.7872C10.5005 32.7557 10.6439 32.7867 10.6221 32.6993C10.5981 32.6431 10.6701 32.6032 10.7661 32.6193L10.7901 32.6353C10.7901 32.6591 10.7981 32.6751 10.8141 32.6833C10.8221 32.6911 10.8381 32.6993 10.8621 32.6993C10.8781 32.7071 10.8941 32.7071 10.9021 32.7153C10.9181 32.7232 10.9181 32.7392 10.8941 32.7634C10.9261 32.7634 10.9501 32.7712 10.9661 32.779C10.9901 32.7954 10.9981 32.8193 11.0141 32.8353C11.1521 32.9727 11.0257 32.95 11.4141 33.2673C11.3901 33.2673 11.3741 33.2673 11.3501 33.2513C11.3501 33.2751 11.3341 33.2911 11.3421 33.3071C11.3501 33.3314 11.3581 33.3634 11.3821 33.379C11.4509 33.483 12.0941 33.94 12.1741 33.979C12.1821 33.979 12.1901 33.9872 12.1981 33.9954C12.2221 34.0032 12.2461 34.0192 12.2621 34.0431C12.2781 34.0513 12.2861 34.0591 12.2941 34.0673C12.2781 34.0833 12.2621 34.0911 12.2461 34.1071L12.2781 34.1231C12.3021 34.1231 12.3501 34.1392 12.3581 34.0993C12.3741 34.1231 12.3821 34.1392 12.4061 34.147C12.4221 34.1634 12.4461 34.1634 12.4701 34.1634C12.4621 34.1954 12.4861 34.211 12.5181 34.2271C12.535 34.2444 12.958 34.5536 12.9982 34.5872C12.9982 34.579 12.9982 34.579 13.0061 34.5634C13.0382 34.5872 13.0701 34.6032 13.0942 34.6192L13.0781 34.6271C13.0541 34.6192 13.0381 34.611 13.0141 34.5954C13.1821 34.747 13.3421 34.8911 13.5101 35.0431C13.4621 35.0271 13.4221 35.0032 13.3661 34.979C13.3741 34.9872 13.3661 34.9954 13.3741 35.0032Z" fill="#F7CD3B"/>
<path d="M25.707 29.0153L25.2646 29.2715C24.3972 29.7787 23.6841 30.9991 23.6914 32.006L23.7135 38.6085L19.5651 36.1973L19.543 29.5951C19.5357 28.5883 20.2488 27.3603 21.1162 26.8606L21.5586 26.6044L25.707 29.0153Z" fill="#525566"/>
<path d="M25.7095 29.0148L25.7354 37.4394L23.7101 38.6101L23.6895 32.0054C23.6866 31.0009 24.3941 29.7756 25.2682 29.2709L25.7095 29.0148Z" fill="#474B59"/>
</svg>
