<svg width="32" height="32" viewBox="0 0 32 32" fill="none" xmlns="http://www.w3.org/2000/svg">
<path d="M2.11949 24.3007V24.5784C2.11828 24.6617 2.06394 24.7451 1.95406 24.8078C1.73428 24.9358 1.37685 24.9358 1.15587 24.8078C1.04477 24.7438 0.989227 24.6593 0.989227 24.5748V24.2983C0.989227 24.2149 1.04357 24.1316 1.15345 24.0676C1.37323 23.9396 1.73187 23.9396 1.95285 24.0676C2.06394 24.1316 2.11949 24.2161 2.11949 24.3007Z" fill="#1D2943"/>
<path d="M2.11961 24.3008L2.11888 24.5783C2.11864 24.6616 2.06394 24.7447 1.95454 24.8082C1.73476 24.9359 1.37697 24.9359 1.1555 24.808C1.04417 24.7437 0.98862 24.6594 0.988862 24.575L0.989586 24.2977C0.989345 24.3818 1.04489 24.4662 1.15623 24.5305C1.37781 24.6585 1.73561 24.6585 1.95526 24.5307C2.06467 24.4672 2.11949 24.3841 2.11961 24.3008Z" fill="#1D2943"/>
<path d="M1.9526 24.0676C2.17419 24.1956 2.17539 24.4028 1.95526 24.5307C1.73548 24.6585 1.37781 24.6585 1.15622 24.5305C0.935121 24.4028 0.933914 24.1956 1.15357 24.068C1.3737 23.94 1.73138 23.94 1.9526 24.0676Z" fill="#4C5C75"/>
<path d="M1.87145 23.3278L1.87121 24.2808C1.87121 24.3275 1.84066 24.3742 1.77944 24.41C1.65602 24.4822 1.45497 24.4827 1.33035 24.4112C1.26756 24.3752 1.23616 24.3278 1.23616 24.2805L1.2364 23.3274C1.2364 23.3748 1.2678 23.4222 1.33059 23.4582C1.45509 23.5297 1.65615 23.5292 1.77956 23.457C1.8409 23.4211 1.87133 23.3745 1.87133 23.3278H1.87145Z" fill="#9EA9C9"/>
<path d="M1.77908 23.1976C1.90346 23.2694 1.90442 23.3857 1.78077 23.4576C1.65712 23.5294 1.45606 23.5294 1.33168 23.4576C1.20731 23.3857 1.20658 23.2692 1.33023 23.1975C1.45377 23.1256 1.6547 23.1258 1.77908 23.1976Z" fill="#9EA9C9"/>
<path d="M8.15964 27.7881L8.15843 28.0658C8.15843 28.1492 8.10409 28.2313 7.99421 28.2953C7.77443 28.4233 7.417 28.4233 7.19481 28.2953C7.08372 28.2313 7.02817 28.1467 7.02817 28.0622L7.02938 27.7857C7.02938 27.7024 7.08371 27.619 7.1936 27.555C7.41338 27.427 7.77081 27.427 7.993 27.555C8.10409 27.619 8.15964 27.7036 8.15964 27.7881Z" fill="#1D2943"/>
<path d="M8.1594 27.7879L8.15868 28.0653C8.15844 28.1486 8.10374 28.2317 7.99445 28.2952C7.77468 28.423 7.41688 28.423 7.1953 28.295C7.08396 28.2307 7.02842 28.1464 7.02866 28.0622L7.02938 27.7847C7.02914 27.869 7.08469 27.9534 7.19602 28.0176C7.41761 28.1455 7.7754 28.1455 7.99506 28.0178C8.10446 27.9542 8.15928 27.8711 8.1594 27.7879Z" fill="#1D2943"/>
<path d="M7.99252 27.5548C8.21398 27.6828 8.21519 27.8899 7.99505 28.0179C7.77528 28.1455 7.4176 28.1455 7.19602 28.0176C6.97492 27.89 6.97383 27.6827 7.19336 27.555C7.4135 27.427 7.77129 27.427 7.99252 27.5548Z" fill="#4C5C75"/>
<path d="M7.91125 26.8148L7.91113 27.7678C7.91113 27.8145 7.88045 27.8613 7.81935 27.897C7.69582 27.9692 7.49476 27.9698 7.37015 27.8982C7.30735 27.8624 7.27596 27.8149 7.27608 27.7676L7.2762 26.8146C7.2762 26.8619 7.30759 26.9092 7.37039 26.9452C7.49488 27.0167 7.69594 27.0162 7.81935 26.944C7.8807 26.9083 7.91125 26.8615 7.91125 26.8148Z" fill="#9EA9C9"/>
<path d="M7.81887 26.6846C7.94325 26.7565 7.94422 26.8729 7.82056 26.9446C7.69691 27.0163 7.49586 27.0165 7.37148 26.9446C7.2471 26.8729 7.24638 26.7564 7.37003 26.6845C7.49368 26.6127 7.6945 26.6128 7.81887 26.6846Z" fill="#9EA9C9"/>
<path d="M31.2504 14.3686L31.2491 14.6463C31.2491 14.7296 31.1948 14.813 31.0849 14.877C30.8651 15.0038 30.5077 15.0038 30.2855 14.8758C30.1744 14.8118 30.1189 14.7272 30.1189 14.6439L30.1201 14.3662C30.1201 14.2829 30.1744 14.1995 30.2843 14.1367C30.5041 14.0087 30.8615 14.0087 31.0825 14.1355C31.1948 14.1995 31.2504 14.2841 31.2504 14.3686Z" fill="#1D2943"/>
<path d="M31.25 14.3691L31.2493 14.6466C31.249 14.7299 31.1943 14.813 31.085 14.8765C30.8653 15.0042 30.5075 15.0042 30.2859 14.8763C30.1746 14.812 30.119 14.7277 30.1192 14.6433L30.12 14.3658C30.1197 14.4501 30.1753 14.5345 30.2866 14.5989C30.5082 14.7268 30.866 14.7268 31.0856 14.599C31.1951 14.5355 31.2498 14.4524 31.2499 14.3691H31.25Z" fill="#1D2943"/>
<path d="M31.0831 14.1359C31.3046 14.2639 31.3058 14.4711 31.0856 14.599C30.8659 14.7268 30.5082 14.7268 30.2866 14.5988C30.0655 14.4711 30.0643 14.2639 30.284 14.1363C30.5041 14.0083 30.8619 14.0083 31.0831 14.1359Z" fill="#4C5C75"/>
<path d="M31.0018 13.3961L31.0017 14.349C31.0017 14.3958 30.971 14.4425 30.9099 14.4783C30.7864 14.5505 30.5854 14.551 30.4607 14.4795C30.3979 14.4435 30.3665 14.3961 30.3667 14.3488L30.3668 13.3957C30.3668 13.4431 30.3982 13.4905 30.461 13.5265C30.5855 13.598 30.7865 13.5974 30.9099 13.5253C30.9713 13.4894 31.0017 13.4427 31.0017 13.3961H31.0018Z" fill="#9EA9C9"/>
<path d="M30.9096 13.2659C31.034 13.3376 31.0348 13.454 30.9112 13.5259C30.7875 13.5977 30.5864 13.5977 30.4621 13.5259C30.3377 13.454 30.337 13.3375 30.4606 13.2658C30.5842 13.1939 30.7851 13.194 30.9095 13.2658L30.9096 13.2659Z" fill="#9EA9C9"/>
<path d="M31.4569 8.84771L31.4472 13.8687L28.6686 15.4832L28.6783 10.461C28.479 10.1156 28.3245 9.84756 28.1687 9.57949C28.0141 9.31021 27.8584 9.04213 27.6603 8.69798L21.6419 5.22266L24.4193 3.60938L30.4377 7.08349C30.8338 7.77058 31.0572 8.15458 31.452 8.84047C31.4544 8.84288 31.4556 8.8453 31.4569 8.84771Z" fill="#E9E7FC"/>
<path d="M28.6784 10.4616L31.4564 8.84723L31.4469 13.8686L28.669 15.4829L28.6784 10.4616Z" fill="#E9E7FC"/>
<path d="M27.6602 8.69799L30.4382 7.0835C30.8354 7.77252 31.0576 8.15749 31.4564 8.84724L28.6784 10.4616C28.2798 9.77186 28.0575 9.38689 27.6602 8.69799Z" fill="#F3F1FC"/>
<path d="M21.6418 5.22313L24.4197 3.60876L30.4382 7.08348L27.6602 8.69797L21.6418 5.22313Z" fill="#F8F9FE"/>
<path d="M27.6602 8.69798C28.0575 9.38689 28.2797 9.77185 28.6784 10.4616L28.669 15.4829L21.629 11.4183L21.6418 5.22314L27.6602 8.69798Z" fill="#DEDFFB"/>
<path d="M3.39924 16.0251L21.3538 5.59106L21.3418 9.78536L3.38741 20.2193L3.39924 16.0251Z" fill="#E3E7F0"/>
<path d="M1.9572 15.1925L19.9116 4.75848L21.3538 5.59109L3.39925 16.0251L1.9572 15.1925ZM3.38742 20.2193L21.3418 9.78538L28.173 13.7294L10.2186 24.1633L3.38742 20.2193Z" fill="#E3E7F0"/>
<path d="M10.125 19.7867L28.0796 9.3526L28.0676 13.5483L10.1132 23.9824L10.125 19.7867Z" fill="#57B3FE"/>
<path d="M29.1687 13.0841C29.4256 12.4542 29.5932 11.3122 29.6257 10.3669L28.185 9.53503L10.2303 19.9692L10.2185 24.1634L3.38729 20.2195L3.39913 16.0252L1.95695 15.1926C1.95816 15.2588 1.9607 15.3288 1.96456 15.3982C2.00538 16.3515 2.16212 17.5684 2.39723 18.4279L2.49745 18.4859L2.66252 21.556L10.9318 26.3303L28.8863 15.8963L29.05 13.3155L29.0607 13.1469L29.1685 13.0843L29.1687 13.0841Z" fill="#8693B2"/>
<path d="M11.1139 23.4604L29.0683 13.0263L28.8865 15.8962L10.9319 26.3302L11.1139 23.4604Z" fill="#9EA9C9"/>
<path d="M29.0686 13.0262L29.0215 13.7628L11.0677 24.1972L11.1135 23.4606L29.0686 13.0262Z" fill="#8693B2"/>
<path d="M10.2305 19.9691L28.185 9.53503L29.6257 10.3669L11.6713 20.801L10.2305 19.9691Z" fill="#E3E7F0"/>
<path d="M11.6713 20.801L29.6257 10.3668C29.5931 11.3121 29.4256 12.4541 29.1687 13.084L11.2141 23.5182C11.4712 22.8881 11.6387 21.7463 11.6713 20.801Z" fill="#C9CEE2"/>
<path d="M11.6713 20.801C11.6387 21.7462 11.4712 22.8881 11.2141 23.5182L11.1139 23.4602L10.9319 26.3302L2.66265 21.5559L2.4977 18.4857L2.39735 18.4278C2.16224 17.5682 2.0055 16.3514 1.96469 15.398C1.9609 15.3296 1.9584 15.2611 1.9572 15.1925L3.39925 16.0251L3.38742 20.2193L10.2185 24.1633L10.2306 19.9691L11.6713 20.801Z" fill="#B0B8CF"/>
<path d="M29.6335 9.28364L29.6298 10.2473L11.676 20.6817L10.1255 19.7869L10.1135 23.9819L3.49368 20.16L3.50575 15.965L1.95406 15.069L1.95647 14.1042L19.9103 3.67096C21.6008 4.22281 23.2709 4.96424 24.918 5.91579C26.5107 6.83594 28.083 7.95171 29.6335 9.28364Z" fill="#497BFE"/>
<path d="M6.96283 16.3492C8.5568 17.2694 10.1289 18.3857 11.6783 19.7177L11.6756 20.6818L10.1252 19.7866L10.1131 23.9824L3.49343 20.1605L3.50539 15.9646L1.95345 15.0686L1.9561 14.1046C3.64667 14.6573 5.31634 15.3986 6.96283 16.3492Z" fill="#5094FF"/>
<path d="M11.6784 19.7177L29.6329 9.28375L29.6302 10.2479L11.6757 20.6818L11.6784 19.7177Z" fill="#497BFE"/>
<path d="M24.9174 5.91518C23.2709 4.9646 21.6012 4.22341 19.9106 3.67059L1.9561 14.1046C3.64667 14.6573 5.31634 15.3987 6.96283 16.3492C8.55679 17.2694 10.129 18.3858 11.6783 19.7177L29.6328 9.28376C28.0834 7.95183 26.5113 6.83545 24.9174 5.91518Z" fill="#57B3FE"/>
<path d="M25.7165 9.59555L12.7647 17.1212C12.665 17.0401 12.5638 16.9609 12.4612 16.8835C12.2122 16.6871 11.9603 16.4946 11.7055 16.306V16.304C11.7033 16.304 11.7033 16.3018 11.7012 16.3018C11.1783 15.915 10.6438 15.544 10.0985 15.1894C9.6494 14.8955 9.19208 14.6144 8.72706 14.3465L8.58058 14.2638L21.2308 6.91443L22.1353 8.19238L23.1627 9.64445L24.9821 9.60823L25.7145 9.59349C25.7145 9.59555 25.7165 9.59555 25.7165 9.59555Z" fill="#5094FF"/>
<path d="M9.35245 19.3372L3.33403 15.8625L0.555952 17.477L0.543152 23.6722L7.58315 27.7368L10.3612 26.1223L10.3707 21.1008C9.97192 20.4112 9.74973 20.0261 9.35245 19.3372Z" fill="#DEDFFB"/>
<path d="M7.5927 22.7153L10.3707 21.101L10.3612 26.1223L7.58316 27.7367L7.5927 22.7153Z" fill="#E9E7FC"/>
<path d="M6.57449 20.9515L9.35246 19.3372C9.74974 20.0262 9.97193 20.4112 10.3707 21.1009L7.5927 22.7152C7.19396 22.0254 6.97178 21.6404 6.57449 20.9514" fill="#F3F1FC"/>
<path d="M0.555954 17.4769L3.33392 15.8625L9.35245 19.3372L6.57449 20.9516L0.555954 17.4769Z" fill="#F8F9FE"/>
<path d="M6.57449 20.9515C6.97177 21.6406 7.19396 22.0255 7.59269 22.7153L7.58315 27.7366L0.543152 23.672L0.555952 17.4768L6.57449 20.9515Z" fill="#DEDFFB"/>
<path d="M0.905899 23.4631L0.917008 18.1035L6.30919 21.2167C6.66083 21.8265 6.87746 22.2017 7.23019 22.8121L7.2221 27.1098L0.905899 23.4631Z" fill="#F8F9FE"/>
<path d="M25.7165 9.59556L12.7647 17.1212C12.4152 16.8418 12.0606 16.5686 11.7012 16.3019L23.1627 9.64459L25.7145 9.59363C25.7145 9.59568 25.7165 9.59556 25.7165 9.59556Z" fill="#497BFE"/>
<path d="M25.7165 9.59349L23.1627 9.64445L21.2309 6.91443C22.9101 7.73798 24.4429 8.619 25.7165 9.59349Z" fill="#3F71E0"/>
<path d="M23.1627 9.64446L21.6429 10.5274L21.5006 10.6103L21.3923 10.6739L20.195 11.3702L20.0528 11.453L19.9424 11.5166L18.7472 12.211L18.605 12.2937L18.4967 12.3573L17.2973 13.0536L17.155 13.1364L17.0468 13.2002L15.8474 13.8965L15.7073 13.9793L15.599 14.0409L14.4017 14.7372L14.2594 14.8199L14.1491 14.8836L12.9517 15.5799L12.8095 15.6606L12.7033 15.7242L11.7056 16.3038C11.7034 16.3038 11.7034 16.3017 11.7014 16.3017C11.5488 16.1892 11.3953 16.0781 11.2407 15.9684C11.1127 15.8757 10.9832 15.7851 10.8522 15.6967C10.6038 15.5234 10.3526 15.3543 10.0986 15.1893L10.6782 14.8518L10.9732 14.6798L12.3233 13.8965L12.4316 13.8327L12.5738 13.75L13.7711 13.0536L13.8816 12.99L14.0237 12.9071L15.2211 12.2109L15.3293 12.1493L15.4716 12.0666L16.6689 11.3702L16.7772 11.3065L16.9194 11.2237L18.1167 10.5274L18.225 10.4658L18.3673 10.3831L19.5646 9.68672L19.6749 9.62308L19.8172 9.54024L21.0145 8.84397L21.1228 8.78021L21.265 8.6975L22.1353 8.19226L23.1629 9.64434L23.1627 9.64446Z" fill="#4C5C75"/>
<g opacity="0.5">
<path d="M21.7752 4.76837C21.734 4.75736 21.6908 4.75546 21.6488 4.76281C20.6796 4.93006 19.5694 5.22494 18.3766 5.59723C18.3503 5.60561 18.325 5.61683 18.3011 5.63068C18.1462 5.72003 18.03 5.92049 18.0072 6.14171C17.8916 7.33175 17.181 8.54352 16.1753 9.12399C15.6247 9.44194 15.0743 9.51958 14.6019 9.39134L14.9516 9.48625C15.424 9.61449 15.9744 9.53685 16.525 9.2189C17.5306 8.63831 18.2413 7.42666 18.3569 6.23662C18.3797 6.0154 18.4958 5.81507 18.6508 5.72559C18.675 5.71158 18.7003 5.70023 18.7263 5.69202C19.919 5.31985 21.0293 5.02497 21.9984 4.85772C22.0427 4.85036 22.0853 4.85253 22.1249 4.86328L21.7752 4.76837ZM13.7821 8.59388C13.7333 8.5789 13.6802 8.58107 13.6272 8.59593C13.5981 8.60433 13.5703 8.61647 13.5443 8.63203C13.5181 8.64561 13.4938 8.66276 13.4722 8.68299C12.4213 9.59795 11.4469 10.5129 10.5934 11.4427C10.4534 11.5976 10.3855 11.8418 10.428 12.0499L10.9731 14.6799L11.2406 15.9685C11.1126 15.8758 10.9831 15.7852 10.8521 15.6968L10.678 14.8519L10.0777 11.9544C10.0352 11.7463 10.1031 11.5021 10.2454 11.3472C11.0988 10.4194 12.0711 9.50243 13.1218 8.58953C13.1452 8.56622 13.1707 8.5492 13.1941 8.5364C13.2748 8.48978 13.3575 8.47916 13.434 8.49824L13.7821 8.59388Z" fill="#F8F9FE"/>
<path d="M23.3198 9.74637L21.6767 10.6953L21.5344 10.7781L21.4262 10.8397L20.2288 11.5316L20.0866 11.6144L19.9762 11.676V11.6782L18.7789 12.3681L18.6367 12.4509L18.5285 12.5125V12.5146L17.329 13.2066L17.1868 13.2873L17.0785 13.351L15.8791 14.0429L15.7369 14.1259L15.6286 14.1875L14.4313 14.8794L14.289 14.9602V14.9623L14.1787 15.0238V15.026L12.9814 15.7159L12.8391 15.7987L12.7308 15.8603L11.8158 16.3888C11.801 16.3762 11.784 16.3655 11.7691 16.3527C11.7479 16.3379 11.7267 16.3209 11.7055 16.306V16.304C11.7033 16.304 11.7033 16.3018 11.7013 16.3018C11.5487 16.1893 11.3951 16.0782 11.2406 15.9685L10.9731 14.6799L10.428 12.0499C10.3855 11.8418 10.4534 11.5977 10.5934 11.4427C11.4469 10.5129 12.4213 9.59797 13.4722 8.68301C13.4955 8.66175 13.5189 8.64473 13.5443 8.63205C13.5703 8.61644 13.5981 8.60427 13.6272 8.59582C13.7566 8.55984 13.8862 8.6108 13.9647 8.73819C14.1727 9.06725 14.4551 9.30284 14.7841 9.43012C14.8393 9.45149 14.8945 9.47057 14.9518 9.48542C14.9881 9.49615 15.0249 9.50466 15.0622 9.5109C15.0983 9.51935 15.1365 9.52575 15.1726 9.52998C15.421 9.56186 15.6842 9.54278 15.9539 9.46417C16.1427 9.41104 16.3339 9.33049 16.5249 9.22012C16.5885 9.18446 16.6502 9.14548 16.7097 9.10335C16.8942 8.97877 17.0649 8.83499 17.2191 8.67443C17.8496 8.03129 18.2721 7.12684 18.357 6.23519C18.3655 6.15247 18.3867 6.07181 18.4186 5.99972C18.4419 5.95081 18.4674 5.90831 18.4949 5.86809C18.5396 5.80856 18.5927 5.75978 18.65 5.72572C18.6753 5.71087 18.6987 5.70037 18.7264 5.69191C19.0184 5.60105 19.3114 5.51329 19.6053 5.42867C19.8843 5.34723 20.1646 5.27005 20.4459 5.19718C20.7116 5.12916 20.9784 5.06547 21.2462 5.00615C21.5052 4.94879 21.7578 4.89988 21.9998 4.85762C22.0189 4.85327 22.0381 4.85327 22.055 4.85327C22.072 4.85327 22.0891 4.85544 22.106 4.85967C22.2334 4.88298 22.3331 4.99552 22.3672 5.16325L23.2985 9.64228V9.64446L23.3198 9.74637Z" fill="#E9E7FC"/>
</g>
<g opacity="0.5">
<path d="M21.0674 7.76392L21.6773 10.6969L21.4265 10.8417L20.8165 7.9087L21.0674 7.76392Z" fill="#DEDFFB"/>
<path d="M20.9252 7.84589L21.5353 10.7789L21.4265 10.8417L20.8165 7.90868L20.9252 7.84589Z" fill="white"/>
<path d="M19.6179 8.60077L20.2279 11.5338L19.9772 11.6784L19.3671 8.74555L19.6179 8.60077Z" fill="#DEDFFB"/>
<path d="M19.4758 8.68274L20.0859 11.6158L19.9772 11.6784L19.3671 8.74553L19.4758 8.68274Z" fill="white"/>
<path d="M18.1685 9.43744L18.7784 12.3705L18.5277 12.5152L17.9177 9.58222L18.1685 9.43744Z" fill="#DEDFFB"/>
<path d="M18.0264 9.51959L18.6364 12.4526L18.5277 12.5153L17.9177 9.58226L18.0264 9.51959Z" fill="white"/>
<path d="M16.7191 10.2743L17.329 13.2073L17.0783 13.3521L16.4683 10.4191L16.7191 10.2743Z" fill="#DEDFFB"/>
<path d="M16.5771 10.3564L17.187 13.2894L17.0783 13.3521L16.4683 10.4191L16.5771 10.3564Z" fill="white"/>
<path d="M15.2697 11.1111L15.8797 14.0442L15.6289 14.1889L15.019 11.2559L15.2697 11.1111Z" fill="#DEDFFB"/>
<path d="M15.1277 11.1931L15.7376 14.1261L15.6289 14.1889L15.019 11.2559L15.1277 11.1931Z" fill="white"/>
<path d="M13.8203 11.9479L14.4303 14.8809L14.1795 15.0257L13.5696 12.0927L13.8203 11.9479Z" fill="#DEDFFB"/>
<path d="M13.6782 12.03L14.2882 14.963L14.1795 15.0258L13.5696 12.0928L13.6782 12.03Z" fill="white"/>
<path d="M12.3708 12.7848L12.9809 15.7178L12.7301 15.8626L12.1201 12.9296L12.3708 12.7848Z" fill="#DEDFFB"/>
<path d="M12.2288 12.8668L12.8388 15.7998L12.7301 15.8626L12.1201 12.9296L12.2288 12.8668Z" fill="white"/>
</g>
<path opacity="0.5" d="M24.9821 9.60831L12.4612 16.8834C12.248 16.716 12.0329 16.5512 11.8158 16.3888C11.801 16.3761 11.784 16.3655 11.7691 16.3527C11.7479 16.3379 11.7267 16.3208 11.7055 16.306V16.3039L12.7033 15.7243L12.8094 15.6607L12.9515 15.58L14.1489 14.8837L14.2593 14.82L14.4016 14.7372L15.5988 14.0409L15.7072 13.9793L15.8472 13.8966L17.0467 13.2003L17.1549 13.1365L17.2971 13.0537L18.4966 12.3574L18.6049 12.2938L18.747 12.2109L19.9423 11.5167L20.0526 11.4531L20.1949 11.3702L21.3922 10.674L21.5005 10.6103L21.6427 10.5275L23.1627 9.64442L23.2985 9.64225L24.9799 9.60614C24.9799 9.60831 24.9821 9.60831 24.9821 9.60831Z" fill="#1D2943"/>
<path d="M24.9821 9.60831L12.4612 16.8834C12.248 16.716 12.0329 16.5512 11.8159 16.3888C11.801 16.3761 11.784 16.3655 11.7691 16.3527L12.7181 15.8009L12.8263 15.7371L12.9686 15.6543L14.1638 14.958L14.2742 14.8944L14.4164 14.8115L15.6137 14.1152L15.722 14.0515L15.8643 13.9708L17.0616 13.2724L17.1698 13.2087L17.312 13.1259L18.5115 12.4296L18.6198 12.366L18.7619 12.2832L19.9571 11.5869L20.0675 11.5231L20.2098 11.4404L21.407 10.744L21.5154 10.6804L21.6554 10.5997L23.2965 9.64442H23.2985L24.9799 9.60614C24.9799 9.60831 24.9821 9.60831 24.9821 9.60831Z" fill="#1D2943"/>
<path d="M27.8175 9.87788L26.0823 10.885C25.8275 10.7063 25.5727 10.5336 25.3167 10.3657L27.0604 9.3526C27.314 9.52286 27.5664 9.69796 27.8175 9.87788Z" fill="#4C5C75"/>
<path d="M27.2362 9.72922C27.3214 9.77837 27.3218 9.85698 27.2374 9.90601C27.1541 9.95431 27.0185 9.95431 26.9335 9.90528C26.8497 9.85698 26.8493 9.77849 26.9325 9.73007C27.0171 9.68092 27.1526 9.68092 27.2364 9.72934L27.2362 9.72922Z" fill="#78E75A"/>
<path d="M26.694 10.0445C26.7588 10.0819 26.758 10.1423 26.6948 10.1791C26.6314 10.216 26.5281 10.216 26.4634 10.1785C26.3996 10.1418 26.3994 10.0819 26.4625 10.0452C26.5257 10.0085 26.6304 10.0078 26.694 10.0445Z" fill="#DEDFFB"/>
<path d="M27.3026 9.69071C27.4244 9.76099 27.4263 9.8751 27.3066 9.94454C27.1859 10.0148 26.9876 10.0148 26.8659 9.94454C26.7442 9.87438 26.7449 9.76027 26.8658 9.68999C26.9853 9.62055 27.1809 9.62055 27.3026 9.69071ZM26.9335 9.90529C27.0185 9.95444 27.1541 9.95444 27.2373 9.90602C27.3218 9.85699 27.3214 9.77838 27.2364 9.72935C27.1525 9.68105 27.0169 9.68105 26.9325 9.73008C26.8492 9.77838 26.8497 9.85687 26.9335 9.90529Z" fill="#19233A"/>
<path d="M26.0718 10.4061C26.1366 10.4435 26.137 10.5034 26.0737 10.5401C26.0094 10.5775 25.906 10.5775 25.8413 10.5401C25.7775 10.5034 25.7773 10.4435 25.8415 10.4061C25.9048 10.3693 26.0082 10.3693 26.0718 10.4061ZM26.3829 10.2253C26.4477 10.2627 26.4481 10.3226 26.3847 10.3593C26.3204 10.3968 26.2171 10.3968 26.1523 10.3593C26.0886 10.3226 26.0883 10.2627 26.1526 10.2253C26.2159 10.1886 26.3192 10.1886 26.3829 10.2253Z" fill="#DEDFFB"/>
<path d="M7.50092 19.9323C7.49645 19.9404 7.4921 19.9486 7.48619 19.9559C7.48534 19.9574 7.48462 19.9581 7.48317 19.9596C7.46022 19.9922 7.42641 20.0224 7.38053 20.0489C7.1907 20.1598 6.88205 20.1598 6.69078 20.0489C6.64344 20.0224 6.60806 19.9906 6.58511 19.9574C6.58439 19.9567 6.58439 19.9559 6.58367 19.9552C6.57783 19.9478 6.57266 19.9399 6.56821 19.9316C6.53488 19.868 6.5408 19.7993 6.58656 19.7381C6.58781 19.7355 6.58958 19.7333 6.59176 19.7315C6.6079 19.7103 6.62706 19.6916 6.64863 19.676C6.66047 19.6672 6.67375 19.6583 6.68848 19.6495C6.72024 19.631 6.75574 19.6154 6.79342 19.6036C6.94255 19.5541 7.12791 19.5549 7.27716 19.6051C7.31339 19.617 7.3472 19.6317 7.37835 19.6495C7.39308 19.6583 7.40709 19.6672 7.41965 19.6768C7.44404 19.6945 7.46397 19.7137 7.47882 19.7344C7.48099 19.7365 7.48244 19.738 7.48389 19.7403C7.52821 19.8016 7.53425 19.8695 7.50092 19.9323Z" fill="#4C5C75"/>
<path d="M6.59223 19.7313C6.59344 19.7386 6.59585 19.7446 6.59827 19.7518C6.5934 19.7415 6.59014 19.7305 6.58861 19.7192L6.59223 19.7313ZM7.4834 19.6963V19.7084C7.4834 19.7108 7.4834 19.7132 7.48219 19.7156C7.4834 19.7096 7.4834 19.7035 7.4834 19.6963Z" fill="#FEBC1F"/>
<path d="M7.48341 19.6963V19.7084C7.48341 19.7067 7.48281 19.7051 7.48293 19.7034C7.48293 19.701 7.48341 19.6989 7.48341 19.6962V19.6963Z" fill="#FEBC1F"/>
<path d="M7.48292 19.7034C7.48655 19.6339 7.44368 19.5646 7.35178 19.5114C7.17548 19.41 6.89171 19.41 6.71661 19.5114C6.62967 19.5622 6.5862 19.6286 6.5862 19.695V19.7386L6.58499 19.9571C6.60793 19.991 6.64295 20.0224 6.69126 20.0489C6.88205 20.16 7.19118 20.16 7.38077 20.0489C7.42665 20.0224 7.46046 19.9922 7.48341 19.9596V19.7084C7.48341 19.7108 7.48341 19.7132 7.4822 19.7156C7.48292 19.7118 7.4828 19.7075 7.48292 19.7034ZM6.58861 19.7191L6.59224 19.7312C6.59344 19.7386 6.59586 19.7445 6.59827 19.7517C6.5934 19.7414 6.59015 19.7304 6.58861 19.7191Z" fill="#FEBC1F"/>
<path d="M6.59223 19.7313C6.59344 19.7386 6.59585 19.7446 6.59827 19.7518C6.5934 19.7415 6.59014 19.7305 6.58861 19.7192L6.59223 19.7313ZM7.4834 19.6963V19.7084C7.4834 19.7108 7.4834 19.7132 7.48219 19.7156C7.4834 19.7096 7.4834 19.7035 7.4834 19.6963Z" fill="#FEBC1F"/>
<path d="M7.48389 19.6966V19.7402L7.48317 19.9595C7.46022 19.9921 7.42641 20.0223 7.38052 20.0489C7.1907 20.1597 6.88205 20.1597 6.69077 20.0489C6.64344 20.0223 6.60806 19.9906 6.58511 19.9573L6.58656 19.7381V19.6952C6.58656 19.7077 6.58813 19.7196 6.59176 19.7314C6.60431 19.7853 6.64718 19.8377 6.71879 19.8791C6.89461 19.9803 7.17886 19.9803 7.35396 19.8791C7.40914 19.8467 7.46505 19.7963 7.4787 19.7343C7.48244 19.7218 7.48389 19.7092 7.48389 19.6966Z" fill="#FEBC1F"/>
<path d="M7.35167 19.5113C7.52761 19.6127 7.52857 19.7774 7.35384 19.879C7.17899 19.9805 6.89485 19.9805 6.71891 19.879C6.54297 19.7775 6.54213 19.6128 6.71686 19.5113C6.89159 19.4097 7.17573 19.4097 7.35167 19.5113Z" fill="#FFD06C"/>
<path d="M7.42062 19.4319L7.41942 19.6746C7.41942 19.7313 7.38198 19.7881 7.30712 19.8304C7.15738 19.9185 6.91345 19.9185 6.76251 19.8304C6.68644 19.7869 6.649 19.7289 6.649 19.6722L6.65021 19.4295C6.65021 19.3727 6.68644 19.316 6.7613 19.2725C6.91225 19.1855 7.15617 19.1855 7.30712 19.2725C7.38319 19.316 7.42183 19.3739 7.42062 19.4319Z" fill="#DF3260"/>
<path d="M7.42062 19.4316L7.41941 19.6741C7.41929 19.7308 7.38198 19.7876 7.30747 19.8308C7.15737 19.918 6.91333 19.918 6.76227 19.8308C6.68631 19.7869 6.64839 19.7294 6.64851 19.6719L6.64972 19.4294C6.64972 19.4869 6.68752 19.5444 6.76359 19.5884C6.91454 19.6755 7.15858 19.6755 7.30868 19.5884C7.38319 19.545 7.4205 19.4884 7.42062 19.4316Z" fill="#DF3260"/>
<path d="M7.30687 19.2725C7.45781 19.3597 7.45866 19.5011 7.30868 19.5883C7.15858 19.6755 6.91466 19.6755 6.76359 19.5883C6.61265 19.5011 6.61181 19.3597 6.76178 19.2725C6.91188 19.1854 7.15581 19.1854 7.30687 19.2725Z" fill="#F45170"/>
<path d="M8.97545 22.4173L8.9769 22.9397L7.88516 23.57L7.88359 23.0476L8.97545 22.4173Z" fill="#57B3FE"/>
<path d="M11.7604 25.3301C11.7608 25.4632 11.6673 25.6252 11.5515 25.6921C11.4356 25.7589 11.3414 25.7053 11.3412 25.5722C11.3408 25.4391 11.4343 25.2772 11.5501 25.2103C11.666 25.1434 11.7602 25.197 11.7604 25.3301ZM11.4049 25.5661L11.5245 25.497L11.5248 25.6342L11.5778 25.6036L11.5774 25.4664L11.6969 25.3975L11.6967 25.3365L11.5772 25.4053L11.5769 25.2682L11.5239 25.2987L11.5242 25.436L11.4047 25.5051L11.4049 25.5661Z" fill="#4C5C75"/>
<path d="M11.5239 25.2987L11.5242 25.436L11.4047 25.5051L11.4049 25.5661L11.5245 25.497L11.5248 25.6342L11.5778 25.6036L11.5774 25.4665L11.6969 25.3975L11.6967 25.3365L11.5772 25.4055L11.5769 25.2682L11.5239 25.2987Z" fill="#1D2943"/>
<path d="M28.5923 15.5517C28.5928 15.6847 28.4993 15.8468 28.3834 15.9137C28.2676 15.9805 28.1734 15.9268 28.173 15.7938C28.1727 15.6607 28.2663 15.4988 28.3819 15.4319C28.4979 15.365 28.5921 15.4186 28.5924 15.5517H28.5923ZM28.2368 15.7876L28.3563 15.7185L28.3567 15.8557L28.4098 15.8251L28.4094 15.688L28.5289 15.619L28.5287 15.5581L28.4091 15.6269L28.4087 15.4897L28.3559 15.5203L28.3562 15.6576L28.2367 15.7266L28.2368 15.7876Z" fill="#4C5C75"/>
<path d="M28.3559 15.5202L28.3562 15.6575L28.2367 15.7266L28.2368 15.7876L28.3563 15.7185L28.3567 15.8557L28.4097 15.825L28.4094 15.688L28.5288 15.619L28.5287 15.558L28.4092 15.627L28.4088 15.4897L28.3559 15.5202Z" fill="#1D2943"/>
<path d="M4.07812 21.7013L1.37926 20.1203C1.35583 20.1066 1.34134 20.0777 1.34122 20.0365C1.34098 19.9529 1.39918 19.8522 1.47127 19.8105L4.17014 21.3916C4.09805 21.4332 4.03984 21.5341 4.04009 21.6175C4.04021 21.6588 4.0547 21.6878 4.07812 21.7013Z" fill="#C8CBE8"/>
<path d="M4.17026 21.3917L4.1711 21.6922C4.09889 21.7339 4.04033 21.7006 4.04009 21.6175C4.03984 21.5341 4.09805 21.4333 4.17026 21.3917Z" fill="#DEDFFB"/>
<path d="M4.07812 22.5161L1.37926 20.935C1.35583 20.9215 1.34134 20.8925 1.34122 20.8512C1.34098 20.7677 1.39918 20.6669 1.47127 20.6254L4.17014 22.2064C4.09805 22.2481 4.03984 22.3489 4.04009 22.4322C4.04021 22.4735 4.0547 22.5025 4.07812 22.5161Z" fill="#C8CBE8"/>
<path d="M4.17026 22.2064L4.1711 22.507C4.09889 22.5486 4.04033 22.5153 4.04009 22.4324C4.03984 22.3488 4.09805 22.2481 4.17026 22.2064Z" fill="#DEDFFB"/>
<path d="M4.07812 23.331L1.37926 21.7499C1.35583 21.7362 1.34134 21.7072 1.34122 21.6661C1.34098 21.5825 1.39918 21.4818 1.47127 21.4401L4.17014 23.0212C4.09805 23.0629 4.03984 23.1637 4.04009 23.2471C4.04021 23.2884 4.0547 23.3174 4.07812 23.3309V23.331Z" fill="#C8CBE8"/>
<path d="M4.17026 23.0212L4.1711 23.3219C4.09889 23.3635 4.04033 23.3301 4.04009 23.2471C4.03984 23.1637 4.09805 23.063 4.17026 23.0213V23.0212Z" fill="#DEDFFB"/>
<path d="M4.07812 24.1457L1.37926 22.5646C1.35583 22.551 1.34134 22.5221 1.34122 22.4808C1.34098 22.3973 1.39918 22.2966 1.47127 22.2549L4.17014 23.836C4.09805 23.8776 4.03984 23.9785 4.04009 24.0619C4.04021 24.1031 4.0547 24.1321 4.07812 24.1457Z" fill="#C8CBE8"/>
<path d="M4.17026 23.836L4.1711 24.1367C4.09889 24.1782 4.04033 24.1449 4.04009 24.0619C4.03984 23.9784 4.09805 23.8777 4.17026 23.836Z" fill="#DEDFFB"/>
</svg>
