<svg width="32" height="32" viewBox="0 0 32 32" fill="none" xmlns="http://www.w3.org/2000/svg">
<path d="M2.11952 24.3007V24.5784C2.11831 24.6617 2.06397 24.7451 1.95409 24.8078C1.73431 24.9358 1.37688 24.9358 1.1559 24.8078C1.0448 24.7438 0.989258 24.6593 0.989258 24.5748V24.2983C0.989258 24.2149 1.0436 24.1316 1.15348 24.0676C1.37326 23.9396 1.7319 23.9396 1.95288 24.0676C2.06397 24.1316 2.11952 24.2161 2.11952 24.3007Z" fill="#1D2943"/>
<path d="M2.11952 24.3008L2.11879 24.5783C2.11855 24.6616 2.06385 24.7447 1.95445 24.8082C1.73467 24.9359 1.37688 24.9359 1.15541 24.808C1.04408 24.7437 0.988529 24.6594 0.98877 24.575L0.989495 24.2977C0.989253 24.3818 1.0448 24.4662 1.15614 24.5305C1.37772 24.6585 1.73552 24.6585 1.95517 24.5307C2.06457 24.4672 2.1194 24.3841 2.11952 24.3008Z" fill="#1D2943"/>
<path d="M1.95274 24.0676C2.17432 24.1956 2.17553 24.4028 1.95539 24.5307C1.73562 24.6585 1.37795 24.6585 1.15636 24.5305C0.935259 24.4028 0.934051 24.1956 1.1537 24.068C1.37384 23.94 1.73152 23.94 1.95274 24.0676Z" fill="#4C5C75"/>
<path d="M1.87162 23.3278L1.87138 24.2808C1.87138 24.3275 1.84083 24.3742 1.7796 24.41C1.65619 24.4822 1.45514 24.4827 1.33052 24.4112C1.26772 24.3752 1.23633 24.3278 1.23633 24.2805L1.23657 23.3274C1.23657 23.3748 1.26797 23.4222 1.33076 23.4582C1.45526 23.5297 1.65631 23.5292 1.77972 23.457C1.84107 23.4211 1.8715 23.3745 1.8715 23.3278H1.87162Z" fill="#9EA9C9"/>
<path d="M1.77942 23.1976C1.90379 23.2694 1.90476 23.3857 1.78111 23.4576C1.65745 23.5294 1.4564 23.5294 1.33202 23.4576C1.20764 23.3857 1.20692 23.2692 1.33057 23.1975C1.4541 23.1256 1.65504 23.1258 1.77942 23.1976Z" fill="#9EA9C9"/>
<path d="M8.15979 27.7881L8.15858 28.0658C8.15858 28.1492 8.10425 28.2313 7.99436 28.2953C7.77458 28.4233 7.41715 28.4233 7.19496 28.2953C7.08387 28.2313 7.02832 28.1467 7.02832 28.0622L7.02953 27.7857C7.02953 27.7024 7.08387 27.619 7.19375 27.555C7.41353 27.427 7.77096 27.427 7.99315 27.555C8.10424 27.619 8.15979 27.7036 8.15979 27.7881Z" fill="#1D2943"/>
<path d="M8.15956 27.7879L8.15883 28.0653C8.15859 28.1486 8.10389 28.2317 7.99461 28.2952C7.77483 28.423 7.41704 28.423 7.19545 28.295C7.08411 28.2307 7.02857 28.1464 7.02881 28.0622L7.02953 27.7847C7.02929 27.869 7.08484 27.9534 7.19618 28.0176C7.41776 28.1455 7.77556 28.1455 7.99521 28.0178C8.10461 27.9542 8.15944 27.8711 8.15956 27.7879Z" fill="#1D2943"/>
<path d="M7.99236 27.5548C8.21383 27.6828 8.21504 27.8899 7.9949 28.0179C7.77513 28.1455 7.41745 28.1455 7.19587 28.0176C6.97476 27.89 6.97368 27.6827 7.19321 27.555C7.41335 27.427 7.77114 27.427 7.99236 27.5548Z" fill="#4C5C75"/>
<path d="M7.91105 26.8148L7.91093 27.7678C7.91093 27.8145 7.88026 27.8613 7.81915 27.897C7.69562 27.9692 7.49457 27.9698 7.36995 27.8982C7.30715 27.8624 7.27576 27.8149 7.27588 27.7676L7.276 26.8146C7.276 26.8619 7.3074 26.9092 7.37019 26.9452C7.49469 27.0167 7.69574 27.0162 7.81915 26.944C7.8805 26.9083 7.91105 26.8615 7.91105 26.8148Z" fill="#9EA9C9"/>
<path d="M7.81848 26.6846C7.94286 26.7565 7.94382 26.8729 7.82017 26.9446C7.69652 27.0163 7.49546 27.0165 7.37108 26.9446C7.2467 26.8729 7.24598 26.7564 7.36963 26.6845C7.49329 26.6127 7.6941 26.6128 7.81848 26.6846Z" fill="#9EA9C9"/>
<path d="M31.2501 14.3686L31.2489 14.6463C31.2489 14.7296 31.1946 14.813 31.0847 14.877C30.8649 15.0038 30.5075 15.0038 30.2853 14.8758C30.1742 14.8118 30.1187 14.7272 30.1187 14.6439L30.1199 14.3662C30.1199 14.2829 30.1742 14.1995 30.2841 14.1367C30.5039 14.0087 30.8613 14.0087 31.0823 14.1355C31.1946 14.1995 31.2501 14.2841 31.2501 14.3686Z" fill="#1D2943"/>
<path d="M31.2499 14.3691L31.2492 14.6466C31.2489 14.7299 31.1942 14.813 31.0849 14.8765C30.8652 15.0042 30.5074 15.0042 30.2858 14.8763C30.1744 14.812 30.1189 14.7277 30.1191 14.6433L30.1199 14.3658C30.1196 14.4501 30.1752 14.5345 30.2865 14.5989C30.5081 14.7268 30.8659 14.7268 31.0855 14.599C31.1949 14.5355 31.2496 14.4524 31.2498 14.3691H31.2499Z" fill="#1D2943"/>
<path d="M31.0832 14.1359C31.3047 14.2639 31.3059 14.4711 31.0858 14.599C30.866 14.7268 30.5083 14.7268 30.2867 14.5988C30.0656 14.4711 30.0644 14.2639 30.2841 14.1363C30.5042 14.0083 30.862 14.0083 31.0832 14.1359Z" fill="#4C5C75"/>
<path d="M31.0019 13.3961L31.0017 14.349C31.0017 14.3958 30.9711 14.4425 30.91 14.4783C30.7864 14.5505 30.5854 14.551 30.4608 14.4795C30.398 14.4435 30.3666 14.3961 30.3667 14.3488L30.3668 13.3957C30.3668 13.4431 30.3982 13.4905 30.461 13.5265C30.5855 13.598 30.7866 13.5974 30.91 13.5253C30.9713 13.4894 31.0017 13.4427 31.0017 13.3961H31.0019Z" fill="#9EA9C9"/>
<path d="M30.9094 13.2659C31.0338 13.3376 31.0346 13.454 30.911 13.5259C30.7873 13.5977 30.5863 13.5977 30.4619 13.5259C30.3375 13.454 30.3368 13.3375 30.4605 13.2658C30.584 13.1939 30.7849 13.194 30.9093 13.2658L30.9094 13.2659Z" fill="#9EA9C9"/>
<path d="M31.457 8.84771L31.4474 13.8687L28.6688 15.4832L28.6785 10.461C28.4792 10.1156 28.3247 9.84756 28.1689 9.57949C28.0143 9.31021 27.8585 9.04213 27.6605 8.69798L21.6421 5.22266L24.4194 3.60938L30.4379 7.08349C30.8339 7.77058 31.0573 8.15458 31.4522 8.84047C31.4546 8.84288 31.4558 8.8453 31.457 8.84771Z" fill="#E9E7FC"/>
<path d="M28.6784 10.4616L31.4563 8.84723L31.4469 13.8686L28.6689 15.4829L28.6784 10.4616Z" fill="#E9E7FC"/>
<path d="M27.6602 8.69799L30.4381 7.0835C30.8354 7.77252 31.0576 8.15749 31.4563 8.84724L28.6784 10.4616C28.2797 9.77186 28.0574 9.38689 27.6602 8.69799Z" fill="#F3F1FC"/>
<path d="M21.6416 5.22313L24.4196 3.60876L30.438 7.08348L27.66 8.69797L21.6416 5.22313Z" fill="#F8F9FE"/>
<path d="M27.6601 8.69798C28.0574 9.38689 28.2796 9.77185 28.6783 10.4616L28.6689 15.4829L21.6289 11.4183L21.6417 5.22314L27.6601 8.69798Z" fill="#DEDFFB"/>
<path d="M3.39904 16.0251L21.3536 5.59106L21.3416 9.78536L3.38721 20.2193L3.39904 16.0251Z" fill="#E3E7F0"/>
<path d="M1.95703 15.1925L19.9114 4.75848L21.3536 5.59109L3.39908 16.0251L1.95703 15.1925ZM3.38725 20.2193L21.3417 9.78538L28.1729 13.7294L10.2185 24.1633L3.38725 20.2193Z" fill="#E3E7F0"/>
<path d="M10.1251 19.7867L28.0797 9.3526L28.0677 13.5483L10.1133 23.9824L10.1251 19.7867Z" fill="#57B3FE"/>
<path d="M29.1687 13.0841C29.4257 12.4542 29.5933 11.3122 29.6258 10.3669L28.1851 9.53503L10.2304 19.9692L10.2186 24.1634L3.38737 20.2195L3.3992 16.0252L1.95703 15.1926C1.95824 15.2588 1.96077 15.3288 1.96464 15.3982C2.00545 16.3515 2.16219 17.5684 2.3973 18.4279L2.49753 18.4859L2.6626 21.556L10.9319 26.3303L28.8864 15.8963L29.05 13.3155L29.0608 13.1469L29.1686 13.0843L29.1687 13.0841Z" fill="#8693B2"/>
<path d="M11.1141 23.4604L29.0685 13.0263L28.8867 15.8962L10.9321 26.3302L11.1141 23.4604Z" fill="#9EA9C9"/>
<path d="M29.0688 13.0262L29.0217 13.7628L11.0679 24.1972L11.1138 23.4606L29.0688 13.0262Z" fill="#8693B2"/>
<path d="M10.2305 19.9691L28.185 9.53503L29.6257 10.3669L11.6713 20.801L10.2305 19.9691Z" fill="#E3E7F0"/>
<path d="M11.6715 20.801L29.6259 10.3668C29.5933 11.3121 29.4259 12.4541 29.1689 13.084L11.2144 23.5182C11.4714 22.8881 11.6389 21.7463 11.6715 20.801Z" fill="#C9CEE2"/>
<path d="M11.6711 20.801C11.6385 21.7462 11.4711 22.8881 11.214 23.5182L11.1137 23.4602L10.9318 26.3302L2.66248 21.5559L2.49753 18.4857L2.39718 18.4278C2.16207 17.5682 2.00533 16.3514 1.96452 15.398C1.96073 15.3296 1.95823 15.2611 1.95703 15.1925L3.39908 16.0251L3.38725 20.2193L10.2183 24.1633L10.2304 19.9691L11.6711 20.801Z" fill="#B0B8CF"/>
<path d="M29.6335 9.28364L29.6299 10.2473L11.6761 20.6817L10.1256 19.7869L10.1135 23.9819L3.49372 20.16L3.5058 15.965L1.9541 15.069L1.95652 14.1042L19.9103 3.67096C21.6009 4.22281 23.2709 4.96424 24.918 5.91579C26.5108 6.83594 28.083 7.95171 29.6335 9.28364Z" fill="#497BFE"/>
<path d="M6.963 16.3492C8.55696 17.2694 10.1291 18.3857 11.6785 19.7177L11.6758 20.6818L10.1253 19.7866L10.1133 23.9824L3.4936 20.1605L3.50555 15.9646L1.95361 15.0686L1.95627 14.1046C3.64684 14.6573 5.31651 15.3986 6.963 16.3492Z" fill="#5094FF"/>
<path d="M11.6786 19.7177L29.633 9.28375L29.6303 10.2479L11.6758 20.6818L11.6786 19.7177Z" fill="#497BFE"/>
<path d="M24.9173 5.91518C23.2708 4.9646 21.6012 4.22341 19.9106 3.67059L1.95605 14.1046C3.64662 14.6573 5.3163 15.3987 6.96279 16.3492C8.55675 17.2694 10.129 18.3858 11.6783 19.7177L29.6328 9.28376C28.0834 7.95183 26.5113 6.83545 24.9173 5.91518Z" fill="#57B3FE"/>
<path d="M25.7165 9.59555L12.7647 17.1212C12.665 17.0401 12.5638 16.9609 12.4611 16.8835C12.2122 16.6871 11.9603 16.4946 11.7055 16.306V16.304C11.7033 16.304 11.7033 16.3018 11.7012 16.3018C11.1783 15.915 10.6438 15.544 10.0985 15.1894C9.64938 14.8955 9.19206 14.6144 8.72704 14.3465L8.58057 14.2638L21.2308 6.91443L22.1353 8.19238L23.1627 9.64445L24.9821 9.60823L25.7145 9.59349C25.7145 9.59555 25.7165 9.59555 25.7165 9.59555Z" fill="#5094FF"/>
<path d="M9.35227 19.3372L3.33385 15.8625L0.555769 17.477L0.542969 23.6722L7.58297 27.7368L10.3611 26.1223L10.3705 21.1008C9.97174 20.4112 9.74955 20.0261 9.35227 19.3372Z" fill="#DEDFFB"/>
<path d="M7.59255 22.7153L10.3705 21.101L10.3611 26.1223L7.58301 27.7367L7.59255 22.7153Z" fill="#E9E7FC"/>
<path d="M6.57471 20.9515L9.35267 19.3372C9.74995 20.0262 9.97214 20.4112 10.3709 21.1009L7.59291 22.7152C7.19418 22.0254 6.97199 21.6404 6.57471 20.9514" fill="#F3F1FC"/>
<path d="M0.556152 17.4769L3.33411 15.8625L9.35265 19.3372L6.57469 20.9516L0.556152 17.4769Z" fill="#F8F9FE"/>
<path d="M6.5743 20.9515C6.97159 21.6406 7.19378 22.0255 7.59251 22.7153L7.58297 27.7366L0.542969 23.672L0.555769 17.4768L6.5743 20.9515Z" fill="#DEDFFB"/>
<path d="M0.905762 23.4631L0.916871 18.1035L6.30905 21.2167C6.66069 21.8265 6.87732 22.2017 7.23005 22.8121L7.22196 27.1098L0.905762 23.4631Z" fill="#F8F9FE"/>
<path d="M25.7164 9.59556L12.7647 17.1212C12.4151 16.8418 12.0605 16.5686 11.7012 16.3019L23.1626 9.64459L25.7144 9.59363C25.7144 9.59568 25.7164 9.59556 25.7164 9.59556Z" fill="#497BFE"/>
<path d="M25.7166 9.59349L23.1628 9.64445L21.231 6.91443C22.9102 7.73798 24.443 8.619 25.7166 9.59349Z" fill="#3F71E0"/>
<path d="M23.1627 9.64446L21.6429 10.5274L21.5007 10.6103L21.3923 10.6739L20.1951 11.3702L20.0528 11.453L19.9424 11.5166L18.7472 12.211L18.6051 12.2937L18.4968 12.3573L17.2973 13.0536L17.1551 13.1364L17.0469 13.2002L15.8474 13.8965L15.7073 13.9793L15.599 14.0409L14.4017 14.7372L14.2595 14.8199L14.1491 14.8836L12.9517 15.5799L12.8096 15.6606L12.7033 15.7242L11.7056 16.3038C11.7035 16.3038 11.7035 16.3017 11.7014 16.3017C11.5489 16.1892 11.3953 16.0781 11.2407 15.9684C11.1127 15.8757 10.9832 15.7851 10.8523 15.6967C10.6039 15.5234 10.3526 15.3543 10.0986 15.1893L10.6783 14.8518L10.9733 14.6798L12.3233 13.8965L12.4316 13.8327L12.5739 13.75L13.7711 13.0536L13.8816 12.99L14.0238 12.9071L15.2212 12.2109L15.3294 12.1493L15.4716 12.0666L16.6689 11.3702L16.7772 11.3065L16.9195 11.2237L18.1167 10.5274L18.2251 10.4658L18.3673 10.3831L19.5646 9.68672L19.675 9.62308L19.8172 9.54024L21.0145 8.84397L21.1228 8.78021L21.2651 8.6975L22.1353 8.19226L23.163 9.64434L23.1627 9.64446Z" fill="#4C5C75"/>
<g opacity="0.5">
<path d="M21.775 4.76837C21.7338 4.75736 21.6906 4.75546 21.6486 4.76281C20.6794 4.93006 19.5692 5.22494 18.3764 5.59723C18.3501 5.60561 18.3248 5.61683 18.3009 5.63068C18.146 5.72003 18.0298 5.92049 18.007 6.14171C17.8914 7.33175 17.1808 8.54352 16.1751 9.12399C15.6245 9.44194 15.0741 9.51958 14.6017 9.39134L14.9514 9.48625C15.4238 9.61449 15.9742 9.53685 16.5248 9.2189C17.5303 8.63831 18.2411 7.42666 18.3567 6.23662C18.3795 6.0154 18.4955 5.81507 18.6506 5.72559C18.6747 5.71158 18.7001 5.70023 18.7261 5.69202C19.9188 5.31985 21.0291 5.02497 21.9982 4.85772C22.0425 4.85036 22.0851 4.85253 22.1247 4.86328L21.775 4.76837ZM13.7819 8.59388C13.7331 8.5789 13.68 8.58107 13.627 8.59593C13.5979 8.60433 13.5701 8.61647 13.5441 8.63203C13.5178 8.64561 13.4936 8.66276 13.472 8.68299C12.4211 9.59795 11.4467 10.5129 10.5932 11.4427C10.4532 11.5976 10.3853 11.8418 10.4278 12.0499L10.9729 14.6799L11.2404 15.9685C11.1124 15.8758 10.9829 15.7852 10.8519 15.6968L10.6778 14.8519L10.0775 11.9544C10.035 11.7463 10.1028 11.5021 10.2452 11.3472C11.0986 10.4194 12.0709 9.50243 13.1216 8.58953C13.145 8.56622 13.1705 8.5492 13.1939 8.5364C13.2746 8.48978 13.3573 8.47916 13.4337 8.49824L13.7819 8.59388Z" fill="#F8F9FE"/>
<path d="M23.3194 9.74637L21.6763 10.6953L21.534 10.7781L21.4258 10.8397L20.2284 11.5316L20.0862 11.6144L19.9758 11.676V11.6782L18.7785 12.3681L18.6363 12.4509L18.5281 12.5125V12.5146L17.3286 13.2066L17.1864 13.2873L17.078 13.351L15.8787 14.0429L15.7365 14.1259L15.6281 14.1875L14.4309 14.8794L14.2886 14.9602V14.9623L14.1782 15.0238V15.026L12.981 15.7159L12.8387 15.7987L12.7304 15.8603L11.8154 16.3888C11.8006 16.3762 11.7836 16.3655 11.7687 16.3527C11.7475 16.3379 11.7263 16.3209 11.7051 16.306V16.304C11.7029 16.304 11.7029 16.3018 11.7008 16.3018C11.5483 16.1893 11.3947 16.0782 11.2402 15.9685L10.9727 14.6799L10.4276 12.0499C10.3851 11.8418 10.453 11.5977 10.593 11.4427C11.4465 10.5129 12.4209 9.59797 13.4718 8.68301C13.4951 8.66175 13.5184 8.64473 13.5439 8.63205C13.5699 8.61644 13.5977 8.60427 13.6268 8.59582C13.7562 8.55984 13.8858 8.6108 13.9643 8.73819C14.1723 9.06725 14.4547 9.30284 14.7837 9.43012C14.8389 9.45149 14.8941 9.47057 14.9514 9.48542C14.9877 9.49615 15.0245 9.50466 15.0618 9.5109C15.0979 9.51935 15.1361 9.52575 15.1722 9.52998C15.4206 9.56186 15.6838 9.54278 15.9535 9.46417C16.1423 9.41104 16.3335 9.33049 16.5245 9.22012C16.5881 9.18446 16.6498 9.14548 16.7093 9.10335C16.8938 8.97877 17.0645 8.83499 17.2187 8.67443C17.8492 8.03129 18.2717 7.12684 18.3566 6.23519C18.3651 6.15247 18.3863 6.07181 18.4182 5.99972C18.4415 5.95081 18.467 5.90831 18.4945 5.86809C18.5392 5.80856 18.5923 5.75978 18.6496 5.72572C18.6749 5.71087 18.6983 5.70037 18.726 5.69191C19.018 5.60105 19.311 5.51329 19.6048 5.42867C19.8839 5.34723 20.1641 5.27005 20.4455 5.19718C20.7112 5.12916 20.978 5.06547 21.2458 5.00615C21.5048 4.94879 21.7574 4.89988 21.9994 4.85762C22.0185 4.85327 22.0377 4.85327 22.0546 4.85327C22.0716 4.85327 22.0886 4.85544 22.1055 4.85967C22.2329 4.88298 22.3327 4.99552 22.3667 5.16325L23.2981 9.64228V9.64446L23.3194 9.74637Z" fill="#E9E7FC"/>
</g>
<g opacity="0.5">
<path d="M21.0672 7.76392L21.6771 10.6969L21.4263 10.8417L20.8164 7.9087L21.0672 7.76392Z" fill="#DEDFFB"/>
<path d="M20.9251 7.84589L21.5351 10.7789L21.4263 10.8417L20.8164 7.90868L20.9251 7.84589Z" fill="white"/>
<path d="M19.618 8.60077L20.2279 11.5338L19.9772 11.6784L19.3672 8.74555L19.618 8.60077Z" fill="#DEDFFB"/>
<path d="M19.4759 8.68274L20.0859 11.6158L19.9772 11.6784L19.3672 8.74553L19.4759 8.68274Z" fill="white"/>
<path d="M18.1683 9.43744L18.7782 12.3705L18.5275 12.5152L17.9175 9.58222L18.1683 9.43744Z" fill="#DEDFFB"/>
<path d="M18.0262 9.51959L18.6362 12.4526L18.5275 12.5153L17.9175 9.58226L18.0262 9.51959Z" fill="white"/>
<path d="M16.7191 10.2743L17.329 13.2073L17.0783 13.3521L16.4683 10.4191L16.7191 10.2743Z" fill="#DEDFFB"/>
<path d="M16.5771 10.3564L17.187 13.2894L17.0783 13.3521L16.4683 10.4191L16.5771 10.3564Z" fill="white"/>
<path d="M15.2697 11.1111L15.8798 14.0442L15.629 14.1889L15.019 11.2559L15.2697 11.1111Z" fill="#DEDFFB"/>
<path d="M15.1277 11.1931L15.7377 14.1261L15.629 14.1889L15.019 11.2559L15.1277 11.1931Z" fill="white"/>
<path d="M13.82 11.9479L14.4301 14.8809L14.1793 15.0257L13.5693 12.0927L13.82 11.9479Z" fill="#DEDFFB"/>
<path d="M13.678 12.03L14.2879 14.963L14.1793 15.0258L13.5693 12.0928L13.678 12.03Z" fill="white"/>
<path d="M12.3708 12.7848L12.9809 15.7178L12.73 15.8626L12.1201 12.9296L12.3708 12.7848Z" fill="#DEDFFB"/>
<path d="M12.2288 12.8668L12.8387 15.7998L12.73 15.8626L12.1201 12.9296L12.2288 12.8668Z" fill="white"/>
</g>
<path opacity="0.5" d="M24.9822 9.60831L12.4612 16.8834C12.2481 16.716 12.033 16.5512 11.8159 16.3888C11.8011 16.3761 11.7841 16.3655 11.7692 16.3527C11.748 16.3379 11.7268 16.3208 11.7056 16.306V16.3039L12.7034 15.7243L12.8095 15.6607L12.9516 15.58L14.149 14.8837L14.2594 14.82L14.4017 14.7372L15.5989 14.0409L15.7073 13.9793L15.8473 13.8966L17.0468 13.2003L17.155 13.1365L17.2972 13.0537L18.4967 12.3574L18.605 12.2938L18.7471 12.2109L19.9424 11.5167L20.0527 11.4531L20.195 11.3702L21.3923 10.674L21.5006 10.6103L21.6428 10.5275L23.1628 9.64442L23.2986 9.64225L24.98 9.60614C24.98 9.60831 24.9822 9.60831 24.9822 9.60831Z" fill="#1D2943"/>
<path d="M24.982 9.60831L12.4611 16.8834C12.2479 16.716 12.0328 16.5512 11.8158 16.3888C11.8009 16.3761 11.7839 16.3655 11.769 16.3527L12.7181 15.8009L12.8263 15.7371L12.9685 15.6543L14.1637 14.958L14.2741 14.8944L14.4163 14.8115L15.6136 14.1152L15.7219 14.0515L15.8642 13.9708L17.0615 13.2724L17.1697 13.2087L17.3119 13.1259L18.5114 12.4296L18.6197 12.366L18.7618 12.2832L19.9571 11.5869L20.0674 11.5231L20.2097 11.4404L21.407 10.744L21.5153 10.6804L21.6554 10.5997L23.2964 9.64442H23.2985L24.9799 9.60614C24.9799 9.60831 24.982 9.60831 24.982 9.60831Z" fill="#1D2943"/>
<path d="M27.8177 9.87788L26.0825 10.885C25.8277 10.7063 25.5729 10.5336 25.3169 10.3657L27.0606 9.3526C27.3142 9.52286 27.5666 9.69796 27.8177 9.87788Z" fill="#4C5C75"/>
<path d="M27.2364 9.72922C27.3216 9.77837 27.3221 9.85698 27.2377 9.90601C27.1543 9.95431 27.0187 9.95431 26.9337 9.90528C26.8499 9.85698 26.8496 9.77849 26.9328 9.73007C27.0173 9.68092 27.1528 9.68092 27.2366 9.72934L27.2364 9.72922Z" fill="#78E75A"/>
<path d="M26.6942 10.0445C26.7589 10.0819 26.7582 10.1423 26.6949 10.1791C26.6315 10.216 26.5283 10.216 26.4635 10.1785C26.3998 10.1418 26.3995 10.0819 26.4627 10.0452C26.5259 10.0085 26.6305 10.0078 26.6942 10.0445Z" fill="#DEDFFB"/>
<path d="M27.3027 9.69071C27.4244 9.76099 27.4264 9.8751 27.3067 9.94454C27.1859 10.0148 26.9877 10.0148 26.8659 9.94454C26.7442 9.87438 26.7449 9.76027 26.8658 9.68999C26.9854 9.62055 27.181 9.62055 27.3027 9.69071ZM26.9336 9.90529C27.0186 9.95444 27.1542 9.95444 27.2374 9.90602C27.3219 9.85699 27.3214 9.77838 27.2364 9.72935C27.1526 9.68105 27.017 9.68105 26.9326 9.73008C26.8493 9.77838 26.8498 9.85687 26.9336 9.90529Z" fill="#19233A"/>
<path d="M26.0719 10.4061C26.1367 10.4435 26.1371 10.5034 26.0738 10.5401C26.0094 10.5775 25.9061 10.5775 25.8413 10.5401C25.7776 10.5034 25.7773 10.4435 25.8416 10.4061C25.9049 10.3693 26.0082 10.3693 26.0719 10.4061ZM26.3829 10.2253C26.4478 10.2627 26.4481 10.3226 26.3847 10.3593C26.3205 10.3968 26.2171 10.3968 26.1524 10.3593C26.0886 10.3226 26.0884 10.2627 26.1526 10.2253C26.2159 10.1886 26.3193 10.1886 26.3829 10.2253Z" fill="#DEDFFB"/>
<path d="M7.50077 19.9323C7.4963 19.9404 7.49195 19.9486 7.48603 19.9559C7.48519 19.9574 7.48446 19.9581 7.48302 19.9596C7.46007 19.9922 7.42626 20.0224 7.38037 20.0489C7.19055 20.1598 6.8819 20.1598 6.69062 20.0489C6.64329 20.0224 6.60791 19.9906 6.58496 19.9574C6.58424 19.9567 6.58424 19.9559 6.58351 19.9552C6.57768 19.9478 6.57251 19.9399 6.56806 19.9316C6.53473 19.868 6.54064 19.7993 6.58641 19.7381C6.58766 19.7355 6.58943 19.7333 6.5916 19.7315C6.60775 19.7103 6.62691 19.6916 6.64848 19.676C6.66031 19.6672 6.6736 19.6583 6.68833 19.6495C6.72009 19.631 6.75559 19.6154 6.79326 19.6036C6.9424 19.5541 7.12775 19.5549 7.27701 19.6051C7.31323 19.617 7.34705 19.6317 7.3782 19.6495C7.39293 19.6583 7.40694 19.6672 7.4195 19.6768C7.44389 19.6945 7.46381 19.7137 7.47867 19.7344C7.48084 19.7365 7.48229 19.738 7.48374 19.7403C7.52806 19.8016 7.53409 19.8695 7.50077 19.9323Z" fill="#4C5C75"/>
<path d="M6.592 19.7313C6.59321 19.7386 6.59562 19.7446 6.59804 19.7518C6.59317 19.7415 6.58991 19.7305 6.58838 19.7192L6.592 19.7313ZM7.48317 19.6963V19.7084C7.48317 19.7108 7.48317 19.7132 7.48196 19.7156C7.48317 19.7096 7.48317 19.7035 7.48317 19.6963Z" fill="#FEBC1F"/>
<path d="M7.48341 19.6963V19.7084C7.48341 19.7067 7.48281 19.7051 7.48293 19.7034C7.48293 19.701 7.48341 19.6989 7.48341 19.6962V19.6963Z" fill="#FEBC1F"/>
<path d="M7.48289 19.7034C7.48652 19.6339 7.44365 19.5646 7.35175 19.5114C7.17545 19.41 6.89168 19.41 6.71658 19.5114C6.62964 19.5622 6.58617 19.6286 6.58617 19.695V19.7386L6.58496 19.9571C6.6079 19.991 6.64292 20.0224 6.69122 20.0489C6.88202 20.16 7.19115 20.16 7.38073 20.0489C7.42662 20.0224 7.46043 19.9922 7.48338 19.9596V19.7084C7.48338 19.7108 7.48338 19.7132 7.48217 19.7156C7.48289 19.7118 7.48277 19.7075 7.48289 19.7034ZM6.58858 19.7191L6.59221 19.7312C6.59341 19.7386 6.59583 19.7445 6.59824 19.7517C6.59337 19.7414 6.59012 19.7304 6.58858 19.7191Z" fill="#FEBC1F"/>
<path d="M6.592 19.7313C6.59321 19.7386 6.59562 19.7446 6.59804 19.7518C6.59317 19.7415 6.58991 19.7305 6.58838 19.7192L6.592 19.7313ZM7.48317 19.6963V19.7084C7.48317 19.7108 7.48317 19.7132 7.48196 19.7156C7.48317 19.7096 7.48317 19.7035 7.48317 19.6963Z" fill="#FEBC1F"/>
<path d="M7.48374 19.6966V19.7402L7.48301 19.9595C7.46007 19.9921 7.42626 20.0223 7.38037 20.0489C7.19055 20.1597 6.8819 20.1597 6.69062 20.0489C6.64329 20.0223 6.6079 19.9906 6.58496 19.9573L6.58641 19.7381V19.6952C6.58641 19.7077 6.58798 19.7196 6.5916 19.7314C6.60416 19.7853 6.64703 19.8377 6.71864 19.8791C6.89446 19.9803 7.17871 19.9803 7.35381 19.8791C7.40899 19.8467 7.4649 19.7963 7.47855 19.7343C7.48229 19.7218 7.48374 19.7092 7.48374 19.6966Z" fill="#FEBC1F"/>
<path d="M7.35171 19.5113C7.52765 19.6127 7.52862 19.7774 7.35388 19.879C7.17903 19.9805 6.8949 19.9805 6.71896 19.879C6.54302 19.7775 6.54217 19.6128 6.7169 19.5113C6.89164 19.4097 7.17577 19.4097 7.35171 19.5113Z" fill="#FFD06C"/>
<path d="M7.42055 19.4319L7.41934 19.6746C7.41934 19.7313 7.38191 19.7881 7.30704 19.8304C7.1573 19.9185 6.91338 19.9185 6.76244 19.8304C6.68636 19.7869 6.64893 19.7289 6.64893 19.6722L6.65013 19.4295C6.65013 19.3727 6.68636 19.316 6.76123 19.2725C6.91217 19.1855 7.1561 19.1855 7.30704 19.2725C7.38311 19.316 7.42176 19.3739 7.42055 19.4319Z" fill="#DF3260"/>
<path d="M7.42054 19.4316L7.41934 19.6741C7.41922 19.7308 7.3819 19.7876 7.3074 19.8308C7.1573 19.918 6.91325 19.918 6.76219 19.8308C6.68623 19.7869 6.64832 19.7294 6.64844 19.6719L6.64965 19.4294C6.64965 19.4869 6.68744 19.5444 6.76352 19.5884C6.91446 19.6755 7.15851 19.6755 7.3086 19.5884C7.38311 19.545 7.42042 19.4884 7.42054 19.4316Z" fill="#DF3260"/>
<path d="M7.30693 19.2725C7.45787 19.3597 7.45872 19.5011 7.30874 19.5883C7.15864 19.6755 6.91472 19.6755 6.76366 19.5883C6.61271 19.5011 6.61187 19.3597 6.76184 19.2725C6.91194 19.1854 7.15587 19.1854 7.30693 19.2725Z" fill="#F45170"/>
<path d="M8.97565 22.4173L8.9771 22.9397L7.88536 23.57L7.88379 23.0476L8.97565 22.4173Z" fill="#57B3FE"/>
<path d="M11.7606 25.3301C11.7609 25.4632 11.6675 25.6252 11.5517 25.6921C11.4357 25.7589 11.3416 25.7053 11.3413 25.5722C11.3409 25.4391 11.4344 25.2772 11.5502 25.2103C11.6661 25.1434 11.7603 25.197 11.7606 25.3301ZM11.4051 25.5661L11.5246 25.497L11.525 25.6342L11.578 25.6036L11.5775 25.4664L11.6971 25.3975L11.6968 25.3365L11.5774 25.4053L11.577 25.2682L11.524 25.2987L11.5244 25.436L11.4048 25.5051L11.4051 25.5661Z" fill="#4C5C75"/>
<path d="M11.524 25.2987L11.5243 25.436L11.4048 25.5051L11.405 25.5661L11.5246 25.497L11.5249 25.6342L11.5779 25.6036L11.5775 25.4665L11.697 25.3975L11.6968 25.3365L11.5773 25.4055L11.577 25.2682L11.524 25.2987Z" fill="#1D2943"/>
<path d="M28.5921 15.5517C28.5926 15.6847 28.4991 15.8468 28.3832 15.9137C28.2674 15.9805 28.1732 15.9268 28.1729 15.7938C28.1725 15.6607 28.2661 15.4988 28.3818 15.4319C28.4977 15.365 28.5919 15.4186 28.5922 15.5517H28.5921ZM28.2366 15.7876L28.3562 15.7185L28.3565 15.8557L28.4097 15.8251L28.4092 15.688L28.5287 15.619L28.5285 15.5581L28.4089 15.6269L28.4086 15.4897L28.3557 15.5203L28.356 15.6576L28.2365 15.7266L28.2366 15.7876Z" fill="#4C5C75"/>
<path d="M28.356 15.5202L28.3564 15.6575L28.2368 15.7266L28.2369 15.7876L28.3565 15.7185L28.3568 15.8557L28.4099 15.825L28.4095 15.688L28.5289 15.619L28.5288 15.558L28.4094 15.627L28.4089 15.4897L28.356 15.5202Z" fill="#1D2943"/>
<path d="M4.07821 21.7013L1.37935 20.1203C1.35592 20.1066 1.34143 20.0777 1.34131 20.0365C1.34107 19.9529 1.39927 19.8522 1.47136 19.8105L4.17023 21.3916C4.09814 21.4332 4.03994 21.5341 4.04018 21.6175C4.0403 21.6588 4.05479 21.6878 4.07821 21.7013Z" fill="#C8CBE8"/>
<path d="M4.17021 21.3917L4.17106 21.6922C4.09885 21.7339 4.04028 21.7006 4.04004 21.6175C4.0398 21.5341 4.098 21.4333 4.17021 21.3917Z" fill="#DEDFFB"/>
<path d="M4.07821 22.5161L1.37935 20.935C1.35592 20.9215 1.34143 20.8925 1.34131 20.8512C1.34107 20.7677 1.39927 20.6669 1.47136 20.6254L4.17023 22.2064C4.09814 22.2481 4.03994 22.3489 4.04018 22.4322C4.0403 22.4735 4.05479 22.5025 4.07821 22.5161Z" fill="#C8CBE8"/>
<path d="M4.17021 22.2064L4.17106 22.507C4.09885 22.5486 4.04028 22.5153 4.04004 22.4324C4.0398 22.3488 4.098 22.2481 4.17021 22.2064Z" fill="#DEDFFB"/>
<path d="M4.07821 23.331L1.37935 21.7499C1.35592 21.7362 1.34143 21.7072 1.34131 21.6661C1.34107 21.5825 1.39927 21.4818 1.47136 21.4401L4.17023 23.0212C4.09814 23.0629 4.03994 23.1637 4.04018 23.2471C4.0403 23.2884 4.05479 23.3174 4.07821 23.3309V23.331Z" fill="#C8CBE8"/>
<path d="M4.17021 23.0212L4.17106 23.3219C4.09885 23.3635 4.04028 23.3301 4.04004 23.2471C4.0398 23.1637 4.098 23.063 4.17021 23.0213V23.0212Z" fill="#DEDFFB"/>
<path d="M4.07821 24.1457L1.37935 22.5646C1.35592 22.551 1.34143 22.5221 1.34131 22.4808C1.34107 22.3973 1.39927 22.2966 1.47136 22.2549L4.17023 23.836C4.09814 23.8776 4.03994 23.9785 4.04018 24.0619C4.0403 24.1031 4.05479 24.1321 4.07821 24.1457Z" fill="#C8CBE8"/>
<path d="M4.17021 23.836L4.17106 24.1367C4.09885 24.1782 4.04028 24.1449 4.04004 24.0619C4.0398 23.9784 4.098 23.8777 4.17021 23.836Z" fill="#DEDFFB"/>
</svg>
