<svg width="32" height="32" viewBox="0 0 32 32" fill="none" xmlns="http://www.w3.org/2000/svg">
<path d="M12.6283 29.5964L12.6274 29.9067C12.6271 30.0086 12.56 30.1106 12.4261 30.1885C12.1568 30.345 11.7182 30.345 11.4468 30.1882C11.3103 30.1095 11.2423 30.006 11.2427 29.9027L11.2435 29.5924C11.2432 29.6957 11.3113 29.7991 11.4476 29.8779C11.7192 30.0346 12.1576 30.0346 12.4269 29.8781C12.561 29.8002 12.628 29.6984 12.6283 29.5964Z" fill="#1D2943"/>
<path d="M12.424 29.3107C12.6955 29.4674 12.6969 29.7214 12.4271 29.8782C12.1579 30.0346 11.7194 30.0346 11.4478 29.8779C11.1768 29.7214 11.1754 29.4673 11.4447 29.3109C11.7144 29.1542 12.1529 29.1542 12.424 29.3107Z" fill="#4C5C75"/>
<path d="M12.3403 28.3614L12.3369 29.5714C12.3367 29.6306 12.2978 29.6897 12.2198 29.735C12.0629 29.8262 11.8077 29.8262 11.6498 29.735C11.5702 29.6891 11.5305 29.6289 11.5308 29.5687L11.5341 28.3589C11.534 28.419 11.5736 28.4793 11.6532 28.5252C11.8112 28.6163 12.0663 28.6163 12.2232 28.5252C12.3012 28.4799 12.3402 28.4207 12.3403 28.3614Z" fill="#C9CEE2"/>
<path d="M12.2211 28.195C12.3791 28.2862 12.3801 28.434 12.2233 28.5252C12.0663 28.6163 11.8111 28.6163 11.6532 28.5252C11.4953 28.434 11.4944 28.2861 11.6513 28.1949C11.8082 28.1037 12.0632 28.1039 12.2211 28.195Z" fill="#9EA9C9"/>
<path d="M31.2485 18.7757L31.2475 19.086C31.2472 19.188 31.1801 19.2899 31.0462 19.3678C30.7769 19.5242 30.3384 19.5242 30.0669 19.3675C29.9304 19.2887 29.8624 19.1854 29.8628 19.082L29.8636 18.7717C29.8633 18.875 29.9314 18.9785 30.0677 19.0573C30.3393 19.214 30.7778 19.214 31.047 19.0575C31.1811 18.9796 31.2481 18.8777 31.2485 18.7757Z" fill="#1D2943"/>
<path d="M31.0435 18.49C31.315 18.6467 31.3164 18.9008 31.0467 19.0575C30.7774 19.214 30.339 19.214 30.0674 19.0573C29.7964 18.9008 29.7951 18.6467 30.0643 18.4903C30.334 18.3336 30.7725 18.3336 31.0436 18.49H31.0435Z" fill="#4C5C75"/>
<path d="M30.9605 17.5408L30.9569 18.7506C30.9569 18.8098 30.9179 18.8691 30.84 18.9144C30.683 19.0056 30.4278 19.0056 30.2698 18.9144C30.1904 18.8685 30.1506 18.8082 30.1509 18.7481L30.1543 17.5381C30.1541 17.5984 30.1939 17.6587 30.2733 17.7045C30.4313 17.7957 30.6865 17.7957 30.8434 17.7045C30.9213 17.6593 30.9603 17.6001 30.9605 17.5408Z" fill="#C9CEE2"/>
<path d="M30.8413 17.3744C30.9993 17.4656 31.0003 17.6133 30.8434 17.7046C30.6864 17.7957 30.4313 17.7957 30.2733 17.7046C30.1154 17.6133 30.1145 17.4655 30.2714 17.3743C30.4284 17.2831 30.6834 17.2833 30.8413 17.3743V17.3744Z" fill="#9EA9C9"/>
<path d="M2.17424 23.9541L2.17339 24.2645C2.17315 24.3664 2.10601 24.4683 1.97197 24.5462C1.70269 24.7026 1.26435 24.7026 0.99265 24.5458C0.856439 24.4671 0.788333 24.3637 0.788575 24.2604L0.78942 23.95C0.789179 24.0534 0.857284 24.1569 0.993616 24.2356C1.26519 24.3923 1.70365 24.3923 1.97294 24.2358C2.10697 24.158 2.17399 24.0562 2.17424 23.9541Z" fill="#1D2943"/>
<path d="M1.96929 23.6683C2.24087 23.825 2.2422 24.0791 1.97255 24.2358C1.70327 24.3923 1.26481 24.3923 0.993232 24.2356C0.722259 24.0791 0.72081 23.825 0.990093 23.6686C1.25986 23.5119 1.69832 23.5119 1.96941 23.6683H1.96929Z" fill="#4C5C75"/>
<path d="M1.8862 22.7191L1.8827 23.929C1.88258 23.9882 1.84357 24.0475 1.76569 24.0927C1.60871 24.1839 1.35355 24.1839 1.1956 24.0927C1.11615 24.0468 1.07642 23.9866 1.07666 23.9265L1.08004 22.7165C1.07992 22.7767 1.11953 22.837 1.19899 22.8829C1.35693 22.9741 1.61221 22.9741 1.76919 22.8829C1.84708 22.8376 1.88596 22.7784 1.8862 22.7191Z" fill="#C9CEE2"/>
<path d="M1.76707 22.5528C1.92502 22.6439 1.9261 22.7916 1.76924 22.8829C1.61226 22.9741 1.35699 22.9741 1.19904 22.8829C1.04109 22.7917 1.04037 22.6438 1.19723 22.5526C1.35421 22.4615 1.60912 22.4616 1.76719 22.5528H1.76707Z" fill="#9EA9C9"/>
<path d="M31.4564 8.26697L31.4316 18.3017L29.7393 19.2851L29.764 9.25052L31.4564 8.26697Z" fill="#B0B8CF"/>
<path d="M29.764 9.25053L29.7393 19.2851L18.355 12.7125L18.3797 2.67773L29.764 9.25053Z" fill="#9EA9C9"/>
<path d="M31.4565 8.26701L29.7642 9.25056L18.3799 2.67776L20.0721 1.69421L31.4565 8.26701Z" fill="#C9CEE2"/>
<path d="M13.7832 18.5295L2.39878 11.9569L2.37402 21.9915L13.7584 28.5643L29.6014 19.3654L29.6262 9.33081L13.7832 18.5295Z" fill="#B0B8CF"/>
<path d="M29.6261 9.33081L29.6013 19.3654L13.7583 28.5643L13.7831 18.5297L29.6261 9.33081Z" fill="#B0B8CF"/>
<path d="M13.7832 18.5297L13.7584 28.5643L2.37402 21.9915L2.39878 11.9569L13.7832 18.5297Z" fill="#9EA9C9"/>
<path d="M29.6258 9.33086L13.7828 18.5297L2.39844 11.9569L18.2415 2.75806L29.6258 9.33086Z" fill="#C9CEE2"/>
<path d="M2.26095 12.0369L0.568212 13.0206L0.543457 23.0553L11.9278 29.628L13.6206 28.6443L13.6453 18.6097L2.26095 12.0369Z" fill="#9EA9C9"/>
<path d="M13.6452 18.6097L13.6205 28.6443L11.9277 29.6281L11.9525 19.5934L13.6452 18.6097Z" fill="#B0B8CF"/>
<path d="M11.9526 19.5934L11.9278 29.6281L0.543457 23.0553L0.568212 13.0206L11.9526 19.5934Z" fill="#9EA9C9"/>
<path d="M13.6455 18.6097L11.9528 19.5934L0.568359 13.0206L2.2611 12.0369L13.6455 18.6097Z" fill="#C9CEE2"/>
<path d="M10.2926 16.2198L10.291 16.5133L13.7229 18.4947L13.7246 18.2013L10.2926 16.2198Z" fill="#DEDFFB"/>
<path d="M30.0486 13.0925L29.9762 13.0506L30.0483 13.0089L30.0374 9.19586L29.7379 9.02174L29.678 9.05639L29.6783 8.98708L26.2464 7.00562L10.2925 16.2168L13.7245 18.1982L13.7228 18.4918L13.7835 18.4567L13.7736 22.0335L13.8459 22.0756L13.7735 22.1173L13.7642 25.9199L14.1052 26.1171L30.0593 16.9059L30.0486 13.0925Z" fill="#DEDFFB"/>
<path d="M29.6787 8.98706L29.677 9.28062L13.7231 18.4918L13.7248 18.1982L29.6787 8.98706Z" fill="#F3F1FC"/>
<path d="M13.7246 18.2013L13.7229 18.4948L10.291 16.5133L10.2926 16.2198L13.7246 18.2013Z" fill="#DEDFFB"/>
<path d="M29.6783 8.98708L13.7244 18.1982L10.2925 16.2168L26.2464 7.00562L29.6783 8.98708Z" fill="white"/>
<path d="M14.1052 26.1171L13.7642 25.92L13.7735 22.1173L14.0943 22.3036L14.1052 26.1171Z" fill="#DEDFFB"/>
<path d="M14.0943 22.3036L13.7734 22.1173L29.7276 12.9061L30.0485 13.0925L14.0943 22.3036Z" fill="white"/>
<path d="M30.049 13.0925L30.0597 16.9059L14.1056 26.1171L14.0947 22.3036L30.049 13.0925Z" fill="#F3F1FC"/>
<path d="M21.8559 17.7388L21.5562 17.5647L21.5454 13.7516L21.845 13.9258L21.8559 17.7388Z" fill="#DEDFFB"/>
<path d="M21.845 13.9258L21.5454 13.7517L29.7379 9.02173L30.0375 9.19586L21.845 13.9258Z" fill="white"/>
<path d="M30.0377 9.19586L30.0486 13.0089L21.8561 17.7389L21.8452 13.9258L30.0377 9.19586Z" fill="#F3F1FC"/>
<path d="M14.0949 22.2198L13.7739 22.0335L13.7844 18.2326L14.084 18.4067L14.0949 22.2198Z" fill="#DEDFFB"/>
<path d="M14.0838 18.4067L13.7842 18.2326L21.4691 13.7957L21.7687 13.9698L14.0838 18.4067Z" fill="white"/>
<path d="M21.7687 13.9699L21.7794 17.783L14.0946 22.2198L14.0837 18.4068L21.7687 13.9699ZM27.1342 9.37178L26.2676 9.87231L25.807 10.1383L14.3907 16.7294L13.4426 16.1819L13.0635 15.9628L13.3843 15.7778L25.807 8.60583L26.1117 8.78141L27.1342 9.37178Z" fill="#F3F1FC"/>
<path d="M27.1343 9.37178L26.2678 9.87231L25.8071 10.1383V8.60583L26.1119 8.78141L27.1343 9.37178Z" fill="#DEDFFB"/>
<g opacity="0.3">
<path d="M24.711 1.94052C24.6719 1.92579 24.6252 1.93026 24.5778 1.95779L12.2929 9.05044C12.1835 9.11359 12.1108 9.27359 12.13 9.40787L13.0643 15.9629L13.4426 16.1819L12.4913 9.54421C12.4721 9.40993 12.5448 9.24993 12.6541 9.18677L24.9391 2.09412C24.9865 2.06671 25.0333 2.06212 25.0723 2.07698L24.711 1.94052Z" fill="#678AEE"/>
<path d="M26.2676 9.8723L25.8075 10.138L23.4383 11.5061L22.9287 11.7995L21.4664 12.6436L20.0415 13.4672L17.7809 14.7725L14.494 16.6696L14.3902 16.7288L13.4422 16.1817L13.3843 15.7772L12.4919 9.54385C12.4726 9.40981 12.545 9.25041 12.6537 9.18762L17.0649 6.6409L22.6123 3.43728L24.0372 2.61494L24.9393 2.09449C25.048 2.0317 25.1518 2.08966 25.1723 2.2237L25.403 3.83819L26.1118 8.78189L26.2676 9.8723Z" fill="#8FABFE"/>
</g>
<g opacity="0.2">
<path d="M16.3431 7.05752L17.468 14.9508L17.2031 15.1038L16.0781 7.21052L16.3431 7.05752ZM21.5976 4.0238L22.7225 11.9172L22.4574 12.0703L21.3324 4.17692L21.5976 4.0238Z" fill="#566DF9"/>
<path d="M21.4982 4.0813L22.6231 11.9746L22.4573 12.0703L21.3324 4.17694L21.4982 4.0813ZM16.2425 7.11635L17.3674 15.0097L17.2016 15.1054L16.0767 7.21211L16.2425 7.11635Z" fill="#678AEE"/>
</g>
<path d="M13.3413 17.1118C13.3386 17.1165 13.3361 17.1212 13.3326 17.1256C13.3322 17.1264 13.3317 17.1268 13.3309 17.1276C13.315 17.1491 13.2946 17.1669 13.2711 17.1798C13.1604 17.2444 12.9805 17.2444 12.869 17.1798C12.8447 17.1669 12.8237 17.1486 12.8074 17.1264C12.8069 17.1259 12.8069 17.1256 12.8065 17.1252C12.803 17.1209 12.8 17.1162 12.7974 17.1113C12.7781 17.0743 12.7816 17.0343 12.8083 16.9985C12.809 16.9971 12.81 16.9957 12.8113 16.9947C12.8194 16.9834 12.8306 16.9727 12.8444 16.9623C12.8698 16.9434 12.8984 16.9291 12.9288 16.9201C13.0206 16.8913 13.1191 16.8917 13.2107 16.921C13.2319 16.9279 13.2518 16.9365 13.2698 16.9469C13.2784 16.9521 13.2866 16.9571 13.2939 16.9628C13.3081 16.9731 13.3197 16.9843 13.3284 16.9964C13.3296 16.9976 13.3305 16.9985 13.3314 16.9998C13.3572 17.0355 13.3606 17.0751 13.3413 17.1118Z" fill="#4C5C75"/>
<path d="M13.3262 17.1241C13.3127 17.1434 13.293 17.1614 13.2658 17.177C13.1581 17.2398 12.9826 17.2398 12.8741 17.177C12.8499 17.1641 12.829 17.1458 12.813 17.1236C12.826 17.1043 12.8457 17.0864 12.8728 17.0708C12.9806 17.008 13.1561 17.008 13.2647 17.0708C13.2921 17.0864 13.3127 17.1048 13.3262 17.124V17.1241Z" fill="#B0B8CF"/>
<path d="M13.3313 16.9739V17.1272C13.3179 17.1466 13.2974 17.1647 13.2709 17.1804C13.1609 17.2444 12.9798 17.2444 12.8687 17.1804C12.8409 17.1647 12.8204 17.1453 12.8071 17.126L12.8083 16.998V16.9763C12.8059 16.9364 12.8313 16.8966 12.8844 16.8664C12.9858 16.8072 13.1513 16.8072 13.2539 16.8664C13.3058 16.8966 13.3313 16.9352 13.3313 16.9739Z" fill="#FEBC1F"/>
<path d="M13.3311 16.9745V16.9998L13.3306 17.1276C13.3147 17.1491 13.2943 17.1669 13.2708 17.1798C13.1601 17.2444 12.9802 17.2444 12.8687 17.1798C12.8444 17.1668 12.8234 17.1486 12.8071 17.1264L12.808 16.9984V16.9735C12.808 16.9808 12.8088 16.9878 12.811 16.9946C12.8182 17.026 12.8432 17.0566 12.885 17.0807C12.9874 17.1397 13.1532 17.1397 13.2553 17.0807C13.2877 17.0617 13.3201 17.032 13.3281 16.9963C13.3301 16.9892 13.3311 16.9818 13.3311 16.9744V16.9745Z" fill="#FEBC1F"/>
<path d="M13.2542 16.8663C13.3569 16.9254 13.3574 17.0214 13.2554 17.0806C13.1536 17.1398 12.988 17.1398 12.8853 17.0806C12.7828 17.0214 12.7823 16.9254 12.8841 16.8663C12.986 16.8071 13.1517 16.8071 13.2542 16.8663Z" fill="#FFD06C"/>
<path d="M13.2953 16.8193L13.2941 16.9606C13.2941 16.9944 13.2723 17.027 13.2287 17.0524C13.1406 17.1031 12.9993 17.1031 12.9111 17.0524C12.8665 17.027 12.8447 16.9932 12.8447 16.9594V16.8193C12.8447 16.7855 12.8665 16.7529 12.9099 16.7276C12.9981 16.6768 13.1406 16.6768 13.2287 16.7276C13.2722 16.7529 13.2953 16.7855 13.2953 16.8193Z" fill="#DF3260"/>
<path d="M13.2944 16.8199L13.2937 16.9612C13.2937 16.9943 13.272 17.0273 13.2285 17.0526C13.1409 17.1033 12.9987 17.1033 12.9107 17.0526C12.8663 17.027 12.8442 16.9935 12.8442 16.9599L12.8451 16.8186C12.845 16.8521 12.8671 16.8856 12.9114 16.9112C12.9995 16.9621 13.1417 16.9621 13.2292 16.9112C13.2727 16.8859 13.2944 16.853 13.2944 16.8199Z" fill="#DF3260"/>
<path d="M13.2279 16.7272C13.316 16.7779 13.3164 16.8604 13.2289 16.9112C13.1414 16.9621 12.9991 16.9621 12.9111 16.9112C12.823 16.8604 12.8226 16.7781 12.91 16.7272C12.9976 16.6764 13.1398 16.6764 13.2279 16.7272Z" fill="#F45170"/>
<path d="M28.0723 8.84442C28.0696 8.84913 28.0671 8.85384 28.0636 8.85818C28.0632 8.85903 28.0627 8.85939 28.0619 8.86024C28.0459 8.88173 28.0255 8.89953 28.002 8.9124C27.8914 8.97701 27.7115 8.97701 27.5999 8.9124C27.5756 8.89949 27.5545 8.88124 27.5383 8.85903C27.5379 8.85854 27.5379 8.85818 27.5374 8.8577C27.534 8.85338 27.531 8.84878 27.5284 8.84393C27.5091 8.80686 27.5125 8.76689 27.5393 8.73115C27.5399 8.72967 27.5409 8.72836 27.5422 8.72728C27.5504 8.71605 27.5615 8.70531 27.5754 8.69492C27.6008 8.67601 27.6294 8.66171 27.6598 8.65266C27.7516 8.62392 27.8501 8.62426 27.9417 8.65362C27.9629 8.66051 27.9827 8.66908 28.0008 8.67947C28.0094 8.68466 28.0176 8.68973 28.0249 8.69541C28.0391 8.70567 28.0507 8.7169 28.0593 8.72898L28.0624 8.73236C28.0882 8.7681 28.0916 8.80771 28.0723 8.84442Z" fill="#4C5C75"/>
<path d="M28.0572 8.85673C28.0436 8.87605 28.0239 8.89404 27.9968 8.90962C27.8891 8.97241 27.7136 8.97241 27.6049 8.90962C27.5808 8.89668 27.56 8.87843 27.5439 8.85624C27.557 8.83692 27.5767 8.81905 27.6037 8.80335C27.7116 8.74068 27.887 8.74068 27.9956 8.80335C28.0231 8.81905 28.0436 8.8374 28.0572 8.85673Z" fill="#B0B8CF"/>
<path d="M28.0627 8.70702V8.73238L28.0622 8.86038C28.0462 8.88179 28.0257 8.8995 28.0023 8.91231C27.8917 8.97703 27.7117 8.97703 27.6002 8.91231C27.5759 8.89943 27.5548 8.88122 27.5386 8.85905L27.5394 8.73105V8.70618C27.5394 8.71342 27.5404 8.72043 27.5424 8.72731C27.5498 8.75871 27.5748 8.78926 27.6166 8.81341C27.719 8.87234 27.8848 8.87234 27.9868 8.81341C28.0193 8.79433 28.0517 8.76462 28.0596 8.72888C28.0617 8.72181 28.0627 8.71437 28.0627 8.70702Z" fill="#211A67"/>
<path d="M27.9852 8.59894C28.0878 8.65811 28.0883 8.75411 27.9864 8.81328C27.8846 8.87245 27.7189 8.87245 27.6163 8.81328C27.5138 8.75411 27.5133 8.65811 27.6151 8.59894C27.717 8.53977 27.8827 8.53977 27.9852 8.59894Z" fill="#423D9B"/>
<path d="M28.0257 8.55247L28.0245 8.69375C28.0245 8.72635 28.0028 8.76016 27.9592 8.78552C27.8723 8.83624 27.7298 8.83624 27.6416 8.78552C27.5969 8.76016 27.5752 8.72635 27.5752 8.69254L27.5764 8.55126C27.5764 8.51745 27.5981 8.48484 27.6416 8.45949C27.7286 8.40877 27.871 8.40877 27.9592 8.45949C28.0039 8.48484 28.0257 8.51865 28.0257 8.55247Z" fill="#5094FF"/>
<path d="M28.0254 8.55248L28.0246 8.69376C28.0246 8.72697 28.0029 8.75993 27.9594 8.78517C27.8719 8.83613 27.7296 8.83613 27.6416 8.78517C27.5973 8.75969 27.5752 8.726 27.5752 8.69255L27.5759 8.55127C27.5759 8.58472 27.598 8.61829 27.6423 8.64389C27.7304 8.69461 27.8726 8.69461 27.9602 8.64389C28.0036 8.61853 28.0254 8.58556 28.0254 8.55248Z" fill="#5094FF"/>
<path d="M27.9593 8.45973C28.0473 8.51069 28.0478 8.59304 27.9604 8.64388C27.8728 8.6946 27.7306 8.6946 27.6426 8.64388C27.5544 8.59304 27.554 8.51069 27.6415 8.45973C27.729 8.40901 27.8713 8.40901 27.9593 8.45973Z" fill="#57B3FE"/>
<path d="M16.2645 18.4194L14.4182 19.4857L14.417 18.7962L16.2633 17.7299L16.2645 18.4194Z" fill="#F45170"/>
<path d="M11.2564 20.3802C11.256 20.464 11.2338 20.5295 11.1944 20.572C11.1933 20.5736 11.192 20.5749 11.1904 20.576C11.1273 20.6427 11.0225 20.6494 10.9037 20.5812C10.709 20.4687 10.5525 20.197 10.5532 19.9738C10.5536 19.8482 10.6037 19.7648 10.6819 19.7365C10.6896 19.7334 10.6974 19.731 10.7054 19.7293C10.7621 19.7167 10.8313 19.7298 10.9061 19.7728C11.0999 19.8847 11.2572 20.1568 11.2564 20.3802Z" fill="#4C5C75"/>
<path d="M11.2564 20.3801C11.256 20.4639 11.2338 20.5295 11.1944 20.572C11.1865 20.5736 11.1784 20.5748 11.1703 20.5756H11.1686C11.1289 20.5787 11.0848 20.5708 11.0371 20.5498C11.0371 20.5498 11.0367 20.5498 11.0364 20.5493C11.0221 20.5431 11.0081 20.5361 10.9946 20.5283C10.8067 20.4194 10.6585 20.1621 10.649 19.9432L10.6442 19.9427C10.6438 19.9355 10.6421 19.9278 10.6438 19.9209C10.6547 19.8781 10.6575 19.84 10.661 19.8072C10.6613 19.8068 10.6613 19.8064 10.6613 19.806C10.6706 19.7777 10.6856 19.7516 10.7054 19.7294C10.7621 19.7167 10.8313 19.7297 10.9061 19.7726C11.0999 19.8847 11.2572 20.157 11.2564 20.3801Z" fill="#1D2943"/>
<path d="M11.2565 20.3802C11.2561 20.464 11.2339 20.5295 11.1946 20.572C11.1934 20.5736 11.1921 20.5749 11.1906 20.576C11.1838 20.5764 11.1771 20.576 11.1703 20.5755H11.1687C11.1239 20.5729 11.0797 20.5642 11.0372 20.5498C11.0372 20.5498 11.0369 20.5498 11.0365 20.5493C10.8096 20.4727 10.644 20.2379 10.644 19.9602C10.644 19.9546 10.644 19.9487 10.6444 19.9431V19.9428C10.6456 19.8958 10.651 19.8505 10.6611 19.8073C10.6614 19.8068 10.6614 19.8065 10.6614 19.8061C10.667 19.7822 10.6737 19.7592 10.6821 19.7365C10.6897 19.7334 10.6975 19.731 10.7055 19.7293C10.7623 19.7167 10.8315 19.7298 10.9062 19.7728C11.1 19.8847 11.2574 20.1568 11.2565 20.3802Z" fill="#DEDFFB"/>
<path d="M11.2005 20.2862L10.7006 19.9974L10.7002 20.0857L11.2005 20.3746V20.2862Z" fill="#9EA9C9"/>
<path d="M2.18716 15.2127C2.18668 15.2966 2.16446 15.3622 2.1251 15.4047C2.12401 15.4062 2.12271 15.4075 2.12123 15.4087C2.05796 15.4753 1.95314 15.4821 1.83432 15.4137C1.63966 15.3014 1.48316 15.0297 1.48389 14.8063C1.48437 14.6808 1.53436 14.5974 1.61261 14.5692C1.62022 14.566 1.62819 14.5636 1.63616 14.5619C1.69292 14.5494 1.76199 14.5624 1.83673 14.6054C2.03055 14.7173 2.18789 14.9893 2.18716 15.2127Z" fill="#4C5C75"/>
<path d="M2.18712 15.2127C2.18663 15.2966 2.16441 15.3622 2.12505 15.4047C2.11707 15.4063 2.109 15.4075 2.1009 15.4083H2.09933C2.05948 15.4115 2.0154 15.4035 1.9677 15.3825C1.9677 15.3825 1.96734 15.3825 1.96698 15.382C1.9527 15.3758 1.9388 15.3688 1.92532 15.361C1.7373 15.2521 1.58914 14.9948 1.5796 14.7759L1.57477 14.7754C1.57453 14.7682 1.57272 14.7605 1.57453 14.7536C1.58539 14.7108 1.58805 14.6727 1.59155 14.6399C1.59192 14.6395 1.59192 14.6391 1.59192 14.6387C1.60126 14.6104 1.6163 14.5843 1.63611 14.5621C1.69287 14.5494 1.76194 14.5624 1.83669 14.6053C2.0305 14.7174 2.18784 14.9895 2.18712 15.2127Z" fill="#1D2943"/>
<path d="M2.1873 15.2127C2.18681 15.2966 2.16459 15.3622 2.12523 15.4047C2.12414 15.4062 2.12284 15.4075 2.12136 15.4087C2.1146 15.409 2.10784 15.4087 2.10108 15.4082H2.09951C2.05468 15.4055 2.01042 15.3969 1.96788 15.3825C1.96788 15.3825 1.96752 15.3825 1.96716 15.382C1.74026 15.3053 1.57471 15.0705 1.57471 14.7928C1.57471 14.7873 1.57471 14.7813 1.57507 14.7758V14.7754C1.57628 14.7285 1.58183 14.6832 1.59173 14.6399C1.5921 14.6395 1.5921 14.6391 1.5921 14.6387C1.59765 14.6148 1.60441 14.5919 1.61274 14.5692C1.62035 14.566 1.62832 14.5636 1.63629 14.5619C1.69305 14.5494 1.76212 14.5624 1.83687 14.6054C2.03068 14.7173 2.18802 14.9893 2.1873 15.2127Z" fill="#DEDFFB"/>
<path d="M2.13115 15.1189L1.6311 14.8301L1.63086 14.9184L2.13115 15.2073V15.1189Z" fill="#9EA9C9"/>
<g opacity="0.22">
<path d="M22.6125 3.43728L20.0416 13.4672L17.7811 14.7725L14.4941 16.6696L17.065 6.6409L22.6125 3.43728ZM25.4032 3.83819L23.4386 11.5061L22.929 11.7995L21.4666 12.6436L24.0375 2.61494L24.9395 2.09449C25.0482 2.0317 25.1521 2.08966 25.1726 2.2237L25.4032 3.83819Z" fill="white"/>
</g>
<path d="M22.4397 8.43329C22.3838 8.46541 22.3309 8.43571 22.3214 8.36724C22.3112 8.29817 22.3487 8.21666 22.4124 8.18104L22.3856 7.99109L17.23 10.9679L17.265 11.1518C17.3205 11.1197 17.374 11.1489 17.3836 11.2179C17.3936 11.2864 17.3562 11.3685 17.2918 11.4042L17.7811 14.7721L22.9289 11.7999L22.4397 8.43329ZM17.6675 11.1882C17.6114 11.2208 17.5586 11.1911 17.549 11.1221C17.5389 11.0537 17.5758 10.9722 17.6323 10.9394C17.6876 10.9073 17.7407 10.937 17.7507 11.0061C17.7603 11.0744 17.7229 11.1567 17.6675 11.1882ZM18.0346 10.9763C17.9787 11.009 17.9256 10.9793 17.9162 10.9102C17.9061 10.8417 17.9429 10.7602 17.9989 10.7275C18.0549 10.6954 18.1079 10.7251 18.1179 10.7942C18.1275 10.8626 18.0906 10.9441 18.0346 10.9763ZM18.4018 10.7645C18.3459 10.7966 18.2929 10.7674 18.2834 10.6984C18.2733 10.6299 18.3101 10.5478 18.366 10.5157C18.4221 10.4836 18.475 10.5133 18.4851 10.5824C18.4946 10.6507 18.4577 10.7323 18.4018 10.7645ZM18.769 10.5525C18.7131 10.5847 18.6601 10.5556 18.6499 10.4865C18.6404 10.418 18.6773 10.3359 18.7333 10.3038C18.7893 10.2717 18.8422 10.3014 18.8517 10.3698C18.8619 10.4389 18.8243 10.5204 18.769 10.5525ZM19.1356 10.3407C19.0797 10.3729 19.0273 10.3431 19.0173 10.2747C19.0076 10.2062 19.0446 10.1241 19.1006 10.092C19.1566 10.0599 19.2094 10.0896 19.2189 10.158C19.2291 10.227 19.1915 10.3086 19.1356 10.3407ZM19.5027 10.1288C19.4468 10.1609 19.3939 10.1312 19.3844 10.0628C19.3748 9.99369 19.4118 9.91218 19.4677 9.88005C19.523 9.84793 19.5766 9.87764 19.586 9.94611C19.5957 10.0152 19.5587 10.0967 19.5027 10.1288ZM19.87 9.91701C19.814 9.94913 19.7611 9.91942 19.7516 9.85095C19.7414 9.78188 19.7784 9.70037 19.8343 9.66825C19.8902 9.63613 19.9432 9.66584 19.9534 9.7343C19.9628 9.80265 19.926 9.88488 19.87 9.91701ZM20.2371 9.70508C20.1812 9.7372 20.1283 9.7075 20.1188 9.63903C20.1087 9.56996 20.1455 9.48845 20.2015 9.45633C20.2574 9.4236 20.3104 9.45331 20.3205 9.52238C20.3301 9.59085 20.2932 9.67236 20.2371 9.70508ZM20.6044 9.49255C20.5484 9.5254 20.4954 9.49557 20.4854 9.42662C20.4757 9.35815 20.5127 9.27604 20.5687 9.24392C20.6246 9.2118 20.6775 9.2415 20.6877 9.31058C20.6972 9.37892 20.6598 9.46043 20.6044 9.49255ZM20.9716 9.28075C20.9157 9.31287 20.8626 9.28377 20.8525 9.2147C20.8431 9.14623 20.8799 9.06411 20.9358 9.03199C20.9919 8.99987 21.0447 9.02958 21.0549 9.09805C21.0644 9.16712 21.0269 9.24863 20.9716 9.28075ZM21.3382 9.06894C21.2829 9.10107 21.2299 9.07184 21.2198 9.00289C21.2102 8.93442 21.2471 8.85231 21.3032 8.82019C21.3585 8.78807 21.412 8.81778 21.4215 8.88624C21.4316 8.95519 21.3941 9.03682 21.3382 9.06894ZM21.7053 8.85702C21.65 8.88914 21.5965 8.86004 21.5869 8.79097C21.5774 8.7225 21.6143 8.64039 21.6703 8.60827C21.7256 8.57615 21.7792 8.60585 21.7886 8.67432C21.7989 8.74339 21.7613 8.8249 21.7053 8.85702ZM22.0726 8.64522C22.0166 8.67734 21.9637 8.64763 21.9541 8.57916C21.944 8.5107 21.9816 8.42858 22.0369 8.39646C22.0928 8.36422 22.1464 8.39405 22.1559 8.46252C22.166 8.53086 22.1285 8.6131 22.0726 8.64522Z" fill="#566DF9"/>
</svg>
