<svg width="32" height="32" viewBox="0 0 32 32" fill="none" xmlns="http://www.w3.org/2000/svg">
<path d="M12.6285 29.5964L12.6276 29.9067C12.6273 30.0086 12.5602 30.1106 12.4263 30.1885C12.157 30.345 11.7184 30.345 11.4469 30.1882C11.3105 30.1095 11.2425 30.006 11.2429 29.9027L11.2437 29.5924C11.2433 29.6957 11.3114 29.7991 11.4478 29.8779C11.7194 30.0346 12.1578 30.0346 12.4271 29.8781C12.5611 29.8002 12.6282 29.6984 12.6285 29.5964Z" fill="#1D2943"/>
<path d="M12.424 29.3107C12.6954 29.4674 12.6969 29.7214 12.4271 29.8782C12.1578 30.0346 11.7194 30.0346 11.4478 29.8779C11.1768 29.7214 11.1754 29.4673 11.4447 29.3109C11.7144 29.1542 12.1529 29.1542 12.424 29.3107Z" fill="#4C5C75"/>
<path d="M12.3404 28.3614L12.337 29.5714C12.3368 29.6306 12.2979 29.6897 12.2199 29.735C12.063 29.8262 11.8078 29.8262 11.6499 29.735C11.5704 29.6891 11.5306 29.6289 11.5309 29.5687L11.5343 28.3589C11.5341 28.419 11.5737 28.4793 11.6533 28.5252C11.8113 28.6163 12.0664 28.6163 12.2233 28.5252C12.3013 28.4799 12.3403 28.4207 12.3404 28.3614Z" fill="#C9CEE2"/>
<path d="M12.2212 28.195C12.3792 28.2862 12.3803 28.434 12.2234 28.5252C12.0664 28.6163 11.8113 28.6163 11.6533 28.5252C11.4954 28.434 11.4945 28.2861 11.6514 28.1949C11.8084 28.1037 12.0633 28.1039 12.2212 28.195Z" fill="#9EA9C9"/>
<path d="M31.2483 18.7757L31.2473 19.086C31.2471 19.188 31.18 19.2899 31.046 19.3678C30.7768 19.5242 30.3383 19.5242 30.0667 19.3675C29.9303 19.2887 29.8623 19.1854 29.8626 19.082L29.8635 18.7717C29.8631 18.875 29.9312 18.9785 30.0676 19.0573C30.3391 19.214 30.7776 19.214 31.0469 19.0575C31.1809 18.9796 31.2479 18.8777 31.2483 18.7757Z" fill="#1D2943"/>
<path d="M31.0436 18.49C31.3152 18.6467 31.3165 18.9008 31.0469 19.0575C30.7776 19.214 30.3391 19.214 30.0676 19.0573C29.7966 18.9008 29.7953 18.6467 30.0644 18.4903C30.3342 18.3336 30.7726 18.3336 31.0437 18.49H31.0436Z" fill="#4C5C75"/>
<path d="M30.9603 17.5408L30.9567 18.7506C30.9567 18.8098 30.9177 18.8691 30.8398 18.9144C30.6828 19.0056 30.4275 19.0056 30.2696 18.9144C30.1901 18.8685 30.1504 18.8082 30.1506 18.7481L30.154 17.5381C30.1539 17.5984 30.1936 17.6587 30.2731 17.7045C30.431 17.7957 30.6863 17.7957 30.8432 17.7045C30.9211 17.6593 30.9601 17.6001 30.9603 17.5408Z" fill="#C9CEE2"/>
<path d="M30.8411 17.3744C30.9991 17.4656 31 17.6133 30.8432 17.7046C30.6862 17.7957 30.431 17.7957 30.2731 17.7046C30.1151 17.6133 30.1143 17.4655 30.2712 17.3743C30.4281 17.2831 30.6832 17.2833 30.8411 17.3743V17.3744Z" fill="#9EA9C9"/>
<path d="M2.17407 23.9541L2.17322 24.2645C2.17298 24.3664 2.10584 24.4683 1.9718 24.5462C1.70252 24.7026 1.26418 24.7026 0.992482 24.5458C0.856271 24.4671 0.788166 24.3637 0.788407 24.2604L0.789252 23.95C0.789011 24.0534 0.857116 24.1569 0.993449 24.2356C1.26503 24.3923 1.70349 24.3923 1.97277 24.2358C2.10681 24.158 2.17383 24.0562 2.17407 23.9541Z" fill="#1D2943"/>
<path d="M1.96951 23.6683C2.24108 23.825 2.24241 24.0791 1.97277 24.2358C1.70348 24.3923 1.26502 24.3923 0.993446 24.2356C0.722472 24.0791 0.721023 23.825 0.990306 23.6686C1.26007 23.5119 1.69853 23.5119 1.96963 23.6683H1.96951Z" fill="#4C5C75"/>
<path d="M1.88606 22.7191L1.88256 23.929C1.88244 23.9882 1.84344 24.0475 1.76555 24.0927C1.60857 24.1839 1.35341 24.1839 1.19547 24.0927C1.11601 24.0468 1.07628 23.9866 1.07652 23.9265L1.07991 22.7165C1.07978 22.7767 1.11939 22.837 1.19885 22.8829C1.3568 22.9741 1.61207 22.9741 1.76905 22.8829C1.84694 22.8376 1.88582 22.7784 1.88606 22.7191Z" fill="#C9CEE2"/>
<path d="M1.76689 22.5528C1.92483 22.6439 1.92592 22.7916 1.76906 22.8829C1.61208 22.9741 1.3568 22.9741 1.19886 22.8829C1.04091 22.7917 1.04018 22.6438 1.19704 22.5526C1.35403 22.4615 1.60894 22.4616 1.76701 22.5528H1.76689Z" fill="#9EA9C9"/>
<path d="M31.4566 8.26697L31.4319 18.3017L29.7395 19.2851L29.7642 9.25052L31.4566 8.26697Z" fill="#B0B8CF"/>
<path d="M29.7642 9.25053L29.7395 19.2851L18.3552 12.7125L18.3799 2.67773L29.7642 9.25053Z" fill="#9EA9C9"/>
<path d="M31.4566 8.26701L29.7642 9.25056L18.38 2.67776L20.0722 1.69421L31.4566 8.26701Z" fill="#C9CEE2"/>
<path d="M13.7831 18.5295L2.39867 11.9569L2.37392 21.9915L13.7583 28.5643L29.6013 19.3654L29.6261 9.33081L13.7831 18.5295Z" fill="#B0B8CF"/>
<path d="M29.6261 9.33081L29.6013 19.3654L13.7583 28.5643L13.7831 18.5297L29.6261 9.33081Z" fill="#B0B8CF"/>
<path d="M13.7831 18.5297L13.7583 28.5643L2.37392 21.9915L2.39867 11.9569L13.7831 18.5297Z" fill="#9EA9C9"/>
<path d="M29.6261 9.33086L13.7831 18.5297L2.39867 11.9569L18.2417 2.75806L29.6261 9.33086Z" fill="#C9CEE2"/>
<path d="M2.26089 12.0369L0.568151 13.0206L0.543396 23.0553L11.9278 29.628L13.6205 28.6443L13.6453 18.6097L2.26089 12.0369Z" fill="#9EA9C9"/>
<path d="M13.6453 18.6097L13.6205 28.6443L11.9278 29.6281L11.9526 19.5934L13.6453 18.6097Z" fill="#B0B8CF"/>
<path d="M11.9525 19.5934L11.9278 29.6281L0.543396 23.0553L0.568151 13.0206L11.9525 19.5934Z" fill="#9EA9C9"/>
<path d="M13.6453 18.6097L11.9525 19.5934L0.568146 13.0206L2.26089 12.0369L13.6453 18.6097Z" fill="#C9CEE2"/>
<path d="M10.2924 16.2198L10.2908 16.5133L13.7227 18.4947L13.7244 18.2013L10.2924 16.2198Z" fill="#DEDFFB"/>
<path d="M30.0487 13.0925L29.9764 13.0506L30.0485 13.0089L30.0376 9.19586L29.738 9.02174L29.6781 9.05639L29.6785 8.98708L26.2465 7.00562L10.2926 16.2168L13.7246 18.1982L13.7229 18.4918L13.7837 18.4567L13.7738 22.0335L13.8461 22.0756L13.7736 22.1173L13.7643 25.9199L14.1054 26.1171L30.0595 16.9059L30.0487 13.0925Z" fill="#DEDFFB"/>
<path d="M29.6785 8.98706L29.6768 9.28062L13.7229 18.4918L13.7246 18.1982L29.6785 8.98706Z" fill="#F3F1FC"/>
<path d="M13.7244 18.2013L13.7227 18.4948L10.2908 16.5133L10.2924 16.2198L13.7244 18.2013Z" fill="#DEDFFB"/>
<path d="M29.6785 8.98708L13.7246 18.1982L10.2926 16.2168L26.2465 7.00562L29.6785 8.98708Z" fill="white"/>
<path d="M14.1054 26.1171L13.7643 25.92L13.7736 22.1173L14.0945 22.3036L14.1054 26.1171Z" fill="#DEDFFB"/>
<path d="M14.0945 22.3036L13.7737 22.1173L29.7278 12.9061L30.0487 13.0925L14.0945 22.3036Z" fill="white"/>
<path d="M30.0487 13.0925L30.0595 16.9059L14.1054 26.1171L14.0945 22.3036L30.0487 13.0925Z" fill="#F3F1FC"/>
<path d="M21.856 17.7388L21.5563 17.5647L21.5455 13.7516L21.8451 13.9258L21.856 17.7388Z" fill="#DEDFFB"/>
<path d="M21.8451 13.9258L21.5455 13.7517L29.738 9.02173L30.0376 9.19586L21.8451 13.9258Z" fill="white"/>
<path d="M30.0376 9.19586L30.0485 13.0089L21.856 17.7389L21.8451 13.9258L30.0376 9.19586Z" fill="#F3F1FC"/>
<path d="M14.0947 22.2198L13.7738 22.0335L13.7843 18.2326L14.0839 18.4067L14.0947 22.2198Z" fill="#DEDFFB"/>
<path d="M14.0839 18.4067L13.7843 18.2326L21.4692 13.7957L21.7688 13.9698L14.0839 18.4067Z" fill="white"/>
<path d="M21.7688 13.9699L21.7796 17.783L14.0947 22.2198L14.0839 18.4068L21.7688 13.9699ZM27.1343 9.37178L26.2678 9.87231L25.8071 10.1383L14.3908 16.7294L13.4428 16.1819L13.0636 15.9628L13.3845 15.7778L25.8071 8.60583L26.1119 8.78141L27.1343 9.37178Z" fill="#F3F1FC"/>
<path d="M27.1343 9.37178L26.2678 9.87231L25.8071 10.1383V8.60583L26.1119 8.78141L27.1343 9.37178Z" fill="#DEDFFB"/>
<g opacity="0.3">
<path d="M24.7111 1.94052C24.672 1.92579 24.6254 1.93026 24.5779 1.95779L12.2931 9.05044C12.1837 9.11359 12.111 9.27359 12.1302 9.40787L13.0645 15.9629L13.4428 16.1819L12.4915 9.54421C12.4723 9.40993 12.545 9.24993 12.6543 9.18677L24.9392 2.09412C24.9867 2.06671 25.0334 2.06212 25.0724 2.07698L24.7111 1.94052Z" fill="#678AEE"/>
<path d="M26.2678 9.8723L25.8077 10.138L23.4385 11.5061L22.9289 11.7995L21.4666 12.6436L20.0417 13.4672L17.7811 14.7725L14.4942 16.6696L14.3904 16.7288L13.4424 16.1817L13.3845 15.7772L12.4921 9.54385C12.4728 9.40981 12.5452 9.25041 12.6539 9.18762L17.0651 6.6409L22.6125 3.43728L24.0374 2.61494L24.9395 2.09449C25.0482 2.0317 25.152 2.08966 25.1725 2.2237L25.4032 3.83819L26.112 8.78189L26.2678 9.8723Z" fill="#8FABFE"/>
</g>
<g opacity="0.2">
<path d="M16.3429 7.05752L17.4679 14.9508L17.203 15.1038L16.078 7.21052L16.3429 7.05752ZM21.5975 4.0238L22.7224 11.9172L22.4572 12.0703L21.3323 4.17692L21.5975 4.0238Z" fill="#566DF9"/>
<path d="M21.4981 4.0813L22.623 11.9746L22.4572 12.0703L21.3323 4.17694L21.4981 4.0813ZM16.2423 7.11635L17.3673 15.0097L17.2015 15.1054L16.0766 7.21211L16.2423 7.11635Z" fill="#678AEE"/>
</g>
<path d="M13.3412 17.1118C13.3386 17.1165 13.336 17.1212 13.3325 17.1256C13.3322 17.1264 13.3317 17.1268 13.3308 17.1276C13.3149 17.1491 13.2945 17.1669 13.2711 17.1798C13.1603 17.2444 12.9804 17.2444 12.869 17.1798C12.8447 17.1669 12.8236 17.1486 12.8074 17.1264C12.8069 17.1259 12.8069 17.1256 12.8064 17.1252C12.803 17.1209 12.8 17.1162 12.7974 17.1113C12.778 17.0743 12.7815 17.0343 12.8082 16.9985C12.8089 16.9971 12.81 16.9957 12.8112 16.9947C12.8193 16.9834 12.8306 16.9727 12.8443 16.9623C12.8698 16.9434 12.8983 16.9291 12.9287 16.9201C13.0206 16.8913 13.1191 16.8917 13.2107 16.921C13.2318 16.9279 13.2518 16.9365 13.2697 16.9469C13.2783 16.9521 13.2865 16.9571 13.2939 16.9628C13.308 16.9731 13.3196 16.9843 13.3283 16.9964C13.3295 16.9976 13.3305 16.9985 13.3313 16.9998C13.3572 17.0355 13.3606 17.0751 13.3412 17.1118Z" fill="#4C5C75"/>
<path d="M13.3261 17.1241C13.3126 17.1434 13.2929 17.1614 13.2658 17.177C13.158 17.2398 12.9826 17.2398 12.874 17.177C12.8499 17.1641 12.829 17.1458 12.8129 17.1236C12.826 17.1043 12.8457 17.0864 12.8727 17.0708C12.9805 17.008 13.156 17.008 13.2647 17.0708C13.2921 17.0864 13.3126 17.1048 13.3261 17.124V17.1241Z" fill="#B0B8CF"/>
<path d="M13.3313 16.9739V17.1272C13.3179 17.1466 13.2974 17.1647 13.2709 17.1804C13.1609 17.2444 12.9798 17.2444 12.8687 17.1804C12.8409 17.1647 12.8204 17.1453 12.8071 17.126L12.8083 16.998V16.9763C12.8059 16.9364 12.8313 16.8966 12.8844 16.8664C12.9858 16.8072 13.1513 16.8072 13.2539 16.8664C13.3058 16.8966 13.3313 16.9352 13.3313 16.9739Z" fill="#FEBC1F"/>
<path d="M13.3313 16.9745V16.9998L13.3308 17.1276C13.3149 17.1491 13.2945 17.1669 13.2711 17.1798C13.1603 17.2444 12.9804 17.2444 12.869 17.1798C12.8447 17.1668 12.8236 17.1486 12.8074 17.1264L12.8082 16.9984V16.9735C12.8082 16.9808 12.8091 16.9878 12.8112 16.9946C12.8185 17.026 12.8435 17.0566 12.8853 17.0807C12.9877 17.1397 13.1535 17.1397 13.2555 17.0807C13.288 17.0617 13.3203 17.032 13.3283 16.9963C13.3304 16.9892 13.3314 16.9818 13.3313 16.9744V16.9745Z" fill="#FEBC1F"/>
<path d="M13.2542 16.8663C13.3568 16.9254 13.3573 17.0214 13.2554 17.0806C13.1536 17.1398 12.9879 17.1398 12.8853 17.0806C12.7827 17.0214 12.7822 16.9254 12.884 16.8663C12.986 16.8071 13.1516 16.8071 13.2542 16.8663Z" fill="#FFD06C"/>
<path d="M13.2951 16.8193L13.2939 16.9606C13.2939 16.9944 13.2722 17.027 13.2286 17.0524C13.1404 17.1031 12.9991 17.1031 12.911 17.0524C12.8663 17.027 12.8446 16.9932 12.8446 16.9594V16.8193C12.8446 16.7855 12.8663 16.7529 12.9098 16.7276C12.9979 16.6768 13.1404 16.6768 13.2286 16.7276C13.272 16.7529 13.2951 16.7855 13.2951 16.8193Z" fill="#DF3260"/>
<path d="M13.2944 16.8199L13.2936 16.9612C13.2936 16.9943 13.2719 17.0273 13.2284 17.0526C13.1409 17.1033 12.9986 17.1033 12.9106 17.0526C12.8663 17.027 12.8442 16.9935 12.8442 16.9599L12.845 16.8186C12.8449 16.8521 12.867 16.8856 12.9113 16.9112C12.9995 16.9621 13.1416 16.9621 13.2292 16.9112C13.2726 16.8859 13.2944 16.853 13.2944 16.8199Z" fill="#DF3260"/>
<path d="M13.2281 16.7272C13.3162 16.7779 13.3166 16.8604 13.2292 16.9112C13.1416 16.9621 12.9994 16.9621 12.9113 16.9112C12.8232 16.8604 12.8228 16.7781 12.9103 16.7272C12.9978 16.6764 13.1401 16.6764 13.2281 16.7272Z" fill="#F45170"/>
<path d="M28.0725 8.84442C28.0698 8.84913 28.0673 8.85384 28.0638 8.85818C28.0634 8.85903 28.0629 8.85939 28.0621 8.86024C28.0461 8.88173 28.0257 8.89953 28.0022 8.9124C27.8916 8.97701 27.7116 8.97701 27.6001 8.9124C27.5758 8.89949 27.5547 8.88124 27.5385 8.85903C27.5381 8.85854 27.5381 8.85818 27.5376 8.8577C27.5342 8.85338 27.5312 8.84878 27.5286 8.84393C27.5093 8.80686 27.5126 8.76689 27.5394 8.73115C27.5401 8.72967 27.5411 8.72836 27.5423 8.72728C27.5506 8.71605 27.5617 8.70531 27.5755 8.69492C27.601 8.67601 27.6296 8.66171 27.66 8.65266C27.7518 8.62392 27.8503 8.62426 27.9419 8.65362C27.963 8.66051 27.9829 8.66908 28.001 8.67947C28.0095 8.68466 28.0178 8.68973 28.0251 8.69541C28.0392 8.70567 28.0508 8.7169 28.0595 8.72898L28.0626 8.73236C28.0884 8.7681 28.0918 8.80771 28.0725 8.84442Z" fill="#4C5C75"/>
<path d="M28.0574 8.85673C28.0438 8.87605 28.0242 8.89404 27.997 8.90962C27.8893 8.97241 27.7138 8.97241 27.6051 8.90962C27.581 8.89668 27.5602 8.87843 27.5442 8.85624C27.5572 8.83692 27.5769 8.81905 27.6039 8.80335C27.7118 8.74068 27.8872 8.74068 27.9958 8.80335C28.0233 8.81905 28.0438 8.8374 28.0574 8.85673Z" fill="#B0B8CF"/>
<path d="M28.0626 8.70702V8.73238L28.0621 8.86038C28.0461 8.88179 28.0256 8.8995 28.0022 8.91231C27.8916 8.97703 27.7116 8.97703 27.6001 8.91231C27.5758 8.89943 27.5547 8.88122 27.5385 8.85905L27.5393 8.73105V8.70618C27.5393 8.71342 27.5403 8.72043 27.5423 8.72731C27.5497 8.75871 27.5747 8.78926 27.6165 8.81341C27.7189 8.87234 27.8847 8.87234 27.9867 8.81341C28.0192 8.79433 28.0516 8.76462 28.0595 8.72888C28.0616 8.72181 28.0626 8.71437 28.0626 8.70702Z" fill="#211A67"/>
<path d="M27.9854 8.59894C28.088 8.65811 28.0885 8.75411 27.9866 8.81328C27.8848 8.87245 27.7191 8.87245 27.6165 8.81328C27.514 8.75411 27.5135 8.65811 27.6153 8.59894C27.7172 8.53977 27.8829 8.53977 27.9854 8.59894Z" fill="#423D9B"/>
<path d="M28.026 8.55247L28.0248 8.69375C28.0248 8.72635 28.003 8.76016 27.9594 8.78552C27.8725 8.83624 27.73 8.83624 27.6418 8.78552C27.5972 8.76016 27.5754 8.72635 27.5754 8.69254L27.5766 8.55126C27.5766 8.51745 27.5984 8.48484 27.6418 8.45949C27.7288 8.40877 27.8713 8.40877 27.9594 8.45949C28.0041 8.48484 28.026 8.51865 28.026 8.55247Z" fill="#5094FF"/>
<path d="M28.0256 8.55248L28.0249 8.69376C28.0249 8.72697 28.0031 8.75993 27.9597 8.78517C27.8721 8.83613 27.7299 8.83613 27.6418 8.78517C27.5975 8.75969 27.5754 8.726 27.5754 8.69255L27.5762 8.55127C27.5762 8.58472 27.5982 8.61829 27.6426 8.64389C27.7306 8.69461 27.8728 8.69461 27.9604 8.64389C28.0039 8.61853 28.0256 8.58556 28.0256 8.55248Z" fill="#5094FF"/>
<path d="M27.9593 8.45973C28.0473 8.51069 28.0478 8.59304 27.9604 8.64388C27.8728 8.6946 27.7306 8.6946 27.6426 8.64388C27.5544 8.59304 27.554 8.51069 27.6415 8.45973C27.729 8.40901 27.8713 8.40901 27.9593 8.45973Z" fill="#57B3FE"/>
<path d="M16.2643 18.4194L14.418 19.4857L14.4168 18.7962L16.2631 17.7299L16.2643 18.4194Z" fill="#F45170"/>
<path d="M11.2564 20.3802C11.256 20.464 11.2338 20.5295 11.1944 20.572C11.1933 20.5736 11.192 20.5749 11.1905 20.576C11.1273 20.6427 11.0225 20.6494 10.9037 20.5812C10.709 20.4687 10.5525 20.197 10.5532 19.9738C10.5536 19.8482 10.6037 19.7648 10.682 19.7365C10.6896 19.7334 10.6974 19.731 10.7054 19.7293C10.7621 19.7167 10.8313 19.7298 10.9061 19.7728C11.0999 19.8847 11.2572 20.1568 11.2564 20.3802Z" fill="#4C5C75"/>
<path d="M11.2564 20.3801C11.256 20.4639 11.2338 20.5295 11.1944 20.572C11.1865 20.5736 11.1784 20.5748 11.1703 20.5756H11.1686C11.1289 20.5787 11.0848 20.5708 11.0371 20.5498C11.0371 20.5498 11.0367 20.5498 11.0364 20.5493C11.0221 20.5431 11.0081 20.5361 10.9946 20.5283C10.8067 20.4194 10.6585 20.1621 10.649 19.9432L10.6442 19.9427C10.6438 19.9355 10.6421 19.9278 10.6438 19.9209C10.6547 19.8781 10.6575 19.84 10.661 19.8072C10.6613 19.8068 10.6613 19.8064 10.6613 19.806C10.6706 19.7777 10.6856 19.7516 10.7054 19.7294C10.7621 19.7167 10.8313 19.7297 10.9061 19.7726C11.0999 19.8847 11.2572 20.157 11.2564 20.3801Z" fill="#1D2943"/>
<path d="M11.2564 20.3802C11.256 20.464 11.2338 20.5295 11.1944 20.572C11.1933 20.5736 11.192 20.5749 11.1905 20.576C11.1837 20.5764 11.1769 20.576 11.1702 20.5755H11.1686C11.1238 20.5729 11.0796 20.5642 11.0371 20.5498C11.0371 20.5498 11.0367 20.5498 11.0364 20.5493C10.8095 20.4727 10.6439 20.2379 10.6439 19.9602C10.6439 19.9546 10.6439 19.9487 10.6443 19.9431V19.9428C10.6455 19.8958 10.6509 19.8505 10.6609 19.8073C10.6613 19.8068 10.6613 19.8065 10.6613 19.8061C10.6669 19.7822 10.6736 19.7592 10.682 19.7365C10.6896 19.7334 10.6974 19.731 10.7054 19.7293C10.7621 19.7167 10.8313 19.7298 10.9061 19.7728C11.0999 19.8847 11.2572 20.1568 11.2564 20.3802Z" fill="#DEDFFB"/>
<path d="M11.2002 20.2862L10.7003 19.9974L10.7 20.0857L11.2002 20.3746V20.2862Z" fill="#9EA9C9"/>
<path d="M2.18723 15.2127C2.18674 15.2966 2.16452 15.3622 2.12516 15.4047C2.12407 15.4062 2.12277 15.4075 2.12129 15.4087C2.05802 15.4753 1.9532 15.4821 1.83438 15.4137C1.63972 15.3014 1.48323 15.0297 1.48395 14.8063C1.48443 14.6808 1.53443 14.5974 1.61267 14.5692C1.62028 14.566 1.62825 14.5636 1.63622 14.5619C1.69298 14.5494 1.76205 14.5624 1.8368 14.6054C2.03061 14.7173 2.18795 14.9893 2.18723 15.2127Z" fill="#4C5C75"/>
<path d="M2.18724 15.2127C2.18675 15.2966 2.16454 15.3622 2.12517 15.4047C2.11719 15.4063 2.10913 15.4075 2.10102 15.4083H2.09945C2.0596 15.4115 2.01552 15.4035 1.96783 15.3825C1.96783 15.3825 1.96746 15.3825 1.9671 15.382C1.95283 15.3758 1.93892 15.3688 1.92544 15.361C1.73743 15.2521 1.58926 14.9948 1.57972 14.7759L1.57489 14.7754C1.57465 14.7682 1.57284 14.7605 1.57465 14.7536C1.58552 14.7108 1.58817 14.6727 1.59168 14.6399C1.59204 14.6395 1.59204 14.6391 1.59204 14.6387C1.60139 14.6104 1.61643 14.5843 1.63623 14.5621C1.69299 14.5494 1.76206 14.5624 1.83681 14.6053C2.03062 14.7174 2.18796 14.9895 2.18724 15.2127Z" fill="#1D2943"/>
<path d="M2.18723 15.2127C2.18675 15.2966 2.16453 15.3622 2.12517 15.4047C2.12408 15.4062 2.12278 15.4075 2.1213 15.4087C2.11454 15.409 2.10778 15.4087 2.10102 15.4082H2.09945C2.05462 15.4055 2.01036 15.3969 1.96782 15.3825C1.96782 15.3825 1.96746 15.3825 1.9671 15.382C1.7402 15.3053 1.57465 15.0705 1.57465 14.7928C1.57465 14.7873 1.57465 14.7813 1.57501 14.7758V14.7754C1.57622 14.7285 1.58177 14.6832 1.59167 14.6399C1.59203 14.6395 1.59203 14.6391 1.59203 14.6387C1.59759 14.6148 1.60435 14.5919 1.61268 14.5692C1.62029 14.566 1.62826 14.5636 1.63623 14.5619C1.69299 14.5494 1.76206 14.5624 1.8368 14.6054C2.03062 14.7173 2.18796 14.9893 2.18723 15.2127Z" fill="#DEDFFB"/>
<path d="M2.13109 15.1189L1.63104 14.8301L1.6308 14.9184L2.13109 15.2073V15.1189Z" fill="#9EA9C9"/>
<g opacity="0.22">
<path d="M22.6124 3.43728L20.0415 13.4672L17.781 14.7725L14.4941 16.6696L17.0649 6.6409L22.6124 3.43728ZM25.4032 3.83819L23.4385 11.5061L22.9289 11.7995L21.4666 12.6436L24.0374 2.61494L24.9395 2.09449C25.0481 2.0317 25.152 2.08966 25.1725 2.2237L25.4032 3.83819Z" fill="white"/>
</g>
<path d="M22.4399 8.43329C22.3839 8.46541 22.3311 8.43571 22.3215 8.36724C22.3114 8.29817 22.3488 8.21666 22.4126 8.18104L22.3858 7.99109L17.2301 10.9679L17.2652 11.1518C17.3207 11.1197 17.3742 11.1489 17.3837 11.2179C17.3938 11.2864 17.3563 11.3685 17.292 11.4042L17.7813 14.7721L22.929 11.7999L22.4399 8.43329ZM17.6676 11.1882C17.6116 11.2208 17.5587 11.1911 17.5492 11.1221C17.539 11.0537 17.576 10.9722 17.6325 10.9394C17.6878 10.9073 17.7408 10.937 17.7508 11.0061C17.7605 11.0744 17.7231 11.1567 17.6676 11.1882ZM18.0347 10.9763C17.9788 11.009 17.9258 10.9793 17.9164 10.9102C17.9062 10.8417 17.9431 10.7602 17.9991 10.7275C18.055 10.6954 18.108 10.7251 18.118 10.7942C18.1277 10.8626 18.0908 10.9441 18.0347 10.9763ZM18.4019 10.7645C18.346 10.7966 18.293 10.7674 18.2836 10.6984C18.2735 10.6299 18.3103 10.5478 18.3662 10.5157C18.4222 10.4836 18.4751 10.5133 18.4853 10.5824C18.4948 10.6507 18.4578 10.7323 18.4019 10.7645ZM18.7692 10.5525C18.7132 10.5847 18.6602 10.5556 18.6501 10.4865C18.6405 10.418 18.6775 10.3359 18.7334 10.3038C18.7894 10.2717 18.8423 10.3014 18.8519 10.3698C18.862 10.4389 18.8245 10.5204 18.7692 10.5525ZM19.1358 10.3407C19.0799 10.3729 19.0274 10.3431 19.0174 10.2747C19.0078 10.2062 19.0447 10.1241 19.1007 10.092C19.1568 10.0599 19.2095 10.0896 19.2191 10.158C19.2292 10.227 19.1917 10.3086 19.1358 10.3407ZM19.5029 10.1288C19.4469 10.1609 19.3941 10.1312 19.3845 10.0628C19.375 9.99369 19.4119 9.91218 19.4678 9.88005C19.5231 9.84793 19.5768 9.87764 19.5862 9.94611C19.5958 10.0152 19.5589 10.0967 19.5029 10.1288ZM19.8702 9.91701C19.8142 9.94913 19.7613 9.91942 19.7517 9.85095C19.7416 9.78188 19.7785 9.70037 19.8345 9.66825C19.8904 9.63613 19.9434 9.66584 19.9535 9.7343C19.9629 9.80265 19.9261 9.88488 19.8702 9.91701ZM20.2373 9.70508C20.1814 9.7372 20.1285 9.7075 20.1189 9.63903C20.1088 9.56996 20.1456 9.48845 20.2017 9.45633C20.2576 9.4236 20.3106 9.45331 20.3206 9.52238C20.3303 9.59085 20.2933 9.67236 20.2373 9.70508ZM20.6045 9.49255C20.5486 9.5254 20.4956 9.49557 20.4856 9.42662C20.4759 9.35815 20.5129 9.27604 20.5689 9.24392C20.6248 9.2118 20.6777 9.2415 20.6878 9.31058C20.6974 9.37892 20.6599 9.46043 20.6045 9.49255ZM20.9717 9.28075C20.9158 9.31287 20.8628 9.28377 20.8527 9.2147C20.8432 9.14623 20.8801 9.06411 20.936 9.03199C20.992 8.99987 21.0449 9.02958 21.055 9.09805C21.0646 9.16712 21.027 9.24863 20.9717 9.28075ZM21.3383 9.06894C21.283 9.10107 21.23 9.07184 21.22 9.00289C21.2103 8.93442 21.2473 8.85231 21.3033 8.82019C21.3586 8.78807 21.4121 8.81778 21.4216 8.88624C21.4318 8.95519 21.3942 9.03682 21.3383 9.06894ZM21.7054 8.85702C21.6501 8.88914 21.5966 8.86004 21.5871 8.79097C21.5775 8.7225 21.6145 8.64039 21.6704 8.60827C21.7257 8.57615 21.7793 8.60585 21.7887 8.67432C21.799 8.74339 21.7615 8.8249 21.7054 8.85702ZM22.0728 8.64522C22.0167 8.67734 21.9638 8.64763 21.9543 8.57916C21.9442 8.5107 21.9817 8.42858 22.037 8.39646C22.0929 8.36422 22.1465 8.39405 22.1561 8.46252C22.1661 8.53086 22.1287 8.6131 22.0728 8.64522Z" fill="#566DF9"/>
</svg>
