<svg width="40" height="40" viewBox="0 0 40 40" fill="none" xmlns="http://www.w3.org/2000/svg">
<path d="M16.898 31.9576L16.854 34.9864L15.6084 35.7112L15.6516 32.6816L16.898 31.9576Z" fill="#474B59"/>
<path d="M15.6511 32.6816L15.6079 35.7112L14.3535 34.9864L14.3967 31.9576L15.6511 32.6816Z" fill="#5B5E71"/>
<path d="M16.8973 31.9576L15.6509 32.6816L14.3965 31.9576L15.6429 31.2328L16.8973 31.9576Z" fill="#B7BACD"/>
<path d="M3.93706 24.3168L3.89386 27.3464L2.64746 28.0704L2.69066 25.0416L3.93706 24.3168Z" fill="#474B59"/>
<path d="M2.69018 25.0416L2.64698 28.0704L1.39258 27.3464L1.43578 24.3168L2.69018 25.0416Z" fill="#5B5E71"/>
<path d="M3.93635 24.3168L2.68995 25.0416L1.43555 24.3168L2.68195 23.5928L3.93635 24.3168Z" fill="#B7BACD"/>
<path d="M37.9664 19.1104L37.9232 22.1392L36.6768 22.864L36.7208 19.8344L37.9664 19.1104Z" fill="#474B59"/>
<path d="M36.7203 19.8344L36.6763 22.864L35.4219 22.14L35.4659 19.1104L36.7203 19.8344Z" fill="#5B5E71"/>
<path d="M37.9658 19.1104L36.7202 19.8344L35.4658 19.1104L36.7122 18.3864L37.9658 19.1104Z" fill="#B7BACD"/>
<path d="M37.9956 14.5824L37.9524 20.472L15.582 33.472L15.626 27.5824L37.9956 14.5824Z" fill="#D4DAE8"/>
<path d="M15.6254 27.5825L15.5814 33.4721L1.39258 25.2801L1.43578 19.3905L15.6254 27.5825Z" fill="#D4DAE8"/>
<path d="M37.9947 14.5825L15.6251 27.5825L1.43555 19.3905L23.8059 6.3905L37.9947 14.5825Z" fill="#E7EFFB"/>
<path d="M39.8328 13.8248V14.848L15.6104 28.9336V27.9096L39.8328 13.8248Z" fill="#BAC1CE"/>
<path d="M15.6103 27.9097V28.9337L0.220703 20.0577V19.0337L15.6103 27.9097Z" fill="#CAD0DD"/>
<path d="M39.7792 13.8697L15.5576 27.9553L0.167969 19.0793L24.4208 4.99365L39.7792 13.8697Z" fill="#5B5E71"/>
<path d="M1.76465 19.0769L24.4214 5.91846L38.183 13.8721L15.555 27.0313L1.76465 19.0769Z" fill="white"/>
<path d="M3.36133 19.0745L24.4221 6.84326L36.5877 13.8745L15.5533 26.1065L3.36133 19.0745Z" fill="#FED57A"/>
<path d="M15.8174 10.9121L14.8726 10.3625L14.8662 7.98328L15.811 8.53208L15.8174 10.9121Z" fill="#474B59"/>
<path d="M15.811 8.53201L14.8662 7.98321L15.843 5.72961L16.7878 6.27841L15.811 8.53201Z" fill="#525566"/>
<path d="M16.7876 6.27842L15.8428 5.72962L18.338 4.28882L19.282 4.83842L16.7876 6.27842Z" fill="#5B5E71"/>
<path d="M19.2817 4.83838L19.2937 8.90478L15.8169 10.912L15.8105 8.53198L16.7873 6.27838L19.2817 4.83838Z" fill="#414141"/>
<path d="M31.9785 15.7528L32.9697 15.1768L32.9729 14.2816L31.9809 14.8576L31.9785 15.7528Z" fill="#87755C"/>
<path d="M31.9806 14.8576L32.9726 14.2816L18.5566 5.92078L17.5654 6.49758L31.9806 14.8576Z" fill="#5B5E71"/>
<path d="M17.5659 6.49756L17.5635 7.39276L31.9787 15.7528L31.9811 14.8576L17.5659 6.49756Z" fill="#525566"/>
<path d="M30.2432 19.3849L29.2984 18.8361L29.292 16.4561L30.2368 17.0049L30.2432 19.3849Z" fill="#474B59"/>
<path d="M30.2368 17.0048L29.292 16.456L30.2696 14.2024L31.2136 14.752L30.2368 17.0048Z" fill="#525566"/>
<path d="M31.2135 14.7521L30.2695 14.2025L32.7639 12.7625L33.7087 13.3113L31.2135 14.7521Z" fill="#5B5E71"/>
<path d="M33.7083 13.3113L33.7195 17.3777L30.2427 19.3849L30.2363 17.0049L31.2131 14.7521L33.7083 13.3113Z" fill="#414141"/>
<path d="M24.1695 10.9873L24.1639 12.9437C24.1639 12.9628 24.1513 12.9818 24.1261 12.9965C24.0754 13.0259 23.9938 13.026 23.9427 12.9965C23.917 12.9817 23.9042 12.9623 23.9043 12.9431L23.9098 10.9867C23.9098 11.006 23.9226 11.0253 23.9483 11.0401C23.9993 11.0696 24.081 11.0695 24.1316 11.0401C24.1568 11.0254 24.1694 11.0064 24.1695 10.9873Z" fill="#F34858"/>
<path d="M24.1314 10.9338C24.1824 10.9633 24.1826 11.0106 24.1319 11.04C24.0813 11.0695 23.9996 11.0695 23.9486 11.0401C23.8975 11.0106 23.8974 10.9633 23.948 10.9339C23.9987 10.9044 24.0803 10.9043 24.1314 10.9338Z" fill="#F34858"/>
<path d="M25.1515 11.5088L23.6915 10.66L23.6875 9.08801L25.1467 9.93601L25.1515 11.5088Z" fill="#D9DEF3"/>
<path d="M25.1467 9.936L23.6875 9.088L25.1843 8.224L26.6443 9.072L25.1467 9.936Z" fill="#E7EFFB"/>
<path d="M26.6441 9.07202L26.6481 10.644L25.1513 11.5088L25.1465 9.93602L26.6441 9.07202Z" fill="#CED1EB"/>
<path d="M25.8691 10.0424L26.4515 9.70402L26.4523 9.37842L25.8699 9.71682L25.8691 10.0424Z" fill="#D84F48"/>
<path d="M24.2769 11.5721L23.5329 11.1393L23.5312 10.7233L24.276 11.1561L24.2769 11.5721Z" fill="#D9DEF3"/>
<path d="M24.276 11.156L23.5312 10.7232L24.0241 10.056L24.7689 10.4888L24.276 11.156Z" fill="#E7EFFB"/>
<path d="M24.7692 10.4888L24.7716 11.2872L24.2772 11.572L24.2764 11.156L24.7692 10.4888Z" fill="#CED1EB"/>
<path d="M3.36133 19.0744L16.8981 11.2128L29.0645 18.244L15.5533 26.1064L3.36133 19.0744Z" fill="#FED57A"/>
<path d="M19.14 23.9199L19.1344 25.8759L15.5576 27.9551L15.5624 25.9991L19.14 23.9199Z" fill="#474B59"/>
<path d="M15.5622 25.9992L15.5574 27.9552L0.166992 19.076L0.172592 17.12L15.5622 25.9992Z" fill="#525566"/>
<path d="M19.1401 23.92L15.5625 25.9992L0.172852 17.12L3.75045 15.0408L19.1401 23.92Z" fill="#5B5E71"/>
<path d="M13.3659 22.1916L13.3646 22.6246C13.3643 22.7487 13.283 22.8725 13.1206 22.9669C12.7937 23.1568 12.2596 23.1568 11.9306 22.9669C11.7629 22.8701 11.6793 22.7433 11.6797 22.6171L11.6809 22.1841C11.6806 22.3103 11.7641 22.437 11.9318 22.5338C12.2608 22.7238 12.795 22.7238 13.1218 22.5338C13.2842 22.4395 13.3655 22.3156 13.3659 22.1916Z" fill="#6EBA6E"/>
<path d="M13.1177 21.8445C13.4467 22.0345 13.4485 22.3438 13.1216 22.5338C12.7947 22.7238 12.2606 22.7238 11.9315 22.5338C11.5991 22.3419 11.5974 22.0325 11.9243 21.8425C12.2512 21.6526 12.7853 21.6526 13.1177 21.8445Z" fill="#A7D86F"/>
<path d="M14.9647 23.1137L14.9635 23.5468C14.9632 23.6709 14.8811 23.7946 14.7182 23.8893C14.3913 24.0792 13.8606 24.0812 13.5282 23.8893C13.3626 23.7937 13.2799 23.6678 13.2803 23.5422L13.2815 23.1091C13.2811 23.2348 13.3638 23.3606 13.5294 23.4562C13.8618 23.6481 14.3926 23.6462 14.7195 23.4562C14.8823 23.3616 14.9644 23.2378 14.9647 23.1137Z" fill="#C6413E"/>
<path d="M14.7153 22.7669C15.0477 22.9588 15.0461 23.2662 14.7192 23.4562C14.3923 23.6461 13.8615 23.6481 13.5292 23.4562C13.2002 23.2662 13.1984 22.9568 13.5253 22.7669C13.8522 22.5769 14.3863 22.5769 14.7153 22.7669Z" fill="#F34858"/>
<path d="M16.5641 24.0383L16.5629 24.4713C16.5625 24.5954 16.4812 24.7192 16.3189 24.8136C15.992 25.0035 15.4578 25.0035 15.1288 24.8136C14.9611 24.7167 14.8776 24.59 14.8779 24.4638L14.8792 24.0308C14.8788 24.157 14.9623 24.2837 15.13 24.3805C15.4591 24.5705 15.9932 24.5705 16.3201 24.3805C16.4825 24.2861 16.5638 24.1623 16.5641 24.0383Z" fill="#F7AE13"/>
<path d="M16.3159 23.6912C16.645 23.8811 16.6467 24.1905 16.3198 24.3805C15.9929 24.5705 15.4588 24.5705 15.1298 24.3805C14.7974 24.1886 14.7956 23.8792 15.1225 23.6892C15.4494 23.4993 15.9835 23.4993 16.3159 23.6912Z" fill="#F9BB4A"/>
<path d="M19.2051 31.0673L22.4387 29.1873L22.4427 27.8809L19.2091 29.7601L19.2051 31.0673Z" fill="#BAC1CE"/>
<path d="M19.2099 29.76L22.4435 27.8808L20.7971 26.1064L17.5635 27.9856L19.2099 29.76Z" fill="#E4E8F4"/>
<path d="M17.563 27.9856L17.5566 30.1152L19.2054 31.0672L19.2094 29.76L17.563 27.9856Z" fill="#CAD0DD"/>
</svg>
