<svg width="32" height="32" viewBox="0 0 32 32" fill="none" xmlns="http://www.w3.org/2000/svg">
<path d="M11.9466 30.8127L11.9454 31.1086C11.9454 31.1979 11.8874 31.2861 11.7703 31.3549C11.536 31.4902 11.1544 31.4902 10.9178 31.3537C10.7982 31.2861 10.739 31.1955 10.7403 31.105V30.8103C10.7403 30.721 10.7982 30.6316 10.9153 30.564C11.1508 30.4275 11.5324 30.4275 11.7691 30.564C11.8874 30.6328 11.9466 30.7234 11.9466 30.8127Z" fill="#1D2943"/>
<path d="M11.9467 30.8127L11.946 31.1089C11.9457 31.1978 11.8873 31.2866 11.7705 31.3544C11.536 31.4907 11.1541 31.4907 10.9175 31.3542C10.7988 31.2856 10.7394 31.1955 10.7397 31.1054L10.7405 30.8094C10.7402 30.8993 10.7996 30.9894 10.9183 31.058C11.1548 31.1944 11.5367 31.1944 11.7714 31.0582C11.888 30.9904 11.9464 30.9016 11.9467 30.8127Z" fill="#1D2943"/>
<path d="M11.7686 30.5639C12.005 30.7004 12.0062 30.9217 11.7714 31.0582C11.5367 31.1946 11.1548 31.1946 10.9183 31.058C10.6823 30.9217 10.6811 30.7006 10.9156 30.5641C11.1505 30.4276 11.5325 30.4276 11.7686 30.5639Z" fill="#4C5C75"/>
<path d="M11.6818 29.774L11.6817 30.7914C11.6817 30.8412 11.6491 30.8911 11.5836 30.9294C11.452 31.0063 11.2373 31.0069 11.1043 30.9306C11.0374 30.8922 11.0039 30.8416 11.0039 30.7911L11.004 29.7738C11.004 29.8244 11.0375 29.8748 11.1045 29.9132C11.2374 29.9896 11.4521 29.9891 11.5839 29.912C11.6492 29.8738 11.6818 29.8239 11.6818 29.774Z" fill="#C9CEE2"/>
<path d="M21.9782 24.986L21.9775 25.2822C21.9772 25.371 21.9188 25.4598 21.802 25.5277C21.5675 25.6639 21.1856 25.6639 20.949 25.5274C20.8303 25.4588 20.7709 25.3687 20.7712 25.2787L20.772 24.9826C20.7717 25.0725 20.8311 25.1626 20.9498 25.2312C21.1863 25.3677 21.5683 25.3677 21.8028 25.2315C21.9195 25.1636 21.9779 25.0748 21.9782 24.986Z" fill="#1D2943"/>
<path d="M21.8001 24.7371C22.0365 24.8737 22.0377 25.0949 21.8028 25.2314C21.5683 25.3678 21.1863 25.3678 20.9498 25.2312C20.7138 25.0949 20.7125 24.8738 20.9471 24.7373C21.182 24.6009 21.564 24.6009 21.8001 24.7371Z" fill="#4C5C75"/>
<path d="M21.7133 23.9472V24.9646C21.7132 25.0145 21.6806 25.0643 21.6151 25.1025C21.4835 25.1795 21.2688 25.1801 21.1357 25.1038C21.0688 25.0654 21.0354 25.0148 21.0354 24.9643L21.0355 23.947C21.0355 23.9975 21.069 24.0481 21.136 24.0865C21.2689 24.1628 21.4836 24.1622 21.6154 24.0853C21.6807 24.047 21.7133 23.9971 21.7133 23.9472Z" fill="#C9CEE2"/>
<path d="M4.03958 26.2132L4.03837 26.509C4.03837 26.5972 3.98041 26.6865 3.86328 26.7542C3.62901 26.8906 3.24743 26.8906 3.01075 26.7542C2.8912 26.6853 2.83203 26.596 2.83203 26.5054L2.83324 26.2108C2.83324 26.1214 2.8912 26.0321 3.00833 25.9644C3.2438 25.828 3.62539 25.828 3.86086 25.9644C3.98041 26.0333 4.03958 26.1226 4.03958 26.2132Z" fill="#1D2943"/>
<path d="M4.03971 26.2127L4.03898 26.5089C4.03874 26.5978 3.9803 26.6864 3.86353 26.7544C3.62902 26.8906 3.24707 26.8906 3.01064 26.7542C2.89181 26.6856 2.83252 26.5954 2.83276 26.5054L2.83349 26.2093C2.83325 26.2993 2.89266 26.3892 3.01136 26.458C3.24792 26.5944 3.62987 26.5944 3.86437 26.4582C3.98102 26.3903 4.03947 26.3016 4.03971 26.2127Z" fill="#1D2943"/>
<path d="M3.86159 25.9638C4.09803 26.1003 4.09936 26.3216 3.86437 26.4582C3.62986 26.5944 3.24791 26.5944 3.01136 26.458C2.77528 26.3216 2.77407 26.1004 3.00858 25.9641C3.24357 25.8276 3.62551 25.8276 3.86159 25.9638Z" fill="#4C5C75"/>
<path d="M3.77472 25.174L3.77448 26.1913C3.77448 26.2412 3.74187 26.2911 3.67654 26.3292C3.5448 26.4063 3.3301 26.4069 3.19715 26.3304C3.13013 26.2922 3.09668 26.2416 3.09668 26.191L3.0968 25.1737C3.0968 25.2242 3.13037 25.2748 3.19727 25.3132C3.33022 25.3895 3.54492 25.3889 3.67666 25.312C3.74199 25.2737 3.77472 25.2238 3.77472 25.174Z" fill="#C9CEE2"/>
<path d="M22.0221 17.3943L11.3433 23.5598L2.83276 18.614L2.84894 25.8795L11.3596 30.8254L22.0383 24.66L22.0221 17.3943Z" fill="#8792AD"/>
<path d="M11.3596 30.8254L2.84894 25.8796L2.83276 18.614L11.3433 23.5599L11.3596 30.8254Z" fill="#9EA9C9"/>
<path d="M10.5716 29.6673L3.63301 25.6348L3.63276 25.6001L3.62069 20.1871L10.5593 24.2194L10.5595 24.2542L10.5716 29.6673ZM11.3462 24.2991L2.83566 19.3534L2.83276 18.614L11.3433 23.5599L11.3462 24.2991Z" fill="#8792AD"/>
<path d="M22.0221 17.3943L22.0383 24.66L11.3596 30.8254L11.3433 23.5598L22.0221 17.3943Z" fill="#B0B8CF"/>
<path d="M12.1413 29.4678L12.1292 24.0125L12.1593 23.9949L21.2403 18.752L21.2524 24.2075L21.2222 24.2249L12.1413 29.4678ZM12.25 24.082L12.2616 29.2588L21.1314 24.1379L21.1201 18.961L12.25 24.082Z" fill="#8792AD"/>
<path d="M11.3433 23.5599L2.83276 18.614L13.5116 12.4486L22.0221 17.3944L11.3433 23.5599Z" fill="#8891AD"/>
<path d="M10.9296 13.3092L2.41895 8.36346L13.8699 1.75226L22.3805 6.69801L10.9296 13.3092Z" fill="#E3E7F0"/>
<path d="M22.3805 6.69803L10.9296 13.3092L2.41895 8.36348L2.44539 18.4587L10.9559 23.4046L11.3432 23.5599L22.022 17.3944L22.4069 16.7934L22.3805 6.69803Z" fill="#B0B8CF"/>
<path d="M10.9559 23.4046L2.44539 18.4587L2.41895 8.36346L10.9296 13.3092L10.9559 23.4046Z" fill="#B0B8CF"/>
<path d="M3.1637 18.0488L3.1416 9.61075L10.2113 13.7192L10.2333 22.1572L3.1637 18.0488Z" fill="#E3E7F0"/>
<path d="M22.3806 6.69803L22.4069 16.7934L22.0221 17.3944L11.3433 23.5599L10.956 23.4046L10.9297 13.3092L22.3806 6.69803Z" fill="#C9CEE2"/>
<path d="M21.8747 16.4928L11.4855 22.4914L11.4753 19.5902L19.3725 15.0378H19.3729L21.8747 16.4928Z" fill="#E3E7F0"/>
<path d="M21.851 7.76645L19.3594 9.21261L19.373 15.0381L21.8752 16.4928L21.851 7.76645Z" fill="#9EA9C9"/>
<path d="M19.3594 9.21262L11.4614 13.7649L11.4754 19.5902L19.373 15.0378L19.3594 9.21262Z" fill="#B0B8CF"/>
<path d="M14.1584 0.543396L2.25694 7.45081L2.25488 8.94768L10.7321 13.8448L22.6336 6.93748L22.6356 5.4406L14.1584 0.543396Z" fill="#1D2943"/>
<path d="M22.6357 5.44061L22.6336 6.93749L10.7322 13.8448L10.7342 12.3479L22.6357 5.44061Z" fill="#111D33"/>
<path d="M10.9099 12.4492L22.4591 5.74658L22.4577 6.83615L10.9084 13.5388L10.9099 12.4492Z" fill="#8FABFE"/>
<path d="M10.734 12.3479L10.732 13.8448L2.25488 8.94768L2.25681 7.45081L10.734 12.3479Z" fill="#1D2943"/>
<path d="M22.6355 5.4406L10.7341 12.3479L2.25684 7.45081L14.1583 0.543396L22.6355 5.4406Z" fill="#4C5C75"/>
<path d="M3.94385 7.44911L14.1593 1.52017L20.9486 5.44216L10.7332 11.3711L3.94385 7.44911Z" fill="#1D2943"/>
<path d="M22.1951 6.46099C22.1951 6.65226 20.2622 8.01607 17.8775 9.39291C15.4924 10.7699 11.1731 13.0159 11.1726 12.8245C11.1726 12.6328 15.4906 9.90407 17.8753 8.52722C20.2605 7.15026 22.1943 6.26959 22.1951 6.46099Z" fill="#162034"/>
<path d="M29.7446 21.0195L29.7434 21.5907L19.373 27.6176L11.4829 23.0627L11.4853 22.4915L19.3742 27.0464L29.7446 21.0195Z" fill="#9EA9C9"/>
<path d="M19.4491 15.0748L29.7447 21.0195L19.3742 27.0452L11.4853 22.4903L19.4491 15.0748ZM19.3744 27.0459L19.3727 27.6177L11.4834 23.0628L11.4851 22.491L19.3744 27.0459Z" fill="#9EA9C9"/>
<path d="M29.7447 21.0193L29.743 21.5911L19.3726 27.6177L19.3743 27.0459L29.7447 21.0193Z" fill="#B0B8CF"/>
<path d="M29.7452 21.0195L19.3744 27.0458L11.4854 22.4909L19.4486 15.0751L29.7452 21.0195Z" fill="#E3E7F0"/>
<path d="M19.4487 15.075L11.4855 22.4909L11.4753 19.5902L19.4487 15.075Z" fill="#E3E7F0"/>
<path d="M16.008 11.8209C15.9109 11.7659 15.7904 11.7509 15.656 11.7813C15.6908 11.7905 15.7236 11.8037 15.7541 11.8209C15.9074 11.9087 16.0032 12.0972 16.0037 12.366L16.0169 15.4581C16.0184 15.9958 15.6405 16.6509 15.1724 16.9208C15.086 16.9706 15.0027 17.0038 14.9242 17.0216C15.065 17.0592 15.2386 17.0292 15.4263 16.9208C15.8945 16.6509 16.2725 15.9958 16.2709 15.4581L16.2576 12.366C16.2571 12.0972 16.1614 11.9087 16.008 11.8209ZM18.8994 10.8412C18.8989 10.5723 18.8031 10.3833 18.6493 10.2956C18.5522 10.2405 18.4318 10.2255 18.2975 10.2559C18.3322 10.2651 18.3649 10.2783 18.3953 10.2956C18.5492 10.3833 18.6449 10.5723 18.6454 10.8412L18.6587 13.9327C18.6603 14.4709 18.2823 15.1256 17.8141 15.3959C17.7279 15.4457 17.6447 15.4788 17.5663 15.4966C17.707 15.5341 17.8804 15.5043 18.0681 15.3959C18.5362 15.1256 18.9142 14.4709 18.9126 13.9327L18.8994 10.8412ZM13.3662 13.3458C13.2692 13.2908 13.1486 13.2758 13.0142 13.3061C13.049 13.3154 13.0819 13.3286 13.1123 13.3458C13.2661 13.4336 13.3614 13.6226 13.3624 13.8914L13.3757 16.983C13.3772 17.5212 12.9993 18.1758 12.5306 18.4461C12.4445 18.4959 12.3613 18.5291 12.283 18.5468C12.4236 18.5844 12.5972 18.5546 12.7846 18.4461C13.2532 18.1758 13.6311 17.5212 13.6296 16.983L13.6163 13.8914C13.6154 13.6226 13.5201 13.4337 13.3662 13.3458Z" fill="#C9CEE2"/>
<path d="M16.017 15.4581L16.0037 12.366C16.0033 12.0972 15.9075 11.9087 15.7541 11.8209C15.7233 11.8036 15.6903 11.7903 15.6561 11.7813C15.5775 11.7991 15.494 11.8322 15.4077 11.8822C14.9395 12.1525 14.5617 12.8071 14.5631 13.3449L14.5764 16.4363C14.5774 16.7587 14.7141 16.9654 14.9243 17.0216C15.0028 17.0038 15.0861 16.9706 15.1725 16.9208C15.6406 16.6509 16.0185 15.9958 16.017 15.4581ZM18.6588 13.9327L18.6455 10.8412C18.645 10.5723 18.5493 10.3833 18.3954 10.2956C18.3646 10.2782 18.3318 10.2649 18.2976 10.256C18.2191 10.2737 18.1358 10.3069 18.0495 10.3568C17.5813 10.6272 17.2034 11.2818 17.2049 11.8195L17.2182 14.9109C17.2191 15.2333 17.3561 15.4404 17.5664 15.4966C17.6449 15.4788 17.728 15.4457 17.8142 15.3959C18.2824 15.1256 18.6603 14.4709 18.6588 13.9327ZM13.3758 16.983L13.3625 13.8914C13.3615 13.6226 13.2662 13.4337 13.1124 13.3458C13.0815 13.3284 13.0486 13.3151 13.0143 13.3061C12.9357 13.3238 12.8523 13.3571 12.7659 13.407C12.2983 13.6773 11.9199 14.332 11.9214 14.8697L11.9347 17.9617C11.9356 18.2838 12.0727 18.4907 12.2831 18.5468C12.3614 18.5291 12.4446 18.4959 12.5307 18.4461C12.9994 18.1758 13.3772 17.5212 13.3758 16.983ZM20.121 25.1457V26.1631C20.1209 26.213 20.0883 26.2628 20.0228 26.3011C19.8912 26.3782 19.6765 26.3786 19.5434 26.3023C19.4765 26.2639 19.4431 26.2134 19.4431 26.1628L19.4432 25.1455C19.4432 25.1961 19.4767 25.2467 19.5437 25.2851C19.6766 25.3614 19.8913 25.3608 20.0231 25.2838C20.0884 25.2455 20.121 25.1956 20.121 25.1457ZM16.2707 23.0981L16.2706 24.1153C16.2706 24.1652 16.238 24.2151 16.1726 24.2534C16.0409 24.3304 15.8262 24.3309 15.6932 24.2546C15.6263 24.2162 15.5928 24.1657 15.5928 24.1151V23.0977C15.5928 23.1483 15.6264 23.1989 15.6934 23.2373C15.8264 23.3136 16.0411 23.313 16.1728 23.236C16.2381 23.1977 16.2707 23.1478 16.2707 23.0981Z" fill="#9EA9C9"/>
<path d="M16.2706 23.098L16.2705 24.1153C16.2705 24.1652 16.2379 24.2151 16.1724 24.2534C16.0408 24.3304 15.8261 24.3309 15.693 24.2546C15.6261 24.2162 15.5927 24.1657 15.5927 24.1151V23.0977C15.5927 23.1483 15.6263 23.1989 15.6933 23.2373C15.8262 23.3136 16.0409 23.313 16.1727 23.236C16.238 23.1977 16.2706 23.1478 16.2706 23.0981V23.098ZM12.4203 21.0503L12.4202 22.0676C12.4202 22.1174 12.3876 22.1673 12.3222 22.2056C12.1906 22.2826 11.9759 22.2832 11.8428 22.2068C11.7759 22.1685 11.7423 22.1179 11.7424 22.0673V21.05C11.7424 21.1006 11.776 21.1512 11.843 21.1896C11.976 21.2659 12.1907 21.2653 12.3224 21.1884C12.3877 21.15 12.4203 21.1002 12.4203 21.0503ZM24.3976 22.758L24.3974 23.7754C24.3974 23.8253 24.3648 23.8752 24.2994 23.9134C24.1677 23.9904 23.953 23.991 23.82 23.9146C23.7531 23.8762 23.7196 23.8258 23.7196 23.7752L23.7197 22.7578C23.7197 22.8084 23.7533 22.8589 23.8202 22.8973C23.9531 22.9736 24.1679 22.9731 24.2996 22.8961C24.3649 22.8578 24.3976 22.8079 24.3976 22.758ZM27.9737 20.6569L27.9734 21.6742C27.9734 21.724 27.9408 21.7739 27.8755 21.8122C27.7438 21.8892 27.5291 21.8897 27.3961 21.8134C27.3291 21.775 27.2956 21.7245 27.2956 21.6739L27.2958 20.6566C27.2958 20.7072 27.3293 20.7576 27.3962 20.796C27.5292 20.8725 27.7439 20.8719 27.8756 20.7948C27.941 20.7565 27.9737 20.7067 27.9737 20.6568V20.6569Z" fill="#9EA9C9"/>
<path d="M28.0131 20.49L20.1413 25.0644C19.9557 25.1724 19.6538 25.1725 19.467 25.0647L11.6304 20.5401C11.5364 20.4858 11.4895 20.4145 11.4896 20.3434L11.4868 21.218C11.4866 21.2893 11.5335 21.3605 11.6275 21.4148L19.4642 25.9392C19.651 26.047 19.9528 26.0469 20.1384 25.9391L28.0102 21.3645C28.1023 21.3109 28.1486 21.2409 28.1487 21.1707L28.1516 20.2961C28.1513 20.3664 28.1052 20.4364 28.0131 20.49Z" fill="#4C5C75"/>
<path d="M28.0109 20.0996C28.1977 20.2075 28.1988 20.3822 28.0132 20.49L20.1414 25.0645C19.9558 25.1724 19.6539 25.1725 19.4671 25.0647L11.6305 20.5401C11.4437 20.4323 11.4427 20.2573 11.6283 20.1495L19.5 15.575C19.6856 15.4671 19.9874 15.4672 20.1742 15.5751L28.0109 20.0996Z" fill="#4C5C75"/>
<path d="M19.7818 23.1816L25.8845 19.6352L19.8826 16.17L13.78 19.7166L19.7818 23.1816Z" fill="#627084"/>
<path d="M19.8977 14.0729L19.8937 16.17L11.9658 20.7773L11.9698 18.68L19.8977 14.0729Z" fill="#111D33"/>
<path d="M27.6948 18.5745L27.6908 20.6716L19.8938 16.17L19.8978 14.0729L27.6948 18.5745Z" fill="#1D2943"/>
<path d="M19.8962 13.8083L28.1515 18.5745L19.7682 23.4463L11.5129 18.6801L19.8962 13.8083ZM19.7666 23.1816L27.6947 18.5745L19.8977 14.0727L11.9698 18.68L19.7666 23.1816Z" fill="#4C5C75"/>
<path d="M28.1516 18.5745L19.7683 23.4463L19.782 23.1815L27.6945 18.5745H28.1516Z" fill="#4C5C75"/>
<path d="M16.9448 9.55025C16.946 9.68067 16.8542 9.83765 16.7419 9.90286C16.6851 9.93546 16.6332 9.93908 16.5958 9.91735L16.4823 9.85093C16.446 9.8304 16.4231 9.78452 16.4231 9.72052C16.4219 9.5901 16.5137 9.43312 16.626 9.36791C16.6827 9.33531 16.7347 9.33169 16.7721 9.35342L16.8771 9.41501C16.8735 9.4138 16.8699 9.41138 16.8651 9.41138C16.8711 9.41259 16.8771 9.41501 16.8832 9.41863C16.8844 9.41863 16.8844 9.41984 16.8856 9.41984C16.9218 9.44037 16.9448 9.48625 16.9448 9.55025Z" fill="#5EC363"/>
<path d="M16.8831 9.41862C16.8775 9.41519 16.8714 9.41274 16.865 9.41138C16.8698 9.41138 16.8734 9.41379 16.8771 9.415L16.8831 9.41862Z" fill="#5EC363"/>
<path d="M16.2853 9.93183C16.2853 10.061 16.1948 10.2192 16.0812 10.2844C16.0245 10.317 15.9738 10.3207 15.9363 10.2989L15.9315 10.2953L15.8216 10.2325C15.7854 10.2108 15.7625 10.1661 15.7625 10.1009C15.7625 9.97168 15.853 9.81349 15.9665 9.74828C16.0233 9.71568 16.0752 9.71206 16.1114 9.73379L16.2261 9.80021C16.2239 9.79887 16.2215 9.79804 16.2189 9.79779C16.26 9.81711 16.2853 9.86421 16.2853 9.93183Z" fill="#FEBC1F"/>
<path d="M16.0801 9.81483C16.1932 9.7495 16.285 9.80178 16.2853 9.93148C16.2858 10.061 16.1945 10.219 16.0814 10.2843C15.9686 10.3495 15.8768 10.2972 15.8765 10.1676C15.8761 10.0379 15.9673 9.87991 16.0801 9.81483Z" fill="#FEBC1F"/>
<path d="M15.9663 9.74853C15.8536 9.81374 15.7623 9.97169 15.7627 10.1014C15.7629 10.1657 15.7856 10.211 15.8223 10.2324L15.9362 10.2986C15.8996 10.2773 15.8768 10.2319 15.8767 10.1676C15.8763 10.0379 15.9675 9.87991 16.0803 9.81483C16.1373 9.78186 16.189 9.77884 16.226 9.80046L16.1122 9.73428C16.075 9.71255 16.0234 9.71569 15.9664 9.74865L15.9663 9.74853Z" fill="#FFD06C"/>
<path d="M16.8831 9.41862C16.8775 9.41519 16.8714 9.41274 16.865 9.41138C16.8698 9.41138 16.8734 9.41379 16.8771 9.415L16.8831 9.41862Z" fill="#5EC363"/>
<path d="M16.7402 9.43371C16.8531 9.36851 16.9449 9.42091 16.9453 9.55048C16.9456 9.68017 16.8544 9.83812 16.7415 9.90321C16.6288 9.96842 16.537 9.91613 16.5366 9.78644C16.5363 9.65675 16.6274 9.4988 16.7402 9.43371Z" fill="#5EC363"/>
<path d="M16.6264 9.36754C16.5137 9.43275 16.4224 9.59058 16.4229 9.72014C16.423 9.78463 16.4458 9.83003 16.4824 9.85128L16.5964 9.91746C16.5597 9.8962 16.5368 9.8508 16.5367 9.78644C16.5364 9.65675 16.6275 9.4988 16.7403 9.43371C16.7971 9.40099 16.8486 9.39785 16.8857 9.41946L16.7718 9.35329C16.7346 9.33168 16.6832 9.3347 16.6264 9.36754Z" fill="#78E75A"/>
<path d="M17.6051 9.16987C17.6051 9.29908 17.5146 9.45726 17.4011 9.52247C17.3419 9.55628 17.2888 9.5587 17.2513 9.53334L17.1414 9.47055C17.1052 9.44881 17.0823 9.40413 17.0823 9.33892C17.0823 9.20972 17.1728 9.05153 17.2864 8.98632C17.3431 8.95372 17.395 8.95009 17.4313 8.97183L17.546 9.03825C17.5438 9.03691 17.5413 9.03608 17.5387 9.03583C17.5798 9.05515 17.6051 9.10225 17.6051 9.16987Z" fill="#DF3260"/>
<path d="M17.4319 8.97233C17.3947 8.9506 17.3431 8.95373 17.2861 8.98658C17.1733 9.05179 17.082 9.20973 17.0825 9.33943C17.0826 9.40379 17.1055 9.44907 17.1422 9.47044L17.256 9.53662C17.2193 9.51524 17.1966 9.46996 17.1964 9.4056C17.196 9.27591 17.2872 9.11796 17.4001 9.05287C17.4571 9.01991 17.5087 9.01689 17.5459 9.03838L17.4319 8.97233Z" fill="#F45170"/>
<path d="M17.4 9.05287C17.5132 8.98754 17.6049 9.03982 17.6053 9.16939C17.6056 9.29908 17.5145 9.45703 17.4012 9.52236C17.2884 9.58757 17.1967 9.53516 17.1963 9.40559C17.1959 9.2759 17.2871 9.11795 17.4 9.05287Z" fill="#DF3260"/>
<path d="M9.6113 20.889C9.7236 20.9538 9.81441 21.1112 9.81417 21.2404C9.81369 21.3696 9.72239 21.4215 9.60997 21.3567C9.49743 21.2918 9.40662 21.1345 9.40698 21.0053C9.40735 20.8761 9.49876 20.8242 9.6113 20.889ZM9.75222 21.2344L9.75234 21.1752L9.6363 21.1082L9.63666 20.9749L9.58522 20.9452L9.58486 21.0785L9.46893 21.0114L9.46869 21.0706L9.58461 21.1376L9.58437 21.2708L9.63569 21.3005L9.63618 21.1673L9.75222 21.2344Z" fill="#4C5C75"/>
<path d="M9.63648 20.9749L9.63611 21.1082L9.75216 21.1751L9.75204 21.2344L9.63599 21.1673L9.63551 21.3005L9.58407 21.2708L9.58455 21.1376L9.46851 21.0706L9.46875 21.0115L9.58467 21.0785L9.58503 20.9452L9.63648 20.9749Z" fill="#1D2943"/>
<path d="M3.702 17.499C3.8143 17.5639 3.90523 17.7212 3.90487 17.8504C3.90451 17.9795 3.81309 18.0316 3.70079 17.9667C3.58825 17.9018 3.49744 17.7445 3.4978 17.6153C3.49817 17.4861 3.58958 17.4342 3.702 17.499ZM3.84292 17.8444L3.84316 17.7852L3.72712 17.7181L3.72748 17.5849L3.67604 17.5552L3.67568 17.6884L3.55975 17.6215L3.55951 17.6807L3.67543 17.7477L3.67507 17.8808L3.72651 17.9105L3.72688 17.7774L3.84292 17.8444Z" fill="#4C5C75"/>
<path d="M3.72754 17.5849L3.72718 17.7181L3.84322 17.7851L3.84298 17.8444L3.72694 17.7774L3.72657 17.9105L3.67513 17.8808L3.67549 17.7477L3.55957 17.6807L3.55969 17.6215L3.67574 17.6884L3.6761 17.5552L3.72754 17.5849Z" fill="#1D2943"/>
<path d="M9.6113 13.809C9.7236 13.874 9.81441 14.0312 9.81417 14.1604C9.81369 14.2896 9.72239 14.3417 9.60997 14.2768C9.49743 14.2119 9.40662 14.0545 9.40698 13.9254C9.40735 13.7962 9.49876 13.7442 9.6113 13.809ZM9.75222 14.1544L9.75234 14.0952L9.6363 14.0282L9.63666 13.8949L9.58522 13.8652L9.58486 13.9985L9.46893 13.9315L9.46869 13.9906L9.58461 14.0577L9.58437 14.1908L9.63569 14.2206L9.63618 14.0874L9.75222 14.1544Z" fill="#4C5C75"/>
<path d="M9.63648 13.8949L9.63611 14.0282L9.75216 14.0952L9.75204 14.1544L9.63599 14.0874L9.63551 14.2206L9.58407 14.1908L9.58455 14.0577L9.46851 13.9908L9.46875 13.9315L9.58467 13.9985L9.58503 13.8652L9.63648 13.8949Z" fill="#1D2943"/>
<path d="M3.702 10.4191C3.8143 10.4841 3.90523 10.6413 3.90487 10.7705C3.90451 10.8997 3.81309 10.9516 3.70079 10.8868C3.58825 10.8219 3.49744 10.6646 3.4978 10.5354C3.49817 10.4062 3.58958 10.3542 3.702 10.4191ZM3.84292 10.7645L3.84316 10.7053L3.72712 10.6383L3.72748 10.505L3.67604 10.4752L3.67568 10.6086L3.55975 10.5415L3.55951 10.6007L3.67543 10.6677L3.67507 10.8009L3.72651 10.8306L3.72688 10.6974L3.84292 10.7645Z" fill="#4C5C75"/>
<path d="M3.72754 10.5049L3.72718 10.6382L3.84322 10.7053L3.84298 10.7644L3.72694 10.6974L3.72657 10.8306L3.67513 10.8009L3.67549 10.6677L3.55957 10.6008L3.55969 10.5415L3.67574 10.6085L3.6761 10.4752L3.72754 10.5049Z" fill="#1D2943"/>
<path d="M12.7069 20.7473L12.3957 20.5666L12.3938 19.0666L12.705 19.2473L12.7069 20.7473Z" fill="#887753"/>
<path d="M12.705 19.2473L12.3938 19.0666L20.0082 14.6704L20.3194 14.8511L12.705 19.2473Z" fill="#B0B8CF"/>
<path d="M20.3195 14.8511L20.3213 16.3512L12.707 20.7473L12.7051 19.2473L20.3195 14.8511Z" fill="#9EA9C9"/>
<path d="M20.3088 15.0118C20.1068 14.9231 19.856 14.9434 19.5944 15.0944C19.0235 15.424 18.618 16.2519 18.689 16.9433C18.7275 17.3182 18.8979 17.5759 19.137 17.6809L19.2908 17.7485C19.0517 17.6435 18.8812 17.3857 18.8428 17.0109C18.7717 16.3194 19.1772 15.4916 19.7482 15.1619C20.0097 15.0109 20.2606 14.9906 20.4625 15.0794L20.3088 15.0118Z" fill="#497BFE"/>
<path d="M19.7483 15.162C20.3193 14.8323 20.8397 15.1255 20.9107 15.8171C20.9817 16.5085 20.5763 17.3362 20.0053 17.6658C19.4342 17.9955 18.9138 17.7024 18.8428 17.011C18.7718 16.3194 19.1773 15.4917 19.7483 15.162Z" fill="#57B3FE"/>
<path d="M19.7867 15.5363C20.187 15.3052 20.5518 15.5108 20.6016 15.9954C20.6513 16.4801 20.3672 17.0605 19.9669 17.2915C19.5666 17.5226 19.2018 17.3171 19.1519 16.8324C19.1021 16.3476 19.3864 15.7673 19.7867 15.5363Z" fill="#FEBC1F"/>
<path d="M19.9669 17.2915C19.7694 17.4055 19.5805 17.4132 19.4339 17.3337C19.2833 17.2519 19.1771 17.078 19.1519 16.8324C19.1021 16.3478 19.3863 15.7673 19.7867 15.5362C19.9558 15.4385 20.1185 15.4188 20.254 15.4653L20.2543 15.4654C20.4391 15.5289 20.5728 15.7157 20.6016 15.9955C20.6513 16.4802 20.3672 17.0603 19.9669 17.2915Z" fill="#497BFE"/>
<path d="M19.9017 17.2628C19.7324 17.3607 19.5693 17.3802 19.4339 17.3336C19.2833 17.2519 19.1771 17.078 19.1519 16.8325C19.1021 16.3478 19.3863 15.7674 19.7867 15.5362C19.9558 15.4385 20.1185 15.4188 20.254 15.4653L20.2543 15.4654C20.4051 15.5473 20.5112 15.7213 20.5365 15.9668C20.5862 16.4516 20.302 17.0318 19.9018 17.2628H19.9017Z" fill="#5094FF"/>
<path d="M18.0372 15.8298C17.7952 15.7236 17.4946 15.7479 17.1811 15.9289C16.4969 16.324 16.011 17.3161 16.0961 18.1447C16.1422 18.5938 16.3465 18.9027 16.633 19.0286L16.8173 19.1095C16.5308 18.9836 16.3264 18.6748 16.2804 18.2256C16.1952 17.397 16.681 16.4049 17.3654 16.0098C17.6788 15.8289 17.9794 15.8045 18.2215 15.9108L18.0372 15.8298Z" fill="#C9CEE2"/>
<path d="M17.3654 16.0098C18.0499 15.6147 18.6734 15.9663 18.7586 16.7948C18.8436 17.6235 18.3579 18.6154 17.6736 19.0105C16.9893 19.4056 16.3654 19.0542 16.2804 18.2256C16.1953 17.397 16.6811 16.4049 17.3654 16.0098Z" fill="#F3F1FC"/>
<path d="M17.4115 16.4584C17.8911 16.1815 18.3283 16.4278 18.388 17.0088C18.4477 17.5896 18.1071 18.2849 17.6274 18.5619C17.1477 18.8388 16.7105 18.5926 16.6508 18.0117C16.5912 17.4308 16.9317 16.7353 17.4115 16.4584Z" fill="#FEBC1F"/>
<path d="M17.6275 18.5618C17.3908 18.6985 17.1644 18.7077 16.9887 18.6124C16.8083 18.5144 16.6811 18.3059 16.6508 18.0117C16.5913 17.4308 16.9318 16.7353 17.4116 16.4584C17.6143 16.3413 17.8093 16.3177 17.9715 16.3734L17.972 16.3735C18.1934 16.4496 18.3536 16.6736 18.3881 17.0087C18.4477 17.5896 18.1071 18.2849 17.6275 18.5618Z" fill="#B0B8CF"/>
<path d="M17.5493 18.5276C17.3465 18.6448 17.1511 18.6682 16.9887 18.6124C16.8083 18.5144 16.6811 18.3059 16.6508 18.0117C16.5913 17.4308 16.9318 16.7353 17.4116 16.4584C17.6143 16.3413 17.8093 16.3177 17.9715 16.3734L17.972 16.3735C18.1526 16.4717 18.2799 16.6802 18.3101 16.9744C18.3696 17.5553 18.0291 18.2506 17.5493 18.5276Z" fill="white"/>
<path d="M15.3181 16.8352C15.0301 16.7087 14.6723 16.7377 14.2994 16.953C13.4851 17.4231 12.9069 18.6037 13.0081 19.5899C13.063 20.1244 13.3062 20.4919 13.6471 20.6417L13.8663 20.738C13.5254 20.5883 13.2822 20.2207 13.2274 19.6863C13.1262 18.7001 13.7043 17.5194 14.5186 17.0492C14.8916 16.8339 15.2494 16.8049 15.5374 16.9315L15.3181 16.8352Z" fill="#FFDE9B"/>
<path d="M14.5186 17.0494C15.3331 16.5792 16.0752 16.9974 16.1766 17.9835C16.2777 18.9696 15.6996 20.1501 14.8853 20.6203C14.0709 21.0904 13.3287 20.6723 13.2273 19.6862C13.1262 18.7001 13.7043 17.5195 14.5186 17.0493V17.0494Z" fill="#FFD06C"/>
<path d="M14.5734 17.5831C15.1443 17.2536 15.6645 17.5469 15.7355 18.2381C15.8066 18.9294 15.4013 19.7568 14.8304 20.0864C14.2596 20.416 13.7392 20.1229 13.6682 19.4316C13.5972 18.7403 14.0026 17.9126 14.5734 17.5831Z" fill="#FEBC1F"/>
<path d="M14.8305 20.0863C14.5489 20.249 14.2795 20.26 14.0703 20.1465C13.8556 20.0298 13.7044 19.7818 13.6682 19.4316C13.5973 18.7404 14.0026 17.9128 14.5736 17.5831C14.8149 17.4438 15.0469 17.4157 15.2398 17.482L15.2404 17.4822C15.504 17.5727 15.6947 17.8392 15.7356 18.2381C15.8066 18.9294 15.4014 19.7567 14.8305 20.0863Z" fill="#FFDE9B"/>
<path d="M14.7376 20.0455C14.4961 20.1851 14.2636 20.2129 14.0703 20.1465C13.8556 20.0298 13.7044 19.7818 13.6682 19.4316C13.5973 18.7404 14.0026 17.9128 14.5736 17.5831C14.8149 17.4438 15.0469 17.4157 15.2398 17.482L15.2404 17.4822C15.4554 17.5989 15.6069 17.8471 15.6428 18.1973C15.7137 18.8886 15.3084 19.716 14.7376 20.0455Z" fill="#FEBC1F"/>
<path d="M13.9133 21.444L13.6023 21.2631L13.6003 19.7631L13.9114 19.944L13.9133 21.444Z" fill="#887753"/>
<path d="M13.9114 19.944L13.6003 19.7631L21.2147 15.367L21.5258 15.5478L13.9114 19.944Z" fill="#B0B8CF"/>
<path d="M21.5258 15.5478L21.5277 17.0478L13.9133 21.444L13.9114 19.944L21.5258 15.5478Z" fill="#9EA9C9"/>
<path d="M21.5153 15.7084C21.3134 15.6196 21.0625 15.6399 20.801 15.791C20.2299 16.1206 19.8246 16.9485 19.8955 17.64C19.9341 18.0147 20.1045 18.2725 20.3435 18.3775L20.4973 18.445C20.2582 18.34 20.0877 18.0823 20.0493 17.7075C19.9783 17.016 20.3837 16.1881 20.9548 15.8585C21.2162 15.7075 21.4671 15.6871 21.6691 15.7759L21.5153 15.7083V15.7084Z" fill="#497BFE"/>
<path d="M20.9546 15.8585C21.5258 15.5288 22.0463 15.8221 22.1171 16.5136C22.1881 17.205 21.7829 18.0327 21.2118 18.3623C20.6408 18.692 20.1202 18.3989 20.0493 17.7075C19.9783 17.016 20.3837 16.1881 20.9547 15.8585H20.9546Z" fill="#57B3FE"/>
<path d="M20.9931 16.2328C21.3934 16.0017 21.7582 16.2073 21.808 16.6921C21.8577 17.1768 21.5737 17.757 21.1733 17.9881C20.773 18.2192 20.4082 18.0137 20.3584 17.529C20.3087 17.0443 20.5928 16.4639 20.9931 16.2328Z" fill="#FEBC1F"/>
<path d="M21.1732 17.988C20.9757 18.1021 20.7867 18.1098 20.6402 18.0303C20.4896 17.9485 20.3835 17.7745 20.3582 17.529C20.3084 17.0443 20.5927 16.464 20.993 16.2328C21.1622 16.135 21.325 16.1155 21.4603 16.1618C21.4603 16.1621 21.4607 16.1621 21.4607 16.1621C21.6454 16.2255 21.7792 16.4124 21.8079 16.6921C21.8576 17.1768 21.5735 17.7569 21.1732 17.988Z" fill="#497BFE"/>
<path d="M21.1081 17.9595C20.9387 18.0573 20.7756 18.0768 20.6402 18.0303C20.4896 17.9485 20.3835 17.7745 20.3582 17.529C20.3084 17.0443 20.5927 16.464 20.993 16.2328C21.1622 16.135 21.325 16.1155 21.4603 16.1618C21.4603 16.1621 21.4607 16.1621 21.4607 16.1621C21.6114 16.2439 21.7176 16.4178 21.7428 16.6634C21.7925 17.1482 21.5084 17.7284 21.1081 17.9595Z" fill="#5094FF"/>
<path d="M19.2438 16.5265C19.0018 16.4202 18.7011 16.4445 18.3877 16.6255C17.7034 17.0205 17.2176 18.0126 17.3026 18.8414C17.3488 19.2903 17.5531 19.5993 17.8396 19.7252L18.0238 19.8061C17.7373 19.6803 17.533 19.3714 17.4869 18.9222C17.4018 18.0935 17.8877 17.1014 18.572 16.7063C18.8854 16.5254 19.186 16.501 19.4281 16.6074L19.2438 16.5265Z" fill="#C9CEE2"/>
<path d="M18.5721 16.7064C19.2564 16.3113 19.8801 16.6628 19.9651 17.4913C20.0502 18.3201 19.5644 19.312 18.8801 19.7072C18.1958 20.1022 17.572 19.7509 17.487 18.9223C17.4018 18.0935 17.8878 17.1014 18.5721 16.7064Z" fill="#F3F1FC"/>
<path d="M18.618 17.155C19.0978 16.878 19.5349 17.1245 19.5945 17.7053C19.6542 18.2861 19.3137 18.9815 18.8339 19.2584C18.3543 19.5354 17.917 19.2891 17.8574 18.7083C17.7977 18.1274 18.1384 17.4319 18.6181 17.155H18.618Z" fill="#FEBC1F"/>
<path d="M18.8339 19.2584C18.5972 19.3951 18.3709 19.4043 18.1951 19.3089C18.0147 19.211 17.8876 19.0026 17.8574 18.7083C17.7977 18.1275 18.1382 17.4319 18.6181 17.1549C18.8207 17.0378 19.0158 17.0143 19.1779 17.07L19.1784 17.0701C19.3999 17.1462 19.5601 17.3702 19.5945 17.7053C19.6542 18.2861 19.3137 18.9814 18.8339 19.2584Z" fill="#B0B8CF"/>
<path d="M18.7559 19.2242C18.5529 19.3414 18.3575 19.3648 18.1952 19.3089C18.0147 19.211 17.8876 19.0026 17.8574 18.7083C17.7977 18.1275 18.1382 17.4319 18.6181 17.1549C18.8207 17.0378 19.0158 17.0143 19.1779 17.07L19.1784 17.0701C19.3591 17.1683 19.4863 17.3768 19.5165 17.671C19.5762 18.252 19.2355 18.9471 18.7559 19.2242Z" fill="white"/>
<path d="M16.5247 17.5318C16.2366 17.4052 15.8788 17.4342 15.5059 17.6495C14.6915 18.1197 14.1133 19.3004 14.2146 20.2864C14.2695 20.8209 14.5127 21.1885 14.8536 21.3382L15.0728 21.4347C14.732 21.285 14.4888 20.9173 14.4338 20.3828C14.3326 19.3967 14.9108 18.2161 15.7252 17.7459C16.0981 17.5306 16.4559 17.5016 16.7439 17.6281L16.5247 17.5318Z" fill="#FFDE9B"/>
<path d="M15.7252 17.7459C16.5396 17.2757 17.2817 17.694 17.3829 18.6802C17.4842 19.6662 16.9062 20.8466 16.0918 21.3168C15.2774 21.7871 14.5352 21.3689 14.4339 20.3828C14.3327 19.3967 14.9108 18.2161 15.7252 17.7459Z" fill="#FFD06C"/>
<path d="M15.78 18.2797C16.3509 17.9501 16.8712 18.2435 16.9421 18.9347C17.0131 19.6259 16.6078 20.4534 16.037 20.783C15.4661 21.1126 14.9458 20.8194 14.8747 20.1282C14.8039 19.4369 15.2091 18.6093 15.78 18.2797Z" fill="#FEBC1F"/>
<path d="M16.037 20.7829C15.7554 20.9455 15.4859 20.9565 15.2769 20.8431C15.0621 20.7265 14.9108 20.4784 14.8748 20.1282C14.8038 19.437 15.209 18.6093 15.7801 18.2797C16.0213 18.1404 16.2534 18.1124 16.4464 18.1785C16.4465 18.1788 16.4468 18.1788 16.447 18.1788C16.7105 18.2693 16.9012 18.5359 16.9421 18.9346C17.0131 19.6259 16.6078 20.4533 16.037 20.7829Z" fill="#FFDE9B"/>
<path d="M15.9442 20.742C15.7025 20.8816 15.4701 20.9095 15.2769 20.8431C15.0621 20.7265 14.9108 20.4784 14.8748 20.1282C14.8038 19.437 15.209 18.6093 15.7801 18.2797C16.0213 18.1404 16.2534 18.1124 16.4464 18.1785C16.4465 18.1788 16.4468 18.1788 16.447 18.1788C16.6619 18.2955 16.8134 18.5436 16.8492 18.8938C16.9202 19.5852 16.515 20.4124 15.9442 20.742Z" fill="#FEBC1F"/>
<path d="M15.1199 22.1405L14.8088 21.9597L14.8069 20.4597L15.1181 20.6405L15.1199 22.1405Z" fill="#887753"/>
<path d="M15.1181 20.6405L14.8069 20.4597L22.4213 16.0635L22.7324 16.2443L15.1181 20.6405Z" fill="#B0B8CF"/>
<path d="M22.7322 16.2443L22.7342 17.7443L15.1197 22.1405L15.1179 20.6405L22.7322 16.2443Z" fill="#9EA9C9"/>
<path d="M22.7219 16.4049C22.5198 16.3163 22.269 16.3365 22.0075 16.4875C21.4364 16.8171 21.0311 17.645 21.1021 18.3365C21.1405 18.7113 21.311 18.969 21.5501 19.074L21.7038 19.1417C21.4647 19.0366 21.2942 18.7788 21.2558 18.404C21.1848 17.7125 21.5903 16.8848 22.1612 16.555C22.4228 16.404 22.6736 16.3838 22.8756 16.4725L22.7219 16.4049Z" fill="#497BFE"/>
<path d="M22.1613 16.555C22.7324 16.2253 23.2528 16.5188 23.3238 17.2102C23.3948 17.9016 22.9893 18.7293 22.4184 19.059C21.8473 19.3886 21.3267 19.0955 21.2558 18.4041C21.185 17.7127 21.5903 16.8848 22.1613 16.555Z" fill="#57B3FE"/>
<path d="M22.1997 16.9294C22.6 16.6983 22.9648 16.904 23.0145 17.3886C23.0644 17.8733 22.7803 18.4536 22.38 18.6846C21.9797 18.9157 21.6147 18.7102 21.565 18.2255C21.5152 17.7408 21.7994 17.1605 22.1997 16.9294Z" fill="#FEBC1F"/>
<path d="M22.38 18.6846C22.1824 18.7986 21.9935 18.8063 21.8469 18.7269C21.6964 18.645 21.5902 18.4711 21.565 18.2255C21.5152 17.7409 21.7992 17.1605 22.1998 16.9293C22.3688 16.8316 22.5316 16.812 22.667 16.8584L22.6674 16.8586C22.8521 16.9221 22.9859 17.1089 23.0146 17.3887C23.0644 17.8734 22.7801 18.4535 22.38 18.6846Z" fill="#497BFE"/>
<path d="M22.3147 18.656C22.1453 18.7538 21.9824 18.7734 21.8469 18.7268C21.6964 18.645 21.5902 18.4711 21.565 18.2256C21.5152 17.7409 21.7992 17.1606 22.1998 16.9293C22.3688 16.8316 22.5316 16.812 22.667 16.8584L22.6674 16.8586C22.8181 16.9404 22.9243 17.1144 22.9494 17.3599C22.9992 17.8448 22.715 18.425 22.3147 18.656Z" fill="#5094FF"/>
<path d="M20.4503 17.223C20.2082 17.1167 19.9077 17.141 19.5942 17.322C18.9099 17.7171 18.4241 18.7093 18.5092 19.5379C18.5552 19.987 18.7596 20.2958 19.0461 20.4218L19.2303 20.5027C18.9438 20.3768 18.7395 20.068 18.6933 19.6188C18.6083 18.7902 19.0942 17.798 19.7784 17.4029C20.0918 17.222 20.3925 17.1976 20.6346 17.3039L20.4503 17.223Z" fill="#C9CEE2"/>
<path d="M19.7783 17.4029C20.4627 17.0078 21.0864 17.3595 21.1714 18.188C21.2564 19.0165 20.7707 20.0086 20.0864 20.4037C19.4021 20.7988 18.7784 20.4474 18.6932 19.6188C18.6082 18.7902 19.0942 17.798 19.7783 17.4029Z" fill="#F3F1FC"/>
<path d="M19.8245 17.8515C20.3043 17.5746 20.7414 17.821 20.8011 18.4019C20.8607 18.9828 20.5202 19.6781 20.0406 19.9551C19.5608 20.232 19.1235 19.9857 19.0639 19.4048C19.0044 18.824 19.3448 18.1284 19.8245 17.8515Z" fill="#FEBC1F"/>
<path d="M20.0406 19.9549C19.8039 20.0916 19.5775 20.1008 19.4018 20.0055C19.2214 19.9075 19.0942 19.6991 19.0639 19.4048C19.0043 18.824 19.3448 18.1284 19.8247 17.8515C20.0274 17.7344 20.2223 17.7108 20.3845 17.7665L20.3851 17.7666C20.6066 17.8427 20.7667 18.0667 20.8012 18.4018C20.8607 18.9827 20.5202 19.6781 20.0405 19.9549H20.0406Z" fill="#B0B8CF"/>
<path d="M19.9624 19.9208C19.7595 20.0379 19.5642 20.0613 19.4018 20.0055C19.2214 19.9075 19.0942 19.6991 19.0639 19.4048C19.0043 18.824 19.3448 18.1284 19.8247 17.8515C20.0274 17.7344 20.2223 17.7108 20.3845 17.7665L20.3851 17.7666C20.5657 17.8648 20.693 18.0733 20.7232 18.3675C20.7827 18.9485 20.4422 19.6438 19.9624 19.9208Z" fill="white"/>
<path d="M17.7312 18.2284C17.4432 18.1019 17.0854 18.1308 16.7125 18.3461C15.898 18.8162 15.32 19.9969 15.4212 20.9831C15.476 21.5175 15.7192 21.8851 16.0601 22.0348L16.2794 22.1312C15.9385 21.9815 15.6953 21.6139 15.6405 21.0794C15.5391 20.0932 16.1174 18.9126 16.9317 18.4424C17.3046 18.2271 17.6624 18.1981 17.9505 18.3247L17.7312 18.2284Z" fill="#FFDE9B"/>
<path d="M16.9315 18.4424C17.7459 17.9723 18.488 18.3906 18.5893 19.3767C18.6905 20.3629 18.1125 21.5433 17.2981 22.0135C16.4838 22.4836 15.7415 22.0654 15.6402 21.0793C15.539 20.0932 16.1171 18.9126 16.9315 18.4424Z" fill="#FFD06C"/>
<path d="M16.9865 18.9764C17.5573 18.6467 18.0776 18.94 18.1486 19.6312C18.2195 20.3225 17.8144 21.15 17.2435 21.4796C16.6727 21.8092 16.1522 21.5161 16.0813 20.8248C16.0103 20.1336 16.4156 19.3059 16.9865 18.9764Z" fill="#FEBC1F"/>
<path d="M17.2433 21.4795C16.9617 21.6421 16.6923 21.6531 16.4832 21.5396C16.2685 21.4231 16.1172 21.1749 16.081 20.8247C16.0102 20.1335 16.4154 19.3059 16.9865 18.9762C17.2276 18.8369 17.4597 18.8089 17.6527 18.8752L17.6533 18.8753C17.9169 18.9658 18.1076 19.2323 18.1484 19.6312C18.2194 20.3225 17.8141 21.1498 17.2433 21.4795Z" fill="#FFDE9B"/>
<path d="M17.1504 21.4388C16.9088 21.5783 16.6764 21.606 16.4832 21.5396C16.2685 21.4231 16.1172 21.1749 16.081 20.8247C16.0102 20.1335 16.4154 19.3059 16.9865 18.9762C17.2276 18.8369 17.4597 18.8089 17.6527 18.8752L17.6533 18.8753C17.8682 18.992 18.0198 19.2402 18.0556 19.5904C18.1265 20.2817 17.7213 21.1092 17.1504 21.4388Z" fill="#FEBC1F"/>
<path d="M16.3263 22.8371L16.0151 22.6562L16.0132 21.1562L16.3244 21.3371L16.3263 22.8371Z" fill="#887753"/>
<path d="M16.3244 21.3371L16.0132 21.1562L23.6276 16.7602L23.9388 16.9409L16.3244 21.3371Z" fill="#B0B8CF"/>
<path d="M23.9389 16.9409L23.9407 18.4409L16.3264 22.8371L16.3245 21.3371L23.9389 16.9409Z" fill="#9EA9C9"/>
<path d="M23.9282 17.1015C23.7261 17.0128 23.4753 17.0331 23.2138 17.1841C22.6429 17.5138 22.2374 18.3417 22.3084 19.0331C22.3469 19.4078 22.5173 19.6656 22.7564 19.7707L22.9102 19.8382C22.6711 19.7331 22.5006 19.4755 22.4622 19.1006C22.3911 18.4092 22.7966 17.5813 23.3676 17.2516C23.6291 17.1007 23.88 17.0803 24.0819 17.169L23.9282 17.1015Z" fill="#497BFE"/>
<path d="M23.3677 17.2516C23.9386 16.922 24.4591 17.2153 24.5301 17.9067C24.6011 18.5982 24.1957 19.4258 23.6247 19.7555C23.0536 20.0851 22.5332 19.7921 22.4622 19.1006C22.3912 18.4092 22.7967 17.5813 23.3677 17.2516Z" fill="#57B3FE"/>
<path d="M23.4061 17.6259C23.8064 17.3948 24.1712 17.6005 24.2209 18.0852C24.2707 18.5699 23.9866 19.1501 23.5863 19.3812C23.1859 19.6124 22.8211 19.4068 22.7713 18.9221C22.7215 18.4374 23.0058 17.8571 23.4061 17.6259Z" fill="#FEBC1F"/>
<path d="M23.5863 19.3811C23.3888 19.4952 23.1998 19.503 23.0532 19.4234C22.9027 19.3416 22.7965 19.1676 22.7713 18.9221C22.7215 18.4374 23.0057 17.8571 23.4061 17.626C23.5751 17.5281 23.7379 17.5086 23.8734 17.555C23.8734 17.5552 23.8735 17.5552 23.8736 17.5552C24.0585 17.6186 24.1922 17.8055 24.2209 18.0852C24.2707 18.5699 23.9866 19.15 23.5863 19.3811Z" fill="#497BFE"/>
<path d="M23.5212 19.3526C23.3517 19.4504 23.1887 19.4699 23.0532 19.4234C22.9027 19.3416 22.7965 19.1676 22.7713 18.9221C22.7215 18.4374 23.0057 17.8571 23.4061 17.626C23.5751 17.5281 23.7379 17.5086 23.8734 17.555C23.8734 17.5552 23.8736 17.5552 23.8736 17.5552C24.0245 17.6371 24.1306 17.811 24.1559 18.0566C24.2056 18.5413 23.9213 19.1215 23.5212 19.3526Z" fill="#5094FF"/>
<path d="M21.6569 17.9196C21.4149 17.8134 21.1142 17.8376 20.8007 18.0186C20.1165 18.4136 19.6306 19.4058 19.7157 20.2345C19.7619 20.6835 19.9662 20.9925 20.2526 21.1183L20.4369 21.1992C20.1505 21.0734 19.946 20.7645 19.9 20.3153C19.8149 19.4867 20.3007 18.4945 20.985 18.0994C21.2985 17.9185 21.599 17.8941 21.8411 18.0005L21.6569 17.9196Z" fill="#C9CEE2"/>
<path d="M20.9849 18.0996C21.6692 17.7044 22.2928 18.056 22.3779 18.8845C22.463 19.7132 21.9773 20.7051 21.293 21.1003C20.6086 21.4953 19.9848 21.144 19.8998 20.3154C19.8147 19.4867 20.3005 18.4945 20.9849 18.0996Z" fill="#F3F1FC"/>
<path d="M21.0311 18.5482C21.5107 18.2712 21.948 18.5176 22.0076 19.0984C22.0673 19.6793 21.7268 20.3747 21.247 20.6516C20.7674 20.9286 20.3301 20.6823 20.2705 20.1014C20.2108 19.5206 20.5513 18.8251 21.0311 18.5482Z" fill="#FEBC1F"/>
<path d="M21.2468 20.6515C21.0102 20.7883 20.7838 20.7975 20.6081 20.7022C20.4276 20.6041 20.3005 20.3957 20.2702 20.1014C20.2107 19.5206 20.5512 18.8251 21.0309 18.5481C21.2337 18.4309 21.4287 18.4075 21.5909 18.4632L21.5914 18.4633C21.8128 18.5394 21.9729 18.7634 22.0075 19.0985C22.0671 19.6793 21.7265 20.3745 21.2468 20.6515Z" fill="#B0B8CF"/>
<path d="M21.1688 20.6173C20.9657 20.7346 20.7705 20.758 20.6081 20.7021C20.4276 20.6041 20.3005 20.3957 20.2702 20.1014C20.2107 19.5206 20.5512 18.8251 21.0309 18.5481C21.2337 18.4309 21.4287 18.4075 21.5909 18.4632L21.5914 18.4633C21.772 18.5615 21.8993 18.77 21.9295 19.0642C21.989 19.6451 21.6486 20.3403 21.1688 20.6173Z" fill="white"/>
<path d="M18.9375 18.9249C18.6495 18.7984 18.2917 18.8273 17.9188 19.0426C17.1044 19.5129 16.5263 20.6935 16.6275 21.6796C16.6824 22.214 16.9256 22.5816 17.2665 22.7313L17.4857 22.8278C17.1448 22.6781 16.9016 22.3104 16.8468 21.7759C16.7456 20.7898 17.3237 19.6092 18.138 19.139C18.511 18.9237 18.8688 18.8947 19.1568 19.0213L18.9375 18.9249Z" fill="#FFDE9B"/>
<path d="M18.138 19.139C18.9525 18.6688 19.6946 19.0871 19.796 20.0733C19.8971 21.0594 19.319 22.2398 18.5046 22.71C17.6903 23.1802 16.9481 22.762 16.8467 21.776C16.7456 20.7899 17.3237 19.6093 18.138 19.139Z" fill="#FFD06C"/>
<path d="M18.1928 19.6729C18.7637 19.3432 19.2839 19.6367 19.3549 20.3279C19.4259 21.0191 19.0207 21.8466 18.4498 22.1761C17.8789 22.5058 17.3586 22.2126 17.2876 21.5214C17.2166 20.8301 17.622 20.0024 18.1928 19.6729Z" fill="#FEBC1F"/>
<path d="M18.4499 22.176C18.1683 22.3387 17.8988 22.3497 17.6897 22.2363C17.475 22.1196 17.3238 21.8716 17.2876 21.5214C17.2167 20.8302 17.622 20.0024 18.193 19.6729C18.4343 19.5335 18.6662 19.5055 18.8592 19.5717C18.8595 19.5719 18.8597 19.5719 18.8598 19.5719C19.1234 19.6625 19.3141 19.929 19.355 20.3277C19.426 21.0191 19.0208 21.8465 18.4499 22.176Z" fill="#FFDE9B"/>
<path d="M18.3571 22.1353C18.1154 22.2748 17.883 22.3027 17.6897 22.2363C17.475 22.1196 17.3238 21.8716 17.2876 21.5214C17.2167 20.8302 17.622 20.0024 18.193 19.6729C18.4343 19.5335 18.6662 19.5055 18.8592 19.5717C18.8595 19.5719 18.8598 19.5719 18.8598 19.5719C19.0748 19.6887 19.2263 19.9367 19.2622 20.2869C19.3331 20.9784 18.9278 21.8057 18.357 22.1353H18.3571Z" fill="#FEBC1F"/>
<path d="M17.533 23.5336L17.2219 23.3529L17.22 21.8528L17.531 22.0336L17.533 23.5336Z" fill="#887753"/>
<path d="M17.531 22.0336L17.22 21.8529L24.8343 17.4567L25.1455 17.6374L17.531 22.0336Z" fill="#B0B8CF"/>
<path d="M25.1454 17.6374L25.1474 19.1374L17.5329 23.5336L17.531 22.0336L25.1454 17.6374Z" fill="#9EA9C9"/>
<path d="M25.1347 17.798C24.9328 17.7094 24.6819 17.7297 24.4204 17.8806C23.8493 18.2103 23.444 19.0382 23.5149 19.7296C23.5535 20.1045 23.7239 20.3621 23.9629 20.4672L24.1167 20.5348C23.8776 20.4298 23.7071 20.172 23.6687 19.7971C23.5977 19.1057 24.0031 18.2779 24.5741 17.9481C24.8356 17.7972 25.0865 17.7769 25.2885 17.8657L25.1347 17.798Z" fill="#497BFE"/>
<path d="M24.5741 17.9481C25.1452 17.6185 25.6655 17.9119 25.7365 18.6034C25.8075 19.2948 25.4023 20.1225 24.8312 20.4521C24.2602 20.7818 23.7396 20.4887 23.6687 19.7973C23.5977 19.1057 24.0031 18.2779 24.5741 17.9481Z" fill="#57B3FE"/>
<path d="M24.6125 18.3226C25.0128 18.0915 25.3776 18.2971 25.4274 18.7817C25.4771 19.2664 25.1931 19.8468 24.7927 20.0778C24.3924 20.3089 24.0276 20.1034 23.9778 19.6187C23.9281 19.134 24.2122 18.5536 24.6125 18.3226Z" fill="#FEBC1F"/>
<path d="M24.7928 20.0778C24.5954 20.1918 24.4064 20.1995 24.2598 20.12C24.1092 20.0382 24.0032 19.8643 23.9778 19.6187C23.9281 19.1341 24.2123 18.5536 24.6127 18.3225C24.7818 18.2248 24.9446 18.2051 25.0798 18.2516L25.0803 18.2517C25.2651 18.3152 25.3989 18.5021 25.4275 18.7818C25.4772 19.2666 25.1932 19.8467 24.7928 20.0778Z" fill="#497BFE"/>
<path d="M24.7277 20.0492C24.5583 20.147 24.3953 20.1665 24.2598 20.1199C24.1092 20.0382 24.0032 19.8643 23.9778 19.6188C23.9281 19.1341 24.2123 18.5537 24.6127 18.3225C24.7818 18.2248 24.9446 18.2051 25.0798 18.2516L25.0803 18.2517C25.231 18.3336 25.3373 18.5076 25.3624 18.7531C25.4121 19.2379 25.128 19.8182 24.7277 20.0492Z" fill="#5094FF"/>
<path d="M22.8631 18.6162C22.6211 18.5099 22.3205 18.5342 22.0071 18.7152C21.3228 19.1103 20.837 20.1024 20.922 20.931C20.9681 21.3801 21.1725 21.689 21.459 21.815L21.6432 21.8959C21.3567 21.7699 21.1524 21.4611 21.1063 21.0119C21.0211 20.1833 21.5071 19.1912 22.1914 18.7961C22.5047 18.6152 22.8054 18.5908 23.0475 18.6971L22.8631 18.6162Z" fill="#C9CEE2"/>
<path d="M22.1915 18.7961C22.8758 18.401 23.4995 18.7526 23.5845 19.5811C23.6696 20.4098 23.1838 21.4017 22.4995 21.7968C21.8152 22.1919 21.1914 21.8405 21.1064 21.0119C21.0212 20.1833 21.5071 19.1912 22.1915 18.7961Z" fill="#F3F1FC"/>
<path d="M22.2374 19.2447C22.7171 18.9678 23.1543 19.2141 23.2139 19.7951C23.2736 20.3759 22.9331 21.0712 22.4533 21.3482C21.9737 21.6251 21.5364 21.3789 21.4767 20.7979C21.4171 20.2171 21.7576 19.5216 22.2374 19.2447Z" fill="#FEBC1F"/>
<path d="M22.4533 21.3482C22.2166 21.4848 21.9903 21.494 21.8145 21.3987C21.6341 21.3006 21.5069 21.0922 21.4768 20.7979C21.4171 20.2171 21.7576 19.5216 22.2375 19.2447C22.4401 19.1275 22.6352 19.104 22.7973 19.1597L22.7978 19.1598C23.0193 19.2359 23.1795 19.4599 23.2139 19.795C23.2736 20.3759 22.9331 21.0713 22.4533 21.3482Z" fill="#B0B8CF"/>
<path d="M22.3753 21.3139C22.1723 21.4311 21.9769 21.4545 21.8146 21.3987C21.6341 21.3006 21.5069 21.0922 21.4768 20.7979C21.4171 20.2171 21.7576 19.5216 22.2375 19.2447C22.4401 19.1275 22.6352 19.104 22.7973 19.1597L22.7978 19.1598C22.9785 19.258 23.1057 19.4665 23.1359 19.7607C23.1956 20.3416 22.8549 21.0369 22.3753 21.3139Z" fill="white"/>
<path d="M20.1441 19.6214C19.8559 19.495 19.4982 19.524 19.1253 19.7393C18.3109 20.2094 17.7327 21.39 17.834 22.3762C17.8889 22.9107 18.1321 23.2783 18.4729 23.428L18.6922 23.5244C18.3513 23.3746 18.1081 23.007 18.0532 22.4726C17.952 21.4864 18.5302 20.3058 19.3446 19.8355C19.7174 19.6202 20.0752 19.5913 20.3632 19.7178L20.1441 19.6214Z" fill="#FFDE9B"/>
<path d="M19.3446 19.8355C20.159 19.3654 20.9011 19.7837 21.0023 20.7698C21.1036 21.756 20.5256 22.9364 19.7112 23.4066C18.8968 23.8767 18.1546 23.4585 18.0532 22.4724C17.9521 21.4864 18.5302 20.3057 19.3446 19.8355Z" fill="#FFD06C"/>
<path d="M19.3994 20.3695C19.9702 20.0398 20.4906 20.3332 20.5615 21.0244C20.6325 21.7157 20.2272 22.5431 19.6564 22.8727C19.0855 23.2023 18.5651 22.9092 18.4941 22.2179C18.4232 21.5267 18.8285 20.699 19.3994 20.3695Z" fill="#FEBC1F"/>
<path d="M19.6564 22.8726C19.3748 23.0353 19.1053 23.0463 18.8963 22.9328C18.6814 22.8162 18.5301 22.5681 18.4942 22.2179C18.4232 21.5267 18.8284 20.699 19.3995 20.3694C19.6407 20.23 19.8728 20.202 20.0658 20.2683L20.0664 20.2684C20.3299 20.359 20.5205 20.6255 20.5615 21.0244C20.6325 21.7157 20.2272 22.543 19.6564 22.8726Z" fill="#FFDE9B"/>
<path d="M19.5634 22.8318C19.3219 22.9714 19.0895 22.9992 18.8963 22.9328C18.6814 22.8162 18.5301 22.5681 18.4942 22.2179C18.4232 21.5267 18.8284 20.699 19.3995 20.3694C19.6407 20.23 19.8728 20.202 20.0658 20.2683L20.0664 20.2684C20.2813 20.3852 20.4328 20.6334 20.4686 20.9835C20.5396 21.6749 20.1344 22.5023 19.5636 22.8318H19.5634Z" fill="#FEBC1F"/>
<path d="M18.7393 24.2303L18.4282 24.0494L18.4263 22.5494L18.7375 22.7303L18.7393 24.2303Z" fill="#887753"/>
<path d="M18.7375 22.7303L18.4263 22.5494L26.0407 18.1533L26.3518 18.3341L18.7375 22.7303Z" fill="#B0B8CF"/>
<path d="M26.3519 18.3341L26.3538 19.8341L18.7394 24.2303L18.7375 22.7303L26.3519 18.3341Z" fill="#9EA9C9"/>
<path d="M26.3413 18.4947C26.1392 18.4059 25.8884 18.4262 25.6269 18.5773C25.0558 18.9069 24.6504 19.7348 24.7214 20.4263C24.7598 20.801 24.9304 21.0588 25.1694 21.1638L25.3232 21.2313C25.0841 21.1263 24.9137 20.8686 24.8752 20.4938C24.8042 19.8023 25.2097 18.9744 25.7806 18.6448C26.0421 18.4938 26.293 18.4734 26.495 18.5622L26.3413 18.4947Z" fill="#497BFE"/>
<path d="M25.7807 18.6448C26.3518 18.3151 26.8722 18.6084 26.9432 19.2999C27.0142 19.9913 26.6087 20.8189 26.0378 21.1486C25.4668 21.4783 24.9461 21.1852 24.8753 20.4938C24.8043 19.8023 25.2097 18.9744 25.7807 18.6448Z" fill="#57B3FE"/>
<path d="M25.8191 19.0191C26.2194 18.788 26.5842 18.9936 26.6339 19.4783C26.6837 19.963 26.3996 20.5433 25.9993 20.7744C25.599 21.0055 25.2341 20.8 25.1844 20.3153C25.1346 19.8306 25.4187 19.2502 25.8191 19.0191Z" fill="#FEBC1F"/>
<path d="M25.9993 20.7743C25.8018 20.8884 25.6129 20.8961 25.4663 20.8165C25.3157 20.7348 25.2096 20.5608 25.1844 20.3153C25.1346 19.8306 25.4187 19.2502 25.8192 19.0191C25.9882 18.9213 26.151 18.9017 26.2864 18.9481C26.2864 18.9484 26.2867 18.9484 26.2867 18.9484C26.4715 19.0117 26.6053 19.1987 26.634 19.4783C26.6838 19.9631 26.3995 20.5432 25.9993 20.7743Z" fill="#497BFE"/>
<path d="M25.9341 20.7457C25.7647 20.8435 25.6018 20.863 25.4663 20.8165C25.3157 20.7348 25.2096 20.5608 25.1844 20.3153C25.1346 19.8306 25.4187 19.2502 25.8192 19.0191C25.9882 18.9213 26.151 18.9017 26.2864 18.9481C26.2864 18.9484 26.2866 18.9484 26.2867 18.9484C26.4374 19.0302 26.5437 19.2041 26.5688 19.4497C26.6186 19.9344 26.3344 20.5145 25.9341 20.7457Z" fill="#5094FF"/>
<path d="M24.0697 19.3128C23.8276 19.2065 23.527 19.2308 23.2136 19.4118C22.5292 19.8068 22.0434 20.7989 22.1286 21.6277C22.1746 22.0766 22.379 22.3856 22.6655 22.5115L22.8497 22.5924C22.5632 22.4665 22.3589 22.1576 22.3127 21.7084C22.2277 20.8798 22.7136 19.8877 23.3978 19.4926C23.7112 19.3117 24.0119 19.2873 24.254 19.3937L24.0697 19.3128Z" fill="#C9CEE2"/>
<path d="M23.398 19.4926C24.0823 19.0976 24.706 19.4491 24.791 20.2777C24.8761 21.1063 24.3903 22.0982 23.706 22.4933C23.0217 22.8884 22.398 22.5372 22.3129 21.7084C22.2279 20.8798 22.7138 19.8877 23.398 19.4926Z" fill="#F3F1FC"/>
<path d="M23.4439 19.9413C23.9237 19.6643 24.3609 19.9107 24.4205 20.4916C24.48 21.0724 24.1396 21.7678 23.66 22.0447C23.1802 22.3217 22.7429 22.0754 22.6833 21.4946C22.6236 20.9137 22.9642 20.2182 23.4439 19.9413Z" fill="#FEBC1F"/>
<path d="M23.66 22.0447C23.4233 22.1814 23.1969 22.1906 23.0212 22.0952C22.8408 21.9973 22.7136 21.7889 22.6833 21.4946C22.6236 20.9137 22.9642 20.2182 23.444 19.9412C23.6468 19.8241 23.8417 19.8006 24.0039 19.8563H24.0045C24.2259 19.9325 24.3861 20.1565 24.4206 20.4915C24.4801 21.0725 24.1396 21.7677 23.6598 22.0447H23.66Z" fill="#B0B8CF"/>
<path d="M23.5818 22.0104C23.3788 22.1277 23.1836 22.1511 23.0212 22.0952C22.8408 21.9973 22.7136 21.7889 22.6833 21.4946C22.6236 20.9137 22.9642 20.2182 23.4441 19.9412C23.6468 19.8241 23.8417 19.8006 24.0039 19.8563H24.0045C24.1851 19.9546 24.3124 20.163 24.3426 20.4573C24.4021 21.0382 24.0616 21.7334 23.5818 22.0104Z" fill="white"/>
<path d="M21.3506 20.3181C21.0626 20.1915 20.7048 20.2205 20.3319 20.4358C19.5174 20.906 18.9394 22.0866 19.0405 23.0727C19.0954 23.6072 19.3386 23.9748 19.6795 24.1246L19.8988 24.221C19.5579 24.0712 19.3147 23.7035 19.2598 23.1691C19.1585 22.183 19.7368 21.0024 20.5511 20.5322C20.924 20.3169 21.2818 20.2879 21.5699 20.4144L21.3506 20.3181Z" fill="#FFDE9B"/>
<path d="M20.5513 20.5322C21.3655 20.0619 22.1078 20.4802 22.209 21.4664C22.3102 22.4526 21.7321 23.6329 20.9177 24.1031C20.1034 24.5733 19.3611 24.1552 19.2598 23.1691C19.1586 22.183 19.7368 21.0024 20.5511 20.5322H20.5513Z" fill="#FFD06C"/>
<path d="M20.6059 21.066C21.1767 20.7364 21.697 21.0298 21.768 21.721C21.8389 22.4122 21.4338 23.2397 20.8628 23.5693C20.292 23.8989 19.7716 23.6058 19.7007 22.9146C19.6297 22.2232 20.0349 21.3956 20.6059 21.066Z" fill="#FEBC1F"/>
<path d="M20.8629 23.5691C20.5813 23.7318 20.3119 23.7428 20.1028 23.6294C19.8881 23.5127 19.7368 23.2647 19.7007 22.9145C19.6298 22.2233 20.035 21.3956 20.6061 21.066C20.8472 20.9267 21.0793 20.8986 21.2723 20.9648C21.2725 20.9651 21.2727 20.9651 21.2729 20.9651C21.5365 21.0556 21.7272 21.3221 21.768 21.7209C21.839 22.4122 21.4337 23.2396 20.8629 23.5691Z" fill="#FFDE9B"/>
<path d="M20.7701 23.5284C20.5284 23.6679 20.296 23.6958 20.1028 23.6294C19.8881 23.5127 19.7368 23.2647 19.7007 22.9145C19.6298 22.2233 20.035 21.3956 20.6061 21.066C20.8472 20.9267 21.0793 20.8986 21.2723 20.9648C21.2725 20.9651 21.2727 20.9651 21.2729 20.9651C21.4878 21.0818 21.6394 21.3299 21.6753 21.6801C21.7461 22.3715 21.3409 23.1988 20.7701 23.5284Z" fill="#FEBC1F"/>
<path d="M19.7683 23.4463L19.7643 25.5435L11.509 20.7773L11.513 18.68L19.7683 23.4463Z" fill="#1D2943"/>
<path d="M11.9821 19.7197L12.0814 20.4719C12.0966 20.5865 12.1759 20.7103 12.2697 20.7641L13.7368 21.6112C13.83 21.6651 13.9102 21.6336 13.926 21.5371L13.9321 21.4986L14.0294 20.9018C14.0493 20.7789 13.9599 20.605 13.8416 20.5364L12.2362 19.6098L12.1714 19.5724C12.053 19.5042 11.9627 19.5741 11.9821 19.7197ZM14.6146 21.2398L14.7143 21.9921C14.7292 22.1066 14.809 22.2303 14.9021 22.2841L16.3699 23.1313C16.463 23.1852 16.5428 23.1536 16.559 23.0572L16.565 23.0186L16.6625 22.4219C16.6824 22.2989 16.5929 22.125 16.4741 22.0565L14.8688 21.1294L14.8043 21.0924C14.6856 21.0242 14.5955 21.0943 14.6146 21.2398ZM17.2476 22.7599L17.3469 23.5122C17.3622 23.6266 17.4419 23.7504 17.5352 23.8041L19.0023 24.6514C19.096 24.7052 19.1757 24.6737 19.1916 24.5772L19.1981 24.5387L19.2949 23.9419C19.3148 23.819 19.2254 23.6451 19.1071 23.5765L17.5017 22.65L17.4369 22.6125C17.3185 22.5443 17.2282 22.6143 17.2476 22.7599Z" fill="#4C5C75"/>
<path d="M12.2361 19.6098C12.2361 19.6201 12.237 19.6307 12.2385 19.6423L12.3376 20.3945C12.353 20.509 12.4328 20.6329 12.526 20.6867L13.932 21.4986L14.0293 20.9018C14.0492 20.7789 13.9597 20.605 13.8415 20.5364L12.2361 19.6098ZM14.8685 21.1294C14.8685 21.1402 14.8696 21.1511 14.871 21.1624L14.9707 21.9146C14.986 22.029 15.0652 22.1529 15.159 22.2068L16.5649 23.0186L16.6623 22.4218C16.6823 22.2989 16.5928 22.125 16.474 22.0564L14.8687 21.1294H14.8685ZM17.5016 22.65C17.5016 22.6602 17.5026 22.6713 17.504 22.6826L17.6036 23.4346C17.6185 23.5491 17.6983 23.673 17.7915 23.7268L19.198 24.5387L19.2948 23.9419C19.3147 23.819 19.2252 23.6451 19.107 23.5765L17.5016 22.65Z" fill="#C9CEE2"/>
<path d="M19.782 23.1815L19.7683 23.4463L11.5127 18.68H11.9698L19.782 23.1815Z" fill="#4C5C75"/>
<path d="M28.1517 18.5744L28.1477 20.6716L19.7644 25.5435L19.7684 23.4463L28.1517 18.5744Z" fill="#111D33"/>
<path d="M27.6145 19.667L27.5153 20.419C27.4999 20.5336 27.4207 20.6574 27.3269 20.7113L25.8597 21.5585C25.7666 21.6122 25.6863 21.5807 25.6706 21.4842L25.6646 21.4458L25.5671 20.8489C25.5472 20.7261 25.6367 20.5522 25.755 20.4835L27.3603 19.5571L27.4253 19.5194C27.5436 19.4513 27.634 19.5213 27.6145 19.667ZM24.9821 21.187L24.8823 21.9391C24.8675 22.0537 24.7877 22.1775 24.6944 22.2313L23.2268 23.0785C23.1336 23.1323 23.0539 23.1007 23.0376 23.0043L23.0315 22.9659L22.9342 22.369C22.9143 22.2462 23.0037 22.0723 23.1226 22.0036L24.7279 21.0767L24.7924 21.0396C24.9111 20.9714 25.001 21.0414 24.9819 21.1869L24.9821 21.187ZM22.349 22.7071L22.2498 23.4591C22.2344 23.5737 22.1547 23.6975 22.0614 23.7514L20.5942 24.5986C20.5006 24.6523 20.4208 24.6208 20.4051 24.5243L20.3986 24.4859L20.3016 23.889C20.2817 23.7662 20.3712 23.5923 20.4895 23.5236L22.0948 22.5972L22.1598 22.5596C22.2781 22.4914 22.3685 22.5616 22.349 22.7071Z" fill="#4C5C75"/>
<path d="M27.3603 19.5571C27.3603 19.5672 27.3595 19.5778 27.358 19.5894L27.2588 20.3417C27.2436 20.4562 27.1637 20.58 27.0705 20.6337L25.6646 21.4458L25.5671 20.8489C25.5472 20.7261 25.6367 20.5522 25.755 20.4835L27.3603 19.5571ZM24.7279 21.0766C24.7279 21.0873 24.7269 21.0984 24.7255 21.1095L24.6258 21.8618C24.6105 21.9763 24.5313 22.1 24.4375 22.1538L23.0315 22.9659L22.9342 22.369C22.9143 22.2462 23.0037 22.0723 23.1226 22.0036L24.7279 21.0766ZM22.0948 22.5972C22.0948 22.6073 22.094 22.6184 22.0925 22.6296L21.9928 23.3819C21.9781 23.4963 21.8982 23.6201 21.805 23.6738L20.3986 24.4859L20.3016 23.889C20.2817 23.7662 20.3712 23.5923 20.4895 23.5236L22.0948 22.5972Z" fill="#C9CEE2"/>
<path d="M19.9791 9.10455C19.9712 9.0908 19.9606 9.07875 19.948 9.06909C19.9354 9.05943 19.9211 9.05234 19.9058 9.04824C19.8904 9.04413 19.8745 9.04309 19.8587 9.04517C19.843 9.04725 19.8279 9.05241 19.8141 9.06035L18.7645 9.6663C18.5001 9.81905 18.2936 10.1768 18.2944 10.4811L18.3005 11.6368C18.3006 11.7254 18.2304 11.8468 18.1534 11.8912L11.3178 15.8092C11.31 15.8139 11.3015 15.8176 11.2927 15.8201C11.2907 15.8116 11.2897 15.8029 11.2898 15.7941L11.284 14.6385C11.2834 14.4706 11.2174 14.3366 11.1026 14.2706C11.0506 14.2414 10.9917 14.2268 10.9321 14.2283V14.47C10.9494 14.4689 10.9667 14.4723 10.9822 14.4799C11.0203 14.5018 11.0423 14.5599 11.0425 14.6395L11.0483 15.7951C11.0485 15.9017 11.093 15.9883 11.17 16.033C11.2048 16.0529 11.2437 16.0628 11.2846 16.0628C11.3345 16.0628 11.387 16.0479 11.4381 16.0185L18.2738 12.1007C18.4271 12.0122 18.5423 11.8126 18.5419 11.6358L18.5359 10.4804C18.5353 10.2622 18.6953 9.98533 18.8853 9.87569L19.9349 9.26962C19.9626 9.2536 19.9828 9.22723 19.9911 9.1963C19.9994 9.16536 19.9951 9.13228 19.9791 9.10455Z" fill="#111D33"/>
<path d="M20.6926 9.51909C20.6847 9.50533 20.6741 9.49327 20.6615 9.48359C20.6489 9.47392 20.6345 9.46683 20.6192 9.46272C20.6039 9.45862 20.5879 9.45758 20.5721 9.45967C20.5564 9.46175 20.5412 9.46693 20.5275 9.47489L19.4779 10.0808C19.2134 10.2336 19.007 10.5914 19.0079 10.8957L19.0137 12.0513C19.014 12.1399 18.9438 12.2613 18.8669 12.3057L12.0312 16.2235C12.0233 16.2282 12.0149 16.2319 12.0061 16.2345C12.0041 16.226 12.0031 16.2172 12.0033 16.2084L11.9973 15.0529C11.9968 14.8851 11.9308 14.751 11.816 14.685C11.7007 14.6186 11.5502 14.6294 11.4029 14.7141L10.9731 14.9622C10.9975 15.0417 11.021 15.1214 11.041 15.2019L11.5237 14.9233C11.5943 14.8825 11.6571 14.8723 11.6956 14.8944C11.7337 14.9162 11.7556 14.9743 11.7559 15.0538L11.7618 16.2094C11.762 16.3161 11.8065 16.4028 11.8835 16.4473C11.9183 16.4673 11.9572 16.4772 11.998 16.4772C12.0479 16.4772 12.1004 16.4624 12.1515 16.4329L18.9873 12.515C19.1406 12.4266 19.2557 12.227 19.2553 12.0503L19.2493 10.8947C19.2488 10.6766 19.4087 10.3996 19.5987 10.2901L20.6483 9.68404C20.662 9.67612 20.674 9.66557 20.6837 9.653C20.6934 9.64042 20.7005 9.62606 20.7046 9.61074C20.7087 9.59543 20.7098 9.57945 20.7077 9.56372C20.7056 9.54799 20.7005 9.53283 20.6926 9.51909Z" fill="#1D2943"/>
<path d="M12.7114 16.8918C12.6706 16.8918 12.6317 16.8819 12.5969 16.8618C12.5198 16.8174 12.4754 16.7307 12.4752 16.6239L12.4693 15.4683C12.469 15.3889 12.447 15.3308 12.409 15.3089C12.3704 15.2868 12.3077 15.2971 12.237 15.3379L11.1874 15.9438C11.1737 15.9519 11.1585 15.9572 11.1427 15.9593C11.127 15.9615 11.1109 15.9605 11.0955 15.9564C11.0801 15.9523 11.0657 15.9453 11.053 15.9356C11.0404 15.9259 11.0298 15.9138 11.0218 15.9001C11.0138 15.8863 11.0087 15.871 11.0066 15.8552C11.0046 15.8394 11.0057 15.8234 11.0098 15.808C11.014 15.7927 11.0212 15.7783 11.0309 15.7657C11.0407 15.7531 11.0528 15.7426 11.0667 15.7347L12.1163 15.1286C12.2636 15.0439 12.4141 15.0332 12.5294 15.0995C12.6441 15.1656 12.7102 15.2996 12.7108 15.4675L12.7167 16.6231C12.7167 16.6349 12.7181 16.6436 12.7195 16.6491C12.7283 16.6465 12.7367 16.6429 12.7446 16.6382L19.5803 12.7203C19.6572 12.6759 19.7275 12.5545 19.7272 12.4657L19.7212 11.3102C19.7205 11.0059 19.9269 10.6481 20.1913 10.4954L21.241 9.88945C21.2547 9.88139 21.2699 9.87613 21.2857 9.87398C21.3015 9.87182 21.3175 9.8728 21.3329 9.87688C21.3483 9.88095 21.3628 9.88802 21.3754 9.8977C21.3881 9.90737 21.3987 9.91945 21.4066 9.93324C21.4146 9.94703 21.4198 9.96226 21.4218 9.97805C21.4239 9.99385 21.4228 10.0099 21.4186 10.0253C21.4144 10.0406 21.4073 10.055 21.3975 10.0676C21.3877 10.0802 21.3756 10.0907 21.3618 10.0986L20.312 10.7047C20.1221 10.8143 19.9622 11.0911 19.9628 11.3093L19.9687 12.4649C19.9691 12.6416 19.854 12.8412 19.7006 12.9296L12.8648 16.8475C12.8139 16.8769 12.7612 16.8918 12.7114 16.8918Z" fill="#4C5C75"/>
<path d="M11.4612 13.765L11.4722 18.3521H10.9558L10.8694 13.765H11.4612Z" fill="#C9CEE2"/>
</svg>
