<svg width="32" height="32" viewBox="0 0 32 32" fill="none" xmlns="http://www.w3.org/2000/svg">
<path d="M11.9466 30.8127L11.9454 31.1086C11.9454 31.1979 11.8874 31.2861 11.7703 31.3549C11.536 31.4902 11.1544 31.4902 10.9178 31.3537C10.7982 31.2861 10.739 31.1955 10.7403 31.105V30.8103C10.7403 30.721 10.7982 30.6316 10.9153 30.564C11.1508 30.4275 11.5324 30.4275 11.7691 30.564C11.8874 30.6328 11.9466 30.7234 11.9466 30.8127Z" fill="#1D2943"/>
<path d="M11.9472 30.8127L11.9465 31.1089C11.9462 31.1978 11.8878 31.2866 11.771 31.3544C11.5365 31.4907 11.1545 31.4907 10.918 31.3542C10.7993 31.2856 10.7399 31.1955 10.7402 31.1054L10.741 30.8094C10.7407 30.8993 10.8001 30.9894 10.9188 31.058C11.1553 31.1944 11.5372 31.1944 11.7718 31.0582C11.8885 30.9904 11.9469 30.9016 11.9472 30.8127Z" fill="#1D2943"/>
<path d="M11.7683 30.5639C12.0048 30.7004 12.006 30.9217 11.7711 31.0582C11.5365 31.1946 11.1545 31.1946 10.9181 31.058C10.682 30.9217 10.6808 30.7006 10.9153 30.5641C11.1503 30.4276 11.5323 30.4276 11.7683 30.5639Z" fill="#4C5C75"/>
<path d="M11.6818 29.774L11.6817 30.7914C11.6817 30.8412 11.6491 30.8911 11.5836 30.9294C11.452 31.0063 11.2373 31.0069 11.1043 30.9306C11.0374 30.8922 11.0039 30.8416 11.0039 30.7911L11.004 29.7738C11.004 29.8244 11.0375 29.8748 11.1045 29.9132C11.2374 29.9896 11.4521 29.9891 11.5839 29.912C11.6492 29.8738 11.6818 29.8239 11.6818 29.774Z" fill="#C9CEE2"/>
<path d="M21.9784 24.986L21.9777 25.2822C21.9775 25.371 21.919 25.4598 21.8022 25.5277C21.5677 25.6639 21.1858 25.6639 20.9492 25.5274C20.8305 25.4588 20.7711 25.3687 20.7715 25.2787L20.7722 24.9826C20.772 25.0725 20.8314 25.1626 20.9501 25.2312C21.1865 25.3677 21.5686 25.3677 21.8031 25.2315C21.9197 25.1636 21.9782 25.0748 21.9784 24.986Z" fill="#1D2943"/>
<path d="M21.8006 24.7371C22.037 24.8737 22.0382 25.0949 21.8033 25.2314C21.5688 25.3678 21.1868 25.3678 20.9503 25.2312C20.7142 25.0949 20.713 24.8738 20.9475 24.7373C21.1825 24.6009 21.5645 24.6009 21.8006 24.7371Z" fill="#4C5C75"/>
<path d="M21.7131 23.9472V24.9646C21.713 25.0145 21.6803 25.0643 21.6149 25.1025C21.4833 25.1795 21.2686 25.1801 21.1355 25.1038C21.0686 25.0654 21.0352 25.0148 21.0352 24.9643L21.0353 23.947C21.0353 23.9975 21.0687 24.0481 21.1357 24.0865C21.2687 24.1628 21.4834 24.1622 21.6151 24.0853C21.6805 24.047 21.7131 23.9971 21.7131 23.9472Z" fill="#C9CEE2"/>
<path d="M4.03958 26.2132L4.03837 26.509C4.03837 26.5972 3.98041 26.6865 3.86328 26.7542C3.62901 26.8906 3.24743 26.8906 3.01075 26.7542C2.8912 26.6853 2.83203 26.596 2.83203 26.5054L2.83324 26.2108C2.83324 26.1214 2.8912 26.0321 3.00833 25.9644C3.2438 25.828 3.62539 25.828 3.86086 25.9644C3.98041 26.0333 4.03958 26.1226 4.03958 26.2132Z" fill="#1D2943"/>
<path d="M4.03995 26.2127L4.03923 26.5089C4.03899 26.5978 3.98054 26.6864 3.86377 26.7544C3.62927 26.8906 3.24732 26.8906 3.01088 26.7542C2.89206 26.6856 2.83277 26.5954 2.83301 26.5054L2.83373 26.2093C2.83349 26.2993 2.8929 26.3892 3.0116 26.458C3.24816 26.5944 3.63011 26.5944 3.86462 26.4582C3.98127 26.3903 4.03971 26.3016 4.03995 26.2127Z" fill="#1D2943"/>
<path d="M3.8611 25.9638C4.09754 26.1003 4.09887 26.3216 3.86388 26.4582C3.62937 26.5944 3.24743 26.5944 3.01087 26.458C2.77479 26.3216 2.77358 26.1004 3.00809 25.9641C3.24308 25.8276 3.62503 25.8276 3.8611 25.9638Z" fill="#4C5C75"/>
<path d="M3.77472 25.174L3.77448 26.1913C3.77448 26.2412 3.74187 26.2911 3.67654 26.3292C3.5448 26.4063 3.3301 26.4069 3.19715 26.3304C3.13013 26.2922 3.09668 26.2416 3.09668 26.191L3.0968 25.1737C3.0968 25.2242 3.13037 25.2748 3.19727 25.3132C3.33022 25.3895 3.54492 25.3889 3.67666 25.312C3.74199 25.2737 3.77472 25.2238 3.77472 25.174Z" fill="#C9CEE2"/>
<path d="M22.0224 17.3943L11.3436 23.5598L2.83301 18.614L2.84919 25.8795L11.3599 30.8254L22.0386 24.66L22.0224 17.3943Z" fill="#8792AD"/>
<path d="M11.3599 30.8254L2.84919 25.8796L2.83301 18.614L11.3436 23.5599L11.3599 30.8254Z" fill="#9EA9C9"/>
<path d="M10.5718 29.6673L3.63325 25.6348L3.63301 25.6001L3.62093 20.1871L10.5595 24.2194L10.5597 24.2542L10.5718 29.6673ZM11.3465 24.2991L2.83591 19.3534L2.83301 18.614L11.3436 23.5599L11.3465 24.2991Z" fill="#8792AD"/>
<path d="M22.0216 17.3943L22.0378 24.66L11.3591 30.8254L11.3428 23.5598L22.0216 17.3943Z" fill="#B0B8CF"/>
<path d="M12.1411 29.4678L12.1289 24.0125L12.1591 23.9949L21.2401 18.752L21.2522 24.2075L21.222 24.2249L12.1411 29.4678ZM12.2498 24.082L12.2614 29.2588L21.1312 24.1379L21.1198 18.961L12.2498 24.082Z" fill="#8792AD"/>
<path d="M11.3436 23.5599L2.83301 18.614L13.5118 12.4486L22.0224 17.3944L11.3436 23.5599Z" fill="#8891AD"/>
<path d="M10.9296 13.3092L2.41895 8.36346L13.8699 1.75226L22.3805 6.69801L10.9296 13.3092Z" fill="#E3E7F0"/>
<path d="M22.3805 6.69803L10.9296 13.3092L2.41895 8.36348L2.44539 18.4587L10.9559 23.4046L11.3432 23.5599L22.022 17.3944L22.4069 16.7934L22.3805 6.69803Z" fill="#B0B8CF"/>
<path d="M10.9559 23.4046L2.44539 18.4587L2.41895 8.36346L10.9296 13.3092L10.9559 23.4046Z" fill="#B0B8CF"/>
<path d="M3.1637 18.0488L3.1416 9.61075L10.2113 13.7192L10.2333 22.1572L3.1637 18.0488Z" fill="#E3E7F0"/>
<path d="M22.3806 6.69803L22.4069 16.7934L22.0221 17.3944L11.3433 23.5599L10.956 23.4046L10.9297 13.3092L22.3806 6.69803Z" fill="#C9CEE2"/>
<path d="M21.875 16.4928L11.4857 22.4914L11.4756 19.5902L19.3727 15.0378H19.3732L21.875 16.4928Z" fill="#E3E7F0"/>
<path d="M21.851 7.76645L19.3594 9.21261L19.373 15.0381L21.8752 16.4928L21.851 7.76645Z" fill="#9EA9C9"/>
<path d="M19.3589 9.21262L11.4609 13.7649L11.4749 19.5902L19.3725 15.0378L19.3589 9.21262Z" fill="#B0B8CF"/>
<path d="M14.1584 0.543396L2.25694 7.45081L2.25488 8.94768L10.7321 13.8448L22.6336 6.93748L22.6356 5.4406L14.1584 0.543396Z" fill="#1D2943"/>
<path d="M22.6359 5.44061L22.6339 6.93749L10.7324 13.8448L10.7345 12.3479L22.6359 5.44061Z" fill="#111D33"/>
<path d="M10.9097 12.4492L22.4589 5.74658L22.4574 6.83615L10.9082 13.5388L10.9097 12.4492Z" fill="#8FABFE"/>
<path d="M10.734 12.3479L10.732 13.8448L2.25488 8.94768L2.25681 7.45081L10.734 12.3479Z" fill="#1D2943"/>
<path d="M22.6355 5.4406L10.7341 12.3479L2.25684 7.45081L14.1583 0.543396L22.6355 5.4406Z" fill="#4C5C75"/>
<path d="M3.94434 7.44911L14.1598 1.52017L20.9491 5.44216L10.7337 11.3711L3.94434 7.44911Z" fill="#1D2943"/>
<path d="M22.1953 6.46099C22.1953 6.65226 20.2624 8.01607 17.8778 9.39291C15.4926 10.7699 11.1733 13.0159 11.1729 12.8245C11.1729 12.6328 15.4908 9.90407 17.8756 8.52722C20.2607 7.15026 22.1945 6.26959 22.1953 6.46099Z" fill="#162034"/>
<path d="M29.7451 21.0195L29.7439 21.5907L19.3735 27.6176L11.4834 23.0627L11.4858 22.4915L19.3747 27.0464L29.7451 21.0195Z" fill="#9EA9C9"/>
<path d="M19.4491 15.0748L29.7447 21.0195L19.3742 27.0452L11.4853 22.4903L19.4491 15.0748ZM19.3744 27.0459L19.3727 27.6177L11.4834 23.0628L11.4851 22.491L19.3744 27.0459Z" fill="#9EA9C9"/>
<path d="M29.7452 21.0193L29.7435 21.5911L19.373 27.6177L19.3747 27.0459L29.7452 21.0193Z" fill="#B0B8CF"/>
<path d="M29.7452 21.0195L19.3744 27.0458L11.4854 22.4909L19.4486 15.0751L29.7452 21.0195Z" fill="#E3E7F0"/>
<path d="M19.4489 15.075L11.4857 22.4909L11.4756 19.5902L19.4489 15.075Z" fill="#E3E7F0"/>
<path d="M16.0082 11.8209C15.9112 11.7659 15.7906 11.7509 15.6562 11.7813C15.691 11.7905 15.7239 11.8037 15.7543 11.8209C15.9077 11.9087 16.0034 12.0972 16.0039 12.366L16.0172 15.4581C16.0186 15.9958 15.6408 16.6509 15.1726 16.9208C15.0863 16.9706 15.003 17.0038 14.9245 17.0216C15.0653 17.0592 15.2388 17.0292 15.4266 16.9208C15.8947 16.6509 16.2727 15.9958 16.2711 15.4581L16.2578 12.366C16.2574 12.0972 16.1616 11.9087 16.0082 11.8209ZM18.8996 10.8412C18.8991 10.5723 18.8034 10.3833 18.6495 10.2956C18.5524 10.2405 18.432 10.2255 18.2978 10.2559C18.3324 10.2651 18.3651 10.2783 18.3956 10.2956C18.5494 10.3833 18.6452 10.5723 18.6456 10.8412L18.6589 13.9327C18.6605 14.4709 18.2825 15.1256 17.8144 15.3959C17.7282 15.4457 17.645 15.4788 17.5666 15.4966C17.7073 15.5341 17.8807 15.5043 18.0683 15.3959C18.5365 15.1256 18.9144 14.4709 18.9129 13.9327L18.8996 10.8412ZM13.3665 13.3458C13.2694 13.2908 13.1489 13.2758 13.0145 13.3061C13.0493 13.3154 13.0821 13.3286 13.1125 13.3458C13.2664 13.4336 13.3617 13.6226 13.3626 13.8914L13.3759 16.983C13.3775 17.5212 12.9995 18.1758 12.5309 18.4461C12.4448 18.4959 12.3616 18.5291 12.2832 18.5468C12.4239 18.5844 12.5974 18.5546 12.7848 18.4461C13.2535 18.1758 13.6313 17.5212 13.6299 16.983L13.6166 13.8914C13.6156 13.6226 13.5203 13.4337 13.3665 13.3458Z" fill="#C9CEE2"/>
<path d="M16.0165 15.4581L16.0033 12.366C16.0028 12.0972 15.907 11.9087 15.7537 11.8209C15.7228 11.8036 15.6899 11.7903 15.6556 11.7813C15.577 11.7991 15.4936 11.8322 15.4072 11.8822C14.939 12.1525 14.5612 12.8071 14.5627 13.3449L14.5759 16.4363C14.5769 16.7587 14.7136 16.9654 14.9238 17.0216C15.0023 17.0038 15.0856 16.9706 15.172 16.9208C15.6401 16.6509 16.018 15.9958 16.0165 15.4581ZM18.6583 13.9327L18.645 10.8412C18.6445 10.5723 18.5488 10.3833 18.3949 10.2956C18.3642 10.2782 18.3313 10.2649 18.2971 10.256C18.2186 10.2737 18.1353 10.3069 18.049 10.3568C17.5808 10.6272 17.203 11.2818 17.2044 11.8195L17.2177 14.9109C17.2187 15.2333 17.3556 15.4404 17.5659 15.4966C17.6444 15.4788 17.7275 15.4457 17.8137 15.3959C18.2819 15.1256 18.6599 14.4709 18.6583 13.9327ZM13.3753 16.983L13.362 13.8914C13.361 13.6226 13.2657 13.4337 13.1119 13.3458C13.0811 13.3284 13.0481 13.3151 13.0139 13.3061C12.9352 13.3238 12.8518 13.3571 12.7655 13.407C12.2978 13.6773 11.9195 14.332 11.9209 14.8697L11.9342 17.9617C11.9352 18.2838 12.0722 18.4907 12.2826 18.5468C12.3609 18.5291 12.4441 18.4959 12.5302 18.4461C12.9989 18.1758 13.3767 17.5212 13.3753 16.983ZM20.1205 25.1457V26.1631C20.1204 26.213 20.0878 26.2628 20.0223 26.3011C19.8907 26.3782 19.676 26.3786 19.5429 26.3023C19.476 26.2639 19.4426 26.2134 19.4426 26.1628L19.4427 25.1455C19.4427 25.1961 19.4762 25.2467 19.5432 25.2851C19.6761 25.3614 19.8908 25.3608 20.0226 25.2838C20.0879 25.2455 20.1205 25.1956 20.1205 25.1457ZM16.2702 23.0981L16.2701 24.1153C16.2701 24.1652 16.2375 24.2151 16.1721 24.2534C16.0404 24.3304 15.8257 24.3309 15.6927 24.2546C15.6258 24.2162 15.5923 24.1657 15.5923 24.1151V23.0977C15.5923 23.1483 15.6259 23.1989 15.6929 23.2373C15.8259 23.3136 16.0406 23.313 16.1723 23.236C16.2376 23.1977 16.2702 23.1478 16.2702 23.0981Z" fill="#9EA9C9"/>
<path d="M16.2704 23.098L16.2702 24.1153C16.2702 24.1652 16.2376 24.2151 16.1722 24.2534C16.0406 24.3304 15.8259 24.3309 15.6928 24.2546C15.6259 24.2162 15.5925 24.1657 15.5925 24.1151V23.0977C15.5925 23.1483 15.626 23.1989 15.693 23.2373C15.826 23.3136 16.0407 23.313 16.1724 23.236C16.2378 23.1977 16.2704 23.1478 16.2704 23.0981V23.098ZM12.4201 21.0503L12.42 22.0676C12.42 22.1174 12.3874 22.1673 12.3219 22.2056C12.1903 22.2826 11.9756 22.2832 11.8425 22.2068C11.7756 22.1685 11.7421 22.1179 11.7422 22.0673V21.05C11.7422 21.1006 11.7758 21.1512 11.8428 21.1896C11.9757 21.2659 12.1904 21.2653 12.3222 21.1884C12.3875 21.15 12.4201 21.1002 12.4201 21.0503ZM24.3974 22.758L24.3972 23.7754C24.3972 23.8253 24.3646 23.8752 24.2991 23.9134C24.1675 23.9904 23.9528 23.991 23.8197 23.9146C23.7528 23.8762 23.7194 23.8258 23.7194 23.7752L23.7195 22.7578C23.7195 22.8084 23.7531 22.8589 23.82 22.8973C23.9529 22.9736 24.1676 22.9731 24.2993 22.8961C24.3647 22.8578 24.3974 22.8079 24.3974 22.758ZM27.9734 20.6569L27.9732 21.6742C27.9732 21.724 27.9406 21.7739 27.8753 21.8122C27.7435 21.8892 27.5288 21.8897 27.3959 21.8134C27.3288 21.775 27.2954 21.7245 27.2954 21.6739L27.2955 20.6566C27.2955 20.7072 27.3291 20.7576 27.396 20.796C27.5289 20.8725 27.7436 20.8719 27.8754 20.7948C27.9407 20.7565 27.9734 20.7067 27.9734 20.6568V20.6569Z" fill="#9EA9C9"/>
<path d="M28.0126 20.49L20.1408 25.0644C19.9552 25.1724 19.6533 25.1725 19.4665 25.0647L11.6299 20.5401C11.536 20.4858 11.489 20.4145 11.4891 20.3434L11.4863 21.218C11.4861 21.2893 11.5331 21.3605 11.627 21.4148L19.4637 25.9392C19.6506 26.047 19.9523 26.0469 20.1379 25.9391L28.0097 21.3645C28.1018 21.3109 28.1481 21.2409 28.1482 21.1707L28.1511 20.2961C28.1508 20.3664 28.1047 20.4364 28.0126 20.49Z" fill="#4C5C75"/>
<path d="M28.0104 20.0996C28.1972 20.2075 28.1983 20.3822 28.0127 20.49L20.1409 25.0645C19.9553 25.1724 19.6534 25.1725 19.4666 25.0647L11.63 20.5401C11.4432 20.4323 11.4422 20.2573 11.6278 20.1495L19.4995 15.575C19.6851 15.4671 19.9869 15.4672 20.1738 15.5751L28.0104 20.0996Z" fill="#4C5C75"/>
<path d="M19.782 23.1816L25.8847 19.6352L19.8829 16.17L13.7803 19.7166L19.782 23.1816Z" fill="#627084"/>
<path d="M19.8977 14.0729L19.8937 16.17L11.9658 20.7773L11.9698 18.68L19.8977 14.0729Z" fill="#111D33"/>
<path d="M27.6946 18.5745L27.6906 20.6716L19.8936 16.17L19.8975 14.0729L27.6946 18.5745Z" fill="#1D2943"/>
<path d="M19.896 13.8083L28.1512 18.5745L19.768 23.4463L11.5127 18.6801L19.896 13.8083ZM19.7664 23.1816L27.6944 18.5745L19.8974 14.0727L11.9695 18.68L19.7664 23.1816Z" fill="#4C5C75"/>
<path d="M28.1518 18.5745L19.7686 23.4463L19.7822 23.1815L27.6948 18.5745H28.1518Z" fill="#4C5C75"/>
<path d="M16.9445 9.55025C16.9457 9.68067 16.854 9.83765 16.7417 9.90286C16.6849 9.93546 16.633 9.93908 16.5955 9.91735L16.482 9.85093C16.4458 9.8304 16.4229 9.78452 16.4229 9.72052C16.4217 9.5901 16.5134 9.43312 16.6257 9.36791C16.6825 9.33531 16.7344 9.33169 16.7718 9.35342L16.8769 9.41501C16.8733 9.4138 16.8697 9.41138 16.8648 9.41138C16.8709 9.41259 16.8769 9.41501 16.8829 9.41863C16.8841 9.41863 16.8841 9.41984 16.8854 9.41984C16.9216 9.44037 16.9445 9.48625 16.9445 9.55025Z" fill="#5EC363"/>
<path d="M16.8833 9.41862C16.8778 9.41519 16.8716 9.41274 16.8652 9.41138C16.8701 9.41138 16.8737 9.41379 16.8773 9.415L16.8833 9.41862Z" fill="#5EC363"/>
<path d="M16.2856 9.93183C16.2856 10.061 16.195 10.2192 16.0815 10.2844C16.0247 10.317 15.974 10.3207 15.9366 10.2989L15.9318 10.2953L15.8219 10.2325C15.7856 10.2108 15.7627 10.1661 15.7627 10.1009C15.7627 9.97168 15.8533 9.81349 15.9668 9.74828C16.0235 9.71568 16.0754 9.71206 16.1117 9.73379L16.2264 9.80021C16.2242 9.79887 16.2217 9.79804 16.2191 9.79779C16.2602 9.81711 16.2856 9.86421 16.2856 9.93183Z" fill="#FEBC1F"/>
<path d="M16.0805 9.81483C16.1937 9.7495 16.2855 9.80178 16.2858 9.93148C16.2863 10.061 16.195 10.219 16.0819 10.2843C15.9691 10.3495 15.8773 10.2972 15.877 10.1676C15.8766 10.0379 15.9678 9.87991 16.0805 9.81483Z" fill="#FEBC1F"/>
<path d="M15.9663 9.74853C15.8536 9.81374 15.7623 9.97169 15.7627 10.1014C15.7629 10.1657 15.7856 10.211 15.8223 10.2324L15.9362 10.2986C15.8996 10.2773 15.8768 10.2319 15.8767 10.1676C15.8763 10.0379 15.9675 9.87991 16.0803 9.81483C16.1373 9.78186 16.189 9.77884 16.226 9.80046L16.1122 9.73428C16.075 9.71255 16.0234 9.71569 15.9664 9.74865L15.9663 9.74853Z" fill="#FFD06C"/>
<path d="M16.8833 9.41862C16.8778 9.41519 16.8716 9.41274 16.8652 9.41138C16.8701 9.41138 16.8737 9.41379 16.8773 9.415L16.8833 9.41862Z" fill="#5EC363"/>
<path d="M16.7407 9.43371C16.8536 9.36851 16.9454 9.42091 16.9457 9.55048C16.9461 9.68017 16.8549 9.83812 16.742 9.90321C16.6292 9.96842 16.5375 9.91613 16.5371 9.78644C16.5367 9.65675 16.6279 9.4988 16.7407 9.43371Z" fill="#5EC363"/>
<path d="M16.6264 9.36754C16.5137 9.43275 16.4224 9.59058 16.4229 9.72014C16.423 9.78463 16.4458 9.83003 16.4824 9.85128L16.5964 9.91746C16.5597 9.8962 16.5368 9.8508 16.5367 9.78644C16.5364 9.65675 16.6275 9.4988 16.7403 9.43371C16.7971 9.40099 16.8486 9.39785 16.8857 9.41946L16.7718 9.35329C16.7346 9.33168 16.6832 9.3347 16.6264 9.36754Z" fill="#78E75A"/>
<path d="M17.6049 9.16987C17.6049 9.29908 17.5143 9.45726 17.4008 9.52247C17.3417 9.55628 17.2885 9.5587 17.2511 9.53334L17.1412 9.47055C17.105 9.44881 17.082 9.40413 17.082 9.33892C17.082 9.20972 17.1726 9.05153 17.2861 8.98632C17.3429 8.95372 17.3948 8.95009 17.431 8.97183L17.5457 9.03825C17.5435 9.03691 17.541 9.03608 17.5385 9.03583C17.5795 9.05515 17.6049 9.10225 17.6049 9.16987Z" fill="#DF3260"/>
<path d="M17.4314 8.97233C17.3942 8.9506 17.3426 8.95373 17.2856 8.98658C17.1728 9.05179 17.0816 9.20973 17.082 9.33943C17.0822 9.40379 17.105 9.44907 17.1417 9.47044L17.2556 9.53662C17.2188 9.51524 17.1961 9.46996 17.1959 9.4056C17.1955 9.27591 17.2867 9.11796 17.3996 9.05287C17.4566 9.01991 17.5082 9.01689 17.5454 9.03838L17.4314 8.97233Z" fill="#F45170"/>
<path d="M17.4 9.05287C17.5132 8.98754 17.6049 9.03982 17.6053 9.16939C17.6056 9.29908 17.5145 9.45703 17.4012 9.52236C17.2884 9.58757 17.1967 9.53516 17.1963 9.40559C17.1959 9.2759 17.2871 9.11795 17.4 9.05287Z" fill="#DF3260"/>
<path d="M9.61154 20.889C9.72385 20.9538 9.81465 21.1112 9.81441 21.2404C9.81393 21.3696 9.72264 21.4215 9.61022 21.3567C9.49767 21.2918 9.40687 21.1345 9.40723 21.0053C9.40759 20.8761 9.499 20.8242 9.61154 20.889ZM9.75247 21.2344L9.75259 21.1752L9.63654 21.1082L9.6369 20.9749L9.58546 20.9452L9.5851 21.0785L9.46917 21.0114L9.46893 21.0706L9.58486 21.1376L9.58462 21.2708L9.63594 21.3005L9.63642 21.1673L9.75247 21.2344Z" fill="#4C5C75"/>
<path d="M9.63672 20.9749L9.63636 21.1082L9.7524 21.1751L9.75228 21.2344L9.63624 21.1673L9.63575 21.3005L9.58431 21.2708L9.5848 21.1376L9.46875 21.0706L9.46899 21.0115L9.58492 21.0785L9.58528 20.9452L9.63672 20.9749Z" fill="#1D2943"/>
<path d="M3.70224 17.499C3.81455 17.5639 3.90547 17.7212 3.90511 17.8504C3.90475 17.9795 3.81334 18.0316 3.70104 17.9667C3.58849 17.9018 3.49769 17.7445 3.49805 17.6153C3.49841 17.4861 3.58982 17.4342 3.70224 17.499ZM3.84317 17.8444L3.84341 17.7852L3.72736 17.7181L3.72772 17.5849L3.67628 17.5552L3.67592 17.6884L3.56 17.6215L3.55975 17.6807L3.67568 17.7477L3.67532 17.8808L3.72676 17.9105L3.72712 17.7774L3.84317 17.8444Z" fill="#4C5C75"/>
<path d="M3.72754 17.5849L3.72718 17.7181L3.84322 17.7851L3.84298 17.8444L3.72694 17.7774L3.72657 17.9105L3.67513 17.8808L3.67549 17.7477L3.55957 17.6807L3.55969 17.6215L3.67574 17.6884L3.6761 17.5552L3.72754 17.5849Z" fill="#1D2943"/>
<path d="M9.61154 13.809C9.72385 13.874 9.81465 14.0312 9.81441 14.1604C9.81393 14.2896 9.72264 14.3417 9.61022 14.2768C9.49767 14.2119 9.40687 14.0545 9.40723 13.9254C9.40759 13.7962 9.499 13.7442 9.61154 13.809ZM9.75247 14.1544L9.75259 14.0952L9.63654 14.0282L9.6369 13.8949L9.58546 13.8652L9.5851 13.9985L9.46917 13.9315L9.46893 13.9906L9.58486 14.0577L9.58462 14.1908L9.63594 14.2206L9.63642 14.0874L9.75247 14.1544Z" fill="#4C5C75"/>
<path d="M9.63672 13.8949L9.63636 14.0282L9.7524 14.0952L9.75228 14.1544L9.63624 14.0874L9.63575 14.2206L9.58431 14.1908L9.5848 14.0577L9.46875 13.9908L9.46899 13.9315L9.58492 13.9985L9.58528 13.8652L9.63672 13.8949Z" fill="#1D2943"/>
<path d="M3.70224 10.4191C3.81455 10.4841 3.90547 10.6413 3.90511 10.7705C3.90475 10.8997 3.81334 10.9516 3.70104 10.8868C3.58849 10.8219 3.49769 10.6646 3.49805 10.5354C3.49841 10.4062 3.58982 10.3542 3.70224 10.4191ZM3.84317 10.7645L3.84341 10.7053L3.72736 10.6383L3.72772 10.505L3.67628 10.4752L3.67592 10.6086L3.56 10.5415L3.55975 10.6007L3.67568 10.6677L3.67532 10.8009L3.72676 10.8306L3.72712 10.6974L3.84317 10.7645Z" fill="#4C5C75"/>
<path d="M3.72754 10.5049L3.72718 10.6382L3.84322 10.7053L3.84298 10.7644L3.72694 10.6974L3.72657 10.8306L3.67513 10.8009L3.67549 10.6677L3.55957 10.6008L3.55969 10.5415L3.67574 10.6085L3.6761 10.4752L3.72754 10.5049Z" fill="#1D2943"/>
<path d="M12.7067 20.7473L12.3955 20.5666L12.3936 19.0666L12.7047 19.2473L12.7067 20.7473Z" fill="#887753"/>
<path d="M12.7047 19.2473L12.3936 19.0666L20.008 14.6704L20.3192 14.8511L12.7047 19.2473Z" fill="#B0B8CF"/>
<path d="M20.3195 14.8511L20.3213 16.3512L12.707 20.7473L12.7051 19.2473L20.3195 14.8511Z" fill="#9EA9C9"/>
<path d="M20.3085 15.0118C20.1065 14.9231 19.8557 14.9434 19.5942 15.0944C19.0232 15.424 18.6177 16.2519 18.6887 16.9433C18.7273 17.3182 18.8976 17.5759 19.1367 17.6809L19.2906 17.7485C19.0515 17.6435 18.881 17.3857 18.8426 17.0109C18.7715 16.3194 19.1769 15.4916 19.748 15.1619C20.0094 15.0109 20.2604 14.9906 20.4623 15.0794L20.3085 15.0118Z" fill="#497BFE"/>
<path d="M19.7486 15.162C20.3195 14.8323 20.84 15.1255 20.911 15.8171C20.982 16.5085 20.5766 17.3362 20.0055 17.6658C19.4345 17.9955 18.914 17.7024 18.843 17.011C18.772 16.3194 19.1775 15.4917 19.7486 15.162Z" fill="#57B3FE"/>
<path d="M19.7869 15.5363C20.1872 15.3052 20.552 15.5108 20.6018 15.9954C20.6515 16.4801 20.3674 17.0605 19.9671 17.2915C19.5668 17.5226 19.202 17.3171 19.1521 16.8324C19.1024 16.3476 19.3866 15.7673 19.7869 15.5363Z" fill="#FEBC1F"/>
<path d="M19.9671 17.2915C19.7697 17.4055 19.5807 17.4132 19.4341 17.3337C19.2835 17.2519 19.1774 17.078 19.1521 16.8324C19.1024 16.3478 19.3865 15.7673 19.7869 15.5362C19.956 15.4385 20.1188 15.4188 20.2543 15.4653L20.2545 15.4654C20.4394 15.5289 20.5731 15.7157 20.6018 15.9955C20.6515 16.4802 20.3674 17.0603 19.9671 17.2915Z" fill="#497BFE"/>
<path d="M19.9019 17.2628C19.7326 17.3607 19.5696 17.3802 19.4341 17.3336C19.2835 17.2519 19.1774 17.078 19.1521 16.8325C19.1024 16.3478 19.3865 15.7674 19.7869 15.5362C19.956 15.4385 20.1188 15.4188 20.2543 15.4653L20.2545 15.4654C20.4053 15.5473 20.5115 15.7213 20.5367 15.9668C20.5865 16.4516 20.3022 17.0318 19.902 17.2628H19.9019Z" fill="#5094FF"/>
<path d="M18.0377 15.8298C17.7957 15.7236 17.4951 15.7479 17.1816 15.9289C16.4974 16.324 16.0115 17.3161 16.0966 18.1447C16.1427 18.5938 16.347 18.9027 16.6335 19.0286L16.8177 19.1095C16.5313 18.9836 16.3269 18.6748 16.2809 18.2256C16.1957 17.397 16.6815 16.4049 17.3658 16.0098C17.6793 15.8289 17.9799 15.8045 18.222 15.9108L18.0377 15.8298Z" fill="#C9CEE2"/>
<path d="M17.3652 16.0098C18.0496 15.6147 18.6732 15.9663 18.7583 16.7948C18.8433 17.6235 18.3577 18.6154 17.6733 19.0105C16.989 19.4056 16.3652 19.0542 16.2802 18.2256C16.1951 17.397 16.6809 16.4049 17.3652 16.0098Z" fill="#F3F1FC"/>
<path d="M17.4119 16.4584C17.8916 16.1815 18.3288 16.4278 18.3885 17.0088C18.4481 17.5896 18.1076 18.2849 17.6279 18.5619C17.1482 18.8388 16.711 18.5926 16.6513 18.0117C16.5917 17.4308 16.9322 16.7353 17.4119 16.4584Z" fill="#FEBC1F"/>
<path d="M17.627 18.5618C17.3903 18.6985 17.1639 18.7077 16.9882 18.6124C16.8078 18.5144 16.6806 18.3059 16.6503 18.0117C16.5908 17.4308 16.9313 16.7353 17.4111 16.4584C17.6138 16.3413 17.8088 16.3177 17.971 16.3734L17.9715 16.3735C18.193 16.4496 18.3531 16.6736 18.3876 17.0087C18.4473 17.5896 18.1066 18.2849 17.627 18.5618Z" fill="#B0B8CF"/>
<path d="M17.5488 18.5276C17.346 18.6448 17.1506 18.6682 16.9882 18.6124C16.8078 18.5144 16.6806 18.3059 16.6503 18.0117C16.5908 17.4308 16.9313 16.7353 17.4111 16.4584C17.6138 16.3413 17.8088 16.3177 17.971 16.3734L17.9715 16.3735C18.1521 16.4717 18.2794 16.6802 18.3096 16.9744C18.3691 17.5553 18.0286 18.2506 17.5488 18.5276Z" fill="white"/>
<path d="M15.3176 16.8352C15.0296 16.7087 14.6718 16.7377 14.2989 16.953C13.4846 17.4231 12.9064 18.6037 13.0076 19.5899C13.0625 20.1244 13.3057 20.4919 13.6466 20.6417L13.8658 20.738C13.5249 20.5883 13.2817 20.2207 13.2269 19.6863C13.1257 18.7001 13.7039 17.5194 14.5181 17.0492C14.8911 16.8339 15.2489 16.8049 15.5369 16.9315L15.3176 16.8352Z" fill="#FFDE9B"/>
<path d="M14.5186 17.0494C15.3331 16.5792 16.0752 16.9974 16.1766 17.9835C16.2777 18.9696 15.6996 20.1501 14.8853 20.6203C14.0709 21.0904 13.3287 20.6723 13.2273 19.6862C13.1262 18.7001 13.7043 17.5195 14.5186 17.0493V17.0494Z" fill="#FFD06C"/>
<path d="M14.5734 17.5831C15.1443 17.2536 15.6645 17.5469 15.7355 18.2381C15.8066 18.9294 15.4013 19.7568 14.8304 20.0864C14.2596 20.416 13.7392 20.1229 13.6682 19.4316C13.5972 18.7403 14.0026 17.9126 14.5734 17.5831Z" fill="#FEBC1F"/>
<path d="M14.8305 20.0863C14.5489 20.249 14.2795 20.26 14.0703 20.1465C13.8556 20.0298 13.7044 19.7818 13.6682 19.4316C13.5973 18.7404 14.0026 17.9128 14.5736 17.5831C14.8149 17.4438 15.0469 17.4157 15.2398 17.482L15.2404 17.4822C15.504 17.5727 15.6947 17.8392 15.7356 18.2381C15.8066 18.9294 15.4014 19.7567 14.8305 20.0863Z" fill="#FFDE9B"/>
<path d="M14.7376 20.0455C14.4961 20.1851 14.2636 20.2129 14.0703 20.1465C13.8556 20.0298 13.7044 19.7818 13.6682 19.4316C13.5973 18.7404 14.0026 17.9128 14.5736 17.5831C14.8149 17.4438 15.0469 17.4157 15.2398 17.482L15.2404 17.4822C15.4554 17.5989 15.6069 17.8471 15.6428 18.1973C15.7137 18.8886 15.3084 19.716 14.7376 20.0455Z" fill="#FEBC1F"/>
<path d="M13.9136 21.444L13.6025 21.2631L13.6006 19.7631L13.9117 19.944L13.9136 21.444Z" fill="#887753"/>
<path d="M13.9117 19.944L13.6006 19.7631L21.2149 15.367L21.5261 15.5478L13.9117 19.944Z" fill="#B0B8CF"/>
<path d="M21.5256 15.5478L21.5275 17.0478L13.9131 21.444L13.9111 19.944L21.5256 15.5478Z" fill="#9EA9C9"/>
<path d="M21.5155 15.7084C21.3136 15.6196 21.0627 15.6399 20.8013 15.791C20.2301 16.1206 19.8249 16.9485 19.8957 17.64C19.9344 18.0147 20.1048 18.2725 20.3437 18.3775L20.4976 18.445C20.2585 18.34 20.088 18.0823 20.0496 17.7075C19.9786 17.016 20.384 16.1881 20.955 15.8585C21.2164 15.7075 21.4674 15.6871 21.6694 15.7759L21.5155 15.7083V15.7084Z" fill="#497BFE"/>
<path d="M20.9544 15.8585C21.5256 15.5288 22.046 15.8221 22.1169 16.5136C22.1879 17.205 21.7826 18.0327 21.2116 18.3623C20.6405 18.692 20.12 18.3989 20.0491 17.7075C19.9781 17.016 20.3835 16.1881 20.9545 15.8585H20.9544Z" fill="#57B3FE"/>
<path d="M20.9929 16.2328C21.3932 16.0017 21.758 16.2073 21.8077 16.6921C21.8575 17.1768 21.5735 17.757 21.173 17.9881C20.7727 18.2192 20.4079 18.0137 20.3582 17.529C20.3084 17.0443 20.5926 16.4639 20.9929 16.2328Z" fill="#FEBC1F"/>
<path d="M21.1732 17.988C20.9757 18.1021 20.7867 18.1098 20.6402 18.0303C20.4896 17.9485 20.3835 17.7745 20.3582 17.529C20.3084 17.0443 20.5927 16.464 20.993 16.2328C21.1622 16.135 21.325 16.1155 21.4603 16.1618C21.4603 16.1621 21.4607 16.1621 21.4607 16.1621C21.6454 16.2255 21.7792 16.4124 21.8079 16.6921C21.8576 17.1768 21.5735 17.7569 21.1732 17.988Z" fill="#497BFE"/>
<path d="M21.1081 17.9595C20.9387 18.0573 20.7756 18.0768 20.6402 18.0303C20.4896 17.9485 20.3835 17.7745 20.3582 17.529C20.3084 17.0443 20.5927 16.464 20.993 16.2328C21.1622 16.135 21.325 16.1155 21.4603 16.1618C21.4603 16.1621 21.4607 16.1621 21.4607 16.1621C21.6114 16.2439 21.7176 16.4178 21.7428 16.6634C21.7925 17.1482 21.5084 17.7284 21.1081 17.9595Z" fill="#5094FF"/>
<path d="M19.2438 16.5265C19.0018 16.4202 18.7011 16.4445 18.3877 16.6255C17.7034 17.0205 17.2176 18.0126 17.3026 18.8414C17.3488 19.2903 17.5531 19.5993 17.8396 19.7252L18.0238 19.8061C17.7373 19.6803 17.533 19.3714 17.4869 18.9222C17.4018 18.0935 17.8877 17.1014 18.572 16.7063C18.8854 16.5254 19.186 16.501 19.4281 16.6074L19.2438 16.5265Z" fill="#C9CEE2"/>
<path d="M18.5723 16.7064C19.2566 16.3113 19.8803 16.6628 19.9653 17.4913C20.0505 18.3201 19.5647 19.312 18.8804 19.7072C18.196 20.1022 17.5722 19.7509 17.4872 18.9223C17.4021 18.0935 17.888 17.1014 18.5723 16.7064Z" fill="#F3F1FC"/>
<path d="M18.618 17.155C19.0978 16.878 19.5349 17.1245 19.5945 17.7053C19.6542 18.2861 19.3137 18.9815 18.8339 19.2584C18.3543 19.5354 17.917 19.2891 17.8574 18.7083C17.7977 18.1274 18.1384 17.4319 18.6181 17.155H18.618Z" fill="#FEBC1F"/>
<path d="M18.8339 19.2584C18.5972 19.3951 18.3709 19.4043 18.1951 19.3089C18.0147 19.211 17.8876 19.0026 17.8574 18.7083C17.7977 18.1275 18.1382 17.4319 18.6181 17.1549C18.8207 17.0378 19.0158 17.0143 19.1779 17.07L19.1784 17.0701C19.3999 17.1462 19.5601 17.3702 19.5945 17.7053C19.6542 18.2861 19.3137 18.9814 18.8339 19.2584Z" fill="#B0B8CF"/>
<path d="M18.7559 19.2242C18.5529 19.3414 18.3575 19.3648 18.1952 19.3089C18.0147 19.211 17.8876 19.0026 17.8574 18.7083C17.7977 18.1275 18.1382 17.4319 18.6181 17.1549C18.8207 17.0378 19.0158 17.0143 19.1779 17.07L19.1784 17.0701C19.3591 17.1683 19.4863 17.3768 19.5165 17.671C19.5762 18.252 19.2355 18.9471 18.7559 19.2242Z" fill="white"/>
<path d="M16.5247 17.5318C16.2366 17.4052 15.8788 17.4342 15.5059 17.6495C14.6915 18.1197 14.1133 19.3004 14.2146 20.2864C14.2695 20.8209 14.5127 21.1885 14.8536 21.3382L15.0728 21.4347C14.732 21.285 14.4888 20.9173 14.4338 20.3828C14.3326 19.3967 14.9108 18.2161 15.7252 17.7459C16.0981 17.5306 16.4559 17.5016 16.7439 17.6281L16.5247 17.5318Z" fill="#FFDE9B"/>
<path d="M15.7247 17.7459C16.5391 17.2757 17.2812 17.694 17.3824 18.6802C17.4838 19.6662 16.9057 20.8466 16.0913 21.3168C15.277 21.7871 14.5347 21.3689 14.4334 20.3828C14.3322 19.3967 14.9104 18.2161 15.7247 17.7459Z" fill="#FFD06C"/>
<path d="M15.7796 18.2797C16.3504 17.9501 16.8707 18.2435 16.9416 18.9347C17.0126 19.6259 16.6073 20.4534 16.0365 20.783C15.4656 21.1126 14.9453 20.8194 14.8743 20.1282C14.8034 19.4369 15.2086 18.6093 15.7796 18.2797Z" fill="#FEBC1F"/>
<path d="M16.0365 20.7829C15.7549 20.9455 15.4854 20.9565 15.2764 20.8431C15.0616 20.7265 14.9103 20.4784 14.8743 20.1282C14.8033 19.437 15.2085 18.6093 15.7796 18.2797C16.0208 18.1404 16.2529 18.1124 16.4459 18.1785C16.446 18.1788 16.4463 18.1788 16.4465 18.1788C16.71 18.2693 16.9007 18.5359 16.9416 18.9346C17.0126 19.6259 16.6074 20.4533 16.0365 20.7829Z" fill="#FFDE9B"/>
<path d="M15.9437 20.742C15.7021 20.8816 15.4696 20.9095 15.2764 20.8431C15.0616 20.7265 14.9103 20.4784 14.8743 20.1282C14.8033 19.437 15.2085 18.6093 15.7796 18.2797C16.0208 18.1404 16.2529 18.1124 16.4459 18.1785C16.446 18.1788 16.4463 18.1788 16.4465 18.1788C16.6615 18.2955 16.8129 18.5436 16.8487 18.8938C16.9197 19.5852 16.5145 20.4124 15.9437 20.742Z" fill="#FEBC1F"/>
<path d="M15.1196 22.1405L14.8086 21.9597L14.8066 20.4597L15.1178 20.6405L15.1196 22.1405Z" fill="#887753"/>
<path d="M15.1178 20.6405L14.8066 20.4597L22.4211 16.0635L22.7321 16.2443L15.1178 20.6405Z" fill="#B0B8CF"/>
<path d="M22.7325 16.2443L22.7344 17.7443L15.12 22.1405L15.1182 20.6405L22.7325 16.2443Z" fill="#9EA9C9"/>
<path d="M22.7216 16.4049C22.5196 16.3163 22.2688 16.3365 22.0072 16.4875C21.4362 16.8171 21.0308 17.645 21.1018 18.3365C21.1402 18.7113 21.3107 18.969 21.5498 19.074L21.7035 19.1417C21.4644 19.0366 21.2939 18.7788 21.2555 18.404C21.1845 17.7125 21.59 16.8848 22.161 16.555C22.4225 16.404 22.6733 16.3838 22.8753 16.4725L22.7216 16.4049Z" fill="#497BFE"/>
<path d="M22.1615 16.555C22.7327 16.2253 23.253 16.5188 23.324 17.2102C23.395 17.9016 22.9895 18.7293 22.4186 19.059C21.8475 19.3886 21.327 19.0955 21.2561 18.4041C21.1852 17.7127 21.5906 16.8848 22.1615 16.555Z" fill="#57B3FE"/>
<path d="M22.1999 16.9294C22.6002 16.6983 22.965 16.904 23.0148 17.3886C23.0646 17.8733 22.7805 18.4536 22.3802 18.6846C21.9799 18.9157 21.615 18.7102 21.5652 18.2255C21.5155 17.7408 21.7996 17.1605 22.1999 16.9294Z" fill="#FEBC1F"/>
<path d="M22.3802 18.6846C22.1826 18.7986 21.9938 18.8063 21.8472 18.7269C21.6966 18.645 21.5905 18.4711 21.5652 18.2255C21.5155 17.7409 21.7995 17.1605 22.2 16.9293C22.3691 16.8316 22.5319 16.812 22.6672 16.8584L22.6676 16.8586C22.8523 16.9221 22.9861 17.1089 23.0149 17.3887C23.0646 17.8734 22.7804 18.4535 22.3802 18.6846Z" fill="#497BFE"/>
<path d="M22.315 18.656C22.1456 18.7538 21.9827 18.7734 21.8472 18.7268C21.6966 18.645 21.5905 18.4711 21.5652 18.2256C21.5155 17.7409 21.7995 17.1606 22.2 16.9293C22.3691 16.8316 22.5319 16.812 22.6672 16.8584L22.6676 16.8586C22.8183 16.9404 22.9246 17.1144 22.9497 17.3599C22.9994 17.8448 22.7153 18.425 22.315 18.656Z" fill="#5094FF"/>
<path d="M20.4498 17.223C20.2077 17.1167 19.9072 17.141 19.5937 17.322C18.9094 17.7171 18.4236 18.7093 18.5087 19.5379C18.5547 19.987 18.7591 20.2958 19.0456 20.4218L19.2299 20.5027C18.9433 20.3768 18.739 20.068 18.6929 19.6188C18.6078 18.7902 19.0938 17.798 19.778 17.4029C20.0913 17.222 20.392 17.1976 20.6341 17.3039L20.4498 17.223Z" fill="#C9CEE2"/>
<path d="M19.7783 17.4029C20.4627 17.0078 21.0864 17.3595 21.1714 18.188C21.2564 19.0165 20.7707 20.0086 20.0864 20.4037C19.4021 20.7988 18.7784 20.4474 18.6932 19.6188C18.6082 18.7902 19.0942 17.798 19.7783 17.4029Z" fill="#F3F1FC"/>
<path d="M19.824 17.8515C20.3038 17.5746 20.7409 17.821 20.8006 18.4019C20.8602 18.9828 20.5197 19.6781 20.0401 19.9551C19.5603 20.232 19.123 19.9857 19.0634 19.4048C19.0039 18.824 19.3443 18.1284 19.824 17.8515Z" fill="#FEBC1F"/>
<path d="M20.0401 19.9549C19.8034 20.0916 19.577 20.1008 19.4013 20.0055C19.2209 19.9075 19.0937 19.6991 19.0634 19.4048C19.0038 18.824 19.3443 18.1284 19.8242 17.8515C20.0269 17.7344 20.2218 17.7108 20.384 17.7665L20.3846 17.7666C20.6061 17.8427 20.7662 18.0667 20.8007 18.4018C20.8603 18.9827 20.5197 19.6781 20.04 19.9549H20.0401Z" fill="#B0B8CF"/>
<path d="M19.962 19.9208C19.759 20.0379 19.5637 20.0613 19.4013 20.0055C19.2209 19.9075 19.0937 19.6991 19.0634 19.4048C19.0038 18.824 19.3443 18.1284 19.8242 17.8515C20.0269 17.7344 20.2218 17.7108 20.384 17.7665L20.3846 17.7666C20.5652 17.8648 20.6925 18.0733 20.7227 18.3675C20.7822 18.9485 20.4417 19.6438 19.962 19.9208Z" fill="white"/>
<path d="M17.7307 18.2284C17.4427 18.1019 17.0849 18.1308 16.712 18.3461C15.8975 18.8162 15.3195 19.9969 15.4207 20.9831C15.4755 21.5175 15.7187 21.8851 16.0596 22.0348L16.2789 22.1312C15.938 21.9815 15.6948 21.6139 15.64 21.0794C15.5387 20.0932 16.1169 18.9126 16.9312 18.4424C17.3041 18.2271 17.6619 18.1981 17.95 18.3247L17.7307 18.2284Z" fill="#FFDE9B"/>
<path d="M16.9318 18.4424C17.7461 17.9723 18.4883 18.3906 18.5896 19.3767C18.6908 20.3629 18.1127 21.5433 17.2984 22.0135C16.484 22.4836 15.7417 22.0654 15.6404 21.0793C15.5392 20.0932 16.1174 18.9126 16.9318 18.4424Z" fill="#FFD06C"/>
<path d="M16.9865 18.9764C17.5573 18.6467 18.0776 18.94 18.1486 19.6312C18.2195 20.3225 17.8144 21.15 17.2435 21.4796C16.6727 21.8092 16.1522 21.5161 16.0813 20.8248C16.0103 20.1336 16.4156 19.3059 16.9865 18.9764Z" fill="#FEBC1F"/>
<path d="M17.2436 21.4795C16.962 21.6421 16.6926 21.6531 16.4834 21.5396C16.2687 21.4231 16.1174 21.1749 16.0813 20.8247C16.0104 20.1335 16.4157 19.3059 16.9867 18.9762C17.2279 18.8369 17.4599 18.8089 17.6529 18.8752L17.6535 18.8753C17.9171 18.9658 18.1078 19.2323 18.1486 19.6312C18.2196 20.3225 17.8144 21.1498 17.2436 21.4795Z" fill="#FFDE9B"/>
<path d="M17.1507 21.4388C16.9091 21.5783 16.6766 21.606 16.4834 21.5396C16.2687 21.4231 16.1174 21.1749 16.0813 20.8247C16.0104 20.1335 16.4157 19.3059 16.9867 18.9762C17.2279 18.8369 17.4599 18.8089 17.6529 18.8752L17.6535 18.8753C17.8685 18.992 18.02 19.2402 18.0559 19.5904C18.1268 20.2817 17.7215 21.1092 17.1507 21.4388Z" fill="#FEBC1F"/>
<path d="M16.3268 22.8371L16.0156 22.6562L16.0137 21.1562L16.3249 21.3371L16.3268 22.8371Z" fill="#887753"/>
<path d="M16.3249 21.3371L16.0137 21.1562L23.6281 16.7602L23.9393 16.9409L16.3249 21.3371Z" fill="#B0B8CF"/>
<path d="M23.9386 16.9409L23.9405 18.4409L16.3262 22.8371L16.3242 21.3371L23.9386 16.9409Z" fill="#9EA9C9"/>
<path d="M23.9287 17.1015C23.7266 17.0128 23.4758 17.0331 23.2143 17.1841C22.6433 17.5138 22.2378 18.3417 22.3089 19.0331C22.3474 19.4078 22.5178 19.6656 22.7568 19.7707L22.9107 19.8382C22.6716 19.7331 22.5011 19.4755 22.4627 19.1006C22.3916 18.4092 22.7971 17.5813 23.3681 17.2516C23.6295 17.1007 23.8805 17.0803 24.0824 17.169L23.9287 17.1015Z" fill="#497BFE"/>
<path d="M23.3677 17.2516C23.9386 16.922 24.4591 17.2153 24.5301 17.9067C24.6011 18.5982 24.1957 19.4258 23.6247 19.7555C23.0536 20.0851 22.5332 19.7921 22.4622 19.1006C22.3912 18.4092 22.7967 17.5813 23.3677 17.2516Z" fill="#57B3FE"/>
<path d="M23.4061 17.6259C23.8064 17.3948 24.1712 17.6005 24.2209 18.0852C24.2707 18.5699 23.9866 19.1501 23.5863 19.3812C23.1859 19.6124 22.8211 19.4068 22.7713 18.9221C22.7215 18.4374 23.0058 17.8571 23.4061 17.6259Z" fill="#FEBC1F"/>
<path d="M23.5863 19.3811C23.3888 19.4952 23.1998 19.503 23.0532 19.4234C22.9027 19.3416 22.7965 19.1676 22.7713 18.9221C22.7215 18.4374 23.0057 17.8571 23.4061 17.626C23.5751 17.5281 23.7379 17.5086 23.8734 17.555C23.8734 17.5552 23.8735 17.5552 23.8736 17.5552C24.0585 17.6186 24.1922 17.8055 24.2209 18.0852C24.2707 18.5699 23.9866 19.15 23.5863 19.3811Z" fill="#497BFE"/>
<path d="M23.5212 19.3526C23.3517 19.4504 23.1887 19.4699 23.0532 19.4234C22.9027 19.3416 22.7965 19.1676 22.7713 18.9221C22.7215 18.4374 23.0057 17.8571 23.4061 17.626C23.5751 17.5281 23.7379 17.5086 23.8734 17.555C23.8734 17.5552 23.8736 17.5552 23.8736 17.5552C24.0245 17.6371 24.1306 17.811 24.1559 18.0566C24.2056 18.5413 23.9213 19.1215 23.5212 19.3526Z" fill="#5094FF"/>
<path d="M21.6569 17.9196C21.4149 17.8134 21.1142 17.8376 20.8007 18.0186C20.1165 18.4136 19.6306 19.4058 19.7157 20.2345C19.7619 20.6835 19.9662 20.9925 20.2526 21.1183L20.4369 21.1992C20.1505 21.0734 19.946 20.7645 19.9 20.3153C19.8149 19.4867 20.3007 18.4945 20.985 18.0994C21.2985 17.9185 21.599 17.8941 21.8411 18.0005L21.6569 17.9196Z" fill="#C9CEE2"/>
<path d="M20.9854 18.0996C21.6697 17.7044 22.2933 18.056 22.3784 18.8845C22.4634 19.7132 21.9778 20.7051 21.2935 21.1003C20.6091 21.4953 19.9853 21.144 19.9003 20.3154C19.8152 19.4867 20.301 18.4945 20.9854 18.0996Z" fill="#F3F1FC"/>
<path d="M21.0311 18.5482C21.5107 18.2712 21.948 18.5176 22.0076 19.0984C22.0673 19.6793 21.7268 20.3747 21.247 20.6516C20.7674 20.9286 20.3301 20.6823 20.2705 20.1014C20.2108 19.5206 20.5513 18.8251 21.0311 18.5482Z" fill="#FEBC1F"/>
<path d="M21.2471 20.6515C21.0104 20.7883 20.784 20.7975 20.6083 20.7022C20.4279 20.6041 20.3007 20.3957 20.2704 20.1014C20.2109 19.5206 20.5514 18.8251 21.0312 18.5481C21.2339 18.4309 21.4289 18.4075 21.5911 18.4632L21.5916 18.4633C21.8131 18.5394 21.9732 18.7634 22.0077 19.0985C22.0674 19.6793 21.7267 20.3745 21.2471 20.6515Z" fill="#B0B8CF"/>
<path d="M21.1691 20.6173C20.966 20.7346 20.7707 20.758 20.6083 20.7021C20.4279 20.6041 20.3007 20.3957 20.2704 20.1014C20.2109 19.5206 20.5514 18.8251 21.0312 18.5481C21.2339 18.4309 21.4289 18.4075 21.5911 18.4632L21.5916 18.4633C21.7723 18.5615 21.8995 18.77 21.9297 19.0642C21.9892 19.6451 21.6488 20.3403 21.1691 20.6173Z" fill="white"/>
<path d="M18.9377 18.9249C18.6497 18.7984 18.2919 18.8273 17.9191 19.0426C17.1047 19.5129 16.5265 20.6935 16.6277 21.6796C16.6826 22.214 16.9258 22.5816 17.2667 22.7313L17.4859 22.8278C17.145 22.6781 16.9018 22.3104 16.847 21.7759C16.7458 20.7898 17.324 19.6092 18.1382 19.139C18.5112 18.9237 18.869 18.8947 19.157 19.0213L18.9377 18.9249Z" fill="#FFDE9B"/>
<path d="M18.1378 19.139C18.9523 18.6688 19.6943 19.0871 19.7957 20.0733C19.8968 21.0594 19.3188 22.2398 18.5044 22.71C17.69 23.1802 16.9479 22.762 16.8464 21.776C16.7454 20.7899 17.3234 19.6093 18.1378 19.139Z" fill="#FFD06C"/>
<path d="M18.1925 19.6729C18.7635 19.3432 19.2837 19.6367 19.3547 20.3279C19.4257 21.0191 19.0204 21.8466 18.4495 22.1761C17.8787 22.5058 17.3584 22.2126 17.2874 21.5214C17.2164 20.8301 17.6217 20.0024 18.1925 19.6729Z" fill="#FEBC1F"/>
<path d="M18.4496 22.176C18.168 22.3387 17.8986 22.3497 17.6895 22.2363C17.4748 22.1196 17.3236 21.8716 17.2873 21.5214C17.2165 20.8302 17.6217 20.0024 18.1928 19.6729C18.434 19.5335 18.666 19.5055 18.859 19.5717C18.8592 19.5719 18.8595 19.5719 18.8596 19.5719C19.1232 19.6625 19.3138 19.929 19.3548 20.3277C19.4258 21.0191 19.0205 21.8465 18.4496 22.176Z" fill="#FFDE9B"/>
<path d="M18.3569 22.1353C18.1151 22.2748 17.8828 22.3027 17.6895 22.2363C17.4748 22.1196 17.3236 21.8716 17.2873 21.5214C17.2165 20.8302 17.6217 20.0024 18.1928 19.6729C18.434 19.5335 18.666 19.5055 18.859 19.5717C18.8592 19.5719 18.8596 19.5719 18.8596 19.5719C19.0745 19.6887 19.2261 19.9367 19.2619 20.2869C19.3328 20.9784 18.9276 21.8057 18.3567 22.1353H18.3569Z" fill="#FEBC1F"/>
<path d="M17.5327 23.5336L17.2217 23.3529L17.2197 21.8528L17.5308 22.0336L17.5327 23.5336Z" fill="#887753"/>
<path d="M17.5308 22.0336L17.2197 21.8529L24.834 17.4567L25.1452 17.6374L17.5308 22.0336Z" fill="#B0B8CF"/>
<path d="M25.1457 17.6374L25.1476 19.1374L17.5332 23.5336L17.5312 22.0336L25.1457 17.6374Z" fill="#9EA9C9"/>
<path d="M25.1347 17.798C24.9328 17.7094 24.6819 17.7297 24.4204 17.8806C23.8493 18.2103 23.444 19.0382 23.5149 19.7296C23.5535 20.1045 23.7239 20.3621 23.9629 20.4672L24.1167 20.5348C23.8776 20.4298 23.7071 20.172 23.6687 19.7971C23.5977 19.1057 24.0031 18.2779 24.5741 17.9481C24.8356 17.7972 25.0865 17.7769 25.2885 17.8657L25.1347 17.798Z" fill="#497BFE"/>
<path d="M24.5746 17.9481C25.1457 17.6185 25.666 17.9119 25.737 18.6034C25.808 19.2948 25.4028 20.1225 24.8317 20.4521C24.2607 20.7818 23.7401 20.4887 23.6692 19.7973C23.5982 19.1057 24.0036 18.2779 24.5746 17.9481Z" fill="#57B3FE"/>
<path d="M24.613 18.3226C25.0133 18.0915 25.3781 18.2971 25.4278 18.7817C25.4776 19.2664 25.1936 19.8468 24.7932 20.0778C24.3929 20.3089 24.0281 20.1034 23.9783 19.6187C23.9286 19.134 24.2127 18.5536 24.613 18.3226Z" fill="#FEBC1F"/>
<path d="M24.7923 20.0778C24.5949 20.1918 24.4059 20.1995 24.2593 20.12C24.1087 20.0382 24.0027 19.8643 23.9773 19.6187C23.9276 19.1341 24.2118 18.5536 24.6123 18.3225C24.7813 18.2248 24.9441 18.2051 25.0793 18.2516L25.0798 18.2517C25.2646 18.3152 25.3984 18.5021 25.427 18.7818C25.4767 19.2666 25.1927 19.8467 24.7923 20.0778Z" fill="#497BFE"/>
<path d="M24.7272 20.0492C24.5578 20.147 24.3948 20.1665 24.2593 20.1199C24.1087 20.0382 24.0027 19.8643 23.9773 19.6188C23.9276 19.1341 24.2118 18.5537 24.6123 18.3225C24.7813 18.2248 24.9441 18.2051 25.0793 18.2516L25.0798 18.2517C25.2305 18.3336 25.3368 18.5076 25.3619 18.7531C25.4117 19.2379 25.1275 19.8182 24.7272 20.0492Z" fill="#5094FF"/>
<path d="M22.8629 18.6162C22.6209 18.5099 22.3202 18.5342 22.0069 18.7152C21.3225 19.1103 20.8368 20.1024 20.9218 20.931C20.9679 21.3801 21.1722 21.689 21.4588 21.815L21.6429 21.8959C21.3565 21.7699 21.1522 21.4611 21.106 21.0119C21.0209 20.1833 21.5068 19.1912 22.1911 18.7961C22.5045 18.6152 22.8052 18.5908 23.0473 18.6971L22.8629 18.6162Z" fill="#C9CEE2"/>
<path d="M22.1915 18.7961C22.8758 18.401 23.4995 18.7526 23.5845 19.5811C23.6696 20.4098 23.1838 21.4017 22.4995 21.7968C21.8152 22.1919 21.1914 21.8405 21.1064 21.0119C21.0212 20.1833 21.5071 19.1912 22.1915 18.7961Z" fill="#F3F1FC"/>
<path d="M22.2371 19.2447C22.7169 18.9678 23.154 19.2141 23.2137 19.7951C23.2733 20.3759 22.9328 21.0712 22.453 21.3482C21.9734 21.6251 21.5362 21.3789 21.4765 20.7979C21.4169 20.2171 21.7574 19.5216 22.2371 19.2447Z" fill="#FEBC1F"/>
<path d="M22.4531 21.3482C22.2164 21.4848 21.9901 21.494 21.8143 21.3987C21.6339 21.3006 21.5067 21.0922 21.4765 20.7979C21.4169 20.2171 21.7574 19.5216 22.2373 19.2447C22.4399 19.1275 22.6349 19.104 22.7971 19.1597L22.7976 19.1598C23.019 19.2359 23.1793 19.4599 23.2137 19.795C23.2733 20.3759 22.9328 21.0713 22.4531 21.3482Z" fill="#B0B8CF"/>
<path d="M22.375 21.3139C22.1721 21.4311 21.9767 21.4545 21.8144 21.3987C21.6339 21.3006 21.5067 21.0922 21.4765 20.7979C21.4169 20.2171 21.7574 19.5216 22.2373 19.2447C22.4399 19.1275 22.6349 19.104 22.7971 19.1597L22.7976 19.1598C22.9782 19.258 23.1055 19.4665 23.1357 19.7607C23.1953 20.3416 22.8547 21.0369 22.375 21.3139Z" fill="white"/>
<path d="M20.1438 19.6214C19.8557 19.495 19.4979 19.524 19.125 19.7393C18.3106 20.2094 17.7325 21.39 17.8338 22.3762C17.8886 22.9107 18.1318 23.2783 18.4727 23.428L18.692 23.5244C18.3511 23.3746 18.1079 23.007 18.053 22.4726C17.9518 21.4864 18.5299 20.3058 19.3443 19.8355C19.7172 19.6202 20.075 19.5913 20.363 19.7178L20.1438 19.6214Z" fill="#FFDE9B"/>
<path d="M19.3448 19.8355C20.1592 19.3654 20.9014 19.7837 21.0026 20.7698C21.1039 21.756 20.5258 22.9364 19.7114 23.4066C18.8971 23.8767 18.1548 23.4585 18.0535 22.4724C17.9523 21.4864 18.5305 20.3057 19.3448 19.8355Z" fill="#FFD06C"/>
<path d="M19.3997 20.3695C19.9705 20.0398 20.4908 20.3332 20.5617 21.0244C20.6327 21.7157 20.2274 22.5431 19.6566 22.8727C19.0857 23.2023 18.5654 22.9092 18.4944 22.2179C18.4235 21.5267 18.8287 20.699 19.3997 20.3695Z" fill="#FEBC1F"/>
<path d="M19.6567 22.8726C19.3751 23.0353 19.1055 23.0463 18.8965 22.9328C18.6817 22.8162 18.5304 22.5681 18.4944 22.2179C18.4234 21.5267 18.8286 20.699 19.3997 20.3694C19.641 20.23 19.8731 20.202 20.066 20.2683L20.0666 20.2684C20.3301 20.359 20.5208 20.6255 20.5617 21.0244C20.6327 21.7157 20.2275 22.543 19.6567 22.8726Z" fill="#FFDE9B"/>
<path d="M19.5637 22.8318C19.3222 22.9714 19.0897 22.9992 18.8965 22.9328C18.6817 22.8162 18.5304 22.5681 18.4944 22.2179C18.4234 21.5267 18.8286 20.699 19.3997 20.3694C19.641 20.23 19.8731 20.202 20.066 20.2683L20.0666 20.2684C20.2816 20.3852 20.433 20.6334 20.4689 20.9835C20.5399 21.6749 20.1346 22.5023 19.5638 22.8318H19.5637Z" fill="#FEBC1F"/>
<path d="M18.7398 24.2303L18.4287 24.0494L18.4268 22.5494L18.7379 22.7303L18.7398 24.2303Z" fill="#887753"/>
<path d="M18.7379 22.7303L18.4268 22.5494L26.0412 18.1533L26.3523 18.3341L18.7379 22.7303Z" fill="#B0B8CF"/>
<path d="M26.3516 18.3341L26.3535 19.8341L18.7391 24.2303L18.7373 22.7303L26.3516 18.3341Z" fill="#9EA9C9"/>
<path d="M26.3417 18.4947C26.1397 18.4059 25.8889 18.4262 25.6274 18.5773C25.0563 18.9069 24.6509 19.7348 24.7219 20.4263C24.7603 20.801 24.9308 21.0588 25.1699 21.1638L25.3237 21.2313C25.0846 21.1263 24.9142 20.8686 24.8757 20.4938C24.8047 19.8023 25.2101 18.9744 25.7811 18.6448C26.0426 18.4938 26.2934 18.4734 26.4955 18.5622L26.3417 18.4947Z" fill="#497BFE"/>
<path d="M25.7807 18.6448C26.3518 18.3151 26.8722 18.6084 26.9432 19.2999C27.0142 19.9913 26.6087 20.8189 26.0378 21.1486C25.4668 21.4783 24.9461 21.1852 24.8753 20.4938C24.8043 19.8023 25.2097 18.9744 25.7807 18.6448Z" fill="#57B3FE"/>
<path d="M25.8191 19.0191C26.2194 18.788 26.5842 18.9936 26.6339 19.4783C26.6837 19.963 26.3996 20.5433 25.9993 20.7744C25.599 21.0055 25.2341 20.8 25.1844 20.3153C25.1346 19.8306 25.4187 19.2502 25.8191 19.0191Z" fill="#FEBC1F"/>
<path d="M25.9993 20.7743C25.8018 20.8884 25.6129 20.8961 25.4663 20.8165C25.3157 20.7348 25.2096 20.5608 25.1844 20.3153C25.1346 19.8306 25.4187 19.2502 25.8192 19.0191C25.9882 18.9213 26.151 18.9017 26.2864 18.9481C26.2864 18.9484 26.2867 18.9484 26.2867 18.9484C26.4715 19.0117 26.6053 19.1987 26.634 19.4783C26.6838 19.9631 26.3995 20.5432 25.9993 20.7743Z" fill="#497BFE"/>
<path d="M25.9341 20.7457C25.7647 20.8435 25.6018 20.863 25.4663 20.8165C25.3157 20.7348 25.2096 20.5608 25.1844 20.3153C25.1346 19.8306 25.4187 19.2502 25.8192 19.0191C25.9882 18.9213 26.151 18.9017 26.2864 18.9481C26.2864 18.9484 26.2866 18.9484 26.2867 18.9484C26.4374 19.0302 26.5437 19.2041 26.5688 19.4497C26.6186 19.9344 26.3344 20.5145 25.9341 20.7457Z" fill="#5094FF"/>
<path d="M24.07 19.3128C23.8278 19.2065 23.5273 19.2308 23.2138 19.4118C22.5295 19.8068 22.0437 20.7989 22.1288 21.6277C22.1748 22.0766 22.3793 22.3856 22.6657 22.5115L22.85 22.5924C22.5634 22.4665 22.3591 22.1576 22.313 21.7084C22.228 20.8798 22.7139 19.8877 23.3981 19.4926C23.7114 19.3117 24.0121 19.2873 24.2542 19.3937L24.07 19.3128Z" fill="#C9CEE2"/>
<path d="M23.3975 19.4926C24.0818 19.0976 24.7055 19.4491 24.7905 20.2777C24.8756 21.1063 24.3899 22.0982 23.7055 22.4933C23.0212 22.8884 22.3975 22.5372 22.3124 21.7084C22.2274 20.8798 22.7133 19.8877 23.3975 19.4926Z" fill="#F3F1FC"/>
<path d="M23.4442 19.9413C23.9239 19.6643 24.3612 19.9107 24.4207 20.4916C24.4802 21.0724 24.1398 21.7678 23.6602 22.0447C23.1804 22.3217 22.7432 22.0754 22.6835 21.4946C22.6239 20.9137 22.9644 20.2182 23.4442 19.9413Z" fill="#FEBC1F"/>
<path d="M23.6602 22.0447C23.4235 22.1814 23.1971 22.1906 23.0214 22.0952C22.841 21.9973 22.7138 21.7889 22.6835 21.4946C22.6239 20.9137 22.9644 20.2182 23.4443 19.9412C23.647 19.8241 23.8419 19.8006 24.0041 19.8563H24.0047C24.2262 19.9325 24.3863 20.1565 24.4208 20.4915C24.4804 21.0725 24.1398 21.7677 23.6601 22.0447H23.6602Z" fill="#B0B8CF"/>
<path d="M23.5821 22.0104C23.3791 22.1277 23.1838 22.1511 23.0214 22.0952C22.841 21.9973 22.7138 21.7889 22.6835 21.4946C22.6239 20.9137 22.9644 20.2182 23.4443 19.9412C23.647 19.8241 23.8419 19.8006 24.0041 19.8563H24.0047C24.1854 19.9546 24.3126 20.163 24.3428 20.4573C24.4024 21.0382 24.0618 21.7334 23.5821 22.0104Z" fill="white"/>
<path d="M21.3508 20.3181C21.0628 20.1915 20.705 20.2205 20.3321 20.4358C19.5177 20.906 18.9396 22.0866 19.0408 23.0727C19.0956 23.6072 19.3388 23.9748 19.6797 24.1246L19.899 24.221C19.5581 24.0712 19.3149 23.7035 19.2601 23.1691C19.1588 22.183 19.7371 21.0024 20.5513 20.5322C20.9242 20.3169 21.282 20.2879 21.5701 20.4144L21.3508 20.3181Z" fill="#FFDE9B"/>
<path d="M20.551 20.5322C21.3653 20.0619 22.1075 20.4802 22.2087 21.4664C22.3099 22.4526 21.7319 23.6329 20.9175 24.1031C20.1031 24.5733 19.3609 24.1552 19.2595 23.1691C19.1583 22.183 19.7365 21.0024 20.5509 20.5322H20.551Z" fill="#FFD06C"/>
<path d="M20.6056 21.066C21.1764 20.7364 21.6968 21.0298 21.7678 21.721C21.8387 22.4122 21.4335 23.2397 20.8626 23.5693C20.2918 23.8989 19.7713 23.6058 19.7005 22.9146C19.6295 22.2232 20.0347 21.3956 20.6056 21.066Z" fill="#FEBC1F"/>
<path d="M20.8627 23.5691C20.5811 23.7318 20.3117 23.7428 20.1025 23.6294C19.8878 23.5127 19.7365 23.2647 19.7004 22.9145C19.6295 22.2233 20.0348 21.3956 20.6058 21.066C20.847 20.9267 21.0791 20.8986 21.2721 20.9648C21.2723 20.9651 21.2724 20.9651 21.2727 20.9651C21.5363 21.0556 21.7269 21.3221 21.7678 21.7209C21.8388 22.4122 21.4335 23.2396 20.8627 23.5691Z" fill="#FFDE9B"/>
<path d="M20.7698 23.5284C20.5282 23.6679 20.2958 23.6958 20.1025 23.6294C19.8878 23.5127 19.7365 23.2647 19.7004 22.9145C19.6295 22.2233 20.0348 21.3956 20.6058 21.066C20.847 20.9267 21.0791 20.8986 21.2721 20.9648C21.2723 20.9651 21.2724 20.9651 21.2727 20.9651C21.4876 21.0818 21.6391 21.3299 21.675 21.6801C21.7459 22.3715 21.3406 23.1988 20.7698 23.5284Z" fill="#FEBC1F"/>
<path d="M19.768 23.4463L19.7641 25.5435L11.5088 20.7773L11.5128 18.68L19.768 23.4463Z" fill="#1D2943"/>
<path d="M11.9821 19.7197L12.0814 20.4719C12.0966 20.5865 12.1759 20.7103 12.2697 20.7641L13.7368 21.6112C13.83 21.6651 13.9102 21.6336 13.926 21.5371L13.9321 21.4986L14.0294 20.9018C14.0493 20.7789 13.9599 20.605 13.8416 20.5364L12.2362 19.6098L12.1714 19.5724C12.053 19.5042 11.9627 19.5741 11.9821 19.7197ZM14.6146 21.2398L14.7143 21.9921C14.7292 22.1066 14.809 22.2303 14.9021 22.2841L16.3699 23.1313C16.463 23.1852 16.5428 23.1536 16.559 23.0572L16.565 23.0186L16.6625 22.4219C16.6824 22.2989 16.5929 22.125 16.4741 22.0565L14.8688 21.1294L14.8043 21.0924C14.6856 21.0242 14.5955 21.0943 14.6146 21.2398ZM17.2476 22.7599L17.3469 23.5122C17.3622 23.6266 17.4419 23.7504 17.5352 23.8041L19.0023 24.6514C19.096 24.7052 19.1757 24.6737 19.1916 24.5772L19.1981 24.5387L19.2949 23.9419C19.3148 23.819 19.2254 23.6451 19.1071 23.5765L17.5017 22.65L17.4369 22.6125C17.3185 22.5443 17.2282 22.6143 17.2476 22.7599Z" fill="#4C5C75"/>
<path d="M12.2363 19.6098C12.2363 19.6201 12.2373 19.6307 12.2387 19.6423L12.3379 20.3945C12.3532 20.509 12.433 20.6329 12.5263 20.6867L13.9322 21.4986L14.0295 20.9018C14.0495 20.7789 13.96 20.605 13.8418 20.5364L12.2363 19.6098ZM14.8688 21.1294C14.8688 21.1402 14.8699 21.1511 14.8712 21.1624L14.9709 21.9146C14.9863 22.029 15.0655 22.1529 15.1592 22.2068L16.5651 23.0186L16.6626 22.4218C16.6825 22.2989 16.593 22.125 16.4742 22.0564L14.8689 21.1294H14.8688ZM17.5018 22.65C17.5018 22.6602 17.5028 22.6713 17.5043 22.6826L17.6039 23.4346C17.6187 23.5491 17.6985 23.673 17.7918 23.7268L19.1982 24.5387L19.295 23.9419C19.315 23.819 19.2255 23.6451 19.1073 23.5765L17.5018 22.65Z" fill="#C9CEE2"/>
<path d="M19.782 23.1815L19.7683 23.4463L11.5127 18.68H11.9698L19.782 23.1815Z" fill="#4C5C75"/>
<path d="M28.1519 18.5744L28.1479 20.6716L19.7646 25.5435L19.7686 23.4463L28.1519 18.5744Z" fill="#111D33"/>
<path d="M27.6145 19.667L27.5153 20.419C27.4999 20.5336 27.4207 20.6574 27.3269 20.7113L25.8597 21.5585C25.7666 21.6122 25.6863 21.5807 25.6706 21.4842L25.6646 21.4458L25.5671 20.8489C25.5472 20.7261 25.6367 20.5522 25.755 20.4835L27.3603 19.5571L27.4253 19.5194C27.5436 19.4513 27.634 19.5213 27.6145 19.667ZM24.9821 21.187L24.8823 21.9391C24.8675 22.0537 24.7877 22.1775 24.6944 22.2313L23.2268 23.0785C23.1336 23.1323 23.0539 23.1007 23.0376 23.0043L23.0315 22.9659L22.9342 22.369C22.9143 22.2462 23.0037 22.0723 23.1226 22.0036L24.7279 21.0767L24.7924 21.0396C24.9111 20.9714 25.001 21.0414 24.9819 21.1869L24.9821 21.187ZM22.349 22.7071L22.2498 23.4591C22.2344 23.5737 22.1547 23.6975 22.0614 23.7514L20.5942 24.5986C20.5006 24.6523 20.4208 24.6208 20.4051 24.5243L20.3986 24.4859L20.3016 23.889C20.2817 23.7662 20.3712 23.5923 20.4895 23.5236L22.0948 22.5972L22.1598 22.5596C22.2781 22.4914 22.3685 22.5616 22.349 22.7071Z" fill="#4C5C75"/>
<path d="M27.3603 19.5571C27.3603 19.5672 27.3595 19.5778 27.358 19.5894L27.2588 20.3417C27.2436 20.4562 27.1637 20.58 27.0705 20.6337L25.6646 21.4458L25.5671 20.8489C25.5472 20.7261 25.6367 20.5522 25.755 20.4835L27.3603 19.5571ZM24.7279 21.0766C24.7279 21.0873 24.7269 21.0984 24.7255 21.1095L24.6258 21.8618C24.6105 21.9763 24.5313 22.1 24.4375 22.1538L23.0315 22.9659L22.9342 22.369C22.9143 22.2462 23.0037 22.0723 23.1226 22.0036L24.7279 21.0766ZM22.0948 22.5972C22.0948 22.6073 22.094 22.6184 22.0925 22.6296L21.9928 23.3819C21.9781 23.4963 21.8982 23.6201 21.805 23.6738L20.3986 24.4859L20.3016 23.889C20.2817 23.7662 20.3712 23.5923 20.4895 23.5236L22.0948 22.5972Z" fill="#C9CEE2"/>
<path d="M19.9796 9.10455C19.9716 9.0908 19.9611 9.07875 19.9485 9.06909C19.9359 9.05943 19.9216 9.05234 19.9063 9.04824C19.8909 9.04413 19.8749 9.04309 19.8592 9.04517C19.8435 9.04725 19.8283 9.05241 19.8146 9.06035L18.765 9.6663C18.5006 9.81905 18.2941 10.1768 18.2949 10.4811L18.3009 11.6368C18.3011 11.7254 18.2309 11.8468 18.1539 11.8912L11.3183 15.8092C11.3104 15.8139 11.302 15.8176 11.2932 15.8201C11.2912 15.8116 11.2902 15.8029 11.2903 15.7941L11.2845 14.6385C11.2839 14.4706 11.2178 14.3366 11.1031 14.2706C11.0511 14.2414 10.9922 14.2268 10.9326 14.2283V14.47C10.9499 14.4689 10.9672 14.4723 10.9827 14.4799C11.0208 14.5018 11.0427 14.5599 11.043 14.6395L11.0488 15.7951C11.049 15.9017 11.0935 15.9883 11.1705 16.033C11.2053 16.0529 11.2442 16.0628 11.2851 16.0628C11.335 16.0628 11.3875 16.0479 11.4386 16.0185L18.2743 12.1007C18.4276 12.0122 18.5428 11.8126 18.5423 11.6358L18.5364 10.4804C18.5358 10.2622 18.6958 9.98533 18.8858 9.87569L19.9354 9.26962C19.9631 9.2536 19.9833 9.22723 19.9916 9.1963C19.9999 9.16536 19.9956 9.13228 19.9796 9.10455Z" fill="#111D33"/>
<path d="M20.6921 9.51909C20.6842 9.50533 20.6736 9.49327 20.661 9.48359C20.6484 9.47392 20.6341 9.46683 20.6187 9.46272C20.6034 9.45862 20.5874 9.45758 20.5717 9.45967C20.5559 9.46175 20.5407 9.46693 20.527 9.47489L19.4774 10.0808C19.213 10.2336 19.0065 10.5914 19.0074 10.8957L19.0132 12.0513C19.0135 12.1399 18.9433 12.2613 18.8664 12.3057L12.0307 16.2235C12.0228 16.2282 12.0144 16.2319 12.0056 16.2345C12.0036 16.226 12.0027 16.2172 12.0028 16.2084L11.9968 15.0529C11.9963 14.8851 11.9304 14.751 11.8155 14.685C11.7002 14.6186 11.5497 14.6294 11.4024 14.7141L10.9727 14.9622C10.997 15.0417 11.0205 15.1214 11.0405 15.2019L11.5232 14.9233C11.5938 14.8825 11.6566 14.8723 11.6951 14.8944C11.7332 14.9162 11.7551 14.9743 11.7554 15.0538L11.7613 16.2094C11.7615 16.3161 11.806 16.4028 11.883 16.4473C11.9178 16.4673 11.9567 16.4772 11.9975 16.4772C12.0474 16.4772 12.0999 16.4624 12.151 16.4329L18.9868 12.515C19.1401 12.4266 19.2552 12.227 19.2549 12.0503L19.2488 10.8947C19.2483 10.6766 19.4082 10.3996 19.5982 10.2901L20.6478 9.68404C20.6615 9.67612 20.6736 9.66557 20.6832 9.653C20.6929 9.64042 20.7 9.62606 20.7041 9.61074C20.7082 9.59543 20.7093 9.57945 20.7072 9.56372C20.7051 9.54799 20.7 9.53283 20.6921 9.51909Z" fill="#1D2943"/>
<path d="M12.7116 16.8918C12.6708 16.8918 12.6319 16.8819 12.5971 16.8618C12.5201 16.8174 12.4757 16.7307 12.4754 16.6239L12.4695 15.4683C12.4693 15.3889 12.4473 15.3308 12.4092 15.3089C12.3706 15.2868 12.3079 15.2971 12.2373 15.3379L11.1877 15.9438C11.1739 15.9519 11.1588 15.9572 11.143 15.9593C11.1272 15.9615 11.1111 15.9605 11.0957 15.9564C11.0804 15.9523 11.0659 15.9453 11.0533 15.9356C11.0406 15.9259 11.03 15.9138 11.022 15.9001C11.0141 15.8863 11.0089 15.871 11.0069 15.8552C11.0048 15.8394 11.0059 15.8234 11.0101 15.808C11.0143 15.7927 11.0214 15.7783 11.0312 15.7657C11.0409 15.7531 11.0531 15.7426 11.0669 15.7347L12.1165 15.1286C12.2639 15.0439 12.4143 15.0332 12.5296 15.0995C12.6443 15.1656 12.7104 15.2996 12.711 15.4675L12.7169 16.6231C12.7169 16.6349 12.7184 16.6436 12.7197 16.6491C12.7285 16.6465 12.7369 16.6429 12.7448 16.6382L19.5805 12.7203C19.6574 12.6759 19.7277 12.5545 19.7275 12.4657L19.7214 11.3102C19.7207 11.0059 19.9272 10.6481 20.1915 10.4954L21.2412 9.88945C21.255 9.88139 21.2702 9.87613 21.286 9.87398C21.3017 9.87182 21.3178 9.8728 21.3332 9.87688C21.3486 9.88095 21.363 9.88802 21.3757 9.8977C21.3883 9.90737 21.3989 9.91945 21.4069 9.93324C21.4149 9.94703 21.42 9.96226 21.4221 9.97805C21.4241 9.99385 21.423 10.0099 21.4188 10.0253C21.4147 10.0406 21.4075 10.055 21.3977 10.0676C21.388 10.0802 21.3758 10.0907 21.362 10.0986L20.3123 10.7047C20.1223 10.8143 19.9624 11.0911 19.9631 11.3093L19.969 12.4649C19.9693 12.6416 19.8543 12.8412 19.7009 12.9296L12.8651 16.8475C12.8141 16.8769 12.7615 16.8918 12.7116 16.8918Z" fill="#4C5C75"/>
<path d="M11.461 13.765L11.4719 18.3521H10.9556L10.8691 13.765H11.461Z" fill="#C9CEE2"/>
</svg>
