<svg width="32" height="32" viewBox="0 0 32 32" fill="none" xmlns="http://www.w3.org/2000/svg">
<path d="M30.0828 14.2513C30.0822 14.3311 30.0541 14.3872 30.0085 14.4131L29.0424 14.9698C29.0878 14.9438 29.116 14.8878 29.1165 14.808C29.1177 14.6476 29.0057 14.4518 28.8662 14.3706C28.7963 14.3299 28.7327 14.3258 28.6865 14.3525L29.6528 13.7958C29.6988 13.7691 29.7622 13.7733 29.8324 13.8139C29.972 13.8952 30.0839 14.091 30.0828 14.2513Z" fill="#4C5C75"/>
<path d="M28.6007 13.2521C28.3703 13.1181 28.1611 13.1048 28.0096 13.1921L27.6558 13.396C27.8072 13.3088 28.0163 13.3218 28.2467 13.4561C28.7046 13.7227 29.0731 14.3666 29.0696 14.8938C29.0679 15.1558 28.9746 15.3399 28.825 15.4261L29.179 15.2221C29.3285 15.136 29.4217 14.952 29.4234 14.69C29.427 14.1628 29.0584 13.5188 28.6007 13.2521Z" fill="#1D2943"/>
<path d="M28.2468 13.456C27.7889 13.1894 27.4147 13.4007 27.4112 13.928C27.4075 14.4554 27.7763 15.0993 28.2341 15.3659C28.6919 15.6325 29.066 15.4212 29.0695 14.8938C29.073 14.3665 28.7047 13.7227 28.2468 13.456Z" fill="#4C5C75"/>
<path d="M28.8496 14.8243C28.8481 15.0277 28.7765 15.1702 28.6606 15.2366L26.2008 16.6538C26.3167 16.5873 26.3882 16.4448 26.3897 16.2415C26.3926 15.8333 26.1075 15.335 25.7523 15.1281C25.5745 15.0243 25.4122 15.014 25.2949 15.0819L27.7547 13.6646C27.8721 13.5968 28.0336 13.6072 28.2122 13.711C28.5673 13.9177 28.8525 14.4162 28.8496 14.8243Z" fill="#1D2943"/>
<path d="M14.874 18.4975L14.8623 29.5925L16.9861 28.3439C16.7214 28.0806 16.5108 27.7485 16.4198 27.4177C16.2887 26.9417 16.3345 26.239 16.6287 25.8203C16.9237 25.4005 17.1878 25.1214 17.6234 24.8417C17.7538 24.7581 17.8971 24.6965 18.0388 24.6343C18.3732 24.4872 18.6971 24.3159 19.0151 24.1362C19.7071 23.7452 23.4365 21.5078 24.0684 21.0262C24.5011 20.6967 25.1606 20.7023 25.666 20.8173C26.1945 20.9377 26.6196 21.3274 26.9049 21.7701C27.0294 21.9632 27.1112 22.1988 27.1522 22.4442L27.5624 22.2058L27.5742 11.1108L14.874 18.4975Z" fill="#C9CEE2"/>
<path d="M27.5744 11.1108L14.8743 18.4976L5.18164 12.9016L17.8819 5.51477L27.5744 11.1108Z" fill="#E3E7F0"/>
<path d="M27.6001 22.1935L25.0401 23.6715L25.0377 22.8733C25.0365 22.4301 24.7225 22.2502 24.3361 22.4736L18.1462 26.0649C17.7598 26.2883 17.4471 26.8292 17.4483 27.2736L17.4507 28.0706L14.8617 29.5921L13.5708 28.847C13.6215 28.6732 13.6469 28.492 13.6385 28.3073C13.6143 27.7615 13.432 27.2301 13.0311 26.8413C12.8946 26.7085 12.7449 26.5926 12.606 26.4633C12.5348 26.3317 12.4502 26.2738 12.3705 26.1446C12.0855 25.6784 11.8609 26.0395 11.39 25.7581C11.2052 25.6483 10.7053 25.2039 10.5109 25.1133C10.3358 24.8295 9.64751 24.6617 9.35166 24.4878C8.90728 24.2282 8.46773 23.7186 7.97022 23.8792C7.46788 24.0422 7.39664 24.2234 7.14305 24.7027C7.08509 24.8126 7.03437 24.9286 6.9909 25.0481L5.16992 23.9963L5.18079 12.9014L14.8738 18.4972L27.5735 11.1106L27.6001 22.1935Z" fill="#9EA9C9"/>
<path d="M5.18176 12.9015L5.16992 23.9966L6.99139 25.0481C7.03425 24.929 7.08533 24.8132 7.14354 24.703C7.397 24.2236 7.46873 24.0422 7.97034 23.8798C8.46858 23.7186 8.90764 24.2283 9.35202 24.4884C9.64775 24.6613 10.3364 24.8301 10.5113 25.1135C10.706 25.2039 11.2054 25.6486 11.3904 25.7587C11.8617 26.0391 12.0858 25.6782 12.3714 26.1451C12.4501 26.2739 12.5354 26.3313 12.6066 26.4637C12.7447 26.5928 12.8952 26.7085 13.0317 26.8411C13.4323 27.2299 13.6145 27.7618 13.6391 28.307C13.6473 28.492 13.6219 28.6731 13.5717 28.8473L14.8625 29.5926L14.8743 18.4976L5.18164 12.9016L5.18176 12.9015Z" fill="#9EA9C9"/>
<path d="M27.5743 11.1107L27.6006 22.193L25.0402 23.6711L25.0381 22.8736C25.0369 22.4297 24.7225 22.2505 24.336 22.4737L18.1459 26.0653C17.7595 26.2885 17.4472 26.8294 17.4484 27.2731L17.4507 28.0708L14.8623 29.5923L14.874 18.4974L27.5742 11.1108L27.5743 11.1107Z" fill="#B0B8CF"/>
<path d="M27.6001 22.1934L25.0401 23.6715L24.0729 23.1088L24.0717 22.627L18.1462 26.0648C17.7598 26.2882 17.4471 26.8292 17.4483 27.2736L17.4507 28.0706L14.8617 29.5921L12.2727 28.0923L12.2751 27.2953C12.2763 26.851 11.9648 26.31 11.5784 26.0866L8.72253 24.4383L8.72132 24.9213L7.75407 25.484L5.16992 23.9963L5.17234 21.5752L8.86743 23.7101L8.92781 23.6751C8.90849 23.686 8.89158 23.6993 8.87468 23.715L14.8653 27.1746L23.9304 21.9121C23.9111 21.8928 23.8893 21.8759 23.8664 21.8626L23.9412 21.9061L27.5796 19.7928L27.6001 22.1934Z" fill="#1D2943"/>
<path d="M7.75669 24.6859C7.75729 24.4655 7.83518 24.3103 7.96077 24.2374L8.92801 23.6753C8.80242 23.7482 8.72454 23.9034 8.72394 24.1238L8.72164 24.9215L7.75439 25.4836L7.75669 24.6859Z" fill="#4C5C75"/>
<path d="M25.038 22.8736C25.0374 22.6531 24.9595 22.498 24.8339 22.425L23.8667 21.8629C23.9923 21.9359 24.0701 22.091 24.0708 22.3115L24.0729 23.1091L25.0402 23.6712L25.038 22.8736Z" fill="#1D2943"/>
<path d="M27.58 19.7933L27.6006 22.193L25.0402 23.6711L25.0381 22.8735C25.0369 22.4297 24.7225 22.2505 24.336 22.4737L18.1459 26.0653C17.7595 26.2885 17.4472 26.8294 17.4484 27.2731L17.4507 28.0708L14.8623 29.5923L14.8648 27.1748L27.58 19.7933Z" fill="#4C5C75"/>
<path d="M5.17258 21.5754L5.16992 23.9966L7.75443 25.4835L7.75673 24.6858C7.75794 24.2421 8.07226 24.063 8.45868 24.2861L11.5781 26.0871C11.9647 26.3102 12.2769 26.8511 12.2756 27.2949L12.2734 28.0926L14.8624 29.5923L14.8651 27.1748L5.17258 21.5754Z" fill="#1D2943"/>
<path d="M13.6301 21.5096L13.6131 25.8568L6.40771 21.6968L6.42462 17.3496L13.6301 21.5096ZM26.5648 19.968L15.9203 26.1135L15.8979 20.1712L26.5425 14.0256L26.5648 19.968Z" fill="#E3E7F0"/>
<path d="M20.0608 18.6876C20.1463 18.6381 20.2168 18.6783 20.217 18.7766L20.2197 19.7228C20.2201 19.8218 20.15 19.943 20.0645 19.9923L16.8353 21.8568C16.7491 21.9065 16.6787 21.8665 16.6783 21.7674L16.6758 20.8212C16.6754 20.7229 16.7455 20.6017 16.8316 20.5519L20.0608 18.6875V18.6876Z" fill="white"/>
<path d="M20.0599 18.5654C20.2048 18.4818 20.3232 18.5493 20.3237 18.7157L20.3264 19.6612C20.3269 19.8278 20.2093 20.0316 20.0643 20.1153L16.8357 21.9793C16.6908 22.0629 16.573 21.995 16.5725 21.8286L16.5698 20.883C16.5693 20.7166 16.6865 20.5132 16.8314 20.4295L20.0599 18.5654ZM20.2198 19.7227L20.2171 18.7766C20.2169 18.6783 20.1463 18.6382 20.0608 18.6876L16.8316 20.5521C16.7455 20.6017 16.6755 20.7229 16.6758 20.8212L16.6785 21.7673C16.6787 21.8664 16.7493 21.9066 16.8354 21.8567L20.0646 19.9924C20.1501 19.943 20.2201 19.8219 20.2198 19.7227Z" fill="#1D2943"/>
<path d="M19.8241 18.3017C19.7761 18.274 19.71 18.2777 19.637 18.3199L16.4084 20.1838C16.2635 20.2675 16.1465 20.471 16.147 20.6375L16.1496 21.583C16.1499 21.6658 16.1792 21.7243 16.2264 21.7517L16.6493 21.9974C16.602 21.9699 16.5726 21.9115 16.5724 21.8286L16.5697 20.8831C16.5693 20.7167 16.6864 20.5132 16.8313 20.4296L20.0598 18.5655C20.1327 18.5234 20.1989 18.5196 20.2468 18.5474L19.8241 18.3017Z" fill="#4C5C75"/>
<path d="M17.4648 20.767L17.5177 20.7978L17.5629 20.824L17.5786 20.833L17.5804 20.8342C17.5822 20.8353 17.5841 20.8363 17.5859 20.8374C17.5877 20.8385 17.5889 20.8405 17.5914 20.8405C17.5916 20.9563 17.5105 21.0967 17.4091 21.1552L17.2827 21.0818C17.3841 21.0232 17.4651 20.8828 17.4648 20.767Z" fill="#4C5C75"/>
<path d="M17.5914 20.8404L17.561 20.8228L17.5914 20.8403V20.8404ZM17.4649 20.7668C17.4647 20.7088 17.4443 20.668 17.4115 20.6488L17.538 20.7225C17.5709 20.7415 17.5912 20.7824 17.5914 20.8403L17.4649 20.7668ZM17.2828 21.0817L17.4092 21.1551C17.358 21.1847 17.3116 21.1876 17.2783 21.1682L17.1519 21.0948C17.1852 21.1141 17.2316 21.1113 17.2828 21.0817Z" fill="#4C5C75"/>
<path d="M17.4117 20.6489L17.5381 20.7224C17.505 20.7031 17.4591 20.7059 17.4082 20.7352L17.2817 20.6618C17.3326 20.6323 17.3785 20.6297 17.4117 20.6489Z" fill="#F45170"/>
<path d="M17.4685 20.5515L17.5951 20.6251C17.5473 20.5973 17.481 20.6014 17.4077 20.6438L17.2812 20.5703C17.3545 20.528 17.4208 20.5238 17.4685 20.5515Z" fill="#4C5C75"/>
<path d="M17.2786 21.1683L17.1521 21.0946C17.1195 21.0757 17.0992 21.0355 17.0991 20.9782C17.0988 20.8617 17.1804 20.7203 17.2818 20.6617L17.4083 20.7352C17.3068 20.7937 17.2253 20.9351 17.2256 21.0517C17.2258 21.109 17.246 21.1492 17.2787 21.1682L17.2786 21.1683Z" fill="#F45170"/>
<path d="M17.4083 20.7352C17.5097 20.6767 17.5914 20.7238 17.5917 20.8404C17.592 20.9563 17.5108 21.0966 17.4095 21.1552C17.3081 21.2137 17.2259 21.1676 17.2256 21.0517C17.2253 20.9352 17.307 20.7938 17.4083 20.7353V20.7352Z" fill="#8FABFE"/>
<path d="M17.4082 20.6438C17.5535 20.5597 17.6714 20.6262 17.6719 20.7941C17.6724 20.9606 17.5552 21.1634 17.4098 21.2473C17.2643 21.3313 17.1465 21.2642 17.146 21.0976C17.1455 20.9297 17.2625 20.7277 17.408 20.6438H17.4082ZM17.4095 21.1552C17.5109 21.0966 17.5919 20.9561 17.5917 20.8403C17.5913 20.7238 17.5097 20.6767 17.4083 20.7353C17.3068 20.7937 17.2253 20.9351 17.2256 21.0517C17.2259 21.1676 17.3082 21.2137 17.4095 21.1552Z" fill="#1D2943"/>
<path d="M17.2224 21.2658L17.096 21.1923C17.0489 21.1649 17.0198 21.1068 17.0195 21.0241C17.019 20.8562 17.1361 20.6542 17.2816 20.5702L17.408 20.6437C17.2625 20.7276 17.1455 20.9298 17.146 21.0976C17.1462 21.1802 17.1753 21.2384 17.2224 21.2658ZM18.3266 20.4159L18.3118 20.4075L18.2962 20.3984L18.3266 20.4159Z" fill="#4C5C75"/>
<path d="M18.2002 20.3426C18.2 20.2846 18.1797 20.2439 18.1468 20.2249L18.2733 20.2984C18.3061 20.3175 18.3264 20.3582 18.3266 20.416L18.2002 20.3426L18.2962 20.3985L18.3266 20.416C18.3269 20.5319 18.2452 20.6726 18.1439 20.7312L18.0175 20.6576C18.1189 20.5992 18.2004 20.4584 18.2002 20.3425V20.3426ZM18.0175 20.6576C18.0595 20.6823 18.1018 20.7068 18.1439 20.7312C18.0931 20.7605 18.047 20.7633 18.0136 20.744L17.8872 20.6706C17.9204 20.6899 17.9665 20.6871 18.0175 20.6576Z" fill="#4C5C75"/>
<path d="M18.1465 20.2248L18.2731 20.2984C18.2398 20.2791 18.1936 20.2817 18.1425 20.3112L18.0161 20.2378C18.0671 20.2083 18.1132 20.2055 18.1465 20.2248Z" fill="#F45170"/>
<path d="M18.2035 20.1274L18.33 20.2008C18.2823 20.173 18.2161 20.1773 18.1425 20.2198L18.0161 20.1461C18.0895 20.1038 18.1558 20.0997 18.2035 20.1274Z" fill="#4C5C75"/>
<path d="M18.0135 20.744L17.8871 20.6706C17.8545 20.6515 17.8342 20.6113 17.834 20.5539C17.8337 20.4374 17.9154 20.296 18.0162 20.2378L18.1426 20.3112C18.0418 20.3694 17.9602 20.5108 17.9605 20.6273C17.9607 20.6847 17.9809 20.7252 18.0137 20.744H18.0135Z" fill="#F45170"/>
<path d="M18.1425 20.3112C18.244 20.2527 18.3261 20.2995 18.3265 20.4161C18.3268 20.532 18.2452 20.6727 18.1438 20.7312C18.0429 20.7894 17.9607 20.7433 17.9605 20.6274C17.9601 20.5108 18.0417 20.3694 18.1425 20.3112Z" fill="#FFD06C"/>
<path d="M18.1423 20.2197C18.2884 20.1353 18.4058 20.2021 18.4063 20.37C18.4066 20.5366 18.2902 20.739 18.1442 20.8233C17.9992 20.907 17.8807 20.8402 17.8804 20.6735C17.8799 20.5057 17.9974 20.3033 18.1423 20.2197ZM18.1439 20.7311C18.2453 20.6726 18.3269 20.5319 18.3266 20.416C18.3262 20.2994 18.2441 20.2526 18.1427 20.3112C18.0418 20.3694 17.9602 20.5108 17.9606 20.6273C17.9608 20.7432 18.043 20.7893 18.1439 20.7311Z" fill="#1D2943"/>
<path d="M17.9569 20.8416L17.8305 20.7681C17.7834 20.7408 17.7541 20.6827 17.7539 20.6002C17.7534 20.4324 17.871 20.2299 18.0159 20.1462L18.1425 20.2197C17.9976 20.3033 17.88 20.5058 17.8805 20.6737C17.8806 20.7561 17.9098 20.8142 17.9569 20.8415V20.8416ZM19.0616 19.9918L19.0313 19.9741L19.0616 19.9916V19.9918Z" fill="#4C5C75"/>
<path d="M18.9351 19.9183C18.935 19.8603 18.9146 19.8196 18.8818 19.8005L19.0082 19.8741C19.041 19.8932 19.0615 19.9338 19.0616 19.9917L18.9351 19.9183L19.0313 19.9742L19.0616 19.9918C19.0619 20.1077 18.9803 20.2483 18.8789 20.307L18.7524 20.2333C18.8539 20.1749 18.9355 20.0342 18.9351 19.9183Z" fill="#4C5C75"/>
<path d="M18.7524 20.2333L18.8788 20.3069C18.828 20.3362 18.7818 20.3389 18.7485 20.3196L18.6221 20.2462C18.6554 20.2655 18.7015 20.2627 18.7524 20.2333Z" fill="#4C5C75"/>
<path d="M18.8815 19.8005L19.0079 19.8741C18.9746 19.8547 18.9285 19.8574 18.8775 19.8869L18.751 19.8134C18.8021 19.784 18.8482 19.7812 18.8814 19.8005H18.8815Z" fill="#F45170"/>
<path d="M18.9384 19.7029L19.0648 19.7766C19.0171 19.7488 18.9509 19.7529 18.8774 19.7954L18.751 19.7218C18.8245 19.6795 18.8907 19.6753 18.9384 19.7029Z" fill="#4C5C75"/>
<path d="M18.7484 20.3197L18.622 20.2463C18.5894 20.2273 18.5691 20.187 18.5688 20.1296C18.5686 20.0131 18.6502 19.8717 18.7512 19.8135L18.8775 19.8869C18.7767 19.9451 18.6952 20.0865 18.6954 20.203C18.6955 20.2605 18.7159 20.3008 18.7485 20.3197H18.7484Z" fill="#F45170"/>
<path d="M18.8775 19.8868C18.9788 19.8282 19.0611 19.8751 19.0613 19.9916C19.0617 20.1075 18.9801 20.2482 18.8786 20.3068C18.7778 20.365 18.6957 20.3189 18.6953 20.2029C18.695 20.0864 18.7766 19.945 18.8774 19.8868H18.8775Z" fill="#F45170"/>
<path d="M18.8773 19.7954C19.0234 19.7111 19.1405 19.7778 19.1411 19.9457C19.1416 20.1123 19.0252 20.3147 18.8791 20.399C18.7342 20.4827 18.6157 20.4159 18.6152 20.2493C18.6148 20.0814 18.7324 19.879 18.8773 19.7955V19.7954ZM18.8787 20.3069C18.9802 20.2483 19.0618 20.1076 19.0614 19.9917C19.0612 19.8752 18.9789 19.8284 18.8775 19.8869C18.7767 19.9451 18.6952 20.0865 18.6954 20.203C18.6958 20.3189 18.7779 20.3651 18.8787 20.3069Z" fill="#1D2943"/>
<path d="M18.6916 20.4172L18.5652 20.3438C18.5181 20.3165 18.489 20.2584 18.4888 20.1759C18.4883 20.0081 18.6059 19.8056 18.7508 19.7219L18.8772 19.7954C18.7323 19.879 18.6147 20.0815 18.6152 20.2493C18.6154 20.3319 18.6447 20.3899 18.6918 20.4172H18.6916ZM19.6699 19.4939L19.7964 19.5674C19.7967 19.6834 19.715 19.8239 19.6137 19.8826L19.4872 19.8089C19.5886 19.7505 19.6702 19.6097 19.6699 19.4939Z" fill="#4C5C75"/>
<path d="M19.6698 19.494C19.6698 19.436 19.6493 19.3953 19.6164 19.3762L19.743 19.4498C19.7758 19.4688 19.7961 19.5095 19.7964 19.5674L19.6698 19.494ZM19.4871 19.8091L19.6137 19.8825C19.5627 19.9119 19.5166 19.9147 19.4832 19.8953L19.3569 19.8219C19.3901 19.8412 19.4363 19.8385 19.4871 19.809V19.8091Z" fill="#4C5C75"/>
<path d="M19.6164 19.3762L19.7428 19.4497C19.7096 19.4304 19.6633 19.4331 19.6124 19.4625L19.4858 19.3891C19.5369 19.3597 19.583 19.3569 19.6164 19.3762Z" fill="#F45170"/>
<path d="M19.6733 19.2787L19.7998 19.3521C19.7521 19.3244 19.6858 19.3286 19.6124 19.3711L19.4858 19.2974C19.5594 19.2552 19.6256 19.2509 19.6733 19.2787Z" fill="#4C5C75"/>
<path d="M19.4833 19.8954L19.3567 19.8219C19.3241 19.803 19.3038 19.7627 19.3037 19.7053C19.3033 19.5888 19.385 19.4474 19.4858 19.3892L19.6124 19.4626C19.5115 19.5208 19.4299 19.6622 19.4301 19.7787C19.4304 19.8362 19.4507 19.8765 19.4833 19.8954Z" fill="#F45170"/>
<path d="M19.6123 19.3711C19.7584 19.2867 19.8755 19.3535 19.876 19.5214C19.8765 19.688 19.7601 19.8904 19.6139 19.9746C19.469 20.0583 19.3507 19.9915 19.3501 19.8249C19.3496 19.6571 19.4672 19.4548 19.6121 19.3711H19.6123ZM19.6137 19.8825C19.7151 19.8239 19.7968 19.6833 19.7964 19.5673C19.796 19.4508 19.7138 19.4041 19.6125 19.4625C19.5117 19.5207 19.43 19.6621 19.4303 19.7787C19.4306 19.8946 19.5129 19.9407 19.6137 19.8825Z" fill="#1D2943"/>
<path d="M19.6124 19.4625C19.7138 19.4039 19.7959 19.4508 19.7963 19.5673C19.7965 19.6832 19.7149 19.8239 19.6136 19.8825C19.5128 19.9407 19.4305 19.8945 19.4302 19.7786C19.4299 19.6621 19.5116 19.5207 19.6124 19.4625Z" fill="#78E75A"/>
<path d="M19.4268 19.993L19.3004 19.9195C19.2533 19.8922 19.2241 19.8341 19.2238 19.7516C19.2233 19.5838 19.341 19.3813 19.4859 19.2976L19.6124 19.3711C19.4675 19.4548 19.3498 19.6572 19.3504 19.8251C19.3505 19.9077 19.3797 19.9656 19.4268 19.9929V19.993ZM18.4815 3.77314L19.1841 3.36475L19.1822 4.06971L18.4795 4.4781L18.4815 3.77314Z" fill="#4C5C75"/>
<mask id="mask0_199_4866" style="mask-type:luminance" maskUnits="userSpaceOnUse" x="18" y="2" width="2" height="2">
<path d="M18.1333 3.17011L18.8361 2.76184L19.1841 3.36477L18.4816 3.77316L18.1333 3.17011Z" fill="white"/>
</mask>
<g mask="url(#mask0_199_4866)">
<path d="M18.1333 3.17011L18.8361 2.76184L19.1841 3.36477L18.4816 3.77316L18.1333 3.17011Z" fill="#1D2943"/>
</g>
<path d="M17.5195 2.81586L18.2221 2.40747L18.8356 2.76177L18.133 3.17004L17.5195 2.81586Z" fill="#4C5C75"/>
<path d="M18.1332 3.17009L18.4814 3.77314L18.4794 4.47811L17.5166 3.92227L17.5197 2.81592L18.1332 3.17009Z" fill="#111D33"/>
<path d="M18.3439 3.8166L14.4856 6.05901L14.1982 5.56126L18.0566 3.31897L18.3439 3.8166Z" fill="#E9E7FC"/>
<path d="M14.4855 6.05882L18.3438 3.81653L18.3422 4.37417L14.4839 6.61647L14.4855 6.05882Z" fill="#DEDFFB"/>
<path d="M13.7129 5.28099L17.5712 3.0387L18.0567 3.31897L14.1982 5.56114L13.7129 5.28099Z" fill="#C9CEE2"/>
<path d="M14.1978 5.56116L14.2995 5.73722L14.4852 6.05891L14.4836 6.61655L13.71 6.16988L13.7125 5.28101L14.1978 5.56116Z" fill="#7A7C81"/>
<path d="M12.1358 7.46088L14.9793 5.80847L14.9773 6.51344L12.1338 8.16585L12.1358 7.46088Z" fill="#4C5C75"/>
<mask id="mask1_199_4866" style="mask-type:luminance" maskUnits="userSpaceOnUse" x="11" y="5" width="4" height="3">
<path d="M11.7871 6.85773L14.6306 5.20532L14.9788 5.80837L12.1354 7.46078L11.7871 6.85773Z" fill="white"/>
</mask>
<g mask="url(#mask1_199_4866)">
<path d="M11.7871 6.85773L14.6306 5.20532L14.9788 5.80837L12.1354 7.46078L11.7871 6.85773Z" fill="#1D2943"/>
</g>
<path d="M11.1738 6.5036L14.0172 4.8512L14.6308 5.20537L11.7873 6.85778L11.1738 6.5036Z" fill="#4C5C75"/>
<path d="M11.7875 6.85784L12.1357 7.46088L12.1337 8.16585L11.1709 7.61002L11.174 6.50366L11.7875 6.85784Z" fill="#111D33"/>
<path d="M12.0224 7.49018L1.86259 13.3946L1.5752 12.8969L11.7351 6.99243L12.0224 7.49018Z" fill="#E9E7FC"/>
<path d="M1.86241 13.3947L12.0223 7.49023L12.0208 8.04788L1.86084 13.9522L1.86241 13.3947Z" fill="#DEDFFB"/>
<path d="M1.08984 12.6166L11.2499 6.71228L11.7352 6.99243L1.57528 12.8969L1.08984 12.6166Z" fill="#C9CEE2"/>
<path d="M1.57488 12.8968L1.67644 13.0729L1.86216 13.3946L1.86059 13.9521L1.08691 13.5056L1.08945 12.6166L1.57488 12.8968Z" fill="#7A7C81"/>
<path d="M1.5084 13.6367L2.21107 13.2284L2.20902 13.9334L1.50635 14.3418L1.5084 13.6367Z" fill="#4C5C75"/>
<mask id="mask2_199_4866" style="mask-type:luminance" maskUnits="userSpaceOnUse" x="1" y="12" width="2" height="2">
<path d="M1.16016 13.0338L1.86283 12.6254C1.99868 12.8608 2.07487 12.9929 2.21096 13.2284L1.50817 13.6368L1.16016 13.0338Z" fill="white"/>
</mask>
<g mask="url(#mask2_199_4866)">
<path d="M1.16016 13.0338L1.86283 12.6254C1.99868 12.8608 2.07487 12.9929 2.21096 13.2284L1.50817 13.6367L1.16016 13.0338Z" fill="#1D2943"/>
</g>
<path d="M0.546387 12.6795L1.24906 12.2712L1.86261 12.6254L1.15994 13.0338L0.546387 12.6795Z" fill="#4C5C75"/>
<path d="M1.16015 13.0337L1.50829 13.6367L1.50623 14.3418L0.543457 13.7858L0.546597 12.6794L1.16003 13.0337H1.16015Z" fill="#111D33"/>
<path d="M29.0109 11.1073L29.0059 12.1597L13.9976 20.8882L14.0025 19.8358L29.0109 11.1073Z" fill="#9EA9C9"/>
<path d="M14.0024 19.8357L13.9975 20.8881L2.2041 14.0791L2.20905 13.0267L14.0024 19.8357Z" fill="#B0B8CF"/>
<path d="M29.0107 11.1072L14.0024 19.8357L2.20898 13.0267L17.2173 4.29822L29.0107 11.1072Z" fill="#E3E7F0"/>
<path d="M27.7685 11.4485L15.9101 4.55719L15.9092 4.18201L27.7674 11.0734L27.7685 11.4485Z" fill="#FFD06C"/>
<path d="M27.7674 11.0734L15.9092 4.18201L17.1507 3.46521L29.009 10.3564L27.7674 11.0734Z" fill="#FFDE9B"/>
<path d="M27.0839 11.8435L15.2256 4.95224L15.9098 4.55713L27.7681 11.4485L27.0839 11.8435Z" fill="#F3A250"/>
<path d="M10.3132 6.41646C9.78562 6.72294 9.45813 7.37405 9.45548 8.2983L9.44727 10.539L10.6687 9.82923L10.6769 7.58851C10.6796 6.66425 11.0071 6.01314 11.5345 5.70667L10.3132 6.41646Z" fill="#C9CEE2"/>
<path d="M15.9272 17.9737L4.13281 11.1641L15.2245 4.57703L27.0829 11.4683L15.9272 17.9737Z" fill="#FFDE9B"/>
<path d="M15.9283 18.349L4.1339 11.5394L4.13281 11.1642L15.9272 17.9738L15.9283 18.349Z" fill="#FFD06C"/>
<path d="M15.2442 18.744L3.44971 11.9344L4.13427 11.5393L15.9286 18.3489L15.2442 18.744Z" fill="#F3A250"/>
<path d="M14.0026 19.8715L2.2092 13.0619L2.20703 12.276L14.0014 19.0856L14.0026 19.8715Z" fill="#FFD06C"/>
<path d="M29.0089 10.3564L29.0109 11.1424L14.0027 19.8716L14.0015 19.0857L15.2429 18.369L15.244 18.7441L15.9285 18.349L15.9274 17.9738L27.0831 11.4684L27.0842 11.8435L27.7683 11.4486L27.7673 11.0734L29.0089 10.3564Z" fill="#FEBC1F"/>
<path d="M25.7358 11.1693L26.3493 10.8127L26.345 12.6168L25.7314 12.9734L25.7358 11.1693Z" fill="#1D2943"/>
<path d="M26.2161 11.2755L26.2146 11.922V11.9802L26.214 12.2079L26.2126 12.7728L25.8643 12.9753L25.8662 12.1827L25.8664 12.001L25.8669 11.8518V11.8434L25.8673 11.762L25.8678 11.4779L26.2161 11.2755Z" fill="#C9CEE2"/>
<path d="M13.2402 3.95424L13.8538 3.59753L26.3491 10.8127L25.7356 11.1693L13.2402 3.95424Z" fill="#4C5C75"/>
<path d="M25.7356 11.1692V11.3793L25.7344 11.5351V11.7887L25.7332 11.9444V12.198L25.732 12.3538V12.6062L25.7308 12.762V12.9733L13.2363 5.75818V5.54806L13.2375 5.39229V4.98293L13.2387 4.73055V4.3212L13.24 4.16542V3.9541L25.7356 11.1692Z" fill="#111D33"/>
<path d="M31.1084 9.84697L30.495 9.4928L29.7922 9.90107L29.7891 11.0074L30.752 11.5634L31.4545 11.155L31.4566 10.45C31.3205 10.2145 31.2443 10.0823 31.1084 9.84697Z" fill="#1D2943"/>
<path d="M30.7539 10.8582L31.4566 10.45L31.4545 11.1549L30.752 11.5633L30.7539 10.8582Z" fill="#4C5C75"/>
<path d="M30.4058 10.2553L31.1084 9.84692C31.2443 10.0824 31.3205 10.2145 31.4566 10.45L30.7539 10.8582L30.4058 10.2553Z" fill="#1D2943"/>
<path d="M29.7925 9.90107L30.4952 9.4928L31.1087 9.84697L30.406 10.2554L29.7925 9.90107Z" fill="#4C5C75"/>
<path d="M30.4058 10.2553L30.7539 10.8582L30.752 11.5633L29.7891 11.0074L29.7922 9.901L30.4058 10.2553Z" fill="#111D33"/>
<path d="M30.6163 10.9018L26.758 13.1442L26.4707 12.6465L30.3289 10.4041L30.6163 10.9018Z" fill="#E9E7FC"/>
<path d="M26.7579 13.1441L30.6164 10.9019L30.6148 11.4595L26.7563 13.7018L26.7579 13.1441Z" fill="#DEDFFB"/>
<path d="M25.9854 12.3661L29.8437 10.1239L30.329 10.4041L26.4707 12.6463L25.9854 12.3661Z" fill="#F8F9FE"/>
<path d="M26.4708 12.6464L26.5724 12.8224L26.758 13.1441L26.7565 13.7018L25.9829 13.255L25.9853 12.3662L26.4708 12.6464Z" fill="#7A7C81"/>
<path d="M26.9034 12.2906L26.2899 11.9364L23.4463 13.5889L24.0598 13.9431L24.408 14.5462L24.406 15.2511L27.2495 13.5987L27.2515 12.8936C27.1154 12.6582 27.0392 12.526 26.9034 12.2906Z" fill="#5EC363"/>
<path d="M24.4082 14.5461L27.2517 12.8936L27.2497 13.5985L24.4062 15.251L24.4082 14.5461Z" fill="#5EC363"/>
<path d="M24.0601 13.9431L26.9036 12.2906L27.2517 12.8936L24.4082 14.5461L24.0601 13.9431Z" fill="#72D561"/>
<path d="M23.4463 13.5889L26.2898 11.9364L26.9034 12.2907L24.0598 13.9431L23.4463 13.5889Z" fill="#78E75A"/>
<path d="M24.3801 13.7571L23.7666 13.403L23.4466 13.5889L23.4434 14.6953L24.4063 15.2511L24.7263 15.0651L24.7282 14.3602L24.3801 13.7571Z" fill="#1D2943"/>
<path d="M24.4082 14.5461L24.7282 14.3601L24.7263 15.0651L24.4062 15.251L24.4082 14.5461Z" fill="#111D33"/>
<path d="M24.0601 13.943L24.3801 13.7571L24.7282 14.3601L24.4082 14.5461L24.0601 13.943Z" fill="#1D2943"/>
<path d="M23.4463 13.5889L23.7663 13.403L24.3798 13.7571L24.0598 13.9431L23.4463 13.5889Z" fill="#4C5C75"/>
<path d="M24.0601 13.943L24.4082 14.5461L24.4063 15.2511L23.4434 14.6952L23.4465 13.5889L24.0601 13.943Z" fill="#58687F"/>
<path d="M24.2949 14.5755L14.1351 20.4799L13.8477 19.9822L24.0075 14.0778L24.2949 14.5755Z" fill="#E9E7FC"/>
<path d="M14.1349 20.4797L24.2948 14.5754L24.2932 15.1331L14.1333 21.0374L14.1349 20.4797Z" fill="#DEDFFB"/>
<path d="M13.3623 19.7019L23.5222 13.7976L24.0077 14.0778L13.8476 19.9821L13.3623 19.7019Z" fill="#F8F9FE"/>
<path d="M13.8477 19.9821L13.9494 20.1581L14.1351 20.4798L14.1335 21.0375L13.3599 20.5908L13.3624 19.7019L13.8477 19.9821Z" fill="#7A7C81"/>
<path d="M14.484 20.3133L14.4816 21.0185L13.7788 21.4267L12.8164 20.8712L12.8188 19.7651L13.5216 19.3569L14.135 19.7107L14.484 20.3133Z" fill="#1D2943"/>
<path d="M13.7809 20.722L14.4834 20.3137L14.4815 21.0187L13.7788 21.427L13.7809 20.722Z" fill="#4C5C75"/>
<path d="M13.4326 20.119L14.1352 19.7107L14.4833 20.3137L13.7808 20.722C13.6447 20.4865 13.5685 20.3544 13.4326 20.119Z" fill="#1D2943"/>
<path d="M12.8193 19.7647L13.5219 19.3564L14.1354 19.7106L13.4329 20.1189L12.8193 19.7647Z" fill="#4C5C75"/>
<path d="M13.4326 20.1189C13.5685 20.3544 13.6447 20.4865 13.7807 20.722L13.7787 21.427L12.8159 20.8711L12.8191 19.7648L13.4326 20.1189Z" fill="#111D33"/>
<path d="M26.2146 11.9802L26.0394 12.082L25.8662 12.1827L25.8643 12.1838L25.8656 12.0006L25.8669 11.8517V11.8434L26.2146 11.9802Z" fill="#9EA9C9"/>
<path d="M26.8816 12.9311L26.6599 12.9859C26.5636 12.5978 26.3848 12.3564 26.2141 12.2078C26.16 12.1604 26.1016 12.1182 26.0395 12.082C25.9845 12.0495 25.9266 12.0224 25.8666 12.0009L25.8657 12.0006L25.8671 11.8517V11.8434L25.8674 11.762C25.9297 11.7789 26.0624 11.8223 26.2147 11.922C26.4552 12.0795 26.7446 12.3774 26.8816 12.9311Z" fill="#F3F1FC"/>
<path d="M27.3507 13.348C27.3305 13.3272 27.2512 13.3451 27.2075 13.3445C27.1161 13.343 27.004 13.4056 26.9569 13.4836C26.934 13.5223 26.8724 13.5843 26.8865 13.6106L26.4868 12.7512C26.4726 12.7249 26.4751 12.6896 26.4983 12.6509C26.5448 12.5727 26.6572 12.5104 26.7486 12.512C26.7945 12.513 26.8264 12.5296 26.8414 12.5559L27.3507 13.348Z" fill="#4C5C75"/>
<path d="M27.2347 13.2993C27.3556 13.3014 27.4034 13.387 27.3417 13.4904C27.2801 13.5934 27.1324 13.6753 27.0116 13.6732C26.8907 13.6712 26.8427 13.5858 26.9042 13.4828C26.9658 13.3794 27.1137 13.2974 27.2347 13.2993Z" fill="#1D2943"/>
<path d="M6.38374 12.2928L6.38325 12.9776C6.38313 13.0283 6.3498 13.0789 6.28327 13.1176C6.14935 13.1953 5.93151 13.1953 5.79663 13.1176C5.729 13.0785 5.69519 13.0271 5.69531 12.9759L5.6958 12.291C5.69567 12.3422 5.72949 12.3937 5.79723 12.4327C5.93199 12.5104 6.14983 12.5104 6.28375 12.4327C6.35017 12.394 6.38361 12.3434 6.38374 12.2928Z" fill="#4C5C75"/>
<path d="M6.59886 12.1611C6.59862 12.1642 6.59681 12.1671 6.59644 12.1703C6.59741 12.1623 6.59886 12.1546 6.59886 12.1466V12.1611Z" fill="#1D2943"/>
<path d="M6.59888 12.1467V12.1612C6.599 12.1587 6.59803 12.1561 6.59816 12.1536C6.59816 12.1513 6.59888 12.1491 6.59888 12.1467Z" fill="#1D2943"/>
<path d="M6.59806 12.1536C6.60168 12.0666 6.5471 11.9793 6.43214 11.9135C6.21116 11.7855 5.85493 11.7855 5.63516 11.9135C5.52527 11.9775 5.46973 12.062 5.47093 12.1454L5.46973 12.3627C5.46973 12.4472 5.52527 12.5306 5.63637 12.5958C5.85735 12.7226 6.21478 12.7226 6.43456 12.5958C6.54324 12.5318 6.59878 12.4484 6.59878 12.3651V12.1611C6.59854 12.1642 6.59673 12.1671 6.59637 12.1702C6.59709 12.1647 6.59782 12.1591 6.59806 12.1536ZM6.57463 12.2393C6.57705 12.2346 6.57983 12.2301 6.58188 12.2255C6.57983 12.2301 6.57705 12.2347 6.57463 12.2393Z" fill="#1D2943"/>
<path d="M6.59886 12.1612C6.59862 12.1642 6.59681 12.1673 6.59644 12.1703C6.59741 12.1623 6.59886 12.1546 6.59886 12.1466V12.1612Z" fill="#1D2943"/>
<path d="M6.59902 12.1461L6.59817 12.3657C6.59793 12.4489 6.54335 12.5319 6.43419 12.5954C6.21442 12.7231 5.85698 12.7231 5.63576 12.5954C5.52454 12.5312 5.46912 12.4469 5.46924 12.3628L5.47008 12.1433C5.46984 12.2274 5.52527 12.3115 5.63648 12.3758C5.85771 12.5034 6.21526 12.5034 6.43491 12.3758C6.54408 12.3124 6.59878 12.2293 6.59902 12.1461Z" fill="#1D2943"/>
<path d="M6.43257 11.9133C6.65367 12.0409 6.65488 12.248 6.43511 12.3758C6.21533 12.5035 5.8579 12.5034 5.63668 12.3758C5.41545 12.2481 5.41473 12.0413 5.6345 11.9135C5.85428 11.7859 6.21135 11.7855 6.43257 11.9133ZM14.5502 16.946L14.5497 17.6309C14.5496 17.6816 14.5163 17.7322 14.4497 17.7708C14.3158 17.8486 14.098 17.8486 13.9631 17.7708C13.8955 17.7317 13.8616 17.6804 13.8618 17.6292L13.8622 16.9443C13.8621 16.9955 13.8959 17.0469 13.9637 17.0859C14.0984 17.1637 14.3163 17.1637 14.4503 17.0859C14.5167 17.0473 14.5501 16.9966 14.5502 16.946Z" fill="#4C5C75"/>
<path d="M14.7653 16.7994L14.7641 17.0192C14.7641 17.1025 14.7098 17.1858 14.6011 17.2486C14.3813 17.3766 14.0239 17.3766 13.8017 17.2486C13.6906 17.1846 13.635 17.1001 13.6362 17.0168V16.797C13.6362 16.7137 13.6906 16.6304 13.8005 16.5664C14.0202 16.4396 14.3777 16.4384 14.5987 16.5664C14.7098 16.6304 14.7653 16.7149 14.7653 16.7994Z" fill="#1D2943"/>
<path d="M14.7655 16.7994L14.7647 17.0191C14.7644 17.1023 14.7099 17.1852 14.6007 17.2487C14.3809 17.3764 14.0235 17.3764 13.8023 17.2487C13.691 17.1845 13.6356 17.1002 13.6357 17.0162L13.6366 16.7966C13.6363 16.8807 13.6918 16.9648 13.803 17.0291C14.0242 17.1567 14.3818 17.1567 14.6014 17.0291C14.7106 16.9657 14.7653 16.8826 14.7655 16.7994Z" fill="#1D2943"/>
<path d="M14.5985 16.5665C14.8196 16.6942 14.8209 16.9013 14.6011 17.029C14.3813 17.1567 14.0239 17.1567 13.8026 17.029C13.5815 16.9014 13.5807 16.6945 13.8005 16.5668C14.0202 16.439 14.3773 16.4388 14.5985 16.5665Z" fill="#4C5C75"/>
<path d="M14.0014 19.0856L2.20703 12.276L3.44839 11.5593L15.2429 18.3689L14.0014 19.0856Z" fill="#FFDE9B"/>
<path d="M15.8776 11.9056L15.8769 12.1912L13.269 10.6856L13.2699 10.3999L15.8776 11.9056Z" fill="#755933"/>
<path d="M21.6696 13.4286L21.6686 13.7861L19.8564 14.8392L19.8575 14.4817L21.6696 13.4286Z" fill="#8A4852"/>
<path d="M16.0355 12.5032C15.871 12.599 15.6551 12.6464 15.4388 12.6464C15.4082 12.6464 15.3772 12.6456 15.3467 12.6434C15.2727 12.6391 15.1991 12.6287 15.1268 12.6122C15.0226 12.5885 14.9247 12.5521 14.8403 12.5032L13.7009 11.8457L12.283 11.027L10.7921 10.166L10.0429 9.73345C9.71192 9.54266 9.70999 9.23232 10.039 9.04104C10.1819 8.95808 10.3629 8.91111 10.5496 8.90012C10.5783 8.89843 10.6071 8.89771 10.6359 8.89771C10.852 8.89771 11.0688 8.94565 11.2345 9.04104L11.8288 9.38423L12.2185 9.60907L13.7735 10.5069L14.1633 10.7321L15.6236 11.575L15.6258 11.5764L16.0315 11.8107C16.3629 12.0021 16.3645 12.3118 16.0355 12.5032Z" fill="#4C5C75"/>
<path d="M16.0315 11.8105L15.6257 11.5764L15.6234 11.5751L14.1631 10.7321L13.7734 10.5069L12.2184 9.60905L12.1855 9.59009V10.9706L12.2829 11.0268L13.7008 11.8455L14.8401 12.5031C14.9245 12.552 15.0224 12.5883 15.1266 12.6121C15.1975 12.6284 15.2718 12.6388 15.3464 12.6433C15.3771 12.6454 15.408 12.6463 15.4387 12.6463C15.6548 12.6463 15.871 12.5988 16.0352 12.5031C16.3644 12.3117 16.3627 12.002 16.0315 11.8105Z" fill="#1D2943"/>
<path d="M21.6695 13.4286L19.8574 14.4817L15.8945 12.2033L12.6309 10.319L14.4521 9.26074L21.6695 13.4286Z" fill="#C69C6C"/>
<path d="M10.6702 8.33567L11.2207 8.01567L10.8641 8.19064L10.3135 8.51064L10.6702 8.33567ZM10.8583 7.71414L11.0506 7.60233L10.6152 7.60076L10.423 7.71245L10.8583 7.71414ZM11.2184 7.28196L11.4108 7.17027L10.9319 6.99191L10.7396 7.10373L11.2184 7.28196ZM11.7195 7.07245L11.9119 6.96076L11.4288 6.62156L11.2365 6.73325L11.7195 7.07245ZM15.3464 12.6434C15.2724 12.6391 15.1988 12.6286 15.1265 12.6122L15.0799 12.3733L15.2721 12.2615L15.2942 12.3741L15.3464 12.6434ZM12.3217 7.10325L12.514 6.99155L12.0657 6.51831L11.8735 6.63013L12.3217 7.10325Z" fill="#E93565"/>
<path d="M15.5155 12.3752L15.7079 12.2635L15.4603 11.6399L15.2681 11.7516L15.5155 12.3752Z" fill="#CC104A"/>
<path d="M12.9771 7.37429L13.1693 7.26247L12.7923 6.69263L12.6001 6.80445L12.9771 7.37429Z" fill="#E93565"/>
<path d="M15.6244 11.577L15.8168 11.4652L15.4623 10.8796L15.27 10.9913L15.6244 11.577Z" fill="#CC104A"/>
<path d="M13.6309 7.85996L13.8233 7.74814L13.5477 7.12903L13.3555 7.24073L13.6309 7.85996Z" fill="#E93565"/>
<path d="M13.3559 7.24073L13.5481 7.12903L13.1693 7.26246L12.9771 7.37428L13.3559 7.24073ZM15.5205 10.6554L15.7127 10.5437L15.2785 10.0433L15.0863 10.155L15.5205 10.6554Z" fill="#CC104A"/>
<path d="M15.27 10.9914L15.4622 10.8797L15.7124 10.5438L15.5202 10.6555L15.27 10.9914ZM14.2314 8.52281L14.4236 8.41111L14.2728 7.79272L14.0806 7.90442L14.2314 8.52281Z" fill="#E93565"/>
<path d="M14.0809 7.9043L14.2732 7.7926L13.8237 7.74805L13.6313 7.85987L14.0809 7.9043ZM15.2083 9.6835L15.4006 9.57181L14.9226 9.19759L14.7303 9.30941L15.2083 9.6835Z" fill="#CC104A"/>
<path d="M15.0859 10.155L15.2782 10.0433L15.4003 9.5719L15.2079 9.6836L15.0859 10.155Z" fill="#E93565"/>
<path d="M14.7148 8.74152L14.9072 8.62982L14.4237 8.41101L14.2314 8.52271L14.7148 8.74152Z" fill="#CC104A"/>
<path d="M14.7301 9.30949L14.9223 9.19767L14.9072 8.62988L14.7148 8.74158L14.7301 9.30949Z" fill="#E93565"/>
<path d="M15.2678 11.7516L15.5155 12.3753L15.2942 12.3741L15.0799 12.3733L15.1265 12.6122C15.0223 12.5884 14.9244 12.5521 14.84 12.5032L13.7006 11.8456L12.2827 11.0269L10.7918 10.1659L10.8522 9.93253L10.4181 9.43224L10.668 9.09594L10.5493 8.90007L10.3135 8.51052L10.6702 8.33567L10.6597 8.30946L10.423 7.71257L10.8583 7.71414L10.8366 7.6016L10.7397 7.10373L11.2185 7.28196L11.2243 7.10095V7.10071L11.2364 6.73325L11.7194 7.07257L11.7885 6.87429L11.8734 6.63013L12.3216 7.10324L12.4696 6.94457L12.5997 6.8045L12.9768 7.3741L13.3555 7.24054L13.6311 7.85989L14.0805 7.90421L14.2315 8.52272L14.715 8.7414L14.7301 9.30943L15.2083 9.68353L15.0859 10.155L15.5202 10.6552L15.27 10.9913L15.6233 11.575L15.6245 11.577L15.4661 11.6544L15.2678 11.7516Z" fill="#F45170"/>
<path d="M14.1868 11.023C14.1851 11.4739 13.994 11.7647 13.7008 11.8456L12.2829 11.0269C11.9908 10.6079 11.8021 10.0978 11.8032 9.64727C11.803 9.55895 11.8115 9.47081 11.8286 9.38415C11.942 8.82469 12.4235 8.63354 12.9993 8.96574C13.5745 9.29805 14.0532 10.0437 14.1631 10.732C14.1788 10.8307 14.187 10.9281 14.1868 11.023Z" fill="#1D2943"/>
<path d="M12.3389 9.95692C12.3379 10.3723 12.6304 10.8797 12.9928 11.0892C13.3545 11.2981 13.6489 11.1297 13.6505 10.7137C13.6515 10.2971 13.3589 9.79089 12.9972 9.58186C12.6348 9.37295 12.3403 9.54032 12.3389 9.95692Z" fill="#4C5C75"/>
<path d="M25.7344 11.7887L25.7332 11.9444L13.2387 4.73054V4.57476L25.7344 11.7887ZM25.7356 11.3793L25.7344 11.5351L13.2387 4.32118L13.24 4.16541L25.7356 11.3793ZM25.435 12.4347L25.2985 12.512L13.2363 5.54805L13.2375 5.39227L25.435 12.4347ZM25.7332 12.198V12.2596L25.6511 12.3067L13.2375 5.13869V4.98291L25.7332 12.198Z" fill="#4C5C75"/>
<path d="M26.4461 15.0811C26.4533 15.0847 26.4618 15.0884 26.4703 15.0932L26.3097 15.0002C26.1394 14.9012 25.9087 14.9036 25.6527 15.0292C25.6274 15.0413 25.6008 15.0545 25.5755 15.0702C25.5477 15.0847 25.5223 15.1016 25.4946 15.121C25.3195 15.2381 25.1577 15.3975 25.0188 15.581L24.9379 15.5339C24.9041 15.5134 24.857 15.517 24.805 15.5472C24.7012 15.6064 24.6179 15.7501 24.6179 15.8696C24.6179 15.9288 24.6396 15.9699 24.6722 15.9892L24.7459 16.0327C24.6191 16.3031 24.5442 16.5905 24.5454 16.8538C24.5454 17.1194 24.6227 17.3211 24.7531 17.4443C24.7809 17.4721 24.8111 17.495 24.8437 17.5143L25.0031 17.6073L24.9958 17.6001C25.0031 17.6061 25.0115 17.6109 25.02 17.6157C25.206 17.7184 25.4607 17.7003 25.7421 17.5385C26.0223 17.3767 26.277 17.1001 26.4618 16.7837C26.5004 16.7185 26.5355 16.6509 26.5681 16.5821C26.6961 16.3092 26.7721 16.0194 26.7709 15.7537C26.7709 15.4156 26.6453 15.1825 26.4461 15.0811ZM25.4958 15.5267L25.497 15.8648L25.2929 15.7441C25.3557 15.6656 25.4233 15.5919 25.4958 15.5267ZM24.9186 17.1569C24.886 17.0711 24.8666 16.9709 24.8666 16.8538C24.8654 16.6425 24.9234 16.413 25.02 16.1957L25.3581 16.3961L24.9186 17.1569ZM25.5815 17.2595C25.4281 17.3489 25.2832 17.3851 25.1577 17.3767L25.7385 16.3708L26.1865 16.6268C26.0307 16.8924 25.817 17.1231 25.5815 17.2595ZM26.2915 16.4227L25.8182 16.1534L25.8158 15.3069C25.9848 15.2272 26.1406 15.2115 26.2686 15.2514C26.3809 15.3552 26.4497 15.5255 26.4497 15.7537C26.4509 15.9687 26.393 16.2017 26.2915 16.4227Z" fill="#CC104A"/>
<path d="M24.6182 15.8693C24.6182 15.9282 24.6392 15.9695 24.6726 15.9891L25.4967 16.4781C25.4631 16.4587 25.4423 16.4172 25.4421 16.3582C25.4417 16.2396 25.5254 16.0952 25.6284 16.0355C25.6803 16.0056 25.7277 16.0026 25.7617 16.0226L24.9378 15.5336C24.9036 15.5138 24.8565 15.5164 24.8045 15.5466C24.7014 15.606 24.6178 15.7506 24.6182 15.8693Z" fill="#1D2943"/>
<path d="M25.6282 16.0355C25.7316 15.9758 25.8158 16.0235 25.8161 16.1422C25.8164 16.2608 25.7328 16.4055 25.6294 16.4651C25.5264 16.5245 25.4423 16.4767 25.4419 16.3582C25.4417 16.2395 25.5252 16.095 25.6282 16.0355Z" fill="#4C5C75"/>
<path d="M25.5809 17.2595C25.8167 17.1234 26.0305 16.8913 26.1867 16.6249L26.347 16.7179C26.1907 16.9844 25.977 17.2165 25.741 17.3526C25.5051 17.4887 25.2901 17.5045 25.1328 17.419L24.9727 17.3259C25.1299 17.4113 25.3449 17.3957 25.5809 17.2595ZM26.1949 15.1953L26.3552 15.2885C26.5118 15.3795 26.609 15.5727 26.6098 15.8471C26.6105 16.0622 26.5522 16.2947 26.4518 16.5155L26.2915 16.4224C26.392 16.2014 26.4502 15.9691 26.4496 15.7539C26.4488 15.4796 26.3516 15.2864 26.1949 15.1953Z" fill="#F45170"/>
<path d="M25.8183 16.1552L25.6581 16.0621L26.2915 16.4223L26.4517 16.5154L25.8183 16.1552ZM25.0279 17.3374L24.8677 17.2443L25.4969 16.1552L25.6572 16.2483L25.0279 17.3374Z" fill="#F45170"/>
<path d="M25.6572 16.2484L25.4969 16.1553L25.4946 15.3064L25.6548 15.3995L25.6572 16.2484Z" fill="#DF3260"/>
<path d="M25.4944 15.1211C25.5445 15.086 25.5974 15.0552 25.6526 15.029C25.909 14.9039 26.1393 14.9006 26.3098 14.9997L26.47 15.0928C26.2994 14.9938 26.0691 14.997 25.8129 15.1221C25.7577 15.1483 25.7047 15.1791 25.6547 15.2142C25.1229 15.568 24.7034 16.3239 24.7052 16.9469C24.7059 17.2121 24.7828 17.4141 24.9132 17.5375C24.9409 17.5647 24.9712 17.5879 25.0037 17.6067L24.8434 17.5137C24.8105 17.4945 24.7801 17.4712 24.753 17.4444C24.6226 17.321 24.5457 17.119 24.5449 16.8538C24.5431 16.2308 24.9626 15.475 25.4944 15.1211Z" fill="#F45170"/>
<path d="M25.8128 15.1221C26.3477 14.8609 26.7694 15.1311 26.7712 15.754C26.7719 16.0191 26.6963 16.3092 26.5678 16.5822C26.5352 16.6511 26.4999 16.7183 26.4616 16.783C26.2763 17.0997 26.022 17.3759 25.7419 17.5378C25.461 17.6998 25.2059 17.7177 25.0195 17.6156C24.9805 17.595 24.9447 17.5686 24.9133 17.5375C24.7827 17.4141 24.7058 17.2121 24.7051 16.9469C24.7033 16.3239 25.1228 15.5681 25.6546 15.2142C25.7047 15.1791 25.7576 15.1483 25.8128 15.1221ZM24.8662 16.8538C24.8668 17.069 24.9269 17.2331 25.0282 17.3374L25.6575 16.2482L25.6551 15.3993C25.2119 15.702 24.8647 16.3327 24.8662 16.8538ZM26.452 16.5154C26.5525 16.2945 26.6107 16.0621 26.6101 15.8471C26.6085 15.3258 26.2591 15.0974 25.8163 15.3063L25.8187 16.1552L26.452 16.5154ZM25.7413 17.3525C25.9772 17.2164 26.191 16.9845 26.3472 16.718L25.7386 16.3702L25.133 17.4189C25.2904 17.5044 25.5054 17.4887 25.7413 17.3525Z" fill="#CC104A"/>
<path d="M13.6243 5.46479L12.4034 6.17482C11.4809 5.6423 10.644 5.59279 10.0391 5.94539L11.2611 5.23535C11.8649 4.88396 12.7017 4.93226 13.6243 5.46479Z" fill="#C9CEE2"/>
<path d="M12.4031 6.17481L12.4019 6.61919C10.7826 5.68455 9.46032 6.43806 9.45549 8.29768V8.35564L9.06787 8.23006V8.07428C9.07391 5.96832 10.5701 5.117 12.4031 6.17481Z" fill="#9EA9C9"/>
<path d="M9.91671 7.72668L9.63535 8.66012L9.00139 8.92216L8.79248 8.39325L9.91671 7.72668Z" fill="#FFDE9B"/>
<path d="M13.6316 5.90415L12.4023 6.61914L12.4036 6.17476L13.6244 5.46472L13.6316 5.90415Z" fill="#E9E7FC"/>
<path d="M19.8574 14.4818L19.8564 14.8393L15.8936 12.5609L15.8945 12.2034L19.8574 14.4818Z" fill="#765934"/>
<path d="M19.9066 14.4532L15.9436 12.1748L15.1718 12.6234L11.9082 10.7391L10.087 11.7976L10.0859 12.155L17.3034 16.323L19.8563 14.8394L19.8574 14.4819L19.9066 14.4532Z" fill="#C69C6C"/>
<path d="M17.3044 15.9655L17.3033 16.3229L10.0859 12.1549L10.087 11.7975L17.3044 15.9655Z" fill="#AA6256"/>
<path d="M19.8573 14.4818L19.8562 14.8394L17.3032 16.323L17.3043 15.9655L19.8573 14.4818Z" fill="#8A4852"/>
<path d="M19.9064 14.4533L17.3043 15.9655L10.0869 11.7976L11.9081 10.7391L15.1717 12.6234L15.9435 12.1749L19.9064 14.4533Z" fill="#C69C6C"/>
<path d="M7.66198 18.6397L7.65619 20.6817L6.79883 20.1867L6.80462 18.1448L7.66198 18.6397Z" fill="#4C5C75"/>
<path d="M18.0799 16.2691L18.0787 16.7159L16.8567 17.426L13.9199 15.7306L13.9211 15.2838L15.1432 14.5737L18.0799 16.2691Z" fill="#9EA9C9"/>
<path d="M16.8577 16.9792L18.0797 16.269L18.0785 16.716L16.8564 17.4261L16.8577 16.9792Z" fill="#B0B8CF"/>
<path d="M13.9214 15.284L15.1434 14.5739L18.0795 16.269L16.8574 16.9792L13.9214 15.284Z" fill="#C9CEE2"/>
<path d="M16.8576 16.9792L16.8564 17.4261L13.9204 15.731L13.9216 15.2841L16.8576 16.9792Z" fill="#9EA9C9"/>
</svg>
