<svg width="32" height="32" viewBox="0 0 32 32" fill="none" xmlns="http://www.w3.org/2000/svg">
<path d="M30.0828 14.2513C30.0822 14.3311 30.0541 14.3872 30.0085 14.4131L29.0424 14.9698C29.0878 14.9438 29.116 14.8878 29.1165 14.808C29.1177 14.6476 29.0057 14.4518 28.8662 14.3706C28.7963 14.3299 28.7327 14.3258 28.6865 14.3525L29.6528 13.7958C29.6988 13.7691 29.7622 13.7733 29.8324 13.8139C29.972 13.8952 30.0839 14.091 30.0828 14.2513Z" fill="#4C5C75"/>
<path d="M28.6012 13.2521C28.3708 13.1181 28.1616 13.1048 28.0101 13.1921L27.6562 13.396C27.8077 13.3088 28.0168 13.3218 28.2472 13.4561C28.7051 13.7227 29.0735 14.3666 29.07 14.8938C29.0684 15.1558 28.9751 15.3399 28.8255 15.4261L29.1795 15.2221C29.3289 15.136 29.4222 14.952 29.4239 14.69C29.4275 14.1628 29.0589 13.5188 28.6012 13.2521Z" fill="#1D2943"/>
<path d="M28.2468 13.456C27.7889 13.1894 27.4147 13.4007 27.4112 13.928C27.4075 14.4554 27.7763 15.0993 28.2341 15.3659C28.6919 15.6325 29.066 15.4212 29.0695 14.8938C29.073 14.3665 28.7047 13.7227 28.2468 13.456Z" fill="#4C5C75"/>
<path d="M28.8496 14.8243C28.8481 15.0277 28.7765 15.1702 28.6606 15.2366L26.2008 16.6538C26.3167 16.5873 26.3882 16.4448 26.3897 16.2415C26.3926 15.8333 26.1075 15.335 25.7523 15.1281C25.5745 15.0243 25.4122 15.014 25.2949 15.0819L27.7547 13.6646C27.8721 13.5968 28.0336 13.6072 28.2122 13.711C28.5673 13.9177 28.8525 14.4162 28.8496 14.8243Z" fill="#1D2943"/>
<path d="M14.874 18.4975L14.8623 29.5925L16.9861 28.3439C16.7214 28.0806 16.5108 27.7485 16.4198 27.4177C16.2887 26.9417 16.3345 26.239 16.6287 25.8203C16.9237 25.4005 17.1878 25.1214 17.6234 24.8417C17.7538 24.7581 17.8971 24.6965 18.0388 24.6343C18.3732 24.4872 18.6971 24.3159 19.0151 24.1362C19.7071 23.7452 23.4365 21.5078 24.0684 21.0262C24.5011 20.6967 25.1606 20.7023 25.666 20.8173C26.1945 20.9377 26.6196 21.3274 26.9049 21.7701C27.0294 21.9632 27.1112 22.1988 27.1522 22.4442L27.5624 22.2058L27.5742 11.1108L14.874 18.4975Z" fill="#C9CEE2"/>
<path d="M27.5744 11.1108L14.8743 18.4976L5.18164 12.9016L17.8819 5.51477L27.5744 11.1108Z" fill="#E3E7F0"/>
<path d="M27.6001 22.1935L25.0401 23.6715L25.0377 22.8733C25.0365 22.4301 24.7225 22.2502 24.3361 22.4736L18.1462 26.0649C17.7598 26.2883 17.4471 26.8292 17.4483 27.2736L17.4507 28.0706L14.8617 29.5921L13.5708 28.847C13.6215 28.6732 13.6469 28.492 13.6385 28.3073C13.6143 27.7615 13.432 27.2301 13.0311 26.8413C12.8946 26.7085 12.7449 26.5926 12.606 26.4633C12.5348 26.3317 12.4502 26.2738 12.3705 26.1446C12.0855 25.6784 11.8609 26.0395 11.39 25.7581C11.2052 25.6483 10.7053 25.2039 10.5109 25.1133C10.3358 24.8295 9.64751 24.6617 9.35166 24.4878C8.90728 24.2282 8.46773 23.7186 7.97022 23.8792C7.46788 24.0422 7.39664 24.2234 7.14305 24.7027C7.08509 24.8126 7.03437 24.9286 6.9909 25.0481L5.16992 23.9963L5.18079 12.9014L14.8738 18.4972L27.5735 11.1106L27.6001 22.1935Z" fill="#9EA9C9"/>
<path d="M5.18176 12.9015L5.16992 23.9966L6.99139 25.0481C7.03425 24.929 7.08533 24.8132 7.14354 24.703C7.397 24.2236 7.46873 24.0422 7.97034 23.8798C8.46858 23.7186 8.90764 24.2283 9.35202 24.4884C9.64775 24.6613 10.3364 24.8301 10.5113 25.1135C10.706 25.2039 11.2054 25.6486 11.3904 25.7587C11.8617 26.0391 12.0858 25.6782 12.3714 26.1451C12.4501 26.2739 12.5354 26.3313 12.6066 26.4637C12.7447 26.5928 12.8952 26.7085 13.0317 26.8411C13.4323 27.2299 13.6145 27.7618 13.6391 28.307C13.6473 28.492 13.6219 28.6731 13.5717 28.8473L14.8625 29.5926L14.8743 18.4976L5.18164 12.9016L5.18176 12.9015Z" fill="#9EA9C9"/>
<path d="M27.5743 11.1107L27.6006 22.193L25.0402 23.6711L25.0381 22.8736C25.0369 22.4297 24.7225 22.2505 24.336 22.4737L18.1459 26.0653C17.7595 26.2885 17.4472 26.8294 17.4484 27.2731L17.4507 28.0708L14.8623 29.5923L14.874 18.4974L27.5742 11.1108L27.5743 11.1107Z" fill="#B0B8CF"/>
<path d="M27.6001 22.1934L25.0401 23.6715L24.0729 23.1088L24.0717 22.627L18.1462 26.0648C17.7598 26.2882 17.4471 26.8292 17.4483 27.2736L17.4507 28.0706L14.8617 29.5921L12.2727 28.0923L12.2751 27.2953C12.2763 26.851 11.9648 26.31 11.5784 26.0866L8.72253 24.4383L8.72132 24.9213L7.75407 25.484L5.16992 23.9963L5.17234 21.5752L8.86743 23.7101L8.92781 23.6751C8.90849 23.686 8.89158 23.6993 8.87468 23.715L14.8653 27.1746L23.9304 21.9121C23.9111 21.8928 23.8893 21.8759 23.8664 21.8626L23.9412 21.9061L27.5796 19.7928L27.6001 22.1934Z" fill="#1D2943"/>
<path d="M7.7562 24.6859C7.7568 24.4655 7.83469 24.3103 7.96028 24.2374L8.92752 23.6753C8.80194 23.7482 8.72405 23.9034 8.72345 24.1238L8.72115 24.9215L7.75391 25.4836L7.7562 24.6859Z" fill="#4C5C75"/>
<path d="M25.0385 22.8736C25.0379 22.6531 24.96 22.498 24.8344 22.425L23.8672 21.8629C23.9928 21.9359 24.0705 22.091 24.0713 22.3115L24.0734 23.1091L25.0407 23.6712L25.0385 22.8736Z" fill="#1D2943"/>
<path d="M27.58 19.7933L27.6006 22.193L25.0402 23.6711L25.0381 22.8735C25.0369 22.4297 24.7225 22.2505 24.336 22.4737L18.1459 26.0653C17.7595 26.2885 17.4472 26.8294 17.4484 27.2731L17.4507 28.0708L14.8623 29.5923L14.8648 27.1748L27.58 19.7933Z" fill="#4C5C75"/>
<path d="M5.17258 21.5754L5.16992 23.9966L7.75443 25.4835L7.75673 24.6858C7.75794 24.2421 8.07226 24.063 8.45868 24.2861L11.5781 26.0871C11.9647 26.3102 12.2769 26.8511 12.2756 27.2949L12.2734 28.0926L14.8624 29.5923L14.8651 27.1748L5.17258 21.5754Z" fill="#1D2943"/>
<path d="M13.6305 21.5096L13.6136 25.8568L6.4082 21.6968L6.42511 17.3496L13.6305 21.5096ZM26.5653 19.968L15.9208 26.1135L15.8984 20.1712L26.543 14.0256L26.5653 19.968Z" fill="#E3E7F0"/>
<path d="M20.0608 18.6876C20.1463 18.6381 20.2168 18.6783 20.217 18.7766L20.2197 19.7228C20.2201 19.8218 20.15 19.943 20.0645 19.9923L16.8353 21.8568C16.7491 21.9065 16.6787 21.8665 16.6783 21.7674L16.6758 20.8212C16.6754 20.7229 16.7455 20.6017 16.8316 20.5519L20.0608 18.6875V18.6876Z" fill="white"/>
<path d="M20.0594 18.5654C20.2043 18.4818 20.3228 18.5493 20.3232 18.7157L20.3259 19.6612C20.3264 19.8278 20.2088 20.0316 20.0639 20.1153L16.8352 21.9793C16.6903 22.0629 16.5725 21.995 16.572 21.8286L16.5693 20.883C16.5689 20.7166 16.686 20.5132 16.8309 20.4295L20.0594 18.5654ZM20.2193 19.7227L20.2166 18.7766C20.2164 18.6783 20.1459 18.6382 20.0604 18.6876L16.8311 20.5521C16.745 20.6017 16.675 20.7229 16.6754 20.8212L16.678 21.7673C16.6783 21.8664 16.7488 21.9066 16.8349 21.8567L20.0641 19.9924C20.1496 19.943 20.2196 19.8219 20.2193 19.7227Z" fill="#1D2943"/>
<path d="M19.8236 18.3017C19.7756 18.274 19.7095 18.2777 19.6365 18.3199L16.4079 20.1838C16.263 20.2675 16.146 20.471 16.1465 20.6375L16.1491 21.583C16.1494 21.6658 16.1787 21.7243 16.2259 21.7517L16.6488 21.9974C16.6015 21.9699 16.5721 21.9115 16.5719 21.8286L16.5692 20.8831C16.5688 20.7167 16.6859 20.5132 16.8308 20.4296L20.0593 18.5655C20.1322 18.5234 20.1984 18.5196 20.2464 18.5474L19.8236 18.3017Z" fill="#4C5C75"/>
<path d="M17.4653 20.767L17.5182 20.7978L17.5634 20.824L17.5791 20.833L17.5809 20.8342C17.5827 20.8353 17.5846 20.8363 17.5864 20.8374C17.5882 20.8385 17.5894 20.8405 17.5919 20.8405C17.5921 20.9563 17.5109 21.0967 17.4096 21.1552L17.2832 21.0818C17.3846 21.0232 17.4655 20.8828 17.4653 20.767Z" fill="#4C5C75"/>
<path d="M17.5919 20.8404L17.5615 20.8228L17.5919 20.8403V20.8404ZM17.4653 20.7668C17.4652 20.7088 17.4448 20.668 17.412 20.6488L17.5385 20.7225C17.5714 20.7415 17.5916 20.7824 17.5919 20.8403L17.4653 20.7668ZM17.2832 21.0817L17.4097 21.1551C17.3585 21.1847 17.3121 21.1876 17.2788 21.1682L17.1523 21.0948C17.1857 21.1141 17.232 21.1113 17.2832 21.0817Z" fill="#4C5C75"/>
<path d="M17.4112 20.6489L17.5376 20.7224C17.5045 20.7031 17.4586 20.7059 17.4077 20.7352L17.2812 20.6618C17.3321 20.6323 17.378 20.6297 17.4112 20.6489Z" fill="#F45170"/>
<path d="M17.4685 20.5515L17.5951 20.6251C17.5473 20.5973 17.481 20.6014 17.4077 20.6438L17.2812 20.5703C17.3545 20.528 17.4208 20.5238 17.4685 20.5515Z" fill="#4C5C75"/>
<path d="M17.2781 21.1683L17.1516 21.0946C17.119 21.0757 17.0988 21.0355 17.0986 20.9782C17.0983 20.8617 17.1799 20.7203 17.2813 20.6617L17.4078 20.7352C17.3063 20.7937 17.2248 20.9351 17.2251 21.0517C17.2253 21.109 17.2455 21.1492 17.2782 21.1682L17.2781 21.1683Z" fill="#F45170"/>
<path d="M17.4083 20.7352C17.5097 20.6767 17.5914 20.7238 17.5917 20.8404C17.592 20.9563 17.5108 21.0966 17.4095 21.1552C17.3081 21.2137 17.2259 21.1676 17.2256 21.0517C17.2253 20.9352 17.307 20.7938 17.4083 20.7353V20.7352Z" fill="#8FABFE"/>
<path d="M17.4077 20.6438C17.5531 20.5597 17.6709 20.6262 17.6714 20.7941C17.6719 20.9606 17.5547 21.1634 17.4094 21.2473C17.2638 21.3313 17.146 21.2642 17.1455 21.0976C17.145 20.9297 17.262 20.7277 17.4075 20.6438H17.4077ZM17.409 21.1552C17.5104 21.0966 17.5915 20.9561 17.5912 20.8403C17.5909 20.7238 17.5092 20.6767 17.4078 20.7353C17.3064 20.7937 17.2248 20.9351 17.2251 21.0517C17.2254 21.1676 17.3077 21.2137 17.409 21.1552Z" fill="#1D2943"/>
<path d="M17.2224 21.2658L17.096 21.1923C17.0489 21.1649 17.0198 21.1068 17.0195 21.0241C17.019 20.8562 17.1361 20.6542 17.2816 20.5702L17.408 20.6437C17.2625 20.7276 17.1455 20.9298 17.146 21.0976C17.1462 21.1802 17.1753 21.2384 17.2224 21.2658ZM18.3266 20.4159L18.3118 20.4075L18.2962 20.3984L18.3266 20.4159Z" fill="#4C5C75"/>
<path d="M18.1997 20.3426C18.1995 20.2846 18.1792 20.2439 18.1463 20.2249L18.2728 20.2984C18.3056 20.3175 18.3259 20.3582 18.3261 20.416L18.1997 20.3426L18.2957 20.3985L18.3261 20.416C18.3264 20.5319 18.2448 20.6726 18.1434 20.7312L18.017 20.6576C18.1184 20.5992 18.2 20.4584 18.1997 20.3425V20.3426ZM18.017 20.6576C18.059 20.6823 18.1013 20.7068 18.1434 20.7312C18.0926 20.7605 18.0465 20.7633 18.0131 20.744L17.8867 20.6706C17.9199 20.6899 17.9661 20.6871 18.017 20.6576Z" fill="#4C5C75"/>
<path d="M18.147 20.2248L18.2736 20.2984C18.2402 20.2791 18.1941 20.2817 18.143 20.3112L18.0166 20.2378C18.0676 20.2083 18.1137 20.2055 18.147 20.2248Z" fill="#F45170"/>
<path d="M18.203 20.1274L18.3295 20.2008C18.2818 20.173 18.2156 20.1773 18.1421 20.2198L18.0156 20.1461C18.089 20.1038 18.1553 20.0997 18.203 20.1274Z" fill="#4C5C75"/>
<path d="M18.0135 20.744L17.8871 20.6706C17.8545 20.6515 17.8342 20.6113 17.834 20.5539C17.8337 20.4374 17.9154 20.296 18.0162 20.2378L18.1426 20.3112C18.0418 20.3694 17.9602 20.5108 17.9605 20.6273C17.9607 20.6847 17.9809 20.7252 18.0137 20.744H18.0135Z" fill="#F45170"/>
<path d="M18.143 20.3112C18.2445 20.2527 18.3266 20.2995 18.3269 20.4161C18.3273 20.532 18.2457 20.6727 18.1442 20.7312C18.0434 20.7894 17.9612 20.7433 17.9609 20.6274C17.9606 20.5108 18.0422 20.3694 18.143 20.3112Z" fill="#FFD06C"/>
<path d="M18.1418 20.2197C18.2879 20.1353 18.4053 20.2021 18.4058 20.37C18.4061 20.5366 18.2897 20.739 18.1437 20.8233C17.9987 20.907 17.8802 20.8402 17.8799 20.6735C17.8794 20.5057 17.9969 20.3033 18.1418 20.2197ZM18.1434 20.7311C18.2448 20.6726 18.3264 20.5319 18.3261 20.416C18.3257 20.2994 18.2436 20.2526 18.1422 20.3112C18.0413 20.3694 17.9597 20.5108 17.9601 20.6273C17.9603 20.7432 18.0425 20.7893 18.1434 20.7311Z" fill="#1D2943"/>
<path d="M17.9569 20.8416L17.8305 20.7681C17.7834 20.7408 17.7541 20.6827 17.7539 20.6002C17.7534 20.4324 17.871 20.2299 18.0159 20.1462L18.1425 20.2197C17.9976 20.3033 17.88 20.5058 17.8805 20.6737C17.8806 20.7561 17.9098 20.8142 17.9569 20.8415V20.8416ZM19.0616 19.9918L19.0313 19.9741L19.0616 19.9916V19.9918Z" fill="#4C5C75"/>
<path d="M18.9347 19.9183C18.9345 19.8603 18.9141 19.8196 18.8813 19.8005L19.0077 19.8741C19.0406 19.8932 19.061 19.9338 19.0611 19.9917L18.9347 19.9183L19.0308 19.9742L19.0611 19.9918C19.0614 20.1077 18.9798 20.2483 18.8784 20.307L18.752 20.2333C18.8534 20.1749 18.935 20.0342 18.9347 19.9183Z" fill="#4C5C75"/>
<path d="M18.7524 20.2333L18.8788 20.3069C18.828 20.3362 18.7818 20.3389 18.7485 20.3196L18.6221 20.2462C18.6554 20.2655 18.7015 20.2627 18.7524 20.2333Z" fill="#4C5C75"/>
<path d="M18.8815 19.8005L19.0079 19.8741C18.9746 19.8547 18.9285 19.8574 18.8775 19.8869L18.751 19.8134C18.8021 19.784 18.8482 19.7812 18.8814 19.8005H18.8815Z" fill="#F45170"/>
<path d="M18.9384 19.7029L19.0648 19.7766C19.0171 19.7488 18.9509 19.7529 18.8774 19.7954L18.751 19.7218C18.8245 19.6795 18.8907 19.6753 18.9384 19.7029Z" fill="#4C5C75"/>
<path d="M18.7479 20.3197L18.6215 20.2463C18.5889 20.2273 18.5686 20.187 18.5684 20.1296C18.5681 20.0131 18.6497 19.8717 18.7507 19.8135L18.877 19.8869C18.7762 19.9451 18.6947 20.0865 18.6949 20.203C18.695 20.2605 18.7154 20.3008 18.748 20.3197H18.7479Z" fill="#F45170"/>
<path d="M18.8775 19.8868C18.9788 19.8282 19.0611 19.8751 19.0613 19.9916C19.0617 20.1075 18.9801 20.2482 18.8786 20.3068C18.7778 20.365 18.6957 20.3189 18.6953 20.2029C18.695 20.0864 18.7766 19.945 18.8774 19.8868H18.8775Z" fill="#F45170"/>
<path d="M18.8773 19.7954C19.0234 19.7111 19.1405 19.7778 19.1411 19.9457C19.1416 20.1123 19.0252 20.3147 18.8791 20.399C18.7342 20.4827 18.6157 20.4159 18.6152 20.2493C18.6148 20.0814 18.7324 19.879 18.8773 19.7955V19.7954ZM18.8787 20.3069C18.9802 20.2483 19.0618 20.1076 19.0614 19.9917C19.0612 19.8752 18.9789 19.8284 18.8775 19.8869C18.7767 19.9451 18.6952 20.0865 18.6954 20.203C18.6958 20.3189 18.7779 20.3651 18.8787 20.3069Z" fill="#1D2943"/>
<path d="M18.6911 20.4172L18.5647 20.3438C18.5176 20.3165 18.4885 20.2584 18.4883 20.1759C18.4878 20.0081 18.6054 19.8056 18.7503 19.7219L18.8768 19.7954C18.7318 19.879 18.6142 20.0815 18.6147 20.2493C18.615 20.3319 18.6442 20.3899 18.6913 20.4172H18.6911ZM19.6694 19.4939L19.7959 19.5674C19.7962 19.6834 19.7145 19.8239 19.6132 19.8826L19.4867 19.8089C19.5881 19.7505 19.6697 19.6097 19.6694 19.4939Z" fill="#4C5C75"/>
<path d="M19.6703 19.494C19.6703 19.436 19.6498 19.3953 19.6169 19.3762L19.7435 19.4498C19.7763 19.4688 19.7966 19.5095 19.7968 19.5674L19.6703 19.494ZM19.4876 19.8091L19.6141 19.8825C19.5632 19.9119 19.5171 19.9147 19.4837 19.8953L19.3574 19.8219C19.3906 19.8412 19.4368 19.8385 19.4876 19.809V19.8091Z" fill="#4C5C75"/>
<path d="M19.6169 19.3762L19.7433 19.4497C19.7101 19.4304 19.6638 19.4331 19.6129 19.4625L19.4863 19.3891C19.5374 19.3597 19.5835 19.3569 19.6169 19.3762Z" fill="#F45170"/>
<path d="M19.6728 19.2787L19.7993 19.3521C19.7516 19.3244 19.6853 19.3286 19.6119 19.3711L19.4854 19.2974C19.5589 19.2552 19.6251 19.2509 19.6728 19.2787Z" fill="#4C5C75"/>
<path d="M19.4833 19.8954L19.3567 19.8219C19.3241 19.803 19.3038 19.7627 19.3037 19.7053C19.3033 19.5888 19.385 19.4474 19.4858 19.3892L19.6124 19.4626C19.5115 19.5208 19.4299 19.6622 19.4301 19.7787C19.4304 19.8362 19.4507 19.8765 19.4833 19.8954Z" fill="#F45170"/>
<path d="M19.6118 19.3711C19.7579 19.2867 19.875 19.3535 19.8755 19.5214C19.876 19.688 19.7596 19.8904 19.6135 19.9746C19.4686 20.0583 19.3502 19.9915 19.3496 19.8249C19.3491 19.6571 19.4667 19.4548 19.6116 19.3711H19.6118ZM19.6132 19.8825C19.7147 19.8239 19.7963 19.6833 19.7959 19.5673C19.7956 19.4508 19.7133 19.4041 19.612 19.4625C19.5112 19.5207 19.4296 19.6621 19.4298 19.7787C19.4302 19.8946 19.5124 19.9407 19.6132 19.8825Z" fill="#1D2943"/>
<path d="M19.6129 19.4625C19.7143 19.4039 19.7964 19.4508 19.7968 19.5673C19.797 19.6832 19.7154 19.8239 19.6141 19.8825C19.5133 19.9407 19.431 19.8945 19.4307 19.7786C19.4304 19.6621 19.5121 19.5207 19.6129 19.4625Z" fill="#78E75A"/>
<path d="M19.4268 19.993L19.3004 19.9195C19.2533 19.8922 19.2241 19.8341 19.2238 19.7516C19.2233 19.5838 19.341 19.3813 19.4859 19.2976L19.6124 19.3711C19.4675 19.4548 19.3498 19.6572 19.3504 19.8251C19.3505 19.9077 19.3797 19.9656 19.4268 19.9929V19.993ZM18.4815 3.77314L19.1841 3.36475L19.1822 4.06971L18.4795 4.4781L18.4815 3.77314Z" fill="#4C5C75"/>
<mask id="mask0_199_4866" style="mask-type:luminance" maskUnits="userSpaceOnUse" x="18" y="2" width="2" height="2">
<path d="M18.1328 3.17011L18.8356 2.76184L19.1836 3.36477L18.4811 3.77316L18.1328 3.17011Z" fill="white"/>
</mask>
<g mask="url(#mask0_199_4866)">
<path d="M18.1328 3.17011L18.8356 2.76184L19.1836 3.36477L18.4811 3.77316L18.1328 3.17011Z" fill="#1D2943"/>
</g>
<path d="M17.5195 2.81586L18.2221 2.40747L18.8356 2.76177L18.133 3.17004L17.5195 2.81586Z" fill="#4C5C75"/>
<path d="M18.1332 3.17009L18.4814 3.77314L18.4794 4.47811L17.5166 3.92227L17.5197 2.81592L18.1332 3.17009Z" fill="#111D33"/>
<path d="M18.3439 3.8166L14.4856 6.05901L14.1982 5.56126L18.0566 3.31897L18.3439 3.8166Z" fill="#E9E7FC"/>
<path d="M14.485 6.05882L18.3433 3.81653L18.3418 4.37417L14.4834 6.61647L14.485 6.05882Z" fill="#DEDFFB"/>
<path d="M13.7129 5.28099L17.5712 3.0387L18.0567 3.31897L14.1982 5.56114L13.7129 5.28099Z" fill="#C9CEE2"/>
<path d="M14.1978 5.56116L14.2995 5.73722L14.4852 6.05891L14.4836 6.61655L13.71 6.16988L13.7125 5.28101L14.1978 5.56116Z" fill="#7A7C81"/>
<path d="M12.1358 7.46088L14.9793 5.80847L14.9773 6.51344L12.1338 8.16585L12.1358 7.46088Z" fill="#4C5C75"/>
<mask id="mask1_199_4866" style="mask-type:luminance" maskUnits="userSpaceOnUse" x="11" y="5" width="4" height="3">
<path d="M11.7871 6.85773L14.6306 5.20532L14.9788 5.80837L12.1354 7.46078L11.7871 6.85773Z" fill="white"/>
</mask>
<g mask="url(#mask1_199_4866)">
<path d="M11.7871 6.85773L14.6306 5.20532L14.9788 5.80837L12.1354 7.46078L11.7871 6.85773Z" fill="#1D2943"/>
</g>
<path d="M11.1738 6.5036L14.0172 4.8512L14.6308 5.20537L11.7873 6.85778L11.1738 6.5036Z" fill="#4C5C75"/>
<path d="M11.7875 6.85784L12.1357 7.46088L12.1337 8.16585L11.1709 7.61002L11.174 6.50366L11.7875 6.85784Z" fill="#111D33"/>
<path d="M12.0224 7.49018L1.86259 13.3946L1.5752 12.8969L11.7351 6.99243L12.0224 7.49018Z" fill="#E9E7FC"/>
<path d="M1.86192 13.3947L12.0219 7.49023L12.0203 8.04788L1.86035 13.9522L1.86192 13.3947Z" fill="#DEDFFB"/>
<path d="M1.08984 12.6166L11.2499 6.71228L11.7352 6.99243L1.57528 12.8969L1.08984 12.6166Z" fill="#C9CEE2"/>
<path d="M1.57488 12.8968L1.67644 13.0729L1.86216 13.3946L1.86059 13.9521L1.08691 13.5056L1.08945 12.6166L1.57488 12.8968Z" fill="#7A7C81"/>
<path d="M1.50791 13.6367L2.21058 13.2284L2.20853 13.9334L1.50586 14.3418L1.50791 13.6367Z" fill="#4C5C75"/>
<mask id="mask2_199_4866" style="mask-type:luminance" maskUnits="userSpaceOnUse" x="1" y="12" width="2" height="2">
<path d="M1.16016 13.0338L1.86283 12.6254C1.99868 12.8608 2.07487 12.9929 2.21096 13.2284L1.50817 13.6368L1.16016 13.0338Z" fill="white"/>
</mask>
<g mask="url(#mask2_199_4866)">
<path d="M1.16016 13.0338L1.86283 12.6254C1.99868 12.8608 2.07487 12.9929 2.21096 13.2284L1.50817 13.6367L1.16016 13.0338Z" fill="#1D2943"/>
</g>
<path d="M0.546875 12.6795L1.24955 12.2712L1.8631 12.6254L1.16043 13.0338L0.546875 12.6795Z" fill="#4C5C75"/>
<path d="M1.15966 13.0337L1.5078 13.6367L1.50575 14.3418L0.542969 13.7858L0.546108 12.6794L1.15954 13.0337H1.15966Z" fill="#111D33"/>
<path d="M29.0114 11.1073L29.0064 12.1597L13.998 20.8882L14.003 19.8358L29.0114 11.1073Z" fill="#9EA9C9"/>
<path d="M14.0024 19.8357L13.9975 20.8881L2.2041 14.0791L2.20905 13.0267L14.0024 19.8357Z" fill="#B0B8CF"/>
<path d="M29.0107 11.1072L14.0024 19.8357L2.20898 13.0267L17.2173 4.29822L29.0107 11.1072Z" fill="#E3E7F0"/>
<path d="M27.7685 11.4485L15.9101 4.55719L15.9092 4.18201L27.7674 11.0734L27.7685 11.4485Z" fill="#FFD06C"/>
<path d="M27.7674 11.0734L15.9092 4.18201L17.1507 3.46521L29.009 10.3564L27.7674 11.0734Z" fill="#FFDE9B"/>
<path d="M27.0839 11.8435L15.2256 4.95224L15.9098 4.55713L27.7681 11.4485L27.0839 11.8435Z" fill="#F3A250"/>
<path d="M10.3132 6.41646C9.78562 6.72294 9.45813 7.37405 9.45548 8.2983L9.44727 10.539L10.6687 9.82923L10.6769 7.58851C10.6796 6.66425 11.0071 6.01314 11.5345 5.70667L10.3132 6.41646Z" fill="#C9CEE2"/>
<path d="M15.9272 17.9737L4.13281 11.1641L15.2245 4.57703L27.0829 11.4683L15.9272 17.9737Z" fill="#FFDE9B"/>
<path d="M15.9283 18.349L4.1339 11.5394L4.13281 11.1642L15.9272 17.9738L15.9283 18.349Z" fill="#FFD06C"/>
<path d="M15.2437 18.744L3.44922 11.9344L4.13378 11.5393L15.9281 18.3489L15.2437 18.744Z" fill="#F3A250"/>
<path d="M14.0026 19.8715L2.2092 13.0619L2.20703 12.276L14.0014 19.0856L14.0026 19.8715Z" fill="#FFD06C"/>
<path d="M29.0084 10.3564L29.0104 11.1424L14.0022 19.8716L14.001 19.0857L15.2425 18.369L15.2435 18.7441L15.928 18.349L15.9269 17.9738L27.0826 11.4684L27.0837 11.8435L27.7679 11.4486L27.7668 11.0734L29.0084 10.3564Z" fill="#FEBC1F"/>
<path d="M25.7358 11.1693L26.3493 10.8127L26.345 12.6168L25.7314 12.9734L25.7358 11.1693Z" fill="#1D2943"/>
<path d="M26.2161 11.2755L26.2146 11.922V11.9802L26.214 12.2079L26.2126 12.7728L25.8643 12.9753L25.8662 12.1827L25.8664 12.001L25.8669 11.8518V11.8434L25.8673 11.762L25.8678 11.4779L26.2161 11.2755Z" fill="#C9CEE2"/>
<path d="M13.2402 3.95424L13.8538 3.59753L26.3491 10.8127L25.7356 11.1693L13.2402 3.95424Z" fill="#4C5C75"/>
<path d="M25.7356 11.1692V11.3793L25.7344 11.5351V11.7887L25.7332 11.9444V12.198L25.732 12.3538V12.6062L25.7308 12.762V12.9733L13.2363 5.75818V5.54806L13.2375 5.39229V4.98293L13.2387 4.73055V4.3212L13.24 4.16542V3.9541L25.7356 11.1692Z" fill="#111D33"/>
<path d="M31.1084 9.84697L30.495 9.4928L29.7922 9.90107L29.7891 11.0074L30.752 11.5634L31.4545 11.155L31.4566 10.45C31.3205 10.2145 31.2443 10.0823 31.1084 9.84697Z" fill="#1D2943"/>
<path d="M30.7539 10.8582L31.4566 10.45L31.4545 11.1549L30.752 11.5633L30.7539 10.8582Z" fill="#4C5C75"/>
<path d="M30.4062 10.2553L31.1089 9.84692C31.2448 10.0824 31.321 10.2145 31.4571 10.45L30.7544 10.8582L30.4062 10.2553Z" fill="#1D2943"/>
<path d="M29.792 9.90107L30.4947 9.4928L31.1082 9.84697L30.4055 10.2554L29.792 9.90107Z" fill="#4C5C75"/>
<path d="M30.4058 10.2553L30.7539 10.8582L30.752 11.5633L29.7891 11.0074L29.7922 9.901L30.4058 10.2553Z" fill="#111D33"/>
<path d="M30.6163 10.9018L26.758 13.1442L26.4707 12.6465L30.3289 10.4041L30.6163 10.9018Z" fill="#E9E7FC"/>
<path d="M26.7574 13.1441L30.6159 10.9019L30.6143 11.4595L26.7559 13.7018L26.7574 13.1441Z" fill="#DEDFFB"/>
<path d="M25.9854 12.3661L29.8437 10.1239L30.329 10.4041L26.4707 12.6463L25.9854 12.3661Z" fill="#F8F9FE"/>
<path d="M26.4703 12.6464L26.5719 12.8224L26.7575 13.1441L26.756 13.7018L25.9824 13.255L25.9848 12.3662L26.4703 12.6464Z" fill="#7A7C81"/>
<path d="M26.9034 12.2906L26.2899 11.9364L23.4463 13.5889L24.0598 13.9431L24.408 14.5462L24.406 15.2511L27.2495 13.5987L27.2515 12.8936C27.1154 12.6582 27.0392 12.526 26.9034 12.2906Z" fill="#5EC363"/>
<path d="M24.4082 14.5461L27.2517 12.8936L27.2497 13.5985L24.4062 15.251L24.4082 14.5461Z" fill="#5EC363"/>
<path d="M24.0596 13.9431L26.9031 12.2906L27.2512 12.8936L24.4077 14.5461L24.0596 13.9431Z" fill="#72D561"/>
<path d="M23.4463 13.5889L26.2898 11.9364L26.9034 12.2907L24.0598 13.9431L23.4463 13.5889Z" fill="#78E75A"/>
<path d="M24.3801 13.7571L23.7666 13.403L23.4466 13.5889L23.4434 14.6953L24.4063 15.2511L24.7263 15.0651L24.7282 14.3602L24.3801 13.7571Z" fill="#1D2943"/>
<path d="M24.4082 14.5461L24.7282 14.3601L24.7263 15.0651L24.4062 15.251L24.4082 14.5461Z" fill="#111D33"/>
<path d="M24.0596 13.943L24.3796 13.7571L24.7277 14.3601L24.4077 14.5461L24.0596 13.943Z" fill="#1D2943"/>
<path d="M23.4463 13.5889L23.7663 13.403L24.3798 13.7571L24.0598 13.9431L23.4463 13.5889Z" fill="#4C5C75"/>
<path d="M24.0601 13.943L24.4082 14.5461L24.4063 15.2511L23.4434 14.6952L23.4465 13.5889L24.0601 13.943Z" fill="#58687F"/>
<path d="M24.2949 14.5755L14.1351 20.4799L13.8477 19.9822L24.0075 14.0778L24.2949 14.5755Z" fill="#E9E7FC"/>
<path d="M14.1354 20.4797L24.2953 14.5754L24.2937 15.1331L14.1338 21.0374L14.1354 20.4797Z" fill="#DEDFFB"/>
<path d="M13.3623 19.7019L23.5222 13.7976L24.0077 14.0778L13.8476 19.9821L13.3623 19.7019Z" fill="#F8F9FE"/>
<path d="M13.8472 19.9821L13.9489 20.1581L14.1346 20.4798L14.1331 21.0375L13.3594 20.5908L13.3619 19.7019L13.8472 19.9821Z" fill="#7A7C81"/>
<path d="M14.484 20.3133L14.4816 21.0185L13.7788 21.4267L12.8164 20.8712L12.8188 19.7651L13.5216 19.3569L14.135 19.7107L14.484 20.3133Z" fill="#1D2943"/>
<path d="M13.7813 20.722L14.4839 20.3137L14.482 21.0187L13.7793 21.427L13.7813 20.722Z" fill="#4C5C75"/>
<path d="M13.4326 20.119L14.1352 19.7107L14.4833 20.3137L13.7808 20.722C13.6447 20.4865 13.5685 20.3544 13.4326 20.119Z" fill="#1D2943"/>
<path d="M12.8193 19.7647L13.5219 19.3564L14.1354 19.7106L13.4329 20.1189L12.8193 19.7647Z" fill="#4C5C75"/>
<path d="M13.4331 20.1189C13.5689 20.3544 13.6451 20.4865 13.7812 20.722L13.7792 21.427L12.8164 20.8711L12.8195 19.7648L13.4331 20.1189Z" fill="#111D33"/>
<path d="M26.2146 11.9802L26.0394 12.082L25.8662 12.1827L25.8643 12.1838L25.8656 12.0006L25.8669 11.8517V11.8434L26.2146 11.9802Z" fill="#9EA9C9"/>
<path d="M26.8811 12.9311L26.6594 12.9859C26.5631 12.5978 26.3844 12.3564 26.2136 12.2078C26.1596 12.1604 26.1011 12.1182 26.039 12.082C25.9841 12.0495 25.9262 12.0224 25.8661 12.0009L25.8652 12.0006L25.8666 11.8517V11.8434L25.8669 11.762C25.9292 11.7789 26.0619 11.8223 26.2142 11.922C26.4548 12.0795 26.7441 12.3774 26.8811 12.9311Z" fill="#F3F1FC"/>
<path d="M27.3512 13.348C27.331 13.3272 27.2517 13.3451 27.208 13.3445C27.1166 13.343 27.0045 13.4056 26.9574 13.4836C26.9345 13.5223 26.8729 13.5843 26.887 13.6106L26.4873 12.7512C26.4731 12.7249 26.4756 12.6896 26.4988 12.6509C26.5453 12.5727 26.6577 12.5104 26.7491 12.512C26.795 12.513 26.8269 12.5296 26.8418 12.5559L27.3512 13.348Z" fill="#4C5C75"/>
<path d="M27.2352 13.2993C27.3561 13.3014 27.4039 13.387 27.3422 13.4904C27.2806 13.5934 27.1329 13.6753 27.0121 13.6732C26.8912 13.6712 26.8432 13.5858 26.9047 13.4828C26.9663 13.3794 27.1142 13.2974 27.2352 13.2993Z" fill="#1D2943"/>
<path d="M6.38374 12.2928L6.38325 12.9776C6.38313 13.0283 6.3498 13.0789 6.28327 13.1176C6.14935 13.1953 5.93151 13.1953 5.79663 13.1176C5.729 13.0785 5.69519 13.0271 5.69531 12.9759L5.6958 12.291C5.69567 12.3422 5.72949 12.3937 5.79723 12.4327C5.93199 12.5104 6.14983 12.5104 6.28375 12.4327C6.35017 12.394 6.38361 12.3434 6.38374 12.2928Z" fill="#4C5C75"/>
<path d="M6.59837 12.1611C6.59813 12.1642 6.59632 12.1671 6.59595 12.1703C6.59692 12.1623 6.59837 12.1546 6.59837 12.1466V12.1611Z" fill="#1D2943"/>
<path d="M6.59839 12.1467V12.1612C6.59851 12.1587 6.59755 12.1561 6.59767 12.1536C6.59767 12.1513 6.59839 12.1491 6.59839 12.1467Z" fill="#1D2943"/>
<path d="M6.59806 12.1536C6.60168 12.0666 6.5471 11.9793 6.43214 11.9135C6.21116 11.7855 5.85493 11.7855 5.63516 11.9135C5.52527 11.9775 5.46973 12.062 5.47093 12.1454L5.46973 12.3627C5.46973 12.4472 5.52527 12.5306 5.63637 12.5958C5.85735 12.7226 6.21478 12.7226 6.43456 12.5958C6.54324 12.5318 6.59878 12.4484 6.59878 12.3651V12.1611C6.59854 12.1642 6.59673 12.1671 6.59637 12.1702C6.59709 12.1647 6.59782 12.1591 6.59806 12.1536ZM6.57463 12.2393C6.57705 12.2346 6.57983 12.2301 6.58188 12.2255C6.57983 12.2301 6.57705 12.2347 6.57463 12.2393Z" fill="#1D2943"/>
<path d="M6.59837 12.1612C6.59813 12.1642 6.59632 12.1673 6.59595 12.1703C6.59692 12.1623 6.59837 12.1546 6.59837 12.1466V12.1612Z" fill="#1D2943"/>
<path d="M6.59951 12.1461L6.59866 12.3657C6.59842 12.4489 6.54384 12.5319 6.43468 12.5954C6.2149 12.7231 5.85747 12.7231 5.63625 12.5954C5.52503 12.5312 5.46961 12.4469 5.46973 12.3628L5.47057 12.1433C5.47033 12.2274 5.52576 12.3115 5.63697 12.3758C5.85819 12.5034 6.21575 12.5034 6.4354 12.3758C6.54456 12.3124 6.59927 12.2293 6.59951 12.1461Z" fill="#1D2943"/>
<path d="M6.43208 11.9133C6.65319 12.0409 6.65439 12.248 6.43462 12.3758C6.21485 12.5035 5.85741 12.5034 5.63619 12.3758C5.41497 12.2481 5.41424 12.0413 5.63402 11.9135C5.85379 11.7859 6.21086 11.7855 6.43208 11.9133ZM14.5497 16.946L14.5492 17.6309C14.5491 17.6816 14.5158 17.7322 14.4492 17.7708C14.3153 17.8486 14.0975 17.8486 13.9626 17.7708C13.895 17.7317 13.8612 17.6804 13.8613 17.6292L13.8618 16.9443C13.8616 16.9955 13.8954 17.0469 13.9632 17.0859C14.098 17.1637 14.3158 17.1637 14.4498 17.0859C14.5162 17.0473 14.5496 16.9966 14.5497 16.946Z" fill="#4C5C75"/>
<path d="M14.7648 16.7994L14.7636 17.0192C14.7636 17.1025 14.7093 17.1858 14.6006 17.2486C14.3808 17.3766 14.0234 17.3766 13.8012 17.2486C13.6901 17.1846 13.6346 17.1001 13.6358 17.0168V16.797C13.6358 16.7137 13.6901 16.6304 13.8 16.5664C14.0198 16.4396 14.3772 16.4384 14.5982 16.5664C14.7093 16.6304 14.7648 16.7149 14.7648 16.7994Z" fill="#1D2943"/>
<path d="M14.7655 16.7994L14.7647 17.0191C14.7644 17.1023 14.7099 17.1852 14.6007 17.2487C14.3809 17.3764 14.0235 17.3764 13.8023 17.2487C13.691 17.1845 13.6356 17.1002 13.6357 17.0162L13.6366 16.7966C13.6363 16.8807 13.6918 16.9648 13.803 17.0291C14.0242 17.1567 14.3818 17.1567 14.6014 17.0291C14.7106 16.9657 14.7653 16.8826 14.7655 16.7994Z" fill="#1D2943"/>
<path d="M14.599 16.5665C14.8201 16.6942 14.8213 16.9013 14.6016 17.029C14.3818 17.1567 14.0244 17.1567 13.8031 17.029C13.582 16.9014 13.5812 16.6945 13.801 16.5668C14.0207 16.439 14.3778 16.4388 14.599 16.5665Z" fill="#4C5C75"/>
<path d="M14.0014 19.0856L2.20703 12.276L3.44839 11.5593L15.2429 18.3689L14.0014 19.0856Z" fill="#FFDE9B"/>
<path d="M15.8781 11.9056L15.8773 12.1912L13.2695 10.6856L13.2704 10.3999L15.8781 11.9056Z" fill="#755933"/>
<path d="M21.6696 13.4286L21.6686 13.7861L19.8564 14.8392L19.8575 14.4817L21.6696 13.4286Z" fill="#8A4852"/>
<path d="M16.035 12.5032C15.8705 12.599 15.6546 12.6464 15.4383 12.6464C15.4077 12.6464 15.3768 12.6456 15.3462 12.6434C15.2722 12.6391 15.1986 12.6287 15.1263 12.6122C15.0221 12.5885 14.9242 12.5521 14.8398 12.5032L13.7004 11.8457L12.2825 11.027L10.7916 10.166L10.0424 9.73345C9.71143 9.54266 9.7095 9.23232 10.0386 9.04104C10.1814 8.95808 10.3624 8.91111 10.5491 8.90012C10.5778 8.89843 10.6066 8.89771 10.6354 8.89771C10.8515 8.89771 11.0684 8.94565 11.234 9.04104L11.8283 9.38423L12.2181 9.60907L13.773 10.5069L14.1628 10.7321L15.6231 11.575L15.6253 11.5764L16.031 11.8107C16.3624 12.0021 16.3641 12.3118 16.035 12.5032Z" fill="#4C5C75"/>
<path d="M16.0315 11.8105L15.6257 11.5764L15.6234 11.5751L14.1631 10.7321L13.7734 10.5069L12.2184 9.60905L12.1855 9.59009V10.9706L12.2829 11.0268L13.7008 11.8455L14.8401 12.5031C14.9245 12.552 15.0224 12.5883 15.1266 12.6121C15.1975 12.6284 15.2718 12.6388 15.3464 12.6433C15.3771 12.6454 15.408 12.6463 15.4387 12.6463C15.6548 12.6463 15.871 12.5988 16.0352 12.5031C16.3644 12.3117 16.3627 12.002 16.0315 11.8105Z" fill="#1D2943"/>
<path d="M21.6695 13.4286L19.8574 14.4817L15.8945 12.2033L12.6309 10.319L14.4521 9.26074L21.6695 13.4286Z" fill="#C69C6C"/>
<path d="M10.6702 8.33567L11.2207 8.01567L10.8641 8.19064L10.3135 8.51064L10.6702 8.33567ZM10.8583 7.71414L11.0506 7.60233L10.6152 7.60076L10.423 7.71245L10.8583 7.71414ZM11.2184 7.28196L11.4108 7.17027L10.9319 6.99191L10.7396 7.10373L11.2184 7.28196ZM11.7195 7.07245L11.9119 6.96076L11.4288 6.62156L11.2365 6.73325L11.7195 7.07245ZM15.3464 12.6434C15.2724 12.6391 15.1988 12.6286 15.1265 12.6122L15.0799 12.3733L15.2721 12.2615L15.2942 12.3741L15.3464 12.6434ZM12.3217 7.10325L12.514 6.99155L12.0657 6.51831L11.8735 6.63013L12.3217 7.10325Z" fill="#E93565"/>
<path d="M15.515 12.3752L15.7074 12.2635L15.4598 11.6399L15.2676 11.7516L15.515 12.3752Z" fill="#CC104A"/>
<path d="M12.9766 7.37429L13.1688 7.26247L12.7919 6.69263L12.5996 6.80445L12.9766 7.37429Z" fill="#E93565"/>
<path d="M15.6249 11.577L15.8173 11.4652L15.4627 10.8796L15.2705 10.9913L15.6249 11.577Z" fill="#CC104A"/>
<path d="M13.6309 7.85996L13.8233 7.74814L13.5477 7.12903L13.3555 7.24073L13.6309 7.85996Z" fill="#E93565"/>
<path d="M13.3554 7.24073L13.5476 7.12903L13.1688 7.26246L12.9766 7.37428L13.3554 7.24073ZM15.52 10.6554L15.7123 10.5437L15.278 10.0433L15.0858 10.155L15.52 10.6554Z" fill="#CC104A"/>
<path d="M15.2705 10.9914L15.4627 10.8797L15.7129 10.5438L15.5207 10.6555L15.2705 10.9914ZM14.2319 8.52281L14.4241 8.41111L14.2733 7.79272L14.0811 7.90442L14.2319 8.52281Z" fill="#E93565"/>
<path d="M14.0804 7.9043L14.2727 7.7926L13.8232 7.74805L13.6309 7.85987L14.0804 7.9043ZM15.2078 9.6835L15.4002 9.57181L14.9221 9.19759L14.7298 9.30941L15.2078 9.6835Z" fill="#CC104A"/>
<path d="M15.0859 10.155L15.2782 10.0433L15.4003 9.5719L15.2079 9.6836L15.0859 10.155Z" fill="#E93565"/>
<path d="M14.7148 8.74152L14.9072 8.62982L14.4237 8.41101L14.2314 8.52271L14.7148 8.74152Z" fill="#CC104A"/>
<path d="M14.7301 9.30949L14.9223 9.19767L14.9072 8.62988L14.7148 8.74158L14.7301 9.30949Z" fill="#E93565"/>
<path d="M15.2678 11.7516L15.5155 12.3753L15.2942 12.3741L15.0799 12.3733L15.1265 12.6122C15.0223 12.5884 14.9244 12.5521 14.84 12.5032L13.7006 11.8456L12.2827 11.0269L10.7918 10.1659L10.8522 9.93253L10.4181 9.43224L10.668 9.09594L10.5493 8.90007L10.3135 8.51052L10.6702 8.33567L10.6597 8.30946L10.423 7.71257L10.8583 7.71414L10.8366 7.6016L10.7397 7.10373L11.2185 7.28196L11.2243 7.10095V7.10071L11.2364 6.73325L11.7194 7.07257L11.7885 6.87429L11.8734 6.63013L12.3216 7.10324L12.4696 6.94457L12.5997 6.8045L12.9768 7.3741L13.3555 7.24054L13.6311 7.85989L14.0805 7.90421L14.2315 8.52272L14.715 8.7414L14.7301 9.30943L15.2083 9.68353L15.0859 10.155L15.5202 10.6552L15.27 10.9913L15.6233 11.575L15.6245 11.577L15.4661 11.6544L15.2678 11.7516Z" fill="#F45170"/>
<path d="M14.1863 11.023C14.1846 11.4739 13.9935 11.7647 13.7003 11.8456L12.2824 11.0269C11.9903 10.6079 11.8017 10.0978 11.8027 9.64727C11.8025 9.55895 11.811 9.47081 11.8281 9.38415C11.9415 8.82469 12.4231 8.63354 12.9988 8.96574C13.574 9.29805 14.0528 10.0437 14.1626 10.732C14.1783 10.8307 14.1866 10.9281 14.1863 11.023Z" fill="#1D2943"/>
<path d="M12.3389 9.95692C12.3379 10.3723 12.6304 10.8797 12.9928 11.0892C13.3545 11.2981 13.6489 11.1297 13.6505 10.7137C13.6515 10.2971 13.3589 9.79089 12.9972 9.58186C12.6348 9.37295 12.3403 9.54032 12.3389 9.95692Z" fill="#4C5C75"/>
<path d="M25.7344 11.7887L25.7332 11.9444L13.2387 4.73054V4.57476L25.7344 11.7887ZM25.7356 11.3793L25.7344 11.5351L13.2387 4.32118L13.24 4.16541L25.7356 11.3793ZM25.435 12.4347L25.2985 12.512L13.2363 5.54805L13.2375 5.39227L25.435 12.4347ZM25.7332 12.198V12.2596L25.6511 12.3067L13.2375 5.13869V4.98291L25.7332 12.198Z" fill="#4C5C75"/>
<path d="M26.4456 15.0811C26.4529 15.0847 26.4613 15.0884 26.4698 15.0932L26.3092 15.0002C26.1389 14.9012 25.9083 14.9036 25.6523 15.0292C25.6269 15.0413 25.6003 15.0545 25.575 15.0702C25.5472 15.0847 25.5218 15.1016 25.4941 15.121C25.319 15.2381 25.1572 15.3975 25.0183 15.581L24.9374 15.5339C24.9036 15.5134 24.8565 15.517 24.8046 15.5472C24.7007 15.6064 24.6174 15.7501 24.6174 15.8696C24.6174 15.9288 24.6391 15.9699 24.6717 15.9892L24.7454 16.0327C24.6186 16.3031 24.5437 16.5905 24.5449 16.8538C24.5449 17.1194 24.6222 17.3211 24.7526 17.4443C24.7804 17.4721 24.8106 17.495 24.8432 17.5143L25.0026 17.6073L24.9954 17.6001C25.0026 17.6061 25.0111 17.6109 25.0195 17.6157C25.2055 17.7184 25.4603 17.7003 25.7416 17.5385C26.0218 17.3767 26.2766 17.1001 26.4613 16.7837C26.5 16.7185 26.535 16.6509 26.5676 16.5821C26.6956 16.3092 26.7717 16.0194 26.7704 15.7537C26.7704 15.4156 26.6449 15.1825 26.4456 15.0811ZM25.4953 15.5267L25.4965 15.8648L25.2924 15.7441C25.3552 15.6656 25.4228 15.5919 25.4953 15.5267ZM24.9181 17.1569C24.8855 17.0711 24.8661 16.9709 24.8661 16.8538C24.8649 16.6425 24.9229 16.413 25.0195 16.1957L25.3576 16.3961L24.9181 17.1569ZM25.581 17.2595C25.4277 17.3489 25.2827 17.3851 25.1572 17.3767L25.738 16.3708L26.186 16.6268C26.0302 16.8924 25.8165 17.1231 25.581 17.2595ZM26.2911 16.4227L25.8177 16.1534L25.8153 15.3069C25.9843 15.2272 26.1401 15.2115 26.2681 15.2514C26.3804 15.3552 26.4492 15.5255 26.4492 15.7537C26.4504 15.9687 26.3925 16.2017 26.2911 16.4227Z" fill="#CC104A"/>
<path d="M24.6182 15.8693C24.6182 15.9282 24.6392 15.9695 24.6726 15.9891L25.4967 16.4781C25.4631 16.4587 25.4423 16.4172 25.4421 16.3582C25.4417 16.2396 25.5254 16.0952 25.6284 16.0355C25.6803 16.0056 25.7277 16.0026 25.7617 16.0226L24.9378 15.5336C24.9036 15.5138 24.8565 15.5164 24.8045 15.5466C24.7014 15.606 24.6178 15.7506 24.6182 15.8693Z" fill="#1D2943"/>
<path d="M25.6287 16.0355C25.7321 15.9758 25.8162 16.0235 25.8166 16.1422C25.8168 16.2608 25.7333 16.4055 25.6299 16.4651C25.5269 16.5245 25.4427 16.4767 25.4424 16.3582C25.4421 16.2395 25.5257 16.095 25.6287 16.0355Z" fill="#4C5C75"/>
<path d="M25.5809 17.2595C25.8167 17.1234 26.0305 16.8913 26.1867 16.6249L26.347 16.7179C26.1907 16.9844 25.977 17.2165 25.741 17.3526C25.5051 17.4887 25.2901 17.5045 25.1328 17.419L24.9727 17.3259C25.1299 17.4113 25.3449 17.3957 25.5809 17.2595ZM26.1949 15.1953L26.3552 15.2885C26.5118 15.3795 26.609 15.5727 26.6098 15.8471C26.6105 16.0622 26.5522 16.2947 26.4518 16.5155L26.2915 16.4224C26.392 16.2014 26.4502 15.9691 26.4496 15.7539C26.4488 15.4796 26.3516 15.2864 26.1949 15.1953Z" fill="#F45170"/>
<path d="M25.8187 16.1552L25.6586 16.0621L26.292 16.4223L26.4522 16.5154L25.8187 16.1552ZM25.0284 17.3374L24.8682 17.2443L25.4974 16.1552L25.6577 16.2483L25.0284 17.3374Z" fill="#F45170"/>
<path d="M25.6577 16.2484L25.4974 16.1553L25.4951 15.3064L25.6552 15.3995L25.6577 16.2484Z" fill="#DF3260"/>
<path d="M25.4944 15.1211C25.5445 15.086 25.5974 15.0552 25.6526 15.029C25.909 14.9039 26.1393 14.9006 26.3098 14.9997L26.47 15.0928C26.2994 14.9938 26.0691 14.997 25.8129 15.1221C25.7577 15.1483 25.7047 15.1791 25.6547 15.2142C25.1229 15.568 24.7034 16.3239 24.7052 16.9469C24.7059 17.2121 24.7828 17.4141 24.9132 17.5375C24.9409 17.5647 24.9712 17.5879 25.0037 17.6067L24.8434 17.5137C24.8105 17.4945 24.7801 17.4712 24.753 17.4444C24.6226 17.321 24.5457 17.119 24.5449 16.8538C24.5431 16.2308 24.9626 15.475 25.4944 15.1211Z" fill="#F45170"/>
<path d="M25.8128 15.1221C26.3477 14.8609 26.7694 15.1311 26.7712 15.754C26.7719 16.0191 26.6963 16.3092 26.5678 16.5822C26.5352 16.6511 26.4999 16.7183 26.4616 16.783C26.2763 17.0997 26.022 17.3759 25.7419 17.5378C25.461 17.6998 25.2059 17.7177 25.0195 17.6156C24.9805 17.595 24.9447 17.5686 24.9133 17.5375C24.7827 17.4141 24.7058 17.2121 24.7051 16.9469C24.7033 16.3239 25.1228 15.5681 25.6546 15.2142C25.7047 15.1791 25.7576 15.1483 25.8128 15.1221ZM24.8662 16.8538C24.8668 17.069 24.9269 17.2331 25.0282 17.3374L25.6575 16.2482L25.6551 15.3993C25.2119 15.702 24.8647 16.3327 24.8662 16.8538ZM26.452 16.5154C26.5525 16.2945 26.6107 16.0621 26.6101 15.8471C26.6085 15.3258 26.2591 15.0974 25.8163 15.3063L25.8187 16.1552L26.452 16.5154ZM25.7413 17.3525C25.9772 17.2164 26.191 16.9845 26.3472 16.718L25.7386 16.3702L25.133 17.4189C25.2904 17.5044 25.5054 17.4887 25.7413 17.3525Z" fill="#CC104A"/>
<path d="M13.6243 5.46479L12.4034 6.17482C11.4809 5.6423 10.644 5.59279 10.0391 5.94539L11.2611 5.23535C11.8649 4.88396 12.7017 4.93226 13.6243 5.46479Z" fill="#C9CEE2"/>
<path d="M12.4036 6.17481L12.4024 6.61919C10.7831 5.68455 9.46081 6.43806 9.45598 8.29768V8.35564L9.06836 8.23006V8.07428C9.0744 5.96832 10.5705 5.117 12.4036 6.17481Z" fill="#9EA9C9"/>
<path d="M9.91622 7.72668L9.63486 8.66012L9.0009 8.92216L8.79199 8.39325L9.91622 7.72668Z" fill="#FFDE9B"/>
<path d="M13.6316 5.90415L12.4023 6.61914L12.4036 6.17476L13.6244 5.46472L13.6316 5.90415Z" fill="#E9E7FC"/>
<path d="M19.8574 14.4818L19.8564 14.8393L15.8936 12.5609L15.8945 12.2034L19.8574 14.4818Z" fill="#765934"/>
<path d="M19.9066 14.4532L15.9436 12.1748L15.1718 12.6234L11.9082 10.7391L10.087 11.7976L10.0859 12.155L17.3034 16.323L19.8563 14.8394L19.8574 14.4819L19.9066 14.4532Z" fill="#C69C6C"/>
<path d="M17.3044 15.9655L17.3033 16.3229L10.0859 12.1549L10.087 11.7975L17.3044 15.9655Z" fill="#AA6256"/>
<path d="M19.8578 14.4818L19.8567 14.8394L17.3037 16.323L17.3048 15.9655L19.8578 14.4818Z" fill="#8A4852"/>
<path d="M19.9064 14.4533L17.3043 15.9655L10.0869 11.7976L11.9081 10.7391L15.1717 12.6234L15.9435 12.1749L19.9064 14.4533Z" fill="#C69C6C"/>
<path d="M7.66198 18.6397L7.65619 20.6817L6.79883 20.1867L6.80462 18.1448L7.66198 18.6397Z" fill="#4C5C75"/>
<path d="M18.0799 16.2691L18.0787 16.7159L16.8567 17.426L13.9199 15.7306L13.9211 15.2838L15.1432 14.5737L18.0799 16.2691Z" fill="#9EA9C9"/>
<path d="M16.8577 16.9792L18.0797 16.269L18.0785 16.716L16.8564 17.4261L16.8577 16.9792Z" fill="#B0B8CF"/>
<path d="M13.9219 15.284L15.1439 14.5739L18.0799 16.269L16.8579 16.9792L13.9219 15.284Z" fill="#C9CEE2"/>
<path d="M16.8572 16.9792L16.856 17.4261L13.9199 15.731L13.9211 15.2841L16.8572 16.9792Z" fill="#9EA9C9"/>
</svg>
