<svg width="20" height="21" viewBox="0 0 20 21" fill="none" xmlns="http://www.w3.org/2000/svg">
<path d="M13.4165 2.7946C13.3618 3.06385 13.3332 3.34254 13.3332 3.62793C13.3332 3.91332 13.3618 4.192 13.4165 4.46126H3.75939L10.0514 10.0129L14.258 6.24577C14.6134 6.68533 15.0564 7.05115 15.5605 7.3167L10.0597 12.2429L3.33317 6.30788V16.1279H16.6665V7.71125C16.9358 7.7659 17.2144 7.7946 17.4998 7.7946C17.7853 7.7946 18.0639 7.7659 18.3332 7.71125V16.9613C18.3332 17.4215 17.9601 17.7946 17.4998 17.7946H2.49984C2.0396 17.7946 1.6665 17.4215 1.6665 16.9613V3.62793C1.6665 3.1677 2.0396 2.7946 2.49984 2.7946H13.4165ZM17.4998 1.12793C18.8806 1.12793 19.9998 2.24722 19.9998 3.62793C19.9998 5.00864 18.8806 6.12793 17.4998 6.12793C16.1191 6.12793 14.9998 5.00864 14.9998 3.62793C14.9998 2.24722 16.1191 1.12793 17.4998 1.12793Z" fill="#11C767"/>
</svg>
