<svg width="20" height="21" viewBox="0 0 20 21" fill="none" xmlns="http://www.w3.org/2000/svg">
<path d="M13.416 2.7946C13.3614 3.06385 13.3327 3.34254 13.3327 3.62793C13.3327 3.91332 13.3614 4.192 13.416 4.46126H3.7589L10.0509 10.0129L14.2575 6.24577C14.6129 6.68533 15.0559 7.05115 15.56 7.3167L10.0592 12.2429L3.33268 6.30788V16.1279H16.666V7.71125C16.9353 7.7659 17.2139 7.7946 17.4993 7.7946C17.7848 7.7946 18.0634 7.7659 18.3327 7.71125V16.9613C18.3327 17.4215 17.9596 17.7946 17.4993 17.7946H2.49935C2.03912 17.7946 1.66602 17.4215 1.66602 16.9613V3.62793C1.66602 3.1677 2.03912 2.7946 2.49935 2.7946H13.416ZM17.4993 1.12793C18.8801 1.12793 19.9993 2.24722 19.9993 3.62793C19.9993 5.00864 18.8801 6.12793 17.4993 6.12793C16.1186 6.12793 14.9993 5.00864 14.9993 3.62793C14.9993 2.24722 16.1186 1.12793 17.4993 1.12793Z" fill="#11C767"/>
</svg>
