<svg width="32" height="33" viewBox="0 0 32 33" fill="none" xmlns="http://www.w3.org/2000/svg">
<rect y="0.987305" width="32" height="32" rx="6" fill="#E8E8E8"/>
<g clip-path="url(#clip0_51_1967)">
<mask id="mask0_51_1967" style="mask-type:luminance" maskUnits="userSpaceOnUse" x="6" y="6" width="20" height="21">
<path d="M6 6.98731H26V26.9873H6V6.98731Z" fill="white"/>
</mask>
<g mask="url(#mask0_51_1967)">
<path d="M24.75 16.9873C24.75 12.1548 20.8325 8.2373 16 8.2373C11.1675 8.2373 7.25 12.1548 7.25 16.9873C7.25 21.8198 11.1675 25.7373 16 25.7373C20.8325 25.7373 24.75 21.8198 24.75 16.9873Z" stroke="#181818" stroke-width="1.25" stroke-miterlimit="10" stroke-linecap="round" stroke-linejoin="round"/>
<path d="M17.4117 15.8584V14.7294C17.4117 14.2617 17.7908 13.8826 18.2584 13.8826H19.3875C19.5434 13.8826 19.6698 13.7562 19.6698 13.6004V11.9068C19.6698 11.7509 19.5434 11.6246 19.3875 11.6246H17.6939C15.9792 11.6246 14.5891 13.0146 14.5891 14.7294V16.9874H12.6133C12.4574 16.9874 12.3311 17.1138 12.3311 17.2697V18.9632C12.3311 19.1191 12.4574 19.2455 12.6133 19.2455H14.5891V24.3262" stroke="#181818" stroke-width="1.25" stroke-miterlimit="10" stroke-linecap="round" stroke-linejoin="round"/>
<path d="M17.4111 25.4561V19.2464H18.8843C19.0138 19.2464 19.1267 19.1582 19.1581 19.0326L19.5815 17.339C19.6261 17.1609 19.4913 16.9883 19.3077 16.9883H17.4111" stroke="#181818" stroke-width="1.25" stroke-miterlimit="10" stroke-linecap="round" stroke-linejoin="round"/>
</g>
</g>
<defs>
<clipPath id="clip0_51_1967">
<rect width="20" height="20" fill="white" transform="translate(6 6.9873)"/>
</clipPath>
</defs>
</svg>
