<svg width="20" height="21" viewBox="0 0 20 21" fill="none" xmlns="http://www.w3.org/2000/svg">
<g clip-path="url(#clip0_51_1968)">
<mask id="mask0_51_1968" style="mask-type:luminance" maskUnits="userSpaceOnUse" x="0" y="0" width="20" height="21">
<path d="M0 0.987307H20V20.9873H0V0.987307Z" fill="white"/>
</mask>
<g mask="url(#mask0_51_1968)">
<path d="M18.75 10.9873C18.75 6.1548 14.8325 2.2373 10 2.2373C5.1675 2.2373 1.25 6.1548 1.25 10.9873C1.25 15.8198 5.1675 19.7373 10 19.7373C14.8325 19.7373 18.75 15.8198 18.75 10.9873Z" stroke="#181818" stroke-width="1.25" stroke-miterlimit="10" stroke-linecap="round" stroke-linejoin="round"/>
<path d="M11.4113 9.85843V8.72941C11.4113 8.26173 11.7904 7.88262 12.2581 7.88262H13.3871C13.543 7.88262 13.6694 7.75624 13.6694 7.60036V5.90681C13.6694 5.75093 13.543 5.62455 13.3871 5.62455H11.6936C9.97882 5.62455 8.58875 7.01462 8.58875 8.72941V10.9874H6.61294C6.45706 10.9874 6.33069 11.1138 6.33069 11.2697V12.9632C6.33069 13.1191 6.45706 13.2455 6.61294 13.2455H8.58875V18.3262" stroke="#181818" stroke-width="1.25" stroke-miterlimit="10" stroke-linecap="round" stroke-linejoin="round"/>
<path d="M11.4113 19.4561V13.2464H12.8844C13.014 13.2464 13.1269 13.1582 13.1583 13.0326L13.5816 11.339C13.6262 11.1609 13.4914 10.9883 13.3078 10.9883H11.4113" stroke="#181818" stroke-width="1.25" stroke-miterlimit="10" stroke-linecap="round" stroke-linejoin="round"/>
</g>
</g>
<defs>
<clipPath id="clip0_51_1968">
<rect width="20" height="20" fill="white" transform="translate(0 0.987305)"/>
</clipPath>
</defs>
</svg>
