<svg width="60" height="60" viewBox="0 0 60 60" fill="none" xmlns="http://www.w3.org/2000/svg">
<path d="M47.3001 29.8C48.6076 30.0889 49.9733 29.9503 51.1961 29.4045C52.4188 28.8587 53.434 27.9347 54.092 26.7685C54.75 25.6023 55.0161 24.2556 54.851 22.9268C54.6859 21.5979 54.0984 20.3573 53.1751 19.3875L40.6751 6.88749C39.7053 5.96416 38.4647 5.37668 37.1359 5.21162C35.807 5.04655 34.4603 5.31262 33.2941 5.97062C32.1279 6.62862 31.2039 7.64377 30.6581 8.86653C30.1123 10.0893 29.9737 11.455 30.2626 12.7625L26.2501 8.74999C23.9215 6.46794 20.7864 5.19707 17.526 5.21354C14.2656 5.23 11.1435 6.53248 8.83805 8.83793C6.5326 11.1434 5.23013 14.2655 5.21366 17.5259C5.19719 20.7862 6.46807 23.9214 8.75011 26.25L12.7001 30.2C11.3926 29.9111 10.0269 30.0497 8.80415 30.5955C7.58139 31.1413 6.56624 32.0653 5.90824 33.2315C5.25024 34.3977 4.98417 35.7444 5.14924 37.0732C5.31431 38.402 5.90178 39.6427 6.82511 40.6125L19.3876 53.1125C20.3574 54.0358 21.5981 54.6233 22.9269 54.7884C24.2557 54.9534 25.6024 54.6874 26.7686 54.0294C27.9348 53.3714 28.8589 52.3562 29.4046 51.1334C29.9504 49.9107 30.089 48.545 29.8001 47.2375L33.7501 51.25C36.0787 53.532 39.2139 54.8029 42.4742 54.7864C45.7346 54.77 48.8567 53.4675 51.1622 51.162C53.4676 48.8566 54.7701 45.7345 54.7866 42.4741C54.803 39.2137 53.5322 36.0786 51.2501 33.75L47.3001 29.8Z" fill="#F4F4F6"/>
<path d="M6.25 15H3.75V16.25H6.25V15Z" fill="#E2DFF4"/>
<path d="M8.72461 11.25H7.47461V13.75H8.72461V11.25Z" fill="#E2DFF4"/>
<path d="M55 46.875C55 47.2458 54.89 47.6084 54.684 47.9167C54.478 48.225 54.1851 48.4654 53.8425 48.6073C53.4999 48.7492 53.1229 48.7863 52.7592 48.714C52.3955 48.6416 52.0614 48.4631 51.7992 48.2008C51.5369 47.9386 51.3584 47.6045 51.286 47.2408C51.2137 46.8771 51.2508 46.5001 51.3927 46.1575C51.5346 45.8149 51.775 45.522 52.0833 45.316C52.3916 45.11 52.7542 45 53.125 45C53.6223 45 54.0992 45.1975 54.4508 45.5492C54.8025 45.9008 55 46.3777 55 46.875ZM52.5 46.875C52.5 46.9986 52.5367 47.1195 52.6053 47.2222C52.674 47.325 52.7716 47.4051 52.8858 47.4524C53 47.4997 53.1257 47.5121 53.2469 47.488C53.3682 47.4639 53.4795 47.4044 53.5669 47.3169C53.6543 47.2295 53.7139 47.1182 53.738 46.9969C53.7621 46.8757 53.7497 46.75 53.7024 46.6358C53.6551 46.5216 53.575 46.424 53.4722 46.3553C53.3695 46.2867 53.2486 46.25 53.125 46.25C52.9592 46.25 52.8003 46.3158 52.6831 46.4331C52.5658 46.5503 52.5 46.7092 52.5 46.875Z" fill="#E2DFF4"/>
<path d="M33.125 57.5C34.1605 57.5 35 56.6605 35 55.625C35 54.5895 34.1605 53.75 33.125 53.75C32.0895 53.75 31.25 54.5895 31.25 55.625C31.25 56.6605 32.0895 57.5 33.125 57.5Z" fill="#F4F4F6"/>
<path d="M26.875 6.25C27.9105 6.25 28.75 5.41053 28.75 4.375C28.75 3.33947 27.9105 2.5 26.875 2.5C25.8395 2.5 25 3.33947 25 4.375C25 5.41053 25.8395 6.25 26.875 6.25Z" fill="#F4F4F6"/>
<path d="M6.875 47.5C6.50416 47.5 6.14165 47.39 5.83331 47.184C5.52496 46.978 5.28464 46.6851 5.14273 46.3425C5.00081 45.9999 4.96368 45.6229 5.03603 45.2592C5.10838 44.8955 5.28695 44.5614 5.54918 44.2992C5.8114 44.0369 6.14549 43.8584 6.50921 43.786C6.87292 43.7137 7.24992 43.7508 7.59253 43.8927C7.93514 44.0346 8.22798 44.275 8.43401 44.5833C8.64003 44.8916 8.75 45.2542 8.75 45.625C8.75 46.1223 8.55246 46.5992 8.20083 46.9508C7.8492 47.3025 7.37228 47.5 6.875 47.5ZM6.875 45C6.75139 45 6.63055 45.0367 6.52777 45.1053C6.42499 45.174 6.34488 45.2716 6.29758 45.3858C6.25027 45.5 6.23789 45.6257 6.26201 45.7469C6.28613 45.8682 6.34565 45.9795 6.43306 46.0669C6.52047 46.1543 6.63183 46.2139 6.75307 46.238C6.87431 46.2621 6.99997 46.2497 7.11418 46.2024C7.22838 46.1551 7.32599 46.075 7.39467 45.9722C7.46335 45.8695 7.5 45.7486 7.5 45.625C7.5 45.4592 7.43415 45.3003 7.31694 45.1831C7.19973 45.0658 7.04076 45 6.875 45Z" fill="#E2DFF4"/>
<path d="M56.25 16.25H53.75V17.5H56.25V16.25Z" fill="#E2DFF4"/>
<path d="M52.5 12.5H51.25V15H52.5V12.5Z" fill="#E2DFF4"/>
<path d="M31.25 46.25V22.5C31.25 21.837 31.5134 21.2011 31.9822 20.7322C32.4511 20.2634 33.087 20 33.75 20H30C29.337 20 28.7011 20.2634 28.2322 20.7322C27.7634 21.2011 27.5 21.837 27.5 22.5V46.25C27.5 46.913 27.7634 47.5489 28.2322 48.0178C28.7011 48.4866 29.337 48.75 30 48.75H33.75C33.087 48.75 32.4511 48.4866 31.9822 48.0178C31.5134 47.5489 31.25 46.913 31.25 46.25Z" fill="#D6DBE1"/>
<path d="M45 18.75H37.4125C37.1082 16.335 35.9336 14.1138 34.1087 12.503C32.2839 10.8922 29.9341 10.0022 27.5 10H26.25C23.5978 10 21.0543 11.0536 19.1789 12.9289C17.3036 14.8043 16.25 17.3478 16.25 20V21.9L16.475 22.025L17.5 22.775L18.525 22.025C18.525 22.025 18.675 21.95 18.75 21.9V20C18.75 18.0109 19.5402 16.1032 20.9467 14.6967C22.3532 13.2902 24.2609 12.5 26.25 12.5H27.5C29.2711 12.5018 30.9844 13.1303 32.3365 14.2742C33.6887 15.4182 34.5923 17.0037 34.8875 18.75H30C29.0054 18.75 28.0516 19.1451 27.3483 19.8483C26.6451 20.5516 26.25 21.5054 26.25 22.5V46.25C26.25 47.2446 26.6451 48.1984 27.3483 48.9016C28.0516 49.6049 29.0054 50 30 50H45C45.9946 50 46.9484 49.6049 47.6516 48.9016C48.3549 48.1984 48.75 47.2446 48.75 46.25V22.5C48.75 21.5054 48.3549 20.5516 47.6516 19.8483C46.9484 19.1451 45.9946 18.75 45 18.75ZM46.25 42.5H28.75V38.275L29.4375 38.6125C29.612 38.7004 29.8046 38.7462 30 38.7462C30.1954 38.7462 30.388 38.7004 30.5625 38.6125L32.5 37.65L34.4375 38.6125C34.612 38.7004 34.8046 38.7462 35 38.7462C35.1954 38.7462 35.388 38.7004 35.5625 38.6125L37.5 37.65L39.4375 38.6125C39.612 38.7004 39.8046 38.7462 40 38.7462C40.1954 38.7462 40.388 38.7004 40.5625 38.6125L42.5 37.65L44.4375 38.6125C44.612 38.7004 44.8046 38.7462 45 38.7462C45.1954 38.7462 45.388 38.7004 45.5625 38.6125L46.25 38.275V42.5ZM28.75 26.25H46.25V30.475L45 31.1L43.0625 30.1375C42.888 30.0496 42.6954 30.0038 42.5 30.0038C42.3046 30.0038 42.112 30.0496 41.9375 30.1375L40 31.1L38.0625 30.1375C37.888 30.0496 37.6954 30.0038 37.5 30.0038C37.3046 30.0038 37.112 30.0496 36.9375 30.1375L35 31.1L33.0625 30.1375C32.888 30.0496 32.6954 30.0038 32.5 30.0038C32.3046 30.0038 32.112 30.0496 31.9375 30.1375L30 31.1L28.75 30.475V26.25ZM46.25 35.475L45 36.1L43.0625 35.1375C42.888 35.0496 42.6954 35.0038 42.5 35.0038C42.3046 35.0038 42.112 35.0496 41.9375 35.1375L40 36.1L38.0625 35.1375C37.888 35.0496 37.6954 35.0038 37.5 35.0038C37.3046 35.0038 37.112 35.0496 36.9375 35.1375L35 36.1L33.0625 35.1375C32.888 35.0496 32.6954 35.0038 32.5 35.0038C32.3046 35.0038 32.112 35.0496 31.9375 35.1375L30 36.1L28.75 35.475V33.275L29.4375 33.6125C29.612 33.7004 29.8046 33.7462 30 33.7462C30.1954 33.7462 30.388 33.7004 30.5625 33.6125L32.5 32.65L34.4375 33.6125C34.612 33.7004 34.8046 33.7462 35 33.7462C35.1954 33.7462 35.388 33.7004 35.5625 33.6125L37.5 32.65L39.4375 33.6125C39.612 33.7004 39.8046 33.7462 40 33.7462C40.1954 33.7462 40.388 33.7004 40.5625 33.6125L42.5 32.65L44.4375 33.6125C44.612 33.7004 44.8046 33.7462 45 33.7462C45.1954 33.7462 45.388 33.7004 45.5625 33.6125L46.25 33.275V35.475ZM30 21.25H45C45.3315 21.25 45.6495 21.3817 45.8839 21.6161C46.1183 21.8505 46.25 22.1685 46.25 22.5V23.75H28.75V22.5C28.75 22.1685 28.8817 21.8505 29.1161 21.6161C29.3505 21.3817 29.6685 21.25 30 21.25ZM45 47.5H30C29.6685 47.5 29.3505 47.3683 29.1161 47.1339C28.8817 46.8995 28.75 46.5815 28.75 46.25V45H46.25V46.25C46.25 46.5815 46.1183 46.8995 45.8839 47.1339C45.6495 47.3683 45.3315 47.5 45 47.5Z" fill="#322F56"/>
<path d="M23 27.225L21.85 26.7125C21.6099 26.6088 21.4085 26.4324 21.2739 26.2081C21.1394 25.9839 21.0786 25.7231 21.1 25.4625L21.2375 24.2125C21.2613 23.973 21.2155 23.7317 21.1055 23.5177C20.9955 23.3036 20.826 23.1258 20.6175 23.0057C20.4089 22.8856 20.1701 22.8282 19.9298 22.8405C19.6894 22.8528 19.4577 22.9342 19.2625 23.075L18.2375 23.8125C18.0234 23.9689 17.7651 24.0532 17.5 24.0532C17.2349 24.0532 16.9766 23.9689 16.7625 23.8125L15.7375 23.075C15.5423 22.9342 15.3106 22.8528 15.0702 22.8405C14.8299 22.8282 14.5911 22.8856 14.3825 23.0057C14.174 23.1258 14.0045 23.3036 13.8945 23.5177C13.7845 23.7317 13.7387 23.973 13.7625 24.2125L13.9 25.4625C13.9214 25.7231 13.8606 25.9839 13.7261 26.2081C13.5915 26.4324 13.3901 26.6088 13.15 26.7125L12 27.225C11.7782 27.3228 11.5896 27.483 11.4572 27.6861C11.3248 27.8891 11.2543 28.1263 11.2543 28.3687C11.2543 28.6112 11.3248 28.8484 11.4572 29.0514C11.5896 29.2545 11.7782 29.4147 12 29.5125L13.15 30.025C13.3901 30.1287 13.5915 30.3051 13.7261 30.5294C13.8606 30.7536 13.9214 31.0144 13.9 31.275L13.7625 32.525C13.7292 32.7706 13.7696 33.0206 13.8787 33.2431C13.9877 33.4657 14.1605 33.6508 14.375 33.775C14.5802 33.9031 14.8181 33.9689 15.06 33.9645C15.3018 33.9601 15.5372 33.8855 15.7375 33.75L16.7625 33C16.9766 32.8436 17.2349 32.7593 17.5 32.7593C17.7651 32.7593 18.0234 32.8436 18.2375 33L19.2625 33.75C19.477 33.9053 19.7352 33.9884 20 33.9875C20.219 33.989 20.4345 33.933 20.625 33.825C20.8395 33.7008 21.0123 33.5157 21.1213 33.2931C21.2304 33.0706 21.2708 32.8206 21.2375 32.575L21.1 31.325C21.0786 31.0644 21.1394 30.8036 21.2739 30.5794C21.4085 30.3551 21.6099 30.1787 21.85 30.075L23 29.5625C23.2218 29.4647 23.4104 29.3045 23.5428 29.1014C23.6752 28.8984 23.7457 28.6612 23.7457 28.4188C23.7457 28.1763 23.6752 27.9391 23.5428 27.7361C23.4104 27.533 23.2218 27.3728 23 27.275V27.225ZM17.5 37.5C17.1685 37.5 16.8505 37.3683 16.6161 37.1339C16.3817 36.8995 16.25 36.5815 16.25 36.25C16.25 35.9185 16.3817 35.6005 16.6161 35.3661C16.8505 35.1317 17.1685 35 17.5 35C17.8315 35 18.1495 35.1317 18.3839 35.3661C18.6183 35.6005 18.75 35.9185 18.75 36.25C18.75 36.5815 18.6183 36.8995 18.3839 37.1339C18.1495 37.3683 17.8315 37.5 17.5 37.5ZM23.75 25C23.4185 25 23.1005 24.8683 22.8661 24.6339C22.6317 24.3995 22.5 24.0815 22.5 23.75C22.5 23.4185 22.6317 23.1005 22.8661 22.8661C23.1005 22.6317 23.4185 22.5 23.75 22.5C24.0815 22.5 24.3995 22.6317 24.6339 22.8661C24.8683 23.1005 25 23.4185 25 23.75C25 24.0815 24.8683 24.3995 24.6339 24.6339C24.3995 24.8683 24.0815 25 23.75 25ZM12.5 21.25C12.1685 21.25 11.8505 21.1183 11.6161 20.8839C11.3817 20.6495 11.25 20.3315 11.25 20C11.25 19.6685 11.3817 19.3505 11.6161 19.1161C11.8505 18.8817 12.1685 18.75 12.5 18.75C12.8315 18.75 13.1495 18.8817 13.3839 19.1161C13.6183 19.3505 13.75 19.6685 13.75 20C13.75 20.3315 13.6183 20.6495 13.3839 20.8839C13.1495 21.1183 12.8315 21.25 12.5 21.25Z" fill="#6666FF"/>
</svg>
