<svg width="32" height="32" viewBox="0 0 32 32" fill="none" xmlns="http://www.w3.org/2000/svg">
<path d="M28.8007 27.6712L26.2468 29.1456L24.9257 28.3776L24.9209 27.7243L27.4749 26.2499L28.7959 27.0179L28.8007 27.6712Z" fill="#B0B8CF"/>
<path d="M26.2412 28.4923L24.9199 27.7244L27.4745 26.2495L28.7958 27.0174L26.2412 28.4923Z" fill="#E3E7F0"/>
<path d="M26.2463 29.1455L24.9249 28.3776L24.9199 27.7244L26.2412 28.4923L26.2463 29.1455Z" fill="#B0B8CF"/>
<path d="M28.7958 27.0174L28.8007 27.6706L26.2463 29.1455L26.2412 28.4923L28.7958 27.0174Z" fill="#C9CEE2"/>
<path d="M26.3211 15.0276L25.3223 14.4471L27.4288 13.2309L28.4277 13.8115L26.3211 15.0276Z" fill="#E3E7F0"/>
<path d="M28.4317 27.0541L26.3245 28.2701L25.3259 27.6893L25.3223 14.4474L26.3209 15.0282L28.4281 13.811L28.4317 27.0541Z" fill="#1D2943"/>
<path d="M26.3249 28.2699L25.326 27.6894L25.3223 14.4471L26.3211 15.0276L26.3249 28.2699Z" fill="#4C5C75"/>
<path d="M28.4279 13.8114L28.4316 27.0538L26.325 28.2699L26.3213 15.0276L28.4279 13.8114Z" fill="#1D2943"/>
<path d="M20.4673 23.3059L10.8649 28.8498L0.54636 22.8531L0.543945 21.7518L10.1452 16.2079L20.4636 22.2046L20.4673 23.3059Z" fill="#AA6256"/>
<path d="M10.8648 28.8494L0.546108 22.8528L0.542969 21.7512L10.8617 27.7477L10.8648 28.8494Z" fill="#AA6256"/>
<path d="M10.8617 27.7477L0.542969 21.7512L10.1448 16.2076L20.4634 22.2041L10.8617 27.7477Z" fill="#BF7D5A"/>
<path d="M20.464 22.2041L20.4671 23.3058L10.8654 28.8494L10.8623 27.7477L20.464 22.2041Z" fill="#8A4852"/>
<path d="M18.0481 10.401L9.19336 5.25525L10.6056 5.91831L19.4603 11.064L18.0481 10.401Z" fill="#B0B8CF"/>
<path d="M18.047 10.4009L12.0708 13.852L10.6665 16.1403L1.81152 10.995L3.2159 8.70546L9.19326 5.25549L18.047 10.4009Z" fill="#B0B8CF"/>
<path d="M12.0706 13.8518L3.21582 8.70594L9.19282 5.25525L18.0475 10.401L12.0706 13.8518Z" fill="#E3E7F0"/>
<path d="M10.6672 16.1407L1.8125 10.9948L3.21615 8.70593L12.071 13.8518L10.6672 16.1407Z" fill="#B0B8CF"/>
<path d="M19.4601 11.064L18.0479 10.401L12.071 13.8518L10.6672 16.1407L1.8125 10.9948L1.83689 21.7231L10.6916 26.8689L19.4845 21.7924L19.4601 11.064Z" fill="#9EA9C9"/>
<path d="M10.6916 26.8689L1.83689 21.7231L1.8125 10.9948L10.6672 16.1407L10.6916 26.8689Z" fill="#9EA9C9"/>
<path d="M18.0476 10.401L19.4599 11.064L19.4843 21.7924L10.6914 26.8689L10.667 16.1407L12.0708 13.8518L18.0476 10.401Z" fill="#C9CEE2"/>
<path d="M11.3916 16.3444L12.5919 14.3873L18.0818 11.2176L18.736 11.5247L18.7584 21.3745L11.4126 25.6156L11.3916 16.3444Z" fill="#E3E7F0"/>
<path d="M3.39344 13.9143L3.15169 14.0549L3.13672 19.353L9.11009 22.8018L9.35184 22.6613L9.36694 17.3631L3.39344 13.9143Z" fill="#DEDFFB"/>
<path d="M9.12545 17.5036L9.3672 17.3631L9.3521 22.6613L9.11035 22.8017L9.12545 17.5036Z" fill="#DEDFFB"/>
<path d="M3.15137 14.0549L3.39312 13.9143L9.36661 17.3631L9.12486 17.5037L3.15137 14.0549Z" fill="#E9E7FC"/>
<path d="M9.12519 17.5036L9.11009 22.8017L3.13672 19.353L3.15169 14.0549L9.12519 17.5036Z" fill="white"/>
<path d="M5.96796 18.6387L8.76392 20.253L8.76307 20.5548L5.96712 18.9405L5.96796 18.6387ZM8.77044 17.9594L8.76959 18.2615L5.97364 16.6473L5.97448 16.3451L8.77044 17.9594ZM5.96386 20.1679L8.75981 21.7817L8.75897 22.0839L5.96289 20.4696L5.96386 20.1679ZM5.97038 17.8742L8.76609 19.4885L8.76549 19.7903L5.96941 18.1762L5.97038 17.8742ZM5.96591 19.4032L8.76186 21.0175L8.76102 21.3194L5.96506 19.7054L5.96591 19.4032ZM5.97243 17.1096L8.76838 18.724L8.76754 19.0258L5.97158 17.4115L5.97243 17.1096Z" fill="#DEDFFB"/>
<path d="M17.9216 6.31693L17.9192 8.73081L9.01719 13.9039L3.02051 10.4419L3.02292 8.02802L11.925 2.85489L17.9216 6.31693Z" fill="#1D2943"/>
<path d="M9.01758 13.9037L17.9199 8.7302L17.9222 6.31656L9.01987 11.4901L9.01758 13.9037Z" fill="#111D33"/>
<path d="M9.02 11.4901L17.9223 6.31656L11.9257 2.8544L3.02344 8.02789L9.02 11.4901Z" fill="#4C5C75"/>
<path d="M3.0228 8.02789L3.02051 10.4415L9.01707 13.9037L9.01936 11.4901L3.0228 8.02789Z" fill="#1D2943"/>
<path d="M7.21462 7.37958L5.4359 8.40599L4.86232 8.07271C4.8599 7.50878 5.25718 6.82169 5.74866 6.53792C5.99499 6.39543 6.2196 6.38214 6.38141 6.47633L6.95016 6.8072C7.11198 6.89777 7.21341 7.09701 7.21462 7.37958Z" fill="#111D33"/>
<path d="M6.38043 6.47572C6.21862 6.38177 5.99474 6.39506 5.74767 6.53779C5.25668 6.8212 4.85976 7.50854 4.86133 8.07258L5.43528 8.40611C5.43359 7.84194 5.83051 7.15473 6.32138 6.87131C6.56868 6.72858 6.79256 6.7153 6.95425 6.80925L6.38043 6.47572Z" fill="#1D2943"/>
<path d="M6.32165 6.87132C6.81288 6.58767 7.21222 6.81529 7.21379 7.37934L5.43555 8.40611C5.43386 7.84195 5.83078 7.15473 6.32165 6.87132ZM8.8674 8.33716L7.08868 9.36358L6.5151 9.03029C6.51268 8.46637 6.90997 7.77928 7.40144 7.4955C7.64778 7.35301 7.87238 7.33973 8.03419 7.43392L8.60295 7.76478C8.76476 7.85656 8.86619 8.0546 8.8674 8.33716Z" fill="#111D33"/>
<path d="M8.03375 7.43379C7.87206 7.33984 7.64806 7.35313 7.40099 7.49586C6.91 7.77927 6.51308 8.46649 6.51465 9.03065L7.0886 9.36418C7.08691 8.80001 7.48383 8.11279 7.97482 7.82938C8.222 7.68653 8.44588 7.67337 8.60757 7.76732L8.03375 7.43379Z" fill="#1D2943"/>
<path d="M7.97509 7.82924C8.4662 7.54571 8.86554 7.77321 8.86723 8.33738L7.08887 9.36415C7.08718 8.79999 7.4841 8.11265 7.97509 7.82924Z" fill="#111D33"/>
<path d="M16.8234 16.6058C16.8234 16.558 16.8147 16.5172 16.7994 16.4846L17.0447 16.6271C17.0602 16.6598 17.0686 16.7006 17.0689 16.7484C17.0694 16.9401 16.9346 17.1734 16.768 17.2696L16.5225 17.1271C16.6892 17.0308 16.824 16.7975 16.8234 16.6058Z" fill="#4C5C75"/>
<path d="M16.7568 16.4275L17.0022 16.57C17.0195 16.5848 17.0338 16.6039 17.0447 16.6272L16.7993 16.4846C16.7894 16.4627 16.7749 16.4433 16.7568 16.4275ZM16.3086 17.1486C16.3634 17.1799 16.439 17.1752 16.5224 17.127L16.7679 17.2696C16.6845 17.3179 16.6088 17.3225 16.554 17.2912L16.3086 17.1486Z" fill="#4C5C75"/>
<path d="M16.7568 16.4275C16.7502 16.4218 16.743 16.4167 16.7355 16.4123L16.9808 16.5548C16.9884 16.5592 16.9956 16.5643 17.0022 16.5701L16.8277 16.4687L16.7923 16.4481C16.7892 16.4463 16.7861 16.4445 16.783 16.4427L16.7784 16.44L16.7652 16.4322C16.7626 16.4307 16.7591 16.429 16.7567 16.4274L16.7568 16.4275ZM16.3076 17.148L16.3086 17.1486L16.554 17.2911C16.5536 17.291 16.5533 17.2908 16.553 17.2906L16.3076 17.148Z" fill="#4C5C75"/>
<path d="M16.7355 16.4121L16.9808 16.5548C16.926 16.5229 16.8499 16.5273 16.766 16.5758L16.5206 16.4333C16.6046 16.3847 16.6805 16.3803 16.7355 16.4121ZM16.5531 17.2906L16.3078 17.1481C16.2537 17.1165 16.22 17.0496 16.2197 16.9545C16.2192 16.7628 16.3539 16.5295 16.5206 16.4333L16.766 16.5758C16.5994 16.6721 16.4646 16.9054 16.4651 17.0971C16.4655 17.1922 16.4988 17.2591 16.5531 17.2906Z" fill="#B28AFD"/>
<path d="M17.1853 16.6813C17.1853 16.947 16.9993 17.2694 16.7686 17.4022C16.6455 17.4734 16.5344 17.4759 16.4583 17.4227L16.2265 17.2887C16.1516 17.2452 16.1045 17.1522 16.1045 17.0206C16.1033 16.7562 16.2905 16.4337 16.5199 16.3009C16.637 16.2333 16.7421 16.2273 16.8182 16.2719L17.0452 16.4036C17.05 16.4072 17.056 16.4096 17.0597 16.412C17.1369 16.4555 17.184 16.5485 17.1853 16.6813Z" fill="#1D2943"/>
<path d="M16.8178 16.2713L17.0633 16.414C16.9872 16.3699 16.8822 16.376 16.7659 16.4432L16.5205 16.3006C16.6367 16.2334 16.7419 16.2273 16.8178 16.2713Z" fill="#1D2943"/>
<path d="M16.9798 17.0465C17.0979 16.8433 17.0982 16.6232 16.9806 16.5548C16.8629 16.4864 16.6717 16.5957 16.5537 16.7989C16.4356 17.0021 16.4352 17.2222 16.5529 17.2906C16.6706 17.359 16.8618 17.2497 16.9798 17.0465Z" fill="#B28AFD"/>
<path d="M16.472 17.4316L16.2265 17.2891C16.1516 17.2454 16.105 17.1526 16.1045 17.021C16.1039 16.7563 16.2902 16.4335 16.5205 16.3006L16.7659 16.4431C16.5356 16.5761 16.3493 16.8989 16.35 17.1635C16.3503 17.2953 16.397 17.3881 16.472 17.4316Z" fill="#1D2943"/>
<path d="M16.7655 16.4432C16.9963 16.3099 17.1839 16.4168 17.1845 16.6814C17.1854 16.9466 16.999 17.2694 16.7683 17.4026C16.538 17.5355 16.3505 17.4286 16.3496 17.1635C16.3489 16.8989 16.5352 16.5761 16.7655 16.4432ZM16.7681 17.2696C16.9348 17.1734 17.0696 16.9399 17.0691 16.7484C17.0685 16.5568 16.9329 16.4795 16.7661 16.5758C16.5995 16.6721 16.4647 16.9054 16.4653 17.0971C16.4658 17.2886 16.6014 17.3657 16.7681 17.2696ZM16.5193 15.5604C16.6859 15.4641 16.8207 15.2304 16.8202 15.0388C16.9019 15.0865 16.9838 15.1339 17.0656 15.1815C17.0662 15.373 16.9314 15.6067 16.7646 15.7029C16.691 15.6602 16.5929 15.6031 16.5193 15.5604Z" fill="#4C5C75"/>
<path d="M16.8145 14.9763L17.0599 15.1189C17.0636 15.1382 17.0655 15.1591 17.0655 15.1815L16.8201 15.0389C16.8201 15.0165 16.8181 14.9955 16.8145 14.9763Z" fill="#4C5C75"/>
<path d="M16.8148 14.9762C16.8111 14.9561 16.805 14.9364 16.7964 14.9178L17.0418 15.0603C17.0499 15.0777 17.0562 15.0972 17.0603 15.1188L16.8148 14.9762ZM16.3057 15.5817C16.3605 15.6131 16.4361 15.6085 16.5195 15.5603L16.7649 15.7029C16.6816 15.7512 16.6059 15.7558 16.551 15.7243L16.3057 15.5818V15.5817Z" fill="#4C5C75"/>
<path d="M16.7965 14.9178C16.7831 14.8876 16.7608 14.8623 16.7325 14.8453L16.978 14.9879C17.0048 15.0036 17.0267 15.0282 17.0419 15.0604L16.9192 14.9892L16.9031 14.9797L16.8713 14.9613L16.8556 14.9521L16.8251 14.9345C16.8166 14.9294 16.8032 14.9252 16.7965 14.9178ZM16.3047 15.5812L16.3058 15.5817L16.5511 15.7243C16.5508 15.7242 16.5505 15.724 16.5502 15.7238L16.3047 15.5812Z" fill="#4C5C75"/>
<path d="M16.7323 14.8454L16.9777 14.9878C16.9228 14.9561 16.8468 14.9604 16.763 15.0089L16.5176 14.8664C16.6014 14.8178 16.6775 14.8135 16.7323 14.8454Z" fill="#F45170"/>
<path d="M16.5503 15.724L16.3049 15.5814C16.2506 15.5498 16.217 15.4827 16.2168 15.3875C16.2162 15.1961 16.3508 14.9625 16.5177 14.8662L16.7631 15.0089C16.5965 15.1052 16.4616 15.3388 16.4622 15.5302C16.4624 15.6253 16.496 15.6924 16.5503 15.724Z" fill="#F45170"/>
<path d="M17.1813 15.1151C17.1825 15.3796 16.9954 15.7032 16.7647 15.836C16.6331 15.9121 16.5172 15.9073 16.4399 15.8421C16.4496 15.8493 16.458 15.859 16.4677 15.865L16.2225 15.7225C16.1477 15.679 16.1018 15.5861 16.1006 15.4544C16.1006 15.1888 16.2865 14.8664 16.5172 14.7335C16.6331 14.6671 16.7382 14.6599 16.8142 14.7046L17.0582 14.847C17.1342 14.8905 17.1813 14.9823 17.1813 15.1151Z" fill="#1D2943"/>
<path d="M16.8139 14.7044L17.0593 14.847C16.9833 14.803 16.8781 14.8091 16.762 14.8763L16.5166 14.7336C16.6328 14.6665 16.7379 14.6603 16.8139 14.7044Z" fill="#1D2943"/>
<path d="M16.7628 15.0088C16.9295 14.9126 17.0652 14.9901 17.0657 15.1815C17.0663 15.373 16.9315 15.6066 16.7648 15.7029C16.5981 15.7992 16.4624 15.7217 16.4619 15.5301C16.4613 15.3388 16.5961 15.1051 16.7628 15.0088Z" fill="#F45170"/>
<path d="M16.4679 15.8649L16.2225 15.7224C16.1476 15.6787 16.1011 15.5859 16.1006 15.4543C16.0999 15.1894 16.2862 14.8666 16.5166 14.7336L16.762 14.8761C16.5317 15.0092 16.3454 15.332 16.3461 15.5968C16.3464 15.7287 16.3929 15.8214 16.468 15.8649H16.4679Z" fill="#1D2943"/>
<path d="M16.7626 14.8763C16.9933 14.743 17.1809 14.8498 17.1816 15.1148C17.1824 15.3799 16.9961 15.7027 16.7652 15.8359C16.5349 15.969 16.3474 15.862 16.3467 15.5968C16.346 15.332 16.5323 15.0092 16.7626 14.8763ZM16.7651 15.703C16.9319 15.6067 17.0666 15.3731 17.066 15.1815C17.0655 14.9901 16.9299 14.9126 16.7632 15.0089C16.5965 15.1052 16.4618 15.3388 16.4622 15.5302C16.4628 15.7217 16.5985 15.7992 16.7651 15.703ZM18.0628 15.8906C18.0626 15.8428 18.054 15.8021 18.0387 15.7694L18.2841 15.912C18.2995 15.9447 18.308 15.9854 18.3082 16.0332C18.3087 16.2249 18.1739 16.4583 18.0071 16.5546L17.7617 16.412C17.9286 16.3155 18.0633 16.0824 18.0627 15.8906H18.0628Z" fill="#4C5C75"/>
<path d="M18.0386 15.7694C18.0252 15.7392 18.0028 15.714 17.9746 15.697L18.2201 15.8396C18.247 15.8553 18.2689 15.8797 18.2841 15.9121L18.1614 15.8408L18.0672 15.786C18.0588 15.7811 18.0454 15.7767 18.0386 15.7694ZM17.5469 16.4329C17.6017 16.4648 17.6777 16.4603 17.7616 16.412L18.007 16.5545C17.9231 16.6029 17.8471 16.6074 17.7922 16.5755L17.5469 16.4329Z" fill="#4C5C75"/>
<path d="M17.9747 15.697L18.2201 15.8396C18.1653 15.8077 18.0891 15.8122 18.0052 15.8608L17.7597 15.7181C17.8437 15.6696 17.9198 15.665 17.9747 15.697ZM17.7924 16.5755L17.5471 16.433C17.4928 16.4014 17.4592 16.3345 17.459 16.2392C17.4585 16.0477 17.5931 15.8143 17.7597 15.7181L18.005 15.8608C17.8386 15.9569 17.7039 16.1903 17.7044 16.3818C17.7047 16.4771 17.7383 16.544 17.7925 16.5755H17.7924Z" fill="#FFD06C"/>
<path d="M18.4235 15.9664C18.4235 16.2309 18.2376 16.5545 18.0069 16.6873C17.8741 16.7634 17.7582 16.7586 17.6809 16.6934C17.6906 16.7006 17.699 16.7103 17.7099 16.7163L17.4647 16.5738C17.3899 16.5304 17.3428 16.4374 17.3428 16.3058C17.3416 16.0413 17.5275 15.7189 17.7582 15.5849C17.8741 15.5184 17.9804 15.5124 18.0564 15.5559L18.3004 15.6984C18.3752 15.7418 18.4223 15.8348 18.4235 15.9664Z" fill="#1D2943"/>
<path d="M18.0048 15.8608C18.1718 15.7644 18.3074 15.8417 18.3079 16.0332C18.3085 16.2249 18.1738 16.4583 18.0068 16.5546C17.8402 16.6508 17.7047 16.5735 17.7041 16.382C17.7036 16.1903 17.8384 15.9569 18.0048 15.8608Z" fill="#FFD06C"/>
<path d="M17.7101 16.7164L17.4646 16.5739C17.3897 16.5304 17.3431 16.4376 17.3428 16.3059C17.3421 16.0412 17.5284 15.7184 17.7589 15.5853L18.0043 15.7279C17.7738 15.861 17.5874 16.1838 17.5881 16.4485C17.5886 16.5802 17.6351 16.673 17.7101 16.7166V16.7164Z" fill="#1D2943"/>
<path d="M18.004 15.7279C18.2348 15.5947 18.4224 15.7016 18.423 15.9663C18.4239 16.2314 18.2376 16.5541 18.0068 16.6874C17.7762 16.8205 17.5887 16.7136 17.5879 16.4483C17.5872 16.1839 17.7735 15.861 18.004 15.7279ZM18.0064 16.5546C18.1733 16.4581 18.3081 16.225 18.3076 16.0332C18.307 15.8417 18.1714 15.7644 18.0045 15.8608C17.8379 15.9569 17.7032 16.1903 17.7038 16.3818C17.7043 16.5735 17.8399 16.6507 18.0064 16.5545V16.5546ZM17.7576 14.8453C17.9246 14.749 18.0592 14.5153 18.0587 14.3237L18.3041 14.4663C18.3047 14.6579 18.1699 14.8916 18.0029 14.9879L17.7576 14.8453Z" fill="#4C5C75"/>
<path d="M18.0557 14.2739L18.301 14.4165C18.3033 14.4322 18.3045 14.4488 18.3047 14.4663L18.0592 14.3238C18.0592 14.3062 18.058 14.2895 18.0557 14.2739Z" fill="#4C5C75"/>
<path d="M18.0557 14.2739C18.0524 14.2493 18.0455 14.2253 18.0352 14.2027L18.2805 14.3452C18.2902 14.3658 18.2972 14.3897 18.3011 14.4166L18.0557 14.2739Z" fill="#4C5C75"/>
<path d="M18.0348 14.2026C18.0214 14.1725 17.9991 14.1472 17.9708 14.1302L18.2162 14.2729C18.2431 14.2886 18.265 14.313 18.2802 14.3453L18.1576 14.2741C18.1416 14.2647 18.1256 14.2554 18.1095 14.2461L18.0785 14.2279L18.0488 14.2108C18.0446 14.2084 18.0381 14.2062 18.0348 14.2026ZM17.543 14.8661C17.5979 14.8981 17.6739 14.8938 17.7577 14.8454L18.003 14.9878C17.9192 15.0364 17.8433 15.0407 17.7883 15.0087L17.543 14.8661Z" fill="#4C5C75"/>
<path d="M17.9708 14.1302L18.2163 14.2727C18.1614 14.2408 18.0853 14.2453 18.0014 14.2939L17.7559 14.1512C17.8399 14.1027 17.916 14.0982 17.9708 14.1302Z" fill="#57B3FE"/>
<path d="M17.7886 15.0088L17.5432 14.8662C17.4889 14.8346 17.4553 14.7676 17.4551 14.6723C17.4545 14.481 17.5891 14.2474 17.7558 14.1512L18.0011 14.2937C17.8346 14.39 17.6998 14.6236 17.7005 14.8149C17.7007 14.9103 17.7344 14.9772 17.7886 15.0088Z" fill="#57B3FE"/>
<path d="M18.4206 14.4002C18.4206 14.6647 18.2346 14.9871 18.004 15.1212C17.8724 15.1972 17.7552 15.1924 17.6792 15.1272C17.6876 15.1344 17.6961 15.1441 17.7069 15.1501L17.4618 15.0076C17.3869 14.9642 17.3398 14.8712 17.3398 14.7396C17.3386 14.4739 17.5258 14.1515 17.7552 14.0187C17.8724 13.951 17.9774 13.945 18.0535 13.9897L18.2974 14.1322C18.3735 14.1744 18.4194 14.2674 18.4206 14.4002Z" fill="#1D2943"/>
<path d="M18.0009 14.2937C18.1679 14.1975 18.3035 14.275 18.304 14.4664C18.3046 14.6579 18.1698 14.8915 18.0028 14.988C17.8363 15.0841 17.7007 15.0065 17.7002 14.8149C17.6996 14.6236 17.8344 14.3899 18.0009 14.2937Z" fill="#57B3FE"/>
<path d="M18.0533 13.9893C17.9772 13.9451 17.8721 13.9514 17.756 14.0184C17.5253 14.1515 17.3391 14.4743 17.3398 14.7392C17.3402 14.8709 17.3867 14.9637 17.4617 15.0073L17.7071 15.1498C17.6322 15.1063 17.5856 15.0135 17.5852 14.8817C17.5845 14.6169 17.7708 14.2941 18.0013 14.161C18.1175 14.094 18.2227 14.0877 18.2986 14.1319L18.0533 13.9893Z" fill="#1D2943"/>
<path d="M18.0011 14.161C18.2318 14.0278 18.4194 14.1347 18.4201 14.3997C18.4209 14.6647 18.2346 14.9876 18.0039 15.1208C17.7732 15.2539 17.5857 15.147 17.585 14.8818C17.5842 14.6169 17.7706 14.2941 18.0011 14.161ZM18.0035 14.988C18.1704 14.8916 18.3051 14.6579 18.3045 14.4663C18.3041 14.275 18.1685 14.1975 18.0014 14.2939C17.8349 14.39 17.7002 14.6235 17.7008 14.8149C17.7012 15.0066 17.8371 15.0841 18.0035 14.988Z" fill="#4C5C75"/>
<path d="M21.8926 16.6932C21.4158 16.6932 20.8918 16.5363 20.3527 16.2248L18.0256 14.8813C17.9789 14.8534 17.9451 14.8083 17.9315 14.7556C17.9178 14.703 17.9254 14.6471 17.9526 14.6C17.9797 14.5529 18.0244 14.5184 18.0768 14.504C18.1292 14.4895 18.1852 14.4962 18.2327 14.5227L20.5596 15.8662C21.3509 16.323 22.0842 16.4033 22.6245 16.0924C23.1607 15.7838 23.4574 15.1171 23.46 14.2151L23.4675 11.5412C23.4679 11.427 23.5605 11.3347 23.6746 11.3347H23.6752C23.7024 11.3348 23.7293 11.3403 23.7544 11.3507C23.7795 11.3612 23.8023 11.3765 23.8215 11.3958C23.8407 11.4151 23.8559 11.438 23.8662 11.4631C23.8765 11.4883 23.8818 11.5152 23.8817 11.5424L23.8742 14.2163C23.8712 15.2723 23.5007 16.066 22.8312 16.4514C22.5504 16.6129 22.2334 16.6932 21.8926 16.6932Z" fill="#1D2943"/>
<path d="M22.1028 19.6882C21.4529 19.6882 20.7369 19.4731 19.9987 19.047L16.7578 17.1758C16.7342 17.1622 16.7136 17.1441 16.6971 17.1225C16.6805 17.1009 16.6684 17.0763 16.6613 17.05C16.6543 17.0237 16.6525 16.9963 16.6561 16.9694C16.6596 16.9424 16.6685 16.9164 16.6821 16.8928C16.6957 16.8693 16.7138 16.8487 16.7354 16.8321C16.757 16.8156 16.7816 16.8034 16.8079 16.7964C16.8341 16.7894 16.8615 16.7876 16.8885 16.7911C16.9155 16.7947 16.9415 16.8035 16.965 16.8171L20.2058 18.6882C21.3339 19.3395 22.384 19.4514 23.1629 19.0033C23.9357 18.5585 24.3634 17.6051 24.367 16.3187L24.3777 12.5946C24.3779 12.4805 24.4706 12.3881 24.5847 12.3881H24.5852C24.6124 12.3882 24.6393 12.3936 24.6644 12.4041C24.6895 12.4146 24.7123 12.4299 24.7315 12.4492C24.7507 12.4685 24.7659 12.4913 24.7762 12.5165C24.7865 12.5416 24.7918 12.5686 24.7917 12.5958L24.7812 16.3199C24.7771 17.7602 24.2757 18.8407 23.3695 19.3623C22.991 19.5801 22.5634 19.6883 22.1028 19.6883V19.6882Z" fill="#1D2943"/>
<path d="M23.9108 10.5336L23.907 11.8417L22.0078 12.9454L22.0116 11.6374L23.9108 10.5336Z" fill="#DEDFFB"/>
<path d="M22.0115 11.6374L22.0078 12.9454L15.7881 9.35437L15.7918 8.04636L22.0115 11.6374Z" fill="#DEDFFB"/>
<path d="M22.0111 12.019L22.0088 12.5638L15.7891 8.97279L15.7914 8.42795L22.0111 12.019Z" fill="#4C5C75"/>
<path d="M23.9109 10.5335L22.0117 11.6374L15.792 8.04636L17.6912 6.94266L23.9109 10.5335Z" fill="#E9E7FC"/>
<path d="M23.0951 9.78223L24.3587 10.5164C24.4184 10.5512 24.4555 10.6251 24.4559 10.7302C24.4565 10.9421 24.3073 11.2 24.123 11.3065L22.8594 10.5723C23.0439 10.4657 23.1929 10.2079 23.1923 9.99596C23.1921 9.89091 23.1549 9.817 23.0951 9.78223Z" fill="#FFDE9B"/>
<path d="M23.8855 11.3298L22.6221 10.5956C22.6828 10.6309 22.767 10.6258 22.8597 10.5722L24.1233 11.3064C24.0303 11.3601 23.9463 11.3651 23.8855 11.3298Z" fill="#FFD06C"/>
<path d="M25.4601 12.5877L22.7962 14.1261L21.5319 13.3919L21.5283 11.7014L24.1922 10.163L25.4565 10.8972L25.4601 12.5877Z" fill="#C9CEE2"/>
<path d="M22.7918 12.4361L21.5283 11.7019L24.1929 10.1635L25.4565 10.8976L22.7918 12.4361Z" fill="#E3E7F0"/>
<path d="M22.7966 14.1266L21.533 13.3923L21.5283 11.7018L22.7918 12.436L22.7966 14.1266Z" fill="#C9CEE2"/>
<path d="M25.4557 10.8976L25.4604 12.5882L22.7958 14.1266L22.791 12.4361L25.4557 10.8976Z" fill="#B0B8CF"/>
<path d="M31.0714 14.6675L31.0678 15.9756L29.1684 17.0793L29.1722 15.7713L31.0714 14.6675ZM29.1722 15.7713L29.1684 17.0793L23.4395 13.7717L23.4432 12.4636L29.1722 15.7713Z" fill="#DEDFFB"/>
<path d="M29.1707 16.1529L29.1684 16.6977L23.4395 13.39L23.4417 12.8453L29.1707 16.1529Z" fill="#4C5C75"/>
<path d="M31.0706 14.6675L29.1714 15.7713L23.4424 12.4636L25.3416 11.3599L31.0706 14.6675ZM5.66055 7.11088C5.61913 7.11088 5.57808 7.09373 5.54885 7.06004L4.08313 5.37358C4.0574 5.34396 4.04449 5.30533 4.04724 5.26618C4.04999 5.22704 4.06818 5.19059 4.0978 5.16486C4.12743 5.13912 4.16606 5.12621 4.2052 5.12897C4.24435 5.13172 4.28079 5.14991 4.30653 5.17953L5.77213 6.86587C5.79072 6.88728 5.80276 6.91359 5.80682 6.94166C5.81088 6.96972 5.80679 6.99836 5.79503 7.02417C5.78327 7.04997 5.76434 7.07185 5.7405 7.08721C5.71666 7.10256 5.68891 7.11086 5.66055 7.11088Z" fill="#E9E7FC"/>
<path d="M4.63158 5.22867C4.63162 5.292 4.61918 5.35473 4.59498 5.41326C4.57078 5.47179 4.53529 5.52498 4.49053 5.56979C4.44578 5.6146 4.39263 5.65016 4.33413 5.67444C4.27563 5.69871 4.21292 5.71122 4.14959 5.71126C4.08625 5.7113 4.02353 5.69887 3.965 5.67467C3.90647 5.65047 3.85328 5.61497 3.80847 5.57022C3.76365 5.52546 3.72809 5.47231 3.70382 5.41381C3.67955 5.35531 3.66703 5.29261 3.66699 5.22927C3.66693 5.10136 3.71768 4.97866 3.80808 4.88817C3.89848 4.79767 4.02113 4.7468 4.14905 4.74673C4.27696 4.74667 4.39966 4.79742 4.49015 4.88782C4.58064 4.97823 4.63152 5.10075 4.63158 5.22867Z" fill="#4C5C75"/>
<path d="M7.45547 8.00532C7.41417 8.00532 7.373 7.98817 7.34377 7.95448L5.87805 6.26814C5.86531 6.25348 5.85558 6.23644 5.84943 6.21801C5.84327 6.19959 5.8408 6.18012 5.84216 6.16074C5.84352 6.14136 5.84869 6.12244 5.85737 6.10505C5.86604 6.08767 5.87806 6.07216 5.89273 6.05942C5.90739 6.04668 5.92443 6.03695 5.94286 6.03079C5.96128 6.02463 5.98074 6.02216 6.00013 6.02353C6.01951 6.02489 6.03843 6.03006 6.05582 6.03873C6.0732 6.04741 6.08871 6.05942 6.10145 6.07409L7.56693 7.76043C7.58552 7.78185 7.59756 7.80815 7.60162 7.83622C7.60568 7.86428 7.60159 7.89292 7.58983 7.91873C7.57807 7.94453 7.55915 7.96642 7.5353 7.98177C7.51146 7.99712 7.48383 8.0053 7.45547 8.00532Z" fill="#E9E7FC"/>
<path d="M6.42565 6.12323C6.42568 6.18657 6.41323 6.2493 6.38902 6.30783C6.36481 6.36637 6.32931 6.41956 6.28454 6.46437C6.23977 6.50919 6.18661 6.54474 6.1281 6.56901C6.06959 6.59328 6.00688 6.60579 5.94353 6.60582C5.88019 6.60585 5.81746 6.59341 5.75893 6.5692C5.70039 6.54499 5.6472 6.50948 5.60239 6.46472C5.55757 6.41995 5.52202 6.36679 5.49775 6.30828C5.47348 6.24977 5.46097 6.18705 5.46094 6.12371C5.46087 5.99578 5.51163 5.87307 5.60205 5.78256C5.69246 5.69206 5.81512 5.64118 5.94305 5.64111C6.07098 5.64105 6.19369 5.69181 6.2842 5.78222C6.3747 5.87263 6.42558 5.9953 6.42565 6.12323Z" fill="#111D33"/>
<path d="M14.177 4.47903L14.1758 5.23858L13.4018 5.689L12.4708 5.15164C12.0131 5.24703 11.4806 5.18907 11.1123 4.97654C10.8575 4.82922 10.7295 4.63601 10.7295 4.44281L10.7319 3.68205C10.7331 3.49126 10.8587 3.30047 11.1087 3.15556C11.6122 2.86213 12.4333 2.86213 12.9405 3.15556C13.2122 3.31254 13.3378 3.52145 13.3197 3.72673C13.3209 3.71466 13.3233 3.70258 13.3233 3.6905L13.3221 3.98515L14.177 4.47903Z" fill="#9EA9C9"/>
<path d="M12.8974 3.6887L12.8952 4.44849C12.8956 4.31867 12.81 4.18874 12.6384 4.08972C12.2976 3.89289 11.7469 3.89289 11.4081 4.08972C11.2398 4.18753 11.1558 4.31541 11.1553 4.44353L11.1574 3.68375C11.1578 3.55563 11.242 3.42775 11.4102 3.32993C11.7489 3.1331 12.2998 3.1331 12.6406 3.32993C12.812 3.42895 12.8978 3.55889 12.8974 3.6887Z" fill="#C9CEE2"/>
<path d="M13.3227 3.68991L13.3205 4.4497C13.3202 4.56345 13.2759 4.66694 13.207 4.75581L13.2092 3.99602L13.2173 3.9854C13.2302 3.96765 13.2354 3.96076 13.2469 3.94193C13.2972 3.86066 13.3225 3.77528 13.3227 3.68991Z" fill="#111D33"/>
<path d="M12.5763 3.68786L12.5742 4.44753C12.574 4.52844 12.5207 4.60922 12.4145 4.67093C12.2007 4.7953 11.8531 4.7953 11.6378 4.67093C11.5294 4.6085 11.4753 4.52638 11.4756 4.44439L11.4778 3.68472C11.4775 3.76659 11.5316 3.84871 11.6399 3.91114C11.8552 4.03552 12.2029 4.03552 12.4166 3.91114C12.5229 3.84943 12.576 3.76865 12.5763 3.68774V3.68786Z" fill="#B0B8CF"/>
<path d="M13.2092 3.996L13.2072 4.75579C13.1758 4.79588 13.1425 4.83006 13.1049 4.86302L13.1071 4.10323C13.1445 4.07051 13.1777 4.03633 13.2092 3.996ZM13.1071 4.10323L13.1049 4.86302C13.0955 4.87075 13.095 4.87147 13.0859 4.87908L13.0881 4.11929C13.0972 4.11156 13.0975 4.11084 13.1071 4.10323Z" fill="#111D33"/>
<path d="M13.0879 4.11929L13.0857 4.87908C13.0776 4.88548 13.0691 4.89236 13.0607 4.8984L13.0628 4.13873C13.0712 4.1327 13.0798 4.12569 13.0879 4.11929ZM13.0628 4.13873L13.0607 4.89852C13.0442 4.9112 13.035 4.91772 13.0178 4.9298L13.0199 4.17001C13.0371 4.15793 13.0464 4.15153 13.0628 4.13873ZM13.0199 4.17001L13.0178 4.9298C13.0121 4.93366 13.0063 4.93777 13 4.94175L13.0022 4.18197C13.0085 4.17798 13.0142 4.17387 13.0199 4.17001Z" fill="#111D33"/>
<path d="M13.0028 4.18198L13.0006 4.94177L12.9902 4.94853L12.9924 4.18874C12.996 4.18644 12.9997 4.18427 13.0028 4.18198Z" fill="#111D33"/>
<path d="M12.9917 4.18875L12.9896 4.94854L12.981 4.95409L12.9832 4.19431C12.9861 4.19249 12.989 4.19068 12.9917 4.18875ZM12.9832 4.19431L12.981 4.95409C12.9488 4.97462 12.9045 4.99914 12.8839 5.00916L12.8861 4.24937C12.9193 4.23249 12.9517 4.2142 12.9832 4.19431ZM12.8861 4.24937L12.8839 5.00916C12.8719 5.01556 12.8378 5.0321 12.8096 5.04442L12.8117 4.28463C12.8407 4.27207 12.874 4.25577 12.8861 4.24937ZM12.8117 4.28463L12.8096 5.04442C12.7835 5.05649 12.764 5.06374 12.752 5.06857L12.7541 4.30878C12.7673 4.30347 12.787 4.2961 12.8117 4.28463Z" fill="#111D33"/>
<path d="M12.7549 4.30878L12.7527 5.06844C12.7016 5.08873 12.6399 5.1089 12.5986 5.12013L12.6008 4.36034C12.6425 4.34899 12.7038 4.32894 12.7549 4.30878Z" fill="#111D33"/>
<path d="M10.7295 4.44231L10.7317 3.68253C10.7312 3.87573 10.8587 4.0693 11.1141 4.21674C11.4824 4.42939 12.0153 4.4876 12.4725 4.39184C12.5005 4.38592 12.5235 4.38049 12.5368 4.37711L12.5347 5.1369C12.5213 5.14028 12.4967 5.14607 12.4703 5.15163C12.0131 5.24739 11.4802 5.18918 11.1119 4.97653C10.8565 4.82909 10.729 4.63552 10.7295 4.44231Z" fill="#C9CEE2"/>
<path d="M13.2475 3.94167C13.4117 3.67722 13.309 3.36809 12.9407 3.15556C12.4336 2.86213 11.6124 2.86213 11.1089 3.15556C10.6041 3.449 10.6078 3.92356 11.1149 4.217C11.4832 4.42952 12.0158 4.48749 12.4734 4.39209L13.4032 4.92945L14.1773 4.47903L13.2475 3.94167ZM12.6449 4.04311C12.3056 4.23994 11.7549 4.23994 11.4144 4.04311C11.0739 3.84628 11.0714 3.52628 11.4108 3.32945C11.7489 3.13262 12.2995 3.13262 12.6413 3.32945C12.9818 3.52628 12.983 3.84628 12.6449 4.04311Z" fill="#9EA9C9"/>
<path d="M12.9839 4.1943C12.9597 4.20975 12.9254 4.22944 12.8985 4.24332C12.8703 4.25807 12.8416 4.27185 12.8124 4.28462C12.7873 4.29634 12.7669 4.30394 12.7548 4.30877C12.6947 4.33237 12.6333 4.35237 12.5708 4.36867C12.5598 4.37166 12.5487 4.37448 12.5376 4.37712C12.5243 4.3805 12.502 4.38581 12.4732 4.39185C12.016 4.48761 11.4831 4.42941 11.1147 4.21676C10.6073 3.92381 10.6047 3.44876 11.1088 3.15569C11.6131 2.86261 12.4332 2.86261 12.9407 3.15569C13.309 3.36834 13.4115 3.67674 13.2474 3.94192C13.2358 3.96076 13.2306 3.96764 13.2178 3.98539C13.2151 3.98901 13.2125 3.99264 13.2097 3.99602C13.1783 4.03611 13.1451 4.0704 13.1075 4.10325C13.098 4.11098 13.0976 4.1117 13.0886 4.11931C13.0805 4.12571 13.0719 4.13259 13.0635 4.13875C13.047 4.15155 13.0379 4.15807 13.0206 4.17015C13.0148 4.17389 13.0091 4.178 13.0028 4.18198C12.9996 4.18428 12.9961 4.18645 12.9925 4.18874L12.9839 4.1943ZM11.4147 4.04251C11.7556 4.23934 12.3062 4.23934 12.6449 4.04251C12.9836 3.84568 12.9818 3.52677 12.6409 3.32994C12.3002 3.13311 11.7493 3.13311 11.4106 3.32994C11.072 3.52677 11.0739 3.8458 11.4147 4.04251Z" fill="#9EA9C9"/>
<path d="M14.1774 4.47916L13.4032 4.92909L12.4727 4.39174C12.5264 4.38063 12.5582 4.37169 12.5702 4.36879L12.5934 4.36239C12.7291 4.32436 12.8666 4.26857 12.9833 4.1943C13.0228 4.16943 13.0537 4.14685 13.088 4.11931L13.107 4.10325C13.1495 4.06606 13.1852 4.02718 13.2072 3.99856L13.2091 3.99614L13.2172 3.9854C13.2276 3.97139 13.2369 3.95799 13.2468 3.94193L14.1774 4.47916Z" fill="#9EA9C9"/>
<path d="M12.5768 3.68784C12.5773 3.51217 12.3318 3.36907 12.0285 3.36821C11.7252 3.36734 11.4789 3.50905 11.4784 3.68471C11.4779 3.86037 11.7234 4.00348 12.0267 4.00434C12.33 4.0052 12.5763 3.8635 12.5768 3.68784Z" fill="#9EA9C9"/>
<path d="M14.1777 4.47916L14.1755 5.23895L13.4014 5.68888L13.4035 4.92909L14.1777 4.47916Z" fill="#C9CEE2"/>
<path d="M13.4034 4.92908L13.4012 5.68887L12.4707 5.15163L12.4729 4.39185L13.4034 4.92908Z" fill="#B0B8CF"/>
<path d="M22.4093 9.72038L23.6767 10.4523L23.4957 10.5571L23.375 10.7964L22.1095 10.0654L13.7486 5.23531C13.7199 5.21877 13.7021 5.18351 13.7021 5.13327C13.7018 5.03208 13.7728 4.90891 13.8607 4.85832C13.9051 4.83296 13.945 4.83054 13.9741 4.84745L22.4093 9.72038Z" fill="#DBA660"/>
<path d="M29.5981 13.9461C29.686 13.8954 29.7576 13.936 29.7579 14.037C29.7582 14.1381 29.6871 14.2611 29.5992 14.3119C29.5112 14.3626 29.4398 14.322 29.4395 14.2209C29.4392 14.1199 29.5102 13.9968 29.5981 13.9461Z" fill="#AA6256"/>
<path d="M25.3217 10.2741L24.7553 9.81277L23.491 9.07858L22.3982 9.71013L22.2207 9.81156L22.0975 10.0543L21.6592 10.9249L21.6604 11.6253L22.9247 12.3595L25.3241 10.9744L25.3217 10.2741ZM24.1226 11.3065C23.939 11.4128 23.7881 11.3282 23.7881 11.1157C23.7869 10.9044 23.9366 10.646 24.1214 10.5397C24.3049 10.4335 24.4559 10.518 24.4559 10.7305C24.4571 10.9418 24.3073 11.2002 24.1226 11.3065Z" fill="#FEBC1F"/>
<path d="M24.7546 9.81241L25.3209 10.2743L25.323 10.9743L22.9239 12.3594L22.9219 11.6595L23.4836 10.5461L24.7546 9.81241ZM24.1224 11.3065C24.3068 11.2 24.4559 10.9421 24.4553 10.7303C24.4547 10.5183 24.3046 10.4334 24.1202 10.5398C23.9359 10.6463 23.7867 10.9039 23.7873 11.1158C23.7879 11.3278 23.938 11.4129 24.1224 11.3065Z" fill="#FEBC1F"/>
<path d="M22.9247 12.3594L21.6611 11.6252L21.6592 10.9252L22.9226 11.6595L22.9247 12.3594Z" fill="#F9A83D"/>
<path d="M24.7555 9.81216L23.6655 10.4415L23.4844 10.5462L22.2207 9.81192L22.398 9.70952L23.4918 9.07822L24.7555 9.81216Z" fill="#FFDE9B"/>
<path d="M23.4844 10.5462L23.3636 10.7857L22.9225 11.6593L21.6592 10.9253L22.0982 10.0545L22.2207 9.81192L23.4844 10.5462Z" fill="#FFD06C"/>
<path d="M30.661 16.3578L30.3203 16.1598C30.3505 16.1773 30.392 16.1749 30.438 16.1483L30.7788 16.3463C30.7328 16.3729 30.6912 16.3753 30.661 16.3578Z" fill="#FFDE9B"/>
<path d="M30.5541 15.7561L30.8949 15.9541C30.9246 15.9714 30.9432 16.0082 30.9432 16.0604C30.9436 16.1654 30.8697 16.2934 30.7783 16.3462L30.4375 16.1482C30.529 16.0954 30.6029 15.9675 30.6026 15.8625C30.6025 15.8102 30.584 15.7733 30.5543 15.7562L30.5541 15.7561Z" fill="#FFD06C"/>
<path d="M30.9832 14.9415L30.6426 14.7434C30.6728 14.7609 30.7144 14.7585 30.7604 14.732L31.1011 14.93C31.0552 14.9566 31.0134 14.959 30.9832 14.9415Z" fill="#FFDE9B"/>
<path d="M30.8771 14.3396L31.2178 14.5377C31.2476 14.5549 31.2661 14.5918 31.2661 14.6439C31.2665 14.749 31.1924 14.8772 31.1011 14.9299L30.7605 14.7318C30.8518 14.6792 30.9258 14.5511 30.9254 14.446C30.9254 14.3937 30.9068 14.3569 30.8771 14.3396ZM29.2128 17.5073L28.8721 17.3092C28.8557 17.2994 28.8422 17.2854 28.833 17.2687L29.1737 17.4667C29.1838 17.4846 29.1971 17.4981 29.2128 17.5073Z" fill="#FFD06C"/>
<path d="M29.2607 17.166L28.9199 16.968C28.9501 16.9856 28.9918 16.9831 29.0378 16.9565L29.3784 17.1546C29.3325 17.1811 29.2908 17.1835 29.2607 17.166Z" fill="#FFDE9B"/>
<path d="M29.1547 16.5644L29.4954 16.7624C29.5252 16.7797 29.5437 16.8164 29.5437 16.8687C29.544 16.9738 29.47 17.1018 29.3787 17.1545L29.0381 16.9565C29.1294 16.9037 29.2034 16.7758 29.203 16.6707C29.203 16.6185 29.1844 16.5817 29.1547 16.5644ZM30.874 13.1118L31.2148 13.3098C31.2445 13.3271 31.263 13.3638 31.2631 13.4161C31.2635 13.5211 31.1895 13.6491 31.0982 13.7019L30.7574 13.5039C30.8487 13.4511 30.9227 13.3232 30.9225 13.218C30.9222 13.1659 30.9036 13.1291 30.874 13.1118Z" fill="#FFD06C"/>
<path d="M30.9803 13.7134L30.6395 13.5153C30.6697 13.533 30.7115 13.5304 30.7575 13.5039L31.0983 13.7019C31.0522 13.7285 31.0104 13.7309 30.9803 13.7134ZM28.9315 16.1264L28.5908 15.9284C28.6209 15.946 28.6625 15.9435 28.7086 15.9169L29.0492 16.115C29.0033 16.1415 28.9615 16.1439 28.9315 16.1264Z" fill="#FFDE9B"/>
<path d="M28.825 15.5246L29.1658 15.7226C29.1955 15.7399 29.214 15.7766 29.2141 15.8289C29.2145 15.9339 29.1405 16.0621 29.0489 16.115L28.7083 15.9169C28.7997 15.8641 28.8737 15.736 28.8735 15.6309C28.8732 15.5787 28.8549 15.5419 28.8252 15.5246H28.825ZM28.9277 14.8985L28.5869 14.7004C28.6171 14.7179 28.6588 14.7154 28.7048 14.6888C28.7963 14.6361 28.8702 14.5081 28.87 14.403C28.8698 14.3507 28.8514 14.314 28.8217 14.2968L29.1622 14.4948C29.192 14.5121 29.2105 14.5488 29.2106 14.6011C29.211 14.7061 29.137 14.8341 29.0455 14.8869C28.9994 14.9134 28.9578 14.9159 28.9277 14.8985Z" fill="#FFD06C"/>
<path d="M29.0455 14.887C28.9993 14.9136 28.9576 14.916 28.9274 14.8984L28.5869 14.7003C28.6171 14.7179 28.6585 14.7155 28.7047 14.6887L29.0455 14.887Z" fill="#FFDE9B"/>
<path d="M31.4517 13.1311C31.4514 13.0656 31.4281 13.0195 31.3907 12.9979L31.3911 12.9981L31.0503 12.8C31.0125 12.7782 30.9603 12.7812 30.9026 12.8145L28.5567 14.1689C28.442 14.2352 28.3492 14.3959 28.3496 14.5275L28.3548 16.3713C28.3548 16.4078 28.362 16.4394 28.3763 16.4638L28.8336 17.2687L29.1742 17.4667C29.2093 17.5284 29.2818 17.5385 29.3613 17.4927L30.7985 16.6628C30.878 16.6169 30.9503 16.5232 30.9847 16.4213L31.436 15.0921C31.4499 15.0514 31.457 15.0115 31.4569 14.975L31.4517 13.1311ZM31.338 12.9853C31.3335 12.9853 31.3292 12.9842 31.3244 12.9846C31.3292 12.9842 31.3335 12.9851 31.338 12.9853ZM29.211 14.6009C29.2113 14.706 29.1373 14.834 29.0459 14.8869C28.9542 14.9398 28.8801 14.8973 28.8797 14.7922C28.8795 14.6872 28.9531 14.5592 29.0448 14.5063C29.1362 14.4534 29.2107 14.4959 29.211 14.6009ZM31.0971 13.3213C31.1886 13.2685 31.2631 13.3109 31.2633 13.4161C31.2637 13.5212 31.1896 13.6492 31.0984 13.7018C31.0068 13.7547 30.9323 13.7124 30.9321 13.6073C30.9317 13.5022 31.0057 13.3741 31.0973 13.3213H31.0971ZM29.0494 16.115C28.9576 16.1679 28.8836 16.1252 28.8832 16.0201C28.883 15.915 28.9566 15.787 29.0483 15.7341C29.1397 15.6813 29.2142 15.7238 29.2145 15.8289C29.2147 15.934 29.1408 16.0621 29.0493 16.115H29.0494ZM29.379 17.1546C29.2875 17.2073 29.2132 17.1649 29.2129 17.0599C29.2126 16.9548 29.2864 16.8268 29.378 16.7739C29.4692 16.7212 29.5436 16.7635 29.544 16.8687C29.5442 16.9738 29.4705 17.1018 29.379 17.1546ZM30.779 16.3462C30.6875 16.3991 30.6132 16.3567 30.6129 16.2515C30.6127 16.1464 30.6865 16.0185 30.7779 15.9656C30.8693 15.9128 30.9437 15.9553 30.9439 16.0604C30.9443 16.1654 30.8704 16.2934 30.779 16.3462ZM31.1017 14.9299C31.0103 14.9828 30.9358 14.9403 30.9356 14.8352C30.9352 14.7302 31.0092 14.6019 31.1008 14.5491C31.1921 14.4964 31.2664 14.5389 31.2668 14.6439C31.267 14.749 31.1931 14.8772 31.1017 14.9299Z" fill="#FEBC1F"/>
<path d="M31.05 12.8L31.3907 12.9981C31.3529 12.9761 31.3007 12.9792 31.2431 13.0125L30.9023 12.8145C30.96 12.7812 31.0122 12.7782 31.05 12.8ZM29.1739 17.4666L28.8333 17.2687L28.376 16.4638L28.7166 16.6619L29.1739 17.4666Z" fill="#FFD06C"/>
<path d="M28.7166 16.6618L28.376 16.4638C28.3619 16.4394 28.3546 16.4078 28.3545 16.3713L28.6951 16.5693C28.6953 16.6057 28.7025 16.6373 28.7166 16.6618Z" fill="#FFD06C"/>
<path d="M28.6955 16.5694L28.3548 16.3713L28.3496 14.5274L28.6903 14.7254L28.6955 16.5694ZM28.6903 14.7254L28.3496 14.5274C28.3492 14.3959 28.4419 14.2352 28.5567 14.1689L28.8974 14.3669C28.7826 14.4331 28.6899 14.5939 28.6903 14.7254Z" fill="#FFD06C"/>
<path d="M10.6934 5.30743L10.691 5.98124C10.691 6.05731 10.6681 6.13339 10.6234 6.20584L10.6125 6.22395C10.6101 6.22758 10.6065 6.2312 10.6041 6.23482C10.6004 6.24086 10.5992 6.24207 10.598 6.24448C10.5956 6.2469 10.5932 6.25052 10.5908 6.25414C10.586 6.26018 10.5823 6.26501 10.5787 6.26863C10.5703 6.27829 10.5666 6.28312 10.563 6.28675C10.5485 6.30365 10.5328 6.31935 10.5159 6.33384C10.5111 6.33867 10.505 6.3435 10.5002 6.34833C10.4954 6.35195 10.4942 6.35437 10.4918 6.35558C10.4894 6.35799 10.4857 6.36041 10.4833 6.36282C10.4773 6.36765 10.4724 6.37128 10.4676 6.3749C10.4652 6.37731 10.4628 6.37852 10.4604 6.38094C10.4543 6.38456 10.4495 6.38939 10.4423 6.39422C10.4362 6.39905 10.429 6.40388 10.4229 6.40871C10.4169 6.41112 10.4121 6.41475 10.4072 6.41837C10.4036 6.42078 10.4012 6.4232 10.3976 6.42441C10.3952 6.42682 10.3927 6.42803 10.3903 6.42924C10.3795 6.43648 10.3686 6.44373 10.3565 6.44977C10.3457 6.4558 10.3348 6.46305 10.3227 6.46909C10.3203 6.47029 10.3167 6.4715 10.3143 6.47392C10.3106 6.47512 10.307 6.47754 10.3034 6.47875C10.2974 6.48237 10.2913 6.48478 10.2853 6.4872C10.2768 6.49203 10.2696 6.49565 10.2611 6.49928C10.2539 6.5029 10.2454 6.50652 10.2382 6.51014C10.2346 6.51135 10.2321 6.51256 10.2285 6.51377C10.2225 6.51739 10.2152 6.5198 10.208 6.52343C10.2044 6.52463 10.1995 6.52584 10.1959 6.52826C10.1923 6.52946 10.1899 6.53067 10.1863 6.53188C10.1754 6.5355 10.1669 6.53912 10.1585 6.54154C10.144 6.54758 10.1295 6.55241 10.115 6.55724C10.1005 6.56207 10.0945 6.56448 10.0884 6.56569C10.0848 6.5669 10.0824 6.56811 10.08 6.56811C10.0715 6.57052 10.0655 6.57294 10.0595 6.57414C10.057 6.57535 10.0534 6.57656 10.0498 6.57777C10.0365 6.58139 10.0305 6.5826 10.0232 6.58501C10.0136 6.58743 10.0087 6.58863 10.0027 6.58984C10.0003 6.59105 9.99667 6.59105 9.99305 6.59226C9.99063 6.59346 9.98701 6.59346 9.98339 6.59467C9.97735 6.59588 9.97252 6.59709 9.96769 6.59829L9.93629 6.60554C9.53056 6.69007 9.0572 6.63814 8.72995 6.44977C8.50294 6.31935 8.38943 6.14667 8.39063 5.9752L8.39184 5.30018C8.39184 5.30139 8.39305 5.30139 8.39305 5.3026C8.39184 5.13233 8.50294 4.96207 8.72633 4.83286C9.17433 4.57203 9.90248 4.57203 10.3541 4.83286C10.5944 4.97173 10.7067 5.15769 10.691 5.34003C10.6922 5.32916 10.6934 5.31829 10.6934 5.30743Z" fill="#9EA9C9"/>
<path d="M10.3148 5.30597L10.3129 5.98062C10.3132 5.86542 10.2372 5.74998 10.0848 5.66207C9.78216 5.48734 9.29298 5.48722 8.99218 5.66207C8.84269 5.7489 8.76794 5.86253 8.76758 5.97628L8.76951 5.3015C8.76987 5.18775 8.84462 5.07412 8.99411 4.9873C9.29479 4.81244 9.78409 4.81256 10.0867 4.9873C10.2391 5.0752 10.3152 5.19065 10.3149 5.30597H10.3148Z" fill="#C9CEE2"/>
<path d="M10.0304 5.30511L10.0284 5.97989C10.0282 6.05174 9.98098 6.12335 9.88655 6.17829C9.69672 6.28854 9.38795 6.28866 9.1968 6.17829C9.10055 6.12275 9.05261 6.04981 9.05273 5.97712L9.05467 5.30234C9.05455 5.37515 9.10249 5.44797 9.19873 5.50352C9.38988 5.61388 9.69865 5.61376 9.88848 5.50352C9.98291 5.44869 10.0301 5.37696 10.0304 5.30511Z" fill="#B0B8CF"/>
<path d="M10.263 5.82471C10.1948 5.85612 10.1241 5.88208 10.0518 5.90236C10.0325 5.90803 10.0127 5.91322 9.99577 5.91721C9.60682 6.01707 9.08769 5.98012 8.73219 5.77484C8.28141 5.51461 8.27912 5.09282 8.72688 4.83247C9.17476 4.57224 9.90303 4.57224 10.3538 4.83247C10.8391 5.11262 10.8006 5.57499 10.263 5.82471ZM8.99846 5.62015C9.30119 5.795 9.79025 5.795 10.091 5.62015C10.3918 5.4453 10.3903 5.16201 10.0875 4.98728C9.78493 4.81254 9.29575 4.81242 8.99495 4.98728C8.69403 5.16201 8.69584 5.44542 8.99846 5.62015Z" fill="#9EA9C9"/>
<path d="M10.03 5.30505C10.0304 5.14899 9.81241 5.02186 9.54305 5.0211C9.27368 5.02033 9.05496 5.14622 9.05451 5.30227C9.05407 5.45833 9.27207 5.58546 9.54144 5.58623C9.8108 5.58699 10.0295 5.4611 10.03 5.30505Z" fill="#9EA9C9"/>
<path d="M8.73212 5.77486C8.50534 5.64396 8.39208 5.47213 8.39256 5.30042L8.39063 5.97519C8.39014 6.14678 8.50341 6.31874 8.73019 6.44976C9.08895 6.65685 9.60928 6.69054 9.99377 6.59201L9.9957 5.91723C9.60675 6.01709 9.08762 5.98014 8.73212 5.77486Z" fill="#C9CEE2"/>
<path d="M10.2623 5.82471C10.2024 5.85321 10.1171 5.88436 10.0511 5.90236C10.0318 5.90803 10.0119 5.91322 9.9951 5.91721L9.99316 6.59199C10.3106 6.51639 10.6899 6.30459 10.6909 5.98169L10.6928 5.30692C10.6921 5.54698 10.4793 5.724 10.2623 5.82471Z" fill="#C9CEE2"/>
<path d="M15.1975 15.2165L14.9607 15.0789L11.8457 16.8773L11.8604 22.0666L12.0972 22.2041L15.2122 20.4057L15.1975 15.2165Z" fill="#B0B8CF"/>
<path d="M12.0825 17.0149L11.8457 16.8773L11.8604 22.0666L12.0972 22.2041L12.0825 17.0149Z" fill="#9EA9C9"/>
<path d="M15.1975 15.2165L14.9607 15.0789L11.8457 16.8773L12.0825 17.0149L15.1975 15.2165Z" fill="#B0B8CF"/>
<path d="M12.083 17.015L12.0977 22.2041L15.2127 20.4057L15.198 15.2166L12.083 17.015Z" fill="white"/>
<path d="M29.7117 13.9351C29.6827 13.9182 29.6425 13.9206 29.5981 13.946C29.5101 13.9969 29.4391 14.1197 29.4395 14.2209C29.4397 14.2709 29.4572 14.3064 29.4858 14.323L24.1871 11.2617L23.7939 11.0344C23.8165 10.8928 23.8951 10.7419 24 10.6353L24.4323 10.8851L29.7117 13.9351Z" fill="#DBA660"/>
<path d="M28.8973 14.3669L28.5566 14.1689L30.9025 12.8145L31.2433 13.0124L28.8973 14.3669Z" fill="#FFD06C"/>
<path d="M31.2435 13.0125C31.3581 12.9462 31.4515 12.9996 31.4518 13.1311L31.457 14.975C31.457 15.0115 31.45 15.0514 31.4362 15.0921L30.9849 16.4213C30.9505 16.5232 30.8781 16.6169 30.7987 16.6628L29.3615 17.4927C29.282 17.5385 29.2094 17.5284 29.1744 17.4666L28.7171 16.6619C28.703 16.6374 28.6957 16.6057 28.6956 16.5694L28.6904 14.7254C28.6901 14.5938 28.7828 14.4332 28.8975 14.3668L31.2435 13.0125ZM29.0494 16.115C29.141 16.0621 29.2149 15.934 29.2146 15.8288C29.2144 15.7237 29.1399 15.6815 29.0485 15.7341C28.9567 15.787 28.883 15.915 28.8834 16.0202C28.8838 16.1252 28.9579 16.1679 29.0494 16.115ZM31.1019 14.9299C31.1933 14.8772 31.2673 14.7491 31.267 14.6439C31.2666 14.5388 31.1921 14.4965 31.1009 14.5491C31.0094 14.602 30.9355 14.7302 30.9357 14.8352C30.936 14.9403 31.0105 14.9828 31.1019 14.9299ZM31.0985 13.7018C31.1898 13.6492 31.2638 13.5212 31.2635 13.4161C31.2631 13.311 31.1887 13.2685 31.0974 13.3213C31.0059 13.3741 30.932 13.5022 30.9322 13.6073C30.9325 13.7123 31.0071 13.7545 31.0985 13.7018ZM29.045 14.5062C28.9533 14.5592 28.8795 14.6872 28.8799 14.7922C28.8803 14.8973 28.9544 14.9398 29.0461 14.8869C29.1375 14.834 29.2115 14.7061 29.2111 14.6009C29.2108 14.4958 29.1364 14.4533 29.045 14.5062ZM30.779 16.3462C30.8705 16.2934 30.9444 16.1656 30.9441 16.0604C30.9438 15.9553 30.8694 15.9128 30.778 15.9656C30.6866 16.0185 30.6127 16.1465 30.6131 16.2515C30.6133 16.3566 30.6876 16.3991 30.7791 16.3462M29.3791 17.1545C29.4705 17.1018 29.5445 16.9738 29.5442 16.8687C29.5438 16.7637 29.4693 16.7212 29.3781 16.7739C29.2866 16.8267 29.2127 16.9547 29.2131 17.0599C29.2134 17.1649 29.2877 17.2073 29.3791 17.1545Z" fill="#FEBC1F"/>
</svg>
