<svg width="32" height="32" viewBox="0 0 32 32" fill="none" xmlns="http://www.w3.org/2000/svg">
<path d="M7.40641 26.5265L7.4052 26.8296C7.4052 26.9287 7.34 27.0289 7.20837 27.105C6.94634 27.2583 6.51766 27.2583 6.252 27.105C6.11917 27.0277 6.05154 26.9262 6.05275 26.826V26.5229C6.05275 26.4227 6.11796 26.3237 6.24958 26.2476C6.51283 26.0942 6.94151 26.0942 7.20717 26.2476C7.34 26.3237 7.40641 26.4251 7.40641 26.5265Z" fill="#1D2943"/>
<path d="M7.40676 26.5262L7.40579 26.8295C7.40555 26.9293 7.33998 27.0288 7.20896 27.1048C6.94596 27.2578 6.5174 27.2578 6.2521 27.1046C6.11879 27.0277 6.05225 26.9266 6.05249 26.8257L6.05346 26.5224C6.05309 26.6234 6.11963 26.7245 6.25294 26.8014C6.51824 26.9546 6.9468 26.9546 7.20992 26.8016C7.34082 26.7256 7.40639 26.6261 7.40676 26.5263V26.5262Z" fill="#1D2943"/>
<path d="M7.20686 26.2471C7.47216 26.4002 7.47361 26.6485 7.21 26.8016C6.94687 26.9546 6.51832 26.9546 6.25302 26.8014C5.9882 26.6485 5.98675 26.4002 6.24988 26.2474C6.51349 26.0941 6.94204 26.0941 7.20686 26.2471Z" fill="#4C5C75"/>
<path d="M7.12505 25.3195L7.12167 26.5017C7.12167 26.5596 7.08351 26.6176 7.00731 26.6618C6.85396 26.7509 6.6046 26.7509 6.45027 26.6618C6.37251 26.617 6.33374 26.5581 6.33399 26.4994L6.33725 25.317C6.33713 25.3758 6.37589 25.4347 6.45353 25.4795C6.60798 25.5686 6.85734 25.5686 7.01069 25.4795C7.08677 25.4353 7.12493 25.3773 7.12505 25.3195Z" fill="#C9CEE2"/>
<path d="M7.00876 25.1568C7.16308 25.246 7.16417 25.3904 7.01081 25.4795C6.85745 25.5686 6.60809 25.5686 6.45365 25.4795C6.29932 25.3904 6.2986 25.2458 6.45183 25.1567C6.60519 25.0676 6.85443 25.0677 7.00876 25.1568Z" fill="#9EA9C9"/>
<path d="M14.746 30.7638L14.7448 31.0669C14.7448 31.1659 14.6784 31.2662 14.5479 31.3423C14.2847 31.4944 13.856 31.4944 13.5904 31.341C13.4575 31.265 13.3911 31.1635 13.3911 31.0621L13.3923 30.7602C13.3923 30.66 13.4575 30.561 13.5892 30.4849C13.8524 30.3315 14.2811 30.3315 14.5455 30.4837C14.6796 30.561 14.746 30.6624 14.746 30.7638Z" fill="#1D2943"/>
<path d="M14.7455 30.7635L14.7447 31.0666C14.7443 31.1663 14.6788 31.2658 14.5478 31.3419C14.2847 31.4949 13.8561 31.4949 13.5908 31.3417C13.4577 31.2647 13.391 31.1637 13.3914 31.0627L13.3922 30.7596C13.392 30.8604 13.4585 30.9615 13.5918 31.0386C13.8571 31.1917 14.2857 31.1917 14.5487 31.0387C14.6797 30.9626 14.7453 30.8632 14.7455 30.7635Z" fill="#1D2943"/>
<path d="M14.5455 30.4842C14.8108 30.6373 14.8122 30.8856 14.5485 31.0387C14.2855 31.1917 13.857 31.1917 13.5917 31.0384C13.3268 30.8856 13.3254 30.6373 13.5885 30.4844C13.8522 30.3313 14.2806 30.3313 14.5455 30.4842Z" fill="#4C5C75"/>
<path d="M14.464 29.5565L14.4607 30.7388C14.4605 30.7968 14.4224 30.8546 14.3463 30.8988C14.1929 30.9879 13.9435 30.9879 13.7891 30.8988C13.7115 30.854 13.6727 30.7952 13.6729 30.7364L13.6762 29.554C13.676 29.6128 13.7149 29.6717 13.7925 29.7165C13.9468 29.8056 14.1963 29.8056 14.3497 29.7165C14.4258 29.6723 14.4638 29.6145 14.464 29.5565Z" fill="#C9CEE2"/>
<path d="M14.3477 29.394C14.502 29.4831 14.5031 29.6274 14.3497 29.7165C14.1964 29.8056 13.9469 29.8056 13.7926 29.7165C13.6382 29.6274 13.6374 29.483 13.7907 29.3939C13.9441 29.3047 14.1933 29.3049 14.3477 29.3939V29.394Z" fill="#9EA9C9"/>
<path d="M19.309 19.6115L19.3081 19.9149C19.3078 20.0145 19.2422 20.1141 19.1113 20.1902C18.8482 20.3431 18.4196 20.3431 18.1543 20.1899C18.021 20.1129 17.9545 20.0118 17.9548 19.911L17.9557 19.6077C17.9553 19.7086 18.022 19.8097 18.1552 19.8866C18.4205 20.04 18.849 20.0398 19.1121 19.887C19.2432 19.8109 19.3086 19.7112 19.309 19.6115Z" fill="#1D2943"/>
<path d="M19.1089 19.3323C19.3743 19.4856 19.3758 19.7337 19.1121 19.887C18.8489 20.0398 18.4204 20.0398 18.1551 19.8867C17.8903 19.7337 17.8889 19.4856 18.1519 19.3326C18.4155 19.1795 18.8441 19.1795 19.1089 19.3323Z" fill="#4C5C75"/>
<path d="M19.0274 18.4047L19.0241 19.587C19.0239 19.645 18.9859 19.7029 18.9098 19.7471C18.7564 19.8363 18.5069 19.8363 18.3526 19.7471C18.275 19.7022 18.2361 19.6433 18.2363 19.5846L18.2397 18.4023C18.2395 18.4611 18.2784 18.5199 18.356 18.5647C18.5103 18.6538 18.7598 18.6538 18.913 18.5647C18.9891 18.5205 19.0273 18.4627 19.0274 18.4047Z" fill="#C9CEE2"/>
<path d="M18.911 18.2422C19.0655 18.3313 19.0664 18.4756 18.9131 18.5647C18.7597 18.6538 18.5104 18.6538 18.356 18.5647C18.2017 18.4756 18.2009 18.3312 18.3542 18.2421C18.5076 18.1529 18.7567 18.1531 18.911 18.2422Z" fill="#9EA9C9"/>
<path d="M26.6476 23.8482L26.6464 24.1513C26.6464 24.2515 26.5812 24.3506 26.4496 24.4266C26.1875 24.58 25.7589 24.58 25.4932 24.4266C25.3604 24.3506 25.2928 24.2491 25.294 24.1477V23.8446C25.294 23.7456 25.3592 23.6453 25.4908 23.5693C25.754 23.4159 26.1827 23.4159 26.4484 23.5693C26.5812 23.6466 26.6476 23.748 26.6476 23.8482Z" fill="#1D2943"/>
<path d="M26.6476 23.8487L26.6468 24.1518C26.6465 24.2515 26.5809 24.351 26.4499 24.4272C26.1869 24.5801 25.7584 24.5801 25.4931 24.427C25.3598 24.3501 25.2932 24.249 25.2935 24.148L25.2943 23.8448C25.2941 23.9457 25.3607 24.0469 25.4939 24.1238C25.7592 24.2769 26.1878 24.2769 26.4509 24.124C26.5818 24.0479 26.6474 23.9483 26.6477 23.8487H26.6476Z" fill="#1D2943"/>
<path d="M26.4477 23.5694C26.7131 23.7226 26.7146 23.9708 26.451 24.124C26.1877 24.2769 25.7593 24.2769 25.494 24.1238C25.2292 23.9708 25.2277 23.7226 25.4908 23.5697C25.7545 23.4165 26.1829 23.4165 26.4477 23.5694Z" fill="#4C5C75"/>
<path d="M26.3661 22.6418L26.3628 23.8242C26.3626 23.8822 26.3246 23.94 26.2484 23.9842C26.095 24.0733 25.8457 24.0733 25.6912 23.9842C25.6136 23.9394 25.5748 23.8805 25.575 23.8217L25.5783 22.6393C25.5782 22.6982 25.617 22.757 25.6946 22.8019C25.8489 22.891 26.0984 22.891 26.2518 22.8019C26.3279 22.7576 26.366 22.6997 26.3661 22.6418Z" fill="#C9CEE2"/>
<path d="M26.2498 22.4792C26.4041 22.5683 26.4052 22.7128 26.2518 22.8019C26.0985 22.891 25.849 22.891 25.6947 22.8019C25.5403 22.7128 25.5395 22.5682 25.6928 22.4791C25.8462 22.39 26.0954 22.3901 26.2498 22.4792Z" fill="#9EA9C9"/>
<path d="M8.73691 26.9007L9.72263 26.3278L9.7201 27.1358L8.73438 27.7086L8.73691 26.9007Z" fill="#7C7F81"/>
<path d="M9.72248 26.3273L8.73713 26.9009L8.73471 27.7087L6.00928 26.1354L6.01169 25.3275L6.99826 24.7551L9.72248 26.3273Z" fill="#9EA9C9"/>
<path d="M6.01221 25.3275L6.99793 24.7546L9.72264 26.3278L8.73692 26.9006L6.01221 25.3275Z" fill="#E3E7F0"/>
<path d="M8.73701 26.9006L8.73447 27.7086L6.00977 26.1354L6.0123 25.3275L8.73701 26.9006Z" fill="#9EA9C9"/>
<path d="M26.5001 11.14L26.4724 23.5042L13.9984 30.753L8.3833 27.5108L8.41107 15.1478L14.0262 18.3902L26.5001 11.14Z" fill="#9EA9C9"/>
<path d="M13.9988 30.753L14.0264 18.3896L26.5004 11.1406L26.4726 23.5039L13.9988 30.753Z" fill="#B0B8CF"/>
<path d="M14.0264 18.3896L13.9988 30.753L8.38306 27.5108L8.41083 15.1474L14.0264 18.3896Z" fill="#9EA9C9"/>
<path d="M24.3252 16.0425L16.2039 20.762V28.4106L24.3252 23.6911V16.0425Z" fill="#4C5C75"/>
<path d="M17.9362 23.936V27.3892L17.1536 27.8442V24.3898L17.9362 23.936Z" fill="#1D2943"/>
<path d="M17.6148 24.1222L17.1536 24.3898V27.8442L17.6148 27.576V24.1222Z" fill="#111D33"/>
<path d="M23.622 20.641V24.0954L22.8394 24.5493V21.0949L23.622 20.641Z" fill="#1D2943"/>
<path d="M23.209 20.8805V24.335L23.6221 24.0954V20.641L23.209 20.8805Z" fill="#111D33"/>
<path d="M8.41089 15.1474L20.8847 7.89833L26.5004 11.1406L14.0265 18.3896L8.41089 15.1474Z" fill="#8B8E90"/>
<path d="M8.98755 27.1627L9.01218 16.1918L13.4219 18.7376L13.3973 29.7087L8.98755 27.1627Z" fill="#808EB2"/>
<path d="M27.8478 11.9189L27.8454 13.5286L15.3714 20.7775L8.40869 16.7575L8.41111 15.1478L15.3738 19.1678L27.8478 11.9189Z" fill="#9EA9C9"/>
<path d="M15.3739 19.1675L27.8477 11.9185L27.8452 13.5283L15.3713 20.7773L15.3739 19.1675Z" fill="#C9CEE2"/>
<path d="M15.3738 19.1675L15.3713 20.7773L8.4082 16.7571L8.41086 15.1474L15.3738 19.1675Z" fill="#9EA9C9"/>
<path d="M27.8477 11.9181L15.3732 19.1673L8.41089 15.1469L20.8841 7.89893L27.8477 11.9181Z" fill="#E3E7F0"/>
<path d="M9.60251 13.6833L22.0764 6.4343L22.0738 8.5789L9.59985 15.8279L9.60251 13.6833Z" fill="#C9CEE2"/>
<path d="M22.0757 6.43429L9.60297 13.6832L9.59935 15.8278L4.1521 12.682L4.15451 10.5374L16.6285 3.28851L22.0757 6.43429Z" fill="#9EA9C9"/>
<path d="M4.15479 10.538L16.6286 3.289L22.0765 6.4343L9.60263 13.6833L4.15479 10.538Z" fill="#E3E7F0"/>
<path d="M9.60249 13.6833L9.59983 15.8279L4.1521 12.6826L4.15464 10.538L9.60249 13.6833Z" fill="#9EA9C9"/>
<path d="M18.5769 7.71261L17.4238 8.38268L13.5511 6.14666L14.7042 5.47672L18.5769 7.71261ZM16.0777 9.16505L14.9246 9.83499L11.0519 7.5991L12.2049 6.92903L16.0777 9.16505ZM13.5777 10.6178L12.4247 11.2878L8.55199 9.0519L9.70495 8.38183L13.5777 10.6178ZM11.0777 12.0706L9.92473 12.7406L6.052 10.5047L7.20497 9.83463L11.0777 12.0706Z" fill="#B0B8CF"/>
<path d="M22.0577 1.34328L22.0541 7.15629L9.58014 14.4053V13.671L8.19629 12.8717L8.1987 7.79279L20.6727 0.543762L22.0577 1.34328Z" fill="#9EA9C9"/>
<path d="M9.5831 8.59182L22.0569 1.34279L22.0544 7.15592L9.58057 14.4049L9.5831 8.59182Z" fill="#C9CEE2"/>
<path d="M8.19873 7.79242L20.6727 0.543396L22.0571 1.34279L9.5833 8.59182L8.19873 7.79242Z" fill="#E3E7F0"/>
<path d="M9.58315 8.59182L9.58062 13.6712L8.19604 12.8718L8.19858 7.79242L9.58315 8.59182Z" fill="#9EA9C9"/>
<path d="M17.8892 7.26617L14.5262 9.22131L13.7473 8.9484L13.7582 5.23882L17.1212 3.28368L17.51 3.5084L17.8892 7.26617Z" fill="#111D33"/>
<path d="M14.1472 5.46282L17.5105 3.50829L17.8898 7.26629L14.5265 9.22071L14.1472 5.46282Z" fill="#1D2943"/>
<path d="M14.3975 5.59046L17.3126 3.89639L17.6398 7.13866L14.7247 8.83273L14.3975 5.59046Z" fill="#57B3FE"/>
<path d="M13.7585 5.23834L17.1218 3.28392L17.5106 3.50828L14.1474 5.46282L13.7585 5.23834Z" fill="#4C5C75"/>
<path d="M14.1474 5.46282L14.5267 9.22071L13.748 8.94793L13.7586 5.23834L14.1474 5.46282Z" fill="#111D33"/>
<path d="M27.1241 10.9658L27.8473 10.5456L27.8434 11.9222L27.1201 12.3426L27.1241 10.9658Z" fill="#1D2943"/>
<path d="M21.3418 3.488L22.065 3.06766L22.9141 3.55792L22.1908 3.97827L21.3418 3.488Z" fill="#1D2943"/>
<path d="M27.1243 10.9665L27.1196 12.3425L21.3267 8.99695L21.342 3.48848L22.1905 3.97814L27.1243 10.9665Z" fill="#111D33"/>
<path d="M26.7702 11.078L26.7679 11.7306L21.6807 8.79335L21.6949 4.10022L21.9462 4.24537L26.7702 11.078Z" fill="#9EA9C9"/>
<path d="M27.8476 10.5452L27.1242 10.9665L22.1904 3.97815L22.9138 3.55804L27.8476 10.5452ZM20.2823 9.61993V7.49646L18.449 8.56188L20.2822 9.62005L20.2823 9.61993Z" fill="#4C5C75"/>
<path d="M18.449 8.56187L10.7781 13.0203V15.1434L20.2822 9.62005L18.449 8.56187Z" fill="#1D2943"/>
<path d="M12.3957 13.9786L12.1553 13.8388L12.1462 10.6648L12.3867 10.8045L12.3957 13.9786Z" fill="#DEDFFB"/>
<path d="M12.3867 10.8045L12.1462 10.6648L12.4346 10.4983L12.675 10.638L12.3867 10.8045Z" fill="#ADB1C2"/>
<path d="M12.6751 10.638L12.6841 13.812L12.3958 13.9786L12.3867 10.8045L12.6751 10.638Z" fill="white"/>
<path d="M13.2274 10.3191L12.9868 10.1794L13.2753 10.0129L13.5157 10.1526L13.2274 10.3191ZM14.0681 9.83366L13.8276 9.69395L14.116 9.52755L14.3564 9.66726L14.0681 9.83366ZM14.9087 9.34835L14.6683 9.20863L14.9567 9.04211L15.1971 9.18183L14.9087 9.34835ZM15.7496 8.86291L15.5091 8.7232L15.7975 8.55668L16.0379 8.69639L15.7496 8.86291ZM16.5903 8.37748L16.3498 8.23777L16.6382 8.07124L16.8786 8.21096L16.5903 8.37748ZM17.4314 7.8918L17.191 7.75209L17.4794 7.58569L17.7198 7.7254L17.4314 7.8918ZM18.2721 7.40649L18.0317 7.26678L18.3201 7.10026L18.5605 7.23997L18.2721 7.40649ZM19.1129 6.92106L18.8725 6.78134L19.1609 6.61482L19.4013 6.75454L19.1129 6.92106Z" fill="#ADB1C2"/>
<path d="M13.2274 10.3191L12.9868 10.1794L12.9959 13.3534L13.2363 13.4931L13.5247 13.3266L13.5157 10.1526L13.2274 10.3191ZM14.0681 9.83366L13.8276 9.69394L13.8366 12.868L14.077 13.0077L14.3655 12.8412L14.3564 9.66726L14.0681 9.83366ZM14.9087 9.34834L14.6683 9.20863L14.6774 12.3827L14.9178 12.5224L15.2062 12.3559L15.1971 9.18182L14.9087 9.34834ZM15.7496 8.86291L15.5091 8.7232L15.5181 11.8972L15.7585 12.0369L16.0469 11.8704L16.0379 8.69639L15.7496 8.86291ZM16.5903 8.37748L16.3498 8.23776L16.3588 11.4118L16.5993 11.5515L16.8877 11.385L16.8786 8.21108L16.5903 8.37748ZM17.4314 7.89192L17.191 7.75209L17.1999 10.9261L17.4405 11.0658L17.7289 10.8994L17.7198 7.7254L17.4314 7.89192ZM18.2721 7.40649L18.0317 7.26677L18.0408 10.4407L18.2812 10.5805L18.5695 10.414L18.5605 7.23997L18.2721 7.40649ZM19.4013 6.75453L19.1129 6.92105L18.8725 6.78134L18.8815 9.95538L19.1219 10.0951L19.4102 9.92857L19.4013 6.75453Z" fill="#DEDFFB"/>
<path d="M13.2363 13.4931L12.9959 13.3534L12.9868 10.1794L13.2274 10.3191L13.2363 13.4931Z" fill="#DEDFFB"/>
<path d="M13.5159 10.1526L13.5248 13.3266L13.2365 13.4931L13.2275 10.3191L13.5159 10.1526Z" fill="white"/>
<path d="M14.077 13.0077L13.8366 12.868L13.8276 9.69394L14.0681 9.83365L14.077 13.0077Z" fill="#DEDFFB"/>
<path d="M14.3565 9.66727L14.3655 12.8413L14.0771 13.0077L14.0681 9.83367L14.3565 9.66727Z" fill="white"/>
<path d="M14.9179 12.5224L14.6775 12.3826L14.6685 9.20863L14.9089 9.34835L14.9179 12.5224Z" fill="#DEDFFB"/>
<path d="M15.1973 9.18182L15.2064 12.3559L14.918 12.5224L14.9089 9.34834L15.1973 9.18182Z" fill="white"/>
<path d="M15.7586 12.037L15.5182 11.8972L15.5093 8.72321L15.7497 8.86292L15.7586 12.037Z" fill="#DEDFFB"/>
<path d="M16.0381 8.6964L16.0471 11.8704L15.7587 12.037L15.7498 8.86292L16.0381 8.6964Z" fill="white"/>
<path d="M16.5993 11.5515L16.3588 11.4118L16.3499 8.23776L16.5903 8.37748L16.5993 11.5515Z" fill="#DEDFFB"/>
<path d="M16.8787 8.21095L16.8878 11.385L16.5994 11.5515L16.5903 8.37747L16.8787 8.21095Z" fill="white"/>
<path d="M17.4406 11.0658L17.2001 10.9261L17.1912 7.75209L17.4316 7.8918L17.4406 11.0658Z" fill="#DEDFFB"/>
<path d="M17.72 7.7254L17.7291 10.8994L17.4407 11.0658L17.4316 7.8918L17.72 7.7254Z" fill="white"/>
<path d="M18.2812 10.5805L18.0408 10.4408L18.0317 7.26678L18.2722 7.4065L18.2812 10.5805Z" fill="#DEDFFB"/>
<path d="M18.5606 7.23997L18.5696 10.414L18.2813 10.5805L18.2722 7.4065L18.5606 7.23997Z" fill="white"/>
<path d="M19.1219 10.0951L18.8815 9.95538L18.8726 6.78134L19.113 6.92105L19.1219 10.0951Z" fill="#DEDFFB"/>
<path d="M19.4014 6.75453L19.4103 9.92857L19.122 10.0951L19.113 6.92105L19.4014 6.75453Z" fill="white"/>
<path d="M11.826 10.7681L20.5232 5.71387L20.5224 7.36386L11.8254 12.418L11.826 10.7681Z" fill="#C9CEE2"/>
<path d="M26.0559 15.9629C26.0474 15.9581 26.039 15.9545 26.0305 15.9509C26.0329 15.9521 26.0366 15.9533 26.0402 15.9545C26.045 15.9581 26.0498 15.9605 26.0559 15.9629Z" fill="#FEBC1F"/>
<path d="M26.2189 16.3156C26.2201 16.6622 25.9773 17.0836 25.6755 17.2575C25.5209 17.3457 25.382 17.3529 25.2818 17.2913L25.0632 17.1646C24.9654 17.1078 24.905 16.987 24.905 16.8144C24.9026 16.469 25.1478 16.0476 25.4484 15.8737C25.6006 15.7855 25.737 15.7783 25.8361 15.8363L26.0401 15.9546C26.0365 15.9534 26.0329 15.9522 26.0305 15.951C26.0389 15.9546 26.0474 15.9582 26.0558 15.963C26.1561 16.0186 26.2189 16.1406 26.2189 16.3156Z" fill="#FEBC1F"/>
<path d="M26.0559 15.9629C26.0474 15.9581 26.039 15.9545 26.0305 15.9509C26.0329 15.9521 26.0366 15.9533 26.0402 15.9545C26.045 15.9581 26.0498 15.9605 26.0559 15.9629Z" fill="#FEBC1F"/>
<path d="M24.9045 16.8142C24.9045 16.9872 24.9653 17.1073 25.063 17.1641L25.2873 17.2947C25.1896 17.238 25.129 17.1166 25.129 16.9449C25.1277 16.5991 25.3719 16.178 25.6728 16.0037C25.8234 15.9167 25.9607 15.9087 26.0609 15.9655L25.8365 15.8361C25.7375 15.778 25.6002 15.7859 25.4484 15.8731C25.1475 16.0473 24.9032 16.4684 24.9045 16.8142Z" fill="#FFD06C"/>
<path d="M26.0591 16.854C26.2724 16.487 26.273 16.0893 26.0604 15.9658C25.8478 15.8423 25.5025 16.0396 25.2893 16.4066C25.076 16.7737 25.0754 17.1713 25.288 17.2949C25.5006 17.4184 25.8459 17.2211 26.0591 16.854Z" fill="#FEBC1F"/>
<path d="M25.7963 17.1935L25.6671 17.2683L25.5874 17.2225L25.5837 16.0547L25.7129 15.9799L25.7926 16.0257L25.7963 17.1935Z" fill="#CC104A"/>
<path d="M25.6668 17.2682L25.5871 17.2219L25.5842 16.0546L25.6639 16.101L25.6668 17.2682Z" fill="#CC104A"/>
<path d="M25.6639 16.1009L25.5842 16.0546L25.7136 15.9799L25.7933 16.0263L25.6639 16.1009Z" fill="#F45170"/>
<path d="M25.7931 16.0263L25.796 17.1935L25.6667 17.2682L25.6638 16.1009L25.7931 16.0263Z" fill="#E93565"/>
<path d="M21.1448 6.47535C21.1448 6.67097 21.0083 6.90886 20.838 7.00667C20.7451 7.0598 20.6629 7.06101 20.6062 7.01875C20.6098 7.02237 20.6146 7.02599 20.6195 7.02841L20.4697 6.94146C20.4142 6.90886 20.3804 6.84124 20.3804 6.74343C20.3792 6.54901 20.5156 6.31113 20.6859 6.21211C20.7716 6.1626 20.8489 6.15897 20.9045 6.19158L21.0397 6.27007C21.0445 6.27248 21.0494 6.2749 21.0542 6.27852C21.1097 6.30992 21.1448 6.37875 21.1448 6.47535Z" fill="#50B069"/>
<path d="M20.9052 6.1911C20.8494 6.1585 20.772 6.16309 20.6866 6.21235C20.5161 6.31077 20.3795 6.5489 20.3801 6.74368C20.3804 6.84088 20.4145 6.90911 20.4697 6.94123L20.6195 7.02829C20.5643 6.99617 20.5301 6.92795 20.5299 6.83074C20.5294 6.63596 20.666 6.39783 20.8363 6.29942C20.9218 6.25003 20.9991 6.24556 21.0549 6.27805L20.9052 6.1911Z" fill="#50B069"/>
<path d="M20.8363 6.29941C21.0063 6.20124 21.1442 6.28082 21.1448 6.47571C21.1454 6.67109 21.0083 6.90838 20.8383 7.00655C20.6678 7.10497 20.5304 7.02611 20.5298 6.83073C20.5293 6.63596 20.6659 6.39783 20.8363 6.29941Z" fill="#78E75A"/>
<path d="M21.1411 5.37636C21.1423 5.57198 21.0046 5.80987 20.8356 5.90768C20.7402 5.96202 20.6557 5.96202 20.5989 5.91734C20.6037 5.92217 20.6098 5.9258 20.6158 5.92942L20.4661 5.84247C20.4117 5.80987 20.3767 5.74225 20.3767 5.64444C20.3767 5.44881 20.5132 5.21214 20.6834 5.11432C20.7692 5.06481 20.8464 5.05998 20.902 5.09259L21.0409 5.17349C21.0433 5.1747 21.0445 5.17591 21.0469 5.17712C21.1049 5.2073 21.1411 5.27613 21.1411 5.37636Z" fill="#DF3260"/>
<path d="M20.9024 5.09223C20.8464 5.05986 20.769 5.06445 20.6834 5.11396C20.513 5.21226 20.3765 5.44942 20.377 5.6448C20.3773 5.74189 20.4114 5.81023 20.4666 5.84223L20.6163 5.9293C20.5611 5.89718 20.5269 5.82883 20.5267 5.73174C20.5262 5.53636 20.6628 5.29932 20.8333 5.20091C20.9188 5.1514 20.9963 5.14681 21.0521 5.17929L20.9024 5.09235V5.09223Z" fill="#DF3260"/>
<path d="M21.0513 5.68038C21.1716 5.47337 21.172 5.24909 21.0521 5.17942C20.9322 5.10976 20.7375 5.2211 20.6172 5.4281C20.4969 5.63511 20.4966 5.85939 20.6165 5.92906C20.7364 5.99872 20.9311 5.88738 21.0513 5.68038Z" fill="#F45170"/>
<path d="M19.9506 17.4778C19.9961 17.5043 20.0417 17.5308 20.0873 17.5573L20.1169 17.5745C20.0523 17.6118 19.9937 17.6152 19.9514 17.5906L19.7852 17.494C19.8274 17.5185 19.886 17.5151 19.9506 17.4778Z" fill="#4C5C75"/>
<path d="M20.1825 17.075C20.1823 17.0019 20.1562 16.9503 20.1144 16.9259L20.2807 17.0227C20.3226 17.0469 20.3486 17.0985 20.3488 17.1717C20.3492 17.3197 20.2448 17.5005 20.1167 17.5745L19.9504 17.4778C20.0784 17.4039 20.1829 17.223 20.1825 17.075Z" fill="#4C5C75"/>
<path d="M20.1145 16.9259L20.2808 17.0225C20.2384 16.998 20.1799 17.0013 20.1154 17.0386L19.949 16.9419C20.0135 16.9047 20.0723 16.9013 20.1145 16.9259Z" fill="#F45170"/>
<path d="M19.9515 17.5906L19.7851 17.494C19.7432 17.4696 19.7172 17.4175 19.717 17.3439C19.7166 17.1966 19.8202 17.0163 19.949 16.9419L20.1154 17.0385C19.9866 17.113 19.883 17.2933 19.8833 17.4405C19.8836 17.5142 19.9095 17.5662 19.9515 17.5906Z" fill="#F45170"/>
<path d="M20.4638 17.1053C20.465 17.3262 20.3092 17.5955 20.1172 17.7054C20.0159 17.7641 19.9257 17.7664 19.8617 17.7239C19.8646 17.7259 19.8667 17.729 19.8696 17.7309L19.703 17.6331C19.6402 17.5969 19.6016 17.5196 19.6016 17.4109C19.6016 17.1899 19.7561 16.9218 19.9481 16.8107C20.0459 16.754 20.1329 16.7492 20.1969 16.7854L20.3502 16.8759C20.3502 16.8759 20.3514 16.8759 20.3527 16.8772C20.4203 16.911 20.4638 16.9895 20.4638 17.1054V17.1053Z" fill="#1D2943"/>
<path d="M20.1154 17.0385C20.2434 16.9646 20.3484 17.0245 20.3489 17.1717C20.3494 17.3197 20.245 17.5005 20.1168 17.5745C19.988 17.6488 19.8838 17.5885 19.8833 17.4405C19.8829 17.2933 19.9865 17.1129 20.1154 17.0385Z" fill="#F45170"/>
<path d="M20.1965 16.7859C20.1331 16.749 20.0453 16.7545 19.9485 16.8103C19.7565 16.9212 19.601 17.1897 19.6016 17.4104C19.6019 17.5201 19.6407 17.5972 19.7031 17.6336L19.8695 17.7302C19.807 17.694 19.7682 17.6167 19.7678 17.507C19.7672 17.2863 19.9228 17.018 20.1149 16.9069C20.2117 16.8511 20.2995 16.8458 20.3628 16.8826L20.1965 16.786V16.7859Z" fill="#4C5C75"/>
<path d="M20.1149 16.9069C20.3069 16.796 20.4634 16.8844 20.4641 17.1051C20.4647 17.3259 20.3092 17.5952 20.117 17.706C19.925 17.817 19.7685 17.7278 19.7678 17.507C19.7672 17.2863 19.9228 17.018 20.1149 16.9069ZM20.1167 17.5745C20.2448 17.5005 20.3493 17.3197 20.3488 17.1717C20.3484 17.0245 20.2432 16.9646 20.1152 17.0386C19.9864 17.113 19.8828 17.2934 19.8831 17.4405C19.8836 17.5885 19.9878 17.6489 20.1167 17.5745Z" fill="#1D2943"/>
<path d="M23.1035 15.6573L23.2699 15.754C23.2053 15.7913 23.1468 15.7947 23.1045 15.7702L22.9382 15.6736C22.9805 15.6981 23.0388 15.6947 23.1035 15.6573Z" fill="#4C5C75"/>
<path d="M23.3356 15.2546C23.3354 15.1813 23.3095 15.1296 23.2676 15.1053L23.434 15.2019C23.4758 15.2263 23.5016 15.278 23.502 15.3512L23.4619 15.328L23.3356 15.2546L23.502 15.3512C23.5024 15.4992 23.3988 15.6796 23.2699 15.754L23.1035 15.6574C23.2324 15.5829 23.3361 15.4026 23.3356 15.2546Z" fill="#4C5C75"/>
<path d="M23.2676 15.1052L23.434 15.2019C23.3917 15.1774 23.3332 15.1807 23.2683 15.2181L23.1021 15.1215C23.1668 15.0841 23.2252 15.0807 23.2676 15.1053V15.1052Z" fill="#78E75A"/>
<path d="M23.1044 15.7702L22.9381 15.6736C22.8961 15.6491 22.8701 15.5972 22.8699 15.5234C22.8695 15.3762 22.9731 15.1958 23.102 15.1214L23.2682 15.2181C23.1394 15.2925 23.0358 15.4729 23.0363 15.62C23.0364 15.6938 23.0625 15.7458 23.1044 15.7702Z" fill="#78E75A"/>
<path d="M23.6166 15.2844C23.6178 15.5054 23.462 15.7747 23.27 15.8858C23.1625 15.9473 23.0671 15.9473 23.0031 15.8966C23.0092 15.9015 23.0164 15.9063 23.0225 15.9099L22.8558 15.8133C22.7942 15.7771 22.7544 15.6998 22.7544 15.5899C22.7544 15.3689 22.909 15.1009 23.1022 14.9898C23.1988 14.9342 23.2857 14.9282 23.3497 14.9656L23.5164 15.0622C23.513 15.0601 23.5093 15.0585 23.5055 15.0574C23.5731 15.09 23.6166 15.1697 23.6166 15.2844Z" fill="#4C5C75"/>
<path d="M23.2681 15.2181C23.3969 15.1437 23.5013 15.2041 23.5018 15.3512C23.5021 15.4992 23.3985 15.6796 23.2697 15.754C23.1408 15.8284 23.0366 15.7682 23.0361 15.62C23.0357 15.4729 23.1393 15.2925 23.2681 15.2181Z" fill="#78E75A"/>
<path d="M23.3498 14.9655C23.2864 14.9287 23.1987 14.934 23.1018 14.9899C22.9097 15.1007 22.7542 15.3692 22.7549 15.5899C22.7551 15.6996 22.7939 15.7768 22.8563 15.8131L23.0227 15.9098C22.9603 15.8736 22.9215 15.7963 22.9213 15.6866C22.9206 15.4658 23.076 15.1975 23.2681 15.0865C23.3649 15.0306 23.4528 15.0254 23.5161 15.0621L23.3498 14.9655Z" fill="#4C5C75"/>
<path d="M23.2681 15.0865C23.4602 14.9756 23.6167 15.0639 23.6173 15.2847C23.6179 15.5054 23.4625 15.7747 23.2704 15.8857C23.0782 15.9965 22.9217 15.9074 22.9211 15.6866C22.9205 15.4658 23.076 15.1975 23.2681 15.0865ZM23.27 15.754C23.3988 15.6796 23.5025 15.4992 23.5021 15.3512C23.5016 15.2041 23.3973 15.1437 23.2684 15.2181C23.1396 15.2925 23.036 15.4729 23.0365 15.6201C23.0368 15.7682 23.1412 15.8284 23.27 15.754Z" fill="#1D2943"/>
<path d="M27.1198 13.4657C27.121 13.6722 26.9761 13.9222 26.7962 14.026C26.7249 14.0671 26.6597 14.0791 26.6066 14.0647V14.0659L26.2383 13.985C26.1308 13.962 26.0608 13.8606 26.0596 13.6988C26.0596 13.4416 26.2419 13.124 26.4677 12.9936C26.6114 12.9102 26.7382 12.9223 26.8107 13.0105L26.8119 13.0093L27.0437 13.2701C27.0449 13.2713 27.0461 13.2725 27.0461 13.2737C27.092 13.3111 27.1198 13.3764 27.1198 13.4657Z" fill="#B0B8CF"/>
<path d="M26.0596 13.6994C26.0607 13.8609 26.1312 13.9619 26.2385 13.9846L26.6062 14.066L26.6073 14.0638C26.5248 14.0443 26.4717 13.9652 26.4717 13.8404C26.4705 13.6354 26.6148 13.3837 26.7948 13.2807C26.8958 13.2222 26.9868 13.2232 27.0465 13.2742V13.2731L26.8122 13.0096L26.8111 13.0107C26.7385 12.9228 26.6115 12.9098 26.4674 12.9933C26.2418 13.1235 26.0596 13.4413 26.0596 13.6994Z" fill="#B0B8CF"/>
<path d="M26.7946 13.2804C26.615 13.3841 26.4706 13.6355 26.4712 13.8407C26.4717 14.0469 26.6172 14.1298 26.7967 14.0261C26.9763 13.9225 27.1207 13.6723 27.1201 13.4658C27.1195 13.2608 26.9741 13.1768 26.7946 13.2804Z" fill="#F8F9FE"/>
<path d="M19.3875 12.7814C19.5727 12.6734 19.8733 12.6734 20.0597 12.7814C20.2462 12.888 20.2474 13.0635 20.0622 13.1702C19.8769 13.2782 19.5751 13.2782 19.3899 13.1714C19.2035 13.0635 19.2023 12.8894 19.3875 12.7814ZM14.4794 13.7002C14.6647 13.5935 14.9664 13.5923 15.1529 13.7002C15.3381 13.8081 15.3393 13.9823 15.1553 14.0903C14.9688 14.1982 14.6683 14.197 14.4818 14.0903C14.2954 13.9823 14.2942 13.8081 14.4794 13.7002ZM16.1478 14.6631C16.333 14.5564 16.6348 14.5564 16.8212 14.6631C17.0065 14.7711 17.0077 14.9453 16.8224 15.0532C16.6372 15.1612 16.3366 15.1612 16.1502 15.0532C15.9637 14.9453 15.9625 14.7711 16.1478 14.6631ZM19.3385 10.8763C19.5237 10.7695 19.8243 10.7695 20.0107 10.8763C20.1972 10.9842 20.1984 11.1585 20.0131 11.2663C19.8279 11.3744 19.5273 11.3744 19.3409 11.2663C19.1544 11.1585 19.1532 10.9842 19.3385 10.8763ZM21.0068 11.8405C21.1921 11.7325 21.4926 11.7325 21.6791 11.8405C21.8655 11.9472 21.8667 12.1214 21.6815 12.2293C21.4962 12.3373 21.1957 12.3373 21.0092 12.2293C20.8228 12.1214 20.8216 11.9472 21.0068 11.8405ZM13.5349 15.0312C13.3496 15.1391 13.0478 15.1391 12.8625 15.0312C12.6761 14.9232 12.6749 14.749 12.8601 14.6411C13.0453 14.5344 13.3459 14.5344 13.5323 14.6411C13.7188 14.749 13.7201 14.9232 13.5349 15.0312ZM16.1 12.7593C16.2852 12.6514 16.5856 12.6514 16.7722 12.7593C16.9586 12.8673 16.9598 13.0414 16.7746 13.1493C16.5894 13.2561 16.2876 13.2561 16.1012 13.1493C15.9147 13.0414 15.9147 12.8673 16.1 12.7593ZM21.7305 14.1345C21.5453 14.2412 21.2435 14.2412 21.0571 14.1345C20.8718 14.0265 20.8694 13.8523 21.0558 13.7444C21.2399 13.6363 21.5416 13.6363 21.7281 13.7444C21.9145 13.8523 21.9157 14.0265 21.7305 14.1345ZM15.2031 15.9941C15.018 16.1022 14.7161 16.1022 14.5309 15.9941C14.3444 15.8875 14.3432 15.712 14.5284 15.6053C14.7137 15.4973 15.0142 15.4973 15.2007 15.6053C15.3871 15.712 15.3883 15.8862 15.2031 15.9941ZM20.1113 15.0754C19.9261 15.1833 19.6243 15.1833 19.4379 15.0754C19.2514 14.9674 19.2501 14.7932 19.4354 14.6853C19.6206 14.5773 19.9223 14.5785 20.1089 14.6853C20.2953 14.7932 20.2965 14.9674 20.1113 15.0754ZM16.8715 16.9571C16.6863 17.0651 16.3844 17.0651 16.198 16.9571C16.0128 16.8504 16.0116 16.675 16.1968 16.5683C16.382 16.4603 16.6826 16.4603 16.869 16.5683C17.0555 16.675 17.0567 16.8504 16.8715 16.9571ZM17.7683 13.7222C17.9535 13.6142 18.254 13.6142 18.4405 13.7222C18.627 13.8302 18.6282 14.0044 18.443 14.1122C18.2577 14.2191 17.956 14.2191 17.7695 14.1122C17.5831 14.0044 17.5831 13.8302 17.7683 13.7222ZM22.626 10.8984C22.8113 10.7916 23.113 10.7916 23.2996 10.8984C23.486 11.0063 23.4872 11.1804 23.302 11.2884C23.1168 11.3963 22.815 11.3963 22.6286 11.2884C22.4421 11.1804 22.4421 11.0063 22.6261 10.8984H22.626ZM24.9703 12.2514C24.7851 12.3594 24.4833 12.3594 24.2969 12.2514C24.1105 12.1435 24.1091 11.9692 24.2945 11.8614C24.4796 11.7546 24.7814 11.7546 24.9679 11.8614C25.1531 11.9692 25.1556 12.1435 24.9703 12.2514ZM18.4908 16.0162C18.3055 16.1241 18.005 16.1241 17.8185 16.0162C17.6321 15.9082 17.6309 15.7341 17.8161 15.6261C18.0014 15.5194 18.3031 15.5194 18.4884 15.6261C18.6748 15.7341 18.676 15.9082 18.4908 16.0162ZM23.3498 13.1923C23.1646 13.3003 22.864 13.3003 22.6776 13.1923C22.4911 13.0856 22.4899 12.9101 22.6752 12.8035C22.8604 12.6955 23.161 12.6955 23.3474 12.8035C23.5339 12.9101 23.5351 13.0856 23.3498 13.1923ZM20.9589 9.93534C21.1429 9.82738 21.4447 9.82738 21.6312 9.93534C21.8177 10.0433 21.8189 10.2175 21.6337 10.3254C21.4484 10.4321 21.1467 10.4321 20.9602 10.3254C20.7738 10.2175 20.7738 10.0433 20.959 9.93534H20.9589ZM17.7192 11.8184C17.9044 11.7104 18.2049 11.7104 18.3914 11.8184C18.5778 11.9251 18.5792 12.1006 18.3938 12.2072C18.2087 12.3152 17.9068 12.3152 17.7217 12.2072C17.5351 12.1006 17.5339 11.9251 17.7193 11.8184H17.7192Z" fill="#C9CEE2"/>
<path d="M15.3774 17.7913L16.1007 17.371L16.0971 18.7475L15.3738 19.1678L15.3774 17.7913Z" fill="#111D33"/>
<path d="M16.1008 17.3698L15.3775 17.7913L15.3727 19.1678L9.58008 15.8216L9.59578 10.3128L10.4447 10.8031L11.168 10.3829L16.1008 17.3698Z" fill="#111D33"/>
<path d="M16.1008 17.3711L16.0972 18.7477L15.3739 19.1679H15.3727L9.58008 15.8218L9.59578 10.3129L10.3191 9.89272L11.168 10.383L16.1008 17.3698V17.3711Z" fill="#111D33"/>
<path d="M9.59546 10.3129L10.3187 9.89259L11.1677 10.3829L10.4445 10.8031L9.59546 10.3129ZM15.3776 17.7908L16.1009 17.3705L16.0969 18.7472L15.3737 19.1675L15.3776 17.7908Z" fill="#1D2943"/>
<path d="M15.378 17.7914L15.3733 19.1673L9.58032 15.8219L9.59566 10.3133L10.4441 10.8031L15.378 17.7914Z" fill="#111D33"/>
<path d="M16.1013 17.3701L15.378 17.7914L10.4441 10.8031L11.1675 10.383L16.1013 17.3701Z" fill="#4C5C75"/>
<path d="M9.93481 15.6178L9.94798 10.9254L10.1998 11.0708L15.0237 17.9032L15.0214 18.5553L9.93481 15.6178Z" fill="#9EA9C9"/>
<path d="M24.8996 23.4431L23.622 22.7064L23.4821 22.6254C23.3055 22.5235 23.0577 22.4929 22.8394 22.5346V22.7848C22.9021 22.7679 22.9669 22.7596 23.032 22.7603C23.1509 22.7603 23.2711 22.786 23.3594 22.8376L23.622 22.9898L24.7769 23.6566C24.8406 23.6922 24.8775 23.7375 24.8775 23.7756C24.8775 23.8136 24.8406 23.8577 24.7793 23.8934L19.632 26.8853C19.4553 26.9871 19.156 26.9871 18.9781 26.8853L17.936 26.2835L17.5607 26.0664C17.4981 26.0295 17.4601 25.9854 17.4601 25.9461C17.4601 25.9082 17.4969 25.864 17.5583 25.8283L17.9361 25.6088V25.3254L17.4356 25.6162C17.2945 25.6983 17.2148 25.8186 17.2148 25.9473C17.2148 26.0761 17.2957 26.1964 17.438 26.2785L17.9361 26.5669L18.8555 27.0975C18.9818 27.1699 19.1438 27.2068 19.3057 27.2068C19.4676 27.2068 19.6296 27.1699 19.7559 27.0975L24.902 24.1055C25.0431 24.0246 25.1228 23.9032 25.1228 23.7756C25.1228 23.6468 25.042 23.5253 24.8996 23.4431Z" fill="white"/>
<path d="M24.9111 24.4218L24.9098 24.9012C24.9098 24.9483 24.8784 24.9954 24.8169 25.0316L20.9418 27.2801C20.8175 27.3513 20.6146 27.3513 20.489 27.2801L19.2163 26.5447C19.1535 26.5084 19.1221 26.4601 19.1221 26.413L19.1233 25.9336C19.1233 25.8865 19.1547 25.8394 19.2163 25.8032L23.0913 23.556C23.2157 23.4823 23.4185 23.4823 23.5441 23.5548L24.8169 24.2902C24.8797 24.3264 24.9111 24.3747 24.9111 24.4218Z" fill="#EF7B56"/>
<path d="M24.8175 24.5522L20.9425 26.8001C20.8181 26.8722 20.6151 26.8722 20.49 26.8001L19.2175 26.0653C19.1547 26.029 19.1232 25.9811 19.1233 25.9334L19.1226 26.413C19.1224 26.4607 19.1538 26.5087 19.2167 26.5449L20.4893 27.2797C20.6142 27.3518 20.8174 27.3518 20.9416 27.2797L24.8166 25.0318C24.8788 24.9956 24.9098 24.9485 24.91 24.9012L24.9108 24.4216C24.9107 24.4688 24.8795 24.5161 24.8175 24.5522Z" fill="#EF7B56"/>
<path d="M24.8166 24.2898C24.9417 24.3619 24.9423 24.4796 24.8174 24.5522L20.9424 26.8001C20.818 26.8721 20.6151 26.8721 20.4899 26.8001L19.2174 26.0653C19.0925 25.9932 19.0919 25.8754 19.216 25.8032L23.091 23.5555C23.216 23.4829 23.4191 23.4829 23.5441 23.555L24.8166 24.2898Z" fill="#FFD06C"/>
</svg>
