<svg width="32" height="32" viewBox="0 0 32 32" fill="none" xmlns="http://www.w3.org/2000/svg">
<path d="M7.40641 26.5265L7.4052 26.8296C7.4052 26.9287 7.34 27.0289 7.20837 27.105C6.94634 27.2583 6.51766 27.2583 6.252 27.105C6.11917 27.0277 6.05154 26.9262 6.05275 26.826V26.5229C6.05275 26.4227 6.11796 26.3237 6.24958 26.2476C6.51283 26.0942 6.94151 26.0942 7.20717 26.2476C7.34 26.3237 7.40641 26.4251 7.40641 26.5265Z" fill="#1D2943"/>
<path d="M7.407 26.5262L7.40603 26.8295C7.40579 26.9293 7.34022 27.0288 7.2092 27.1048C6.9462 27.2578 6.51764 27.2578 6.25234 27.1046C6.11903 27.0277 6.05249 26.9266 6.05274 26.8257L6.0537 26.5224C6.05334 26.6234 6.11987 26.7245 6.25319 26.8014C6.51849 26.9546 6.94704 26.9546 7.21017 26.8016C7.34107 26.7256 7.40664 26.6261 7.407 26.5263V26.5262Z" fill="#1D2943"/>
<path d="M7.2071 26.2471C7.4724 26.4002 7.47385 26.6485 7.21024 26.8016C6.94712 26.9546 6.51856 26.9546 6.25326 26.8014C5.98845 26.6485 5.987 26.4002 6.25012 26.2474C6.51373 26.0941 6.94229 26.0941 7.2071 26.2471Z" fill="#4C5C75"/>
<path d="M7.12505 25.3195L7.12167 26.5017C7.12167 26.5596 7.08351 26.6176 7.00731 26.6618C6.85396 26.7509 6.6046 26.7509 6.45027 26.6618C6.37251 26.617 6.33374 26.5581 6.33399 26.4994L6.33725 25.317C6.33713 25.3758 6.37589 25.4347 6.45353 25.4795C6.60798 25.5686 6.85734 25.5686 7.01069 25.4795C7.08677 25.4353 7.12493 25.3773 7.12505 25.3195Z" fill="#C9CEE2"/>
<path d="M7.00827 25.1568C7.16259 25.246 7.16368 25.3904 7.01032 25.4795C6.85696 25.5686 6.6076 25.5686 6.45316 25.4795C6.29883 25.3904 6.29811 25.2458 6.45135 25.1567C6.6047 25.0676 6.85394 25.0677 7.00827 25.1568Z" fill="#9EA9C9"/>
<path d="M14.7455 30.7638L14.7443 31.0669C14.7443 31.1659 14.6779 31.2662 14.5475 31.3423C14.2842 31.4944 13.8555 31.4944 13.5899 31.341C13.457 31.265 13.3906 31.1635 13.3906 31.0621L13.3918 30.7602C13.3918 30.66 13.457 30.561 13.5887 30.4849C13.8519 30.3315 14.2806 30.3315 14.545 30.4837C14.6791 30.561 14.7455 30.6624 14.7455 30.7638Z" fill="#1D2943"/>
<path d="M14.7457 30.7635L14.7449 31.0666C14.7445 31.1663 14.6791 31.2658 14.5481 31.3419C14.2849 31.4949 13.8564 31.4949 13.5911 31.3417C13.4579 31.2647 13.3912 31.1637 13.3916 31.0627L13.3924 30.7596C13.3922 30.8604 13.4587 30.9615 13.5921 31.0386C13.8574 31.1917 14.2859 31.1917 14.5489 31.0387C14.6799 30.9626 14.7455 30.8632 14.7457 30.7635Z" fill="#1D2943"/>
<path d="M14.546 30.4842C14.8113 30.6373 14.8126 30.8856 14.549 31.0387C14.286 31.1917 13.8575 31.1917 13.5922 31.0384C13.3272 30.8856 13.3259 30.6373 13.589 30.4844C13.8526 30.3313 14.2811 30.3313 14.546 30.4842Z" fill="#4C5C75"/>
<path d="M14.464 29.5565L14.4607 30.7388C14.4605 30.7968 14.4224 30.8546 14.3463 30.8988C14.1929 30.9879 13.9435 30.9879 13.7891 30.8988C13.7115 30.854 13.6727 30.7952 13.6729 30.7364L13.6762 29.554C13.676 29.6128 13.7149 29.6717 13.7925 29.7165C13.9468 29.8056 14.1963 29.8056 14.3497 29.7165C14.4258 29.6723 14.4638 29.6145 14.464 29.5565Z" fill="#C9CEE2"/>
<path d="M14.3472 29.394C14.5015 29.4831 14.5026 29.6274 14.3492 29.7165C14.1959 29.8056 13.9464 29.8056 13.7921 29.7165C13.6377 29.6274 13.6369 29.483 13.7903 29.3939C13.9436 29.3047 14.1929 29.3049 14.3472 29.3939V29.394Z" fill="#9EA9C9"/>
<path d="M19.3092 19.6115L19.3084 19.9149C19.308 20.0145 19.2424 20.1141 19.1115 20.1902C18.8484 20.3431 18.4199 20.3431 18.1546 20.1899C18.0213 20.1129 17.9547 20.0118 17.9551 19.911L17.9559 19.6077C17.9556 19.7086 18.0222 19.8097 18.1554 19.8866C18.4207 20.04 18.8493 20.0398 19.1124 19.887C19.2434 19.8109 19.3089 19.7112 19.3092 19.6115Z" fill="#1D2943"/>
<path d="M19.1094 19.3323C19.3748 19.4856 19.3763 19.7337 19.1125 19.887C18.8494 20.0398 18.4209 20.0398 18.1556 19.8867C17.8907 19.7337 17.8894 19.4856 18.1524 19.3326C18.416 19.1795 18.8446 19.1795 19.1094 19.3323Z" fill="#4C5C75"/>
<path d="M19.0274 18.4047L19.0241 19.587C19.0239 19.645 18.9859 19.7029 18.9098 19.7471C18.7564 19.8363 18.5069 19.8363 18.3526 19.7471C18.275 19.7022 18.2361 19.6433 18.2363 19.5846L18.2397 18.4023C18.2395 18.4611 18.2784 18.5199 18.356 18.5647C18.5103 18.6538 18.7598 18.6538 18.913 18.5647C18.9891 18.5205 19.0273 18.4627 19.0274 18.4047Z" fill="#C9CEE2"/>
<path d="M18.9105 18.2422C19.065 18.3313 19.0659 18.4756 18.9126 18.5647C18.7592 18.6538 18.5099 18.6538 18.3555 18.5647C18.2012 18.4756 18.2004 18.3312 18.3537 18.2421C18.5071 18.1529 18.7562 18.1531 18.9105 18.2422Z" fill="#9EA9C9"/>
<path d="M26.6476 23.8482L26.6464 24.1513C26.6464 24.2515 26.5812 24.3506 26.4496 24.4266C26.1875 24.58 25.7589 24.58 25.4932 24.4266C25.3604 24.3506 25.2928 24.2491 25.294 24.1477V23.8446C25.294 23.7456 25.3592 23.6453 25.4908 23.5693C25.754 23.4159 26.1827 23.4159 26.4484 23.5693C26.5812 23.6466 26.6476 23.748 26.6476 23.8482Z" fill="#1D2943"/>
<path d="M26.6481 23.8487L26.6472 24.1518C26.647 24.2515 26.5814 24.351 26.4504 24.4272C26.1874 24.5801 25.7589 24.5801 25.4936 24.427C25.3602 24.3501 25.2937 24.249 25.2939 24.148L25.2948 23.8448C25.2945 23.9457 25.3612 24.0469 25.4944 24.1238C25.7597 24.2769 26.1883 24.2769 26.4514 24.124C26.5823 24.0479 26.6478 23.9483 26.6482 23.8487H26.6481Z" fill="#1D2943"/>
<path d="M26.4472 23.5694C26.7126 23.7226 26.7141 23.9708 26.4505 24.124C26.1872 24.2769 25.7588 24.2769 25.4935 24.1238C25.2287 23.9708 25.2272 23.7226 25.4904 23.5697C25.754 23.4165 26.1824 23.4165 26.4472 23.5694Z" fill="#4C5C75"/>
<path d="M26.3664 22.6418L26.363 23.8242C26.3629 23.8822 26.3248 23.94 26.2486 23.9842C26.0953 24.0733 25.8459 24.0733 25.6915 23.9842C25.6138 23.9394 25.5751 23.8805 25.5752 23.8217L25.5786 22.6393C25.5785 22.6982 25.6172 22.757 25.6949 22.8019C25.8492 22.891 26.0987 22.891 26.252 22.8019C26.3281 22.7576 26.3663 22.6997 26.3664 22.6418Z" fill="#C9CEE2"/>
<path d="M26.2495 22.4792C26.4038 22.5683 26.4049 22.7128 26.2516 22.8019C26.0982 22.891 25.8487 22.891 25.6944 22.8019C25.5401 22.7128 25.5392 22.5682 25.6926 22.4791C25.846 22.39 26.0952 22.3901 26.2495 22.4792Z" fill="#9EA9C9"/>
<path d="M8.73691 26.9007L9.72263 26.3278L9.7201 27.1358L8.73438 27.7086L8.73691 26.9007Z" fill="#7C7F81"/>
<path d="M9.72297 26.3273L8.73762 26.9009L8.7352 27.7087L6.00977 26.1354L6.01218 25.3275L6.99875 24.7551L9.72297 26.3273Z" fill="#9EA9C9"/>
<path d="M6.0127 25.3275L6.99842 24.7546L9.72313 26.3278L8.7374 26.9006L6.0127 25.3275Z" fill="#E3E7F0"/>
<path d="M8.73701 26.9006L8.73447 27.7086L6.00977 26.1354L6.0123 25.3275L8.73701 26.9006Z" fill="#9EA9C9"/>
<path d="M26.5006 11.14L26.4728 23.5042L13.9989 30.753L8.38379 27.5108L8.41156 15.1478L14.0267 18.3902L26.5006 11.14Z" fill="#9EA9C9"/>
<path d="M13.999 30.753L14.0267 18.3896L26.5006 11.1406L26.4729 23.5039L13.999 30.753Z" fill="#B0B8CF"/>
<path d="M14.0262 18.3896L13.9985 30.753L8.38281 27.5108L8.41059 15.1474L14.0262 18.3896Z" fill="#9EA9C9"/>
<path d="M24.3255 16.0425L16.2041 20.762V28.4106L24.3255 23.6911V16.0425Z" fill="#4C5C75"/>
<path d="M17.9359 23.936V27.3892L17.1533 27.8442V24.3898L17.9359 23.936Z" fill="#1D2943"/>
<path d="M17.6146 24.1222L17.1533 24.3898V27.8442L17.6146 27.576V24.1222Z" fill="#111D33"/>
<path d="M23.6225 20.641V24.0954L22.8398 24.5493V21.0949L23.6225 20.641Z" fill="#1D2943"/>
<path d="M23.209 20.8805V24.335L23.6221 24.0954V20.641L23.209 20.8805Z" fill="#111D33"/>
<path d="M8.41113 15.1474L20.885 7.89833L26.5007 11.1406L14.0267 18.3896L8.41113 15.1474Z" fill="#8B8E90"/>
<path d="M8.9873 27.1627L9.01194 16.1918L13.4217 18.7376L13.397 29.7087L8.9873 27.1627Z" fill="#808EB2"/>
<path d="M27.8483 11.9189L27.8459 13.5286L15.3719 20.7775L8.40918 16.7575L8.41159 15.1478L15.3743 19.1678L27.8483 11.9189Z" fill="#9EA9C9"/>
<path d="M15.3736 19.1675L27.8475 11.9185L27.8449 13.5283L15.3711 20.7773L15.3736 19.1675Z" fill="#C9CEE2"/>
<path d="M15.3738 19.1675L15.3713 20.7773L8.4082 16.7571L8.41086 15.1474L15.3738 19.1675Z" fill="#9EA9C9"/>
<path d="M27.8479 11.9181L15.3735 19.1673L8.41113 15.1469L20.8844 7.89893L27.8479 11.9181Z" fill="#E3E7F0"/>
<path d="M9.60227 13.6833L22.0761 6.4343L22.0736 8.5789L9.59961 15.8279L9.60227 13.6833Z" fill="#C9CEE2"/>
<path d="M22.076 6.43429L9.60321 13.6832L9.59959 15.8278L4.15234 12.682L4.15476 10.5374L16.6287 3.28851L22.076 6.43429Z" fill="#9EA9C9"/>
<path d="M4.1543 10.538L16.6281 3.289L22.076 6.4343L9.60215 13.6833L4.1543 10.538Z" fill="#E3E7F0"/>
<path d="M9.60273 13.6833L9.60007 15.8279L4.15234 12.6826L4.15488 10.538L9.60273 13.6833Z" fill="#9EA9C9"/>
<path d="M18.5767 7.71261L17.4236 8.38268L13.5509 6.14666L14.704 5.47672L18.5767 7.71261ZM16.0774 9.16505L14.9243 9.83499L11.0516 7.5991L12.2047 6.92903L16.0774 9.16505ZM13.5774 10.6178L12.4245 11.2878L8.55174 9.0519L9.70471 8.38183L13.5774 10.6178ZM11.0774 12.0706L9.92448 12.7406L6.05176 10.5047L7.20472 9.83463L11.0774 12.0706Z" fill="#B0B8CF"/>
<path d="M22.0577 1.34328L22.0541 7.15629L9.58014 14.4053V13.671L8.19629 12.8717L8.1987 7.79279L20.6727 0.543762L22.0577 1.34328Z" fill="#9EA9C9"/>
<path d="M9.58359 8.59182L22.0574 1.34279L22.0549 7.15592L9.58105 14.4049L9.58359 8.59182Z" fill="#C9CEE2"/>
<path d="M8.19824 7.79242L20.6722 0.543396L22.0567 1.34279L9.58282 8.59182L8.19824 7.79242Z" fill="#E3E7F0"/>
<path d="M9.5834 8.59182L9.58086 13.6712L8.19629 12.8718L8.19882 7.79242L9.5834 8.59182Z" fill="#9EA9C9"/>
<path d="M17.889 7.26617L14.5259 9.22131L13.7471 8.9484L13.7579 5.23882L17.121 3.28368L17.5098 3.5084L17.889 7.26617Z" fill="#111D33"/>
<path d="M14.1475 5.46282L17.5107 3.50829L17.89 7.26629L14.5268 9.22071L14.1475 5.46282Z" fill="#1D2943"/>
<path d="M14.3975 5.59046L17.3126 3.89639L17.6398 7.13866L14.7247 8.83273L14.3975 5.59046Z" fill="#57B3FE"/>
<path d="M13.7588 5.23834L17.1221 3.28392L17.5109 3.50828L14.1476 5.46282L13.7588 5.23834Z" fill="#4C5C75"/>
<path d="M14.1474 5.46282L14.5267 9.22071L13.748 8.94793L13.7586 5.23834L14.1474 5.46282Z" fill="#111D33"/>
<path d="M27.1241 10.9658L27.8473 10.5456L27.8434 11.9222L27.1201 12.3426L27.1241 10.9658Z" fill="#1D2943"/>
<path d="M21.3418 3.488L22.065 3.06766L22.9141 3.55792L22.1908 3.97827L21.3418 3.488Z" fill="#1D2943"/>
<path d="M27.1238 10.9665L27.1191 12.3425L21.3262 8.99695L21.3415 3.48848L22.1901 3.97814L27.1238 10.9665Z" fill="#111D33"/>
<path d="M26.7702 11.078L26.7679 11.7306L21.6807 8.79335L21.6949 4.10022L21.9462 4.24537L26.7702 11.078Z" fill="#9EA9C9"/>
<path d="M27.8478 10.5452L27.1245 10.9665L22.1907 3.97815L22.914 3.55804L27.8478 10.5452ZM20.2825 9.61993V7.49646L18.4492 8.56188L20.2824 9.62005L20.2825 9.61993Z" fill="#4C5C75"/>
<path d="M18.4493 8.56187L10.7783 13.0203V15.1434L20.2824 9.62005L18.4493 8.56187Z" fill="#1D2943"/>
<path d="M12.396 13.9786L12.1555 13.8388L12.1465 10.6648L12.3869 10.8045L12.396 13.9786Z" fill="#DEDFFB"/>
<path d="M12.3869 10.8045L12.1465 10.6648L12.4348 10.4983L12.6753 10.638L12.3869 10.8045Z" fill="#ADB1C2"/>
<path d="M12.6751 10.638L12.6841 13.812L12.3958 13.9786L12.3867 10.8045L12.6751 10.638Z" fill="white"/>
<path d="M13.2278 10.3191L12.9873 10.1794L13.2758 10.0129L13.5162 10.1526L13.2278 10.3191ZM14.0685 9.83366L13.8281 9.69395L14.1165 9.52755L14.3569 9.66726L14.0685 9.83366ZM14.9092 9.34835L14.6688 9.20863L14.9572 9.04211L15.1976 9.18183L14.9092 9.34835ZM15.7501 8.86291L15.5096 8.7232L15.798 8.55668L16.0384 8.69639L15.7501 8.86291ZM16.5907 8.37748L16.3503 8.23777L16.6387 8.07124L16.8791 8.21096L16.5907 8.37748ZM17.4319 7.8918L17.1915 7.75209L17.4799 7.58569L17.7203 7.7254L17.4319 7.8918ZM18.2726 7.40649L18.0322 7.26678L18.3206 7.10026L18.561 7.23997L18.2726 7.40649ZM19.1134 6.92106L18.873 6.78134L19.1614 6.61482L19.4018 6.75454L19.1134 6.92106Z" fill="#ADB1C2"/>
<path d="M13.2278 10.3191L12.9873 10.1794L12.9964 13.3534L13.2368 13.4931L13.5251 13.3266L13.5162 10.1526L13.2278 10.3191ZM14.0685 9.83366L13.8281 9.69394L13.8371 12.868L14.0775 13.0077L14.366 12.8412L14.3569 9.66726L14.0685 9.83366ZM14.9092 9.34834L14.6688 9.20863L14.6779 12.3827L14.9183 12.5224L15.2067 12.3559L15.1976 9.18182L14.9092 9.34834ZM15.7501 8.86291L15.5096 8.7232L15.5186 11.8972L15.759 12.0369L16.0474 11.8704L16.0384 8.69639L15.7501 8.86291ZM16.5907 8.37748L16.3503 8.23776L16.3593 11.4118L16.5998 11.5515L16.8882 11.385L16.8791 8.21108L16.5907 8.37748ZM17.4319 7.89192L17.1915 7.75209L17.2004 10.9261L17.441 11.0658L17.7293 10.8994L17.7203 7.7254L17.4319 7.89192ZM18.2726 7.40649L18.0322 7.26677L18.0413 10.4407L18.2817 10.5805L18.57 10.414L18.561 7.23997L18.2726 7.40649ZM19.4018 6.75453L19.1134 6.92105L18.873 6.78134L18.8819 9.95538L19.1224 10.0951L19.4107 9.92857L19.4018 6.75453Z" fill="#DEDFFB"/>
<path d="M13.2368 13.4931L12.9964 13.3534L12.9873 10.1794L13.2278 10.3191L13.2368 13.4931Z" fill="#DEDFFB"/>
<path d="M13.5159 10.1526L13.5248 13.3266L13.2365 13.4931L13.2275 10.3191L13.5159 10.1526Z" fill="white"/>
<path d="M14.0775 13.0077L13.8371 12.868L13.8281 9.69394L14.0685 9.83365L14.0775 13.0077Z" fill="#DEDFFB"/>
<path d="M14.3567 9.66727L14.3658 12.8413L14.0773 13.0077L14.0684 9.83367L14.3567 9.66727Z" fill="white"/>
<path d="M14.9174 12.5224L14.677 12.3826L14.668 9.20863L14.9084 9.34835L14.9174 12.5224Z" fill="#DEDFFB"/>
<path d="M15.1975 9.18182L15.2066 12.3559L14.9182 12.5224L14.9092 9.34834L15.1975 9.18182Z" fill="white"/>
<path d="M15.7581 12.037L15.5177 11.8972L15.5088 8.72321L15.7492 8.86292L15.7581 12.037Z" fill="#DEDFFB"/>
<path d="M16.0384 8.6964L16.0473 11.8704L15.7589 12.037L15.75 8.86292L16.0384 8.6964Z" fill="white"/>
<path d="M16.5991 11.5515L16.3585 11.4118L16.3496 8.23776L16.59 8.37748L16.5991 11.5515Z" fill="#DEDFFB"/>
<path d="M16.8792 8.21095L16.8882 11.385L16.5999 11.5515L16.5908 8.37747L16.8792 8.21095Z" fill="white"/>
<path d="M17.4409 11.0658L17.2003 10.9261L17.1914 7.75209L17.4318 7.8918L17.4409 11.0658Z" fill="#DEDFFB"/>
<path d="M17.72 7.7254L17.7291 10.8994L17.4407 11.0658L17.4316 7.8918L17.72 7.7254Z" fill="white"/>
<path d="M18.2817 10.5805L18.0413 10.4408L18.0322 7.26678L18.2726 7.4065L18.2817 10.5805Z" fill="#DEDFFB"/>
<path d="M18.5608 7.23997L18.5699 10.414L18.2815 10.5805L18.2725 7.4065L18.5608 7.23997Z" fill="white"/>
<path d="M19.1224 10.0951L18.882 9.95538L18.873 6.78134L19.1135 6.92105L19.1224 10.0951Z" fill="#DEDFFB"/>
<path d="M19.4016 6.75453L19.4106 9.92857L19.1222 10.0951L19.1133 6.92105L19.4016 6.75453Z" fill="white"/>
<path d="M11.8258 10.7681L20.5229 5.71387L20.5222 7.36386L11.8252 12.418L11.8258 10.7681Z" fill="#C9CEE2"/>
<path d="M26.0556 15.9629C26.0472 15.9581 26.0387 15.9545 26.0303 15.9509C26.0327 15.9521 26.0363 15.9533 26.0399 15.9545C26.0448 15.9581 26.0496 15.9605 26.0556 15.9629Z" fill="#FEBC1F"/>
<path d="M26.2191 16.3156C26.2203 16.6622 25.9776 17.0836 25.6757 17.2575C25.5211 17.3457 25.3823 17.3529 25.282 17.2913L25.0635 17.1646C24.9657 17.1078 24.9053 16.987 24.9053 16.8144C24.9029 16.469 25.148 16.0476 25.4487 15.8737C25.6008 15.7855 25.7373 15.7783 25.8363 15.8363L26.0404 15.9546C26.0368 15.9534 26.0331 15.9522 26.0307 15.951C26.0392 15.9546 26.0476 15.9582 26.0561 15.963C26.1563 16.0186 26.2191 16.1406 26.2191 16.3156Z" fill="#FEBC1F"/>
<path d="M26.0556 15.9629C26.0472 15.9581 26.0387 15.9545 26.0303 15.9509C26.0327 15.9521 26.0363 15.9533 26.0399 15.9545C26.0448 15.9581 26.0496 15.9605 26.0556 15.9629Z" fill="#FEBC1F"/>
<path d="M24.9043 16.8142C24.9043 16.9872 24.965 17.1073 25.0627 17.1641L25.2871 17.2947C25.1894 17.238 25.1288 17.1166 25.1288 16.9449C25.1275 16.5991 25.3716 16.178 25.6725 16.0037C25.8231 15.9167 25.9604 15.9087 26.0606 15.9655L25.8363 15.8361C25.7373 15.778 25.6 15.7859 25.4482 15.8731C25.1473 16.0473 24.903 16.4684 24.9043 16.8142Z" fill="#FFD06C"/>
<path d="M26.0594 16.854C26.2727 16.487 26.2732 16.0893 26.0606 15.9658C25.848 15.8423 25.5028 16.0396 25.2895 16.4066C25.0762 16.7737 25.0757 17.1713 25.2883 17.2949C25.5009 17.4184 25.8461 17.2211 26.0594 16.854Z" fill="#FEBC1F"/>
<path d="M25.7965 17.1935L25.6673 17.2683L25.5876 17.2225L25.584 16.0547L25.7132 15.9799L25.7929 16.0257L25.7965 17.1935Z" fill="#CC104A"/>
<path d="M25.6666 17.2682L25.5869 17.2219L25.584 16.0546L25.6637 16.101L25.6666 17.2682Z" fill="#CC104A"/>
<path d="M25.6637 16.1009L25.584 16.0546L25.7133 15.9799L25.793 16.0263L25.6637 16.1009Z" fill="#F45170"/>
<path d="M25.7934 16.0263L25.7963 17.1935L25.667 17.2682L25.6641 16.1009L25.7934 16.0263Z" fill="#E93565"/>
<path d="M21.1443 6.47535C21.1443 6.67097 21.0078 6.90886 20.8376 7.00667C20.7446 7.0598 20.6625 7.06101 20.6057 7.01875C20.6093 7.02237 20.6142 7.02599 20.619 7.02841L20.4692 6.94146C20.4137 6.90886 20.3799 6.84124 20.3799 6.74343C20.3787 6.54901 20.5151 6.31113 20.6854 6.21211C20.7711 6.1626 20.8484 6.15897 20.904 6.19158L21.0392 6.27007C21.044 6.27248 21.0489 6.2749 21.0537 6.27852C21.1092 6.30992 21.1443 6.37875 21.1443 6.47535Z" fill="#50B069"/>
<path d="M20.9049 6.1911C20.8491 6.1585 20.7717 6.16309 20.6864 6.21235C20.5159 6.31077 20.3793 6.5489 20.3799 6.74368C20.3801 6.84088 20.4143 6.90911 20.4695 6.94123L20.6192 7.02829C20.564 6.99617 20.5299 6.92795 20.5296 6.83074C20.5291 6.63596 20.6657 6.39783 20.8361 6.29942C20.9216 6.25003 20.9989 6.24556 21.0547 6.27805L20.9049 6.1911Z" fill="#50B069"/>
<path d="M20.8358 6.29941C21.0058 6.20124 21.1437 6.28082 21.1443 6.47571C21.1449 6.67109 21.0079 6.90838 20.8378 7.00655C20.6673 7.10497 20.5299 7.02611 20.5293 6.83073C20.5288 6.63596 20.6654 6.39783 20.8358 6.29941Z" fill="#78E75A"/>
<path d="M21.1413 5.37636C21.1425 5.57198 21.0049 5.80987 20.8358 5.90768C20.7404 5.96202 20.6559 5.96202 20.5991 5.91734C20.604 5.92217 20.61 5.9258 20.616 5.92942L20.4663 5.84247C20.412 5.80987 20.377 5.74225 20.377 5.64444C20.377 5.44881 20.5134 5.21214 20.6837 5.11432C20.7694 5.06481 20.8467 5.05998 20.9022 5.09259L21.0411 5.17349C21.0435 5.1747 21.0447 5.17591 21.0471 5.17712C21.1051 5.2073 21.1413 5.27613 21.1413 5.37636Z" fill="#DF3260"/>
<path d="M20.9024 5.09223C20.8464 5.05986 20.769 5.06445 20.6834 5.11396C20.513 5.21226 20.3765 5.44942 20.377 5.6448C20.3773 5.74189 20.4114 5.81023 20.4666 5.84223L20.6163 5.9293C20.5611 5.89718 20.5269 5.82883 20.5267 5.73174C20.5262 5.53636 20.6628 5.29932 20.8333 5.20091C20.9188 5.1514 20.9963 5.14681 21.0521 5.17929L20.9024 5.09235V5.09223Z" fill="#DF3260"/>
<path d="M21.0513 5.68038C21.1716 5.47337 21.172 5.24909 21.0521 5.17942C20.9322 5.10976 20.7375 5.2211 20.6172 5.4281C20.4969 5.63511 20.4966 5.85939 20.6165 5.92906C20.7364 5.99872 20.9311 5.88738 21.0513 5.68038Z" fill="#F45170"/>
<path d="M19.9506 17.4778C19.9961 17.5043 20.0417 17.5308 20.0873 17.5573L20.1169 17.5745C20.0523 17.6118 19.9937 17.6152 19.9514 17.5906L19.7852 17.494C19.8274 17.5185 19.886 17.5151 19.9506 17.4778Z" fill="#4C5C75"/>
<path d="M20.1823 17.075C20.182 17.0019 20.156 16.9503 20.1142 16.9259L20.2805 17.0227C20.3224 17.0469 20.3483 17.0985 20.3486 17.1717C20.3489 17.3197 20.2446 17.5005 20.1165 17.5745L19.9502 17.4778C20.0782 17.4039 20.1826 17.223 20.1823 17.075Z" fill="#4C5C75"/>
<path d="M20.1148 16.9259L20.2811 17.0225C20.2387 16.998 20.1801 17.0013 20.1156 17.0386L19.9492 16.9419C20.0137 16.9047 20.0725 16.9013 20.1148 16.9259Z" fill="#F45170"/>
<path d="M19.9513 17.5906L19.7849 17.494C19.743 17.4696 19.7169 17.4175 19.7168 17.3439C19.7163 17.1966 19.8199 17.0163 19.9488 16.9419L20.1152 17.0385C19.9863 17.113 19.8827 17.2933 19.8831 17.4405C19.8833 17.5142 19.9093 17.5662 19.9513 17.5906Z" fill="#F45170"/>
<path d="M20.4638 17.1053C20.465 17.3262 20.3092 17.5955 20.1172 17.7054C20.0159 17.7641 19.9257 17.7664 19.8617 17.7239C19.8646 17.7259 19.8667 17.729 19.8696 17.7309L19.703 17.6331C19.6402 17.5969 19.6016 17.5196 19.6016 17.4109C19.6016 17.1899 19.7561 16.9218 19.9481 16.8107C20.0459 16.754 20.1329 16.7492 20.1969 16.7854L20.3502 16.8759C20.3502 16.8759 20.3514 16.8759 20.3527 16.8772C20.4203 16.911 20.4638 16.9895 20.4638 17.1054V17.1053Z" fill="#1D2943"/>
<path d="M20.1149 17.0385C20.2429 16.9646 20.348 17.0245 20.3484 17.1717C20.3489 17.3197 20.2445 17.5005 20.1164 17.5745C19.9875 17.6488 19.8833 17.5885 19.8828 17.4405C19.8825 17.2933 19.9861 17.1129 20.1149 17.0385Z" fill="#F45170"/>
<path d="M20.1965 16.7859C20.1331 16.749 20.0453 16.7545 19.9485 16.8103C19.7565 16.9212 19.601 17.1897 19.6016 17.4104C19.6019 17.5201 19.6407 17.5972 19.7031 17.6336L19.8695 17.7302C19.807 17.694 19.7682 17.6167 19.7678 17.507C19.7672 17.2863 19.9228 17.018 20.1149 16.9069C20.2117 16.8511 20.2995 16.8458 20.3628 16.8826L20.1965 16.786V16.7859Z" fill="#4C5C75"/>
<path d="M20.1146 16.9069C20.3066 16.796 20.4631 16.8844 20.4639 17.1051C20.4645 17.3259 20.3089 17.5952 20.1168 17.706C19.9248 17.817 19.7683 17.7278 19.7676 17.507C19.767 17.2863 19.9225 17.018 20.1146 16.9069ZM20.1164 17.5745C20.2446 17.5005 20.349 17.3197 20.3485 17.1717C20.3482 17.0245 20.243 16.9646 20.115 17.0386C19.9861 17.113 19.8825 17.2934 19.8829 17.4405C19.8834 17.5885 19.9876 17.6489 20.1164 17.5745Z" fill="#1D2943"/>
<path d="M23.1038 15.6573L23.2702 15.754C23.2056 15.7913 23.147 15.7947 23.1048 15.7702L22.9385 15.6736C22.9807 15.6981 23.0391 15.6947 23.1038 15.6573Z" fill="#4C5C75"/>
<path d="M23.3356 15.2546C23.3354 15.1813 23.3095 15.1296 23.2676 15.1053L23.434 15.2019C23.4758 15.2263 23.5016 15.278 23.502 15.3512L23.4619 15.328L23.3356 15.2546L23.502 15.3512C23.5024 15.4992 23.3988 15.6796 23.2699 15.754L23.1035 15.6574C23.2324 15.5829 23.3361 15.4026 23.3356 15.2546Z" fill="#4C5C75"/>
<path d="M23.2681 15.1052L23.4345 15.2019C23.3922 15.1774 23.3337 15.1807 23.2688 15.2181L23.1025 15.1215C23.1673 15.0841 23.2257 15.0807 23.2681 15.1053V15.1052Z" fill="#78E75A"/>
<path d="M23.1046 15.7702L22.9383 15.6736C22.8963 15.6491 22.8704 15.5972 22.8701 15.5234C22.8698 15.3762 22.9734 15.1958 23.1022 15.1214L23.2685 15.2181C23.1396 15.2925 23.036 15.4729 23.0365 15.62C23.0366 15.6938 23.0627 15.7458 23.1046 15.7702Z" fill="#78E75A"/>
<path d="M23.6171 15.2844C23.6183 15.5054 23.4625 15.7747 23.2705 15.8858C23.163 15.9473 23.0676 15.9473 23.0036 15.8966C23.0097 15.9015 23.0169 15.9063 23.023 15.9099L22.8563 15.8133C22.7947 15.7771 22.7549 15.6998 22.7549 15.5899C22.7549 15.3689 22.9094 15.1009 23.1027 14.9898C23.1993 14.9342 23.2862 14.9282 23.3502 14.9656L23.5168 15.0622C23.5135 15.0601 23.5098 15.0585 23.506 15.0574C23.5736 15.09 23.6171 15.1697 23.6171 15.2844Z" fill="#4C5C75"/>
<path d="M23.2681 15.2181C23.3969 15.1437 23.5013 15.2041 23.5018 15.3512C23.5021 15.4992 23.3985 15.6796 23.2697 15.754C23.1408 15.8284 23.0366 15.7682 23.0361 15.62C23.0357 15.4729 23.1393 15.2925 23.2681 15.2181Z" fill="#78E75A"/>
<path d="M23.3498 14.9655C23.2864 14.9287 23.1987 14.934 23.1018 14.9899C22.9097 15.1007 22.7542 15.3692 22.7549 15.5899C22.7551 15.6996 22.7939 15.7768 22.8563 15.8131L23.0227 15.9098C22.9603 15.8736 22.9215 15.7963 22.9213 15.6866C22.9206 15.4658 23.076 15.1975 23.2681 15.0865C23.3649 15.0306 23.4528 15.0254 23.5161 15.0621L23.3498 14.9655Z" fill="#4C5C75"/>
<path d="M23.2678 15.0865C23.4599 14.9756 23.6164 15.0639 23.6171 15.2847C23.6177 15.5054 23.4622 15.7747 23.2701 15.8857C23.078 15.9965 22.9215 15.9074 22.9209 15.6866C22.9203 15.4658 23.0757 15.1975 23.2678 15.0865ZM23.2698 15.754C23.3986 15.6796 23.5022 15.4992 23.5019 15.3512C23.5014 15.2041 23.397 15.1437 23.2682 15.2181C23.1393 15.2925 23.0357 15.4729 23.0362 15.6201C23.0366 15.7682 23.1409 15.8284 23.2698 15.754Z" fill="#1D2943"/>
<path d="M27.1198 13.4657C27.121 13.6722 26.9761 13.9222 26.7962 14.026C26.7249 14.0671 26.6597 14.0791 26.6066 14.0647V14.0659L26.2383 13.985C26.1308 13.962 26.0608 13.8606 26.0596 13.6988C26.0596 13.4416 26.2419 13.124 26.4677 12.9936C26.6114 12.9102 26.7382 12.9223 26.8107 13.0105L26.8119 13.0093L27.0437 13.2701C27.0449 13.2713 27.0461 13.2725 27.0461 13.2737C27.092 13.3111 27.1198 13.3764 27.1198 13.4657Z" fill="#B0B8CF"/>
<path d="M26.0596 13.6994C26.0607 13.8609 26.1312 13.9619 26.2385 13.9846L26.6062 14.066L26.6073 14.0638C26.5248 14.0443 26.4717 13.9652 26.4717 13.8404C26.4705 13.6354 26.6148 13.3837 26.7948 13.2807C26.8958 13.2222 26.9868 13.2232 27.0465 13.2742V13.2731L26.8122 13.0096L26.8111 13.0107C26.7385 12.9228 26.6115 12.9098 26.4674 12.9933C26.2418 13.1235 26.0596 13.4413 26.0596 13.6994Z" fill="#B0B8CF"/>
<path d="M26.7941 13.2804C26.6145 13.3841 26.4701 13.6355 26.4707 13.8407C26.4712 14.0469 26.6167 14.1298 26.7963 14.0261C26.9758 13.9225 27.1202 13.6723 27.1196 13.4658C27.119 13.2608 26.9736 13.1768 26.7941 13.2804Z" fill="#F8F9FE"/>
<path d="M19.3873 12.7814C19.5725 12.6734 19.873 12.6734 20.0595 12.7814C20.2459 12.888 20.2471 13.0635 20.0619 13.1702C19.8767 13.2782 19.5749 13.2782 19.3897 13.1714C19.2032 13.0635 19.202 12.8894 19.3873 12.7814ZM14.4792 13.7002C14.6644 13.5935 14.9662 13.5923 15.1526 13.7002C15.3379 13.8081 15.3391 13.9823 15.155 14.0903C14.9686 14.1982 14.668 14.197 14.4816 14.0903C14.2951 13.9823 14.2939 13.8081 14.4792 13.7002ZM16.1475 14.6631C16.3328 14.5564 16.6345 14.5564 16.821 14.6631C17.0062 14.7711 17.0074 14.9453 16.8222 15.0532C16.6369 15.1612 16.3364 15.1612 16.1499 15.0532C15.9635 14.9453 15.9623 14.7711 16.1475 14.6631ZM19.3382 10.8763C19.5235 10.7695 19.824 10.7695 20.0105 10.8763C20.1969 10.9842 20.1981 11.1585 20.0129 11.2663C19.8276 11.3744 19.5271 11.3744 19.3406 11.2663C19.1542 11.1585 19.153 10.9842 19.3382 10.8763ZM21.0066 11.8405C21.1918 11.7325 21.4924 11.7325 21.6788 11.8405C21.8653 11.9472 21.8665 12.1214 21.6812 12.2293C21.496 12.3373 21.1954 12.3373 21.009 12.2293C20.8225 12.1214 20.8213 11.9472 21.0066 11.8405ZM13.5346 15.0312C13.3494 15.1391 13.0475 15.1391 12.8623 15.0312C12.6758 14.9232 12.6746 14.749 12.8599 14.6411C13.0451 14.5344 13.3457 14.5344 13.5321 14.6411C13.7185 14.749 13.7199 14.9232 13.5346 15.0312ZM16.0997 12.7593C16.2849 12.6514 16.5854 12.6514 16.7719 12.7593C16.9584 12.8673 16.9596 13.0414 16.7744 13.1493C16.5891 13.2561 16.2874 13.2561 16.1009 13.1493C15.9145 13.0414 15.9145 12.8673 16.0997 12.7593ZM21.7303 14.1345C21.545 14.2412 21.2433 14.2412 21.0568 14.1345C20.8716 14.0265 20.8692 13.8523 21.0556 13.7444C21.2396 13.6363 21.5414 13.6363 21.7278 13.7444C21.9143 13.8523 21.9155 14.0265 21.7303 14.1345ZM15.2029 15.9941C15.0177 16.1022 14.7159 16.1022 14.5306 15.9941C14.3442 15.8875 14.343 15.712 14.5282 15.6053C14.7134 15.4973 15.014 15.4973 15.2004 15.6053C15.3869 15.712 15.3881 15.8862 15.2029 15.9941ZM20.1111 15.0754C19.9258 15.1833 19.6241 15.1833 19.4376 15.0754C19.2512 14.9674 19.2498 14.7932 19.4352 14.6853C19.6203 14.5773 19.9221 14.5785 20.1086 14.6853C20.2951 14.7932 20.2963 14.9674 20.1111 15.0754ZM16.8712 16.9571C16.6861 17.0651 16.3842 17.0651 16.1978 16.9571C16.0125 16.8504 16.0113 16.675 16.1966 16.5683C16.3818 16.4603 16.6823 16.4603 16.8688 16.5683C17.0552 16.675 17.0564 16.8504 16.8712 16.9571ZM17.7681 13.7222C17.9533 13.6142 18.2537 13.6142 18.4403 13.7222C18.6267 13.8302 18.6279 14.0044 18.4427 14.1122C18.2575 14.2191 17.9557 14.2191 17.7693 14.1122C17.5828 14.0044 17.5828 13.8302 17.7681 13.7222ZM22.6258 10.8984C22.811 10.7916 23.1128 10.7916 23.2993 10.8984C23.4858 11.0063 23.487 11.1804 23.3018 11.2884C23.1165 11.3963 22.8148 11.3963 22.6283 11.2884C22.4419 11.1804 22.4419 11.0063 22.6259 10.8984H22.6258ZM24.9701 12.2514C24.7849 12.3594 24.4831 12.3594 24.2967 12.2514C24.1102 12.1435 24.1089 11.9692 24.2942 11.8614C24.4794 11.7546 24.7811 11.7546 24.9677 11.8614C25.1528 11.9692 25.1553 12.1435 24.9701 12.2514ZM18.4905 16.0162C18.3053 16.1241 18.0047 16.1241 17.8183 16.0162C17.6318 15.9082 17.6306 15.7341 17.8159 15.6261C18.0011 15.5194 18.3029 15.5194 18.4881 15.6261C18.6746 15.7341 18.6758 15.9082 18.4905 16.0162ZM23.3496 13.1923C23.1643 13.3003 22.8638 13.3003 22.6773 13.1923C22.4909 13.0856 22.4897 12.9101 22.6749 12.8035C22.8602 12.6955 23.1607 12.6955 23.3472 12.8035C23.5336 12.9101 23.5348 13.0856 23.3496 13.1923ZM20.9586 9.93534C21.1427 9.82738 21.4444 9.82738 21.631 9.93534C21.8174 10.0433 21.8187 10.2175 21.6334 10.3254C21.4482 10.4321 21.1464 10.4321 20.96 10.3254C20.7735 10.2175 20.7735 10.0433 20.9588 9.93534H20.9586ZM17.7189 11.8184C17.9041 11.7104 18.2047 11.7104 18.3911 11.8184C18.5776 11.9251 18.5789 12.1006 18.3936 12.2072C18.2084 12.3152 17.9066 12.3152 17.7214 12.2072C17.5349 12.1006 17.5337 11.9251 17.719 11.8184H17.7189Z" fill="#C9CEE2"/>
<path d="M15.3776 17.7913L16.101 17.371L16.0973 18.7475L15.374 19.1678L15.3776 17.7913Z" fill="#111D33"/>
<path d="M16.1008 17.3698L15.3775 17.7913L15.3727 19.1678L9.58008 15.8216L9.59578 10.3128L10.4447 10.8031L11.168 10.3829L16.1008 17.3698Z" fill="#111D33"/>
<path d="M16.1008 17.3711L16.0972 18.7477L15.3739 19.1679H15.3727L9.58008 15.8218L9.59578 10.3129L10.3191 9.89272L11.168 10.383L16.1008 17.3698V17.3711Z" fill="#111D33"/>
<path d="M9.5957 10.3129L10.3189 9.89259L11.1679 10.3829L10.4447 10.8031L9.5957 10.3129ZM15.3778 17.7908L16.1011 17.3705L16.0971 18.7472L15.3739 19.1675L15.3778 17.7908Z" fill="#1D2943"/>
<path d="M15.3778 17.7914L15.373 19.1673L9.58008 15.8219L9.59541 10.3133L10.4438 10.8031L15.3778 17.7914Z" fill="#111D33"/>
<path d="M16.1016 17.3701L15.3783 17.7914L10.4443 10.8031L11.1678 10.383L16.1016 17.3701Z" fill="#4C5C75"/>
<path d="M9.93457 15.6178L9.94773 10.9254L10.1995 11.0708L15.0234 17.9032L15.0211 18.5553L9.93457 15.6178Z" fill="#9EA9C9"/>
<path d="M24.8996 23.4431L23.622 22.7064L23.4821 22.6254C23.3055 22.5235 23.0577 22.4929 22.8394 22.5346V22.7848C22.9021 22.7679 22.9669 22.7596 23.032 22.7603C23.1509 22.7603 23.2711 22.786 23.3594 22.8376L23.622 22.9898L24.7769 23.6566C24.8406 23.6922 24.8775 23.7375 24.8775 23.7756C24.8775 23.8136 24.8406 23.8577 24.7793 23.8934L19.632 26.8853C19.4553 26.9871 19.156 26.9871 18.9781 26.8853L17.936 26.2835L17.5607 26.0664C17.4981 26.0295 17.4601 25.9854 17.4601 25.9461C17.4601 25.9082 17.4969 25.864 17.5583 25.8283L17.9361 25.6088V25.3254L17.4356 25.6162C17.2945 25.6983 17.2148 25.8186 17.2148 25.9473C17.2148 26.0761 17.2957 26.1964 17.438 26.2785L17.9361 26.5669L18.8555 27.0975C18.9818 27.1699 19.1438 27.2068 19.3057 27.2068C19.4676 27.2068 19.6296 27.1699 19.7559 27.0975L24.902 24.1055C25.0431 24.0246 25.1228 23.9032 25.1228 23.7756C25.1228 23.6468 25.042 23.5253 24.8996 23.4431Z" fill="white"/>
<path d="M24.9111 24.4218L24.9098 24.9012C24.9098 24.9483 24.8784 24.9954 24.8169 25.0316L20.9418 27.2801C20.8175 27.3513 20.6146 27.3513 20.489 27.2801L19.2163 26.5447C19.1535 26.5084 19.1221 26.4601 19.1221 26.413L19.1233 25.9336C19.1233 25.8865 19.1547 25.8394 19.2163 25.8032L23.0913 23.556C23.2157 23.4823 23.4185 23.4823 23.5441 23.5548L24.8169 24.2902C24.8797 24.3264 24.9111 24.3747 24.9111 24.4218Z" fill="#EF7B56"/>
<path d="M24.817 24.5522L20.942 26.8001C20.8176 26.8722 20.6146 26.8722 20.4895 26.8001L19.217 26.0653C19.1542 26.029 19.1227 25.9811 19.1228 25.9334L19.1221 26.413C19.1219 26.4607 19.1533 26.5087 19.2163 26.5449L20.4888 27.2797C20.6138 27.3518 20.8169 27.3518 20.9411 27.2797L24.8161 25.0318C24.8783 24.9956 24.9094 24.9485 24.9095 24.9012L24.9103 24.4216C24.9102 24.4688 24.8791 24.5161 24.817 24.5522Z" fill="#EF7B56"/>
<path d="M24.8163 24.2898C24.9414 24.3619 24.9421 24.4796 24.8172 24.5522L20.9422 26.8001C20.8178 26.8721 20.6148 26.8721 20.4897 26.8001L19.2172 26.0653C19.0922 25.9932 19.0916 25.8754 19.2157 25.8032L23.0908 23.5555C23.2157 23.4829 23.4189 23.4829 23.5438 23.555L24.8163 24.2898Z" fill="#FFD06C"/>
</svg>
