<svg width="32" height="32" viewBox="0 0 32 32" fill="none" xmlns="http://www.w3.org/2000/svg">
<path d="M1.60568 24.2088L18.2755 14.5214L19.0795 14.9855L2.40967 24.673L1.60568 24.2088Z" fill="#57667C"/>
<path d="M2.90886 22.0232L19.5787 12.3358L19.5688 15.833L2.89896 25.5204L2.90886 22.0232Z" fill="#3B475A"/>
<path d="M1.61401 21.2758L18.2838 11.5884L19.5787 12.3359L2.90887 22.0233L1.61401 21.2758Z" fill="#4C5C75"/>
<path d="M2.90887 22.0232L2.89896 25.5204L1.60411 24.7728L1.60568 24.2088L2.40967 24.6729L2.41643 22.304L1.61244 21.8398L1.61401 21.2758L2.90887 22.0232Z" fill="#1D2943"/>
<path d="M29.0113 17.1693L29.0079 18.3655L11.8003 28.3919L11.8037 27.1957L29.0113 17.1693Z" fill="#111D33"/>
<path d="M11.8037 27.1956L11.8003 28.3918L2.90549 23.2194L2.90887 22.0232L11.8037 27.1956Z" fill="#1D2943"/>
<path d="M28.5211 17.4811L11.8037 27.1957L2.90886 22.0233L19.5966 12.3301L28.5211 17.4811Z" fill="#4C5C75"/>
<path d="M26.94 17.4834L11.8038 26.2791L4.48592 22.0237L19.5979 13.2456L26.94 17.4834Z" fill="white"/>
<path d="M12.293 28.0431L28.9628 18.3557L28.956 20.7248L12.2862 30.4122L12.293 28.0431Z" fill="#57667C"/>
<path d="M11.8036 27.1956L28.4735 17.5082L29.7683 18.2558L13.0985 27.9432L11.8036 27.1956Z" fill="#4C5C75"/>
<path d="M28.956 20.7246L12.2862 30.4122L12.2929 28.0431L13.0968 28.5073L13.0985 27.9432L11.8036 27.1956L11.7937 30.6928L13.0886 31.4403L29.7584 21.7528L29.76 21.1888L28.956 20.7246Z" fill="#111D33"/>
<path d="M12.2862 30.4122L28.956 20.7247L29.76 21.1888L13.0902 30.8762L12.2862 30.4122Z" fill="#4C5C75"/>
<path d="M13.0902 30.8763L29.76 21.1888L29.7584 21.7529L13.0886 31.4403L13.0902 30.8763Z" fill="#111D33"/>
<path d="M29.7687 18.2563L29.7663 18.8203L13.0973 28.5072L12.2931 28.0435L12.2858 30.4127L13.0901 30.8764L13.0888 31.4403L11.7932 30.6929L11.804 27.1958L13.0985 27.9433L29.7687 18.2563Z" fill="#111D33"/>
<path d="M13.0985 27.9433L29.7683 18.2559L29.7666 18.8199L13.0969 28.5073L13.0985 27.9433Z" fill="#111D33"/>
<path d="M13.0985 27.9433L13.0969 28.5073L12.2929 28.0431L12.2862 30.4122L13.0902 30.8763L13.0886 31.4403L11.7937 30.6929L11.8036 27.1957L13.0985 27.9433Z" fill="#1D2943"/>
<path d="M30.3954 5.28603L30.3604 17.9496L28.8123 18.8492L20.6264 14.1229L20.6614 1.45932L22.2095 0.559692L30.3954 5.28603Z" fill="#111D33"/>
<path d="M30.3954 5.28603L30.3604 17.9496L28.8123 18.8492L28.8485 6.18565L20.6614 1.45932L22.2095 0.559692L30.3954 5.28603Z" fill="#111D33"/>
<path d="M28.8482 6.18539L30.3959 5.28601L30.36 17.9498L28.8123 18.8492L28.8482 6.18539Z" fill="#111D33"/>
<path d="M20.6619 1.45907L22.2095 0.559692L30.3959 5.28603L28.8482 6.18541L20.6619 1.45907Z" fill="#4C5C75"/>
<path d="M28.8482 6.18545L28.8123 18.8492L20.626 14.1228L20.6619 1.45911L28.8482 6.18545Z" fill="#1D2943"/>
<path d="M28.473 6.79668L28.3752 17.8011L27.3488 17.8506L19.9731 13.5915L19.9972 3.47109L21.0973 2.53766L28.473 6.79668Z" fill="#111D33"/>
<path d="M27.3729 7.72922L28.4735 6.79639L28.3755 17.8006L27.3489 17.8504L27.3729 7.72922Z" fill="#111D33"/>
<path d="M19.9966 3.47061L21.0973 2.53778L28.4735 6.79644L27.3729 7.72927L19.9966 3.47061Z" fill="#4C5C75"/>
<path d="M27.3729 7.72924L27.3489 17.8504L19.9726 13.5918L19.9966 3.47058L27.3729 7.72924Z" fill="#293A56"/>
<path d="M20.3876 8.80164C20.3794 12.3233 24.2667 16.2035 26.2326 14.5388C26.6834 14.1518 26.9529 13.4855 26.9578 12.5938C26.9627 10.5115 25.4978 7.96867 23.6801 6.92511C22.8962 6.4695 22.176 6.37145 21.6076 6.57734C20.8679 6.83696 20.3926 7.61583 20.3876 8.80164Z" fill="#4C5C75"/>
<path d="M22.0327 7.36955C22.36 7.55853 23.0491 8.235 23.424 9.1176C23.4636 9.20901 23.499 9.26383 23.5467 9.29149C23.5733 9.3067 23.6034 9.31358 23.6404 9.3137C23.4979 8.54293 23.1592 7.81309 22.6756 7.09472L22.7583 7.07129C23.2717 7.16186 23.724 7.40663 24.1304 7.7329C24.419 7.97079 24.6352 8.28536 24.727 8.67081C24.8801 9.32904 24.8682 9.892 24.6295 10.2883L24.6802 10.567C25.1355 10.3431 25.3642 9.85782 25.4693 9.21819L25.562 9.33097C25.9013 9.8949 26.1785 10.4704 26.3318 11.0813C26.4238 11.443 26.3817 11.7392 26.1849 11.8749C25.8331 12.111 25.3991 12.1454 24.8729 11.8653C24.7698 11.8057 24.7181 11.8235 24.7074 11.9597C24.935 12.1647 25.1612 12.3296 25.387 12.46C25.7442 12.6662 26.1007 12.7861 26.4611 12.8416L26.4607 12.9958C26.3186 13.6652 25.8793 14.366 25.2815 14.021C24.9547 13.8322 24.2732 13.144 23.9109 12.2833L23.6946 12.0872C23.8371 12.858 24.1861 13.5937 24.6491 14.3003L24.5561 14.3296C24.0483 14.2265 23.6005 13.9903 23.1942 13.6621C22.9056 13.4242 22.6896 13.0858 22.6081 12.7183C22.4548 12.0719 22.4668 11.5089 22.6953 11.1185C22.7472 11.0297 22.7473 10.9468 22.6135 10.7745C22.458 10.9814 22.2613 11.1291 22.1366 11.354C22.012 11.5907 21.9388 11.8808 21.8348 12.1531L21.7833 12.0758C21.4337 11.518 21.1564 10.9304 21.0032 10.3315C20.9112 9.95793 20.9534 9.66172 21.1501 9.52599C21.502 9.28992 21.9359 9.2555 22.4723 9.52961C22.5756 9.57743 22.617 9.5656 22.638 9.41164C22.3866 9.23751 22.1488 9.0635 21.9135 8.92753C21.8603 8.89672 21.8062 8.8676 21.7512 8.84023C21.4521 8.69133 21.1733 8.62528 20.8946 8.53568L20.8844 8.49414L20.8847 8.41118C20.9686 7.94918 21.1554 7.61782 21.4351 7.37559C21.597 7.24638 21.8029 7.23672 22.0328 7.36955H22.0327ZM23.6559 11.7445L23.6748 11.7554C24.1802 12.0471 24.5941 11.8112 24.5958 11.2186C24.5769 10.6259 24.1656 9.91373 23.6706 9.62791C23.1547 9.3538 22.7512 9.59567 22.7495 10.1882C22.758 10.756 23.1493 11.452 23.6559 11.7445Z" fill="white"/>
<path d="M23.6988 10.1758C23.441 10.027 23.2373 10.1431 23.2363 10.4393C23.2356 10.7265 23.438 11.0772 23.6958 11.226C23.9458 11.3703 24.1496 11.2632 24.1583 10.9714C24.159 10.6752 23.9566 10.3247 23.6988 10.1758Z" fill="white"/>
<path d="M16.2103 25.0149L13.0416 23.1734L13.0385 22.2939L16.2072 24.1354L16.2103 25.0149ZM13.8353 26.3861L6.46701 22.1042L6.46303 20.9192L13.8314 25.2012L13.8353 26.3861Z" fill="#C9CEE2"/>
<path d="M13.8314 25.2011L6.46303 20.9192L9.28132 19.292L16.4721 23.6765L13.8314 25.2011Z" fill="#E3E7F0"/>
<path d="M16.4721 23.6765L16.4761 24.8615L16.2103 25.015L16.2072 24.1354L14.098 25.3532L14.1011 26.2326L13.8353 26.3861L13.8314 25.2012L16.4721 23.6765Z" fill="#9EA9C9"/>
<path d="M23.4891 20.831L20.3204 18.9896L20.3172 18.11L23.4859 19.9515L23.4891 20.831ZM21.1141 22.2023L13.7457 17.9202L13.7418 16.7352L21.1101 21.0173L21.1141 22.2023Z" fill="#C9CEE2"/>
<path d="M21.1101 21.0174L13.7418 16.7353L16.5601 15.1082L23.7509 19.4926L21.1101 21.0174Z" fill="#E3E7F0"/>
<path d="M23.7509 19.4926L23.7549 20.6775L23.4891 20.831L23.4859 19.9515L21.3767 21.1692L21.3799 22.0488L21.1141 22.2023L21.1101 21.0173L23.7509 19.4926Z" fill="#9EA9C9"/>
<path d="M21.1916 18.2919L24.7664 16.2145C24.7485 16.2257 24.7304 16.2365 24.7121 16.2471L21.1371 18.3247C21.1555 18.3141 21.1736 18.3032 21.1916 18.2921V18.2919Z" fill="#8FABFE"/>
<path d="M26.4697 11.2586L26.4528 16.9027L22.8784 18.9797L21.788 18.3493C21.5586 18.2177 21.34 18.1996 21.1818 18.2974C20.4657 18.7418 19.4587 18.6947 18.3465 18.0511C17.2331 17.4086 16.2297 16.2953 15.5172 15.0274C15.3602 14.7472 15.1429 14.5129 14.9134 14.3813L13.823 13.751L13.8387 8.10811L17.4143 6.03113L18.5047 6.66026C18.7245 6.78826 18.9358 6.80879 19.0928 6.72185L19.1556 6.68562C19.868 6.27143 20.857 6.32939 21.9462 6.95973C23.0596 7.60215 24.063 8.7143 24.7743 9.98222C24.9313 10.2636 25.1498 10.4966 25.378 10.6295L26.4697 11.2586Z" fill="#566DF9"/>
<path d="M18.5049 6.66062L17.414 6.03076L13.8392 8.10823L14.9301 8.73808C15.1544 8.86753 15.3687 8.88721 15.5266 8.79544L19.1015 6.71798C18.9435 6.80975 18.7292 6.79007 18.5049 6.66062Z" fill="#748BFD"/>
<path d="M24.7742 9.98238C24.0626 8.71446 23.0596 7.6017 21.9465 6.95904C20.8564 6.32979 19.8684 6.27123 19.1552 6.68566L15.5805 8.76312C17.5128 7.6401 20.0917 10.0861 21.1995 12.0597C21.3569 12.3404 21.5749 12.5743 21.8032 12.7062L25.3781 10.6288C25.1496 10.4969 24.9318 10.2629 24.7743 9.98238H24.7742ZM22.8945 13.3362L26.4692 11.2588L26.4533 16.902L22.8784 18.9795L22.8945 13.3362Z" fill="#8FABFE"/>
<path d="M21.8033 12.7062L25.3782 10.6288L26.4692 11.2588L22.8945 13.3362L21.8033 12.7062Z" fill="#748BFD"/>
<path d="M21.1995 12.0597C21.3569 12.3404 21.5749 12.5743 21.8032 12.7063L22.8945 13.3362L22.8784 18.9795L21.7875 18.3496C21.5591 18.2177 21.3405 18.1994 21.1819 18.2977C20.4654 18.7413 19.4593 18.6941 18.346 18.0513C17.2329 17.4087 16.2292 16.2956 15.5177 15.0274C15.3601 14.7466 15.1424 14.5131 14.9139 14.3811L13.8232 13.7515L13.8392 8.10815L14.9301 8.73801C15.1586 8.86987 15.3769 8.88775 15.5357 8.78993C17.4577 7.5999 20.076 10.0581 21.1995 12.0597Z" fill="#566DF9"/>
<path d="M4.39077 14.449L7.56348 12.6052L7.55273 16.3966L4.38002 18.2404L4.39077 14.449Z" fill="#C9CEE2"/>
<path d="M21.8351 15.6637C21.8327 16.7807 21.4378 17.5668 20.8015 17.9363L9.63647 24.4245C9.64855 24.4172 9.66183 24.41 9.67391 24.4015C9.02787 24.8012 8.1198 24.7578 7.11512 24.1781C5.15889 23.0479 3.577 20.3091 3.58304 18.0595C3.58666 16.9316 3.98878 16.1407 4.63723 15.776C4.62998 15.7796 4.62395 15.7833 4.6167 15.7869L4.6638 15.7603L15.7817 9.29873C16.4265 8.92439 17.3189 8.97753 18.303 9.54628C20.2605 10.6753 21.8412 13.4153 21.8351 15.6637Z" fill="#748BFD"/>
<path d="M18.3033 9.54592C17.3185 8.97729 16.4261 8.92452 15.7819 9.29898L4.61717 15.7871C5.26152 15.4128 6.15378 15.4654 7.13853 16.0341C9.0956 17.164 10.677 19.9031 10.6706 22.1517C10.6675 23.269 10.2731 24.055 9.63695 24.4246L20.8016 17.9364C21.4377 17.5668 21.8321 16.7808 21.8352 15.6636C21.8416 13.4149 20.2602 10.6757 18.3031 9.54592H18.3033Z" fill="#8FABFE"/>
<path d="M9.63685 24.4247C11.0184 23.6218 11.0147 21.0373 9.62861 18.6521C8.24249 16.2669 5.99884 14.9841 4.61726 15.787C3.23569 16.5899 3.23938 19.1743 4.6255 21.5596C6.01162 23.9448 8.25527 25.2275 9.63685 24.4247Z" fill="#748BFD"/>
<path d="M19.7156 10.6985C19.6935 10.7093 19.6709 10.7214 19.6484 10.7347L18.4444 11.4299L17.9902 10.643L19.0238 10.0461C19.2692 10.2473 19.5003 10.4653 19.7155 10.6985H19.7156Z" fill="#8FABFE"/>
<path d="M5.67838 20.599C5.46561 20.1696 5.32638 19.7131 5.28773 19.2802L4.52299 18.8386C4.56453 19.5156 4.78866 20.2388 5.13522 20.908L5.67838 20.599ZM6.91551 22.1C6.5588 21.8484 6.23288 21.4982 5.96783 21.0997L5.42455 21.4086C5.83149 22.0446 6.34627 22.6012 6.91297 22.9788L6.91551 22.1ZM8.28632 19.1128L8.82911 18.803C8.42265 18.1673 7.90739 17.6105 7.3402 17.2332L7.33779 18.1114C7.69522 18.3636 8.02078 18.7135 8.28632 19.1128ZM8.96447 21.403C8.92366 21.79 8.78189 22.0843 8.56816 22.2674L9.10733 23.2014C9.45667 22.9339 9.68405 22.4713 9.72982 21.8448L8.96447 21.403ZM8.81607 23.3668L8.2769 22.4329C8.01003 22.5242 7.68363 22.4977 7.32571 22.3369L7.3233 23.2157C7.89072 23.4927 8.40743 23.532 8.81607 23.3668ZM8.57576 19.613C8.78769 20.0418 8.92728 20.4986 8.9658 20.9315L9.73115 21.3732C9.68912 20.6962 9.46512 19.973 9.11844 19.3038L8.57576 19.613ZM5.28906 18.8088C5.32988 18.4216 5.47128 18.1271 5.68586 17.9445L5.14609 17.0104C4.79687 17.2777 4.56949 17.7403 4.5242 18.3672L5.28906 18.8088ZM5.43747 16.8449L5.97712 17.7796C6.24363 17.6876 6.57039 17.7141 6.92734 17.8746L6.92976 16.9963C6.36281 16.7189 5.84659 16.6801 5.43747 16.8449Z" fill="#1D2943"/>
<path d="M12.5394 12.1438L12.5285 15.2411L8.77911 17.4207V16.9824L7.23586 16.0912L7.04507 15.9813L4.39088 14.449L4.38726 15.9487C3.93564 16.3231 3.64583 16.9486 3.59269 17.7854L2.64839 17.2408L2.67013 10.7901L6.42077 8.61047L12.5394 12.1438Z" fill="#B0B8CF"/>
<path d="M8.78974 14.3229L12.5398 12.1437L12.529 15.2415L8.77899 17.4208L8.78974 14.3229Z" fill="#C9CEE2"/>
<path d="M2.67036 10.7899L6.4204 8.6106L12.5398 12.1436L8.78973 14.3229L2.67036 10.7899Z" fill="#E3E7F0"/>
<path d="M8.78962 14.323L8.77875 16.9826L4.39089 14.4491L4.38666 15.9486C3.93528 16.3224 3.64595 16.9488 3.59282 17.7857L2.64888 17.2409L2.67025 10.79L8.78962 14.323Z" fill="#B0B8CF"/>
<path d="M8.77874 16.9825V17.444C8.4329 17.0024 7.93056 16.5823 7.36398 16.171L8.77874 16.9825Z" fill="#B0B8CF"/>
<path d="M14.3358 22.9857L14.8319 22.6973L14.8325 22.2448L14.3364 22.5331L14.3358 22.9857Z" fill="#9EA9C9"/>
<path d="M14.3364 22.533L14.8325 22.2447L13.7285 20.1982L13.2323 20.4866L14.3364 22.533Z" fill="#F8F9FE"/>
<path d="M13.2323 20.4867L13.2277 22.107L14.3358 22.7469L14.3364 22.5331L13.2323 20.4867Z" fill="#C9CEE2"/>
<path d="M11.6118 23.0332L11.6125 23.246L12.5369 23.7832L12.5363 23.5704L11.6118 23.0332Z" fill="#892E3F"/>
<path d="M12.5363 23.5704L12.5369 24.0222L14.3416 22.9803L14.3408 22.5286L12.5363 23.5704Z" fill="#9EA9C9"/>
<path d="M11.4276 22.9263L12.5363 23.5705L14.3408 22.5286L13.2323 21.8843L11.4276 22.9263Z" fill="#E3E7F0"/>
<path d="M12.174 24.2337L12.6702 23.9454L12.6708 23.4927L12.1746 23.781L12.174 24.2337Z" fill="#9EA9C9"/>
<path d="M12.1746 23.7811L12.6708 23.4927L11.5529 21.4379L11.0567 21.7262L12.1746 23.7811Z" fill="white"/>
<path d="M11.0567 21.7262L11.0658 23.594L12.174 24.2338L12.1746 23.7811L11.0567 21.7262Z" fill="#C9CEE2"/>
<path d="M21.5751 18.779L22.0712 18.4907L22.0718 18.0381L21.5756 18.3263L21.5751 18.779Z" fill="#9EA9C9"/>
<path d="M21.5756 18.3264L22.0718 18.0381L20.9677 15.9917L20.4715 16.2799L21.5756 18.3264Z" fill="white"/>
<path d="M20.4716 16.2799L20.467 17.9003L21.5751 18.5402L21.5756 18.3263L20.4716 16.2799Z" fill="#C9CEE2"/>
<path d="M18.851 18.8267L18.8517 19.0394L19.7761 19.5767L19.7755 19.3639L18.851 18.8267Z" fill="#892E3F"/>
<path d="M19.7755 19.3639L19.7761 19.8156L21.5808 18.7738L21.5801 18.322L19.7755 19.3639Z" fill="#9EA9C9"/>
<path d="M18.6669 18.7196L19.7755 19.3638L21.5801 18.322L20.4715 17.6776L18.6669 18.7196Z" fill="#E3E7F0"/>
<path d="M19.4096 20.0293L19.9094 19.7388L19.91 19.2861L19.4139 19.5745L19.4096 20.0293Z" fill="#9EA9C9"/>
<path d="M19.4139 19.5744L19.91 19.2861L18.7921 17.2312L18.2959 17.5196L19.4139 19.5744Z" fill="white"/>
<path d="M18.2959 17.5195L18.3051 19.3872L19.4096 20.0292L19.4139 19.5744L18.2959 17.5195Z" fill="#C9CEE2"/>
<path d="M21.268 13.1109C21.024 12.5387 20.7187 11.9946 20.3573 11.4882L20.3568 11.1347C20.3562 10.8871 20.2892 10.7012 20.1781 10.6372C20.0768 10.5788 19.9071 10.602 19.7156 10.6985C19.6935 10.7094 19.6709 10.7214 19.6484 10.7347L18.4444 11.4299L17.9902 10.6431L19.0238 10.0462L19.1941 9.94777C19.7042 9.65349 20.228 9.61763 20.6312 9.84948C21.0327 10.0805 21.2639 10.5479 21.2654 11.1319L21.268 13.1109Z" fill="#1D2943"/>
<path d="M19.4128 11.4808C19.4116 11.7669 19.3113 11.9674 19.1483 12.0628L16.6608 13.5082C16.6728 13.501 16.6837 13.4925 16.6946 13.4841C16.5279 13.6036 16.2852 13.6 16.0159 13.4442C15.5136 13.1556 15.1091 12.4528 15.1103 11.8768C15.1115 11.5906 15.2129 11.389 15.3771 11.2948L15.3784 11.2936H15.3796L17.8623 9.85057C18.0277 9.75396 18.2559 9.76725 18.5083 9.91336C19.0094 10.2032 19.414 10.9048 19.4128 11.4808Z" fill="#AA6256"/>
<path d="M19.4128 11.4805C19.4118 11.7667 19.311 11.968 19.1478 12.0627L16.6613 13.5077C16.8243 13.4131 16.9251 13.2115 16.9262 12.9257C16.9276 12.3492 16.5226 11.648 16.0215 11.3586C15.7691 11.2127 15.5405 11.1994 15.3756 11.2952L17.8623 9.85008C18.0271 9.75421 18.2557 9.76761 18.5081 9.91336C19.0092 10.2028 19.4142 10.9045 19.4128 11.4805Z" fill="#DBA660"/>
<path d="M16.6612 13.5076C17.0151 13.302 17.0142 12.6399 16.6591 12.0289C16.3041 11.418 15.7293 11.0894 15.3754 11.2951C15.0215 11.5007 15.0224 12.1628 15.3774 12.7738C15.7325 13.3847 16.3072 13.7133 16.6612 13.5076Z" fill="#BF7D5A"/>
<path d="M16.6705 12.778C16.6695 13.192 16.3765 13.3588 16.0162 13.1509C15.8663 13.0642 15.7284 12.9263 15.6187 12.7651C15.4643 12.539 15.3653 12.2666 15.3662 12.0249C15.3674 11.611 15.6603 11.444 16.0204 11.6519C16.204 11.7581 16.3697 11.9408 16.488 12.1496C16.6015 12.3503 16.6712 12.575 16.6705 12.778Z" fill="#AA6256"/>
<path d="M16.6705 12.7781C16.6695 13.192 16.3765 13.3589 16.0162 13.151C15.8663 13.0643 15.7284 12.9264 15.6187 12.7651L16.488 12.1497C16.6015 12.3504 16.6712 12.5751 16.6705 12.7781Z" fill="#DBA660"/>
<path d="M17.8481 9.31655C17.5291 9.17913 17.223 9.09846 16.9361 9.07057C16.9211 8.86867 16.8576 8.71954 16.7605 8.66387C16.6472 8.59866 16.4494 8.63537 16.2308 8.76156L15.027 9.45674L14.5727 8.67003L15.7766 7.97472C16.2865 7.68008 16.8104 7.64434 17.2136 7.87643C17.6151 8.10743 17.8461 8.57487 17.8479 9.15884L17.8481 9.31655Z" fill="#1D2943"/>
<path d="M15.9954 9.50761C15.9942 9.7938 15.894 9.99546 15.7297 10.0896L13.2543 11.5278L13.2434 11.5351C13.2458 11.5339 13.2494 11.5315 13.2519 11.529C13.0852 11.6305 12.8534 11.6196 12.5974 11.4711C12.0962 11.1813 11.6917 10.4797 11.6929 9.90369C11.6941 9.61629 11.7956 9.41584 11.9586 9.32165L14.4449 7.87742C14.6091 7.78082 14.8386 7.7941 15.091 7.94021C15.5921 8.23002 15.9966 8.93161 15.9954 9.50761Z" fill="#AA6256"/>
<path d="M15.9952 9.50744C15.9942 9.79363 15.8934 9.99493 15.7304 10.0896L13.2437 11.5347C13.4067 11.44 13.5075 11.2385 13.5086 10.9526C13.51 10.3761 13.105 9.67493 12.6039 9.38548C12.3515 9.23961 12.1229 9.22632 11.9581 9.32208L14.4447 7.87689C14.6096 7.78113 14.8382 7.79441 15.0906 7.94016C15.5917 8.22961 15.9967 8.93132 15.9953 9.50732L15.9952 9.50744Z" fill="#DBA660"/>
<path d="M13.2437 11.5345C13.5976 11.3288 13.5967 10.6668 13.2416 10.0558C12.8866 9.44482 12.3118 9.11625 11.9579 9.32193C11.604 9.5276 11.6049 10.1896 11.96 10.8006C12.315 11.4116 12.8898 11.7402 13.2437 11.5345Z" fill="#BF7D5A"/>
<path d="M13.2529 10.8049C13.252 11.2188 12.9589 11.3857 12.5986 11.1778C12.4488 11.0911 12.3109 10.9532 12.2011 10.792C12.0467 10.5659 11.9477 10.2935 11.9487 10.0517C11.9499 9.6379 12.2428 9.4709 12.6029 9.67872C12.7865 9.78498 12.9523 9.96768 13.0702 10.1766C13.1838 10.3772 13.2536 10.6019 13.2529 10.8049Z" fill="#AA6256"/>
<path d="M13.2529 10.8049C13.252 11.2189 12.9589 11.3858 12.5986 11.1778C12.4488 11.0911 12.3109 10.9532 12.201 10.792L13.0704 10.1766C13.1839 10.3772 13.2535 10.6019 13.2529 10.8049Z" fill="#DBA660"/>
</svg>
