<svg width="32" height="32" viewBox="0 0 32 32" fill="none" xmlns="http://www.w3.org/2000/svg">
<path d="M1.60547 24.2088L18.2753 14.5214L19.0793 14.9855L2.40945 24.673L1.60547 24.2088Z" fill="#57667C"/>
<path d="M2.90883 22.0232L19.5787 12.3358L19.5688 15.833L2.89893 25.5204L2.90883 22.0232Z" fill="#3B475A"/>
<path d="M1.61377 21.2758L18.2836 11.5884L19.5784 12.3359L2.90862 22.0233L1.61377 21.2758Z" fill="#4C5C75"/>
<path d="M2.90876 22.0232L2.89886 25.5204L1.604 24.7728L1.60557 24.2088L2.40956 24.6729L2.41632 22.304L1.61234 21.8398L1.61391 21.2758L2.90876 22.0232Z" fill="#1D2943"/>
<path d="M29.0113 17.1693L29.008 18.3655L11.8003 28.3919L11.8037 27.1957L29.0113 17.1693Z" fill="#111D33"/>
<path d="M11.8034 27.1956L11.8001 28.3918L2.90527 23.2194L2.90865 22.0232L11.8034 27.1956Z" fill="#1D2943"/>
<path d="M28.5209 17.4811L11.8035 27.1957L2.90869 22.0233L19.5964 12.3301L28.5209 17.4811Z" fill="#4C5C75"/>
<path d="M26.9399 17.4834L11.8037 26.2791L4.48584 22.0237L19.5978 13.2456L26.9399 17.4834Z" fill="white"/>
<path d="M12.2929 28.0431L28.9627 18.3557L28.956 20.7248L12.2861 30.4122L12.2929 28.0431Z" fill="#57667C"/>
<path d="M11.8037 27.1956L28.4735 17.5082L29.7684 18.2558L13.0986 27.9432L11.8037 27.1956Z" fill="#4C5C75"/>
<path d="M28.9562 20.7246L12.2864 30.4122L12.2931 28.0431L13.097 28.5073L13.0987 27.9432L11.8038 27.1956L11.7939 30.6928L13.0888 31.4403L29.7586 21.7528L29.7602 21.1888L28.9562 20.7246Z" fill="#111D33"/>
<path d="M12.2861 30.4122L28.956 20.7247L29.7599 21.1888L13.0901 30.8762L12.2861 30.4122Z" fill="#4C5C75"/>
<path d="M13.0899 30.8763L29.7598 21.1888L29.7582 21.7529L13.0884 31.4403L13.0899 30.8763Z" fill="#111D33"/>
<path d="M29.7685 18.2563L29.7661 18.8203L13.0971 28.5072L12.2929 28.0435L12.2856 30.4127L13.0899 30.8764L13.0887 31.4403L11.793 30.6929L11.8038 27.1958L13.0983 27.9433L29.7685 18.2563Z" fill="#111D33"/>
<path d="M13.0987 27.9433L29.7686 18.2559L29.7669 18.8199L13.0972 28.5073L13.0987 27.9433Z" fill="#111D33"/>
<path d="M13.0987 27.9433L13.0971 28.5073L12.2931 28.0431L12.2864 30.4122L13.0904 30.8763L13.0888 31.4403L11.7939 30.6929L11.8038 27.1957L13.0987 27.9433Z" fill="#1D2943"/>
<path d="M30.3955 5.28603L30.3605 17.9496L28.8124 18.8492L20.6265 14.1229L20.6615 1.45932L22.2096 0.559692L30.3955 5.28603Z" fill="#111D33"/>
<path d="M30.3952 5.28603L30.3602 17.9496L28.8121 18.8492L28.8483 6.18565L20.6611 1.45932L22.2092 0.559692L30.3952 5.28603Z" fill="#111D33"/>
<path d="M28.8484 6.18539L30.3961 5.28601L30.3602 17.9498L28.8125 18.8492L28.8484 6.18539Z" fill="#111D33"/>
<path d="M20.6616 1.45907L22.2092 0.559692L30.3957 5.28603L28.8479 6.18541L20.6616 1.45907Z" fill="#4C5C75"/>
<path d="M28.8482 6.18545L28.8123 18.8492L20.626 14.1228L20.6618 1.45911L28.8482 6.18545Z" fill="#1D2943"/>
<path d="M28.4731 6.79668L28.3753 17.8011L27.3488 17.8506L19.9731 13.5915L19.9973 3.47109L21.0974 2.53766L28.4731 6.79668Z" fill="#111D33"/>
<path d="M27.3732 7.72922L28.4737 6.79639L28.3758 17.8006L27.3491 17.8504L27.3732 7.72922Z" fill="#111D33"/>
<path d="M19.9966 3.47061L21.0973 2.53778L28.4734 6.79644L27.3729 7.72927L19.9966 3.47061Z" fill="#4C5C75"/>
<path d="M27.373 7.72924L27.349 17.8504L19.9727 13.5918L19.9967 3.47058L27.373 7.72924Z" fill="#293A56"/>
<path d="M20.3877 8.80164C20.3795 12.3233 24.2668 16.2035 26.2327 14.5388C26.6835 14.1518 26.953 13.4855 26.9579 12.5938C26.9628 10.5115 25.4979 7.96867 23.6802 6.92511C22.8963 6.4695 22.1761 6.37145 21.6077 6.57734C20.8679 6.83696 20.3927 7.61583 20.3877 8.80164Z" fill="#4C5C75"/>
<path d="M22.0325 7.36955C22.3599 7.55853 23.0489 8.235 23.4239 9.1176C23.4635 9.20901 23.4989 9.26383 23.5466 9.29149C23.5731 9.3067 23.6033 9.31358 23.6403 9.3137C23.4978 8.54293 23.1591 7.81309 22.6754 7.09472L22.7581 7.07129C23.2716 7.16186 23.7238 7.40663 24.1303 7.7329C24.4189 7.97079 24.635 8.28536 24.7268 8.67081C24.8799 9.32904 24.8681 9.892 24.6294 10.2883L24.6801 10.567C25.1353 10.3431 25.364 9.85782 25.4692 9.21819L25.5618 9.33097C25.9012 9.8949 26.1784 10.4704 26.3316 11.0813C26.4237 11.443 26.3815 11.7392 26.1848 11.8749C25.8329 12.111 25.3989 12.1454 24.8728 11.8653C24.7697 11.8057 24.718 11.8235 24.7073 11.9597C24.9349 12.1647 25.161 12.3296 25.3869 12.46C25.744 12.6662 26.1005 12.7861 26.461 12.8416L26.4606 12.9958C26.3185 13.6652 25.8792 14.366 25.2813 14.021C24.9546 13.8322 24.273 13.144 23.9108 12.2833L23.6945 12.0872C23.837 12.858 24.186 13.5937 24.6489 14.3003L24.5559 14.3296C24.0482 14.2265 23.6004 13.9903 23.1941 13.6621C22.9055 13.4242 22.6894 13.0858 22.6079 12.7183C22.4547 12.0719 22.4666 11.5089 22.6951 11.1185C22.747 11.0297 22.7472 10.9468 22.6134 10.7745C22.4578 10.9814 22.2611 11.1291 22.1365 11.354C22.0119 11.5907 21.9387 11.8808 21.8346 12.1531L21.7832 12.0758C21.4336 11.518 21.1562 10.9304 21.0031 10.3315C20.9111 9.95793 20.9532 9.66172 21.1499 9.52599C21.5018 9.28992 21.9358 9.2555 22.4722 9.52961C22.5754 9.57743 22.6169 9.5656 22.6379 9.41164C22.3865 9.23751 22.1487 9.0635 21.9133 8.92753C21.8602 8.89672 21.8061 8.8676 21.7511 8.84023C21.4519 8.69133 21.1731 8.62528 20.8944 8.53568L20.8843 8.49414L20.8845 8.41118C20.9684 7.94918 21.1553 7.61782 21.4349 7.37559C21.5969 7.24638 21.8027 7.23672 22.0327 7.36955H22.0325ZM23.6557 11.7445L23.6747 11.7554C24.18 12.0471 24.594 11.8112 24.5957 11.2186C24.5767 10.6259 24.1654 9.91373 23.6705 9.62791C23.1546 9.3538 22.751 9.59567 22.7493 10.1882C22.7579 10.756 23.1492 11.452 23.6557 11.7445Z" fill="white"/>
<path d="M23.6988 10.1758C23.441 10.027 23.2373 10.1431 23.2363 10.4393C23.2356 10.7265 23.438 11.0772 23.6958 11.226C23.9458 11.3703 24.1496 11.2632 24.1583 10.9714C24.159 10.6752 23.9566 10.3247 23.6988 10.1758Z" fill="white"/>
<path d="M16.2102 25.0149L13.0415 23.1734L13.0383 22.2939L16.2071 24.1354L16.2102 25.0149ZM13.8352 26.3861L6.46688 22.1042L6.46289 20.9192L13.8312 25.2012L13.8352 26.3861Z" fill="#C9CEE2"/>
<path d="M13.8312 25.2011L6.46289 20.9192L9.28119 19.292L16.472 23.6765L13.8312 25.2011Z" fill="#E3E7F0"/>
<path d="M16.4723 23.6765L16.4763 24.8615L16.2105 25.015L16.2074 24.1354L14.0982 25.3532L14.1013 26.2326L13.8355 26.3861L13.8315 25.2012L16.4723 23.6765Z" fill="#9EA9C9"/>
<path d="M23.489 20.831L20.3203 18.9896L20.3172 18.11L23.4859 19.9515L23.489 20.831ZM21.114 22.2023L13.7457 17.9202L13.7417 16.7352L21.11 21.0173L21.114 22.2023Z" fill="#C9CEE2"/>
<path d="M21.11 21.0174L13.7417 16.7353L16.56 15.1082L23.7508 19.4926L21.11 21.0174Z" fill="#E3E7F0"/>
<path d="M23.7506 19.4926L23.7546 20.6775L23.4889 20.831L23.4857 19.9515L21.3765 21.1692L21.3796 22.0488L21.1138 22.2023L21.1099 21.0173L23.7506 19.4926Z" fill="#9EA9C9"/>
<path d="M21.1917 18.2919L24.7665 16.2145C24.7486 16.2257 24.7304 16.2365 24.7121 16.2471L21.1372 18.3247C21.1555 18.3141 21.1737 18.3032 21.1917 18.2921V18.2919Z" fill="#8FABFE"/>
<path d="M26.4699 11.2586L26.453 16.9027L22.8786 18.9797L21.7882 18.3493C21.5588 18.2177 21.3402 18.1996 21.182 18.2974C20.466 18.7418 19.4589 18.6947 18.3467 18.0511C17.2334 17.4086 16.2299 16.2953 15.5174 15.0274C15.3604 14.7472 15.1431 14.5129 14.9137 14.3813L13.8232 13.751L13.8389 8.10811L17.4145 6.03113L18.5049 6.66026C18.7247 6.78826 18.936 6.80879 19.093 6.72185L19.1558 6.68562C19.8682 6.27143 20.8572 6.32939 21.9464 6.95973C23.0598 7.60215 24.0632 8.7143 24.7745 9.98222C24.9315 10.2636 25.15 10.4966 25.3783 10.6295L26.4699 11.2586Z" fill="#566DF9"/>
<path d="M18.5051 6.66062L17.4142 6.03076L13.8394 8.10823L14.9303 8.73808C15.1545 8.86753 15.3688 8.88721 15.5268 8.79544L19.1016 6.71798C18.9437 6.80975 18.7293 6.79007 18.5051 6.66062Z" fill="#748BFD"/>
<path d="M24.7742 9.98238C24.0626 8.71446 23.0596 7.6017 21.9465 6.95904C20.8565 6.32979 19.8684 6.27123 19.1553 6.68566L15.5806 8.76312C17.5129 7.6401 20.0917 10.0861 21.1995 12.0597C21.357 12.3404 21.575 12.5743 21.8033 12.7062L25.3781 10.6288C25.1497 10.4969 24.9318 10.2629 24.7743 9.98238H24.7742ZM22.8946 13.3362L26.4693 11.2588L26.4533 16.902L22.8785 18.9795L22.8946 13.3362Z" fill="#8FABFE"/>
<path d="M21.8032 12.7062L25.378 10.6288L26.4691 11.2588L22.8944 13.3362L21.8032 12.7062Z" fill="#748BFD"/>
<path d="M21.1995 12.0597C21.357 12.3404 21.575 12.5743 21.8033 12.7063L22.8946 13.3362L22.8785 18.9795L21.7876 18.3496C21.5592 18.2177 21.3406 18.1994 21.182 18.2977C20.4655 18.7413 19.4593 18.6941 18.3461 18.0513C17.233 17.4087 16.2293 16.2956 15.5178 15.0274C15.3602 14.7466 15.1425 14.5131 14.914 14.3811L13.8232 13.7515L13.8393 8.10815L14.9302 8.73801C15.1587 8.86987 15.377 8.88775 15.5358 8.78993C17.4578 7.5999 20.076 10.0581 21.1995 12.0597Z" fill="#566DF9"/>
<path d="M4.39063 14.449L7.56334 12.6052L7.55259 16.3966L4.37988 18.2404L4.39063 14.449Z" fill="#C9CEE2"/>
<path d="M21.8351 15.6637C21.8327 16.7807 21.4378 17.5668 20.8014 17.9363L9.63646 24.4245C9.64853 24.4172 9.66182 24.41 9.67389 24.4015C9.02785 24.8012 8.11978 24.7578 7.1151 24.1781C5.15887 23.0479 3.57699 20.3091 3.58303 18.0595C3.58665 16.9316 3.98876 16.1407 4.63721 15.776C4.62997 15.7796 4.62393 15.7833 4.61669 15.7869L4.66378 15.7603L15.7817 9.29873C16.4265 8.92439 17.3189 8.97753 18.303 9.54628C20.2605 10.6753 21.8411 13.4153 21.8351 15.6637Z" fill="#748BFD"/>
<path d="M18.3033 9.54592C17.3185 8.97729 16.4262 8.92452 15.7819 9.29898L4.61719 15.7871C5.26153 15.4128 6.15379 15.4654 7.13855 16.0341C9.09562 17.164 10.677 19.9031 10.6706 22.1517C10.6675 23.269 10.2731 24.055 9.63696 24.4246L20.8016 17.9364C21.4377 17.5668 21.8321 16.7808 21.8352 15.6636C21.8416 13.4149 20.2602 10.6757 18.3032 9.54592H18.3033Z" fill="#8FABFE"/>
<path d="M9.63686 24.4247C11.0184 23.6218 11.0147 21.0373 9.62863 18.6521C8.24251 16.2669 5.99885 14.9841 4.61728 15.787C3.23571 16.5899 3.23939 19.1743 4.62551 21.5596C6.01163 23.9448 8.25529 25.2275 9.63686 24.4247Z" fill="#748BFD"/>
<path d="M19.7157 10.6985C19.6936 10.7093 19.671 10.7214 19.6484 10.7347L18.4445 11.4299L17.9902 10.643L19.0239 10.0461C19.2693 10.2473 19.5004 10.4653 19.7156 10.6985H19.7157Z" fill="#8FABFE"/>
<path d="M5.67833 20.599C5.46556 20.1696 5.32633 19.7131 5.28769 19.2802L4.52295 18.8386C4.56449 19.5156 4.78861 20.2388 5.13518 20.908L5.67833 20.599ZM6.91546 22.1C6.55875 21.8484 6.23284 21.4982 5.96778 21.0997L5.4245 21.4086C5.83145 22.0446 6.34622 22.6012 6.91293 22.9788L6.91546 22.1ZM8.28627 19.1128L8.82906 18.803C8.4226 18.1673 7.90734 17.6105 7.34016 17.2332L7.33774 18.1114C7.69518 18.3636 8.02073 18.7135 8.28627 19.1128ZM8.96443 21.403C8.92361 21.79 8.78185 22.0843 8.56811 22.2674L9.10728 23.2014C9.45662 22.9339 9.68401 22.4713 9.72977 21.8448L8.96443 21.403ZM8.81602 23.3668L8.27685 22.4329C8.00998 22.5242 7.68358 22.4977 7.32567 22.3369L7.32325 23.2157C7.89068 23.4927 8.40739 23.532 8.81602 23.3668ZM8.57572 19.613C8.78764 20.0418 8.92724 20.4986 8.96576 20.9315L9.7311 21.3732C9.68908 20.6962 9.46508 19.973 9.11839 19.3038L8.57572 19.613ZM5.28902 18.8088C5.32983 18.4216 5.47124 18.1271 5.68582 17.9445L5.14604 17.0104C4.79682 17.2777 4.56944 17.7403 4.52416 18.3672L5.28902 18.8088ZM5.43742 16.8449L5.97708 17.7796C6.24358 17.6876 6.57035 17.7141 6.9273 17.8746L6.92971 16.9963C6.36277 16.7189 5.84654 16.6801 5.43742 16.8449Z" fill="#1D2943"/>
<path d="M12.5395 12.1438L12.5286 15.2411L8.77915 17.4207V16.9824L7.23591 16.0912L7.04512 15.9813L4.39093 14.449L4.38731 15.9487C3.93568 16.3231 3.64587 16.9486 3.59274 17.7854L2.64844 17.2408L2.67017 10.7901L6.42081 8.61047L12.5395 12.1438Z" fill="#B0B8CF"/>
<path d="M8.78956 14.3229L12.5396 12.1437L12.5288 15.2415L8.77881 17.4208L8.78956 14.3229Z" fill="#C9CEE2"/>
<path d="M2.67041 10.7899L6.42045 8.6106L12.5398 12.1436L8.78978 14.3229L2.67041 10.7899Z" fill="#E3E7F0"/>
<path d="M8.78967 14.323L8.7788 16.9826L4.39093 14.4491L4.38671 15.9486C3.93533 16.3224 3.646 16.9488 3.59287 17.7857L2.64893 17.2409L2.6703 10.79L8.78967 14.323Z" fill="#B0B8CF"/>
<path d="M8.77853 16.9825V17.444C8.43269 17.0024 7.93035 16.5823 7.36377 16.171L8.77853 16.9825Z" fill="#B0B8CF"/>
<path d="M14.3359 22.9857L14.8321 22.6973L14.8327 22.2448L14.3365 22.5331L14.3359 22.9857Z" fill="#9EA9C9"/>
<path d="M14.3365 22.533L14.8327 22.2447L13.7286 20.1982L13.2324 20.4866L14.3365 22.533Z" fill="#F8F9FE"/>
<path d="M13.2321 20.4867L13.2275 22.107L14.3356 22.7469L14.3362 22.5331L13.2321 20.4867Z" fill="#C9CEE2"/>
<path d="M11.6118 23.0332L11.6125 23.246L12.5369 23.7832L12.5363 23.5704L11.6118 23.0332Z" fill="#892E3F"/>
<path d="M12.5361 23.5704L12.5367 24.0222L14.3414 22.9803L14.3407 22.5286L12.5361 23.5704Z" fill="#9EA9C9"/>
<path d="M11.4277 22.9263L12.5364 23.5705L14.3409 22.5286L13.2324 21.8843L11.4277 22.9263Z" fill="#E3E7F0"/>
<path d="M12.1738 24.2337L12.67 23.9454L12.6706 23.4927L12.1744 23.781L12.1738 24.2337Z" fill="#9EA9C9"/>
<path d="M12.1746 23.7811L12.6708 23.4927L11.5528 21.4379L11.0566 21.7262L12.1746 23.7811Z" fill="white"/>
<path d="M11.0566 21.7262L11.0658 23.594L12.174 24.2338L12.1746 23.7811L11.0566 21.7262Z" fill="#C9CEE2"/>
<path d="M21.5752 18.779L22.0713 18.4907L22.0719 18.0381L21.5757 18.3263L21.5752 18.779Z" fill="#9EA9C9"/>
<path d="M21.5757 18.3264L22.0719 18.0381L20.9679 15.9917L20.4717 16.2799L21.5757 18.3264Z" fill="white"/>
<path d="M20.4714 16.2799L20.4668 17.9003L21.575 18.5402L21.5754 18.3263L20.4714 16.2799Z" fill="#C9CEE2"/>
<path d="M18.8511 18.8267L18.8518 19.0394L19.7762 19.5767L19.7756 19.3639L18.8511 18.8267Z" fill="#892E3F"/>
<path d="M19.7754 19.3639L19.776 19.8156L21.5807 18.7738L21.5799 18.322L19.7754 19.3639Z" fill="#9EA9C9"/>
<path d="M18.667 18.7196L19.7756 19.3638L21.5802 18.322L20.4717 17.6776L18.667 18.7196Z" fill="#E3E7F0"/>
<path d="M19.4097 20.0293L19.9095 19.7388L19.9101 19.2861L19.4139 19.5745L19.4097 20.0293Z" fill="#9EA9C9"/>
<path d="M19.4138 19.5744L19.91 19.2861L18.7921 17.2312L18.2959 17.5196L19.4138 19.5744Z" fill="white"/>
<path d="M18.2959 17.5195L18.3051 19.3872L19.4096 20.0292L19.4138 19.5744L18.2959 17.5195Z" fill="#C9CEE2"/>
<path d="M21.2681 13.1109C21.0241 12.5387 20.7187 11.9946 20.3574 11.4882L20.3569 11.1347C20.3563 10.8871 20.2893 10.7012 20.1782 10.6372C20.0769 10.5788 19.9072 10.602 19.7157 10.6985C19.6936 10.7094 19.671 10.7214 19.6484 10.7347L18.4445 11.4299L17.9902 10.6431L19.0239 10.0462L19.1942 9.94777C19.7042 9.65349 20.2281 9.61763 20.6313 9.84948C21.0328 10.0805 21.264 10.5479 21.2655 11.1319L21.2681 13.1109Z" fill="#1D2943"/>
<path d="M19.4128 11.4808C19.4116 11.7669 19.3114 11.9674 19.1484 12.0628L16.6608 13.5082C16.6729 13.501 16.6838 13.4925 16.6947 13.4841C16.528 13.6036 16.2853 13.6 16.016 13.4442C15.5137 13.1556 15.1091 12.4528 15.1104 11.8768C15.1116 11.5906 15.213 11.389 15.3772 11.2948L15.3784 11.2936H15.3796L17.8624 9.85057C18.0278 9.75396 18.256 9.76725 18.5084 9.91336C19.0095 10.2032 19.4141 10.9048 19.4128 11.4808Z" fill="#AA6256"/>
<path d="M19.4127 11.4805C19.4117 11.7667 19.3109 11.968 19.1477 12.0627L16.6612 13.5077C16.8242 13.4131 16.925 13.2115 16.9261 12.9257C16.9275 12.3492 16.5225 11.648 16.0214 11.3586C15.769 11.2127 15.5404 11.1994 15.3755 11.2952L17.8622 9.85008C18.027 9.75421 18.2556 9.76761 18.508 9.91336C19.0091 10.2028 19.4141 10.9045 19.4127 11.4805Z" fill="#DBA660"/>
<path d="M16.661 13.5076C17.0149 13.302 17.014 12.6399 16.6589 12.0289C16.3039 11.418 15.7291 11.0894 15.3752 11.2951C15.0213 11.5007 15.0222 12.1628 15.3773 12.7738C15.7323 13.3847 16.3071 13.7133 16.661 13.5076Z" fill="#BF7D5A"/>
<path d="M16.6706 12.778C16.6695 13.192 16.3766 13.3588 16.0162 13.1509C15.8664 13.0642 15.7285 12.9263 15.6187 12.7651C15.4644 12.539 15.3654 12.2666 15.3662 12.0249C15.3674 11.611 15.6604 11.444 16.0205 11.6519C16.204 11.7581 16.3698 11.9408 16.488 12.1496C16.6015 12.3503 16.6712 12.575 16.6706 12.778Z" fill="#AA6256"/>
<path d="M16.6705 12.7781C16.6695 13.192 16.3765 13.3589 16.0162 13.151C15.8663 13.0643 15.7284 12.9264 15.6187 12.7651L16.488 12.1497C16.6015 12.3504 16.6712 12.5751 16.6705 12.7781Z" fill="#DBA660"/>
<path d="M17.8482 9.31655C17.5292 9.17913 17.2231 9.09846 16.9362 9.07057C16.9212 8.86867 16.8577 8.71954 16.7606 8.66387C16.6473 8.59866 16.4495 8.63537 16.2308 8.76156L15.027 9.45674L14.5728 8.67003L15.7767 7.97472C16.2866 7.68008 16.8105 7.64434 17.2137 7.87643C17.6152 8.10743 17.8462 8.57487 17.848 9.15884L17.8482 9.31655Z" fill="#1D2943"/>
<path d="M15.9954 9.50761C15.9942 9.7938 15.8939 9.99546 15.7297 10.0896L13.2542 11.5278L13.2434 11.5351C13.2458 11.5339 13.2494 11.5315 13.2518 11.529C13.0852 11.6305 12.8533 11.6196 12.5973 11.4711C12.0962 11.1813 11.6917 10.4797 11.6929 9.90369C11.6941 9.61629 11.7955 9.41584 11.9585 9.32165L14.4449 7.87742C14.6091 7.78082 14.8385 7.7941 15.0909 7.94021C15.592 8.23002 15.9966 8.93161 15.9954 9.50761Z" fill="#AA6256"/>
<path d="M15.9951 9.50744C15.9941 9.79363 15.8933 9.99493 15.7303 10.0896L13.2436 11.5347C13.4066 11.44 13.5074 11.2385 13.5085 10.9526C13.5099 10.3761 13.1049 9.67493 12.6038 9.38548C12.3514 9.23961 12.1228 9.22632 11.958 9.32208L14.4446 7.87689C14.6095 7.78113 14.8381 7.79441 15.0905 7.94016C15.5916 8.22961 15.9966 8.93132 15.9952 9.50732L15.9951 9.50744Z" fill="#DBA660"/>
<path d="M13.2435 11.5345C13.5974 11.3288 13.5965 10.6668 13.2415 10.0558C12.8864 9.44482 12.3117 9.11625 11.9577 9.32193C11.6038 9.5276 11.6047 10.1896 11.9598 10.8006C12.3148 11.4116 12.8896 11.7402 13.2435 11.5345Z" fill="#BF7D5A"/>
<path d="M13.253 10.8049C13.252 11.2188 12.959 11.3857 12.5986 11.1778C12.4489 11.0911 12.311 10.9532 12.2011 10.792C12.0468 10.5659 11.9478 10.2935 11.9487 10.0517C11.9499 9.6379 12.2429 9.4709 12.603 9.67872C12.7865 9.78498 12.9523 9.96768 13.0703 10.1766C13.1838 10.3772 13.2536 10.6019 13.253 10.8049Z" fill="#AA6256"/>
<path d="M13.2531 10.8049C13.2521 11.2189 12.959 11.3858 12.5987 11.1778C12.449 11.0911 12.3111 10.9532 12.2012 10.792L13.0705 10.1766C13.184 10.3772 13.2537 10.6019 13.2531 10.8049Z" fill="#DBA660"/>
</svg>
