<svg width="32" height="33" viewBox="0 0 32 33" fill="none" xmlns="http://www.w3.org/2000/svg">
<rect y="0.987305" width="32" height="32" rx="6" fill="#E8E8E8"/>
<path d="M20.1667 8.65332H11.8336C9.54215 8.65332 7.66699 10.5285 7.66699 12.8199V21.1534C7.66699 23.4442 9.54215 25.32 11.8336 25.32H20.1667C22.4581 25.32 24.3333 23.4442 24.3333 21.1534V12.8199C24.3333 10.5285 22.4581 8.65332 20.1667 8.65332ZM22.9443 21.1534C22.9443 22.6846 21.6988 23.9311 20.1667 23.9311H11.8336C10.3021 23.9311 9.05591 22.6846 9.05591 21.1534V12.8199C9.05591 11.2883 10.3021 10.0422 11.8336 10.0422H20.1667C21.6988 10.0422 22.9443 11.2883 22.9443 12.8199V21.1534Z" fill="#181818"/>
<path d="M20.5143 13.5139C21.0896 13.5139 21.5559 13.0476 21.5559 12.4723C21.5559 11.897 21.0896 11.4307 20.5143 11.4307C19.939 11.4307 19.4727 11.897 19.4727 12.4723C19.4727 13.0476 19.939 13.5139 20.5143 13.5139Z" fill="#181818"/>
<path d="M15.9996 12.8213C13.698 12.8213 11.833 14.6864 11.833 16.9879C11.833 19.2884 13.698 21.1548 15.9996 21.1548C18.3005 21.1548 20.1661 19.2884 20.1661 16.9879C20.1661 14.6864 18.3005 12.8213 15.9996 12.8213ZM15.9996 19.7659C14.4656 19.7659 13.2219 18.5222 13.2219 16.9879C13.2219 15.4535 14.4656 14.2102 15.9996 14.2102C17.5335 14.2102 18.7772 15.4535 18.7772 16.9879C18.7772 18.5222 17.5335 19.7659 15.9996 19.7659Z" fill="#181818"/>
</svg>
