<svg width="20" height="21" viewBox="0 0 20 21" fill="none" xmlns="http://www.w3.org/2000/svg">
<path d="M14.1666 2.65332H5.83344C3.54203 2.65332 1.66687 4.52848 1.66687 6.81989V15.1534C1.66687 17.4442 3.54203 19.32 5.83344 19.32H14.1666C16.458 19.32 18.3331 17.4442 18.3331 15.1534V6.81989C18.3331 4.52848 16.458 2.65332 14.1666 2.65332ZM16.9442 15.1534C16.9442 16.6846 15.6986 17.9311 14.1666 17.9311H5.83344C4.30202 17.9311 3.05579 16.6846 3.05579 15.1534V6.81989C3.05579 5.28827 4.30202 4.04224 5.83344 4.04224H14.1666C15.6986 4.04224 16.9442 5.28827 16.9442 6.81989V15.1534Z" fill="#181818"/>
<path d="M14.5144 7.51395C15.0897 7.51395 15.5561 7.04759 15.5561 6.47231C15.5561 5.89702 15.0897 5.43066 14.5144 5.43066C13.9391 5.43066 13.4728 5.89702 13.4728 6.47231C13.4728 7.04759 13.9391 7.51395 14.5144 7.51395Z" fill="#181818"/>
<path d="M10.0001 6.82129C7.69844 6.82129 5.8335 8.68644 5.8335 10.9879C5.8335 13.2884 7.69844 15.1548 10.0001 15.1548C12.301 15.1548 14.1666 13.2884 14.1666 10.9879C14.1666 8.68644 12.301 6.82129 10.0001 6.82129ZM10.0001 13.7659C8.46612 13.7659 7.22242 12.5222 7.22242 10.9879C7.22242 9.45351 8.46612 8.21021 10.0001 8.21021C11.534 8.21021 12.7777 9.45351 12.7777 10.9879C12.7777 12.5222 11.534 13.7659 10.0001 13.7659Z" fill="#181818"/>
</svg>
