<svg width="32" height="32" viewBox="0 0 32 32" fill="none" xmlns="http://www.w3.org/2000/svg">
<path d="M5.74888 16.4074C5.66796 15.563 5.37482 14.7528 4.89672 14.0521C4.86955 14.0124 4.84177 13.9729 4.814 13.9334C4.69506 13.7645 4.57213 13.59 4.49352 13.3885C4.37494 13.0855 4.39329 12.774 4.54267 12.5557C4.63021 12.4276 4.75217 12.341 4.87015 12.2572C4.99006 12.1719 5.10321 12.0915 5.15948 11.9792C5.23519 11.8275 5.20102 11.6107 5.06795 11.399C5.01011 11.3072 4.94176 11.2222 4.86931 11.1321C4.78611 11.0288 4.70013 10.922 4.62985 10.8017C4.4975 10.5756 4.41479 10.2402 4.57901 9.97759C4.686 9.80648 4.85808 9.7199 5.0246 9.63621C5.16419 9.56593 5.29617 9.49952 5.36971 9.3906C5.44917 9.27274 5.45907 9.09306 5.39592 8.90963C5.35039 8.7774 5.27722 8.6552 5.19969 8.52563C5.17273 8.48094 5.14628 8.43593 5.12036 8.39063C4.88822 7.98021 4.743 7.52643 4.69373 7.0575C4.6726 6.8527 4.66318 6.55334 4.82499 6.31872C5.04078 6.00633 5.45581 5.94486 5.77122 6.02287C6.09412 6.10257 6.36413 6.30544 6.60238 6.48439L6.45723 6.6776C6.23746 6.51241 5.98834 6.325 5.71338 6.25738C5.48588 6.20147 5.17337 6.2395 5.02387 6.45602C4.90734 6.62471 4.91676 6.86598 4.93391 7.03274C4.97976 7.46847 5.11474 7.8901 5.33047 8.27144C5.35522 8.31516 5.38119 8.35839 5.40691 8.40162C5.48733 8.53602 5.57053 8.67501 5.62427 8.83114C5.71326 9.08956 5.69334 9.34266 5.56993 9.52572C5.461 9.68705 5.29424 9.77085 5.13303 9.85176C4.99006 9.92385 4.85494 9.99183 4.78381 10.1056C4.67658 10.2771 4.74155 10.5146 4.83827 10.6798C4.8995 10.7845 4.9763 10.8799 5.05744 10.9808C5.1311 11.0721 5.20718 11.1668 5.27239 11.2705C5.45352 11.5585 5.49095 11.8562 5.37551 12.0873C5.29231 12.2535 5.14885 12.3554 5.00999 12.454C4.90469 12.5289 4.80519 12.5995 4.74191 12.6919C4.6377 12.8443 4.62888 13.0718 4.71836 13.3005C4.78647 13.4748 4.89587 13.6301 5.01143 13.7944C5.03981 13.8347 5.06831 13.8751 5.09608 13.9158C5.5972 14.6502 5.90446 15.4995 5.98931 16.3846L5.74888 16.4074Z" fill="#4C5C75"/>
<path d="M13.3832 30.6934C13.3784 30.7212 13.37 30.749 13.3555 30.7755C13.3688 30.749 13.3784 30.7212 13.3832 30.6934Z" fill="#1D2943"/>
<path d="M13.1637 30.3421C12.8691 30.1718 12.3921 30.1718 12.0987 30.3421C11.9526 30.4266 11.8801 30.5377 11.8801 30.6488L11.8789 31.0183C11.8789 31.1306 11.9526 31.2429 12.1011 31.3286C12.3969 31.4989 12.8739 31.4989 13.1662 31.3286C13.3123 31.2441 13.3859 31.133 13.3859 31.0219L13.3871 30.6524C13.3871 30.5401 13.3123 30.4278 13.1637 30.3421ZM13.3557 30.7756C13.369 30.749 13.3787 30.7212 13.3835 30.6934C13.3787 30.7212 13.3702 30.749 13.3557 30.7756Z" fill="#1D2943"/>
<path d="M13.3832 30.6934C13.3784 30.7212 13.37 30.749 13.3555 30.7755C13.3688 30.749 13.3784 30.7212 13.3832 30.6934Z" fill="#1D2943"/>
<path d="M13.3867 30.6524L13.3857 31.0224C13.3853 31.1334 13.3124 31.2442 13.1665 31.3289C12.8737 31.4992 12.3965 31.4992 12.1011 31.3286C11.9527 31.243 11.8787 31.1304 11.8789 31.018L11.8799 30.6481C11.8796 30.7604 11.9537 30.873 12.1021 30.9587C12.3974 31.1292 12.8746 31.1292 13.1676 30.959C13.3134 30.8743 13.3863 30.7633 13.3867 30.6524Z" fill="#1D2943"/>
<path d="M13.1641 30.3415C13.4595 30.512 13.461 30.7883 13.1676 30.959C12.8747 31.1292 12.3974 31.1292 12.1021 30.9587C11.8072 30.7884 11.8056 30.512 12.0986 30.3418C12.392 30.1713 12.8692 30.1713 13.1641 30.3415Z" fill="#4C5C75"/>
<path d="M13.056 29.3549L13.0557 30.6257C13.0557 30.6879 13.0149 30.7502 12.9333 30.798C12.7687 30.8942 12.5006 30.8948 12.3344 30.7996C12.2509 30.7516 12.209 30.6885 12.209 30.6253L12.2092 29.3545C12.2092 29.4176 12.251 29.4808 12.3347 29.5287C12.5008 29.6241 12.7689 29.6234 12.9335 29.5272C13.0151 29.4795 13.056 29.4172 13.056 29.3549Z" fill="#9EA9C9"/>
<path d="M6.42815 26.6349L6.42694 27.0044C6.42694 27.1155 6.35328 27.2266 6.20837 27.3111C5.91494 27.4814 5.43796 27.4814 5.14211 27.3111C4.99358 27.2254 4.91992 27.1131 4.91992 27.0008L4.92113 26.6313C4.92113 26.5202 4.99358 26.4091 5.1397 26.3246C5.43313 26.1531 5.91011 26.1531 6.20475 26.3233C6.35328 26.4103 6.42815 26.5226 6.42815 26.6349Z" fill="#1D2943"/>
<path d="M6.42767 26.6345L6.4267 27.0045C6.42634 27.1156 6.3534 27.2263 6.20753 27.3111C5.91458 27.4813 5.43748 27.4813 5.14211 27.3107C4.9937 27.225 4.91968 27.1125 4.91992 27.0001L4.92089 26.6302C4.92065 26.7426 4.99467 26.8551 5.14308 26.9408C5.43844 27.1113 5.91567 27.1113 6.2085 26.9411C6.35437 26.8563 6.4273 26.7454 6.42767 26.6345Z" fill="#1D2943"/>
<path d="M6.20513 26.3237C6.5005 26.4942 6.50206 26.7705 6.20851 26.9411C5.91568 27.1114 5.43846 27.1114 5.14309 26.9409C4.84821 26.7706 4.84664 26.4942 5.13959 26.324C5.43302 26.1534 5.91025 26.1534 6.20513 26.3237Z" fill="#4C5C75"/>
<path d="M6.09697 25.337L6.09673 26.6078C6.09673 26.67 6.05592 26.7323 5.97429 26.7801C5.8097 26.8762 5.54162 26.877 5.37546 26.7817C5.2919 26.7337 5.25 26.6706 5.25 26.6073L5.25024 25.3366C5.25024 25.3998 5.29202 25.4629 5.37571 25.5109C5.54186 25.6063 5.80994 25.6055 5.97453 25.5093C6.05616 25.4615 6.09697 25.3993 6.09697 25.337Z" fill="#9EA9C9"/>
<path d="M25.7475 23.5085L25.7463 23.8793C25.7463 23.9903 25.6726 24.1014 25.5277 24.186C25.2343 24.3562 24.7573 24.3562 24.4614 24.1848C24.3141 24.1002 24.2393 23.9867 24.2393 23.8744L24.2405 23.5049C24.2405 23.3938 24.3129 23.2827 24.459 23.1982C24.7525 23.0279 25.2294 23.0279 25.5253 23.1982C25.6738 23.2839 25.7475 23.3962 25.7475 23.5085Z" fill="#4C5C75"/>
<path d="M25.748 23.509L25.747 23.879C25.7467 23.99 25.6737 24.1008 25.5278 24.1856C25.2349 24.3558 24.7578 24.3558 24.4624 24.1852C24.314 24.0995 24.24 23.9871 24.2402 23.8746L24.2412 23.5046C24.241 23.6169 24.315 23.7296 24.4634 23.8152C24.7588 23.9858 25.2359 23.9858 25.5288 23.8156C25.6747 23.7308 25.7476 23.62 25.748 23.5089V23.509Z" fill="#1D2943"/>
<path d="M25.5254 23.1982C25.8208 23.3687 25.8224 23.645 25.5288 23.8156C25.2359 23.9859 24.7588 23.9859 24.4634 23.8152C24.1685 23.645 24.167 23.3687 24.4599 23.1984C24.7533 23.0279 25.2306 23.0279 25.5254 23.1981V23.1982Z" fill="#4C5C75"/>
<path d="M25.4163 22.2115L25.4161 23.4822C25.4161 23.5445 25.3753 23.6068 25.2936 23.6545C25.129 23.7507 24.861 23.7515 24.6948 23.6562C24.6112 23.6081 24.5693 23.5451 24.5693 23.4818L24.5696 22.2111C24.5696 22.2743 24.6114 22.3374 24.695 22.3854C24.8612 22.4808 25.1293 22.48 25.2939 22.3838C25.3755 22.336 25.4163 22.2737 25.4163 22.2115Z" fill="#9EA9C9"/>
<path d="M18.789 19.491L18.788 19.8612C18.7877 19.9721 18.7147 20.083 18.5689 20.1676C18.2759 20.3379 17.7988 20.3379 17.5034 20.1674C17.355 20.0817 17.2809 19.9691 17.2813 19.8568L17.2822 19.4868C17.282 19.5991 17.356 19.7118 17.5044 19.7974C17.7998 19.9679 18.2769 19.9679 18.5698 19.7978C18.7157 19.713 18.7886 19.6021 18.789 19.491Z" fill="#1D2943"/>
<path d="M18.5665 19.1802C18.8618 19.3508 18.8634 19.6271 18.5698 19.7977C18.2769 19.968 17.7998 19.968 17.5044 19.7974C17.2095 19.6271 17.208 19.3508 17.5009 19.1806C17.7944 19.0099 18.2716 19.0099 18.5665 19.1802Z" fill="#4C5C75"/>
<path d="M18.4573 18.1937L18.4571 19.4644C18.4571 19.5267 18.4163 19.589 18.3346 19.6367C18.17 19.7329 17.902 19.7336 17.7357 19.6384C17.6523 19.5903 17.6104 19.5273 17.6104 19.464L17.6106 18.1932C17.6106 18.2565 17.6524 18.3196 17.7361 18.3675C17.9021 18.4629 18.1703 18.4621 18.3348 18.366C18.4165 18.3182 18.4572 18.2558 18.4573 18.1937Z" fill="#9EA9C9"/>
<path d="M9.94059 28.6154L5.3193 25.9298L5.29395 16.2875L9.91523 18.9731L9.94059 28.6154Z" fill="#C9CEE2"/>
<path d="M10.2773 19.1579L4.93066 16.0507L16.3583 9.44641L21.7049 12.5536L10.2773 19.1579Z" fill="#ADB1C2"/>
<path d="M21.7313 22.6415L10.3042 29.2455L4.95723 26.1384L4.93066 16.0506L10.2777 19.1576L21.7059 12.5535L21.7313 22.6415Z" fill="#C9CEE2"/>
<path d="M10.3032 29.2458L4.95651 26.1387L4.93066 16.0507L10.2773 19.1579L10.3032 29.2458Z" fill="#E3E7F0"/>
<path d="M21.7309 22.6415L10.3032 29.2457L10.2773 19.1577L21.7048 12.5535L21.7309 22.6415Z" fill="#C9CEE2"/>
<path d="M18.6842 15.4152L11.2451 19.7144L11.2653 27.5742L18.6842 23.2867V15.4152Z" fill="#B0B8CF"/>
<path d="M21.6248 21.2888C21.622 20.2986 21.3319 19.535 20.7633 19.2046L18.4697 17.8717C19.0381 18.2021 19.3283 18.9657 19.3312 19.9559L19.3383 24.0307L21.6319 25.3636L21.6248 21.2888Z" fill="#B0B8CF"/>
<path d="M19.9186 19.0315L17.625 17.6985L23.3746 14.379L25.6684 15.7119L19.9186 19.0315ZM25.6684 15.7119L25.6847 23.0237L21.6318 25.3635L21.6246 21.2888C21.6208 19.9117 21.061 18.9725 19.9697 19.0283C19.9527 19.0292 19.9359 19.0302 19.9186 19.0315L25.6684 15.712V15.7119Z" fill="#E3E7F0"/>
<path d="M25.9671 13.8216L25.9634 15.8998C25.9634 16.0942 25.8354 16.2874 25.5819 16.4347L16.518 21.702C16.006 22.0003 15.1728 22.0003 14.6572 21.702L4.92676 16.0761L4.93038 13.9979L15.849 7.65222L25.5782 13.2794C25.8548 13.4388 25.9816 13.6501 25.9634 13.859C25.9646 13.8469 25.9671 13.8349 25.9671 13.8216Z" fill="#678AEE"/>
<path d="M25.5852 14.3567L16.5215 19.624C16.0095 19.9215 15.1768 19.9215 14.6613 19.624L4.93136 13.9974L4.92773 16.076L14.6578 21.7024C15.1733 22 16.0061 22 16.518 21.7024L25.5819 16.4351C25.8361 16.2874 25.9634 16.094 25.9639 15.9001L25.9674 13.8217C25.9668 14.0155 25.8396 14.209 25.5852 14.3567Z" fill="#678AEE"/>
<path d="M25.5784 13.2792C26.0939 13.5767 26.0964 14.0592 25.5846 14.3566L16.5208 19.624C16.0088 19.9215 15.1761 19.9215 14.6606 19.624L4.93066 13.9974L15.8485 7.65271L25.5784 13.2792Z" fill="#8FABFE"/>
<path d="M13.5984 29.5581C13.1522 29.8173 12.426 29.8173 11.9769 29.5581L10.3027 28.5914L10.3037 29.2457L11.9757 30.2111C12.4249 30.4704 13.151 30.4704 13.5972 30.2111C13.8187 30.0823 13.9297 29.9137 13.9302 29.7449L13.9314 29.0918C13.9309 29.2607 13.82 29.4292 13.5984 29.558V29.5581Z" fill="#C9CEE2"/>
<path d="M13.5929 28.6189C14.0421 28.8783 14.0446 29.2987 13.5984 29.5581C13.1522 29.8174 12.426 29.8174 11.9769 29.5581L10.3027 28.5915L11.9208 27.6536L13.5929 28.6189Z" fill="#E3E7F0"/>
<path d="M20.3125 18.7989L25.4154 15.8519V15.0787L20.3147 18.0245L20.3125 18.7989Z" fill="#4C5C75"/>
<path d="M26.485 16.5924L21.9315 19.2385L20.7412 18.5513L25.2946 15.9051L26.485 16.5924Z" fill="#4C5C75"/>
<path d="M26.6938 15.9383L26.6916 16.7127L25.2925 15.9048L25.2947 15.1304L26.6938 15.9383ZM21.8351 18.9023L21.8329 19.6767L20.3125 18.799L20.3147 18.0246L21.8351 18.9023Z" fill="#B0B8CF"/>
<path d="M21.835 19.1055L21.8339 19.4735L20.3135 18.5956L20.3144 18.2278L21.835 19.1055Z" fill="#1D2943"/>
<path d="M21.8347 19.1055L21.8339 19.3724L20.3135 18.4945L20.3142 18.2278L21.8347 19.1055Z" fill="#4C5C75"/>
<path d="M26.9357 15.9383L26.9336 16.7127L21.833 19.6767L21.8352 18.9023L26.9357 15.9383Z" fill="#AFB2B9"/>
<path d="M26.9364 15.9383L21.8359 18.9024L20.3154 18.0246L20.4359 17.9546L21.8351 18.7623L26.6945 15.9383L25.2955 15.1305L25.416 15.0604L26.9364 15.9383Z" fill="#E3E7F0"/>
<path d="M27.584 16.4805L21.6912 19.8834L21.4907 19.7662L21.4883 18.9161L27.3811 15.5145L27.5816 15.6304L27.584 16.4805Z" fill="#BF7D5A"/>
<path d="M21.6916 19.8828L21.4907 19.7661L21.4883 18.9162L21.6892 19.033L21.6916 19.8828Z" fill="#AA6256"/>
<path d="M21.6892 19.033L21.4883 18.9162L27.3814 15.514L27.5822 15.6307L21.6892 19.033Z" fill="#DBA660"/>
<path d="M27.5814 15.6307L27.5838 16.4806L21.6909 19.8829L21.6885 19.033L27.5814 15.6307Z" fill="#BF7D5A"/>
<path d="M25.2931 15.9049L24.6426 15.5254L25.2931 15.1498V15.9049Z" fill="#B0B8CF"/>
<path d="M25.2659 17.2208C25.2427 17.2343 25.2306 17.2522 25.2306 17.27L25.2294 17.6881C25.2294 17.6704 25.2415 17.6525 25.2647 17.6391L25.6237 17.4304L25.6249 17.0123L25.2659 17.2208ZM25.2007 17.4582L25.1994 17.8764C25.1994 17.839 25.1784 17.8032 25.1373 17.767C25.11 17.7428 25.0966 17.7153 25.0967 17.6878L25.0979 17.2696C25.0978 17.2971 25.1112 17.3248 25.1385 17.3488C25.1795 17.385 25.2008 17.4208 25.2007 17.4582Z" fill="#1D2943"/>
<path d="M25.3319 17.4635C25.3331 17.4611 25.3331 17.4599 25.3331 17.4587L25.3319 17.8765C25.3319 17.9973 25.1797 18.106 25.0155 18.2014C24.6629 18.4066 24.3683 18.4658 24.1159 18.3825C24.0652 18.3656 24.006 18.3704 23.9673 18.3921L23.686 18.5564L23.5918 18.5008L23.593 18.083L23.8744 17.92C23.9541 17.8729 24.0809 17.8645 24.1823 17.8971C24.3755 17.9611 24.617 17.9055 24.9225 17.7292C25.2027 17.5662 25.263 17.4587 25.1375 17.3488C25.0735 17.2921 25.0867 17.2148 25.1713 17.1665L25.5299 16.9576L25.6241 17.0119L25.2655 17.2208C25.2256 17.2438 25.2184 17.28 25.2486 17.3066C25.3101 17.3609 25.3343 17.4128 25.3319 17.4635Z" fill="#111D33"/>
<path d="M23.6883 18.1376L23.6871 18.5558L23.5928 18.5013L23.594 18.0831L23.6883 18.1376Z" fill="#1D2943"/>
<path d="M25.0165 17.7831C24.6637 17.9881 24.3693 18.0475 24.1169 17.9642C24.0668 17.9478 24.0075 17.9518 23.969 17.9742L23.6877 18.1376L23.6865 18.5558L23.9678 18.3924C24.0064 18.37 24.0656 18.366 24.1157 18.3825C24.3681 18.4657 24.6625 18.4063 25.0153 18.2014C25.1793 18.106 25.3317 17.9969 25.332 17.8767L25.3333 17.4585C25.3329 17.5788 25.1805 17.6879 25.0165 17.7831Z" fill="#111D33"/>
<path d="M25.6246 17.0123L25.2656 17.2209C25.2258 17.2439 25.2189 17.2801 25.2491 17.3067C25.4552 17.4878 25.2474 17.6491 25.0168 17.7831C24.664 17.9881 24.3696 18.0475 24.1172 17.9642C24.0671 17.9478 24.0078 17.9518 23.9693 17.9742L23.6881 18.1376L23.5938 18.0831L23.8749 17.9198C23.9549 17.8733 24.0814 17.8641 24.1826 17.8973C24.3758 17.9609 24.6176 17.9057 24.9225 17.7286C25.203 17.5656 25.2635 17.4591 25.1382 17.3488C25.0735 17.292 25.0872 17.2152 25.1712 17.1665L25.5302 16.9577L25.6246 17.0123Z" fill="#4C5C75"/>
<path d="M25.4601 17.2226C25.5056 17.1963 25.5426 17.2174 25.5427 17.2697C25.5428 17.322 25.5062 17.3854 25.4606 17.4117C25.4152 17.4379 25.3785 17.4168 25.3783 17.3646C25.3781 17.3124 25.4146 17.2487 25.4601 17.2226ZM23.8386 18.1669C23.8842 18.1406 23.9211 18.1617 23.9212 18.214C23.9213 18.2663 23.8847 18.3297 23.8391 18.3562C23.7938 18.3822 23.757 18.3612 23.7568 18.3089C23.7567 18.2567 23.7932 18.1931 23.8386 18.1669Z" fill="#C9CEE2"/>
<path d="M19.3874 15.7789L19.3862 16.3296L14.6574 19.0781L9.6582 16.1919L9.65941 15.6413L14.3882 12.8929L19.3874 15.7789Z" fill="#F3F1FC"/>
<path d="M19.3871 15.7791L19.3862 16.3299L14.6572 19.078L14.6582 18.5272L19.3871 15.7791Z" fill="#DEDFFB"/>
<path d="M14.6577 18.5273L14.6567 19.078L9.6582 16.1921L9.65905 15.6414L14.6577 18.5273Z" fill="#F3F1FC"/>
<path d="M19.3867 15.7792L14.6576 18.5273L9.65918 15.6414L14.3879 12.8931L19.3867 15.7792Z" fill="white"/>
<path d="M13.0278 14.2177C13.1293 14.2761 13.1298 14.371 13.029 14.4295C12.9285 14.488 12.7646 14.488 12.6633 14.4295C12.5618 14.371 12.5615 14.2761 12.6621 14.2176C12.7628 14.1591 12.9265 14.1591 13.028 14.2176L13.0278 14.2177ZM13.7501 13.7979C13.8515 13.8565 13.852 13.9513 13.7513 14.0099C13.6506 14.0683 13.4868 14.0683 13.3855 14.0099C13.2841 13.9513 13.2836 13.8565 13.3843 13.7979C13.485 13.7394 13.6486 13.7395 13.7501 13.7979ZM14.4723 13.3783C14.5737 13.4368 14.5742 13.5317 14.4735 13.5901C14.3728 13.6487 14.2091 13.6487 14.1076 13.5901C14.0063 13.5317 14.0058 13.4368 14.1064 13.3782C14.2071 13.3197 14.3709 13.3199 14.4723 13.3783ZM13.8433 14.6885C13.9447 14.7469 13.9452 14.8417 13.8445 14.9003C13.7438 14.9587 13.58 14.9587 13.4786 14.9003C13.3772 14.8417 13.3768 14.7469 13.4774 14.6884C13.5781 14.6298 13.7419 14.6299 13.8433 14.6885ZM14.5654 14.2688C14.6668 14.3272 14.6674 14.4221 14.5666 14.4806C14.4659 14.5391 14.3022 14.5391 14.2008 14.4806C14.0994 14.422 14.0989 14.3272 14.1996 14.2686C14.3003 14.2102 14.4641 14.2102 14.5655 14.2686L14.5654 14.2688ZM15.2876 13.849C15.3891 13.9076 15.3896 14.0024 15.2888 14.0608C15.1881 14.1194 15.0244 14.1194 14.923 14.0608C14.8216 14.0024 14.8212 13.9075 14.9219 13.849C15.0226 13.7904 15.1863 13.7904 15.2878 13.849H15.2876ZM15.3807 14.7395C15.4822 14.7979 15.4827 14.8928 15.3819 14.9513C15.2812 15.0098 15.1175 15.0098 15.0162 14.9513C14.9149 14.8927 14.9143 14.7979 15.015 14.7395C15.1157 14.6809 15.2793 14.6809 15.3807 14.7395ZM16.103 14.3197C16.2044 14.3783 16.2049 14.4731 16.1042 14.5316C16.0035 14.5901 15.8397 14.5901 15.7383 14.5316C15.637 14.4731 15.6365 14.3783 15.7371 14.3197C15.8379 14.2611 16.0015 14.2613 16.103 14.3197ZM16.9183 14.7904C17.0197 14.849 17.0202 14.9438 16.9195 15.0023C16.8189 15.0609 16.6551 15.0609 16.5536 15.0023C16.4523 14.9439 16.4518 14.849 16.5525 14.7904C16.6533 14.732 16.817 14.732 16.9183 14.7904ZM14.1228 17.3597C14.224 17.4182 14.2246 17.5131 14.124 17.5715C14.0232 17.6301 13.8595 17.6301 13.7582 17.5715C13.6567 17.5131 13.6562 17.4182 13.757 17.3596C13.8577 17.3011 14.0214 17.3013 14.1228 17.3597ZM14.845 16.94C14.9463 16.9985 14.9467 17.0933 14.8462 17.1519C14.7455 17.2103 14.5817 17.2103 14.4803 17.1519C14.379 17.0933 14.3784 16.9985 14.4791 16.94C14.5798 16.8814 14.7435 16.8815 14.845 16.94ZM15.5671 16.5202C15.6685 16.5788 15.669 16.6736 15.5683 16.7321C15.4677 16.7906 15.3038 16.7907 15.2025 16.7321C15.1011 16.6737 15.1006 16.5788 15.2013 16.5202C15.302 16.4618 15.4658 16.4618 15.5672 16.5202H15.5671ZM16.2893 16.1006C16.3907 16.1592 16.3912 16.254 16.2905 16.3124C16.1898 16.371 16.0261 16.371 15.9246 16.3124C15.8233 16.254 15.8228 16.159 15.9234 16.1006C16.0241 16.042 16.1879 16.042 16.2893 16.1006ZM17.0114 15.681C17.1128 15.7394 17.1135 15.8343 17.0126 15.8928C16.9119 15.9512 16.7482 15.9512 16.6469 15.8928C16.5455 15.8342 16.5449 15.7394 16.6456 15.6809C16.7464 15.6223 16.9101 15.6224 17.0115 15.6809L17.0114 15.681ZM17.7336 15.2612C17.8351 15.3197 17.8356 15.4146 17.7349 15.473C17.6341 15.5316 17.4704 15.5316 17.369 15.473C17.2678 15.4146 17.2672 15.3197 17.3678 15.2612C17.4686 15.2027 17.6323 15.2027 17.7336 15.2612ZM16.3824 16.991C16.4838 17.0495 16.4843 17.1444 16.3836 17.2028C16.2829 17.2614 16.1192 17.2614 16.0177 17.2028C15.9165 17.1444 15.916 17.0495 16.0168 16.991C16.1173 16.9325 16.2812 16.9325 16.3824 16.991ZM17.1045 16.5713C17.2059 16.6299 17.2064 16.7247 17.1057 16.7832C17.0051 16.8417 16.8413 16.8417 16.74 16.7832C16.6386 16.7247 16.6382 16.6299 16.7387 16.5713C16.8396 16.5129 17.0032 16.5129 17.1046 16.5713H17.1045Z" fill="#E3E7F0"/>
<path d="M17.9035 16.2583C17.9037 16.1755 17.7881 16.1081 17.6452 16.1077C17.5024 16.1073 17.3864 16.1741 17.3862 16.2568C17.3859 16.3396 17.5015 16.407 17.6444 16.4074C17.7872 16.4078 17.9032 16.341 17.9035 16.2583Z" fill="#E3E7F0"/>
<path d="M18.5495 15.7319C18.6509 15.7904 18.6514 15.8853 18.5507 15.9437C18.45 16.0023 18.2863 16.0023 18.1848 15.9437C18.0835 15.8853 18.083 15.7904 18.1837 15.7319C18.2844 15.6733 18.4482 15.6733 18.5496 15.7319H18.5495ZM16.1966 15.2102C16.298 15.2687 16.2986 15.3635 16.1978 15.422C16.0972 15.4805 15.9334 15.4805 15.832 15.422C15.7306 15.3635 15.7301 15.2687 15.8308 15.2101C15.9317 15.1516 16.0953 15.1518 16.1966 15.2102ZM13.2147 15.9985C13.3161 16.057 13.3166 16.1519 13.2159 16.2103C13.1153 16.2688 12.9514 16.2688 12.8502 16.2103C12.7488 16.1518 12.7482 16.057 12.849 15.9984C12.9496 15.94 13.1135 15.94 13.2147 15.9984V15.9985ZM13.9369 15.5788C14.0383 15.6372 14.0388 15.7321 13.9381 15.7906C13.8374 15.8492 13.6737 15.8492 13.5722 15.7906C13.471 15.7321 13.4704 15.6372 13.5711 15.5787C13.6719 15.5202 13.8356 15.5202 13.937 15.5787L13.9369 15.5788ZM14.659 15.159C14.7605 15.2176 14.7609 15.3124 14.6602 15.371C14.5596 15.4294 14.3958 15.4295 14.2945 15.371C14.1932 15.3125 14.1927 15.2176 14.2933 15.159C14.394 15.1005 14.5576 15.1006 14.659 15.159ZM14.7523 16.0495C14.8537 16.1081 14.8542 16.2028 14.7535 16.2614C14.6529 16.3199 14.489 16.32 14.3876 16.2614C14.2863 16.2028 14.2859 16.1081 14.3865 16.0495C14.4872 15.9909 14.6508 15.9909 14.7523 16.0495ZM15.4744 15.6297C15.5758 15.6883 15.5764 15.7831 15.4757 15.8417C15.375 15.9002 15.2112 15.9002 15.1098 15.8417C15.0084 15.7832 15.008 15.6883 15.1086 15.6299C15.2094 15.5713 15.3731 15.5713 15.4745 15.6299L15.4744 15.6297ZM12.3062 14.6373C12.4077 14.6958 12.4082 14.7906 12.3075 14.8492C12.2067 14.9076 12.043 14.9076 11.9416 14.8492C11.8404 14.7906 11.8398 14.6958 11.9404 14.6373C12.0412 14.5787 12.2049 14.5788 12.3062 14.6373ZM12.3995 15.5277C12.5008 15.5863 12.5013 15.6811 12.4007 15.7396C12.3 15.7981 12.1362 15.7981 12.0348 15.7396C11.9334 15.6811 11.933 15.5863 12.0336 15.5277C12.1343 15.4691 12.298 15.4691 12.3995 15.5277ZM13.1216 15.1081C13.223 15.1665 13.2235 15.2614 13.1228 15.3199C13.0222 15.3785 12.8583 15.3785 12.757 15.3199C12.6556 15.2613 12.6551 15.1665 12.7558 15.108C12.8565 15.0495 13.0203 15.0495 13.1217 15.108L13.1216 15.1081ZM10.8619 15.4766C10.9633 15.5352 10.9638 15.63 10.8631 15.6886C10.7624 15.747 10.5987 15.7471 10.4972 15.6886C10.3959 15.63 10.3954 15.5352 10.496 15.4766C10.5967 15.4181 10.7605 15.4182 10.8619 15.4766ZM11.584 15.057C11.6854 15.1155 11.6859 15.2104 11.5852 15.2688C11.4845 15.3274 11.3208 15.3274 11.2195 15.2688C11.1181 15.2104 11.1175 15.1155 11.2182 15.057C11.319 14.9984 11.4826 14.9984 11.584 15.057ZM13.3079 16.8889C13.4093 16.9474 13.4098 17.0422 13.3091 17.1008C13.2084 17.1592 13.0447 17.1593 12.9432 17.1008C12.8419 17.0422 12.8414 16.9474 12.9421 16.8889C13.0428 16.8304 13.2066 16.8304 13.3079 16.8889ZM14.03 16.4692C14.1315 16.5277 14.1321 16.6226 14.0312 16.681C13.9306 16.7396 13.7669 16.7396 13.6655 16.681C13.5641 16.6226 13.5637 16.5277 13.6643 16.4692C13.765 16.4107 13.9286 16.4107 14.03 16.4692Z" fill="#E3E7F0"/>
<path d="M15.7365 17.5174C15.7367 17.4347 15.6211 17.3673 15.4783 17.3669C15.3354 17.3664 15.2194 17.4332 15.2192 17.516C15.2189 17.5987 15.3346 17.6662 15.4774 17.6666C15.6203 17.667 15.7363 17.6002 15.7365 17.5174Z" fill="#E3E7F0"/>
<path d="M11.6773 15.9475C11.7788 16.0059 11.7792 16.1008 11.6785 16.1593C11.5778 16.2178 11.4141 16.2178 11.3126 16.1593C11.2113 16.1008 11.2109 16.0059 11.3114 15.9473C11.4123 15.8889 11.5759 15.8889 11.6773 15.9473V15.9475ZM12.4927 16.4182C12.5941 16.4766 12.5946 16.5715 12.4939 16.63C12.3932 16.6885 12.2294 16.6885 12.128 16.63C12.0267 16.5715 12.0262 16.4766 12.1268 16.4182C12.2276 16.3596 12.3912 16.3596 12.4927 16.4182ZM14.9387 17.8304C15.0401 17.8888 15.0406 17.9837 14.9399 18.0422C14.8392 18.1008 14.6754 18.1008 14.574 18.0422C14.4727 17.9837 14.4722 17.8888 14.5729 17.8304C14.6736 17.7718 14.8374 17.7718 14.9387 17.8304Z" fill="#E3E7F0"/>
<path d="M14.6079 15.1838L15.175 14.8542L15.1764 14.5544L14.5555 14.196L12.2855 15.5152L12.2842 15.8149L12.9051 16.1734L13.7317 15.693L16.0165 17.0123L16.6333 16.6538L16.6346 16.3541L14.6079 15.1838Z" fill="#CC104A"/>
<path d="M15.1765 14.5544L15.1752 14.8542L14.3487 15.3346L14.35 15.0348L15.1765 14.5544ZM13.733 15.3933L13.7318 15.693L12.9053 16.1734L12.9065 15.8737L13.733 15.3933Z" fill="#CC104A"/>
<path d="M12.9063 15.8737L12.9051 16.1734L12.2842 15.8149L12.2855 15.5152L12.9063 15.8737ZM16.0178 16.7124L16.0165 17.0123L13.7317 15.693L13.7329 15.3933L16.0178 16.7124Z" fill="#E93565"/>
<path d="M16.6347 16.3541L16.6334 16.6538L16.0166 17.0123L16.0179 16.7125L16.6347 16.3541Z" fill="#CC104A"/>
<path d="M15.177 14.5544L14.3504 15.0348L16.6352 16.3541L16.0184 16.7125L13.7335 15.3933L12.9069 15.8737L12.2861 15.5152L14.5561 14.196L15.177 14.5544Z" fill="#F45170"/>
<path d="M12.998 9.0029L16.1169 7.19037L16.9744 7.68546L13.8556 9.49799L12.998 9.0029Z" fill="#B28AFD"/>
<path d="M13.4531 9.00211L16.1175 7.4538L16.5197 7.68613L13.8555 9.23445L13.4531 9.00211Z" fill="#986FF9"/>
<path d="M15.251 11.0877L18.3697 9.27515L18.3687 9.61543L15.25 11.4278L15.251 11.0877Z" fill="#7E5AF2"/>
<path d="M13.8555 9.49795L16.9742 7.68542L18.3699 9.27516L15.2512 11.0877L13.8555 9.49795Z" fill="#986FF9"/>
<path d="M14.123 9.5417L16.3278 8.26038L17.4915 9.5859L15.2866 10.8671L14.123 9.5417Z" fill="#F8F9FE"/>
<path d="M16.4512 8.18912L16.9383 7.90607L18.1019 9.23147L17.6148 9.51452L16.4512 8.18912Z" fill="#F3F1FC"/>
<path d="M13.8559 9.49796L15.2515 11.0877L15.2506 11.4279L12.9951 10.1256L12.9983 9.00287L13.8559 9.49796Z" fill="#6D4EEA"/>
<path d="M10.8482 9.08231L10.8213 8.91338C11.9774 8.7291 12.7401 8.31962 13.088 7.69617C13.4949 6.96681 13.1773 6.18456 13.1741 6.17683L13.3318 6.11078C13.3465 6.14556 13.6852 6.97442 13.2384 7.77744C12.8641 8.45004 12.0599 8.8891 10.8482 9.08231Z" fill="#4C5C75"/>
<path d="M10.956 7.61055L10.5442 7.37121L10.5332 3.48315L10.9449 3.72249L10.956 7.61055Z" fill="#111D33"/>
<path d="M13.8815 5.68741L13.8808 6.42969C13.8805 6.51264 13.826 6.59548 13.717 6.65888C13.4976 6.78628 13.1408 6.7864 12.9201 6.65888C12.809 6.59488 12.7537 6.51071 12.7539 6.42679L12.7546 5.68451C12.7544 5.76855 12.8098 5.8526 12.9208 5.9166C13.1415 6.04412 13.4985 6.04412 13.7178 5.9166C13.8268 5.85332 13.8813 5.77049 13.8815 5.68741Z" fill="#1D2943"/>
<path d="M16.0368 0.782611L15.6251 0.543396L10.5332 3.48317L10.9449 3.72251L10.956 7.61057L16.0478 4.67079L16.0368 0.782611Z" fill="#4C5C75"/>
<path d="M10.9449 3.72251L10.5332 3.48317L15.6251 0.543396L16.0368 0.782611L10.9449 3.72251Z" fill="#1D2943"/>
<path d="M16.0373 0.782593L16.0483 4.67077L10.9564 7.61055L10.9453 3.72249L16.0373 0.782593Z" fill="#4C5C75"/>
<path d="M15.7732 4.51275L14.0584 5.50294L13.3544 5.90988L12.8847 6.18037L11.2304 7.13554L11.2279 6.41826L11.2207 3.8812L12.3159 3.24845L14.2794 2.11456L14.7492 1.84407L15.4544 1.43713L15.7647 1.2572L15.7732 4.51275Z" fill="#57B3FE"/>
<path d="M12.3289 12.9545L12.3277 13.2032L9.52621 14.8322L7.2041 13.4918L7.20531 13.2431L10.008 11.6141L12.3289 12.9545Z" fill="#F3F1FC"/>
<path d="M12.3296 12.9541L12.3288 13.2037L9.52637 14.8323L9.52709 14.5827L12.3296 12.9541Z" fill="#DEDFFB"/>
<path d="M9.52683 14.5827L9.5261 14.8323L7.20508 13.4923L7.2058 13.2427L9.52683 14.5827Z" fill="#F3F1FC"/>
<path d="M12.3296 12.9541L9.52708 14.5827L7.20605 13.2427L10.0085 11.6141L12.3296 12.9541Z" fill="white"/>
<path d="M10.9719 2.95085L9.53325 2.11487L8.15918 2.90811L8.18852 13.2381L8.66913 13.5174L8.77237 13.5774L8.90786 13.6561L9.23788 13.8479L9.62719 14.0742L11.0013 13.2808L10.9719 2.95085Z" fill="#9EA9C9"/>
<path d="M9.62719 14.0742L8.18852 13.2381L8.15918 2.90814L9.59785 3.74425L9.62719 14.0742Z" fill="#B0B8CF"/>
<path d="M9.23822 13.8479L8.57805 13.4643L8.54883 3.13446L9.20899 3.5181L9.23822 13.8479Z" fill="#C9CEE2"/>
<path d="M8.77271 13.5774L8.57805 13.4643L8.54883 3.13446L8.74336 3.24749L8.77271 13.5774Z" fill="#9EA9C9"/>
<path d="M9.59785 3.74421L8.15918 2.90811L9.53325 2.11487L10.9719 2.95097L9.59785 3.74421Z" fill="#E3E7F0"/>
<path d="M10.9727 2.95099L11.002 13.2808L9.62798 14.0742L9.59863 3.74423L10.9727 2.95099Z" fill="#C9CEE2"/>
<path d="M7.67267 8.34064L7.67207 8.13512L6.2334 7.29901L6.23388 7.50248C6.234 7.55344 6.25199 7.58931 6.28098 7.60609L7.71965 8.4422C7.69115 8.42553 7.67328 8.39027 7.67267 8.34064Z" fill="#9EA9C9"/>
<path d="M7.1546 8.434L5.71593 7.59789L5.71484 7.21063L7.15352 8.04674L7.1546 8.434Z" fill="#B0B8CF"/>
<path d="M7.15352 8.04675L5.71484 7.21064L8.16822 5.79419L9.60689 6.63017L7.15352 8.04675Z" fill="#E3E7F0"/>
<path d="M9.17634 9.04648L9.17477 8.47736C9.17416 8.25276 9.09483 8.09457 8.96683 8.0203L8.35605 7.66528C8.32707 7.70405 8.29628 7.74136 8.26404 7.7765C8.13398 7.91814 7.93631 8.01873 7.7373 8.06571L7.73767 8.21037C7.73791 8.26133 7.75578 8.29731 7.78476 8.3141L9.22355 9.1502C9.19457 9.1333 9.17634 9.09743 9.17634 9.04648Z" fill="#9EA9C9"/>
<path d="M9.60681 6.63019L9.61346 8.98056L9.33934 9.13887C9.24998 9.19043 9.17741 9.14901 9.17705 9.04649L9.17548 8.47737C9.17427 8.02527 8.85403 7.84257 8.46037 8.06983L7.8351 8.43088C7.7455 8.48257 7.67293 8.44115 7.67257 8.33863L7.67196 8.13528L7.15453 8.43402L7.15332 8.04676L9.60681 6.63031V6.63019Z" fill="#C9CEE2"/>
<path d="M12.9754 11.6493L12.9716 13.264C12.9712 13.3885 12.8895 13.5128 12.7258 13.6079C12.3967 13.7992 11.8612 13.7992 11.5301 13.6079C11.3632 13.5117 11.2799 13.3854 11.2803 13.2592L11.2843 11.6445C11.2839 11.7707 11.3672 11.897 11.534 11.9935C11.8652 12.1845 12.4005 12.1845 12.7297 11.9932C12.8933 11.8982 12.9751 11.7738 12.9754 11.6493Z" fill="#4C5C75"/>
<path d="M12.9754 12.0916L12.9716 12.6077C12.9712 12.7321 12.8895 12.8565 12.7258 12.9516C12.3967 13.1429 11.8612 13.1429 11.5301 12.9516C11.3632 12.8554 11.2799 12.729 11.2803 12.6029L11.2843 12.0868C11.2839 12.2129 11.3672 12.3392 11.534 12.4357C11.8652 12.6268 12.4005 12.6268 12.7297 12.4355C12.8933 12.3405 12.9751 12.2161 12.9754 12.0916Z" fill="#1D2943"/>
<path d="M11.8762 12.2743C11.751 12.2516 11.6331 12.2115 11.5336 12.1542C11.5161 12.1441 11.4991 12.1333 11.4824 12.1218V12.2955C11.4974 12.3056 11.5131 12.3155 11.5298 12.3251C11.6302 12.383 11.7495 12.4232 11.8762 12.4459V12.2743Z" fill="#E93565"/>
<path d="M12.7259 11.3007C13.057 11.4919 13.059 11.8019 12.7295 11.9933C12.4005 12.1845 11.8652 12.1845 11.5341 11.9934C11.2024 11.802 11.2008 11.4919 11.53 11.3006C11.8593 11.1093 12.3943 11.1093 12.7259 11.3007Z" fill="#1D2943"/>
<path d="M12.6173 9.65988L12.615 11.6196C12.6149 11.6912 12.5678 11.7627 12.4737 11.8173C12.2845 11.9273 11.9766 11.9273 11.7863 11.8173C11.6903 11.762 11.6423 11.6893 11.6426 11.6168L11.6449 9.6571C11.6446 9.72968 11.6926 9.80237 11.7886 9.85768C11.9789 9.96757 12.2867 9.96757 12.4759 9.85768C12.5701 9.80298 12.6173 9.73149 12.6173 9.65988Z" fill="#E3E7F0"/>
<path d="M12.4736 9.45946C12.6639 9.56935 12.665 9.7477 12.4756 9.85771C12.2864 9.9676 11.9786 9.9676 11.7882 9.85771C11.5975 9.7477 11.5966 9.56947 11.7857 9.45946C11.9752 9.34945 12.2829 9.34945 12.4736 9.45946Z" fill="#9EA9C9"/>
<path d="M11.4016 8.55307L9.91269 9.41284L5.75148 6.99896C5.67661 6.44107 5.71163 5.86507 5.87344 5.29752L7.10997 4.58386L11.2712 6.99896C11.4354 7.37571 11.4728 7.91186 11.4016 8.55307Z" fill="#FEBC1F"/>
<path d="M9.91208 9.41293L5.75184 6.99844C5.6743 6.42925 5.71579 5.85017 5.87368 5.29785L10.0339 7.71234C9.87604 8.26466 9.83455 8.84374 9.91208 9.41293Z" fill="#FEBC1F"/>
<path d="M10.0343 7.71238L5.87402 5.29789L7.11055 4.58386L11.2708 6.99847L10.0343 7.71238Z" fill="#FFDE9B"/>
<path d="M11.2713 6.99847C11.4365 7.37619 11.4739 7.9115 11.4026 8.55295L9.91293 9.41296C9.83544 8.84377 9.87697 8.26469 10.0349 7.71238L11.2713 6.99847Z" fill="#FFD06C"/>
<path d="M6.19629 5.29821L7.11004 4.77063L10.948 6.99807L10.0342 7.52553L6.19629 5.29821Z" fill="#FEBC1F"/>
<path d="M11.1399 7.66865C11.0468 7.61456 10.9177 7.62216 10.7754 7.70428C10.4924 7.86778 10.2637 8.26398 10.2647 8.58905C10.2651 8.75062 10.3221 8.86437 10.4141 8.91786L11.5054 9.55195C11.4134 9.49857 11.3564 9.38482 11.3559 9.22325C11.3551 8.89818 11.5837 8.50198 11.8667 8.33848C12.0091 8.25637 12.138 8.24876 12.2311 8.30286L11.1399 7.66865Z" fill="#4C5C75"/>
<path d="M11.8663 8.33849C12.1492 8.17523 12.3794 8.3065 12.3803 8.63169C12.3812 8.95676 12.1526 9.35296 11.8696 9.51634C11.5865 9.67972 11.3564 9.54846 11.3555 9.22326C11.3546 8.89819 11.5832 8.502 11.8663 8.33849Z" fill="#1D2943"/>
<path d="M12.2942 9.0909L13.563 8.35345L13.5599 9.45208L12.291 10.1895L12.2942 9.0909Z" fill="#FEBC1F"/>
<path d="M12.1225 7.14636L10.5296 8.07195L10.5254 9.54528L12.1285 10.471L13.7215 9.54528L13.7256 8.07195L12.1225 7.14636Z" fill="#FEBC1F"/>
<path d="M13.726 8.07196L13.7218 9.54529L12.1289 10.4709L12.1331 8.99767L13.726 8.07196Z" fill="#FFD06C"/>
<path d="M12.1328 8.99767L12.1285 10.4709L10.5254 9.54529L10.5296 8.07208L12.1328 8.99767Z" fill="#FEBC1F"/>
<path d="M13.7263 8.07195L12.1334 8.99765L10.5303 8.07207L12.1231 7.14636L13.7263 8.07195Z" fill="#FFDE9B"/>
<path d="M10.8525 8.0716L12.1232 7.33307L13.4037 8.07245L12.133 8.81086L10.8525 8.0716Z" fill="#FEBC1F"/>
<path d="M10.2245 7.78625C10.2771 7.75582 10.3199 7.78021 10.3201 7.84059C10.3204 7.90097 10.2779 7.97487 10.2252 8.00518C10.1724 8.03561 10.1297 8.01122 10.1296 7.95084C10.1293 7.89022 10.1718 7.81656 10.2245 7.78613V7.78625ZM11.1816 7.2332C11.2342 7.20277 11.277 7.22716 11.2772 7.28753C11.2775 7.34791 11.235 7.42181 11.1823 7.45212C11.1295 7.48255 11.0868 7.45816 11.0866 7.39778C11.0866 7.33717 11.1289 7.2635 11.1816 7.23307V7.2332ZM10.1292 8.95914C10.1819 8.92883 10.2246 8.95323 10.2249 9.01372C10.225 9.0741 10.1826 9.14788 10.1298 9.17831C10.0772 9.20874 10.0344 9.18435 10.0342 9.12373C10.0341 9.06335 10.0764 8.98969 10.1292 8.95914ZM16.2963 9.05816C16.314 9.038 16.3244 9.01252 16.3273 8.98486L16.337 8.974L16.3471 8.96228L16.3577 8.95021L16.3685 8.93813L16.3792 8.92581L16.3897 8.91374L16.4 8.90215C16.4029 8.89889 16.4066 8.89442 16.4097 8.89128C16.4068 8.91881 16.3964 8.94417 16.3785 8.96446L16.2963 9.05816Z" fill="#4C5C75"/>
<path d="M16.0432 8.7825C16.0309 8.78975 16.0204 8.79832 16.0117 8.80835L16.0938 8.71464C16.1026 8.70462 16.1132 8.69592 16.1255 8.68892C16.1997 8.64605 16.3096 8.67866 16.3708 8.76186C16.4015 8.80352 16.4142 8.84989 16.4098 8.89118L16.3276 8.98489C16.3318 8.94359 16.3192 8.89722 16.2886 8.85568C16.2274 8.77236 16.1174 8.73964 16.0432 8.7825Z" fill="#4C5C75"/>
<path d="M16.1248 8.68892C16.1991 8.64605 16.309 8.67866 16.3702 8.76186C16.4314 8.84506 16.4209 8.94733 16.3467 8.9902C16.2724 9.03307 16.1626 9.00035 16.1014 8.91715C16.0401 8.83383 16.0507 8.73179 16.1248 8.68892Z" fill="#78E75A"/>
<path d="M16.3784 8.96444L16.2962 9.05815C16.2874 9.06805 16.2769 9.07674 16.2647 9.08387C16.1904 9.12674 16.0806 9.09401 16.0193 9.01081C15.9682 8.94138 15.9671 8.85866 16.0113 8.80831L16.0934 8.7146C16.0494 8.76495 16.0504 8.84767 16.1016 8.91711C16.1629 9.00031 16.2726 9.03303 16.3469 8.99016C16.3592 8.98304 16.3697 8.97446 16.3784 8.96444Z" fill="#78E75A"/>
<path d="M16.4473 9.02471L16.365 9.11842C16.3521 9.13315 16.3365 9.14619 16.3183 9.15658C16.2082 9.22009 16.0454 9.17167 15.9545 9.04826C15.8788 8.94526 15.8771 8.82269 15.9426 8.74806L16.0249 8.65436C15.9594 8.72898 15.9609 8.85155 16.0369 8.95455C16.1277 9.07797 16.2905 9.12639 16.4005 9.06287C16.4186 9.05237 16.4343 9.03944 16.4473 9.02471Z" fill="#1D2943"/>
<path d="M16.0718 8.6162C16.1819 8.55268 16.3448 8.60111 16.4356 8.7244C16.5264 8.84781 16.5108 8.99936 16.4007 9.06287C16.2907 9.12639 16.1279 9.07797 16.0371 8.95455C15.9463 8.83114 15.9617 8.67972 16.0718 8.6162ZM16.3472 8.99018C16.4214 8.94731 16.4319 8.84503 16.3707 8.76195C16.3095 8.67863 16.1996 8.64603 16.1253 8.68889C16.0511 8.73176 16.0406 8.8338 16.1019 8.91712C16.1631 9.00032 16.2729 9.03305 16.3472 8.99018ZM15.6748 9.41705C15.7057 9.38179 15.7145 9.33059 15.6993 9.27939L15.709 9.2684L15.7191 9.2568C15.7298 9.2446 15.7405 9.23241 15.7512 9.22022L15.7619 9.20814L15.772 9.19655L15.7817 9.18568C15.7968 9.23688 15.7881 9.28808 15.757 9.32334L15.6748 9.41705Z" fill="#4C5C75"/>
<path d="M15.4212 9.14149C15.4088 9.14861 15.3983 9.15718 15.3896 9.16721L15.4718 9.0735C15.4806 9.0636 15.4911 9.05478 15.5034 9.04778C15.5777 9.00491 15.6874 9.03764 15.7487 9.12084C15.764 9.14161 15.7749 9.16358 15.7813 9.18556L15.6991 9.27927C15.6921 9.25596 15.6811 9.23406 15.6665 9.21454C15.6052 9.13134 15.4953 9.09862 15.4212 9.14149Z" fill="#4C5C75"/>
<path d="M15.5038 9.04778C15.5781 9.00491 15.6878 9.03764 15.7491 9.12084C15.8104 9.20416 15.7998 9.3062 15.7256 9.34906C15.6515 9.39193 15.5415 9.35933 15.4803 9.27601C15.419 9.19269 15.4295 9.09065 15.5038 9.04778Z" fill="#6BB4F9"/>
<path d="M15.7564 9.32333L15.6742 9.41703C15.6655 9.42706 15.6549 9.43575 15.6427 9.44275C15.5684 9.48562 15.4585 9.45302 15.3973 9.36982C15.3461 9.30026 15.345 9.21767 15.3893 9.16719L15.4715 9.07349C15.4274 9.12384 15.4283 9.20656 15.4795 9.27599C15.5408 9.35931 15.6508 9.39192 15.7249 9.34905C15.7372 9.34192 15.7477 9.33335 15.7564 9.32333Z" fill="#6BB4F9"/>
<path d="M15.8254 9.3836L15.743 9.47731C15.7301 9.49204 15.7145 9.50508 15.6963 9.51546C15.5863 9.57898 15.4234 9.53056 15.3326 9.40727C15.2567 9.30426 15.255 9.18158 15.3206 9.10695L15.4028 9.01324C15.3374 9.08787 15.339 9.21056 15.4148 9.31344C15.5056 9.43685 15.6685 9.48528 15.7785 9.42176C15.7967 9.41125 15.8123 9.39833 15.8254 9.3836Z" fill="#1D2943"/>
<path d="M15.4496 8.97508C15.5596 8.91157 15.7225 8.95999 15.8132 9.0834C15.9041 9.20681 15.8885 9.35824 15.7784 9.42176C15.6685 9.48527 15.5055 9.43685 15.4147 9.31344C15.3239 9.19015 15.3396 9.0386 15.4496 8.97508ZM15.7249 9.34906C15.7992 9.30619 15.8097 9.20416 15.7483 9.12083C15.6871 9.03751 15.5774 9.00491 15.5032 9.04778C15.4288 9.09065 15.4183 9.1928 15.4795 9.276C15.5408 9.35933 15.6508 9.39193 15.7249 9.34906ZM15.0524 9.77605C15.0702 9.75576 15.0806 9.7304 15.0835 9.70275L15.1657 9.60905C15.1629 9.63682 15.1524 9.66218 15.1347 9.68234L15.0524 9.77605ZM14.7991 9.50049C14.7868 9.50749 14.7763 9.51619 14.7676 9.52621L14.8498 9.4325C14.8586 9.42248 14.8691 9.41379 14.8813 9.40678C14.9556 9.36391 15.0654 9.39664 15.1267 9.47984C15.1573 9.52138 15.1699 9.56775 15.1657 9.60905L15.0835 9.70275C15.0877 9.66145 15.075 9.61508 15.0443 9.57354C14.9831 9.49022 14.8734 9.45762 14.7991 9.50049Z" fill="#4C5C75"/>
<path d="M15.1352 9.68237C15.1907 9.61917 15.1719 9.51198 15.0933 9.44294C15.0147 9.37391 14.9059 9.36918 14.8505 9.43238C14.795 9.49558 14.8137 9.60278 14.8924 9.67181C14.971 9.74084 15.0797 9.74557 15.1352 9.68237Z" fill="#F45170"/>
<path d="M15.1352 9.68234L15.0531 9.77604C15.0443 9.78594 15.0338 9.79464 15.0215 9.80176C14.9472 9.84463 14.8375 9.81191 14.7762 9.72871C14.725 9.65915 14.7239 9.57656 14.7681 9.5262L14.8504 9.4325C14.8062 9.48285 14.8073 9.56545 14.8585 9.635C14.9197 9.7182 15.0296 9.75093 15.1037 9.70806C15.116 9.70093 15.1265 9.69236 15.1352 9.68234Z" fill="#F45170"/>
<path d="M15.2042 9.74249L15.1219 9.83631C15.1089 9.85105 15.0933 9.86397 15.0751 9.87447C14.9651 9.93799 14.8023 9.88945 14.7115 9.76616C14.6357 9.66315 14.634 9.54059 14.6994 9.46596L14.7818 9.37225C14.7162 9.44688 14.7179 9.56945 14.7938 9.67245C14.8845 9.79574 15.0474 9.84428 15.1573 9.78077C15.1755 9.77026 15.1911 9.75722 15.2042 9.74249Z" fill="#1D2943"/>
<path d="M14.8282 9.33397C14.9383 9.27045 15.1012 9.31888 15.192 9.44229C15.2829 9.5657 15.2672 9.71725 15.1572 9.78076C15.0471 9.84428 14.8843 9.79574 14.7935 9.67245C14.7027 9.54903 14.7182 9.39761 14.8282 9.33397ZM15.1036 9.70807C15.1778 9.6652 15.1883 9.56304 15.1271 9.47984C15.0658 9.39652 14.956 9.36392 14.8817 9.40679C14.8076 9.44953 14.7971 9.55169 14.8583 9.63501C14.9195 9.71833 15.0294 9.75094 15.1036 9.70807ZM16.7828 9.53744C16.7809 9.53294 16.7789 9.52851 16.7767 9.52416L16.8017 9.49566L16.859 9.43045C16.8612 9.43492 16.8632 9.43927 16.865 9.44374L16.7828 9.53744Z" fill="#4C5C75"/>
<path d="M16.7975 9.60723C16.7974 9.58324 16.7926 9.5595 16.7832 9.53743L16.7929 9.52656L16.803 9.51485L16.8135 9.50277L16.8244 9.49058L16.8351 9.47826L16.8456 9.46619L16.8559 9.45459L16.8656 9.44373C16.8752 9.46715 16.8799 9.49082 16.8797 9.51352L16.7975 9.60723Z" fill="#4C5C75"/>
<path d="M16.7972 9.60727C16.7976 9.60643 16.7988 9.60558 16.7994 9.60486L16.8018 9.60208C16.803 9.60071 16.8042 9.59934 16.8054 9.59797L16.8066 9.59652L16.8092 9.59363L16.8116 9.59085L16.814 9.58819L16.8162 9.58578L16.8235 9.57732L16.8314 9.56839L16.8396 9.55909L16.8478 9.54967L16.8561 9.54025L16.8642 9.53095L16.8721 9.52202L16.8794 9.51356C16.8792 9.54689 16.8685 9.57769 16.8476 9.60135L16.7654 9.69506C16.7861 9.67139 16.7968 9.64048 16.7972 9.60727ZM16.5119 9.41938C16.4997 9.4265 16.489 9.43507 16.4805 9.4451L16.5626 9.35139C16.5714 9.34149 16.5819 9.33279 16.5941 9.32567C16.6684 9.2828 16.7782 9.31553 16.8396 9.39885C16.8472 9.40911 16.8537 9.41974 16.8592 9.43049L16.8125 9.48362L16.7768 9.52419C16.7713 9.51312 16.7648 9.50254 16.7575 9.49255C16.696 9.40923 16.586 9.37663 16.5119 9.41938Z" fill="#4C5C75"/>
<path d="M16.5935 9.32567C16.6678 9.2828 16.7777 9.31553 16.839 9.39885C16.9004 9.48205 16.8897 9.58433 16.8155 9.62707C16.7413 9.66994 16.6314 9.63722 16.5702 9.55402C16.5089 9.4707 16.5194 9.36842 16.5935 9.32567Z" fill="#B0B8CF"/>
<path d="M16.8473 9.60134L16.7651 9.69505C16.7563 9.70507 16.7458 9.71376 16.7335 9.72077C16.6592 9.76364 16.5495 9.73091 16.4883 9.64771C16.4369 9.57816 16.4358 9.49556 16.48 9.44509L16.5623 9.35138C16.5181 9.40173 16.5193 9.48445 16.5705 9.55401C16.6317 9.63733 16.7416 9.66993 16.8157 9.62706C16.8281 9.62006 16.8386 9.61136 16.8473 9.60134Z" fill="#B0B8CF"/>
<path d="M16.9162 9.66161L16.8339 9.75532C16.8209 9.77017 16.8053 9.78309 16.7871 9.7936C16.6771 9.85711 16.5142 9.80857 16.4235 9.68516C16.3475 9.58216 16.3458 9.45947 16.4114 9.38484L16.4937 9.29114C16.4281 9.36576 16.4298 9.48833 16.5057 9.59145C16.5965 9.71487 16.7593 9.76341 16.8693 9.69977C16.8876 9.68939 16.9031 9.67647 16.9162 9.66161Z" fill="#1D2943"/>
<path d="M16.5408 9.25297C16.6509 9.18946 16.8137 9.23788 16.9047 9.36141C16.9956 9.48482 16.9799 9.63625 16.8698 9.69977C16.7599 9.7634 16.597 9.71486 16.5062 9.59145C16.4153 9.46792 16.4308 9.31649 16.5408 9.25297ZM16.8163 9.62707C16.8905 9.58432 16.9012 9.48205 16.8398 9.39885C16.7785 9.31552 16.6686 9.28292 16.5943 9.32567C16.5202 9.36854 16.5097 9.47069 16.571 9.55402C16.6323 9.63734 16.7421 9.66994 16.8163 9.62707ZM16.1683 9.91555C16.1649 9.90437 16.1606 9.8935 16.1553 9.88307L16.1751 9.86049L16.1857 9.84841C16.1964 9.83626 16.2071 9.8241 16.2178 9.81195L16.228 9.80035L16.2376 9.78949C16.2429 9.80011 16.2473 9.81098 16.2505 9.82185L16.1683 9.91555ZM16.1684 9.91628L16.1683 9.91555L16.2505 9.82185L16.2508 9.82257L16.1684 9.91628Z" fill="#4C5C75"/>
<path d="M16.1715 9.99875C16.1775 9.97303 16.1763 9.94465 16.168 9.91628C16.1781 9.90472 16.1883 9.89317 16.1984 9.88162L16.2093 9.86942L16.2199 9.85711L16.2305 9.84503L16.2407 9.83344L16.2503 9.82257C16.2588 9.85095 16.2597 9.87933 16.2537 9.90505L16.1716 9.99875H16.1715Z" fill="#4C5C75"/>
<path d="M16.1434 10.0541C16.1572 10.0382 16.1668 10.0192 16.1714 9.99876L16.2536 9.90506C16.249 9.92548 16.2394 9.94444 16.2256 9.96024L16.1435 10.0539L16.1434 10.0541ZM15.8899 9.77826C15.8777 9.78539 15.8672 9.79408 15.8584 9.8041L15.9406 9.71028C15.9494 9.70038 15.96 9.69168 15.9723 9.68456C16.0464 9.64169 16.1562 9.67441 16.2176 9.75773C16.2251 9.76812 16.2317 9.77863 16.237 9.78937L16.1549 9.88308C16.1492 9.87204 16.1427 9.8615 16.1353 9.85156C16.0739 9.76824 15.9642 9.73539 15.8899 9.77826Z" fill="#4C5C75"/>
<path d="M16.2263 9.96023L16.1439 10.0539C16.1352 10.064 16.1246 10.0727 16.1125 10.0798C16.0382 10.1225 15.9283 10.0899 15.8671 10.0067C15.8159 9.93716 15.8148 9.85445 15.859 9.80409L15.9412 9.71039C15.897 9.76074 15.8981 9.84346 15.9493 9.91301C16.0105 9.99621 16.1205 10.0289 16.1947 9.98607C16.207 9.97883 16.2176 9.97025 16.2263 9.96023Z" fill="#B28AFD"/>
<path d="M15.9725 9.68456C16.0468 9.64169 16.1565 9.67441 16.218 9.75773C16.2792 9.84106 16.2687 9.94321 16.1944 9.98596C16.1203 10.0288 16.0103 9.99623 15.9491 9.91303C15.8877 9.8297 15.8982 9.72742 15.9725 9.68456Z" fill="#B28AFD"/>
<path d="M15.9191 9.61184C16.0292 9.54832 16.192 9.59686 16.283 9.72028C16.3738 9.84369 16.3582 9.99511 16.2482 10.0588C16.138 10.1223 15.9753 10.0738 15.8843 9.95043C15.7934 9.8269 15.8091 9.67535 15.9191 9.61184ZM16.1946 9.98606C16.2688 9.94319 16.2793 9.84103 16.2181 9.75783C16.1566 9.67451 16.0469 9.64166 15.9727 9.68453C15.8985 9.7274 15.8878 9.82968 15.9492 9.913C16.0104 9.9962 16.1204 10.0289 16.1946 9.98606Z" fill="#4C5C75"/>
<path d="M16.2942 10.0206L16.2118 10.1143C16.1989 10.129 16.1833 10.1419 16.1651 10.1524C16.0552 10.2159 15.8922 10.1675 15.8014 10.0441C15.7254 9.94098 15.7239 9.8183 15.7893 9.74367L15.8717 9.64996C15.8061 9.72471 15.8077 9.84728 15.8837 9.9504C15.9744 10.0738 16.1373 10.1222 16.2474 10.0587C16.2656 10.0482 16.2813 10.0353 16.2942 10.0206Z" fill="#1D2943"/>
<path d="M15.5216 10.4129C15.5392 10.3928 15.5497 10.3674 15.5525 10.3397L15.6348 10.246C15.632 10.2737 15.6215 10.299 15.6038 10.3192L15.5216 10.4129Z" fill="#4C5C75"/>
<path d="M15.2687 10.1372C15.2565 10.1443 15.246 10.1529 15.2373 10.1629L15.3194 10.0692C15.3282 10.0593 15.3387 10.0506 15.3511 10.0435C15.4252 10.0006 15.5351 10.0334 15.5964 10.1167C15.627 10.1583 15.6398 10.2047 15.6354 10.2459L15.5533 10.3397C15.5574 10.2984 15.5449 10.252 15.5141 10.2105C15.4527 10.1272 15.343 10.0943 15.2687 10.1372Z" fill="#4C5C75"/>
<path d="M15.3504 10.0435C15.4246 10.0006 15.5345 10.0334 15.5958 10.1167C15.657 10.2 15.6465 10.302 15.5724 10.3449C15.4981 10.3878 15.3883 10.3551 15.327 10.2719C15.2657 10.1885 15.2763 10.0864 15.3504 10.0435Z" fill="#FFD06C"/>
<path d="M15.604 10.3192L15.5219 10.4129C15.5131 10.423 15.5026 10.4317 15.4903 10.4387C15.4162 10.4815 15.3063 10.4488 15.245 10.3656C15.1938 10.2961 15.1926 10.2135 15.2368 10.163L15.3192 10.0693C15.275 10.1196 15.2761 10.2023 15.3273 10.2719C15.3886 10.3552 15.4984 10.3878 15.5727 10.345C15.5848 10.338 15.5954 10.3293 15.604 10.3192Z" fill="#FFD06C"/>
<path d="M15.673 10.3794L15.5908 10.4732C15.5777 10.488 15.5622 10.5009 15.544 10.5113C15.4339 10.5748 15.2711 10.5264 15.1803 10.403C15.1044 10.2999 15.1027 10.1773 15.1683 10.1027L15.2505 10.009C15.185 10.0836 15.1867 10.2062 15.2626 10.3093C15.3535 10.4327 15.5161 10.4811 15.6263 10.4176C15.6444 10.4071 15.6601 10.3942 15.673 10.3794Z" fill="#1D2943"/>
<path d="M15.297 9.97073C15.4071 9.90733 15.5699 9.95576 15.6609 10.0793C15.7517 10.2026 15.736 10.3541 15.6259 10.4176C15.516 10.4812 15.3532 10.4327 15.2624 10.3093C15.1714 10.1858 15.1869 10.0342 15.297 9.97073ZM15.5725 10.3451C15.6467 10.3021 15.6572 10.1999 15.5959 10.1168C15.5346 10.0334 15.4247 10.0007 15.3506 10.0435C15.2763 10.0864 15.2658 10.1884 15.3271 10.2719C15.3885 10.3552 15.4983 10.3879 15.5725 10.3451Z" fill="#4C5C75"/>
<path d="M10.4765 2.70964C10.4889 2.56486 10.4005 2.41766 10.2096 2.30729C9.85242 2.10116 9.27328 2.10104 8.9185 2.30729C8.74171 2.40993 8.65356 2.54481 8.6538 2.67982L8.65368 2.67861L8.65332 2.79804C8.65296 2.93425 8.74268 3.07082 8.92236 3.17455C9.27955 3.38068 9.85869 3.3808 10.2136 3.17455C10.3898 3.07215 10.4779 2.93787 10.4783 2.80335L10.4786 2.6838C10.4786 2.6925 10.4772 2.70107 10.4765 2.70964ZM8.82371 2.73802C8.84266 2.66014 8.8964 2.58466 8.98817 2.52103L9.36952 2.74116L8.99168 2.96081C8.89688 2.89561 8.84218 2.81784 8.82371 2.73802ZM9.40526 3.10463C9.33854 3.09647 9.27267 3.08241 9.20843 3.06261L9.40562 2.94789L9.40526 3.10463ZM9.55536 2.62113L9.20505 2.41875C9.42808 2.34835 9.69978 2.34847 9.92354 2.41911L9.57697 2.62065C9.56961 2.62041 9.5626 2.62077 9.55536 2.62113ZM9.72997 3.10488L9.73033 2.94946L9.9268 3.06297C9.86257 3.08277 9.7967 3.09679 9.72997 3.10488ZM10.1438 2.96081L9.76233 2.74068L10.1403 2.52103C10.2351 2.58623 10.29 2.66412 10.3084 2.74406C10.2894 2.82183 10.2354 2.8973 10.1438 2.96081Z" fill="#1D2943"/>
<path d="M9.73083 2.71422L9.72998 3.13542C9.72998 3.15932 9.71428 3.18323 9.68289 3.20147C9.61961 3.23818 9.51685 3.23818 9.45321 3.20147C9.42121 3.18299 9.40515 3.15872 9.40527 3.13445L9.40612 2.71326C9.406 2.73741 9.42194 2.76168 9.45406 2.78028C9.5177 2.81699 9.62046 2.81699 9.68361 2.78028C9.71501 2.76204 9.73083 2.73813 9.73083 2.71422Z" fill="#DF3260"/>
<path d="M9.73042 2.71428C9.7306 2.66233 9.65802 2.61997 9.56832 2.61967C9.47863 2.61936 9.40577 2.66123 9.40559 2.71318C9.40542 2.76514 9.47799 2.8075 9.56769 2.8078C9.65739 2.8081 9.73024 2.76624 9.73042 2.71428Z" fill="#DBA660"/>
<path d="M10.0469 2.34747L10.0465 2.46701C9.76742 2.33177 9.35855 2.33165 9.08105 2.46701L9.08142 2.34747C9.35891 2.21222 9.76779 2.21222 10.0469 2.34747Z" fill="#1D2943"/>
<path d="M10.1406 2.40155L10.1403 2.52098L9.65918 2.80064L9.65954 2.6811L10.1406 2.40155Z" fill="#111D33"/>
<path d="M9.47299 2.6811L9.47263 2.80064L8.98828 2.52098L8.98864 2.40155L9.47299 2.6811Z" fill="#1D2943"/>
<path d="M8.81445 2.79847L8.81482 2.67892C8.81506 2.58015 8.87278 2.48161 8.98834 2.40155L8.98798 2.5211C8.87254 2.60104 8.81469 2.69969 8.81445 2.79847ZM10.3171 2.68339L10.3168 2.80294C10.3171 2.70271 10.2581 2.60224 10.14 2.52098L10.1403 2.40143C10.2584 2.4827 10.3174 2.58316 10.3171 2.68339ZM10.0505 3.01474L10.0501 3.13429L9.56591 2.85462L9.56627 2.73519L10.0505 3.01474Z" fill="#1D2943"/>
<path d="M9.56653 2.73523L9.56617 2.85466L9.08496 3.13432L9.08532 3.01478L9.56653 2.73523Z" fill="#111D33"/>
<path d="M10.4786 2.6839L10.4783 2.80345C10.4779 2.93785 10.3898 3.07213 10.2136 3.17453C9.85857 3.38078 9.27955 3.38066 8.92236 3.17453C8.74268 3.07068 8.65296 2.93423 8.65332 2.79801L8.65368 2.67847C8.65332 2.8148 8.74304 2.95137 8.92272 3.0551C9.27992 3.26123 9.85906 3.26123 10.2138 3.0551C10.3901 2.9527 10.4783 2.81842 10.4786 2.6839Z" fill="#1D2943"/>
<path d="M10.2091 2.30724C10.5662 2.51337 10.5683 2.84883 10.2135 3.05496C9.85871 3.26121 9.27957 3.26121 8.92238 3.05496C8.56531 2.84883 8.56338 2.51337 8.91816 2.30712C9.27293 2.101 9.85207 2.10112 10.2091 2.30724ZM10.1402 2.40143L9.65911 2.6811L10.1433 2.96077C10.3761 2.79956 10.3747 2.56276 10.1402 2.40155M9.5654 2.62712L10.0466 2.34746C9.76754 2.21221 9.35867 2.21221 9.08117 2.34746L9.5654 2.62712ZM9.08492 3.01475C9.3641 3.14999 9.77274 3.14999 10.0504 3.01475L9.56613 2.7352L9.08492 3.01475ZM8.99133 2.96077L9.47254 2.6811L8.98831 2.40155C8.75562 2.56276 8.75695 2.79968 8.99133 2.96077Z" fill="#4C5C75"/>
<path d="M8.83008 1.87604L8.91787 2.32875C8.91787 2.34046 8.92559 2.35229 8.94105 2.36135C8.97196 2.3791 9.02196 2.3791 9.05263 2.36135C9.06784 2.35241 9.07557 2.34082 9.07557 2.32923L9.16409 1.87604H8.83008Z" fill="#BF7D5A"/>
<path d="M9.16441 1.87664C9.16459 1.82322 9.08997 1.77966 8.99774 1.77935C8.9055 1.77903 8.83059 1.82209 8.83041 1.8755C8.83022 1.92892 8.90485 1.97248 8.99708 1.97279C9.08931 1.97311 9.16423 1.93005 9.16441 1.87664Z" fill="#DBA660"/>
<path d="M13.3219 19.1768L10.6542 17.6367C10.6216 17.6179 10.5921 17.6162 10.5708 17.6285L10.3955 17.7304C10.4168 17.7181 10.4462 17.7198 10.4788 17.7386L13.1464 19.2787C13.211 19.3161 13.2633 19.4066 13.2631 19.4809L13.2604 20.4016C13.2604 20.4384 13.2474 20.4644 13.2264 20.4766L13.4017 20.3747C13.4227 20.3626 13.4357 20.3365 13.4359 20.2997L13.4385 19.3789C13.4386 19.3047 13.3866 19.2141 13.3219 19.1768Z" fill="#1D2943"/>
<path d="M13.1461 19.2788C13.2107 19.3162 13.263 19.4066 13.2628 19.4809L13.2601 20.4017C13.26 20.4759 13.2074 20.5059 13.1428 20.4686L10.475 18.9283C10.4104 18.891 10.3582 18.8006 10.3584 18.7263L10.3611 17.8055C10.3612 17.7313 10.4138 17.7013 10.4784 17.7386L13.1461 19.2788Z" fill="#4C5C75"/>
<path d="M12.3086 19.5227L12.3251 19.513L12.3428 19.5029L12.3086 19.5227Z" fill="#4C5C75"/>
<path d="M12.4507 19.44C12.451 19.3749 12.4738 19.3291 12.5109 19.3076L12.3686 19.3903C12.3317 19.4118 12.3087 19.4576 12.3086 19.5226L12.4507 19.4401L12.3428 19.5029L12.3086 19.5226C12.3082 19.6529 12.4 19.8113 12.514 19.877L12.6562 19.7944C12.5423 19.7286 12.4504 19.5703 12.4507 19.44Z" fill="#4C5C75"/>
<path d="M12.6569 19.7944C12.6096 19.822 12.5621 19.8496 12.5146 19.877C12.5719 19.9101 12.6237 19.9132 12.6611 19.8915L12.8034 19.8087C12.7659 19.8305 12.714 19.8275 12.6569 19.7944Z" fill="#4C5C75"/>
<path d="M12.5114 19.3076L12.3691 19.3903C12.4066 19.3686 12.4585 19.3716 12.5159 19.4048L12.6581 19.3221C12.6007 19.289 12.5488 19.2859 12.5114 19.3076Z" fill="#F45170"/>
<path d="M12.4469 19.198L12.3047 19.2806C12.3584 19.2494 12.4328 19.2541 12.5155 19.3018L12.6577 19.2192C12.5751 19.1715 12.5007 19.1668 12.4469 19.198Z" fill="#9EA9C9"/>
<path d="M12.6608 19.8914L12.803 19.8087C12.8397 19.7875 12.8626 19.7421 12.8627 19.6776C12.863 19.5466 12.7713 19.3875 12.6579 19.3221L12.5156 19.4047C12.6291 19.4701 12.7209 19.6293 12.7204 19.7602C12.7203 19.8248 12.6975 19.8701 12.6608 19.8914Z" fill="#F45170"/>
<path d="M12.5153 19.4047C12.4013 19.3389 12.3088 19.3915 12.3086 19.5225C12.3082 19.653 12.4 19.8112 12.514 19.877C12.6274 19.9424 12.7198 19.8905 12.7201 19.7602C12.7205 19.6292 12.6287 19.4701 12.5153 19.4047Z" fill="#FFD06C"/>
<path d="M12.8111 19.8122C12.8106 19.9995 12.6774 20.0748 12.5145 19.9806C12.3503 19.8858 12.2192 19.6581 12.2197 19.471C12.2202 19.2821 12.3521 19.207 12.5164 19.3019C12.6794 19.396 12.8117 19.6235 12.8111 19.8122ZM12.5147 19.877C12.6281 19.9424 12.7205 19.8905 12.7209 19.7602C12.7212 19.6292 12.6294 19.4703 12.5161 19.4047C12.4021 19.3389 12.3096 19.3915 12.3093 19.5225C12.3088 19.653 12.4007 19.8111 12.5147 19.877Z" fill="#1D2943"/>
<path d="M12.7243 20.0012L12.8664 19.9185C12.9194 19.8878 12.9522 19.8225 12.9525 19.7296C12.953 19.5409 12.8208 19.3132 12.6579 19.2192L12.5156 19.3018C12.6786 19.396 12.8109 19.6236 12.8103 19.8123C12.81 19.9052 12.7772 19.9705 12.7243 20.0012Z" fill="#9EA9C9"/>
<path d="M11.6247 18.9627C11.6249 18.8978 11.6477 18.852 11.6847 18.8305L11.5426 18.9131C11.5055 18.9346 11.4827 18.9804 11.4824 19.0454L11.6247 18.963L11.5167 19.0258L11.4824 19.0454C11.4822 19.1756 11.574 19.3341 11.6879 19.3999L11.8302 19.3171C11.7161 19.2513 11.6243 19.093 11.6247 18.9627ZM11.8302 19.3171C11.7827 19.3449 11.7354 19.3723 11.6879 19.3999C11.7452 19.4328 11.797 19.4361 11.8344 19.4144L11.9767 19.3316C11.9392 19.3534 11.8873 19.3502 11.8302 19.3171Z" fill="#4C5C75"/>
<path d="M11.6842 18.8305L11.542 18.9131C11.5794 18.8914 11.6314 18.8945 11.6887 18.9276L11.831 18.8449C11.7736 18.8118 11.7217 18.8086 11.6842 18.8304V18.8305Z" fill="#F45170"/>
<path d="M11.6208 18.7208L11.4785 18.8034C11.5321 18.7723 11.6065 18.7769 11.6892 18.8247L11.8315 18.742C11.7489 18.6943 11.6745 18.6896 11.6208 18.7208Z" fill="#9EA9C9"/>
<path d="M11.8346 19.4142L11.9768 19.3316C12.0136 19.3102 12.0363 19.265 12.0365 19.2004C12.0369 19.0695 11.9451 18.9104 11.8317 18.8448L11.6895 18.9276C11.8028 18.993 11.8947 19.152 11.8943 19.2831C11.8941 19.3476 11.8713 19.393 11.8346 19.4142Z" fill="#F45170"/>
<path d="M11.6893 18.9276C11.5753 18.8618 11.4828 18.9143 11.4824 19.0455C11.4821 19.1758 11.574 19.3341 11.6879 19.3999C11.8013 19.4653 11.8937 19.4134 11.8941 19.2831C11.8944 19.1521 11.8027 18.993 11.6893 18.9276Z" fill="#F45170"/>
<path d="M11.9839 19.3353C11.9834 19.5224 11.8502 19.5976 11.6872 19.5035C11.523 19.4086 11.392 19.1811 11.3926 18.9938C11.3931 18.805 11.5249 18.7298 11.6892 18.8247C11.8522 18.9189 11.9844 19.1465 11.9839 19.3353ZM11.6876 19.3999C11.801 19.4653 11.8934 19.4134 11.8937 19.2831C11.8941 19.1521 11.8023 18.9931 11.6889 18.9276C11.5749 18.8618 11.4824 18.9143 11.4821 19.0455C11.4817 19.1758 11.5736 19.3341 11.6876 19.3999Z" fill="#1D2943"/>
<path d="M11.898 19.524L12.0404 19.4415C12.0933 19.4107 12.1261 19.3455 12.1265 19.2527C12.1269 19.0639 11.9947 18.8363 11.8318 18.7421L11.6895 18.8248C11.8525 18.919 11.9847 19.1465 11.9842 19.3353C11.984 19.4281 11.9511 19.4935 11.8981 19.5241L11.898 19.524Z" fill="#9EA9C9"/>
<path d="M10.7985 18.4857L10.6563 18.5683C10.6559 18.6986 10.7478 18.8569 10.8618 18.9226L11.0039 18.84C10.89 18.7742 10.7981 18.6159 10.7985 18.4857Z" fill="#4C5C75"/>
<path d="M10.6562 18.5685L10.6904 18.5485L10.6562 18.5682V18.5685ZM10.7985 18.4856C10.7986 18.4205 10.8216 18.3748 10.8585 18.3533L10.7163 18.436C10.6793 18.4575 10.6565 18.5031 10.6562 18.5682L10.7985 18.4857V18.4856ZM11.0039 18.84C10.9566 18.8677 10.9092 18.8952 10.8618 18.9226C10.9189 18.9557 10.9708 18.9589 11.0082 18.9371L11.1505 18.8544C11.1131 18.8761 11.0611 18.8731 11.0039 18.84Z" fill="#4C5C75"/>
<path d="M10.8581 18.3533L10.7158 18.436C10.7533 18.4142 10.8052 18.4173 10.8625 18.4505L11.0048 18.3678C10.9473 18.3347 10.8956 18.3315 10.8581 18.3533Z" fill="#F45170"/>
<path d="M10.7946 18.2436L10.6523 18.3262C10.706 18.2951 10.7803 18.2998 10.8631 18.3475L11.0053 18.2649C10.9226 18.2172 10.8482 18.2125 10.7946 18.2436Z" fill="#9EA9C9"/>
<path d="M11.0075 18.9371L11.1497 18.8544C11.1864 18.8331 11.2091 18.7877 11.2094 18.7232C11.2097 18.5922 11.1178 18.4332 11.0046 18.3677L10.8623 18.4503C10.9757 18.5158 11.0676 18.6749 11.0671 18.8058C11.0669 18.8704 11.0442 18.9157 11.0075 18.9371Z" fill="#F45170"/>
<path d="M11.1577 18.858C11.1571 19.0452 11.0241 19.1204 10.8611 19.0262C10.6968 18.9314 10.5658 18.7038 10.5664 18.5166C10.5669 18.3278 10.6988 18.2527 10.863 18.3476C11.026 18.4416 11.1583 18.6693 11.1577 18.858ZM10.8614 18.9226C10.9748 18.9881 11.0672 18.9361 11.0675 18.8058C11.0679 18.6748 10.9761 18.5159 10.8627 18.4503C10.7487 18.3845 10.6563 18.4372 10.6559 18.5682C10.6555 18.6986 10.7474 18.8568 10.8614 18.9226Z" fill="#1D2943"/>
<path d="M10.8631 18.4503C10.7491 18.3845 10.6566 18.4372 10.6563 18.5682C10.6559 18.6986 10.7478 18.8568 10.8618 18.9226C10.9752 18.9881 11.0675 18.9361 11.0679 18.8058C11.0683 18.6748 10.9765 18.5158 10.8631 18.4503Z" fill="#78E75A"/>
<path d="M11.0719 19.0469L11.2142 18.9642C11.2671 18.9335 11.2999 18.8682 11.3003 18.7753C11.3008 18.5866 11.1685 18.359 11.0055 18.2649L10.8633 18.3475C11.0263 18.4417 11.1585 18.6693 11.1579 18.858C11.1578 18.9509 11.125 19.0162 11.0719 19.0469Z" fill="#9EA9C9"/>
<path d="M8.91339 25.9895C8.64471 25.8345 8.42675 25.9593 8.42578 26.2679C8.42494 26.5764 8.64157 26.9524 8.91025 27.1075C9.17893 27.2626 9.39713 27.1377 9.3981 26.8291C9.39895 26.5206 9.18207 26.1447 8.91339 25.9895Z" fill="#1D2943"/>
<path d="M8.91272 26.1886C8.73968 26.0886 8.59912 26.169 8.59863 26.3678C8.59803 26.5665 8.7375 26.8088 8.91066 26.9086C9.08371 27.0085 9.22427 26.9281 9.22487 26.7293C9.22547 26.5305 9.08576 26.2884 8.91272 26.1886Z" fill="#4C5C75"/>
<path d="M8.38336 25.5855C8.33868 25.5598 8.30221 25.5805 8.30209 25.6319C8.30197 25.6834 8.33807 25.746 8.38287 25.7718C8.38905 25.7755 8.39566 25.7783 8.40256 25.7803L8.82641 26.5145L8.3999 26.7577C8.39379 26.7523 8.38716 26.7475 8.3801 26.7434C8.33542 26.7177 8.29895 26.7383 8.29883 26.7898C8.29871 26.8413 8.33481 26.9038 8.37961 26.9296C8.42441 26.9556 8.46088 26.9349 8.461 26.8834C8.461 26.8753 8.46019 26.8673 8.45859 26.8595L8.88509 26.6163L9.30894 27.3504C9.30724 27.3574 9.30642 27.3645 9.30653 27.3716C9.30629 27.423 9.34251 27.4856 9.38719 27.5114C9.43211 27.5373 9.46846 27.5167 9.46858 27.4652C9.46882 27.4138 9.43259 27.3511 9.38767 27.3252C9.38154 27.3215 9.37497 27.3187 9.36811 27.3166L8.94426 26.5824L9.37101 26.3395C9.37705 26.3449 9.38369 26.3496 9.39045 26.3535C9.43537 26.3795 9.47172 26.3588 9.47196 26.3074C9.47196 26.2559 9.43586 26.1933 9.39106 26.1673C9.34638 26.1416 9.30991 26.1623 9.30979 26.2137C9.30979 26.2216 9.31039 26.2294 9.31208 26.2377L8.88546 26.4809L8.46185 25.7467C8.46355 25.7398 8.46437 25.7327 8.46426 25.7256C8.46438 25.6741 8.42828 25.6115 8.38336 25.5855Z" fill="white"/>
<path d="M6.37726 24.512C6.10858 24.3569 5.89062 24.4818 5.88965 24.7903C5.88869 25.0989 6.10544 25.4749 6.37412 25.6299C6.6428 25.7851 6.86112 25.6601 6.86197 25.3516C6.86281 25.0431 6.64594 24.6672 6.37726 24.512Z" fill="#1D2943"/>
<path d="M6.37658 24.711C6.20354 24.611 6.06298 24.6915 6.0625 24.8902C6.06202 25.089 6.20137 25.3311 6.37453 25.4311C6.54757 25.5309 6.68813 25.4505 6.68874 25.2518C6.68934 25.053 6.54963 24.8109 6.37658 24.711Z" fill="#4C5C75"/>
<path d="M5.84722 24.1081C5.80254 24.0823 5.76608 24.103 5.76596 24.1543C5.76584 24.2059 5.80206 24.2685 5.84674 24.2943C5.85291 24.298 5.85953 24.3008 5.86642 24.3028L6.29027 25.0369L5.86377 25.2801C5.85766 25.2747 5.85102 25.27 5.84396 25.2659C5.79928 25.2401 5.76282 25.2608 5.7627 25.3123C5.76257 25.3638 5.7988 25.4263 5.84348 25.4521C5.88828 25.4781 5.92475 25.4574 5.92487 25.4058C5.92487 25.3978 5.92406 25.3898 5.92245 25.3819L6.34896 25.1387L6.77281 25.8728C6.77109 25.8798 6.77028 25.8869 6.77039 25.8941C6.77015 25.9455 6.80638 26.0081 6.85106 26.0339C6.89598 26.0597 6.93233 26.0392 6.93257 25.9876C6.93257 25.9363 6.89646 25.8735 6.85166 25.8476C6.84549 25.8439 6.83887 25.8411 6.83198 25.8391L6.40813 25.1049L6.83488 24.862C6.84087 24.8673 6.84739 24.872 6.85432 24.876C6.89924 24.9019 6.93571 24.8813 6.93583 24.8297C6.93595 24.7784 6.89972 24.7157 6.85492 24.6898C6.81024 24.6641 6.77378 24.6848 6.77365 24.7361C6.77365 24.7441 6.77438 24.7518 6.77607 24.7602L6.34932 25.0034L5.92571 24.2692C5.92742 24.2623 5.92823 24.2552 5.92813 24.2481C5.92837 24.1966 5.89214 24.1339 5.84722 24.108V24.1081Z" fill="white"/>
<path d="M8.91339 23.4678C8.64471 23.3127 8.42675 23.4375 8.42578 23.746C8.42494 24.0546 8.64157 24.4307 8.91025 24.5858C9.17893 24.7408 9.39713 24.616 9.3981 24.3074C9.39895 23.9988 9.18207 23.6229 8.91339 23.4678Z" fill="#1D2943"/>
<path d="M8.91272 23.6667C8.73968 23.5668 8.59912 23.6471 8.59863 23.8459C8.59803 24.0447 8.7375 24.2869 8.91066 24.3869C9.08383 24.4869 9.22427 24.4062 9.22487 24.2076C9.22547 24.0089 9.08576 23.7666 8.91272 23.6667Z" fill="#4C5C75"/>
<path d="M8.38336 23.0638C8.33868 23.0379 8.30221 23.0587 8.30209 23.1102C8.30197 23.1617 8.33807 23.2241 8.38287 23.25C8.38904 23.2537 8.39565 23.2566 8.40256 23.2586L8.82641 23.9928L8.3999 24.2358C8.39378 24.2305 8.38715 24.2257 8.3801 24.2217C8.33542 24.1959 8.29895 24.2166 8.29883 24.268C8.29871 24.3195 8.33481 24.3821 8.37961 24.4079C8.42441 24.4337 8.46088 24.4132 8.461 24.3617C8.46101 24.3536 8.4602 24.3455 8.45859 24.3376L8.88509 24.0944L9.30894 24.8286C9.30724 24.8355 9.30642 24.8426 9.30653 24.8497C9.30629 24.9013 9.34251 24.9639 9.38719 24.9896C9.43211 25.0155 9.46846 24.9949 9.46858 24.9433C9.46882 24.892 9.43259 24.8293 9.38767 24.8034C9.38154 24.7997 9.37496 24.7969 9.36811 24.7949L8.94426 24.0607L9.37101 23.8178C9.37701 23.8231 9.38352 23.8278 9.39045 23.8318C9.43537 23.8576 9.47172 23.8371 9.47196 23.7855C9.47196 23.7341 9.43586 23.6714 9.39106 23.6455C9.34638 23.6197 9.30991 23.6405 9.30979 23.6918C9.30979 23.6998 9.31039 23.7076 9.31208 23.7159L8.88546 23.9592L8.46185 23.225C8.46356 23.218 8.46438 23.2109 8.46426 23.2037C8.46438 23.1524 8.42828 23.0897 8.38336 23.0638Z" fill="white"/>
<path d="M6.37726 21.9903C6.10858 21.8351 5.89062 21.96 5.88965 22.2685C5.88869 22.577 6.10544 22.9531 6.37412 23.1082C6.6428 23.2634 6.86112 23.1384 6.86197 22.8299C6.86281 22.5214 6.64594 22.1453 6.37726 21.9903Z" fill="#1D2943"/>
<path d="M6.37658 22.1892C6.20354 22.0892 6.06298 22.1696 6.0625 22.3684C6.06202 22.5671 6.20137 22.8094 6.37453 22.9093C6.54757 23.0092 6.68813 22.9287 6.68874 22.73C6.68934 22.5314 6.54963 22.2891 6.37658 22.1892Z" fill="#4C5C75"/>
<path d="M5.84722 21.5862C5.80254 21.5604 5.76608 21.5812 5.76596 21.6326C5.76584 21.6842 5.80206 21.7466 5.84674 21.7724C5.85291 21.7761 5.85952 21.779 5.86642 21.781L6.29027 22.5152L5.86377 22.7583C5.85765 22.7529 5.85102 22.7482 5.84396 22.7442C5.79928 22.7183 5.76282 22.7391 5.7627 22.7904C5.76257 22.842 5.7988 22.9045 5.84348 22.9304C5.88828 22.9562 5.92475 22.9357 5.92487 22.8841C5.92488 22.876 5.92407 22.868 5.92245 22.8601L6.34896 22.6169L6.77281 23.3511C6.7711 23.358 6.77029 23.3651 6.77039 23.3722C6.77015 23.4238 6.80638 23.4862 6.85106 23.512C6.89598 23.538 6.93233 23.5174 6.93257 23.4658C6.93257 23.4145 6.89646 23.3518 6.85166 23.3258C6.84549 23.3222 6.83887 23.3194 6.83198 23.3174L6.40813 22.5832L6.83488 22.3402C6.84087 22.3455 6.84739 22.3502 6.85432 22.3542C6.89924 22.3801 6.93571 22.3596 6.93583 22.308C6.93595 22.2566 6.89972 22.1939 6.85492 22.1679C6.81024 22.1422 6.77378 22.163 6.77365 22.2143C6.77365 22.2223 6.77438 22.2301 6.77607 22.2383L6.34932 22.4816L5.92571 21.7475C5.92743 21.7405 5.92824 21.7334 5.92813 21.7262C5.92837 21.6749 5.89214 21.6122 5.84722 21.5862Z" fill="white"/>
<path d="M25.4348 18.6591V22.6887L21.9365 24.721V20.6914L25.4348 18.6591Z" fill="#C9CEE2"/>
<path d="M16.7216 8.22048C16.6999 8.23304 16.6982 8.2613 16.7177 8.28327L16.8961 8.48276C16.9158 8.50474 16.9496 8.51247 16.9714 8.49991L17.2071 8.3637C17.2289 8.35114 17.2307 8.32288 17.2111 8.3009L17.0327 8.10142C17.0131 8.07944 16.9793 8.07171 16.9574 8.08427L16.7216 8.22048Z" fill="#57B3FE"/>
<path d="M17.0871 8.62964C17.0653 8.6422 17.063 8.66998 17.0832 8.69244L17.2616 8.89192C17.2811 8.9139 17.3151 8.92163 17.3368 8.90907L17.5726 8.77286C17.5944 8.7603 17.596 8.73204 17.5765 8.71007L17.3981 8.51058C17.378 8.48812 17.3446 8.48087 17.3229 8.49343L17.0871 8.62964Z" fill="#F45170"/>
<path d="M17.1974 8.39365L17.2203 8.3497C17.2172 8.35559 17.2124 8.36045 17.2066 8.3637L16.9709 8.49992C16.9491 8.51247 16.9152 8.50475 16.8955 8.48277L16.7172 8.28328C16.7032 8.26758 16.7 8.2485 16.7075 8.2345L16.6846 8.27833C16.6772 8.29234 16.6802 8.3113 16.6942 8.327L16.8727 8.5266C16.8923 8.54858 16.9262 8.55631 16.9479 8.54363L17.1838 8.40754C17.1896 8.40428 17.1943 8.39953 17.1974 8.39365Z" fill="#5094FF"/>
<path d="M17.5638 8.80265L17.5867 8.75882C17.5836 8.76469 17.5788 8.76956 17.5731 8.77282L17.3372 8.90904C17.3155 8.92159 17.2817 8.91387 17.262 8.89189L17.0836 8.69228C17.0693 8.67634 17.0662 8.65775 17.0736 8.64374L17.0507 8.68757C17.0434 8.70158 17.0464 8.72018 17.0607 8.73612L17.239 8.93584C17.2586 8.95782 17.2925 8.96543 17.3143 8.95287L17.5501 8.81678C17.5559 8.81351 17.5606 8.80853 17.5638 8.80265Z" fill="#DF3260"/>
<path d="M17.9385 9.18194L17.7026 9.31803C17.6809 9.33058 17.6471 9.32286 17.6274 9.301L17.449 9.10139C17.4345 9.08533 17.4314 9.06625 17.4389 9.05212L17.416 9.09596C17.4086 9.11009 17.4117 9.12917 17.4261 9.14523L17.6045 9.34483C17.6241 9.36681 17.6579 9.37442 17.6797 9.36186L17.9155 9.22577C17.9213 9.2225 17.926 9.21764 17.9292 9.21176L17.9521 9.16793C17.949 9.17381 17.9443 9.17867 17.9385 9.18194Z" fill="#5EC363"/>
<path d="M17.452 9.03828C17.4303 9.05083 17.4286 9.07897 17.4486 9.10143L17.627 9.30104C17.6465 9.32302 17.6805 9.33062 17.7022 9.31806L17.938 9.18197C17.9598 9.16942 17.9616 9.14116 17.9419 9.11918L17.7635 8.91969C17.7435 8.89723 17.7096 8.88951 17.6878 8.90206L17.452 9.03828Z" fill="#78E75A"/>
<path d="M23.8386 18.167C23.8842 18.1406 23.9211 18.1618 23.9212 18.2141C23.9213 18.2663 23.8847 18.3297 23.8391 18.3562C23.7938 18.3823 23.757 18.3613 23.7568 18.309C23.7567 18.2567 23.7932 18.1932 23.8386 18.167Z" fill="#C9CEE2"/>
<path d="M22.237 23.4067C22.2159 23.419 22.2029 23.4451 22.2028 23.4821L22.2021 23.6776L22.4361 23.5416L22.4367 23.3461C22.4367 23.3092 22.4499 23.2831 22.471 23.2709L22.237 23.4067Z" fill="#4C5C75"/>
<path d="M22.2012 23.3453L22.4352 23.2093C22.4657 23.1916 22.508 23.194 22.5547 23.2209C22.5873 23.2397 22.6168 23.2414 22.6382 23.229L22.4043 23.365C22.3829 23.3774 22.3533 23.3757 22.3207 23.3569C22.2741 23.3299 22.2317 23.3274 22.2012 23.3453Z" fill="#4C5C75"/>
<path d="M22.5571 22.2159C22.4922 22.1784 22.4397 22.0875 22.44 22.013L22.4404 21.8492L22.2065 21.9852L22.2061 22.1491C22.2058 22.2235 22.2583 22.3145 22.3232 22.3518C22.4158 22.4053 22.4909 22.5354 22.4906 22.6419L22.4887 23.3188C22.4885 23.3717 22.4698 23.409 22.4396 23.4265L22.6735 23.2906C22.7037 23.2731 22.7225 23.2357 22.7226 23.1829L22.7246 22.5059C22.7248 22.3995 22.6497 22.2694 22.5571 22.2159Z" fill="#4C5C75"/>
<path d="M22.1562 21.956L22.3902 21.82L22.4407 21.8492L22.2068 21.9852L22.1562 21.956Z" fill="#111D33"/>
<path d="M22.3201 21.9762C22.3615 21.9524 22.395 21.9715 22.395 22.0189C22.3952 22.0663 22.362 22.1237 22.3207 22.1476C22.2795 22.1714 22.2462 22.1522 22.2461 22.1049C22.246 22.0576 22.2791 21.9998 22.3201 21.9762ZM22.3201 23.3885C22.3615 23.3647 22.395 23.3838 22.395 23.4313C22.3952 23.4786 22.362 23.5361 22.3207 23.56C22.2795 23.5838 22.2462 23.5646 22.2461 23.5172C22.246 23.4699 22.2791 23.4122 22.3201 23.3885Z" fill="#C9CEE2"/>
<path d="M22.2068 21.9852L22.2063 22.1491C22.2061 22.2235 22.2586 22.3145 22.3234 22.3519C22.4161 22.4053 22.4912 22.5355 22.4908 22.6419L22.4889 23.3188C22.4886 23.4253 22.413 23.4684 22.3204 23.415C22.2556 23.3775 22.2027 23.4077 22.2026 23.4821L22.202 23.6776L22.1514 23.6484L22.152 23.4529C22.1522 23.3465 22.2279 23.3034 22.3205 23.3569C22.3853 23.3943 22.4382 23.3641 22.4384 23.2897L22.4403 22.6128C22.4405 22.5383 22.388 22.4473 22.3232 22.4099C22.2306 22.3564 22.1554 22.2264 22.1557 22.1199L22.1562 21.956L22.2068 21.9852Z" fill="#1D2943"/>
<g opacity="0.25">
<path d="M14.4353 2.0246L13.0405 6.09041L11.3862 7.04558L11.3838 6.3283L12.4718 3.15849L14.4353 2.0246ZM15.6102 1.34717L14.2143 5.41298L13.5103 5.81992L14.905 1.75411L15.6102 1.34717Z" fill="white"/>
</g>
</svg>
