<svg width="64" height="64" viewBox="0 0 64 64" fill="none" xmlns="http://www.w3.org/2000/svg">
<path d="M50.4532 31.7867C51.8478 32.0949 53.3046 31.947 54.6089 31.3648C55.9132 30.7827 56.996 29.797 57.6978 28.5531C58.3997 27.3091 58.6835 25.8726 58.5075 24.4552C58.3314 23.0378 57.7047 21.7144 56.7199 20.68L43.3865 7.34669C42.3521 6.3618 41.0287 5.73517 39.6113 5.5591C38.1939 5.38302 36.7574 5.66683 35.5135 6.3687C34.2695 7.07057 33.2839 8.15339 32.7017 9.45767C32.1196 10.7619 31.9717 12.2187 32.2799 13.6134L27.9999 9.33336C25.516 6.89918 22.1719 5.54358 18.6941 5.56114C15.2164 5.57871 11.8861 6.96802 9.427 9.42716C6.96785 11.8863 5.57854 15.2166 5.56098 18.6943C5.54341 22.172 6.89901 25.5162 9.33319 28L13.5465 32.2134C12.1519 31.9052 10.6951 32.0531 9.39083 32.6352C8.08656 33.2174 7.00373 34.203 6.30186 35.447C5.59999 36.6909 5.31619 38.1274 5.49226 39.5448C5.66833 40.9622 6.29497 42.2856 7.27986 43.32L20.6799 56.6534C21.7143 57.6382 23.0377 58.2649 24.4551 58.441C25.8725 58.617 27.309 58.3332 28.5529 57.6314C29.7969 56.9295 30.7825 55.8467 31.3647 54.5424C31.9468 53.2381 32.0947 51.7813 31.7865 50.3867L35.9999 54.6667C38.4837 57.1009 41.8279 58.4565 45.3056 58.4389C48.7833 58.4213 52.1136 57.032 54.5727 54.5729C57.0319 52.1137 58.4212 48.7835 58.4387 45.3057C58.4563 41.828 57.1007 38.4839 54.6665 36L50.4532 31.7867Z" fill="#F4F4F6"/>
<path d="M4 16H6.66667V17.3333H4V16ZM7.97333 12H9.30667V14.6667H7.97333V12ZM58.6667 50C58.6667 50.3956 58.5494 50.7822 58.3296 51.1111C58.1098 51.44 57.7975 51.6964 57.432 51.8478C57.0666 51.9991 56.6644 52.0387 56.2765 51.9616C55.8885 51.8844 55.5322 51.6939 55.2525 51.4142C54.9727 51.1345 54.7823 50.7781 54.7051 50.3902C54.6279 50.0022 54.6675 49.6001 54.8189 49.2346C54.9703 48.8692 55.2266 48.5568 55.5555 48.3371C55.8844 48.1173 56.2711 48 56.6667 48C57.1971 48 57.7058 48.2107 58.0809 48.5858C58.456 48.9609 58.6667 49.4696 58.6667 50ZM56 50C56 50.1319 56.0391 50.2607 56.1124 50.3704C56.1856 50.48 56.2897 50.5655 56.4115 50.6159C56.5334 50.6664 56.6674 50.6796 56.7967 50.6539C56.926 50.6281 57.0448 50.5646 57.1381 50.4714C57.2313 50.3782 57.2948 50.2594 57.3205 50.1301C57.3462 50.0007 57.333 49.8667 57.2826 49.7449C57.2321 49.6231 57.1467 49.5189 57.037 49.4457C56.9274 49.3724 56.7985 49.3333 56.6667 49.3333C56.4899 49.3333 56.3203 49.4036 56.1953 49.5286C56.0702 49.6536 56 49.8232 56 50Z" fill="#E2DFF4"/>
<path d="M35.332 61.3333C36.4366 61.3333 37.332 60.4379 37.332 59.3333C37.332 58.2287 36.4366 57.3333 35.332 57.3333C34.2275 57.3333 33.332 58.2287 33.332 59.3333C33.332 60.4379 34.2275 61.3333 35.332 61.3333Z" fill="#F4F4F6"/>
<path d="M28.668 6.66669C29.7725 6.66669 30.668 5.77126 30.668 4.66669C30.668 3.56212 29.7725 2.66669 28.668 2.66669C27.5634 2.66669 26.668 3.56212 26.668 4.66669C26.668 5.77126 27.5634 6.66669 28.668 6.66669Z" fill="#F4F4F6"/>
<path d="M7.33203 50.6666C6.93647 50.6666 6.54979 50.5493 6.22089 50.3296C5.89199 50.1098 5.63565 49.7975 5.48427 49.432C5.3329 49.0666 5.29329 48.6644 5.37046 48.2765C5.44763 47.8885 5.63811 47.5321 5.91782 47.2524C6.19752 46.9727 6.55389 46.7822 6.94185 46.7051C7.32981 46.6279 7.73195 46.6675 8.0974 46.8189C8.46285 46.9703 8.77521 47.2266 8.99497 47.5555C9.21473 47.8844 9.33203 48.2711 9.33203 48.6666C9.33203 49.1971 9.12132 49.7058 8.74625 50.0809C8.37117 50.4559 7.86247 50.6666 7.33203 50.6666ZM7.33203 48C7.20018 48 7.07128 48.0391 6.96165 48.1123C6.85202 48.1856 6.76657 48.2897 6.71611 48.4115C6.66565 48.5333 6.65245 48.6674 6.67818 48.7967C6.7039 48.926 6.76739 49.0448 6.86063 49.1381C6.95386 49.2313 7.07265 49.2948 7.20197 49.3205C7.33129 49.3462 7.46534 49.333 7.58715 49.2826C7.70897 49.2321 7.81309 49.1467 7.88635 49.037C7.9596 48.9274 7.9987 48.7985 7.9987 48.6666C7.9987 48.4898 7.92846 48.3203 7.80344 48.1952C7.67841 48.0702 7.50884 48 7.33203 48ZM57.332 17.3333H59.9987V18.6666H57.332V17.3333ZM54.6654 13.3333H55.9987V16H54.6654V13.3333Z" fill="#E2DFF4"/>
<path d="M21.3346 34.1467C21.3382 32.701 21.5723 31.2652 22.028 29.8933L27.0146 15.0667C27.1824 14.5155 27.5419 14.0426 28.028 13.7333C27.6229 13.4712 27.1505 13.3323 26.668 13.3333C26.3817 13.3344 26.0977 13.384 25.828 13.48C25.4725 13.6032 25.1504 13.8069 24.8867 14.0752C24.623 14.3435 24.425 14.6691 24.308 15.0267L19.3613 29.8933C18.9056 31.2652 18.6716 32.701 18.668 34.1467V41.3333H20.0013C20.3549 41.3333 20.6941 41.1928 20.9441 40.9428C21.1942 40.6927 21.3346 40.3536 21.3346 40V34.1467ZM26.668 35.4667C26.6669 34.0304 26.8965 32.6034 27.348 31.24L28.0013 29.3333C28.2043 28.7699 28.6014 28.2972 29.1213 28C28.7207 27.7514 28.2594 27.6176 27.788 27.6133C27.5809 27.6137 27.3748 27.6406 27.1746 27.6933C26.7537 27.7874 26.3637 27.9875 26.0417 28.2745C25.7197 28.5615 25.4763 28.9259 25.3346 29.3333L24.668 31.3067C24.228 32.6495 24.003 34.0535 24.0013 35.4667V42.6666H26.668V35.4667Z" fill="#D6DBE1"/>
<path d="M30.5733 27.32C30.2248 26.9769 29.8126 26.7052 29.36 26.52L30.4933 16.28C30.5691 15.5694 30.4444 14.8519 30.1333 14.2086C29.8223 13.5652 29.3373 13.0219 28.7333 12.64C28.2438 12.3314 27.6904 12.1382 27.1151 12.0752C26.5398 12.0122 25.9578 12.081 25.413 12.2762C24.8682 12.4715 24.3751 12.7883 23.9709 13.2024C23.5666 13.6166 23.262 14.1173 23.08 14.6666L18.0933 29.48C17.5874 30.9837 17.3307 32.5601 17.3333 34.1466V38.6666H12V41.3333H18.6667C19.0203 41.3333 19.3594 41.1928 19.6095 40.9428C19.8595 40.6927 20 40.3536 20 40V34.1466C20.0001 32.8456 20.2117 31.5531 20.6267 30.32L25.6133 15.4933C25.6662 15.3283 25.7561 15.1776 25.8763 15.0527C25.9965 14.9279 26.1437 14.8323 26.3067 14.7733C26.4705 14.7139 26.6457 14.6927 26.819 14.7112C26.9923 14.7297 27.159 14.7874 27.3067 14.88C27.4881 14.9982 27.6337 15.1639 27.7277 15.3589C27.8217 15.554 27.8605 15.7711 27.84 15.9866L26.6667 26.3466C26.0513 26.515 25.4865 26.8314 25.0216 27.2684C24.5568 27.7054 24.206 28.2495 24 28.8533L23.3333 30.8266C22.8654 32.3279 22.6403 33.8943 22.6667 35.4666V42.6666H25.3333V35.4666C25.3363 34.1756 25.5433 32.8931 25.9467 31.6666L26.6133 29.6933C26.6797 29.491 26.7966 29.3089 26.9529 29.1643C27.1092 29.0196 27.2998 28.9172 27.5067 28.8666C27.7163 28.8126 27.9365 28.8149 28.1449 28.8734C28.3533 28.932 28.5425 29.0446 28.6933 29.2C28.84 29.359 28.9458 29.5514 29.0016 29.7604C29.0573 29.9695 29.0614 30.189 29.0133 30.4L28.44 32.72C28.1478 33.8796 28.0001 35.0708 28 36.2666V45.3333C28 46.3942 27.5786 47.4116 26.8284 48.1617C26.0783 48.9119 25.0609 49.3333 24 49.3333H12V52H24C24.8755 52 25.7424 51.8275 26.5512 51.4925C27.3601 51.1575 28.095 50.6664 28.714 50.0474C29.3331 49.4283 29.8242 48.6934 30.1592 47.8845C30.4942 47.0757 30.6667 46.2088 30.6667 45.3333V36.2666C30.6642 35.2777 30.7852 34.2923 31.0267 33.3333L31.6 31.0133C31.7594 30.3613 31.7487 29.6793 31.5689 29.0326C31.3892 28.3859 31.0463 27.7962 30.5733 27.32Z" fill="#322F56"/>
<path d="M51.9993 38.6667V50.6667H39.9993C38.5848 50.6667 37.2282 50.1048 36.228 49.1046C35.2278 48.1044 34.6659 46.7478 34.6659 45.3333V36.2667C34.6669 35.1787 34.5325 34.0948 34.2659 33.04L33.6926 30.6667C33.5901 30.2315 33.5986 29.7775 33.7174 29.3464C33.8363 28.9154 34.0616 28.5212 34.3726 28.2C34.611 27.9579 34.8954 27.7659 35.2091 27.6354C35.5228 27.5048 35.8595 27.4384 36.1993 27.44C36.401 27.4424 36.602 27.4648 36.7993 27.5067C37.2451 27.6169 37.6533 27.8444 37.9816 28.1656C38.3098 28.4868 38.5461 28.89 38.6659 29.3333L39.3326 31.3067C39.7725 32.645 39.9975 34.0446 39.9993 35.4533V42.6667H42.6659V35.4533C42.6658 33.7352 42.3866 32.0286 41.8393 30.4L41.1859 28.4267C40.9102 27.5734 40.4174 26.8064 39.7559 26.201C39.0944 25.5956 38.2869 25.1726 37.4126 24.9733C37.3242 24.9604 37.2344 24.9604 37.1459 24.9733C36.8361 24.8985 36.518 24.8626 36.1993 24.8667C35.6173 24.8731 35.0405 24.9768 34.4926 25.1733L33.5059 16.3067C33.4302 15.5961 33.5549 14.8786 33.866 14.2352C34.177 13.5919 34.662 13.0485 35.2659 12.6667C35.7531 12.355 36.305 12.1586 36.8795 12.0924C37.4541 12.0263 38.0361 12.0922 38.5814 12.2851C39.1266 12.478 39.6206 12.7928 40.0258 13.2055C40.4309 13.6182 40.7365 14.118 40.9193 14.6667L45.9059 29.4667C46.41 30.9709 46.6667 32.5469 46.6659 34.1333V38.6667H51.9993Z" fill="#6666FF"/>
<path d="M51.9995 52H39.9995C38.2314 52 36.5357 51.2976 35.2854 50.0474C34.0352 48.7972 33.3328 47.1015 33.3328 45.3334V36.2667C33.3352 35.2777 33.2143 34.2924 32.9728 33.3334L32.3995 31.0134C32.2386 30.3605 32.2477 29.6774 32.4259 29.0291C32.6042 28.3808 32.9456 27.789 33.4177 27.3102C33.8898 26.8315 34.4767 26.4817 35.1224 26.2943C35.7682 26.107 36.4511 26.0883 37.1062 26.24C37.7585 26.3917 38.3604 26.7097 38.8534 27.163C39.3464 27.6162 39.7137 28.1894 39.9195 28.8267L40.5862 30.8C41.0841 32.3054 41.3362 33.8811 41.3328 35.4667V42.6667H38.6662V35.4667C38.6632 34.1756 38.4562 32.8931 38.0528 31.6667L37.3328 29.6934C37.2664 29.491 37.1495 29.3089 36.9932 29.1643C36.8369 29.0197 36.6464 28.9172 36.4395 28.8667C36.2318 28.8151 36.0143 28.8187 35.8085 28.8772C35.6026 28.9357 35.4157 29.047 35.2662 29.2C35.1108 29.3536 34.9984 29.5452 34.9399 29.7557C34.8814 29.9662 34.879 30.1883 34.9328 30.4L35.5062 32.72C35.8163 33.8774 35.982 35.0686 35.9995 36.2667V45.3334C35.9995 46.3942 36.4209 47.4116 37.1711 48.1618C37.9212 48.9119 38.9386 49.3334 39.9995 49.3334H51.9995V52Z" fill="#322F56"/>
</svg>
