<svg width="32" height="32" viewBox="0 0 32 32" fill="none" xmlns="http://www.w3.org/2000/svg">
<g clip-path="url(#clip0_199_1807)">
<path d="M5.91553 29.6836L6.05041 29.6052L6.26234 28.7849L6.12757 28.8633L5.91553 29.6836Z" fill="#9EA9C9"/>
<path d="M6.12752 28.8633L6.26228 28.7849L5.49621 28.3426L5.36133 28.421L6.12752 28.8633Z" fill="#414F65"/>
<path d="M5.36133 28.421L5.5677 29.4828L5.91547 29.6836L6.12752 28.8633L5.36133 28.421Z" fill="#B0B8CF"/>
<path d="M6.10369 30.0189C6.10369 30.1701 6.04633 30.2795 5.96289 30.3265L5.58673 30.5487C5.67537 30.4965 5.50643 30.3894 5.50643 30.2383C5.50643 29.9358 5.46175 29.797 5.19585 29.6458C5.06036 29.5675 4.99781 29.3288 4.90918 29.381L5.28533 29.164C5.37384 29.1119 5.49375 29.1223 5.62936 29.1954C5.89514 29.3516 6.10369 29.7113 6.10369 30.0189Z" fill="#4C5C75"/>
<path d="M5.25331 29.4162C4.99043 29.2644 4.77331 29.3805 4.77246 29.6865C4.77162 29.9886 4.98729 30.3621 5.25017 30.5139C5.51643 30.6676 5.72679 30.5401 5.72763 30.2379C5.72848 29.9319 5.51957 29.5699 5.25331 29.4162Z" fill="#1D2943"/>
<path d="M5.25176 29.6373C5.09478 29.5468 4.96533 29.6159 4.96485 29.7985C4.96424 29.9789 5.09297 30.2018 5.24983 30.2924C5.40886 30.3842 5.53432 30.3081 5.53481 30.1277C5.53541 29.9451 5.41067 29.7291 5.25176 29.6373Z" fill="#DEDFFB"/>
<path d="M5.5732 29.1905L5.70808 29.1122L4.94201 28.6698L4.80713 28.7483L5.5732 29.1905Z" fill="#414F65"/>
<path d="M5.70845 29.1125L5.49592 29.9324L5.36067 30.0109L5.0129 29.8105L4.80762 28.7478L5.5732 29.191L5.70845 29.1125Z" fill="#B0B8CF"/>
<path d="M5.36133 30.0108L5.49621 29.9324L5.70826 29.1122L5.57337 29.1905L5.36133 30.0108Z" fill="#9EA9C9"/>
<path d="M4.80713 28.7483L5.01338 29.81L5.36115 30.0108L5.5732 29.1905L4.80713 28.7483Z" fill="#B0B8CF"/>
<path d="M10.0698 27.2694L10.2047 27.1911L10.4166 26.3708L10.2817 26.4492L10.0698 27.2694Z" fill="#9EA9C9"/>
<path d="M10.2817 26.4492L10.4166 26.3708L9.65051 25.9285L9.51562 26.0068L10.2817 26.4492Z" fill="#414F65"/>
<path d="M9.51562 26.0068L9.72187 27.0686L10.0698 27.2694L10.2817 26.4492L9.51562 26.0068Z" fill="#B0B8CF"/>
<path d="M10.2576 27.6048C10.2576 27.7558 10.2003 27.8654 10.1168 27.9122L9.74066 28.1344C9.8293 28.0824 9.66036 27.9753 9.66036 27.8241C9.66036 27.5217 9.61568 27.3827 9.34978 27.2315C9.21429 27.1534 9.15174 26.9147 9.06299 26.9668L9.43914 26.7498C9.52777 26.6978 9.64768 26.7082 9.78329 26.7812C10.049 26.9375 10.2576 27.2972 10.2576 27.6048Z" fill="#4C5C75"/>
<path d="M9.40712 27.0021C9.14411 26.8503 8.92712 26.9663 8.92627 27.2723C8.92543 27.5745 9.14109 27.9478 9.40398 28.0997C9.67024 28.2535 9.8806 28.1258 9.88144 27.8237C9.88229 27.5178 9.67338 27.1559 9.40712 27.0021Z" fill="#1D2943"/>
<path d="M9.40606 27.2232C9.24907 27.1326 9.11963 27.2018 9.11914 27.3844C9.11854 27.5647 9.24726 27.7877 9.40412 27.8783C9.56316 27.9701 9.68862 27.8939 9.68911 27.7136C9.68971 27.531 9.56497 27.315 9.40606 27.2232Z" fill="#DEDFFB"/>
<path d="M9.51562 27.5967L9.65051 27.5183L9.86255 26.698L9.72767 26.7764L9.51562 27.5967Z" fill="#9EA9C9"/>
<path d="M9.72749 26.7764L9.86238 26.698L9.09631 26.2557L8.96143 26.3341L9.72749 26.7764Z" fill="#414F65"/>
<path d="M8.96143 26.3341L9.16767 27.3959L9.51545 27.5967L9.72749 26.7764L8.96143 26.3341Z" fill="#B0B8CF"/>
<path d="M26.8511 17.5604L26.986 17.482L27.198 16.6617L27.0631 16.7401L26.8511 17.5604Z" fill="#9EA9C9"/>
<path d="M27.0629 16.7401L27.1978 16.6617L26.4318 16.2194L26.2969 16.2978L27.0629 16.7401Z" fill="#414F65"/>
<path d="M26.2969 16.2978L26.5031 17.3596L26.8509 17.5604L27.0629 16.7401L26.2969 16.2978Z" fill="#B0B8CF"/>
<path d="M27.0387 17.8957C27.0387 18.0469 26.9814 18.1563 26.8981 18.2033L26.5219 18.4255C26.6105 18.3733 26.4415 18.2662 26.4415 18.1151C26.4415 17.8128 26.3968 17.6738 26.131 17.5226C25.9954 17.4444 25.9329 17.2056 25.8442 17.2578L26.2204 17.0408C26.309 16.9887 26.4289 16.9991 26.5645 17.0722C26.8302 17.2284 27.0387 17.5882 27.0387 17.8957Z" fill="#4C5C75"/>
<path d="M26.1882 17.2931C25.9254 17.1414 25.7084 17.2573 25.7075 17.5633C25.7066 17.8654 25.9222 18.2389 26.1851 18.3907C26.4514 18.5444 26.6617 18.4169 26.6627 18.1148C26.6635 17.8088 26.4545 17.4469 26.1882 17.2931Z" fill="#1D2943"/>
<path d="M26.1873 17.5142C26.0303 17.4236 25.9009 17.4928 25.9004 17.6754C25.8999 17.8558 26.0286 18.0787 26.1855 18.1692C26.3444 18.261 26.47 18.1849 26.4705 18.0045C26.471 17.822 26.3462 17.6059 26.1873 17.5142Z" fill="#DEDFFB"/>
<path d="M26.2969 17.8876L26.4318 17.8093L26.6437 16.989L26.5088 17.0674L26.2969 17.8876Z" fill="#9EA9C9"/>
<path d="M26.5087 17.0674L26.6436 16.989L25.8776 16.5468L25.7427 16.6252L26.5087 17.0674Z" fill="#414F65"/>
<path d="M25.7427 16.6252L25.9489 17.6868L26.2968 17.8876L26.5087 17.0674L25.7427 16.6252Z" fill="#B0B8CF"/>
<path d="M31.0049 15.1463L31.1398 15.0679L31.3518 14.2476L31.2169 14.326L31.0049 15.1463Z" fill="#9EA9C9"/>
<path d="M31.2172 14.326L31.3521 14.2476L30.5861 13.8053L30.4512 13.8837L31.2172 14.326Z" fill="#414F65"/>
<path d="M30.4512 13.8837L30.6574 14.9455L31.0052 15.1463L31.2172 14.326L30.4512 13.8837Z" fill="#B0B8CF"/>
<path d="M31.193 15.4816C31.193 15.6328 31.1357 15.7422 31.0522 15.7891L30.6761 16.0112C30.7647 15.9592 30.5958 15.8521 30.5958 15.7009C30.5958 15.3985 30.5511 15.2595 30.2852 15.1084C30.1497 15.0302 30.0872 14.7915 29.9985 14.8437L30.3747 14.6267C30.4632 14.5746 30.5831 14.585 30.7187 14.6581C30.9845 14.8143 31.193 15.1741 31.193 15.4816Z" fill="#4C5C75"/>
<path d="M30.3427 14.8789C30.0798 14.7271 29.8628 14.8432 29.8618 15.1492C29.861 15.4513 30.0766 15.8248 30.3395 15.9766C30.6058 16.1303 30.8161 16.0027 30.817 15.7006C30.818 15.3947 30.6089 15.0326 30.3427 14.8789Z" fill="#1D2943"/>
<path d="M30.3411 15.1C30.1841 15.0095 30.0547 15.0787 30.0542 15.2612C30.0537 15.4415 30.1823 15.6646 30.3392 15.7551C30.4982 15.8469 30.6238 15.7708 30.6242 15.5904C30.6248 15.4078 30.5 15.1918 30.3411 15.1Z" fill="#DEDFFB"/>
<path d="M30.4512 15.4735L30.5861 15.3951L30.798 14.5749L30.6631 14.6532L30.4512 15.4735Z" fill="#9EA9C9"/>
<path d="M30.663 14.6532L30.7979 14.5749L30.0319 14.1325L29.897 14.2109L30.663 14.6532Z" fill="#414F65"/>
<path d="M29.897 14.2109L30.1032 15.2727L30.4511 15.4735L30.663 14.6532L29.897 14.2109Z" fill="#B0B8CF"/>
<path d="M1.89697 27.3482L2.03186 27.2698L2.2439 26.4495L2.10902 26.5279L1.89697 27.3482Z" fill="#9EA9C9"/>
<path d="M2.10884 26.5279L2.24372 26.4495L1.47766 26.0073L1.34277 26.0857L2.10884 26.5279Z" fill="#414F65"/>
<path d="M1.34277 26.0857L1.54902 27.1473L1.8968 27.3482L2.10884 26.5279L1.34277 26.0857Z" fill="#B0B8CF"/>
<path d="M2.08513 27.6835C2.08513 27.8347 2.02777 27.9442 1.94433 27.9911L1.56818 28.2132C1.65681 28.1611 1.48788 28.054 1.48788 27.9029C1.48788 27.6005 1.4432 27.4615 1.1773 27.3104C1.04181 27.2322 0.979259 26.9935 0.890625 27.0455L1.26678 26.8287C1.35529 26.7765 1.47532 26.7869 1.61081 26.8599C1.87659 27.0163 2.08513 27.3759 2.08513 27.6835Z" fill="#4C5C75"/>
<path d="M1.23427 27.0809C0.971383 26.9291 0.754386 27.0452 0.75342 27.3511C0.752575 27.6532 0.968243 28.0267 1.23113 28.1785C1.49739 28.3322 1.70774 28.2047 1.70859 27.9026C1.70956 27.5967 1.50053 27.2347 1.23427 27.0809Z" fill="#1D2943"/>
<path d="M1.2332 27.3019C1.07622 27.2113 0.946773 27.2807 0.94629 27.4632C0.945807 27.6435 1.07441 27.8664 1.23127 27.9571C1.39031 28.0488 1.51589 27.9727 1.51625 27.7923C1.51686 27.6097 1.39212 27.3938 1.2332 27.302V27.3019Z" fill="#DEDFFB"/>
<path d="M1.55464 26.8552L1.68953 26.7769L0.923457 26.3345L0.788574 26.4129L1.55464 26.8552Z" fill="#414F65"/>
<path d="M1.68989 26.7771L1.47736 27.597L1.34333 27.6755L0.995553 27.4751L0.789062 26.4124L1.55465 26.8556L1.68989 26.7771Z" fill="#B0B8CF"/>
<path d="M1.34277 27.6755L1.47766 27.5971L1.68958 26.7769L1.5547 26.8553L1.34277 27.6755Z" fill="#9EA9C9"/>
<path d="M0.788574 26.4129L0.994823 27.4747L1.34272 27.6755L1.55464 26.8553L0.788574 26.4129Z" fill="#B0B8CF"/>
<path d="M6.05127 24.934L6.18615 24.8557L6.39808 24.0354L6.26331 24.1137L6.05127 24.934Z" fill="#9EA9C9"/>
<path d="M6.26326 24.1137L6.39802 24.0354L5.63195 23.593L5.49707 23.6714L6.26326 24.1137Z" fill="#414F65"/>
<path d="M5.49707 23.6714L5.70332 24.7332L6.05121 24.934L6.26326 24.1137L5.49707 23.6714Z" fill="#B0B8CF"/>
<path d="M6.23906 25.2694C6.23906 25.4206 6.1817 25.53 6.09826 25.5769L5.72211 25.7991C5.81074 25.747 5.64181 25.6398 5.64181 25.4888C5.64181 25.1864 5.59713 25.0474 5.33123 24.8962C5.19574 24.818 5.13319 24.5794 5.04443 24.6314L5.4207 24.4145C5.50922 24.3624 5.62913 24.3728 5.76474 24.4458C6.03052 24.6022 6.23906 24.9618 6.23906 25.2694Z" fill="#4C5C75"/>
<path d="M5.38856 24.6668C5.12568 24.515 4.90856 24.6311 4.90772 24.9369C4.90687 25.2391 5.12254 25.6126 5.38542 25.7644C5.65169 25.9181 5.86204 25.7906 5.86289 25.4884C5.86373 25.1824 5.65483 24.8205 5.38856 24.6668Z" fill="#1D2943"/>
<path d="M5.3875 24.8878C5.23052 24.7972 5.10107 24.8664 5.10059 25.0491C5.09998 25.2294 5.22871 25.4523 5.38557 25.5429C5.5446 25.6346 5.67007 25.5586 5.67055 25.3782C5.67115 25.1956 5.54641 24.9794 5.3875 24.8878Z" fill="#DEDFFB"/>
<path d="M5.49707 25.2613L5.63195 25.1829L5.844 24.3626L5.70912 24.4411L5.49707 25.2613Z" fill="#9EA9C9"/>
<path d="M5.70894 24.4411L5.84382 24.3626L5.07775 23.9204L4.94287 23.9988L5.70894 24.4411Z" fill="#414F65"/>
<path d="M4.94287 23.9988L5.14912 25.0605L5.49689 25.2613L5.70894 24.4411L4.94287 23.9988Z" fill="#B0B8CF"/>
<path d="M30.6124 6.83905L26.0474 9.49203C26.4954 9.75069 26.8576 10.3779 26.8562 10.8928L26.8394 16.782C26.8387 17.0376 26.7483 17.2177 26.6027 17.3023L31.1677 14.6493C31.3134 14.5648 31.4037 14.3849 31.4044 14.129L31.4211 8.2398C31.4225 7.72503 31.0605 7.09783 30.6124 6.83905Z" fill="#C9CEE2"/>
<path d="M30.648 6.85959L29.7749 7.36688C30.2229 7.62554 30.585 8.25274 30.5836 8.76763L30.5669 14.6568C30.5662 14.9126 30.4841 15.0469 30.3385 15.1314L31.2115 14.6241C31.3572 14.5395 31.4393 14.4052 31.44 14.1496L31.4567 8.26034C31.4581 7.74545 31.096 7.11825 30.648 6.85959Z" fill="#1D2943"/>
<path d="M26.8562 10.8928L26.8403 16.405L26.8393 16.782C26.8381 17.2969 26.4734 17.5045 26.0254 17.2457L25.7088 17.0628L22.274 15.0799C21.8258 14.8211 21.4638 14.1941 21.4653 13.6791L21.4822 7.78989C21.4835 7.27499 21.8478 7.06741 22.2961 7.32619L22.2604 7.30554L22.2671 4.94684C22.2679 4.65449 22.4751 4.53688 22.7294 4.68359L25.6308 6.35882C25.885 6.50554 26.0902 6.86153 26.0896 7.15363L26.0828 9.51258L26.0475 9.49205C26.4955 9.75046 26.8575 10.3779 26.8562 10.8928Z" fill="#9EA9C9"/>
<path d="M26.9718 11.3507L10.9672 20.6394C10.9696 19.8265 10.3963 18.8339 9.68936 18.4256L8.20215 17.567L24.2067 8.27859L25.6938 9.13716C26.4009 9.54555 26.9741 10.5382 26.9718 11.3507Z" fill="#DEDFFB"/>
<path d="M9.68935 18.4257C10.3962 18.8339 10.9696 19.8267 10.9673 20.6391L10.4849 20.3607C10.4863 19.854 10.1288 19.2346 9.68778 18.98L8.20068 18.1214L8.20225 17.5671L9.68935 18.4257Z" fill="#9EA9C9"/>
<path d="M25.3926 13.2172L25.849 12.9519L27.1697 13.7143L26.7132 13.9796L25.3926 13.2172Z" fill="white"/>
<path d="M27.1777 12.9979L27.6343 12.7326L28.0629 12.98L27.6064 13.2453L27.1777 12.9979Z" fill="#E3E7F0"/>
<path d="M27.6062 13.2454L27.6003 15.3324L25.3901 14.0563L25.3926 13.2172L26.7131 13.9797L27.1775 12.9979L27.6062 13.2454Z" fill="#9EA9C9"/>
<path d="M14.5011 18.59V20.9845L11.4665 22.7536V20.359C11.4677 19.9448 11.2974 19.4775 11.033 19.0899C10.8458 18.8158 10.6116 18.5815 10.3568 18.4342L9.06348 17.6879L12.098 15.914L13.3913 16.6615C13.6461 16.8088 13.8816 17.0443 14.0688 17.3208C14.3332 17.7084 14.5023 18.177 14.5011 18.59Z" fill="#986FF9"/>
<path d="M14.5014 18.5896C14.5026 18.1766 14.3326 17.7089 14.0685 17.3205L11.0327 19.0904C11.2974 19.478 11.4679 19.9451 11.4668 20.3587V22.7539L14.5014 20.9848V18.5896Z" fill="#986FF9"/>
<path d="M13.3904 16.6609L12.0976 15.9146L9.06299 17.6879L10.3558 18.4342C10.6106 18.5814 10.8452 18.816 11.0326 19.0903L14.0684 17.3204C13.8807 17.0444 13.6458 16.8084 13.3904 16.6609Z" fill="#B28AFD"/>
<path d="M16.1951 29.2586L13.1617 31.0277C12.5434 30.9758 12.151 30.6799 11.901 30.3322C11.4917 29.7634 11.4663 29.0558 11.4663 29.0558V22.7536L14.5009 20.9845V27.2867C14.5009 27.2867 14.5262 27.9943 14.9356 28.5631C15.1856 28.9109 15.578 29.2067 16.1951 29.2586Z" fill="#7E5AF2"/>
<path d="M16.1957 29.2586L13.1613 31.0277C12.5439 30.9756 12.1515 30.6798 11.9015 30.3326C11.4922 29.7632 11.4668 29.0554 11.4668 29.0554V26.6694L14.5014 24.9001V27.2862C14.5014 27.2862 14.5267 27.994 14.9361 28.5636C15.1858 28.9106 15.5784 29.2066 16.1957 29.2586Z" fill="#7E5AF2"/>
<path d="M14.5014 20.9847L11.4668 22.7539V26.6694L14.5014 24.9001V20.9847Z" fill="#986FF9"/>
<path d="M17.5367 16.8197V19.2142L14.5021 20.9845V18.5887C14.5033 18.1745 14.3331 17.7084 14.0686 17.3208C13.8815 17.0455 13.646 16.8112 13.3912 16.6639L12.0991 15.9176L15.1337 14.145L16.427 14.8912C16.6818 15.0385 16.9172 15.274 17.1044 15.5505C17.3689 15.9394 17.5379 16.4067 17.5367 16.8197Z" fill="#72D561"/>
<path d="M17.537 16.8197C17.5381 16.4067 17.3681 15.939 17.1041 15.5505L14.0684 17.3204C14.3331 17.7081 14.5036 18.1751 14.5024 18.5887V20.984L17.5369 19.2148L17.537 16.8197Z" fill="#72D561"/>
<path d="M16.4265 14.891L15.1337 14.1447L12.0991 15.918L13.3919 16.6641C13.6467 16.8113 13.8813 17.046 14.0688 17.3203L17.1045 15.5504C16.9169 15.2744 16.6818 15.0385 16.4265 14.891Z" fill="#78E75A"/>
<path d="M17.537 19.2148L14.5024 20.984V24.8995L17.537 23.1302V19.2148Z" fill="#72D561"/>
<path d="M19.2312 27.4886L16.1969 29.2576C15.5798 29.2057 15.187 28.9099 14.9374 28.5627C14.5277 27.9931 14.5024 27.2854 14.5024 27.2854V24.8996L17.537 23.1302V25.5164C17.537 25.5164 17.5624 26.2242 17.9716 26.7936C18.2213 27.1411 18.614 27.4367 19.2311 27.4888L19.2312 27.4886Z" fill="#5EC363"/>
<path d="M20.5724 15.0494V17.4452L17.5378 19.2142V16.8185C17.539 16.4055 17.3687 15.9382 17.1043 15.5505C16.9171 15.2764 16.6816 15.041 16.4268 14.8948L15.1348 14.1486L18.1693 12.3747L19.4614 13.121C19.7174 13.2683 19.9529 13.505 20.14 13.7803C20.4045 14.1691 20.5736 14.6364 20.5724 15.0494Z" fill="#678AEE"/>
<path d="M20.5727 15.0498C20.5739 14.6368 20.4039 14.1691 20.1398 13.7806L17.104 15.5505C17.3688 15.9382 17.5392 16.4051 17.5381 16.8188V19.2141L20.5727 17.4449V15.0498Z" fill="#678AEE"/>
<path d="M19.4621 13.1211L18.1693 12.3748L15.1348 14.1481L16.4274 14.8944C16.6822 15.0416 16.9169 15.2761 17.1044 15.5505L20.1402 13.7806C19.9524 13.5046 19.7175 13.2686 19.4621 13.1211Z" fill="#8FABFE"/>
<path d="M21.0069 25.0238L17.9723 26.7928C17.563 26.2229 17.5376 25.5152 17.5376 25.5152V19.2142L20.5722 17.4452V23.7462C20.5722 23.7462 20.5975 24.4538 21.0069 25.0238Z" fill="#678AEE"/>
<path d="M20.5727 23.7464V21.3603L17.5381 23.1296V25.5153C17.5381 25.5153 17.5633 26.2233 17.9728 26.7927L21.0072 25.0236C20.5979 24.4543 20.5727 23.7464 20.5727 23.7464Z" fill="#678AEE"/>
<path d="M20.5727 17.4449L17.5381 19.2141V23.1296L20.5727 21.3603V17.4449Z" fill="#748BFD"/>
<path d="M21.0076 25.0237L17.9731 26.7927C18.223 27.14 18.6156 27.4357 19.2329 27.4878L22.2672 25.7187C21.6499 25.6668 21.2573 25.3709 21.0076 25.0237Z" fill="#678AEE"/>
<path d="M23.608 13.2804V15.6749L20.5734 17.444V15.0494C20.5746 14.6352 20.4044 14.1679 20.1399 13.7803C19.9527 13.5062 19.7173 13.2719 19.4625 13.1246L18.1704 12.3783L21.205 10.6044L22.497 11.3507C22.753 11.4992 22.9885 11.7347 23.1757 12.0112C23.4401 12.3988 23.6092 12.8674 23.608 13.2804Z" fill="#FFD06C"/>
<path d="M23.6088 13.2799C23.61 12.8669 23.44 12.3992 23.1759 12.0107L20.1401 13.7806C20.405 14.1683 20.5753 14.6352 20.5743 15.0489V17.4442L23.6088 15.675V13.2799Z" fill="#FFD06C"/>
<path d="M22.4978 11.3512L21.205 10.6049L18.1704 12.3781L19.4631 13.1243C19.7179 13.2717 19.9525 13.5062 20.1399 13.7806L23.1757 12.0107C22.988 11.7347 22.7532 11.4987 22.4978 11.3512Z" fill="#FFDE9B"/>
<path d="M23.6083 15.6749L20.5737 17.444V21.3601L23.6083 19.5898V15.6749ZM24.043 23.2535C23.6337 22.6847 23.6083 21.9759 23.6083 21.9759V19.591L20.5737 21.3601V23.745C20.5737 23.745 20.5991 24.4538 21.0084 25.0225C21.2584 25.3703 21.6509 25.6662 22.2691 25.7181L25.3025 23.949C24.6854 23.8971 24.293 23.6013 24.043 23.2535Z" fill="#F3A250"/>
<path d="M23.6088 15.675L20.5742 17.4442V21.3596L23.6088 19.5904V15.675Z" fill="#FEBC1F"/>
<path d="M25.3031 23.9488L22.2688 25.7179C21.6514 25.6658 21.2587 25.3702 21.0089 25.0228C20.5993 24.4535 20.5742 23.7456 20.5742 23.7456V21.3596L23.6088 19.5905V21.9764C23.6088 21.9764 23.6341 22.6845 24.0435 23.2537C24.2932 23.6011 24.6857 23.8968 25.3031 23.9488Z" fill="#F3A250"/>
<path d="M26.6441 11.5101V13.9047L23.6096 15.6749V13.2792C23.6108 12.865 23.4405 12.3989 23.1761 12.0112C22.9889 11.7359 22.7534 11.5017 22.4986 11.3543L21.2065 10.6081L24.2411 8.83539L25.5332 9.58165C25.7892 9.72897 26.0247 9.96444 26.2118 10.241C26.4763 10.6298 26.6453 11.0971 26.6441 11.5101Z" fill="#E93565"/>
<path d="M26.6443 11.51C26.6455 11.097 26.4755 10.6293 26.2116 10.2408L23.1758 12.0107C23.4405 12.3984 23.611 12.8653 23.6098 13.279V15.6743L26.6443 13.9051V11.51Z" fill="#E93565"/>
<path d="M25.5334 9.58129L24.2406 8.83502L21.2061 10.6082L22.4989 11.3544C22.7536 11.5018 22.9883 11.7363 23.1757 12.0107L26.2115 10.2408C26.0238 9.9648 25.7888 9.72885 25.5334 9.58129Z" fill="#F45170"/>
<path d="M27.0787 21.4832L24.0441 23.2535C23.6347 22.6835 23.6094 21.9759 23.6094 21.9759V15.6749L26.6439 13.9047V20.2069C26.6439 20.2069 26.6693 20.9145 27.0787 21.4832Z" fill="#DF3260"/>
<path d="M26.6444 20.2065V17.8204L23.6099 19.5897V21.9755C23.6099 21.9755 23.6352 22.6835 24.0446 23.2529L27.0791 21.4838C26.6698 20.9145 26.6444 20.2065 26.6444 20.2065Z" fill="#DF3260"/>
<path d="M26.6444 13.9052L23.6099 15.6743V19.5897L26.6444 17.8205V13.9052Z" fill="#E93565"/>
<path d="M27.0788 21.4837L24.0444 23.2529C24.2942 23.6002 24.6868 23.8959 25.3041 23.9479L28.3385 22.1789C27.7212 22.127 27.3285 21.8311 27.0788 21.4837Z" fill="#DF3260"/>
<path d="M9.33057 22.5513L9.78714 22.286L11.1077 23.0485L10.6513 23.3138L9.33057 22.5513Z" fill="#E3E7F0"/>
<path d="M11.5445 22.5794L12.0011 22.3143L11.9951 24.4013L11.5386 24.6664L11.5445 22.5794ZM27.6064 13.2453L28.0629 12.98L28.057 15.067L27.6005 15.3323L27.6064 13.2453Z" fill="#9B9FAE"/>
<path d="M9.69062 18.9977L5.12549 21.6506C5.57349 21.9093 5.93575 22.5365 5.9343 23.0514L5.91752 28.9406C5.91679 29.1963 5.82647 29.3762 5.68084 29.461L10.2459 26.808C10.3915 26.7234 10.4818 26.5435 10.4825 26.2876L10.4992 20.3984C10.5006 19.8836 10.1386 19.2564 9.6905 18.9976L9.69062 18.9977Z" fill="#C9CEE2"/>
<path d="M9.69036 18.9977L8.68652 19.581C9.13452 19.8396 9.49679 20.4668 9.49534 20.9817L9.47855 26.8709C9.47783 27.1267 9.38751 27.3066 9.24188 27.3914L10.2456 26.808C10.3912 26.7234 10.4815 26.5435 10.4823 26.2876L10.4989 20.3984C10.5004 19.8836 10.1384 19.2564 9.69024 18.9976L9.69036 18.9977Z" fill="#1D2943"/>
<path d="M9.27373 15.8645L6.37235 14.1894C6.24435 14.1154 6.12831 14.1085 6.0445 14.1573L1.47949 16.8101C1.5633 16.7615 1.67934 16.7684 1.80746 16.8423L4.70871 18.5174C4.96315 18.6642 5.16831 19.02 5.16758 19.3122L5.16082 21.671L9.72583 19.018L9.73247 16.6593C9.73332 16.3671 9.52804 16.0112 9.27373 15.8645Z" fill="#E3E7F0"/>
<path d="M7.41215 15.8098L7.40973 16.2803C7.40949 16.3904 7.33704 16.5003 7.19237 16.5843C6.90135 16.7536 6.42788 16.7536 6.1348 16.5843C5.98736 16.4992 5.9137 16.3875 5.91406 16.276L5.91648 15.8056C5.91612 15.917 5.98978 16.0288 6.1371 16.1139C6.43029 16.2832 6.90365 16.2832 7.19491 16.1139C7.33945 16.0298 7.41166 15.9199 7.41215 15.8098Z" fill="#DF3260"/>
<path d="M7.19092 15.5013C7.48399 15.6705 7.48556 15.9448 7.19454 16.1139C6.90328 16.2832 6.42992 16.2832 6.13673 16.1139C5.84378 15.9448 5.84221 15.6706 6.13347 15.5013C6.42449 15.3322 6.89797 15.3322 7.19092 15.5013Z" fill="#F45170"/>
<path d="M6.03225 21.1647L6.03394 21.1636L6.0407 18.8048C6.04142 18.5126 5.83626 18.1568 5.58183 18.01L2.68058 16.3349C2.55258 16.261 2.43641 16.2541 2.35261 16.3027L1.47955 16.8102L1.48052 16.8098C1.39744 16.8576 1.34576 16.9598 1.34527 17.1054L1.3396 19.1127L0.796805 19.4281L0.798254 19.4274C0.651778 19.5117 0.56085 19.692 0.560126 19.9486L0.543461 25.8379C0.542012 26.3528 0.903914 26.9799 1.35216 27.2386L5.10352 29.4045C5.34334 29.543 5.55865 29.5468 5.70766 29.4424C5.69872 29.4486 5.69027 29.4556 5.68085 29.461L6.55391 28.9536C6.69954 28.8691 6.78986 28.6892 6.79059 28.4333L6.80737 22.5441C6.8087 22.0423 6.46455 21.4348 6.03225 21.1647Z" fill="#4C5C75"/>
<path d="M0.796875 19.4282L1.75688 18.8703C1.90432 18.7846 2.10863 18.7967 2.33408 18.9269L1.3742 19.4847C1.14863 19.3544 0.944317 19.3424 0.796996 19.4281L0.796875 19.4282ZM5.99863 21.1432L5.12557 21.6506C5.57357 21.9093 5.93583 22.5365 5.93438 23.0514L5.9176 28.9406C5.91688 29.1963 5.82655 29.3762 5.68092 29.461L6.55398 28.9535C6.69961 28.869 6.78993 28.689 6.79066 28.4332L6.80744 22.5439C6.80889 22.029 6.44675 21.4018 5.99863 21.1432Z" fill="#1D2943"/>
<path d="M4.7089 18.5174C4.96333 18.6642 5.16849 19.02 5.16776 19.3122L5.161 21.671L5.12562 21.6505C5.57362 21.9093 5.93588 22.5365 5.93444 23.0512L5.91765 28.9404C5.9162 29.4553 5.55176 29.663 5.10376 29.4044L1.35216 27.2386C0.903914 26.9799 0.542012 26.3528 0.543461 25.8379L0.560126 19.9487C0.561575 19.4339 0.925892 19.2261 1.37413 19.4849L1.33863 19.4643L1.34527 17.1055C1.34612 16.8133 1.55309 16.6955 1.80752 16.8423L4.70878 18.5175L4.7089 18.5174Z" fill="#111D33"/>
<path d="M5.58177 18.01L2.68052 16.3349C2.55252 16.261 2.43635 16.2541 2.35255 16.3027L1.47949 16.8102C1.5633 16.7615 1.67934 16.7684 1.80746 16.8423L4.70871 18.5174C4.96315 18.6642 5.16831 19.02 5.16758 19.3122L5.16082 21.671L6.03388 21.1636L6.04064 18.8048C6.04136 18.5126 5.8362 18.1568 5.58177 18.01Z" fill="#4C5C75"/>
<path d="M4.56482 27.3722L1.9785 25.8789C1.91655 25.8431 1.86644 25.7563 1.86668 25.6853L1.87876 21.4588C1.87876 21.4235 1.89131 21.3986 1.91136 21.3869L1.58484 21.5767C1.56467 21.5884 1.55224 21.6133 1.55211 21.6487L1.54004 25.8751C1.54004 25.9461 1.59003 26.0329 1.65198 26.0687L4.2383 27.5619C4.26946 27.58 4.29771 27.5816 4.31812 27.5698L4.64464 27.3799C4.62424 27.3919 4.59598 27.3902 4.56482 27.3722Z" fill="#E3E7F0"/>
<path d="M4.43091 22.9715L2.13693 21.6471C2.10565 21.629 2.0774 21.6274 2.05699 21.6392L1.73047 21.8291C1.75088 21.8171 1.77913 21.8188 1.81029 21.8368L4.10439 23.1612C4.16633 23.1971 4.21645 23.2839 4.2162 23.3549L4.20534 27.2456C4.2051 27.281 4.19266 27.3059 4.17261 27.3176L4.49913 27.1278C4.51918 27.1161 4.53174 27.0913 4.53174 27.0559L4.54285 23.1651C4.54297 23.0941 4.49285 23.0073 4.43091 22.9715Z" fill="white"/>
<path d="M4.44948 22.9193C4.5334 22.9676 4.60114 23.0851 4.6009 23.1813L4.58762 27.8621C4.58738 27.9582 4.51903 27.9972 4.43523 27.9488L1.45343 26.2272C1.36963 26.1789 1.30201 26.0615 1.30225 25.9654L1.31553 21.2844C1.31577 21.1882 1.38388 21.1492 1.46768 21.1977L4.44948 22.9193ZM4.35094 27.498L4.36302 23.2716C4.36314 23.2004 4.31302 23.1134 4.25108 23.0778L1.66487 21.5846C1.60281 21.5488 1.55245 21.5776 1.55221 21.6488L1.54013 25.8752C1.54013 25.9462 1.59013 26.033 1.65207 26.0688L4.2384 27.5619C4.30034 27.5978 4.3507 27.569 4.35094 27.4979" fill="#C9CEE2"/>
<path d="M4.10464 23.1612C4.16659 23.1971 4.2167 23.2839 4.21646 23.3549L4.20559 27.2457C4.20523 27.3169 4.15488 27.3455 4.09293 27.3097L1.79883 25.9852C1.73688 25.9495 1.68677 25.8629 1.68701 25.7917L1.69788 21.9008C1.69824 21.8298 1.7486 21.8011 1.81054 21.8368L4.10464 23.1612Z" fill="#C9CEE2"/>
<path d="M4.77613 22.7294L1.79434 21.0079C1.75207 20.9835 1.71392 20.9814 1.68638 20.9973L1.35986 21.1871C1.3874 21.1711 1.42555 21.1734 1.4677 21.1976L4.44949 22.9192C4.53342 22.9675 4.60116 23.085 4.60092 23.1813L4.58764 27.8621C4.58752 27.9099 4.57061 27.9435 4.54332 27.9593L4.86996 27.7696C4.89713 27.7538 4.91404 27.7201 4.91416 27.6724L4.92744 22.9915C4.92768 22.8953 4.85982 22.7777 4.77613 22.7294Z" fill="#E3E7F0"/>
<path d="M21.7188 7.26944L22.6785 6.71167C22.8261 6.62594 23.0304 6.63801 23.256 6.76831L22.296 7.3262C22.0704 7.1959 21.8661 7.18383 21.7188 7.26944Z" fill="#C9CEE2"/>
<path d="M29.8984 3.87864L26.9969 2.20353C26.8689 2.12963 26.7529 2.12263 26.6691 2.17141L22.4014 4.65147C22.4852 4.60269 22.6012 4.60957 22.7292 4.68347L25.6306 6.35858C25.8849 6.50542 26.0902 6.86128 26.0895 7.15351L26.0827 9.51233L30.3504 7.03203L30.3572 4.67333C30.358 4.3811 30.1527 4.02536 29.8983 3.87852L29.8984 3.87864Z" fill="#E3E7F0"/>
<path d="M26.0894 7.15327L26.0822 9.51282L9.72113 19.0198L9.72838 16.6675C9.72958 16.3753 9.5243 16.0203 9.26951 15.873L6.36777 14.1981C6.23977 14.1244 6.12385 14.1172 6.04053 14.1655L22.4016 4.65124C22.4849 4.60293 22.6008 4.61018 22.7288 4.68384L25.6306 6.35871C25.8854 6.50603 26.0906 6.86105 26.0894 7.15327Z" fill="#4C5C75"/>
<path d="M26.0894 7.15327L9.72838 16.6675C9.72958 16.3753 9.5243 16.0203 9.26951 15.873L6.36777 14.1981C6.23977 14.1244 6.12385 14.1172 6.04053 14.1655L22.4016 4.65124C22.4849 4.60293 22.6008 4.61018 22.7288 4.68384L25.6306 6.35871C25.8854 6.50603 26.0906 6.86105 26.0894 7.15327Z" fill="#9EA9C9"/>
<path d="M26.0895 7.15327L26.0858 8.28233L9.73202 17.7857L9.7284 16.6675C9.72961 16.3753 9.52432 16.0203 9.26953 15.873L25.6306 6.3587C25.8854 6.50602 26.0907 6.86104 26.0895 7.15327Z" fill="#B0B8CF"/>
<path d="M30.1961 3.70595L27.2947 2.03072C27.1667 1.95682 27.0506 1.94994 26.9668 1.9986L26.0938 2.50601C26.1776 2.45735 26.2936 2.46423 26.4216 2.53813L29.3231 4.21312C29.5774 4.35996 29.7827 4.7157 29.782 5.00793L29.7752 7.36675L30.6483 6.85946L30.6549 4.50064C30.6557 4.20841 30.4505 3.85255 30.1961 3.70571V3.70595Z" fill="#4C5C75"/>
<path d="M28.61 13.2937L28.6028 15.3803L12.0859 24.9803L11.5401 24.6651C11.5425 24.6615 11.5546 24.6458 11.5715 24.6205C11.5606 24.6349 11.5498 24.6494 11.5389 24.6651H11.5401L11.5389 24.6663L9.3291 23.39L9.33152 22.5507L10.6514 23.3139L11.1163 22.3321L11.5727 22.0665L12.0002 22.314L28.0292 12.9592L28.61 13.2937Z" fill="#C9CEE2"/>
<path d="M11.5386 24.6651C11.5494 24.6494 11.5603 24.6349 11.5712 24.6204C11.5543 24.6458 11.5422 24.6615 11.5398 24.6651H11.5386Z" fill="#C9CEE2"/>
<path d="M11.1157 22.332L11.5722 22.0667L12.0009 22.3143L11.5443 22.5794L11.1157 22.332Z" fill="#E3E7F0"/>
<path d="M11.5442 22.5794L11.5383 24.6664L9.32812 23.3904L9.33054 22.5513L10.6512 23.3137L11.1157 22.332L11.5442 22.5794Z" fill="#C9CEE2"/>
<path d="M28.6098 13.2939L28.603 15.3809L12.0854 24.9808L12.0922 22.8939L28.6098 13.2939Z" fill="#B0B8CF"/>
<path d="M12.0919 22.8939L12.0851 24.9808L11.5391 24.6655L11.5458 22.5786L12.0919 22.8939Z" fill="#C9CEE2"/>
<path d="M28.6095 13.2939L12.092 22.8939L11.5459 22.5786L28.0289 12.9588L28.6095 13.2939Z" fill="#E3E7F0"/>
<path d="M13.071 22.8446C13.3147 22.704 13.5125 22.8172 13.5132 23.097C13.5141 23.3769 13.3176 23.7179 13.0738 23.8586C12.8301 23.9994 12.6322 23.886 12.6313 23.6062C12.6306 23.3263 12.8273 22.9853 13.071 22.8446Z" fill="#1D2943"/>
<path d="M13.0713 23.025C13.2282 22.9345 13.3556 23.0074 13.3561 23.1877C13.3566 23.3678 13.23 23.5876 13.0731 23.6782C12.9161 23.7688 12.7886 23.6958 12.7881 23.5157C12.7876 23.3355 12.9143 23.1157 13.0713 23.025Z" fill="#4C5C75"/>
<path d="M13.5517 22.4782C13.5923 22.4548 13.6254 22.4737 13.6254 22.5203C13.6256 22.567 13.5928 22.6238 13.5522 22.6471C13.5467 22.6504 13.5407 22.6531 13.5345 22.6549L13.1499 23.3207L13.5368 23.5412C13.5423 23.5364 13.5484 23.5321 13.5548 23.5284C13.5953 23.505 13.6284 23.5239 13.6284 23.5705C13.6287 23.6172 13.5958 23.6738 13.5552 23.6973C13.5146 23.7208 13.4816 23.7021 13.4813 23.6554C13.4813 23.6481 13.4821 23.641 13.4835 23.6336L13.0967 23.413L12.7123 24.0788C12.7138 24.0845 12.7146 24.0909 12.7146 24.0982C12.7147 24.1449 12.6819 24.2015 12.6413 24.225C12.6006 24.2484 12.5676 24.2298 12.5675 24.1831C12.5674 24.1364 12.6001 24.0796 12.6408 24.056C12.6471 24.0524 12.6528 24.0499 12.6586 24.0483L13.043 23.3825L12.656 23.1621C12.6505 23.1669 12.6446 23.1711 12.6384 23.1748C12.5977 23.1983 12.5647 23.1796 12.5645 23.1329C12.5643 23.0862 12.5971 23.0294 12.6379 23.0059C12.6784 22.9825 12.7115 23.0014 12.7115 23.048C12.7115 23.0552 12.7109 23.0622 12.7095 23.0697L13.0964 23.2903L13.4806 22.6244C13.4791 22.6181 13.4783 22.6116 13.4784 22.6052C13.4783 22.5585 13.511 22.5017 13.5517 22.4782Z" fill="white"/>
<path d="M14.8835 21.791C15.1272 21.6504 15.325 21.7636 15.3257 22.0434C15.3266 22.3233 15.1301 22.6643 14.8863 22.805C14.6426 22.9458 14.4447 22.8324 14.4439 22.5526C14.443 22.2729 14.64 21.9318 14.8835 21.791Z" fill="#1D2943"/>
<path d="M14.8842 21.9716C15.0412 21.8809 15.1686 21.9538 15.1691 22.1341C15.1696 22.3144 15.043 22.5341 14.8861 22.6246C14.7291 22.7152 14.6016 22.6422 14.6011 22.4621C14.6006 22.2818 14.7273 22.0621 14.8842 21.9716Z" fill="#4C5C75"/>
<path d="M15.3642 21.4247C15.4048 21.4012 15.4379 21.4201 15.4379 21.4667C15.4381 21.5134 15.4053 21.5702 15.3647 21.5935C15.3592 21.5968 15.3532 21.5995 15.347 21.6013L14.9624 22.2672L15.3493 22.4877C15.3548 22.4828 15.3609 22.4785 15.3673 22.4749C15.4078 22.4514 15.4409 22.4703 15.4409 22.5169C15.4412 22.5636 15.4083 22.6202 15.3677 22.6437C15.3271 22.6672 15.2941 22.6485 15.2938 22.6018C15.2938 22.5945 15.2946 22.5875 15.296 22.58L14.9092 22.3594L14.5249 23.0253C14.5263 23.0309 14.5271 23.0373 14.5271 23.0446C14.5272 23.0913 14.4944 23.1479 14.4538 23.1714C14.4131 23.1949 14.3801 23.1762 14.38 23.1295C14.3799 23.0829 14.4126 23.026 14.4534 23.0026C14.4596 22.9989 14.4655 22.9963 14.4711 22.9947L14.8555 22.3289L14.4685 22.1085C14.463 22.1133 14.4571 22.1175 14.4509 22.1212C14.4102 22.1447 14.3772 22.126 14.377 22.0793C14.3768 22.0327 14.4096 21.9758 14.4504 21.9524C14.4909 21.9289 14.524 21.9478 14.524 21.9944C14.524 22.0016 14.5234 22.0086 14.522 22.0161L14.9089 22.2367L15.2931 21.5709C15.2916 21.5646 15.2908 21.5581 15.2909 21.5516C15.2908 21.505 15.3235 21.4482 15.3642 21.4247Z" fill="white"/>
<path d="M16.6965 20.7375C16.9402 20.5968 17.138 20.71 17.1387 20.9898C17.1394 21.2696 16.9431 21.6108 16.6993 21.7516C16.4556 21.8922 16.2577 21.7788 16.2568 21.4991C16.2561 21.2191 16.4529 20.8783 16.6965 20.7375Z" fill="#1D2943"/>
<path d="M16.6966 20.918C16.8536 20.8274 16.9811 20.9002 16.9816 21.0805C16.9821 21.2608 16.8555 21.4804 16.6986 21.571C16.5416 21.6616 16.4141 21.5886 16.4136 21.4085C16.4131 21.2282 16.5396 21.0085 16.6966 20.918Z" fill="#4C5C75"/>
<path d="M17.1772 20.3711C17.2178 20.3477 17.2509 20.3665 17.2509 20.4131C17.2511 20.4598 17.2183 20.5166 17.1777 20.5399C17.1722 20.5433 17.1662 20.5459 17.16 20.5478L16.7754 21.2137L17.1623 21.4342C17.1678 21.4293 17.1738 21.425 17.1802 21.4213C17.2208 21.3979 17.2539 21.4167 17.2539 21.4633C17.2542 21.5101 17.2213 21.5668 17.1807 21.5901C17.14 21.6137 17.1071 21.5949 17.1068 21.5482C17.1068 21.541 17.1076 21.534 17.109 21.5265L16.7222 21.306L16.3379 21.9717C16.3393 21.9775 16.34 21.9838 16.34 21.991C16.3402 22.0378 16.3074 22.0944 16.2669 22.1178C16.2262 22.1414 16.1931 22.1226 16.193 22.0759C16.1928 22.0293 16.2256 21.9724 16.2664 21.949C16.2725 21.9454 16.2785 21.9427 16.2841 21.9411L16.6686 21.2753L16.2815 21.0549C16.276 21.0597 16.2701 21.064 16.2638 21.0676C16.2231 21.0912 16.1902 21.0724 16.1899 21.0257C16.1899 20.9791 16.2225 20.9222 16.2634 20.8988C16.3039 20.8754 16.337 20.8942 16.337 20.9408C16.337 20.9481 16.3364 20.9551 16.335 20.9626L16.7219 21.1832L17.1061 20.5173C17.1046 20.511 17.1038 20.5045 17.1039 20.498C17.1038 20.4514 17.1365 20.3946 17.1772 20.3712V20.3711Z" fill="white"/>
<path d="M16.6965 20.7375C16.9402 20.5968 17.138 20.71 17.1387 20.9898C17.1394 21.2696 16.9431 21.6108 16.6993 21.7516C16.4556 21.8922 16.2577 21.7788 16.2568 21.4991C16.2561 21.2191 16.4529 20.8783 16.6965 20.7375Z" fill="#1D2943"/>
<path d="M16.6966 20.918C16.8536 20.8274 16.9811 20.9002 16.9816 21.0805C16.9821 21.2608 16.8555 21.4804 16.6986 21.571C16.5416 21.6616 16.4141 21.5886 16.4136 21.4085C16.4131 21.2282 16.5396 21.0085 16.6966 20.918Z" fill="#4C5C75"/>
<path d="M17.1772 20.3711C17.2178 20.3477 17.2509 20.3665 17.2509 20.4131C17.2511 20.4598 17.2183 20.5166 17.1777 20.5399C17.1722 20.5433 17.1662 20.5459 17.16 20.5478L16.7754 21.2137L17.1623 21.4342C17.1678 21.4293 17.1738 21.425 17.1802 21.4213C17.2208 21.3979 17.2539 21.4167 17.2539 21.4633C17.2542 21.5101 17.2213 21.5668 17.1807 21.5901C17.14 21.6137 17.1071 21.5949 17.1068 21.5482C17.1068 21.541 17.1076 21.534 17.109 21.5265L16.7222 21.306L16.3379 21.9717C16.3393 21.9775 16.34 21.9838 16.34 21.991C16.3402 22.0378 16.3074 22.0944 16.2669 22.1178C16.2262 22.1414 16.1931 22.1226 16.193 22.0759C16.1928 22.0293 16.2256 21.9724 16.2664 21.949C16.2725 21.9454 16.2785 21.9427 16.2841 21.9411L16.6686 21.2753L16.2815 21.0549C16.276 21.0597 16.2701 21.064 16.2638 21.0676C16.2231 21.0912 16.1902 21.0724 16.1899 21.0257C16.1899 20.9791 16.2225 20.9222 16.2634 20.8988C16.3039 20.8754 16.337 20.8942 16.337 20.9408C16.337 20.9481 16.3364 20.9551 16.335 20.9626L16.7219 21.1832L17.1061 20.5173C17.1046 20.511 17.1038 20.5045 17.1039 20.498C17.1038 20.4514 17.1365 20.3946 17.1772 20.3712V20.3711Z" fill="white"/>
<path d="M18.509 19.684C18.7527 19.5432 18.9505 19.6564 18.9512 19.9364C18.9519 20.2163 18.7556 20.5573 18.5118 20.698C18.2681 20.8386 18.0702 20.7252 18.0693 20.4455C18.0686 20.1655 18.2653 19.8247 18.5089 19.684H18.509Z" fill="#1D2943"/>
<path d="M18.5097 19.8644C18.6667 19.7738 18.7941 19.8467 18.7946 20.0269C18.7951 20.2072 18.6685 20.4269 18.5115 20.5174C18.3546 20.608 18.227 20.5352 18.2266 20.3549C18.2261 20.1746 18.3528 19.955 18.5097 19.8644Z" fill="#4C5C75"/>
<path d="M18.9897 19.3175C19.0303 19.2941 19.0634 19.3129 19.0635 19.3595C19.0636 19.4063 19.0309 19.463 18.9902 19.4863C18.9847 19.4897 18.9787 19.4923 18.9725 19.4942L18.5879 20.1601L18.9748 20.3806C18.9804 20.3757 18.9864 20.3714 18.9929 20.3677C19.0333 20.3443 19.0664 20.3631 19.0665 20.4097C19.0665 20.4565 19.0338 20.5132 18.9932 20.5365C18.9525 20.5601 18.9196 20.5414 18.9193 20.4946C18.9193 20.4874 18.9201 20.4804 18.9215 20.4729L18.5347 20.2524L18.1504 20.9181C18.1518 20.9239 18.1525 20.9302 18.1525 20.9374C18.1527 20.9842 18.1199 21.0408 18.0794 21.0642C18.0387 21.0878 18.0056 21.0691 18.0055 21.0223C18.0053 20.9757 18.0381 20.9188 18.0789 20.8954C18.085 20.8918 18.091 20.8891 18.0966 20.8876L18.4811 20.2217L18.094 20.0013C18.0885 20.0061 18.0826 20.0104 18.0763 20.014C18.0356 20.0376 18.0027 20.0188 18.0024 19.9721C18.0024 19.9255 18.0352 19.8686 18.0759 19.8452C18.1164 19.8218 18.1495 19.8406 18.1495 19.8872C18.1495 19.8945 18.1489 19.9015 18.1475 19.909L18.5344 20.1296L18.9186 19.4637C18.9171 19.4574 18.9163 19.4509 18.9164 19.4444C18.9163 19.3979 18.949 19.3409 18.9897 19.3175Z" fill="white"/>
<path d="M20.3219 18.6304C20.5657 18.4897 20.7635 18.6029 20.7642 18.8828C20.765 19.1626 20.5686 19.5037 20.3248 19.6444C20.0811 19.785 19.8832 19.6718 19.8823 19.3919C19.8816 19.1121 20.0783 18.7711 20.3219 18.6304Z" fill="#1D2943"/>
<path d="M20.3222 18.8108C20.4792 18.7203 20.6066 18.7931 20.6071 18.9734C20.6076 19.1536 20.481 19.3733 20.324 19.464C20.1671 19.5547 20.0395 19.4816 20.0391 19.3013C20.0386 19.121 20.1653 18.9014 20.3222 18.8108Z" fill="#4C5C75"/>
<path d="M20.8027 18.2639C20.8433 18.2405 20.8764 18.2593 20.8765 18.3059C20.8766 18.3527 20.8439 18.4094 20.8032 18.4327C20.7976 18.4361 20.7917 18.4387 20.7855 18.4406L20.4008 19.1065L20.7877 19.327C20.7933 19.3221 20.7994 19.3178 20.8059 19.3141C20.8463 19.2907 20.8794 19.3095 20.8795 19.3561C20.8795 19.4029 20.8468 19.4596 20.8062 19.4829C20.7655 19.5065 20.7326 19.4878 20.7323 19.441C20.7323 19.4338 20.733 19.4268 20.7345 19.4193L20.3477 19.1988L19.9634 19.8645C19.9648 19.8703 19.9655 19.8766 19.9655 19.8838C19.9656 19.9306 19.9329 19.9872 19.8924 20.0106C19.8517 20.0342 19.8186 20.0155 19.8184 19.9687C19.8183 19.9221 19.8511 19.8652 19.8919 19.8418C19.898 19.8382 19.9039 19.8355 19.9096 19.834L20.2941 19.1681L19.907 18.9478C19.9015 18.9526 19.8956 18.9568 19.8893 18.9604C19.8486 18.984 19.8157 18.9653 19.8154 18.9185C19.8154 18.8719 19.8482 18.8152 19.8888 18.7916C19.9294 18.7682 19.9625 18.787 19.9625 18.8336C19.9625 18.8409 19.9619 18.8479 19.9605 18.8554L20.3474 19.076L20.7316 18.4102C20.73 18.4038 20.7293 18.3973 20.7294 18.3908C20.7293 18.3443 20.762 18.2873 20.8027 18.2639Z" fill="white"/>
<path d="M20.3219 18.6304C20.5657 18.4897 20.7635 18.6029 20.7642 18.8828C20.765 19.1626 20.5686 19.5037 20.3248 19.6444C20.0811 19.785 19.8832 19.6718 19.8823 19.3919C19.8816 19.1121 20.0783 18.7711 20.3219 18.6304Z" fill="#1D2943"/>
<path d="M20.3222 18.8108C20.4792 18.7203 20.6066 18.7931 20.6071 18.9734C20.6076 19.1536 20.481 19.3733 20.324 19.464C20.1671 19.5547 20.0395 19.4816 20.0391 19.3013C20.0386 19.121 20.1653 18.9014 20.3222 18.8108Z" fill="#4C5C75"/>
<path d="M20.8027 18.2639C20.8433 18.2405 20.8764 18.2593 20.8765 18.3059C20.8766 18.3527 20.8439 18.4094 20.8032 18.4327C20.7976 18.4361 20.7917 18.4387 20.7855 18.4406L20.4008 19.1065L20.7877 19.327C20.7933 19.3221 20.7994 19.3178 20.8059 19.3141C20.8463 19.2907 20.8794 19.3095 20.8795 19.3561C20.8795 19.4029 20.8468 19.4596 20.8062 19.4829C20.7655 19.5065 20.7326 19.4878 20.7323 19.441C20.7323 19.4338 20.733 19.4268 20.7345 19.4193L20.3477 19.1988L19.9634 19.8645C19.9648 19.8703 19.9655 19.8766 19.9655 19.8838C19.9656 19.9306 19.9329 19.9872 19.8924 20.0106C19.8517 20.0342 19.8186 20.0155 19.8184 19.9687C19.8183 19.9221 19.8511 19.8652 19.8919 19.8418C19.898 19.8382 19.9039 19.8355 19.9096 19.834L20.2941 19.1681L19.907 18.9478C19.9015 18.9526 19.8956 18.9568 19.8893 18.9604C19.8486 18.984 19.8157 18.9653 19.8154 18.9185C19.8154 18.8719 19.8482 18.8152 19.8888 18.7916C19.9294 18.7682 19.9625 18.787 19.9625 18.8336C19.9625 18.8409 19.9619 18.8479 19.9605 18.8554L20.3474 19.076L20.7316 18.4102C20.73 18.4038 20.7293 18.3973 20.7294 18.3908C20.7293 18.3443 20.762 18.2873 20.8027 18.2639Z" fill="white"/>
<path d="M22.1349 17.5768C22.3785 17.4361 22.5763 17.5493 22.5771 17.8292C22.5779 18.109 22.3814 18.4501 22.1378 18.5908C21.894 18.7315 21.696 18.6182 21.6953 18.3384C21.6945 18.0585 21.8912 17.7175 22.1349 17.5768Z" fill="#1D2943"/>
<path d="M22.1352 17.7572C22.2922 17.6667 22.4196 17.7395 22.4201 17.9198C22.4206 18.1001 22.294 18.3197 22.137 18.4104C21.9801 18.501 21.8525 18.428 21.8521 18.2477C21.8516 18.0674 21.9782 17.8478 22.1352 17.7572Z" fill="#4C5C75"/>
<path d="M22.6152 17.2103C22.6558 17.1869 22.6889 17.2057 22.689 17.2524C22.6891 17.2991 22.6564 17.3558 22.6157 17.3791C22.6101 17.3825 22.6042 17.3851 22.598 17.387L22.2133 18.053L22.6002 18.2735C22.6058 18.2686 22.6119 18.2642 22.6184 18.2605C22.6588 18.2371 22.6919 18.2559 22.692 18.3026C22.692 18.3493 22.6593 18.406 22.6187 18.4293C22.578 18.4529 22.5451 18.4342 22.5448 18.3874C22.5448 18.3802 22.5455 18.3732 22.547 18.3657L22.1602 18.1452L21.7759 18.8111C21.7773 18.8167 21.778 18.8231 21.778 18.8303C21.7781 18.877 21.7454 18.9336 21.7048 18.957C21.6642 18.9806 21.6311 18.9619 21.6309 18.9151C21.6308 18.8685 21.6636 18.8117 21.7044 18.7882C21.7105 18.7846 21.7164 18.782 21.7221 18.7804L22.1066 18.1147L21.7195 17.8942C21.714 17.899 21.7081 17.9033 21.7018 17.907C21.6611 17.9304 21.6282 17.9118 21.6279 17.8649C21.6279 17.8183 21.6607 17.7616 21.7013 17.7381C21.7419 17.7146 21.775 17.7334 21.775 17.78C21.775 17.7873 21.7744 17.7943 21.773 17.8018L22.1599 18.0224L22.5441 17.3566C22.5425 17.3502 22.5418 17.3437 22.5419 17.3372C22.5418 17.2908 22.5745 17.2339 22.6152 17.2104V17.2103Z" fill="white"/>
<path d="M23.9474 16.5232C24.191 16.3826 24.3888 16.4957 24.3897 16.7756C24.3904 17.0554 24.1939 17.3965 23.9501 17.5372C23.7065 17.6779 23.5085 17.5646 23.5078 17.2848C23.507 17.0049 23.7037 16.6639 23.9474 16.5232Z" fill="#1D2943"/>
<path d="M23.9477 16.7036C24.1047 16.6131 24.2321 16.6859 24.2327 16.8662C24.2331 17.0465 24.1065 17.2661 23.9495 17.3568C23.7926 17.4474 23.665 17.3744 23.6646 17.1941C23.6641 17.0139 23.7907 16.7942 23.9477 16.7036Z" fill="#4C5C75"/>
<path d="M24.4283 16.1567C24.4688 16.1334 24.5019 16.1522 24.502 16.1988C24.5021 16.2456 24.4694 16.3023 24.4287 16.3257C24.4231 16.3291 24.4172 16.3317 24.4109 16.3335L24.0263 16.9994L24.4132 17.2199C24.4188 17.215 24.4249 17.2106 24.4313 17.2069C24.4718 17.1835 24.5049 17.2024 24.505 17.249C24.505 17.2957 24.4723 17.3525 24.4317 17.3758C24.391 17.3993 24.3581 17.3806 24.3579 17.334C24.3579 17.3267 24.3585 17.3196 24.36 17.3122L23.9732 17.0916L23.5888 17.7575C23.5903 17.7631 23.591 17.7695 23.591 17.7767C23.5911 17.8234 23.5584 17.8802 23.5178 17.9035C23.4771 17.927 23.4442 17.9083 23.4439 17.8616C23.4438 17.815 23.4765 17.7581 23.5174 17.7346C23.5236 17.731 23.5294 17.7285 23.5351 17.7268L23.9196 17.0611L23.5325 16.8406C23.527 16.8454 23.5211 16.8497 23.5148 16.8534C23.4741 16.8768 23.4412 16.8582 23.4409 16.8114C23.4409 16.7649 23.4736 16.708 23.5143 16.6846C23.5549 16.661 23.588 16.6799 23.588 16.7265C23.588 16.7337 23.5874 16.7408 23.5859 16.7482L23.9728 16.9688L24.3571 16.303C24.3555 16.2967 24.3548 16.2902 24.3549 16.2837C24.3548 16.2372 24.3875 16.1802 24.4283 16.1567Z" fill="white"/>
<path d="M25.7604 15.4697C26.004 15.329 26.2018 15.4421 26.2027 15.722C26.2034 16.0018 26.0069 16.343 25.7631 16.4836C25.5196 16.6243 25.3215 16.511 25.3208 16.2313C25.32 15.9513 25.5167 15.6103 25.7604 15.4697Z" fill="#1D2943"/>
<path d="M25.7606 15.6501C25.9176 15.5595 26.0451 15.6323 26.0456 15.8126C26.0461 15.9929 25.9195 16.2125 25.7625 16.3032C25.6055 16.3938 25.478 16.3208 25.4775 16.1406C25.4771 15.9603 25.6036 15.7407 25.7606 15.6501Z" fill="#4C5C75"/>
<path d="M26.2413 15.1033C26.2818 15.0798 26.3149 15.0987 26.315 15.1452C26.3151 15.192 26.2824 15.2487 26.2418 15.2721C26.2362 15.2755 26.2302 15.2781 26.2239 15.2799L25.8393 15.9458L26.2263 16.1663C26.2319 16.1614 26.2378 16.1571 26.2442 16.1534C26.2848 16.1299 26.3179 16.1488 26.3179 16.1954C26.3181 16.2421 26.2853 16.2989 26.2447 16.3222C26.204 16.3457 26.171 16.327 26.1709 16.2804C26.1709 16.2731 26.1715 16.266 26.173 16.2587L25.7862 16.038L25.4018 16.7039C25.4033 16.7096 25.404 16.716 25.404 16.7231C25.4041 16.7698 25.3714 16.8266 25.3308 16.8499C25.2901 16.8734 25.2572 16.8547 25.2569 16.808C25.2568 16.7614 25.2895 16.7046 25.3303 16.6811C25.3366 16.6774 25.3424 16.6749 25.3481 16.6733L25.7326 16.0075L25.3454 15.787C25.34 15.7918 25.3341 15.7961 25.3278 15.7998C25.2871 15.8232 25.2541 15.8046 25.2539 15.7579C25.2539 15.7113 25.2866 15.6544 25.3273 15.6309C25.3679 15.6074 25.401 15.6263 25.401 15.6729C25.401 15.6801 25.4004 15.6872 25.3989 15.6946L25.7858 15.9152L26.1701 15.2494C26.1685 15.2431 26.1678 15.2366 26.1679 15.2301C26.1678 15.1836 26.2005 15.1267 26.2413 15.1033Z" fill="white"/>
<path d="M27.5729 14.4161C27.8165 14.2754 28.0143 14.3887 28.0152 14.6685C28.0159 14.9484 27.8194 15.2894 27.5756 15.4301C27.3321 15.5707 27.134 15.4575 27.1333 15.1777C27.1325 14.8978 27.3292 14.5568 27.5729 14.4161Z" fill="#1D2943"/>
<path d="M27.5737 14.5965C27.7307 14.5059 27.8581 14.5788 27.8587 14.759C27.859 14.9393 27.7325 15.1589 27.5755 15.2496C27.4185 15.3402 27.291 15.2673 27.2905 15.087C27.29 14.9067 27.4167 14.6872 27.5737 14.5965Z" fill="#4C5C75"/>
<path d="M28.0537 14.0497C28.0943 14.0263 28.1274 14.0451 28.1275 14.0917C28.1276 14.1384 28.0949 14.1951 28.0543 14.2185C28.0487 14.2219 28.0427 14.2245 28.0364 14.2263L27.6518 14.8922L28.0388 15.1127C28.0444 15.1078 28.0503 15.1035 28.0567 15.0998C28.0973 15.0765 28.1304 15.0952 28.1304 15.1418C28.1306 15.1886 28.0978 15.2453 28.0572 15.2687C28.0165 15.2922 27.9835 15.2735 27.9834 15.2268C27.9834 15.2196 27.984 15.2124 27.9855 15.2051L27.5987 14.9844L27.2143 15.6503C27.2158 15.656 27.2165 15.6624 27.2165 15.6695C27.2166 15.7162 27.1839 15.773 27.1433 15.7963C27.1026 15.8198 27.0697 15.8011 27.0694 15.7544C27.0693 15.7078 27.102 15.651 27.1428 15.6276C27.1491 15.624 27.1549 15.6213 27.1606 15.6197L27.5451 14.9539L27.1581 14.7335C27.1526 14.7383 27.1466 14.7426 27.1403 14.7462C27.0996 14.7696 27.0666 14.751 27.0664 14.7043C27.0664 14.6577 27.0991 14.6008 27.1398 14.5773C27.1804 14.5538 27.2135 14.5727 27.2135 14.6193C27.2135 14.6265 27.2129 14.6337 27.2114 14.641L27.5983 14.8618L27.9826 14.1958C27.981 14.1895 27.9803 14.183 27.9804 14.1765C27.9803 14.13 28.0129 14.0731 28.0537 14.0497Z" fill="white"/>
<path d="M26.8405 16.405L26.8395 16.782C26.8383 17.2969 26.4736 17.5045 26.0256 17.2457L25.709 17.0627L26.8405 16.405Z" fill="#9EA9C9"/>
<path d="M8.68845 18.6759L8.68725 19.0897C8.68725 19.0527 8.66635 19.0173 8.62566 18.9814C8.59861 18.9576 8.58545 18.9303 8.58545 18.9029L8.58666 18.4891C8.58666 18.5164 8.59982 18.5438 8.62687 18.5676C8.66756 18.6033 8.68845 18.6388 8.68845 18.6759Z" fill="#1D2943"/>
<path d="M9.10773 18.2349L9.10653 18.6479L8.81913 18.8158V19.0899C8.81792 19.2094 8.66698 19.3169 8.50517 19.4111C8.15619 19.614 7.86517 19.6731 7.61521 19.591C7.5657 19.5741 7.50653 19.5777 7.46788 19.6007L7.19015 19.7625L7.09717 19.7081L7.09838 19.294L7.37611 19.1322C7.45581 19.0863 7.58019 19.0778 7.68041 19.1104C7.87241 19.1732 8.11151 19.1189 8.41339 18.9438C8.69113 18.782 8.7503 18.6769 8.62713 18.567C8.56192 18.5115 8.57641 18.4354 8.65973 18.3871L9.01475 18.1806L9.10773 18.2349Z" fill="#111D33"/>
<path d="M8.75296 18.4409C8.73001 18.4542 8.71818 18.472 8.71806 18.4895L8.71685 18.9034C8.71685 18.8858 8.72893 18.8682 8.75175 18.8549L9.10713 18.6484L9.10834 18.2344L8.75296 18.4409ZM7.19172 19.3483L7.19051 19.7621L7.09717 19.7081L7.09825 19.2943L7.19172 19.3483Z" fill="#1D2943"/>
<path d="M8.50666 18.9974C8.15743 19.2003 7.86617 19.2591 7.61633 19.1767C7.56682 19.1604 7.50801 19.1644 7.46986 19.1865L7.19164 19.3483L7.19043 19.7621L7.46877 19.6003C7.50693 19.5782 7.56561 19.5742 7.61512 19.5907C7.86509 19.6729 8.15623 19.6142 8.50557 19.4112C8.66774 19.317 8.81857 19.2089 8.81893 19.09L8.82014 18.6762C8.81977 18.7951 8.66895 18.9032 8.50666 18.9974Z" fill="#111D33"/>
<path d="M9.10811 18.2345L8.75285 18.441C8.71348 18.4639 8.7066 18.4995 8.73654 18.5258C8.94062 18.705 8.73485 18.8648 8.50663 18.9974C8.15741 19.2003 7.86614 19.2591 7.6163 19.1767C7.56679 19.1604 7.50799 19.1644 7.46983 19.1865L7.19161 19.3483L7.09814 19.2943L7.37648 19.1325C7.4557 19.0866 7.58092 19.0776 7.68103 19.1104C7.87206 19.1733 8.11164 19.1187 8.41328 18.9434C8.69102 18.7821 8.75079 18.6765 8.62678 18.5676C8.56278 18.5112 8.57642 18.4353 8.65938 18.3871L9.01476 18.1806L9.10811 18.2345Z" fill="#4C5C75"/>
<path d="M8.94489 18.4426C8.99005 18.4166 9.02652 18.4376 9.02664 18.4892C9.02688 18.5411 8.99054 18.6038 8.94538 18.6299C8.90058 18.6558 8.86411 18.6349 8.86399 18.5832C8.86387 18.5315 8.89997 18.4685 8.94489 18.4426ZM7.34006 19.3773C7.38535 19.3512 7.42181 19.3722 7.42193 19.4239C7.42206 19.4756 7.38571 19.5385 7.34067 19.5645C7.29575 19.5904 7.2594 19.5695 7.25928 19.5178C7.25916 19.466 7.29514 19.4031 7.34006 19.3773Z" fill="#C9CEE2"/>
<path d="M26.9066 4.45536L26.9061 5.14524C26.906 5.20151 26.869 5.25754 26.7953 5.30053C26.6467 5.38674 26.405 5.38674 26.2555 5.30053C26.1804 5.25705 26.1429 5.2003 26.1431 5.1433L26.1435 4.45355C26.1434 4.51031 26.181 4.5673 26.2561 4.61053C26.4056 4.69699 26.6473 4.69699 26.7957 4.61053C26.8695 4.56779 26.9065 4.51164 26.9066 4.45536Z" fill="#4C5C75"/>
<path d="M28.3667 1.13437L28.0879 0.972321L24.6401 2.96296L24.6476 5.59566L24.9263 5.75759L28.3742 3.76707L28.3667 1.13437Z" fill="#111D33"/>
<path d="M24.9263 5.75758L24.6476 5.59565L24.6401 2.96295L24.9188 3.12488L24.9263 5.75758Z" fill="#111D33"/>
<path d="M24.9188 3.12489L24.6401 2.96296L28.0879 0.972321L28.3667 1.13437L24.9188 3.12489Z" fill="#4C5C75"/>
<path d="M28.3669 1.13437L28.3743 3.76706L24.9264 5.75758L24.9189 3.12489L28.3669 1.13437Z" fill="#1D2943"/>
<path d="M25.105 3.23211L28.1813 1.45593L28.1876 3.65971L25.111 5.43601L25.105 3.23211Z" fill="#57B3FE"/>
<path d="M7.56765 16.7813C7.55896 16.797 7.55039 16.8128 7.53891 16.8272C7.53746 16.83 7.53602 16.8314 7.53312 16.8343C7.4888 16.8973 7.42287 16.9561 7.33399 17.0077C6.96569 17.2226 6.36675 17.2226 5.99567 17.0077C5.9039 16.9561 5.83507 16.8944 5.79075 16.83C5.7893 16.8286 5.7893 16.8272 5.78785 16.8257C5.77651 16.8113 5.76645 16.796 5.75778 16.7798C5.6933 16.6567 5.70465 16.5234 5.79365 16.4044C5.79605 16.3995 5.79946 16.3951 5.80367 16.3915C5.83084 16.3543 5.86815 16.3184 5.91392 16.284C5.93686 16.2669 5.9627 16.2497 5.99132 16.2325C6.05565 16.1954 6.12389 16.1656 6.19479 16.1436C6.48424 16.0476 6.84397 16.049 7.13342 16.1465C7.20358 16.1694 7.26951 16.198 7.32965 16.2325C7.35839 16.2497 7.38556 16.2669 7.40995 16.2856C7.45716 16.3199 7.49593 16.3571 7.52466 16.3973C7.52889 16.4015 7.53179 16.4044 7.53457 16.4088C7.62054 16.5277 7.63214 16.6594 7.56765 16.7813Z" fill="#4C5C75"/>
<path d="M5.80435 16.391C5.81039 16.4176 5.82005 16.4429 5.83333 16.4683C5.8128 16.4333 5.80073 16.3958 5.7959 16.3584C5.79831 16.3693 5.80073 16.3801 5.80435 16.391ZM7.53477 16.3391C7.53477 16.3417 7.53356 16.3443 7.53344 16.3469C7.53392 16.3394 7.53465 16.3321 7.53465 16.3246L7.53477 16.3391Z" fill="#FEBC1F"/>
<path d="M7.53435 16.3297C7.53725 16.1975 7.45212 16.065 7.27871 15.9647C6.93698 15.7679 6.38513 15.7679 6.04702 15.9647C5.87796 16.0625 5.79343 16.1918 5.79343 16.321V16.4043L5.79102 16.8305C5.83569 16.8945 5.90452 16.9561 5.9963 17.0081C6.36702 17.223 6.96596 17.223 7.33426 17.0081C7.42362 16.9561 7.48883 16.897 7.53351 16.8342L7.53471 16.4091V16.3391C7.53471 16.3417 7.53351 16.3443 7.53339 16.3469C7.53375 16.3411 7.53435 16.3354 7.53435 16.3298V16.3297ZM5.79585 16.3584C5.79826 16.3693 5.80068 16.3801 5.8043 16.391C5.81034 16.4176 5.82 16.4429 5.83328 16.4683C5.81275 16.4333 5.80068 16.3958 5.79585 16.3584Z" fill="#FEBC1F"/>
<path d="M7.53477 16.3246V16.3391C7.53489 16.3359 7.5344 16.3329 7.5344 16.3298L7.53477 16.3246ZM5.80435 16.391C5.81039 16.4176 5.82005 16.4429 5.83333 16.4683C5.8128 16.4333 5.80073 16.3958 5.7959 16.3584C5.79831 16.3693 5.80073 16.3801 5.80435 16.391Z" fill="#FEBC1F"/>
<path d="M7.53453 16.3391C7.53453 16.3417 7.53332 16.3443 7.5332 16.3469C7.53369 16.3394 7.53441 16.3321 7.53441 16.3246L7.53453 16.3391Z" fill="#FEBC1F"/>
<path d="M7.53483 16.3242V16.4087L7.53339 16.8343C7.48907 16.8973 7.42314 16.9561 7.33426 17.0077C6.96596 17.2226 6.36702 17.2226 5.99594 17.0077C5.90416 16.9561 5.83533 16.8944 5.79102 16.8299L5.79391 16.4044V16.3213C5.79391 16.3457 5.79669 16.3685 5.80394 16.3915C5.82833 16.4962 5.91141 16.598 6.05028 16.6781C6.39141 16.8744 6.94314 16.8744 7.2827 16.6781C7.32424 16.6538 7.36143 16.6279 7.39307 16.5993C7.40877 16.5849 7.42314 16.572 7.43606 16.5563C7.44886 16.5419 7.46178 16.5277 7.4718 16.5119C7.49764 16.4746 7.51624 16.4359 7.52493 16.3972C7.53171 16.3734 7.53505 16.3489 7.53483 16.3242Z" fill="#FEBC1F"/>
<path d="M7.27835 15.9644C7.6196 16.1614 7.62142 16.4808 7.28246 16.6779C6.94326 16.875 6.39189 16.875 6.05052 16.6779C5.70927 16.4808 5.70757 16.1614 6.04665 15.9644C6.38561 15.7674 6.9371 15.7674 7.27835 15.9644Z" fill="#FFD06C"/>
<path d="M7.41263 15.8102L7.41021 16.2799C7.40901 16.3898 7.33655 16.5009 7.19286 16.5842C6.90063 16.7533 6.42727 16.7533 6.13504 16.5842C5.98772 16.4997 5.91406 16.3874 5.91406 16.2763L5.91648 15.8053C5.91648 15.6954 5.98893 15.5856 6.13384 15.501C6.42485 15.332 6.89821 15.332 7.19165 15.501C7.33897 15.5868 7.41263 15.6979 7.41263 15.8102Z" fill="#DF3260"/>
<path d="M7.17128 26.0339C7.14496 26.0491 7.12865 26.0814 7.12853 26.1276L7.12793 26.3708L7.41895 26.2017L7.41967 25.9583C7.41979 25.9124 7.4361 25.8799 7.4623 25.8647L7.17128 26.0337V26.0339Z" fill="#4C5C75"/>
<path d="M7.12695 25.9572L7.41797 25.7881C7.45613 25.7659 7.50878 25.7689 7.56674 25.8025C7.60732 25.8259 7.64402 25.8281 7.67071 25.8127L7.37969 25.9817C7.35313 25.9973 7.31618 25.995 7.2756 25.9717C7.21764 25.9381 7.16499 25.9351 7.12695 25.9572Z" fill="#4C5C75"/>
<path d="M7.57007 24.5519C7.48953 24.5052 7.4242 24.3921 7.42444 24.2995L7.42504 24.0956L7.1339 24.2647L7.1333 24.4688C7.13306 24.5613 7.19851 24.6744 7.27905 24.721C7.39425 24.7876 7.48784 24.9495 7.48747 25.0821L7.48506 25.9244C7.48482 25.9903 7.46151 26.0367 7.42396 26.0584L7.71498 25.8893C7.75265 25.8674 7.77596 25.821 7.7762 25.7553L7.77861 24.9128C7.77886 24.7803 7.68539 24.6184 7.57007 24.5517V24.5519Z" fill="#4C5C75"/>
<path d="M7.07129 24.2285L7.36243 24.0593L7.42534 24.0956L7.1342 24.2648L7.07129 24.2285Z" fill="#111D33"/>
<path d="M7.27573 24.2536C7.32717 24.2239 7.36871 24.2477 7.36895 24.3067C7.36919 24.3656 7.3279 24.4371 7.27633 24.467C7.22525 24.4964 7.18371 24.4726 7.18359 24.4137C7.18347 24.3548 7.22465 24.283 7.27573 24.2536ZM7.27573 26.011C7.32717 25.9813 7.36871 26.0052 7.36895 26.0642C7.36919 26.1232 7.3279 26.1947 7.27633 26.2244C7.22525 26.254 7.18371 26.2302 7.18359 26.1713C7.18347 26.1122 7.22465 26.0406 7.27573 26.011Z" fill="#C9CEE2"/>
<path d="M7.13426 24.2648L7.13366 24.4686C7.13341 24.5613 7.19886 24.6744 7.27941 24.721C7.39461 24.7875 7.48819 24.9495 7.48783 25.0821L7.48541 25.9245C7.48505 26.0569 7.39086 26.1104 7.27566 26.044C7.195 25.9974 7.12919 26.0348 7.12895 26.1274L7.12834 26.3708L7.06543 26.3345L7.06603 26.0912C7.0664 25.9587 7.16058 25.9051 7.27578 25.9717C7.35645 26.0182 7.42226 25.9807 7.4225 25.8881L7.42492 25.0456C7.42516 24.953 7.35971 24.8398 7.27917 24.7932C7.16384 24.7268 7.07038 24.5648 7.07074 24.4323L7.07135 24.2285L7.13426 24.2648Z" fill="#1D2943"/>
</g>
<defs>
<clipPath id="clip0_199_1807">
<rect width="32" height="32" fill="white"/>
</clipPath>
</defs>
</svg>
