<svg width="32" height="32" viewBox="0 0 32 32" fill="none" xmlns="http://www.w3.org/2000/svg">
<g clip-path="url(#clip0_199_1807)">
<path d="M5.91553 29.6836L6.05041 29.6052L6.26234 28.7849L6.12757 28.8633L5.91553 29.6836Z" fill="#9EA9C9"/>
<path d="M6.12758 28.8633L6.26234 28.7849L5.49627 28.3426L5.36139 28.421L6.12758 28.8633Z" fill="#414F65"/>
<path d="M5.36139 28.421L5.56776 29.4828L5.91553 29.6836L6.12758 28.8633L5.36139 28.421Z" fill="#B0B8CF"/>
<path d="M6.10355 30.0189C6.10355 30.1701 6.04619 30.2795 5.96275 30.3265L5.5866 30.5487C5.67523 30.4965 5.5063 30.3894 5.5063 30.2383C5.5063 29.9358 5.46162 29.797 5.19571 29.6458C5.06023 29.5675 4.99768 29.3288 4.90904 29.381L5.28519 29.164C5.37371 29.1119 5.49362 29.1223 5.62922 29.1954C5.895 29.3516 6.10355 29.7113 6.10355 30.0189Z" fill="#4C5C75"/>
<path d="M5.25306 29.4162C4.99018 29.2644 4.77306 29.3805 4.77222 29.6865C4.77137 29.9886 4.98704 30.3621 5.24993 30.5139C5.51619 30.6676 5.72654 30.5401 5.72739 30.2379C5.72823 29.9319 5.51933 29.5699 5.25306 29.4162Z" fill="#1D2943"/>
<path d="M5.25174 29.6373C5.09476 29.5468 4.96531 29.6159 4.96483 29.7985C4.96423 29.9789 5.09295 30.2018 5.24981 30.2924C5.40885 30.3842 5.53431 30.3081 5.53479 30.1277C5.5354 29.9451 5.41066 29.7291 5.25174 29.6373Z" fill="#DEDFFB"/>
<path d="M5.57344 29.1905L5.70832 29.1122L4.94226 28.6698L4.80737 28.7483L5.57344 29.1905Z" fill="#414F65"/>
<path d="M5.70868 29.1125L5.49615 29.9324L5.3609 30.0109L5.01313 29.8105L4.80785 28.7478L5.57343 29.191L5.70868 29.1125Z" fill="#B0B8CF"/>
<path d="M5.36139 30.0108L5.49627 29.9324L5.70832 29.1122L5.57343 29.1905L5.36139 30.0108Z" fill="#9EA9C9"/>
<path d="M4.80737 28.7483L5.01362 29.81L5.3614 30.0108L5.57344 29.1905L4.80737 28.7483Z" fill="#B0B8CF"/>
<path d="M10.0697 27.2694L10.2046 27.1911L10.4165 26.3708L10.2817 26.4492L10.0697 27.2694Z" fill="#9EA9C9"/>
<path d="M10.2817 26.4492L10.4165 26.3708L9.65048 25.9285L9.51559 26.0068L10.2817 26.4492Z" fill="#414F65"/>
<path d="M9.51559 26.0068L9.72184 27.0686L10.0697 27.2694L10.2817 26.4492L9.51559 26.0068Z" fill="#B0B8CF"/>
<path d="M10.2578 27.6048C10.2578 27.7558 10.2004 27.8654 10.117 27.9122L9.7408 28.1344C9.82943 28.0824 9.6605 27.9753 9.6605 27.8241C9.6605 27.5217 9.61582 27.3827 9.34992 27.2315C9.21443 27.1534 9.15188 26.9147 9.06313 26.9668L9.43928 26.7498C9.52791 26.6978 9.64782 26.7082 9.78343 26.7812C10.0491 26.9375 10.2578 27.2972 10.2578 27.6048Z" fill="#4C5C75"/>
<path d="M9.40727 27.0021C9.14427 26.8503 8.92727 26.9663 8.92642 27.2723C8.92558 27.5745 9.14125 27.9478 9.40413 28.0997C9.67039 28.2535 9.88075 28.1258 9.88159 27.8237C9.88244 27.5178 9.67353 27.1559 9.40727 27.0021Z" fill="#1D2943"/>
<path d="M9.40595 27.2232C9.24897 27.1326 9.11952 27.2018 9.11904 27.3844C9.11843 27.5647 9.24716 27.7877 9.40402 27.8783C9.56305 27.9701 9.68852 27.8939 9.689 27.7136C9.6896 27.531 9.56486 27.315 9.40595 27.2232Z" fill="#DEDFFB"/>
<path d="M9.51559 27.5967L9.65048 27.5183L9.86252 26.698L9.72764 26.7764L9.51559 27.5967Z" fill="#9EA9C9"/>
<path d="M9.72763 26.7764L9.86251 26.698L9.09645 26.2557L8.96156 26.3341L9.72763 26.7764Z" fill="#414F65"/>
<path d="M8.96156 26.3341L9.16781 27.3959L9.51559 27.5967L9.72763 26.7764L8.96156 26.3341Z" fill="#B0B8CF"/>
<path d="M26.8509 17.5604L26.9858 17.482L27.1978 16.6617L27.0629 16.7401L26.8509 17.5604Z" fill="#9EA9C9"/>
<path d="M27.0629 16.7401L27.1978 16.6617L26.4318 16.2194L26.2969 16.2978L27.0629 16.7401Z" fill="#414F65"/>
<path d="M26.2969 16.2978L26.5031 17.3596L26.8509 17.5604L27.0629 16.7401L26.2969 16.2978Z" fill="#B0B8CF"/>
<path d="M27.0389 17.8957C27.0389 18.0469 26.9816 18.1563 26.8982 18.2033L26.5221 18.4255C26.6107 18.3733 26.4417 18.2662 26.4417 18.1151C26.4417 17.8128 26.397 17.6738 26.1312 17.5226C25.9956 17.4444 25.933 17.2056 25.8444 17.2578L26.2206 17.0408C26.3092 16.9887 26.4291 16.9991 26.5647 17.0722C26.8304 17.2284 27.0389 17.5882 27.0389 17.8957Z" fill="#4C5C75"/>
<path d="M26.1884 17.2931C25.9255 17.1414 25.7086 17.2573 25.7077 17.5633C25.7067 17.8654 25.9224 18.2389 26.1853 18.3907C26.4516 18.5444 26.6619 18.4169 26.6629 18.1148C26.6637 17.8088 26.4547 17.4469 26.1884 17.2931Z" fill="#1D2943"/>
<path d="M26.1871 17.5142C26.0301 17.4236 25.9007 17.4928 25.9002 17.6754C25.8997 17.8558 26.0284 18.0787 26.1853 18.1692C26.3442 18.261 26.4698 18.1849 26.4703 18.0045C26.4708 17.822 26.346 17.6059 26.1871 17.5142Z" fill="#DEDFFB"/>
<path d="M26.2969 17.8876L26.4318 17.8093L26.6437 16.989L26.5088 17.0674L26.2969 17.8876Z" fill="#9EA9C9"/>
<path d="M26.5088 17.0674L26.6437 16.989L25.8776 16.5468L25.7427 16.6252L26.5088 17.0674Z" fill="#414F65"/>
<path d="M25.7427 16.6252L25.949 17.6868L26.2969 17.8876L26.5088 17.0674L25.7427 16.6252Z" fill="#B0B8CF"/>
<path d="M31.0051 15.1463L31.14 15.0679L31.352 14.2476L31.2171 14.326L31.0051 15.1463Z" fill="#9EA9C9"/>
<path d="M31.2171 14.326L31.352 14.2476L30.586 13.8053L30.4511 13.8837L31.2171 14.326Z" fill="#414F65"/>
<path d="M30.4511 13.8837L30.6573 14.9455L31.0051 15.1463L31.2171 14.326L30.4511 13.8837Z" fill="#B0B8CF"/>
<path d="M31.1931 15.4816C31.1931 15.6328 31.1358 15.7422 31.0523 15.7891L30.6762 16.0112C30.7648 15.9592 30.5959 15.8521 30.5959 15.7009C30.5959 15.3985 30.5512 15.2595 30.2853 15.1084C30.1498 15.0302 30.0872 14.7915 29.9986 14.8437L30.3748 14.6267C30.4633 14.5746 30.5832 14.585 30.7188 14.6581C30.9846 14.8143 31.1931 15.1741 31.1931 15.4816Z" fill="#4C5C75"/>
<path d="M30.3426 14.8789C30.0798 14.7271 29.8628 14.8432 29.8618 15.1492C29.861 15.4513 30.0766 15.8248 30.3395 15.9766C30.6058 16.1303 30.8161 16.0027 30.817 15.7006C30.8179 15.3947 30.6089 15.0326 30.3426 14.8789Z" fill="#1D2943"/>
<path d="M30.3413 15.1C30.1843 15.0095 30.0549 15.0787 30.0544 15.2612C30.0539 15.4415 30.1825 15.6646 30.3394 15.7551C30.4984 15.8469 30.624 15.7708 30.6244 15.5904C30.625 15.4078 30.5002 15.1918 30.3413 15.1Z" fill="#DEDFFB"/>
<path d="M30.4511 15.4735L30.586 15.3951L30.7979 14.5749L30.663 14.6532L30.4511 15.4735Z" fill="#9EA9C9"/>
<path d="M30.663 14.6532L30.7979 14.5749L30.0318 14.1325L29.8969 14.2109L30.663 14.6532Z" fill="#414F65"/>
<path d="M29.8969 14.2109L30.1032 15.2727L30.4511 15.4735L30.663 14.6532L29.8969 14.2109Z" fill="#B0B8CF"/>
<path d="M1.89694 27.3482L2.03183 27.2698L2.24387 26.4495L2.10899 26.5279L1.89694 27.3482Z" fill="#9EA9C9"/>
<path d="M2.10898 26.5279L2.24386 26.4495L1.47779 26.0073L1.34291 26.0857L2.10898 26.5279Z" fill="#414F65"/>
<path d="M1.34291 26.0857L1.54916 27.1473L1.89693 27.3482L2.10898 26.5279L1.34291 26.0857Z" fill="#B0B8CF"/>
<path d="M2.08495 27.6835C2.08495 27.8347 2.02759 27.9442 1.94415 27.9911L1.568 28.2132C1.65663 28.1611 1.48769 28.054 1.48769 27.9029C1.48769 27.6005 1.44302 27.4615 1.17711 27.3104C1.04163 27.2322 0.979076 26.9935 0.890442 27.0455L1.26659 26.8287C1.35511 26.7765 1.47514 26.7869 1.61062 26.8599C1.8764 27.0163 2.08495 27.3759 2.08495 27.6835Z" fill="#4C5C75"/>
<path d="M1.23448 27.0809C0.971596 26.9291 0.7546 27.0452 0.753634 27.3511C0.752789 27.6532 0.968457 28.0267 1.23134 28.1785C1.4976 28.3322 1.70796 28.2047 1.7088 27.9026C1.70977 27.5967 1.50074 27.2347 1.23448 27.0809Z" fill="#1D2943"/>
<path d="M1.23314 27.3019C1.07616 27.2113 0.946712 27.2807 0.946229 27.4632C0.945746 27.6435 1.07435 27.8664 1.23121 27.9571C1.39024 28.0488 1.51583 27.9727 1.51619 27.7923C1.5168 27.6097 1.39206 27.3938 1.23314 27.302V27.3019Z" fill="#DEDFFB"/>
<path d="M1.55484 26.8552L1.68972 26.7769L0.923656 26.3345L0.788773 26.4129L1.55484 26.8552Z" fill="#414F65"/>
<path d="M1.68997 26.7771L1.47744 27.597L1.3434 27.6755L0.995629 27.4751L0.789139 26.4124L1.55472 26.8556L1.68997 26.7771Z" fill="#B0B8CF"/>
<path d="M1.34291 27.6755L1.47779 27.5971L1.68972 26.7769L1.55484 26.8553L1.34291 27.6755Z" fill="#9EA9C9"/>
<path d="M0.788773 26.4129L0.995022 27.4747L1.34292 27.6755L1.55484 26.8553L0.788773 26.4129Z" fill="#B0B8CF"/>
<path d="M6.05113 24.934L6.18602 24.8557L6.39794 24.0354L6.26318 24.1137L6.05113 24.934Z" fill="#9EA9C9"/>
<path d="M6.26318 24.1137L6.39795 24.0354L5.63188 23.593L5.49699 23.6714L6.26318 24.1137Z" fill="#414F65"/>
<path d="M5.49699 23.6714L5.70324 24.7332L6.05114 24.934L6.26318 24.1137L5.49699 23.6714Z" fill="#B0B8CF"/>
<path d="M6.23915 25.2694C6.23915 25.4206 6.18179 25.53 6.09835 25.5769L5.7222 25.7991C5.81083 25.747 5.6419 25.6398 5.6419 25.4888C5.6419 25.1864 5.59722 25.0474 5.33132 24.8962C5.19583 24.818 5.13328 24.5794 5.04453 24.6314L5.4208 24.4145C5.50931 24.3624 5.62922 24.3728 5.76483 24.4458C6.03061 24.6022 6.23915 24.9618 6.23915 25.2694Z" fill="#4C5C75"/>
<path d="M5.38868 24.6668C5.1258 24.515 4.90868 24.6311 4.90784 24.9369C4.90699 25.2391 5.12266 25.6126 5.38554 25.7644C5.65181 25.9181 5.86216 25.7906 5.86301 25.4884C5.86385 25.1824 5.65495 24.8205 5.38868 24.6668Z" fill="#1D2943"/>
<path d="M5.38735 24.8878C5.23037 24.7972 5.10092 24.8664 5.10044 25.0491C5.09983 25.2294 5.22856 25.4523 5.38542 25.5429C5.54445 25.6346 5.66991 25.5586 5.6704 25.3782C5.671 25.1956 5.54626 24.9794 5.38735 24.8878Z" fill="#DEDFFB"/>
<path d="M5.49699 25.2613L5.63188 25.1829L5.84392 24.3626L5.70904 24.4411L5.49699 25.2613Z" fill="#9EA9C9"/>
<path d="M5.70905 24.4411L5.84393 24.3626L5.07786 23.9204L4.94298 23.9988L5.70905 24.4411Z" fill="#414F65"/>
<path d="M4.94298 23.9988L5.14923 25.0605L5.497 25.2613L5.70905 24.4411L4.94298 23.9988Z" fill="#B0B8CF"/>
<path d="M30.6125 6.83905L26.0475 9.49203C26.4955 9.75069 26.8578 10.3779 26.8563 10.8928L26.8395 16.782C26.8388 17.0376 26.7485 17.2177 26.6029 17.3023L31.1679 14.6493C31.3135 14.5648 31.4038 14.3849 31.4046 14.129L31.4212 8.2398C31.4227 7.72503 31.0606 7.09783 30.6125 6.83905Z" fill="#C9CEE2"/>
<path d="M30.6479 6.85959L29.7749 7.36688C30.2229 7.62554 30.585 8.25274 30.5836 8.76763L30.5669 14.6568C30.5662 14.9126 30.484 15.0469 30.3384 15.1314L31.2115 14.6241C31.3571 14.5395 31.4392 14.4052 31.4399 14.1496L31.4566 8.26034C31.4581 7.74545 31.0959 7.11825 30.6479 6.85959Z" fill="#1D2943"/>
<path d="M26.8563 10.8928L26.8404 16.405L26.8394 16.782C26.8382 17.2969 26.4735 17.5045 26.0255 17.2457L25.7089 17.0628L22.2742 15.0799C21.8259 14.8211 21.4639 14.1941 21.4655 13.6791L21.4824 7.78989C21.4836 7.27499 21.8479 7.06741 22.2963 7.32619L22.2605 7.30554L22.2673 4.94684C22.268 4.65449 22.4752 4.53688 22.7295 4.68359L25.6309 6.35882C25.8851 6.50554 26.0904 6.86153 26.0898 7.15363L26.0829 9.51258L26.0476 9.49205C26.4956 9.75046 26.8577 10.3779 26.8563 10.8928Z" fill="#9EA9C9"/>
<path d="M26.9718 11.3507L10.9672 20.6394C10.9696 19.8265 10.3963 18.8339 9.68936 18.4256L8.20215 17.567L24.2067 8.27859L25.6938 9.13716C26.4009 9.54555 26.9741 10.5382 26.9718 11.3507Z" fill="#DEDFFB"/>
<path d="M9.68936 18.4257C10.3963 18.8339 10.9696 19.8267 10.9673 20.6391L10.4849 20.3607C10.4863 19.854 10.1288 19.2346 9.68779 18.98L8.2007 18.1214L8.20227 17.5671L9.68936 18.4257Z" fill="#9EA9C9"/>
<path d="M25.3927 13.2172L25.8491 12.9519L27.1698 13.7143L26.7132 13.9796L25.3927 13.2172Z" fill="white"/>
<path d="M27.1777 12.9979L27.6342 12.7326L28.0628 12.98L27.6063 13.2453L27.1777 12.9979Z" fill="#E3E7F0"/>
<path d="M27.6063 13.2454L27.6004 15.3324L25.3902 14.0563L25.3927 13.2172L26.7132 13.9797L27.1777 12.9979L27.6063 13.2454Z" fill="#9EA9C9"/>
<path d="M14.5008 18.59V20.9845L11.4663 22.7536V20.359C11.4675 19.9448 11.2972 19.4775 11.0328 19.0899C10.8456 18.8158 10.6113 18.5815 10.3565 18.4342L9.06325 17.6879L12.0978 15.914L13.3911 16.6615C13.6459 16.8088 13.8814 17.0443 14.0685 17.3208C14.333 17.7084 14.502 18.177 14.5008 18.59Z" fill="#986FF9"/>
<path d="M14.5014 18.5896C14.5026 18.1766 14.3326 17.7089 14.0685 17.3205L11.0328 19.0904C11.2975 19.478 11.468 19.9451 11.4669 20.3587V22.7539L14.5014 20.9848V18.5896Z" fill="#986FF9"/>
<path d="M13.3905 16.6609L12.0977 15.9146L9.06313 17.6879L10.3559 18.4342C10.6107 18.5814 10.8453 18.816 11.0328 19.0903L14.0685 17.3204C13.8809 17.0444 13.6459 16.8084 13.3905 16.6609Z" fill="#B28AFD"/>
<path d="M16.195 29.2586L13.1617 31.0277C12.5434 30.9758 12.1509 30.6799 11.901 30.3322C11.4916 29.7634 11.4663 29.0558 11.4663 29.0558V22.7536L14.5008 20.9845V27.2867C14.5008 27.2867 14.5262 27.9943 14.9355 28.5631C15.1855 28.9109 15.578 29.2067 16.195 29.2586Z" fill="#7E5AF2"/>
<path d="M16.1956 29.2586L13.1613 31.0277C12.5439 30.9756 12.1514 30.6798 11.9015 30.3326C11.4921 29.7632 11.4668 29.0554 11.4668 29.0554V26.6694L14.5013 24.9001V27.2862C14.5013 27.2862 14.5267 27.994 14.936 28.5636C15.1858 28.9106 15.5783 29.2066 16.1956 29.2586Z" fill="#7E5AF2"/>
<path d="M14.5014 20.9847L11.4669 22.7539V26.6694L14.5014 24.9001V20.9847Z" fill="#986FF9"/>
<path d="M17.5366 16.8197V19.2142L14.502 20.9845V18.5887C14.5032 18.1745 14.333 17.7084 14.0685 17.3208C13.8814 17.0455 13.6459 16.8112 13.3911 16.6639L12.099 15.9176L15.1336 14.145L16.4269 14.8912C16.6817 15.0385 16.9171 15.274 17.1043 15.5505C17.3688 15.9394 17.5378 16.4067 17.5366 16.8197Z" fill="#72D561"/>
<path d="M17.5372 16.8197C17.5383 16.4067 17.3683 15.939 17.1043 15.5505L14.0685 17.3204C14.3332 17.7081 14.5037 18.1751 14.5025 18.5887V20.984L17.5371 19.2148L17.5372 16.8197Z" fill="#72D561"/>
<path d="M16.4263 14.891L15.1335 14.1447L12.0989 15.918L13.3917 16.6641C13.6465 16.8113 13.8811 17.046 14.0685 17.3203L17.1043 15.5504C16.9166 15.2744 16.6815 15.0385 16.4263 14.891Z" fill="#78E75A"/>
<path d="M17.5371 19.2148L14.5025 20.984V24.8995L17.5371 23.1302V19.2148Z" fill="#72D561"/>
<path d="M19.2313 27.4886L16.1969 29.2576C15.5799 29.2057 15.1871 28.9099 14.9375 28.5627C14.5278 27.9931 14.5025 27.2854 14.5025 27.2854V24.8996L17.5371 23.1302V25.5164C17.5371 25.5164 17.5624 26.2242 17.9717 26.7936C18.2214 27.1411 18.6141 27.4367 19.2312 27.4888L19.2313 27.4886Z" fill="#5EC363"/>
<path d="M20.5724 15.0494V17.4452L17.5378 19.2142V16.8185C17.539 16.4055 17.3688 15.9382 17.1043 15.5505C16.9171 15.2764 16.6817 15.041 16.4269 14.8948L15.1348 14.1486L18.1694 12.3747L19.4614 13.121C19.7174 13.2683 19.9529 13.505 20.1401 13.7803C20.4045 14.1691 20.5736 14.6364 20.5724 15.0494Z" fill="#678AEE"/>
<path d="M20.5729 15.0498C20.5741 14.6368 20.4041 14.1691 20.14 13.7806L17.1042 15.5505C17.369 15.9382 17.5394 16.4051 17.5383 16.8188V19.2141L20.5729 17.4449V15.0498Z" fill="#678AEE"/>
<path d="M19.462 13.1211L18.1692 12.3748L15.1347 14.1481L16.4274 14.8944C16.6821 15.0416 16.9168 15.2761 17.1043 15.5505L20.1401 13.7806C19.9523 13.5046 19.7174 13.2686 19.462 13.1211Z" fill="#8FABFE"/>
<path d="M21.0071 25.0238L17.9725 26.7928C17.5632 26.2229 17.5378 25.5152 17.5378 25.5152V19.2142L20.5724 17.4452V23.7462C20.5724 23.7462 20.5977 24.4538 21.0071 25.0238Z" fill="#678AEE"/>
<path d="M20.5729 23.7464V21.3603L17.5383 23.1296V25.5153C17.5383 25.5153 17.5635 26.2233 17.973 26.7927L21.0075 25.0236C20.5981 24.4543 20.5729 23.7464 20.5729 23.7464Z" fill="#678AEE"/>
<path d="M20.5729 17.4449L17.5383 19.2141V23.1296L20.5729 21.3603V17.4449Z" fill="#748BFD"/>
<path d="M21.0075 25.0237L17.973 26.7927C18.2228 27.14 18.6154 27.4357 19.2327 27.4878L22.267 25.7187C21.6497 25.6668 21.2572 25.3709 21.0075 25.0237Z" fill="#678AEE"/>
<path d="M23.6081 13.2804V15.6749L20.5736 17.444V15.0494C20.5748 14.6352 20.4045 14.1679 20.1401 13.7803C19.9529 13.5062 19.7174 13.2719 19.4626 13.1246L18.1706 12.3783L21.2051 10.6044L22.4972 11.3507C22.7532 11.4992 22.9887 11.7347 23.1758 12.0112C23.4403 12.3988 23.6094 12.8674 23.6081 13.2804Z" fill="#FFD06C"/>
<path d="M23.6086 13.2799C23.6098 12.8669 23.4398 12.3992 23.1757 12.0107L20.14 13.7806C20.4048 14.1683 20.5752 14.6352 20.5741 15.0489V17.4442L23.6086 15.675V13.2799Z" fill="#FFD06C"/>
<path d="M22.4978 11.3512L21.205 10.6049L18.1704 12.3781L19.4631 13.1243C19.7179 13.2717 19.9525 13.5062 20.1399 13.7806L23.1757 12.0107C22.9881 11.7347 22.7532 11.4987 22.4978 11.3512Z" fill="#FFDE9B"/>
<path d="M23.6081 15.6749L20.5736 17.444V21.3601L23.6081 19.5898V15.6749ZM24.0429 23.2535C23.6335 22.6847 23.6081 21.9759 23.6081 21.9759V19.591L20.5736 21.3601V23.745C20.5736 23.745 20.5989 24.4538 21.0083 25.0225C21.2583 25.3703 21.6507 25.6662 22.269 25.7181L25.3023 23.949C24.6853 23.8971 24.2928 23.6013 24.0429 23.2535Z" fill="#F3A250"/>
<path d="M23.6086 15.675L20.5741 17.4442V21.3596L23.6086 19.5904V15.675Z" fill="#FEBC1F"/>
<path d="M25.3029 23.9488L22.2686 25.7179C21.6512 25.6658 21.2585 25.3702 21.0088 25.0228C20.5992 24.4535 20.5741 23.7456 20.5741 23.7456V21.3596L23.6086 19.5905V21.9764C23.6086 21.9764 23.634 22.6845 24.0433 23.2537C24.2931 23.6011 24.6855 23.8968 25.3029 23.9488Z" fill="#F3A250"/>
<path d="M26.6439 11.5101V13.9047L23.6094 15.6749V13.2792C23.6106 12.865 23.4403 12.3989 23.1759 12.0112C22.9887 11.7359 22.7532 11.5017 22.4984 11.3543L21.2063 10.6081L24.2409 8.83539L25.533 9.58165C25.789 9.72897 26.0245 9.96444 26.2116 10.241C26.4761 10.6298 26.6451 11.0971 26.6439 11.5101Z" fill="#E93565"/>
<path d="M26.6443 11.51C26.6455 11.097 26.4755 10.6293 26.2115 10.2408L23.1757 12.0107C23.4404 12.3984 23.6109 12.8653 23.6097 13.279V15.6743L26.6443 13.9051V11.51Z" fill="#E93565"/>
<path d="M25.5335 9.58129L24.2407 8.83502L21.2061 10.6082L22.4989 11.3544C22.7537 11.5018 22.9883 11.7363 23.1757 12.0107L26.2115 10.2408C26.0238 9.9648 25.7889 9.72885 25.5335 9.58129Z" fill="#F45170"/>
<path d="M27.0786 21.4832L24.0441 23.2535C23.6347 22.6835 23.6094 21.9759 23.6094 21.9759V15.6749L26.6439 13.9047V20.2069C26.6439 20.2069 26.6693 20.9145 27.0786 21.4832Z" fill="#DF3260"/>
<path d="M26.6443 20.2065V17.8204L23.6097 19.5897V21.9755C23.6097 21.9755 23.6351 22.6835 24.0444 23.2529L27.079 21.4838C26.6697 20.9145 26.6443 20.2065 26.6443 20.2065Z" fill="#DF3260"/>
<path d="M26.6443 13.9052L23.6097 15.6743V19.5897L26.6443 17.8205V13.9052Z" fill="#E93565"/>
<path d="M27.0789 21.4837L24.0446 23.2529C24.2943 23.6002 24.687 23.8959 25.3043 23.9479L28.3386 22.1789C27.7213 22.127 27.3286 21.8311 27.0789 21.4837Z" fill="#DF3260"/>
<path d="M9.33072 22.5513L9.78729 22.286L11.1079 23.0485L10.6514 23.3138L9.33072 22.5513Z" fill="#E3E7F0"/>
<path d="M11.5444 22.5794L12.001 22.3143L11.9951 24.4013L11.5385 24.6664L11.5444 22.5794ZM27.6063 13.2453L28.0628 12.98L28.0569 15.067L27.6004 15.3323L27.6063 13.2453Z" fill="#9B9FAE"/>
<path d="M9.69056 18.9977L5.12543 21.6506C5.57343 21.9093 5.93569 22.5365 5.93424 23.0514L5.91746 28.9406C5.91673 29.1963 5.82641 29.3762 5.68078 29.461L10.2458 26.808C10.3914 26.7234 10.4817 26.5435 10.4825 26.2876L10.4991 20.3984C10.5006 19.8836 10.1386 19.2564 9.69044 18.9976L9.69056 18.9977Z" fill="#C9CEE2"/>
<path d="M9.69057 18.9977L8.68674 19.581C9.13474 19.8396 9.497 20.4668 9.49555 20.9817L9.47877 26.8709C9.47804 27.1267 9.38772 27.3066 9.24209 27.3914L10.2458 26.808C10.3914 26.7234 10.4818 26.5435 10.4825 26.2876L10.4991 20.3984C10.5006 19.8836 10.1386 19.2564 9.69045 18.9976L9.69057 18.9977Z" fill="#1D2943"/>
<path d="M9.27373 15.8645L6.37235 14.1894C6.24435 14.1154 6.12831 14.1085 6.0445 14.1573L1.47949 16.8101C1.5633 16.7615 1.67934 16.7684 1.80746 16.8423L4.70871 18.5174C4.96315 18.6642 5.16831 19.02 5.16758 19.3122L5.16082 21.671L9.72583 19.018L9.73247 16.6593C9.73332 16.3671 9.52804 16.0112 9.27373 15.8645Z" fill="#E3E7F0"/>
<path d="M7.41192 15.8098L7.4095 16.2803C7.40926 16.3904 7.33681 16.5003 7.19214 16.5843C6.90113 16.7536 6.42765 16.7536 6.13457 16.5843C5.98713 16.4992 5.91347 16.3875 5.91383 16.276L5.91625 15.8056C5.91589 15.917 5.98955 16.0288 6.13687 16.1139C6.43006 16.2832 6.90342 16.2832 7.19468 16.1139C7.33922 16.0298 7.41144 15.9199 7.41192 15.8098Z" fill="#DF3260"/>
<path d="M7.19107 15.5013C7.48414 15.6705 7.48571 15.9448 7.19469 16.1139C6.90343 16.2832 6.43007 16.2832 6.13688 16.1139C5.84393 15.9448 5.84236 15.6706 6.13362 15.5013C6.42464 15.3322 6.89812 15.3322 7.19107 15.5013Z" fill="#F45170"/>
<path d="M6.03219 21.1647L6.03388 21.1636L6.04064 18.8048C6.04136 18.5126 5.8362 18.1568 5.58177 18.01L2.68052 16.3349C2.55252 16.261 2.43635 16.2541 2.35255 16.3027L1.47949 16.8102L1.48046 16.8098C1.39738 16.8576 1.34569 16.9598 1.34521 17.1054L1.33954 19.1127L0.796744 19.4281L0.798193 19.4274C0.651717 19.5117 0.560789 19.692 0.560064 19.9486L0.5434 25.8379C0.541951 26.3528 0.903853 26.9799 1.35209 27.2386L5.10346 29.4045C5.34328 29.543 5.55859 29.5468 5.7076 29.4424C5.69866 29.4486 5.69021 29.4556 5.68079 29.461L6.55385 28.9536C6.69948 28.8691 6.7898 28.6892 6.79052 28.4333L6.80731 22.5441C6.80864 22.0423 6.46449 21.4348 6.03219 21.1647Z" fill="#4C5C75"/>
<path d="M0.796738 19.4282L1.75674 18.8703C1.90418 18.7846 2.1085 18.7967 2.33395 18.9269L1.37407 19.4847C1.1485 19.3544 0.944179 19.3424 0.796858 19.4281L0.796738 19.4282ZM5.99849 21.1432L5.12543 21.6506C5.57343 21.9093 5.9357 22.5365 5.93425 23.0514L5.91746 28.9406C5.91674 29.1963 5.82641 29.3762 5.68078 29.461L6.55384 28.9535C6.69947 28.869 6.78979 28.689 6.79052 28.4332L6.8073 22.5439C6.80875 22.029 6.44661 21.4018 5.99849 21.1432Z" fill="#1D2943"/>
<path d="M4.70871 18.5174C4.96314 18.6642 5.1683 19.02 5.16758 19.3122L5.16082 21.671L5.12544 21.6505C5.57344 21.9093 5.9357 22.5365 5.93425 23.0512L5.91747 28.9404C5.91602 29.4553 5.55158 29.663 5.10358 29.4044L1.35197 27.2386C0.903731 26.9799 0.541829 26.3528 0.543278 25.8379L0.559942 19.9487C0.561391 19.4339 0.925708 19.2261 1.37395 19.4849L1.33845 19.4643L1.34509 17.1055C1.34593 16.8133 1.55291 16.6955 1.80734 16.8423L4.70859 18.5175L4.70871 18.5174Z" fill="#111D33"/>
<path d="M5.58177 18.01L2.68052 16.3349C2.55252 16.261 2.43635 16.2541 2.35255 16.3027L1.47949 16.8102C1.5633 16.7615 1.67934 16.7684 1.80746 16.8423L4.70871 18.5174C4.96315 18.6642 5.16831 19.02 5.16758 19.3122L5.16082 21.671L6.03388 21.1636L6.04064 18.8048C6.04136 18.5126 5.8362 18.1568 5.58177 18.01Z" fill="#4C5C75"/>
<path d="M4.56501 27.3722L1.97868 25.8789C1.91674 25.8431 1.86662 25.7563 1.86686 25.6853L1.87894 21.4588C1.87894 21.4235 1.8915 21.3986 1.91154 21.3869L1.58502 21.5767C1.56486 21.5884 1.55242 21.6133 1.5523 21.6487L1.54022 25.8751C1.54022 25.9461 1.59021 26.0329 1.65216 26.0687L4.23849 27.5619C4.26964 27.58 4.2979 27.5816 4.31831 27.5698L4.64483 27.3799C4.62442 27.3919 4.59616 27.3902 4.56501 27.3722Z" fill="#E3E7F0"/>
<path d="M4.43109 22.9715L2.13711 21.6471C2.10584 21.629 2.07758 21.6274 2.05717 21.6392L1.73065 21.8291C1.75106 21.8171 1.77932 21.8188 1.81047 21.8368L4.10457 23.1612C4.16652 23.1971 4.21663 23.2839 4.21639 23.3549L4.20552 27.2456C4.20528 27.281 4.19284 27.3059 4.1728 27.3176L4.49932 27.1278C4.51936 27.1161 4.53192 27.0913 4.53192 27.0559L4.54303 23.1651C4.54315 23.0941 4.49304 23.0073 4.43109 22.9715Z" fill="white"/>
<path d="M4.44957 22.9193C4.53349 22.9676 4.60124 23.0851 4.601 23.1813L4.58771 27.8621C4.58747 27.9582 4.51912 27.9972 4.43532 27.9488L1.45352 26.2272C1.36972 26.1789 1.3021 26.0615 1.30234 25.9654L1.31562 21.2844C1.31586 21.1882 1.38397 21.1492 1.46777 21.1977L4.44957 22.9193ZM4.35103 27.498L4.36311 23.2716C4.36323 23.2004 4.31312 23.1134 4.25117 23.0778L1.66496 21.5846C1.6029 21.5488 1.55254 21.5776 1.5523 21.6488L1.54023 25.8752C1.54023 25.9462 1.59022 26.033 1.65216 26.0688L4.23849 27.5619C4.30044 27.5978 4.35079 27.569 4.35103 27.4979" fill="#C9CEE2"/>
<path d="M4.10457 23.1612C4.16651 23.1971 4.21663 23.2839 4.21639 23.3549L4.20552 27.2457C4.20516 27.3169 4.1548 27.3455 4.09285 27.3097L1.79876 25.9852C1.73681 25.9495 1.68669 25.8629 1.68694 25.7917L1.6978 21.9008C1.69817 21.8298 1.74852 21.8011 1.81047 21.8368L4.10457 23.1612Z" fill="#C9CEE2"/>
<path d="M4.77621 22.7294L1.79441 21.0079C1.75215 20.9835 1.71399 20.9814 1.68646 20.9973L1.35994 21.1871C1.38747 21.1711 1.42563 21.1734 1.46777 21.1976L4.44957 22.9192C4.53349 22.9675 4.60124 23.085 4.601 23.1813L4.58771 27.8621C4.58759 27.9099 4.57069 27.9435 4.5434 27.9593L4.87004 27.7696C4.89721 27.7538 4.91411 27.7201 4.91423 27.6724L4.92752 22.9915C4.92776 22.8953 4.85989 22.7777 4.77621 22.7294Z" fill="#E3E7F0"/>
<path d="M21.7189 7.26944L22.6787 6.71167C22.8263 6.62594 23.0306 6.63801 23.2562 6.76831L22.2962 7.3262C22.0706 7.1959 21.8663 7.18383 21.7189 7.26944Z" fill="#C9CEE2"/>
<path d="M29.8986 3.87864L26.9971 2.20353C26.8691 2.12963 26.7531 2.12263 26.6693 2.17141L22.4016 4.65147C22.4854 4.60269 22.6014 4.60957 22.7294 4.68347L25.6308 6.35858C25.8851 6.50542 26.0904 6.86128 26.0897 7.15351L26.0829 9.51233L30.3506 7.03203L30.3574 4.67333C30.3582 4.3811 30.1529 4.02536 29.8985 3.87852L29.8986 3.87864Z" fill="#E3E7F0"/>
<path d="M26.0897 7.15327L26.0824 9.51282L9.72136 19.0198L9.72861 16.6675C9.72981 16.3753 9.52453 16.0203 9.26974 15.873L6.368 14.1981C6.24 14.1244 6.12408 14.1172 6.04076 14.1655L22.4018 4.65124C22.4851 4.60293 22.6011 4.61018 22.7291 4.68384L25.6308 6.35871C25.8856 6.50603 26.0909 6.86105 26.0897 7.15327Z" fill="#4C5C75"/>
<path d="M26.0897 7.15327L9.72861 16.6675C9.72981 16.3753 9.52453 16.0203 9.26974 15.873L6.368 14.1981C6.24 14.1244 6.12408 14.1172 6.04076 14.1655L22.4018 4.65124C22.4851 4.60293 22.6011 4.61018 22.7291 4.68384L25.6308 6.35871C25.8856 6.50603 26.0909 6.86105 26.0897 7.15327Z" fill="#9EA9C9"/>
<path d="M26.0897 7.15327L26.086 8.28233L9.73222 17.7857L9.7286 16.6675C9.72981 16.3753 9.52452 16.0203 9.26973 15.873L25.6308 6.3587C25.8856 6.50602 26.0909 6.86104 26.0897 7.15327Z" fill="#B0B8CF"/>
<path d="M30.1959 3.70595L27.2944 2.03072C27.1664 1.95682 27.0504 1.94994 26.9666 1.9986L26.0935 2.50601C26.1773 2.45735 26.2934 2.46423 26.4214 2.53813L29.3229 4.21312C29.5772 4.35996 29.7825 4.7157 29.7817 5.00793L29.775 7.36675L30.648 6.85946L30.6547 4.50064C30.6555 4.20841 30.4502 3.85255 30.1959 3.70571V3.70595Z" fill="#4C5C75"/>
<path d="M28.6098 13.2937L28.6026 15.3803L12.0857 24.9803L11.5399 24.6651C11.5423 24.6615 11.5544 24.6458 11.5713 24.6205C11.5605 24.6349 11.5496 24.6494 11.5387 24.6651H11.5399L11.5387 24.6663L9.3289 23.39L9.33132 22.5507L10.6512 23.3139L11.1161 22.3321L11.5725 22.0665L12 22.314L28.029 12.9592L28.6098 13.2937Z" fill="#C9CEE2"/>
<path d="M11.5387 24.6651C11.5496 24.6494 11.5604 24.6349 11.5713 24.6204C11.5544 24.6458 11.5423 24.6615 11.5399 24.6651H11.5387Z" fill="#C9CEE2"/>
<path d="M11.1158 22.332L11.5723 22.0667L12.001 22.3143L11.5444 22.5794L11.1158 22.332Z" fill="#E3E7F0"/>
<path d="M11.5444 22.5794L11.5385 24.6664L9.32831 23.3904L9.33072 22.5513L10.6514 23.3137L11.1158 22.332L11.5444 22.5794Z" fill="#C9CEE2"/>
<path d="M28.6096 13.2939L28.6028 15.3809L12.0853 24.9808L12.092 22.8939L28.6096 13.2939Z" fill="#B0B8CF"/>
<path d="M12.092 22.8939L12.0853 24.9808L11.5392 24.6655L11.546 22.5786L12.092 22.8939Z" fill="#C9CEE2"/>
<path d="M28.6096 13.2939L12.092 22.8939L11.546 22.5786L28.029 12.9588L28.6096 13.2939Z" fill="#E3E7F0"/>
<path d="M13.0708 22.8446C13.3145 22.704 13.5123 22.8172 13.5131 23.097C13.5139 23.3769 13.3174 23.7179 13.0736 23.8586C12.8299 23.9994 12.632 23.886 12.6312 23.6062C12.6305 23.3263 12.8272 22.9853 13.0708 22.8446Z" fill="#1D2943"/>
<path d="M13.0713 23.025C13.2283 22.9345 13.3557 23.0074 13.3562 23.1877C13.3567 23.3678 13.2301 23.5876 13.0731 23.6782C12.9162 23.7688 12.7886 23.6958 12.7882 23.5157C12.7877 23.3355 12.9144 23.1157 13.0713 23.025Z" fill="#4C5C75"/>
<path d="M13.5516 22.4782C13.5922 22.4548 13.6252 22.4737 13.6252 22.5203C13.6255 22.567 13.5926 22.6238 13.5521 22.6471C13.5465 22.6504 13.5405 22.6531 13.5343 22.6549L13.1497 23.3207L13.5366 23.5412C13.5422 23.5364 13.5482 23.5321 13.5546 23.5284C13.5952 23.505 13.6283 23.5239 13.6283 23.5705C13.6285 23.6172 13.5957 23.6738 13.5551 23.6973C13.5144 23.7208 13.4814 23.7021 13.4812 23.6554C13.4812 23.6481 13.4819 23.641 13.4833 23.6336L13.0966 23.413L12.7121 24.0788C12.7137 24.0845 12.7144 24.0909 12.7144 24.0982C12.7145 24.1449 12.6818 24.2015 12.6411 24.225C12.6004 24.2484 12.5674 24.2298 12.5673 24.1831C12.5672 24.1364 12.5999 24.0796 12.6406 24.056C12.6469 24.0524 12.6527 24.0499 12.6585 24.0483L13.0428 23.3825L12.6558 23.1621C12.6504 23.1669 12.6445 23.1711 12.6382 23.1748C12.5975 23.1983 12.5645 23.1796 12.5643 23.1329C12.5642 23.0862 12.5969 23.0294 12.6377 23.0059C12.6783 22.9825 12.7114 23.0014 12.7114 23.048C12.7114 23.0552 12.7108 23.0622 12.7093 23.0697L13.0962 23.2903L13.4805 22.6244C13.4789 22.6181 13.4782 22.6116 13.4783 22.6052C13.4782 22.5585 13.5109 22.5017 13.5516 22.4782Z" fill="white"/>
<path d="M14.8836 21.791C15.1273 21.6504 15.3251 21.7636 15.3258 22.0434C15.3267 22.3233 15.1302 22.6643 14.8864 22.805C14.6427 22.9458 14.4448 22.8324 14.444 22.5526C14.4431 22.2729 14.6401 21.9318 14.8836 21.791Z" fill="#1D2943"/>
<path d="M14.8841 21.9716C15.0411 21.8809 15.1685 21.9538 15.169 22.1341C15.1695 22.3144 15.0429 22.5341 14.8859 22.6246C14.7289 22.7152 14.6014 22.6422 14.6009 22.4621C14.6005 22.2818 14.7271 22.0621 14.8841 21.9716Z" fill="#4C5C75"/>
<path d="M15.3644 21.4247C15.4049 21.4012 15.438 21.4201 15.438 21.4667C15.4383 21.5134 15.4054 21.5702 15.3648 21.5935C15.3593 21.5968 15.3533 21.5995 15.3471 21.6013L14.9625 22.2672L15.3494 22.4877C15.3549 22.4828 15.361 22.4785 15.3674 22.4749C15.4079 22.4514 15.441 22.4703 15.441 22.5169C15.4413 22.5636 15.4084 22.6202 15.3679 22.6437C15.3272 22.6672 15.2942 22.6485 15.294 22.6018C15.294 22.5945 15.2947 22.5875 15.2961 22.58L14.9093 22.3594L14.525 23.0253C14.5264 23.0309 14.5272 23.0373 14.5272 23.0446C14.5273 23.0913 14.4946 23.1479 14.4539 23.1714C14.4132 23.1949 14.3802 23.1762 14.3801 23.1295C14.38 23.0829 14.4127 23.026 14.4535 23.0026C14.4597 22.9989 14.4656 22.9963 14.4712 22.9947L14.8556 22.3289L14.4686 22.1085C14.4632 22.1133 14.4572 22.1175 14.451 22.1212C14.4103 22.1447 14.3773 22.126 14.3771 22.0793C14.3769 22.0327 14.4097 21.9758 14.4505 21.9524C14.4911 21.9289 14.5241 21.9478 14.5241 21.9944C14.5241 22.0016 14.5235 22.0086 14.5221 22.0161L14.909 22.2367L15.2932 21.5709C15.2917 21.5646 15.2909 21.5581 15.2911 21.5516C15.2909 21.505 15.3237 21.4482 15.3644 21.4247Z" fill="white"/>
<path d="M16.6964 20.7375C16.9401 20.5968 17.1379 20.71 17.1386 20.9898C17.1393 21.2696 16.943 21.6108 16.6992 21.7516C16.4555 21.8922 16.2576 21.7788 16.2567 21.4991C16.256 21.2191 16.4528 20.8783 16.6964 20.7375Z" fill="#1D2943"/>
<path d="M16.6967 20.918C16.8537 20.8274 16.9812 20.9002 16.9817 21.0805C16.9822 21.2608 16.8557 21.4804 16.6987 21.571C16.5417 21.6616 16.4142 21.5886 16.4137 21.4085C16.4132 21.2282 16.5398 21.0085 16.6967 20.918Z" fill="#4C5C75"/>
<path d="M17.1771 20.3711C17.2177 20.3477 17.2508 20.3665 17.2508 20.4131C17.251 20.4598 17.2182 20.5166 17.1776 20.5399C17.172 20.5433 17.1661 20.5459 17.1598 20.5478L16.7752 21.2137L17.1621 21.4342C17.1677 21.4293 17.1737 21.425 17.1801 21.4213C17.2207 21.3979 17.2538 21.4167 17.2538 21.4633C17.254 21.5101 17.2212 21.5668 17.1806 21.5901C17.1399 21.6137 17.1069 21.5949 17.1067 21.5482C17.1067 21.541 17.1074 21.534 17.1089 21.5265L16.7221 21.306L16.3377 21.9717C16.3392 21.9775 16.3399 21.9838 16.3399 21.991C16.34 22.0378 16.3073 22.0944 16.2667 22.1178C16.226 22.1414 16.193 22.1226 16.1928 22.0759C16.1927 22.0293 16.2254 21.9724 16.2663 21.949C16.2724 21.9454 16.2783 21.9427 16.284 21.9411L16.6685 21.2753L16.2814 21.0549C16.2759 21.0597 16.27 21.064 16.2637 21.0676C16.223 21.0912 16.1901 21.0724 16.1898 21.0257C16.1898 20.9791 16.2224 20.9222 16.2632 20.8988C16.3038 20.8754 16.3369 20.8942 16.3369 20.9408C16.3369 20.9481 16.3363 20.9551 16.3348 20.9626L16.7217 21.1832L17.106 20.5173C17.1044 20.511 17.1037 20.5045 17.1038 20.498C17.1037 20.4514 17.1364 20.3946 17.1771 20.3712V20.3711Z" fill="white"/>
<path d="M16.6964 20.7375C16.9401 20.5968 17.1379 20.71 17.1386 20.9898C17.1393 21.2696 16.943 21.6108 16.6992 21.7516C16.4555 21.8922 16.2576 21.7788 16.2567 21.4991C16.256 21.2191 16.4528 20.8783 16.6964 20.7375Z" fill="#1D2943"/>
<path d="M16.6967 20.918C16.8537 20.8274 16.9812 20.9002 16.9817 21.0805C16.9822 21.2608 16.8557 21.4804 16.6987 21.571C16.5417 21.6616 16.4142 21.5886 16.4137 21.4085C16.4132 21.2282 16.5398 21.0085 16.6967 20.918Z" fill="#4C5C75"/>
<path d="M17.1771 20.3711C17.2177 20.3477 17.2508 20.3665 17.2508 20.4131C17.251 20.4598 17.2182 20.5166 17.1776 20.5399C17.172 20.5433 17.1661 20.5459 17.1598 20.5478L16.7752 21.2137L17.1621 21.4342C17.1677 21.4293 17.1737 21.425 17.1801 21.4213C17.2207 21.3979 17.2538 21.4167 17.2538 21.4633C17.254 21.5101 17.2212 21.5668 17.1806 21.5901C17.1399 21.6137 17.1069 21.5949 17.1067 21.5482C17.1067 21.541 17.1074 21.534 17.1089 21.5265L16.7221 21.306L16.3377 21.9717C16.3392 21.9775 16.3399 21.9838 16.3399 21.991C16.34 22.0378 16.3073 22.0944 16.2667 22.1178C16.226 22.1414 16.193 22.1226 16.1928 22.0759C16.1927 22.0293 16.2254 21.9724 16.2663 21.949C16.2724 21.9454 16.2783 21.9427 16.284 21.9411L16.6685 21.2753L16.2814 21.0549C16.2759 21.0597 16.27 21.064 16.2637 21.0676C16.223 21.0912 16.1901 21.0724 16.1898 21.0257C16.1898 20.9791 16.2224 20.9222 16.2632 20.8988C16.3038 20.8754 16.3369 20.8942 16.3369 20.9408C16.3369 20.9481 16.3363 20.9551 16.3348 20.9626L16.7217 21.1832L17.106 20.5173C17.1044 20.511 17.1037 20.5045 17.1038 20.498C17.1037 20.4514 17.1364 20.3946 17.1771 20.3712V20.3711Z" fill="white"/>
<path d="M18.5092 19.684C18.7528 19.5432 18.9506 19.6564 18.9514 19.9364C18.9521 20.2163 18.7557 20.5573 18.5119 20.698C18.2683 20.8386 18.0703 20.7252 18.0695 20.4455C18.0688 20.1655 18.2655 19.8247 18.509 19.684H18.5092Z" fill="#1D2943"/>
<path d="M18.5096 19.8644C18.6666 19.7738 18.794 19.8467 18.7945 20.0269C18.795 20.2072 18.6684 20.4269 18.5115 20.5174C18.3545 20.608 18.227 20.5352 18.2265 20.3549C18.226 20.1746 18.3527 19.955 18.5096 19.8644Z" fill="#4C5C75"/>
<path d="M18.9899 19.3175C19.0305 19.2941 19.0635 19.3129 19.0637 19.3595C19.0638 19.4063 19.0311 19.463 18.9904 19.4863C18.9848 19.4897 18.9788 19.4923 18.9726 19.4942L18.588 20.1601L18.9749 20.3806C18.9805 20.3757 18.9866 20.3714 18.993 20.3677C19.0335 20.3443 19.0666 20.3631 19.0667 20.4097C19.0667 20.4565 19.034 20.5132 18.9934 20.5365C18.9527 20.5601 18.9197 20.5414 18.9195 20.4946C18.9195 20.4874 18.9202 20.4804 18.9217 20.4729L18.5349 20.2524L18.1505 20.9181C18.152 20.9239 18.1527 20.9302 18.1527 20.9374C18.1528 20.9842 18.1201 21.0408 18.0795 21.0642C18.0388 21.0878 18.0057 21.0691 18.0056 21.0223C18.0055 20.9757 18.0382 20.9188 18.079 20.8954C18.0852 20.8918 18.0911 20.8891 18.0968 20.8876L18.4813 20.2217L18.0941 20.0013C18.0887 20.0061 18.0828 20.0104 18.0765 20.014C18.0358 20.0376 18.0028 20.0188 18.0026 19.9721C18.0026 19.9255 18.0353 19.8686 18.076 19.8452C18.1166 19.8218 18.1497 19.8406 18.1497 19.8872C18.1497 19.8945 18.1491 19.9015 18.1476 19.909L18.5345 20.1296L18.9188 19.4637C18.9172 19.4574 18.9165 19.4509 18.9166 19.4444C18.9165 19.3979 18.9492 19.3409 18.9899 19.3175Z" fill="white"/>
<path d="M20.3218 18.6304C20.5656 18.4897 20.7634 18.6029 20.7641 18.8828C20.765 19.1626 20.5685 19.5037 20.3247 19.6444C20.081 19.785 19.8831 19.6718 19.8823 19.3919C19.8815 19.1121 20.0783 18.7711 20.3218 18.6304Z" fill="#1D2943"/>
<path d="M20.3224 18.8108C20.4794 18.7203 20.6068 18.7931 20.6073 18.9734C20.6078 19.1536 20.4812 19.3733 20.3242 19.464C20.1672 19.5547 20.0397 19.4816 20.0392 19.3013C20.0388 19.121 20.1654 18.9014 20.3224 18.8108Z" fill="#4C5C75"/>
<path d="M20.8027 18.2639C20.8432 18.2405 20.8763 18.2593 20.8764 18.3059C20.8766 18.3527 20.8438 18.4094 20.8031 18.4327C20.7976 18.4361 20.7916 18.4387 20.7854 18.4406L20.4008 19.1065L20.7877 19.327C20.7933 19.3221 20.7993 19.3178 20.8058 19.3141C20.8463 19.2907 20.8793 19.3095 20.8795 19.3561C20.8795 19.4029 20.8467 19.4596 20.8062 19.4829C20.7655 19.5065 20.7325 19.4878 20.7323 19.441C20.7323 19.4338 20.733 19.4268 20.7344 19.4193L20.3477 19.1988L19.9633 19.8645C19.9647 19.8703 19.9655 19.8766 19.9655 19.8838C19.9656 19.9306 19.9329 19.9872 19.8923 20.0106C19.8516 20.0342 19.8185 20.0155 19.8184 19.9687C19.8183 19.9221 19.851 19.8652 19.8918 19.8418C19.898 19.8382 19.9039 19.8355 19.9096 19.834L20.294 19.1681L19.9069 18.9478C19.9015 18.9526 19.8956 18.9568 19.8893 18.9604C19.8486 18.984 19.8156 18.9653 19.8154 18.9185C19.8154 18.8719 19.8481 18.8152 19.8888 18.7916C19.9294 18.7682 19.9624 18.787 19.9624 18.8336C19.9624 18.8409 19.9618 18.8479 19.9604 18.8554L20.3473 19.076L20.7315 18.4102C20.73 18.4038 20.7292 18.3973 20.7294 18.3908C20.7292 18.3443 20.762 18.2873 20.8027 18.2639Z" fill="white"/>
<path d="M20.3218 18.6304C20.5656 18.4897 20.7634 18.6029 20.7641 18.8828C20.765 19.1626 20.5685 19.5037 20.3247 19.6444C20.081 19.785 19.8831 19.6718 19.8823 19.3919C19.8815 19.1121 20.0783 18.7711 20.3218 18.6304Z" fill="#1D2943"/>
<path d="M20.3224 18.8108C20.4794 18.7203 20.6068 18.7931 20.6073 18.9734C20.6078 19.1536 20.4812 19.3733 20.3242 19.464C20.1672 19.5547 20.0397 19.4816 20.0392 19.3013C20.0388 19.121 20.1654 18.9014 20.3224 18.8108Z" fill="#4C5C75"/>
<path d="M20.8027 18.2639C20.8432 18.2405 20.8763 18.2593 20.8764 18.3059C20.8766 18.3527 20.8438 18.4094 20.8031 18.4327C20.7976 18.4361 20.7916 18.4387 20.7854 18.4406L20.4008 19.1065L20.7877 19.327C20.7933 19.3221 20.7993 19.3178 20.8058 19.3141C20.8463 19.2907 20.8793 19.3095 20.8795 19.3561C20.8795 19.4029 20.8467 19.4596 20.8062 19.4829C20.7655 19.5065 20.7325 19.4878 20.7323 19.441C20.7323 19.4338 20.733 19.4268 20.7344 19.4193L20.3477 19.1988L19.9633 19.8645C19.9647 19.8703 19.9655 19.8766 19.9655 19.8838C19.9656 19.9306 19.9329 19.9872 19.8923 20.0106C19.8516 20.0342 19.8185 20.0155 19.8184 19.9687C19.8183 19.9221 19.851 19.8652 19.8918 19.8418C19.898 19.8382 19.9039 19.8355 19.9096 19.834L20.294 19.1681L19.9069 18.9478C19.9015 18.9526 19.8956 18.9568 19.8893 18.9604C19.8486 18.984 19.8156 18.9653 19.8154 18.9185C19.8154 18.8719 19.8481 18.8152 19.8888 18.7916C19.9294 18.7682 19.9624 18.787 19.9624 18.8336C19.9624 18.8409 19.9618 18.8479 19.9604 18.8554L20.3473 19.076L20.7315 18.4102C20.73 18.4038 20.7292 18.3973 20.7294 18.3908C20.7292 18.3443 20.762 18.2873 20.8027 18.2639Z" fill="white"/>
<path d="M22.1347 17.5768C22.3784 17.4361 22.5762 17.5493 22.5769 17.8292C22.5778 18.109 22.3813 18.4501 22.1376 18.5908C21.8938 18.7315 21.6959 18.6182 21.6952 18.3384C21.6943 18.0585 21.891 17.7175 22.1347 17.5768Z" fill="#1D2943"/>
<path d="M22.1352 17.7572C22.2922 17.6667 22.4196 17.7395 22.4201 17.9198C22.4205 18.1001 22.294 18.3197 22.137 18.4104C21.98 18.501 21.8525 18.428 21.852 18.2477C21.8515 18.0674 21.9782 17.8478 22.1352 17.7572Z" fill="#4C5C75"/>
<path d="M22.6154 17.2103C22.656 17.1869 22.6891 17.2057 22.6892 17.2524C22.6893 17.2991 22.6566 17.3558 22.6159 17.3791C22.6104 17.3825 22.6044 17.3851 22.5982 17.387L22.2136 18.053L22.6005 18.2735C22.6061 18.2686 22.6121 18.2642 22.6186 18.2605C22.659 18.2371 22.6921 18.2559 22.6922 18.3026C22.6922 18.3493 22.6595 18.406 22.6189 18.4293C22.5782 18.4529 22.5453 18.4342 22.545 18.3874C22.545 18.3802 22.5458 18.3732 22.5472 18.3657L22.1604 18.1452L21.7761 18.8111C21.7775 18.8167 21.7782 18.8231 21.7782 18.8303C21.7784 18.877 21.7456 18.9336 21.7051 18.957C21.6644 18.9806 21.6313 18.9619 21.6312 18.9151C21.631 18.8685 21.6638 18.8117 21.7046 18.7882C21.7107 18.7846 21.7167 18.782 21.7223 18.7804L22.1068 18.1147L21.7197 17.8942C21.7142 17.899 21.7083 17.9033 21.702 17.907C21.6614 17.9304 21.6284 17.9118 21.6281 17.8649C21.6281 17.8183 21.6609 17.7616 21.7016 17.7381C21.7421 17.7146 21.7752 17.7334 21.7752 17.78C21.7752 17.7873 21.7746 17.7943 21.7732 17.8018L22.1601 18.0224L22.5443 17.3566C22.5428 17.3502 22.542 17.3437 22.5421 17.3372C22.542 17.2908 22.5747 17.2339 22.6154 17.2104V17.2103Z" fill="white"/>
<path d="M23.9475 16.5232C24.1912 16.3826 24.3889 16.4957 24.3898 16.7756C24.3905 17.0554 24.194 17.3965 23.9502 17.5372C23.7066 17.6779 23.5086 17.5646 23.5079 17.2848C23.5071 17.0049 23.7038 16.6639 23.9475 16.5232Z" fill="#1D2943"/>
<path d="M23.948 16.7036C24.1049 16.6131 24.2323 16.6859 24.2329 16.8662C24.2333 17.0465 24.1067 17.2661 23.9498 17.3568C23.7928 17.4474 23.6653 17.3744 23.6648 17.1941C23.6643 17.0139 23.791 16.7942 23.948 16.7036Z" fill="#4C5C75"/>
<path d="M24.4283 16.1567C24.4688 16.1334 24.5019 16.1522 24.502 16.1988C24.5021 16.2456 24.4694 16.3023 24.4287 16.3257C24.4231 16.3291 24.4172 16.3317 24.4109 16.3335L24.0263 16.9994L24.4132 17.2199C24.4188 17.215 24.4249 17.2106 24.4313 17.2069C24.4718 17.1835 24.5049 17.2024 24.505 17.249C24.505 17.2957 24.4723 17.3525 24.4317 17.3758C24.391 17.3993 24.358 17.3806 24.3579 17.334C24.3579 17.3267 24.3585 17.3196 24.36 17.3122L23.9732 17.0916L23.5888 17.7575C23.5903 17.7631 23.591 17.7695 23.591 17.7767C23.5911 17.8234 23.5584 17.8802 23.5178 17.9035C23.4771 17.927 23.4442 17.9083 23.4439 17.8616C23.4438 17.815 23.4765 17.7581 23.5173 17.7346C23.5236 17.731 23.5294 17.7285 23.5351 17.7268L23.9196 17.0611L23.5324 16.8406C23.527 16.8454 23.5211 16.8497 23.5148 16.8534C23.4741 16.8768 23.4411 16.8582 23.4409 16.8114C23.4409 16.7649 23.4736 16.708 23.5143 16.6846C23.5549 16.661 23.588 16.6799 23.588 16.7265C23.588 16.7337 23.5874 16.7408 23.5859 16.7482L23.9728 16.9688L24.3571 16.303C24.3555 16.2967 24.3548 16.2902 24.3549 16.2837C24.3548 16.2372 24.3875 16.1802 24.4283 16.1567Z" fill="white"/>
<path d="M25.7602 15.4697C26.0039 15.329 26.2017 15.4421 26.2026 15.722C26.2033 16.0018 26.0068 16.343 25.763 16.4836C25.5195 16.6243 25.3214 16.511 25.3207 16.2313C25.3199 15.9513 25.5166 15.6103 25.7602 15.4697Z" fill="#1D2943"/>
<path d="M25.7606 15.6501C25.9176 15.5595 26.0451 15.6323 26.0456 15.8126C26.0461 15.9929 25.9195 16.2125 25.7625 16.3032C25.6056 16.3938 25.478 16.3208 25.4776 16.1406C25.4771 15.9603 25.6036 15.7407 25.7606 15.6501Z" fill="#4C5C75"/>
<path d="M26.2411 15.1033C26.2815 15.0798 26.3146 15.0987 26.3147 15.1452C26.3149 15.192 26.2821 15.2487 26.2416 15.2721C26.236 15.2755 26.23 15.2781 26.2237 15.2799L25.8391 15.9458L26.2261 16.1663C26.2316 16.1614 26.2376 16.1571 26.244 16.1534C26.2846 16.1299 26.3176 16.1488 26.3176 16.1954C26.3179 16.2421 26.285 16.2989 26.2445 16.3222C26.2038 16.3457 26.1708 16.327 26.1707 16.2804C26.1707 16.2731 26.1713 16.266 26.1727 16.2587L25.786 16.038L25.4016 16.7039C25.403 16.7096 25.4038 16.716 25.4038 16.7231C25.4039 16.7698 25.3712 16.8266 25.3306 16.8499C25.2899 16.8734 25.2569 16.8547 25.2567 16.808C25.2566 16.7614 25.2893 16.7046 25.3301 16.6811C25.3364 16.6774 25.3422 16.6749 25.3479 16.6733L25.7323 16.0075L25.3452 15.787C25.3398 15.7918 25.3339 15.7961 25.3276 15.7998C25.2869 15.8232 25.2539 15.8046 25.2537 15.7579C25.2537 15.7113 25.2864 15.6544 25.3271 15.6309C25.3677 15.6074 25.4008 15.6263 25.4008 15.6729C25.4008 15.6801 25.4002 15.6872 25.3987 15.6946L25.7856 15.9152L26.1698 15.2494C26.1683 15.2431 26.1676 15.2366 26.1677 15.2301C26.1675 15.1836 26.2003 15.1267 26.2411 15.1033Z" fill="white"/>
<path d="M27.573 14.4161C27.8167 14.2754 28.0145 14.3887 28.0153 14.6685C28.0161 14.9484 27.8196 15.2894 27.5758 15.4301C27.3322 15.5707 27.1342 15.4575 27.1335 15.1777C27.1326 14.8978 27.3293 14.5568 27.573 14.4161Z" fill="#1D2943"/>
<path d="M27.5735 14.5965C27.7305 14.5059 27.8579 14.5788 27.8585 14.759C27.8588 14.9393 27.7323 15.1589 27.5753 15.2496C27.4183 15.3402 27.2908 15.2673 27.2903 15.087C27.2898 14.9067 27.4165 14.6872 27.5735 14.5965Z" fill="#4C5C75"/>
<path d="M28.0537 14.0497C28.0943 14.0263 28.1274 14.0451 28.1275 14.0917C28.1276 14.1384 28.0949 14.1951 28.0543 14.2185C28.0488 14.2219 28.0427 14.2245 28.0365 14.2263L27.6519 14.8922L28.0389 15.1127C28.0444 15.1078 28.0504 15.1035 28.0568 15.0998C28.0973 15.0765 28.1304 15.0952 28.1304 15.1418C28.1307 15.1886 28.0978 15.2453 28.0572 15.2687C28.0166 15.2922 27.9836 15.2735 27.9835 15.2268C27.9835 15.2196 27.9841 15.2124 27.9855 15.2051L27.5987 14.9844L27.2144 15.6503C27.2158 15.656 27.2165 15.6624 27.2165 15.6695C27.2167 15.7162 27.1839 15.773 27.1434 15.7963C27.1027 15.8198 27.0697 15.8011 27.0695 15.7544C27.0694 15.7078 27.1021 15.651 27.1429 15.6276C27.1492 15.624 27.155 15.6213 27.1606 15.6197L27.5451 14.9539L27.1581 14.7335C27.1526 14.7383 27.1467 14.7426 27.1404 14.7462C27.0997 14.7696 27.0667 14.751 27.0665 14.7043C27.0665 14.6577 27.0992 14.6008 27.1399 14.5773C27.1804 14.5538 27.2135 14.5727 27.2135 14.6193C27.2135 14.6265 27.2129 14.6337 27.2115 14.641L27.5984 14.8618L27.9826 14.1958C27.9811 14.1895 27.9803 14.183 27.9804 14.1765C27.9803 14.13 28.0129 14.0731 28.0537 14.0497Z" fill="white"/>
<path d="M26.8404 16.405L26.8394 16.782C26.8382 17.2969 26.4735 17.5045 26.0255 17.2457L25.7089 17.0627L26.8404 16.405Z" fill="#9EA9C9"/>
<path d="M8.6883 18.6759L8.68709 19.0897C8.68709 19.0527 8.6662 19.0173 8.62551 18.9814C8.59846 18.9576 8.5853 18.9303 8.5853 18.9029L8.5865 18.4891C8.5865 18.5164 8.59967 18.5438 8.62672 18.5676C8.66741 18.6033 8.6883 18.6388 8.6883 18.6759Z" fill="#1D2943"/>
<path d="M9.10792 18.2349L9.10671 18.6479L8.81931 18.8158V19.0899C8.81811 19.2094 8.66716 19.3169 8.50535 19.4111C8.15637 19.614 7.86535 19.6731 7.61539 19.591C7.56588 19.5741 7.50671 19.5777 7.46807 19.6007L7.19033 19.7625L7.09735 19.7081L7.09856 19.294L7.37629 19.1322C7.45599 19.0863 7.58037 19.0778 7.6806 19.1104C7.8726 19.1732 8.11169 19.1189 8.41358 18.9438C8.69131 18.782 8.75048 18.6769 8.62731 18.567C8.56211 18.5115 8.5766 18.4354 8.65992 18.3871L9.01494 18.1806L9.10792 18.2349Z" fill="#111D33"/>
<path d="M8.75279 18.4409C8.72985 18.4542 8.71801 18.472 8.71789 18.4895L8.71668 18.9034C8.71668 18.8858 8.72876 18.8682 8.75158 18.8549L9.10696 18.6484L9.10817 18.2344L8.75279 18.4409ZM7.19155 19.3483L7.19034 19.7621L7.097 19.7081L7.09809 19.2943L7.19155 19.3483Z" fill="#1D2943"/>
<path d="M8.50656 18.9974C8.15734 19.2003 7.86608 19.2591 7.61624 19.1767C7.56673 19.1604 7.50792 19.1644 7.46976 19.1865L7.19155 19.3483L7.19034 19.7621L7.46868 19.6003C7.50684 19.5782 7.56552 19.5742 7.61503 19.5907C7.865 19.6729 8.15613 19.6142 8.50548 19.4112C8.66765 19.317 8.81847 19.2089 8.81884 19.09L8.82004 18.6762C8.81968 18.7951 8.66886 18.9032 8.50656 18.9974Z" fill="#111D33"/>
<path d="M9.10805 18.2345L8.75279 18.441C8.71342 18.4639 8.70654 18.4995 8.73648 18.5258C8.94056 18.705 8.73479 18.8648 8.50657 18.9974C8.15734 19.2003 7.86608 19.2591 7.61624 19.1767C7.56673 19.1604 7.50793 19.1644 7.46977 19.1865L7.19155 19.3483L7.09808 19.2943L7.37642 19.1325C7.45564 19.0866 7.58086 19.0776 7.68097 19.1104C7.872 19.1733 8.11158 19.1187 8.41322 18.9434C8.69096 18.7821 8.75073 18.6765 8.62672 18.5676C8.56272 18.5112 8.57636 18.4353 8.65932 18.3871L9.0147 18.1806L9.10805 18.2345Z" fill="#4C5C75"/>
<path d="M8.94491 18.4426C8.99007 18.4166 9.02654 18.4376 9.02666 18.4892C9.0269 18.5411 8.99055 18.6038 8.94539 18.6299C8.90059 18.6558 8.86412 18.6349 8.864 18.5832C8.86388 18.5315 8.89999 18.4685 8.94491 18.4426ZM7.34008 19.3773C7.38536 19.3512 7.42183 19.3722 7.42195 19.4239C7.42207 19.4756 7.38572 19.5385 7.34068 19.5645C7.29576 19.5904 7.25941 19.5695 7.25929 19.5178C7.25917 19.466 7.29516 19.4031 7.34008 19.3773Z" fill="#C9CEE2"/>
<path d="M26.9067 4.45536L26.9062 5.14524C26.9061 5.20151 26.8691 5.25754 26.7954 5.30053C26.6468 5.38674 26.4051 5.38674 26.2556 5.30053C26.1805 5.25705 26.143 5.2003 26.1432 5.1433L26.1436 4.45355C26.1435 4.51031 26.1811 4.5673 26.2562 4.61053C26.4057 4.69699 26.6474 4.69699 26.7958 4.61053C26.8696 4.56779 26.9066 4.51164 26.9067 4.45536Z" fill="#4C5C75"/>
<path d="M28.3666 1.13437L28.0878 0.972321L24.64 2.96296L24.6475 5.59566L24.9262 5.75759L28.3741 3.76707L28.3666 1.13437Z" fill="#111D33"/>
<path d="M24.9262 5.75758L24.6475 5.59565L24.64 2.96295L24.9187 3.12488L24.9262 5.75758Z" fill="#111D33"/>
<path d="M24.9187 3.12489L24.64 2.96296L28.0878 0.972321L28.3666 1.13437L24.9187 3.12489Z" fill="#4C5C75"/>
<path d="M28.3666 1.13437L28.3741 3.76706L24.9262 5.75758L24.9187 3.12489L28.3666 1.13437Z" fill="#1D2943"/>
<path d="M25.1051 3.23211L28.1815 1.45593L28.1878 3.65971L25.1112 5.43601L25.1051 3.23211Z" fill="#57B3FE"/>
<path d="M7.5677 16.7813C7.559 16.797 7.55043 16.8128 7.53896 16.8272C7.53751 16.83 7.53606 16.8314 7.53316 16.8343C7.48885 16.8973 7.42291 16.9561 7.33404 17.0077C6.96574 17.2226 6.36679 17.2226 5.99571 17.0077C5.90394 16.9561 5.83511 16.8944 5.79079 16.83C5.78935 16.8286 5.78934 16.8272 5.7879 16.8257C5.77656 16.8113 5.7665 16.796 5.75783 16.7798C5.69334 16.6567 5.7047 16.5234 5.79369 16.4044C5.79609 16.3995 5.79951 16.3951 5.80371 16.3915C5.83088 16.3543 5.8682 16.3184 5.91396 16.284C5.93691 16.2669 5.96275 16.2497 5.99137 16.2325C6.0557 16.1954 6.12394 16.1656 6.19484 16.1436C6.48429 16.0476 6.84402 16.049 7.13347 16.1465C7.20362 16.1694 7.26956 16.198 7.32969 16.2325C7.35843 16.2497 7.3856 16.2669 7.40999 16.2856C7.45721 16.3199 7.49597 16.3571 7.52471 16.3973C7.52894 16.4015 7.53184 16.4044 7.53461 16.4088C7.62059 16.5277 7.63218 16.6594 7.5677 16.7813Z" fill="#4C5C75"/>
<path d="M5.80408 16.391C5.81011 16.4176 5.81977 16.4429 5.83306 16.4683C5.81253 16.4333 5.80045 16.3958 5.79562 16.3584C5.79804 16.3693 5.80045 16.3801 5.80408 16.391ZM7.53449 16.3391C7.53449 16.3417 7.53328 16.3443 7.53316 16.3469C7.53365 16.3394 7.53437 16.3321 7.53437 16.3246L7.53449 16.3391Z" fill="#FEBC1F"/>
<path d="M7.53412 16.3297C7.53702 16.1975 7.45189 16.065 7.27848 15.9647C6.93675 15.7679 6.3849 15.7679 6.04679 15.9647C5.87773 16.0625 5.7932 16.1918 5.7932 16.321V16.4043L5.79079 16.8305C5.83547 16.8945 5.9043 16.9561 5.99607 17.0081C6.36679 17.223 6.96573 17.223 7.33403 17.0081C7.42339 16.9561 7.4886 16.897 7.53328 16.8342L7.53448 16.4091V16.3391C7.53448 16.3417 7.53328 16.3443 7.53316 16.3469C7.53352 16.3411 7.53412 16.3354 7.53412 16.3298V16.3297ZM5.79562 16.3584C5.79803 16.3693 5.80045 16.3801 5.80407 16.391C5.81011 16.4176 5.81977 16.4429 5.83305 16.4683C5.81252 16.4333 5.80045 16.3958 5.79562 16.3584Z" fill="#FEBC1F"/>
<path d="M7.53449 16.3246V16.3391C7.53461 16.3359 7.53413 16.3329 7.53413 16.3298L7.53449 16.3246ZM5.80408 16.391C5.81011 16.4176 5.81977 16.4429 5.83306 16.4683C5.81253 16.4333 5.80045 16.3958 5.79562 16.3584C5.79804 16.3693 5.80045 16.3801 5.80408 16.391Z" fill="#FEBC1F"/>
<path d="M7.53449 16.3391C7.53449 16.3417 7.53328 16.3443 7.53316 16.3469C7.53364 16.3394 7.53437 16.3321 7.53437 16.3246L7.53449 16.3391Z" fill="#FEBC1F"/>
<path d="M7.53461 16.3242V16.4087L7.53316 16.8343C7.48884 16.8973 7.42291 16.9561 7.33403 17.0077C6.96573 17.2226 6.36679 17.2226 5.99571 17.0077C5.90393 16.9561 5.8351 16.8944 5.79079 16.8299L5.79368 16.4044V16.3213C5.79368 16.3457 5.79646 16.3685 5.80371 16.3915C5.8281 16.4962 5.91118 16.598 6.05005 16.6781C6.39118 16.8744 6.94291 16.8744 7.28247 16.6781C7.32401 16.6538 7.3612 16.6279 7.39284 16.5993C7.40854 16.5849 7.42291 16.572 7.43583 16.5563C7.44863 16.5419 7.46155 16.5277 7.47157 16.5119C7.49741 16.4746 7.51601 16.4359 7.5247 16.3972C7.53148 16.3734 7.53482 16.3489 7.53461 16.3242Z" fill="#FEBC1F"/>
<path d="M7.27812 15.9644C7.61938 16.1614 7.62119 16.4808 7.28223 16.6779C6.94303 16.875 6.39166 16.875 6.05029 16.6779C5.70904 16.4808 5.70735 16.1614 6.04642 15.9644C6.38538 15.7674 6.93687 15.7674 7.27812 15.9644Z" fill="#FFD06C"/>
<path d="M7.41252 15.8102L7.41011 16.2799C7.4089 16.3898 7.33645 16.5009 7.19275 16.5842C6.90052 16.7533 6.42716 16.7533 6.13494 16.5842C5.98762 16.4997 5.91396 16.3874 5.91396 16.2763L5.91637 15.8053C5.91637 15.6954 5.98882 15.5856 6.13373 15.501C6.42475 15.332 6.89811 15.332 7.19154 15.501C7.33886 15.5868 7.41252 15.6979 7.41252 15.8102Z" fill="#DF3260"/>
<path d="M7.17149 26.0339C7.14517 26.0491 7.12887 26.0814 7.12875 26.1276L7.12814 26.3708L7.41916 26.2017L7.41989 25.9583C7.42001 25.9124 7.43631 25.8799 7.46251 25.8647L7.17149 26.0337V26.0339Z" fill="#4C5C75"/>
<path d="M7.12694 25.9572L7.41796 25.7881C7.45612 25.7659 7.50876 25.7689 7.56673 25.8025C7.6073 25.8259 7.64401 25.8281 7.6707 25.8127L7.37968 25.9817C7.35311 25.9973 7.31616 25.995 7.27559 25.9717C7.21762 25.9381 7.16498 25.9351 7.12694 25.9572Z" fill="#4C5C75"/>
<path d="M7.57024 24.5519C7.4897 24.5052 7.42437 24.3921 7.42461 24.2995L7.42521 24.0956L7.13407 24.2647L7.13347 24.4688C7.13323 24.5613 7.19868 24.6744 7.27922 24.721C7.39442 24.7876 7.488 24.9495 7.48764 25.0821L7.48523 25.9244C7.48499 25.9903 7.46168 26.0367 7.42413 26.0584L7.71514 25.8893C7.75282 25.8674 7.77613 25.821 7.77637 25.7553L7.77878 24.9128C7.77902 24.7803 7.68556 24.6184 7.57024 24.5517V24.5519Z" fill="#4C5C75"/>
<path d="M7.07115 24.2285L7.36229 24.0593L7.4252 24.0956L7.13406 24.2648L7.07115 24.2285Z" fill="#111D33"/>
<path d="M7.27584 24.2536C7.32728 24.2239 7.36882 24.2477 7.36906 24.3067C7.3693 24.3656 7.328 24.4371 7.27644 24.467C7.22536 24.4964 7.18382 24.4726 7.1837 24.4137C7.18358 24.3548 7.22476 24.283 7.27584 24.2536ZM7.27584 26.011C7.32728 25.9813 7.36882 26.0052 7.36906 26.0642C7.3693 26.1232 7.328 26.1947 7.27644 26.2244C7.22536 26.254 7.18382 26.2302 7.1837 26.1713C7.18358 26.1122 7.22476 26.0406 7.27584 26.011Z" fill="#C9CEE2"/>
<path d="M7.13406 24.2648L7.13346 24.4686C7.13322 24.5613 7.19867 24.6744 7.27921 24.721C7.39441 24.7875 7.48799 24.9495 7.48763 25.0821L7.48522 25.9245C7.48485 26.0569 7.39067 26.1104 7.27547 26.044C7.1948 25.9974 7.12899 26.0348 7.12875 26.1274L7.12814 26.3708L7.06523 26.3345L7.06584 26.0912C7.0662 25.9587 7.16039 25.9051 7.27559 25.9717C7.35625 26.0182 7.42206 25.9807 7.4223 25.8881L7.42472 25.0456C7.42496 24.953 7.35951 24.8398 7.27897 24.7932C7.16365 24.7268 7.07018 24.5648 7.07054 24.4323L7.07115 24.2285L7.13406 24.2648Z" fill="#1D2943"/>
</g>
<defs>
<clipPath id="clip0_199_1807">
<rect width="32" height="32" fill="white"/>
</clipPath>
</defs>
</svg>
