<svg width="32" height="32" viewBox="0 0 32 32" fill="none" xmlns="http://www.w3.org/2000/svg">
<path d="M22.4204 6.15076L24.8129 4.76039L27.3156 6.20522L24.9231 7.59571L22.4204 6.15076Z" fill="#414F65"/>
<path d="M26.3019 9.94608L28.6945 8.55559L28.6835 12.4276L26.291 13.818L26.3019 9.94608Z" fill="#1D2943"/>
<path d="M24.9229 7.59571L27.3154 6.20522L28.6945 8.55558L26.3019 9.94608L24.9229 7.59571Z" fill="#4C5C75"/>
<path d="M24.9229 7.59571L26.3019 9.94608L26.291 13.818L22.4048 11.5743L22.4202 6.15076L24.9229 7.59571Z" fill="#111D33"/>
<path d="M27.3826 6.05936L24.8134 4.57613L22.4209 5.9665L22.4204 6.15077L24.9231 7.59572L26.133 9.65785L26.2523 9.58986L28.645 8.19949L27.3826 6.05936Z" fill="#E9E7FC"/>
<path d="M22.4209 5.9665L24.8134 4.57613L27.3826 6.05936L24.99 7.44973L22.4209 5.9665Z" fill="#E9E7FC"/>
<path d="M24.9897 7.44973L27.3824 6.05936L28.6447 8.19949L26.2521 9.58986L24.9897 7.44973Z" fill="#F3F1FC"/>
<path d="M24.99 7.44972L26.2523 9.58986L26.133 9.65784L24.9231 7.59571L22.4204 6.15076L22.4209 5.96649L24.99 7.44972Z" fill="#DEDFFB"/>
<path d="M18.0054 27.7776L18.194 27.668L18.4904 26.5211L18.3018 26.6308L18.0054 27.7776Z" fill="#9EA9C9"/>
<path d="M18.3016 26.6308L18.4902 26.5211L17.4191 25.9027L17.2305 26.0124L18.3016 26.6308Z" fill="#414F65"/>
<path d="M17.2305 26.0124L17.5188 27.4968L18.0051 27.7776L18.3016 26.6308L17.2305 26.0124Z" fill="#B0B8CF"/>
<path d="M18.2361 28.4032C18.2361 28.6145 18.1559 28.7676 18.0392 28.8331L17.5134 29.1438C17.6373 29.071 17.4011 28.9212 17.4011 28.7098C17.4011 28.2872 17.3385 28.0927 16.9668 27.8814C16.7772 27.7721 16.6898 27.4384 16.5659 27.5112L17.0918 27.2078C17.2157 27.135 17.3833 27.1495 17.5729 27.2517C17.9445 27.4702 18.2361 27.9732 18.2361 28.4032Z" fill="#4C5C75"/>
<path d="M17.0472 27.5606C16.6797 27.3484 16.3762 27.5106 16.375 27.9384C16.3738 28.3608 16.6753 28.883 17.0429 29.0952C17.4152 29.3102 17.7093 29.1318 17.7106 28.7094C17.7118 28.2817 17.4195 27.7755 17.0472 27.5606Z" fill="#1D2943"/>
<path d="M17.0452 27.8697C16.8258 27.7429 16.6448 27.8399 16.644 28.0952C16.6433 28.3473 16.8232 28.659 17.0425 28.7856C17.2647 28.9139 17.4404 28.8074 17.441 28.5554C17.4419 28.3001 17.2674 27.998 17.0452 27.8697Z" fill="#DEDFFB"/>
<path d="M17.5272 27.0883L17.7156 26.9788L16.6446 26.3604L16.4561 26.4699L17.5272 27.0883Z" fill="#414F65"/>
<path d="M17.7155 26.9784L17.4185 28.1256L17.2301 28.2355L16.7447 27.9541L16.4561 26.47L17.5271 27.0883L17.7155 26.9784Z" fill="#9EA9C9"/>
<path d="M17.2305 28.2352L17.4191 28.1256L17.7154 26.9788L17.5269 27.0883L17.2305 28.2352Z" fill="#9EA9C9"/>
<path d="M16.4561 26.4699L16.7444 27.9545L17.2307 28.2352L17.5272 27.0883L16.4561 26.4699Z" fill="#B0B8CF"/>
<path d="M29.7954 20.5625L29.984 20.453L30.2804 19.306L30.0919 19.4157L29.7954 20.5625Z" fill="#9EA9C9"/>
<path d="M30.0921 19.4157L30.2806 19.306L29.2095 18.6876L29.021 18.7973L30.0921 19.4157Z" fill="#414F65"/>
<path d="M29.021 18.7973L29.3094 20.2817L29.7956 20.5625L30.0921 19.4157L29.021 18.7973Z" fill="#B0B8CF"/>
<path d="M30.0265 21.1881C30.0265 21.3994 29.9464 21.5525 29.8297 21.618L29.3038 21.9287C29.4278 21.8559 29.1915 21.7061 29.1915 21.4948C29.1915 21.0721 29.1289 20.8778 28.7574 20.6664C28.5678 20.557 28.4802 20.2233 28.3564 20.2962L28.8823 19.9929C29.0062 19.9199 29.1738 19.9346 29.3633 20.0366C29.735 20.2552 30.0265 20.7581 30.0265 21.1881Z" fill="#4C5C75"/>
<path d="M28.8373 20.3456C28.4697 20.1333 28.1663 20.2956 28.165 20.7233C28.1638 21.1457 28.4654 21.6679 28.8329 21.8802C29.2052 22.0951 29.4994 21.9167 29.5006 21.4943C29.5018 21.0666 29.2096 20.5604 28.8373 20.3456Z" fill="#1D2943"/>
<path d="M28.8357 20.6546C28.6163 20.5278 28.4353 20.6248 28.4346 20.8801C28.4338 21.1322 28.6138 21.4439 28.8331 21.5705C29.0553 21.6988 29.2308 21.5923 29.2316 21.3403C29.2323 21.085 29.0579 20.7829 28.8357 20.6546Z" fill="#DEDFFB"/>
<path d="M29.021 21.0201L29.2095 20.9105L29.5059 19.7637L29.3173 19.8732L29.021 21.0201Z" fill="#9EA9C9"/>
<path d="M29.3172 19.8732L29.5058 19.7637L28.4347 19.1453L28.2461 19.2548L29.3172 19.8732Z" fill="#414F65"/>
<path d="M28.2461 19.2548L28.5345 20.7394L29.0209 21.0201L29.3172 19.8732L28.2461 19.2548Z" fill="#B0B8CF"/>
<path d="M9.93066 23.2384L10.1192 23.1288L10.4156 21.9819L10.227 22.0915L9.93066 23.2384Z" fill="#9EA9C9"/>
<path d="M10.2269 22.0915L10.4155 21.9819L9.34438 21.3636L9.15576 21.4731L10.2269 22.0915Z" fill="#414F65"/>
<path d="M9.15576 21.4731L9.44412 22.9576L9.93052 23.2384L10.2269 22.0915L9.15576 21.4731Z" fill="#B0B8CF"/>
<path d="M10.1614 23.8639C10.1614 24.0752 10.0812 24.2284 9.96454 24.2939L9.43865 24.6046C9.56255 24.5317 9.32635 24.3819 9.32635 24.1706C9.32635 23.748 9.2638 23.5536 8.89212 23.3423C8.70253 23.233 8.61511 22.8991 8.49121 22.972L9.0171 22.6687C9.14099 22.5959 9.3086 22.6104 9.49818 22.7124C9.86987 22.931 10.1614 23.4339 10.1614 23.8639Z" fill="#4C5C75"/>
<path d="M8.97254 23.0214C8.60484 22.8092 8.3015 22.9714 8.3003 23.3991C8.29909 23.8215 8.60049 24.3438 8.96807 24.556C9.34036 24.7709 9.63464 24.5927 9.63584 24.1701C9.63705 23.7424 9.34483 23.2363 8.97254 23.0214Z" fill="#1D2943"/>
<path d="M8.97061 23.3304C8.7512 23.2037 8.57006 23.3006 8.56934 23.5559C8.56861 23.808 8.74854 24.1198 8.96795 24.2463C9.19014 24.3746 9.36572 24.2682 9.36644 24.0161C9.36717 23.7608 9.1928 23.4588 8.97061 23.3304Z" fill="#DEDFFB"/>
<path d="M9.15576 23.6959L9.34438 23.5864L9.64083 22.4395L9.45221 22.5491L9.15576 23.6959Z" fill="#9EA9C9"/>
<path d="M9.45195 22.5491L9.64057 22.4395L8.56936 21.8211L8.38086 21.9308L9.45195 22.5491Z" fill="#414F65"/>
<path d="M8.38086 21.9307L8.66922 23.4152L9.1555 23.6959L9.45195 22.5491L8.38086 21.9307Z" fill="#B0B8CF"/>
<path d="M3.64062 19.6071L3.82924 19.4974L4.1257 18.3506L3.93708 18.4601L3.64062 19.6071Z" fill="#9EA9C9"/>
<path d="M3.93731 18.4601L4.12592 18.3506L3.05483 17.7322L2.86621 17.8417L3.93731 18.4601Z" fill="#414F65"/>
<path d="M2.86621 17.8418L3.15457 19.3263L3.64085 19.6071L3.93731 18.4601L2.86621 17.8418Z" fill="#B0B8CF"/>
<path d="M3.87182 20.2326C3.87182 20.4439 3.79164 20.597 3.67499 20.6626L3.1491 20.9732C3.273 20.9003 3.0368 20.7506 3.0368 20.5393C3.0368 20.1166 2.97425 19.9222 2.60257 19.7109C2.41298 19.6015 2.32555 19.2677 2.20166 19.3407L2.72755 19.0373C2.85144 18.9644 3.01905 18.979 3.20863 19.0811C3.5802 19.2996 3.87182 19.8026 3.87182 20.2326Z" fill="#4C5C75"/>
<path d="M2.6825 19.3901C2.3148 19.1778 2.01147 19.3401 2.01026 19.7678C2.00905 20.1902 2.31045 20.7124 2.67803 20.9246C3.05032 21.1396 3.3446 20.9612 3.34568 20.5388C3.34689 20.1111 3.05467 19.605 2.6825 19.3901Z" fill="#1D2943"/>
<path d="M2.68093 19.6991C2.46164 19.5724 2.28051 19.6693 2.27979 19.9245C2.27906 20.1767 2.45899 20.4883 2.6784 20.615C2.90059 20.7432 3.07616 20.6367 3.07689 20.3847C3.07761 20.1295 2.903 19.8273 2.68093 19.6991Z" fill="#DEDFFB"/>
<path d="M2.86621 20.0646L3.05483 19.9551L3.35116 18.8082L3.16266 18.9178L2.86621 20.0646Z" fill="#9EA9C9"/>
<path d="M3.1624 18.9178L3.3509 18.8081L2.27981 18.1898L2.09131 18.2994L3.1624 18.9178Z" fill="#414F65"/>
<path d="M2.09131 18.2994L2.37967 19.7838L2.86595 20.0646L3.1624 18.9178L2.09131 18.2994Z" fill="#B0B8CF"/>
<path d="M30.3753 14.7799C30.1516 15.8417 30.1174 16.005 29.1174 20.7471C29.0628 21.004 28.8412 21.0822 28.5853 20.9344L13.1823 12.0414C13.0592 11.9708 12.9607 11.7994 12.9607 11.6581L12.9735 7.1319C12.9757 6.56665 12.5785 5.88148 12.0882 5.59783C12.0272 5.56245 11.9715 5.50244 11.9319 5.43288C11.8923 5.36333 11.8667 5.2852 11.8667 5.21456L11.8719 3.59801C11.8719 3.45782 11.9715 3.40106 12.0946 3.4717L29.8465 13.7211C30.1922 13.9202 30.4481 14.4341 30.3753 14.7799Z" fill="#C9CEE2"/>
<path d="M29.8107 14.8414L28.5959 20.6038C28.5741 20.7076 28.5234 20.7801 28.4546 20.8199L18.6626 26.5111C18.7314 26.4712 18.7809 26.3976 18.8039 26.2937L20.0187 20.5313C20.0887 20.198 19.8412 19.7017 19.5079 19.5085L2.36674 9.61268C2.30757 9.57887 2.25323 9.57524 2.21338 9.59819L12.0066 3.90702C12.0452 3.88528 12.0996 3.8877 12.1587 3.92271L29.2999 13.8186C29.6332 14.0118 29.8807 14.5069 29.8107 14.8414Z" fill="#4C5C75"/>
<path d="M29.8107 14.8408L28.5959 20.6032C28.5741 20.707 28.5234 20.7807 28.4546 20.8205L18.6626 26.5105C18.7314 26.4706 18.7809 26.397 18.8039 26.2943L20.0187 20.5319C20.0887 20.1974 19.8412 19.7023 19.5079 19.5091L29.2999 13.818C29.6332 14.0112 29.8807 14.5075 29.8107 14.8408Z" fill="#1D2943"/>
<path d="M20.4849 18.9409L3.34416 9.04477C3.28439 9.01023 3.23029 9.00709 3.19117 9.02979L1.97021 9.74418C2.00922 9.7216 2.0632 9.72474 2.12309 9.75915L19.2636 19.6554C19.5976 19.8481 20.0274 20.2333 19.9574 20.5668L18.7422 26.3296C18.7202 26.433 18.6702 26.5064 18.6014 26.5464L19.6399 25.9428C19.7087 25.9028 19.7588 25.8294 19.7808 25.7259L20.996 19.9632C21.066 19.6298 20.8187 19.1336 20.4847 18.9409H20.4849Z" fill="#1D2943"/>
<path d="M20.9954 19.9632L20.5172 22.2285L20.3131 23.197L19.7806 25.7256C19.7601 25.8246 19.7142 25.8959 19.6502 25.9369C19.6466 25.9393 19.6442 25.9405 19.6405 25.9429L18.6021 26.5467C18.6709 26.5069 18.7204 26.4332 18.7421 26.3294C19.4452 22.9942 18.621 26.9009 19.9569 20.567C20.027 20.2337 19.5971 19.8485 19.2638 19.6553L19.5101 19.5103L20.2612 19.0708L20.4846 18.9404H20.4858C20.8203 19.1348 21.0667 19.6299 20.9954 19.9632Z" fill="#111D33"/>
<path d="M19.5987 19.6691L1.84715 9.42031C1.78533 9.38457 1.7293 9.38131 1.68884 9.40474L0.613281 10.0299C0.653613 10.0063 0.709764 10.0096 0.771591 10.0453L18.5231 20.2943C18.869 20.4939 19.1251 21.0076 19.0525 21.3529L17.7941 27.3211C17.7713 27.4283 17.7195 27.5043 17.6483 27.5457L18.7238 26.9207C18.7951 26.8793 18.847 26.8032 18.8697 26.6961L20.1281 20.7279C20.2008 20.3825 19.9445 19.8687 19.5987 19.6691Z" fill="#E3E7F0"/>
<path d="M29.3345 13.7979L12.1939 3.90182C12.1342 3.86729 12.0801 3.86415 12.0409 3.88685L11.0024 4.49038C11.0414 4.46768 11.0955 4.47082 11.1553 4.50535L28.296 14.4016C28.6299 14.5943 28.8772 15.0903 28.8071 15.4239L27.592 21.1867C27.57 21.2901 27.52 21.3634 27.4512 21.4035L28.4897 20.7999C28.5585 20.7599 28.6086 20.6865 28.6306 20.583L29.8457 14.8202C29.9158 14.4868 29.6683 13.9906 29.3345 13.7979Z" fill="#1D2943"/>
<path d="M29.8455 14.8202L29.3601 17.1242L29.156 18.0915L28.6307 20.5826C28.609 20.6865 28.5583 20.7602 28.4894 20.8L28.4568 20.8193L27.4521 21.4026C27.5198 21.3627 27.5705 21.2891 27.5922 21.1864L28.1187 18.6904L28.3228 17.7232L28.807 15.424C28.8771 15.0907 28.6295 14.5944 28.2962 14.4012L29.2997 13.818L29.3347 13.7974C29.668 13.9906 29.9155 14.4869 29.8455 14.8202Z" fill="#111D33"/>
<path d="M30.9151 13.0928L13.1636 2.84377C13.1017 2.80802 13.0457 2.80476 13.0054 2.82831L11.9297 3.45334C11.9701 3.42991 12.0262 3.43317 12.088 3.46879L29.8395 13.7177C30.1854 13.9173 30.4416 14.4311 30.3689 14.7765L29.1105 20.7447C29.0878 20.8518 29.0359 20.9277 28.9647 20.9693L30.0402 20.3441C30.1115 20.3027 30.1634 20.2268 30.1861 20.1195L31.4446 14.1514C31.5171 13.806 31.2611 13.2924 30.9151 13.0928Z" fill="#E3E7F0"/>
<path d="M15.1991 26.1947L2.07789 18.6186C1.95351 18.5473 1.85449 18.3746 1.85449 18.2322L1.85932 16.7746L13.6981 23.6106L15.1991 26.1947Z" fill="#4C5C75"/>
<path d="M19.0523 21.3531L17.794 27.3208C17.7396 27.578 17.5175 27.6552 17.2627 27.5079L14.9864 26.1941V26.1929L13.4855 23.61L1.64667 16.7752L1.65029 13.7057C1.6527 13.1405 1.25542 12.4546 0.765157 12.1709C0.640901 12.1002 0.542969 11.9278 0.542969 11.7881L0.549006 10.1712C0.549006 10.0311 0.648025 9.97434 0.771195 10.0456L18.5233 20.294C18.8687 20.4933 19.1247 21.0077 19.0523 21.3531Z" fill="#C9CEE2"/>
<path d="M17.4615 19.679L17.4572 21.21L2.36572 12.4979L2.37104 10.9659L17.4615 19.679Z" fill="#B0B8CF"/>
<path d="M17.4574 21.2094L17.4212 22.1416L2.50194 13.5269L2.3667 12.4969L17.4574 21.2094Z" fill="#F45170"/>
<path d="M14.1412 8.42554L14.1391 9.65977L13.6079 9.96854L13.61 8.73431L14.1412 8.42554Z" fill="#F3F1FC"/>
<path d="M13.61 8.73431L13.6079 9.96854L13.0732 9.65977L13.0752 8.42554L13.61 8.73431Z" fill="#DEDFFB"/>
<path d="M14.0301 8.9524L13.6092 9.19705L13.1855 8.9524L13.6064 8.70787L14.0301 8.9524Z" fill="#D1D0D9"/>
<path d="M14.3516 8.01775L14.3489 9.01772L13.6079 9.44821L13.6108 8.44836L14.3516 8.01775Z" fill="#1D2943"/>
<path d="M13.6109 8.44836L13.608 9.44821L12.8623 9.01772L12.8651 8.01775L13.6109 8.44836Z" fill="#111D33"/>
<path d="M14.3518 8.01776L13.611 8.44837L12.8652 8.01776L13.6062 7.58727L14.3518 8.01776Z" fill="#D1D0D9"/>
<path d="M18.5353 19.055L17.4616 19.6801L2.37109 10.9659L3.44484 10.3418L18.5353 19.055Z" fill="#C9CEE2"/>
<path d="M18.2824 19.2026L17.7139 19.5324L2.62354 10.8182L3.19193 10.4895L18.2824 19.2026Z" fill="#9EA9C9"/>
<path d="M18.0757 19.3226L17.7139 19.5324L2.62354 10.8182L2.98532 10.6094L18.0757 19.3226Z" fill="white"/>
<path d="M29.8399 12.4729L28.7661 13.098L13.6758 4.38377L14.7495 3.7597L29.8399 12.4729Z" fill="#B0B8CF"/>
<path d="M29.5871 12.6206L29.0186 12.9503L13.9282 4.23607L14.4966 3.90738L29.5871 12.6206Z" fill="#9EA9C9"/>
<path d="M29.3805 12.7405L29.0186 12.9503L13.9282 4.23608L14.29 4.0273L29.3805 12.7405Z" fill="white"/>
<path d="M28.7666 13.0984V13.4699L13.6758 4.75532V4.38376L28.7666 13.0984Z" fill="#9EA9C9"/>
<path d="M20.3036 6.04799L20.3024 6.95969L19.2168 7.59003L17.9405 6.85101L17.9429 5.15803L8.49141 10.6512L8.4902 11.7524L8.99012 12.3647L8.98892 13.5348L7.90333 14.1651L6.62695 13.4261L6.63058 10.8311L6.63178 10.365L19.0273 3.16196L19.2277 3.27667L19.2265 3.49403L19.4173 3.60392L19.6045 3.49524L19.8049 3.61116V4.07486L19.8037 5.17735L20.3036 6.04799Z" fill="#FFB961"/>
<path d="M18.7188 5.8083L19.8036 5.17772L20.3031 6.048L19.2182 6.67846L18.7188 5.8083Z" fill="#FFD475"/>
<path d="M19.2182 6.67845L20.3031 6.04799L20.3021 6.95945L19.2172 7.58991L19.2182 6.67845ZM18.7201 4.70556L19.8049 4.0751L19.8036 5.17771L18.7188 5.8083L18.7201 4.70556Z" fill="#FFB961"/>
<path d="M17.9438 4.25612L18.6522 3.84447L19.4282 4.29392L18.7198 4.70557L17.9438 4.25612Z" fill="#FFD475"/>
<path d="M18.7201 4.70557L18.7188 5.8083L19.2183 6.67846L19.2173 7.58992L17.9404 6.85126L17.9442 4.25612L18.7201 4.70557Z" fill="#F9A83D"/>
<path d="M7.40527 12.383L8.49013 11.7526L8.98958 12.3644L7.90471 12.9949L7.40527 12.383Z" fill="#FFD475"/>
<path d="M7.90429 12.9949L8.98915 12.3644L8.98818 13.5343L7.90332 14.1648L7.90429 12.9949Z" fill="#FFB961"/>
<path d="M6.63037 10.8309L7.33872 10.4192L8.11469 10.8688L7.40634 11.2803L6.63037 10.8309Z" fill="#FFD475"/>
<path d="M7.40618 11.2803L7.40485 12.383L7.90429 12.9949L7.90332 14.1648L6.62646 13.4261L6.63021 10.8309L7.40618 11.2803Z" fill="#F9A83D"/>
<path d="M7.40634 11.2803L8.4912 10.6498L8.48987 11.7526L7.40501 12.383L7.40634 11.2803ZM6.83215 10.4804L19.2271 3.27716L19.2265 3.49416L6.83154 10.6974L6.83215 10.4804Z" fill="#FFB961"/>
<path d="M6.63184 10.3646L19.0268 3.16148L19.2273 3.27717L6.83229 10.4804L6.63184 10.3646Z" fill="#FFD475"/>
<path d="M6.83154 10.6974L19.2265 3.49416L19.6041 3.71224L7.20914 10.9155L6.83154 10.6974Z" fill="#DC9F54"/>
<path d="M7.40869 11.2803L7.41002 10.8142L19.8051 3.61093L19.8046 4.07511L7.40869 11.2803Z" fill="#FFB961"/>
<path d="M7.20996 10.6985L19.6051 3.49524L19.8055 3.61092L7.41041 10.8142L7.20996 10.6985Z" fill="#FFD475"/>
<path d="M7.41021 10.8142L7.40888 11.2803L6.63037 10.8309L6.6317 10.3646L6.83215 10.4804L6.83155 10.6974L7.20915 10.9155L7.20975 10.6985L7.41021 10.8142Z" fill="#F9A83D"/>
<path d="M12.492 7.6288L12.2956 7.74267L12.1138 7.62771V7.41011L12.492 7.6288Z" fill="#DEDFFB"/>
<path d="M29.3603 17.1242L29.1635 18.0577L29.1297 18.077L28.1624 18.6361L20.6297 22.9844L19.6878 23.5291L19.5176 23.6257L19.7144 22.691L19.8847 22.5944L20.8266 22.0498L28.3592 17.7026L29.3265 17.1435L29.3603 17.1242Z" fill="#F45170"/>
<path d="M8.7277 13.6851V13.9254L8.38476 14.1452L8.16016 14.016L8.7277 13.6851ZM20.0436 7.10883V7.34913L19.7007 7.5689L19.4749 7.43849L20.0436 7.10883Z" fill="#FFB961"/>
<path d="M27.3154 6.72206C27.3894 6.67931 27.4897 6.71916 27.5391 6.81106C27.588 6.90186 27.5679 7.01115 27.4939 7.05377C27.4199 7.09664 27.3196 7.05679 27.2707 6.96586C27.2214 6.87409 27.2414 6.76493 27.3154 6.72206Z" fill="#F45170"/>
<path d="M27.605 7.26037C27.679 7.21763 27.7792 7.25748 27.8286 7.34937C27.878 7.44114 27.858 7.55043 27.7839 7.59317C27.7099 7.63592 27.6097 7.59607 27.5603 7.50418C27.5109 7.41228 27.5309 7.30312 27.605 7.26037Z" fill="#FFD06C"/>
<path d="M27.8951 7.79968C27.969 7.75693 28.0693 7.7969 28.1187 7.88867C28.1675 7.97948 28.1476 8.08876 28.0735 8.13151C27.9995 8.17426 27.8993 8.13441 27.8504 8.0436C27.8009 7.95183 27.821 7.84242 27.8951 7.79968Z" fill="#78E75A"/>
<path d="M27.2709 6.96585C27.2215 6.87408 27.2415 6.76479 27.3155 6.72193L27.3258 6.71661L27.2628 6.74572C27.2592 6.74738 27.2558 6.74919 27.2524 6.75115C27.1784 6.7939 27.1584 6.9033 27.2077 6.99507C27.2544 7.08166 27.3478 7.12187 27.4206 7.0883L27.4836 7.05932C27.4108 7.09276 27.3175 7.05255 27.2709 6.96585Z" fill="#DF3260"/>
<path d="M27.5603 7.50418C27.5109 7.41241 27.531 7.30313 27.605 7.26038C27.6084 7.25845 27.6119 7.25676 27.6154 7.25507L27.5524 7.28405C27.5488 7.28571 27.5454 7.28752 27.542 7.28948C27.468 7.33223 27.4479 7.44163 27.4973 7.53341C27.5444 7.62095 27.6379 7.66128 27.7106 7.62759L27.7737 7.59861C27.7009 7.63218 27.6074 7.59185 27.5603 7.50418Z" fill="#FEBC1F"/>
<path d="M27.8504 8.04347C27.8009 7.9517 27.8211 7.84242 27.8951 7.79967C27.8985 7.79774 27.9019 7.79605 27.9054 7.79436L27.8424 7.82334C27.8388 7.82499 27.8353 7.8268 27.832 7.82877C27.7579 7.87152 27.738 7.98092 27.7873 8.0727C27.834 8.15928 27.9274 8.19949 28.0002 8.16604L28.0632 8.13694C27.9904 8.17051 27.8971 8.13006 27.8504 8.04347Z" fill="#5EC363"/>
<path d="M27.5099 8.44619L26.3603 9.11034C26.3579 9.11154 26.3555 9.11275 26.3519 9.11396L26.2891 9.14415C26.2311 9.17071 26.155 9.13811 26.1176 9.06807L25.5114 7.94143C25.4716 7.86777 25.4885 7.77962 25.5476 7.7446L26.6972 7.08166C26.6996 7.08045 26.702 7.07803 26.7057 7.07683L26.7685 7.04785C26.766 7.04905 26.7624 7.05026 26.76 7.05268C26.8192 7.01766 26.9001 7.05026 26.9399 7.12392L27.5461 8.25056C27.586 8.32422 27.5691 8.41237 27.5099 8.44619Z" fill="#57B3FE"/>
<path d="M26.6973 7.08154L25.5478 7.74521C25.4886 7.77939 25.4723 7.86778 25.5119 7.94132L26.118 9.06784C26.1558 9.13812 26.2312 9.17048 26.2896 9.14367L26.3527 9.11457C26.2943 9.1415 26.2187 9.1089 26.181 9.03862L25.5751 7.91222C25.5354 7.83856 25.5515 7.7504 25.6109 7.71599L26.7605 7.05232C26.7632 7.05079 26.7659 7.04938 26.7687 7.0481L26.7057 7.0772C26.7028 7.07851 26.7001 7.07996 26.6973 7.08154Z" fill="#497BFE"/>
<path d="M26.7604 7.05232C26.8197 7.01815 26.9007 7.05027 26.9403 7.12393L27.5463 8.25033C27.5859 8.32399 27.5697 8.41226 27.5104 8.44655L26.3608 9.11022C26.3014 9.14452 26.2205 9.11227 26.1809 9.03861L25.5749 7.91221C25.5353 7.83855 25.5514 7.7504 25.6108 7.71611L26.7604 7.05232Z" fill="#57B3FE"/>
<path d="M13.4603 5.29762L11.916 6.19507L11.9116 7.29382L12.6901 7.74327L12.6882 8.73152L13.1287 8.98583L14.6729 8.08839L14.6792 6.00138L13.4603 5.29762Z" fill="#DEDFFB"/>
<path d="M13.135 6.89884L13.1287 8.98585L12.6882 8.73154L12.6901 7.74328L11.9116 7.29383L11.9161 6.19508L13.135 6.89884Z" fill="#DEDFFB"/>
<path d="M13.1352 6.89884L14.6794 6.00139L14.6731 8.08839L13.1289 8.98584L13.1352 6.89884Z" fill="#E9E7FC"/>
<path d="M11.916 6.19507L13.4602 5.29762L14.6791 6.00138L13.1349 6.89883L11.916 6.19507Z" fill="#F3F1FC"/>
<path d="M14.431 7.46325C14.431 7.66733 14.2885 7.91608 14.1098 8.01872C14.0192 8.07065 13.9383 8.07548 13.8791 8.04167L13.6775 7.92454C13.6207 7.89072 13.5845 7.81948 13.5845 7.71925C13.5833 7.51397 13.727 7.26522 13.9057 7.16257C13.9963 7.11065 14.0772 7.10582 14.1351 7.13963L14.3259 7.25072C14.3295 7.25193 14.3332 7.25435 14.3368 7.25676C14.3947 7.28937 14.4298 7.36182 14.431 7.46325Z" fill="#DF3260"/>
<path d="M14.136 7.13939C14.0773 7.10534 13.996 7.11029 13.9062 7.16233C13.7274 7.26546 13.5839 7.51397 13.5845 7.71925C13.5848 7.82008 13.6205 7.89097 13.6781 7.92454L13.8792 8.04143C13.8216 8.00798 13.786 7.93697 13.7858 7.83626C13.7852 7.63098 13.9287 7.38223 14.1073 7.27922C14.1973 7.2273 14.2786 7.22235 14.3371 7.2564L14.136 7.13939Z" fill="#DF3260"/>
<path d="M14.1073 7.2791C14.2859 7.17598 14.4305 7.25833 14.431 7.46361C14.4316 7.66684 14.288 7.91548 14.1094 8.01872C13.9307 8.12185 13.7863 8.03949 13.7856 7.83638C13.785 7.63098 13.9286 7.38222 14.1073 7.2791Z" fill="#F45170"/>
<path d="M12.5874 7.5031V7.65284L10.5889 8.80725C10.4862 8.86642 10.3957 8.8628 10.3365 8.81087C10.3438 8.81691 10.351 8.82416 10.3594 8.82899L10.0346 8.64182C9.97666 8.60801 9.94043 8.53555 9.94043 8.43412C9.94043 8.3351 9.97424 8.22159 10.0346 8.11653C10.0962 8.01027 10.1771 7.92574 10.2628 7.87502L12.2625 6.72182L12.5862 6.90899V7.05872L10.5877 8.21314C10.5358 8.24333 10.4874 8.29404 10.4512 8.35684C10.45 8.35925 10.4488 8.36167 10.4476 8.36287L12.2638 7.31472L12.5874 7.5031Z" fill="#1D2943"/>
<path d="M12.2633 7.31483L10.2645 8.46889C10.2109 8.49992 10.1622 8.5027 10.127 8.48217L10.4508 8.67055C10.486 8.69096 10.5347 8.68806 10.5884 8.65714L12.5872 7.50309L12.2633 7.31483Z" fill="#1D2943"/>
<path d="M12.2617 6.72121L10.263 7.87538C10.1764 7.92525 10.0955 8.01087 10.0344 8.11629C9.97364 8.22195 9.94019 8.33485 9.94043 8.43387C9.94067 8.53579 9.97678 8.6074 10.035 8.64121L10.3587 8.82946C10.3006 8.79565 10.2645 8.72392 10.2642 8.62213C10.2639 8.52311 10.2974 8.4102 10.3582 8.30454C10.4193 8.199 10.5001 8.11351 10.5867 8.06352L12.5856 6.90946L12.2617 6.72121Z" fill="#1D2943"/>
<path d="M12.5856 6.90959L12.5859 7.05921L10.5872 8.21314C10.5355 8.24296 10.4872 8.29416 10.4507 8.3572C10.4144 8.42023 10.3943 8.48761 10.3945 8.5469C10.3948 8.66923 10.4819 8.71862 10.5884 8.65715L12.5872 7.5031L12.5876 7.65308L10.5889 8.80713C10.4105 8.91001 10.2648 8.82705 10.2642 8.62213C10.2639 8.52311 10.2974 8.41021 10.3582 8.30455C10.4193 8.19901 10.5001 8.11351 10.5867 8.06352L12.5856 6.90959Z" fill="#4C5C75"/>
</svg>
