<svg width="32" height="32" viewBox="0 0 32 32" fill="none" xmlns="http://www.w3.org/2000/svg">
<path d="M15.6583 11.2316L15.6538 12.8751L5.48633 18.7837L5.49092 17.1403L15.6583 11.2316Z" fill="#9EA9C9"/>
<path d="M13.3903 5.11733C13.4995 5.05224 13.6533 5.06117 13.8217 5.15874C14.1573 5.35231 14.4279 5.82386 14.4279 6.20967C14.4263 6.40034 14.3598 6.53487 14.2504 6.5985L14.901 6.21897C15.0104 6.15533 15.0785 6.02093 15.0785 5.83014C15.08 5.44433 14.808 4.97435 14.4723 4.78078C14.3039 4.68309 14.1516 4.67428 14.0408 4.73779L13.3903 5.11733Z" fill="#111D33"/>
<path d="M13.8217 5.15888C13.4858 4.96495 13.2131 5.12145 13.2119 5.50738C13.211 5.89247 13.4818 6.36172 13.8177 6.55553C14.1538 6.74958 14.4263 6.59417 14.4276 6.20921C14.4286 5.82315 14.1577 5.35281 13.8217 5.15888Z" fill="#1D2943"/>
<path d="M15.4666 5.10876C15.378 5.11118 15.291 5.17373 15.2283 5.29388C15.1033 5.53273 15.12 5.9107 15.2638 6.13735C15.3358 6.24893 15.4249 6.30315 15.5129 6.29977L14.5512 6.33334C14.4632 6.33672 14.3731 6.28298 14.3021 6.17092C14.1575 5.94475 14.1421 5.56715 14.2671 5.3283C14.3299 5.20827 14.416 5.14632 14.505 5.14233L15.4666 5.10876Z" fill="#4C5C75"/>
<path d="M15.2289 5.29391C15.354 5.05482 15.5726 5.04516 15.7171 5.27157C15.8612 5.49738 15.8769 5.87414 15.7517 6.11335C15.6265 6.35245 15.4084 6.36283 15.2642 6.13702C15.1198 5.91049 15.1037 5.53325 15.2289 5.29391Z" fill="#111D33"/>
<path d="M27.0678 4.76825C26.9933 4.7703 26.9201 4.82295 26.8674 4.92402C26.7623 5.12484 26.7763 5.44266 26.8972 5.63334C26.9577 5.72716 27.0328 5.77281 27.1067 5.76991L15.5698 6.19774C15.4958 6.20064 15.4201 6.15548 15.3603 6.06129C15.2386 5.87098 15.2258 5.5534 15.3308 5.35246C15.3836 5.25151 15.456 5.19934 15.5308 5.19608L27.0677 4.76825H27.0678Z" fill="#4C5C75"/>
<path d="M26.8673 4.92401C26.9726 4.72283 27.1565 4.71462 27.278 4.90517C27.3992 5.09512 27.4124 5.41198 27.307 5.61316C27.2018 5.81433 27.0184 5.82303 26.8971 5.63308C26.7755 5.44253 26.7621 5.12519 26.8673 4.92401Z" fill="#111D33"/>
<path d="M30.6878 6.23639L24.8541 6.17722C24.7201 6.18205 24.5824 6.09994 24.475 5.92967C24.254 5.58552 24.2311 5.00952 24.4206 4.64605C24.5172 4.46371 24.6477 4.36831 24.7829 4.36228L30.59 3.84424C30.4547 3.84786 30.3642 4.23186 30.2676 4.4142C30.078 4.77888 30.1034 5.35367 30.3219 5.69903C30.4306 5.86809 30.555 6.23639 30.6878 6.23639Z" fill="#FFD06C"/>
<path d="M31.1926 5.86204C30.9402 6.34264 30.5018 6.36317 30.212 5.90913C29.9222 5.45388 29.8896 4.69554 30.1408 4.21494C30.3932 3.73434 30.8315 3.71502 31.1225 4.17026C31.4123 4.6243 31.4437 5.38143 31.1926 5.86204Z" fill="#F9A83D"/>
<path d="M15.366 26.1728L15.3628 27.2782C15.3622 27.5031 15.2143 27.7277 14.9192 27.8993C14.3242 28.245 13.3572 28.2453 12.7589 27.8998C12.4577 27.7259 12.3075 27.498 12.3081 27.2703L12.3112 26.1649C12.3106 26.3925 12.4609 26.6205 12.762 26.7944C13.3604 27.1399 14.3274 27.1397 14.9223 26.7938C15.2174 26.6223 15.3654 26.3977 15.366 26.1728Z" fill="#1D2943"/>
<path d="M14.9156 25.2843C15.5139 25.6296 15.5166 26.1899 14.9226 26.535C14.3276 26.8809 13.3606 26.8811 12.7623 26.5356C12.1634 26.1899 12.1612 25.63 12.7563 25.2843C13.3501 24.939 14.3168 24.9385 14.9156 25.2843Z" fill="#4C5C75"/>
<path d="M26.7895 19.5805L26.794 20.6871C26.7934 20.9121 26.6455 21.1367 26.3503 21.3081C25.7554 21.6539 24.7884 21.6542 24.19 21.3087C23.8889 21.1348 23.7387 20.9069 23.7393 20.6792L23.7424 19.5737C23.7418 19.8015 23.8921 20.0295 24.1932 20.2032C24.7915 20.5487 25.7585 20.5486 26.3535 20.2027C26.6487 20.0313 26.789 19.8055 26.7895 19.5805Z" fill="#1D2943"/>
<path d="M26.3463 18.6931C26.9388 19.0386 26.9418 19.5987 26.3533 19.944C25.7598 20.2921 24.7913 20.2899 24.193 19.9445C23.594 19.5987 23.5919 19.0388 24.1869 18.6931C24.7808 18.348 25.7474 18.3474 26.3463 18.6931Z" fill="#4C5C75"/>
<path d="M3.69557 19.4338L3.69243 20.5391C3.69183 20.7641 3.5439 20.9887 3.24878 21.1602C2.65382 21.506 1.68681 21.5063 1.08847 21.1608C0.787312 20.9869 0.637093 20.7589 0.637697 20.5313L0.640837 19.4259C0.640112 19.6535 0.790452 19.8815 1.09149 20.0554C1.68995 20.4008 2.65696 20.4005 3.25192 20.0548C3.54704 19.8833 3.69497 19.6587 3.69557 19.4338Z" fill="#1D2943"/>
<path d="M3.24521 18.5452C3.84355 18.8906 3.84621 19.4508 3.25221 19.796C2.65725 20.1418 1.69025 20.142 1.09191 19.7965C0.492968 19.4508 0.490794 18.8909 1.08575 18.5453C1.67987 18.1999 2.64627 18.1994 3.24521 18.5453V18.5452Z" fill="#4C5C75"/>
<path d="M26.4249 18.3861L14.6665 25.2192C14.1685 25.5086 13.3579 25.5086 12.8564 25.219L1.02085 18.3858C0.768475 18.2401 0.642286 18.0487 0.64289 17.8578L0.637697 19.6802C0.637094 19.8713 0.763282 20.0625 1.01566 20.2083L12.8511 27.0414C13.3527 27.3311 14.1632 27.3311 14.6612 27.0417L26.4196 20.2084C26.6671 20.0646 26.7911 19.8763 26.7916 19.6877L26.7945 17.8644C26.7939 18.053 26.6724 18.2422 26.4249 18.3861Z" fill="#4C5C75"/>
<path d="M26.4192 17.3373C26.9208 17.6269 26.9234 18.0964 26.4252 18.386L14.6667 25.2193C14.1687 25.5086 13.3581 25.5086 12.8566 25.219L1.02107 18.3859C0.519451 18.0963 0.516795 17.6268 1.01479 17.3374L12.7732 10.5041C13.2715 10.2145 14.0821 10.2145 14.5838 10.5041L26.4192 17.3373Z" fill="#F3F1FC"/>
<path d="M26.7968 17.0278L26.792 18.85C26.7908 19.0384 26.6676 19.2268 26.42 19.3705L14.6609 26.204C14.1634 26.4926 13.3532 26.4926 12.8508 26.204L1.01566 19.3705C0.76328 19.2244 0.637695 19.0336 0.637695 18.8428L0.642525 17.0194C0.643733 16.831 0.76811 16.6426 1.01445 16.4989L12.7735 9.66664C13.2711 9.37683 14.0813 9.37683 14.5837 9.66664L26.4188 16.4989C26.6869 16.6547 26.8113 16.8612 26.7932 17.0641C26.7944 17.052 26.7968 17.0399 26.7968 17.0278Z" fill="#DEDFFB"/>
<path d="M26.4249 17.5481L14.6665 24.3813C14.1685 24.6708 13.3579 24.6708 12.8564 24.3811L1.02085 17.5481C0.768475 17.4022 0.642286 17.2109 0.64289 17.0199L0.637697 18.8423C0.637094 19.0334 0.763282 19.2248 1.01566 19.3705L12.8511 26.2037C13.3527 26.4932 14.1632 26.4932 14.6612 26.2039L26.4196 19.3706C26.6671 19.2267 26.7911 19.0386 26.7916 18.8499L26.7968 17.0274C26.7963 17.216 26.6724 17.4041 26.4249 17.5481Z" fill="#DEDFFB"/>
<path d="M26.4192 16.4995C26.9208 16.789 26.9234 17.2585 26.4252 17.5482L14.6667 24.3814C14.1687 24.6708 13.3581 24.6708 12.8566 24.3811L1.02107 17.5481C0.519451 17.2584 0.516795 16.7889 1.01479 16.4995L12.7732 9.6663C13.2715 9.37661 14.0821 9.37661 14.5838 9.6663L26.4192 16.4995Z" fill="#F3F1FC"/>
<path d="M25.154 11.235L14.0087 4.80024C13.7591 4.65618 13.5329 4.64266 13.3698 4.73757L11.748 5.68006C11.9112 5.58515 12.1372 5.59867 12.3868 5.74285L23.5323 12.1775C24.028 12.4637 24.4287 13.1576 24.427 13.7275L24.4204 18.0658L26.0421 17.1233L26.0489 12.785C26.0506 12.2151 25.6497 11.5212 25.1541 11.235H25.154Z" fill="#B0B8CF"/>
<path d="M23.5324 12.1775C24.0281 12.4637 24.4289 13.1575 24.4272 13.7275L24.4205 18.0657L11.4795 10.5942L11.4863 6.25604C11.4878 5.68608 11.891 5.45628 12.3871 5.74283L23.5324 12.1775Z" fill="#C9CEE2"/>
<path d="M23.1702 12.4027L12.93 6.49058C12.7006 6.35799 12.4929 6.34567 12.3429 6.43286L12.0615 6.59648C12.2114 6.50929 12.4191 6.52161 12.6484 6.65408L22.8888 12.5662C23.3442 12.8292 23.7125 13.4667 23.7111 13.9905L23.7049 17.9764L23.9863 17.8128L23.9925 13.8269C23.994 13.3032 23.6257 12.6656 23.1702 12.4027Z" fill="#9EA9C9"/>
<path d="M22.8885 12.5662C23.344 12.8292 23.7123 13.4667 23.7108 13.9905L23.7047 17.9764L11.8145 11.1115L11.8205 7.12562C11.8221 6.60191 12.1924 6.39083 12.6483 6.65407L22.8885 12.5662Z" fill="#B0B8CF"/>
<path d="M22.3674 10.0271L22.3668 10.5659C22.3667 10.6263 22.327 10.6865 22.248 10.7323C22.0887 10.8248 21.8297 10.8248 21.6693 10.7323C21.5888 10.6859 21.5486 10.6249 21.5488 10.5639L21.5493 10.0251C21.5492 10.0861 21.5894 10.147 21.6701 10.1935C21.8302 10.2862 22.0893 10.286 22.2485 10.1935C22.3276 10.1477 22.3672 10.0874 22.3674 10.0271Z" fill="#4C5C75"/>
<path d="M22.5779 9.86106L22.5767 10.105C22.5767 10.1968 22.5163 10.2897 22.3956 10.3598C22.1516 10.5011 21.7556 10.5011 21.5104 10.3598C21.3873 10.2885 21.3257 10.1956 21.3257 10.1014L21.3269 9.87555V9.86106C21.3269 9.86408 21.3274 9.86674 21.3275 9.86951C21.323 9.77375 21.3826 9.67727 21.508 9.60385C21.7519 9.46257 22.148 9.46136 22.3932 9.60385C22.5163 9.6751 22.5779 9.76808 22.5779 9.86106Z" fill="#1D2943"/>
<path d="M22.5775 9.86154L22.5767 10.105C22.5765 10.1971 22.5158 10.2893 22.3948 10.3595C22.1513 10.5011 21.7548 10.5011 21.5097 10.3595C21.3864 10.2883 21.325 10.1951 21.3252 10.1018L21.326 9.8584C21.3258 9.95162 21.3873 10.045 21.5106 10.1161C21.7557 10.2576 22.1521 10.2576 22.3957 10.1161C22.5167 10.0458 22.5773 9.95367 22.5775 9.86154Z" fill="#1D2943"/>
<path d="M22.3929 9.6034C22.638 9.74492 22.6393 9.9746 22.3958 10.1161C22.1522 10.2576 21.7558 10.2576 21.5106 10.1161C21.2655 9.9746 21.2647 9.74528 21.5082 9.60364C21.7518 9.46212 22.1477 9.46187 22.3929 9.6034ZM25.2819 14.6159L25.5056 14.486C25.5356 14.4685 25.5727 14.4664 25.6126 14.4772L25.3889 14.6071C25.3491 14.5964 25.312 14.5985 25.2819 14.6159ZM26.5365 16.3847L26.7601 16.2548L26.7652 16.2595L26.5415 16.3895L26.5365 16.3847Z" fill="#4C5C75"/>
<path d="M25.3896 14.4215L25.6133 14.2914L25.746 14.3681L25.5224 14.4981L25.3896 14.4215Z" fill="#4C5C75"/>
<path d="M25.5225 14.498L25.7461 14.3681L25.7456 14.5525L25.522 14.6825L25.5225 14.498Z" fill="#111D33"/>
<path d="M26.7651 16.2595L26.5415 16.3895C26.7278 16.5629 26.7609 16.8487 26.6419 16.9179L26.8655 16.7879C26.9846 16.7188 26.9513 16.4329 26.7651 16.2595Z" fill="#4C5C75"/>
<path d="M26.5423 16.3891C26.7693 16.6016 26.7681 16.9808 26.5398 16.9289L26.535 16.9277C26.3817 16.8914 26.2271 16.825 26.0749 16.7393C25.9204 16.6499 25.7658 16.5364 25.6137 16.3988L25.5823 16.3674C25.5001 16.2913 25.4204 16.208 25.3407 16.1114C25.3178 16.0836 25.2973 16.051 25.2792 16.0172C25.2586 15.9773 25.2429 15.9375 25.2333 15.8976C25.2297 15.8783 25.2248 15.859 25.22 15.8385L25.2188 15.83C25.1753 15.6175 25.1548 15.4182 25.1548 15.2298C25.1548 15.0439 25.1753 14.8676 25.22 14.7058L25.2212 14.7009C25.2478 14.6128 25.3142 14.5862 25.389 14.6068L25.3903 14.422L25.5219 14.4981V14.6828L25.7453 14.5524C25.8226 14.6188 25.8914 14.7227 25.918 14.8446L25.9192 14.8519C25.9626 15.0632 25.9844 15.2637 25.9844 15.4496C25.982 15.5197 25.9783 15.5873 25.9711 15.6537C25.9687 15.7008 26.0013 15.7624 26.0435 15.7865C26.0472 15.7889 26.052 15.7901 26.0556 15.7914C26.1317 15.8228 26.2078 15.8602 26.2838 15.9037C26.2887 15.9073 26.2947 15.9097 26.3007 15.9133C26.4517 16.0015 26.6075 16.1162 26.7608 16.2551L26.5362 16.3843L26.5423 16.3891Z" fill="#1D2943"/>
<path d="M26.3002 15.9133L26.2838 15.9036C26.2103 15.8614 26.134 15.824 26.0556 15.7918C26.0515 15.7902 26.0475 15.7883 26.0436 15.7861C26.0019 15.762 25.9684 15.7014 25.9718 15.6537C25.9781 15.5868 25.9818 15.5201 25.984 15.4492C25.9846 15.2635 25.9627 15.0627 25.9197 14.8514L25.9183 14.8446C25.8912 14.7223 25.823 14.6182 25.7456 14.5525L25.522 14.6825C25.5994 14.7482 25.6676 14.8523 25.6947 14.9745L25.6961 14.9813C25.7391 15.1926 25.7609 15.3934 25.7603 15.579C25.7582 15.6502 25.7543 15.7167 25.7481 15.7837C25.7448 15.8313 25.7783 15.8919 25.82 15.9161C25.8238 15.9183 25.8278 15.9202 25.832 15.9218C25.9163 15.9565 25.998 15.997 26.0766 16.0432C26.2285 16.131 26.3834 16.2461 26.5367 16.3847L26.7604 16.2548C26.6071 16.1161 26.4521 16.0011 26.3004 15.9133H26.3002Z" fill="#4C5C75"/>
<path d="M25.5221 14.4981L25.5216 14.6826C25.5991 14.7483 25.6673 14.8524 25.6943 14.9746L25.6958 14.9813C25.7388 15.1926 25.7606 15.3935 25.76 15.5791C25.7581 15.6474 25.754 15.7157 25.7478 15.7837C25.7444 15.8313 25.778 15.8919 25.8197 15.9161C25.8235 15.9183 25.8275 15.9203 25.8316 15.9219C25.9159 15.9565 25.9977 15.9971 26.0763 16.0432C26.2282 16.131 26.3831 16.2461 26.5363 16.3847L26.5415 16.3894C26.7692 16.6014 26.7681 16.9814 26.54 16.9284L26.5349 16.9278C26.3813 16.8915 26.2263 16.8253 26.0743 16.7388C25.9198 16.6496 25.7655 16.5359 25.6137 16.3983C25.603 16.3874 25.5924 16.3783 25.5818 16.3675C25.496 16.2877 25.4155 16.2023 25.341 16.112C25.3171 16.0826 25.2964 16.0508 25.2794 16.0169C25.259 15.9791 25.2436 15.9389 25.2335 15.8971C25.2295 15.8779 25.2246 15.8587 25.22 15.8381L25.2181 15.8305C25.1751 15.6173 25.1543 15.4183 25.1548 15.2297C25.1543 15.0435 25.1751 14.8672 25.2192 14.7061L25.2212 14.7015C25.2478 14.6125 25.3133 14.5868 25.3889 14.6071L25.3894 14.4215L25.5221 14.4981Z" fill="#1D2943"/>
<path d="M25.6791 14.1132C25.6557 14.0992 25.6228 14.1011 25.5867 14.122C25.5148 14.1634 25.4568 14.2645 25.4568 14.3471C25.4572 14.3879 25.4715 14.4168 25.4949 14.4304L25.1298 14.2174C25.1064 14.2037 25.0918 14.175 25.0918 14.1341C25.0916 14.0515 25.1498 13.9509 25.2216 13.9095C25.2578 13.8885 25.2904 13.8865 25.3141 13.9002L25.6791 14.1132Z" fill="#4C5C75"/>
<path d="M25.5868 14.122C25.6587 14.0805 25.7173 14.114 25.7174 14.1966C25.7176 14.2791 25.6595 14.3796 25.5877 14.4212C25.5157 14.4628 25.4573 14.4295 25.457 14.347C25.4568 14.2643 25.5149 14.1636 25.5868 14.122Z" fill="#111D33"/>
<path d="M25.5239 13.9411L25.7476 13.8112L25.7471 14.3703L25.5234 14.5002L25.5239 13.9411Z" fill="#111D33"/>
<path d="M26.8753 13.2748L26.6519 13.404C26.6254 13.4197 26.5915 13.4246 26.5505 13.4149H26.5445C26.3911 13.3762 26.2365 13.3122 26.0844 13.2241C26.0795 13.2217 26.0735 13.2181 26.0687 13.2156C26.0421 13.1999 26.0155 13.183 25.989 13.1661C25.9902 13.1746 25.9902 13.1842 25.9902 13.1927C25.989 13.3775 25.9672 13.5526 25.9226 13.7144L25.9214 13.7192C25.9081 13.7602 25.8875 13.788 25.8598 13.8037L25.6497 13.9257C25.646 13.9293 25.6424 13.9317 25.6376 13.9329C25.6062 13.9522 25.5663 13.9535 25.5241 13.9414L25.5229 14.5005L25.39 14.4232L25.3912 13.8629C25.3065 13.7873 25.2482 13.6866 25.2246 13.5755L25.2222 13.5695C25.1799 13.3569 25.1594 13.1577 25.1618 12.9729C25.1618 12.7833 25.1835 12.6095 25.2282 12.4464L25.2294 12.4416C25.2343 12.4259 25.2391 12.4126 25.2439 12.3981C25.2536 12.3692 25.2681 12.3474 25.2886 12.3305C25.2934 12.3269 25.2983 12.3245 25.3031 12.3221L25.5217 12.1953C25.5386 12.1856 25.5555 12.1784 25.576 12.1784C25.6557 12.1723 25.7354 12.182 25.8163 12.2013C25.8272 12.2025 25.838 12.2049 25.8489 12.2073C26.0011 12.2448 26.1556 12.31 26.3102 12.3993C26.4623 12.4875 26.6169 12.601 26.7703 12.7411L26.7751 12.7459C26.9611 12.9186 26.9949 13.2048 26.8753 13.2748Z" fill="#1D2943"/>
<path d="M26.0004 12.9199L25.7768 13.0499C25.7623 13.0584 25.7538 13.0774 25.7554 13.1043C25.7612 13.1776 25.7646 13.249 25.7664 13.3222C25.7659 13.5078 25.7431 13.6825 25.699 13.8442L25.6974 13.849C25.6848 13.8906 25.6634 13.9185 25.6366 13.9341L25.8602 13.8042C25.887 13.7885 25.9084 13.7607 25.9211 13.719L25.9226 13.7142C25.9667 13.5524 25.9895 13.3779 25.99 13.1923C25.9884 13.1196 25.9847 13.0469 25.979 12.9744C25.9773 12.9473 25.9859 12.9285 26.0004 12.92V12.9199ZM26.775 12.746L26.77 12.7408C26.6291 12.6109 26.4749 12.4962 26.3099 12.3988C26.1553 12.3096 26.0008 12.2449 25.8487 12.2072C25.8381 12.2051 25.8275 12.2025 25.8169 12.201C25.7352 12.1824 25.655 12.1729 25.5754 12.1782C25.5564 12.1792 25.5381 12.1849 25.522 12.1949L25.2983 12.3248C25.3145 12.3148 25.3329 12.3091 25.3518 12.3082C25.4315 12.3028 25.5116 12.3124 25.5932 12.331C25.6038 12.3324 25.6145 12.3351 25.6251 12.3371C25.7773 12.3748 25.9318 12.4395 26.0863 12.5288C26.2513 12.6262 26.4055 12.7408 26.5463 12.8707L26.5514 12.8761C26.738 13.0487 26.7709 13.3348 26.6515 13.4042L26.8752 13.2743C26.9946 13.2049 26.9616 12.9186 26.775 12.746Z" fill="#4C5C75"/>
<path d="M26.0863 12.5288C26.2513 12.6262 26.4056 12.7408 26.5464 12.8708L26.5515 12.8761C26.7792 13.0868 26.7781 13.4668 26.55 13.415L26.5449 13.4144C26.3913 13.3758 26.2363 13.312 26.0843 13.2242C25.9996 13.1753 25.9179 13.1214 25.8397 13.0626C25.836 13.0598 25.8321 13.0572 25.828 13.0548C25.7861 13.0306 25.7523 13.0529 25.7555 13.1043C25.7612 13.1776 25.7646 13.249 25.7664 13.3223C25.766 13.5079 25.7431 13.6825 25.6991 13.8442L25.6975 13.849C25.6698 13.9398 25.6012 13.9649 25.5237 13.9411L25.5232 14.5002L25.3905 14.4235L25.391 13.8632C25.3069 13.7871 25.2486 13.6867 25.2244 13.5758L25.2224 13.569C25.1795 13.357 25.1596 13.1579 25.1612 12.9728C25.1618 12.7837 25.1836 12.6098 25.2276 12.4469L25.2297 12.4411C25.2343 12.4263 25.2393 12.4124 25.2436 12.3984C25.2532 12.369 25.2686 12.3469 25.2889 12.3307C25.3073 12.3174 25.3292 12.3096 25.3519 12.3082C25.4316 12.3028 25.5116 12.3124 25.5933 12.331C25.6039 12.3324 25.6145 12.3351 25.6252 12.3371C25.7773 12.3748 25.9319 12.4395 26.0863 12.5288Z" fill="#1D2943"/>
<path d="M25.7734 14.2418C25.7585 14.233 25.7378 14.2342 25.7149 14.2475C25.6695 14.2737 25.6328 14.3374 25.6328 14.3897C25.6332 14.4155 25.6421 14.4337 25.657 14.4423L25.5688 14.3909C25.5541 14.3824 25.5449 14.3641 25.5449 14.3383C25.5447 14.2861 25.5815 14.2224 25.6269 14.1963C25.6497 14.183 25.6704 14.1818 25.6854 14.1905L25.7734 14.2418Z" fill="#4C5C75"/>
<path d="M25.7148 14.2475C25.7603 14.2212 25.7973 14.2424 25.7974 14.2946C25.7975 14.3468 25.7608 14.4103 25.7153 14.4365C25.6699 14.4628 25.6331 14.4418 25.6328 14.3896C25.6328 14.3374 25.6693 14.2737 25.7148 14.2475Z" fill="#1D2943"/>
<path d="M28.8584 17.2506C28.8051 17.2189 28.6752 17.3452 28.5931 17.3928C28.4297 17.487 28.2978 17.7168 28.2978 17.9048C28.2985 17.9977 28.2551 18.1728 28.3083 18.2037L26.689 17.1088C26.6356 17.0779 26.6025 17.0123 26.6025 16.9195C26.6018 16.7314 26.7343 16.5025 26.8978 16.4082C26.9799 16.3606 27.054 16.3563 27.108 16.3873L28.8584 17.2506Z" fill="#DBA660"/>
<path d="M28.5926 17.284C28.8086 17.1594 28.9838 17.2598 28.9847 17.5081C28.9853 17.7557 28.8111 18.0573 28.5951 18.1819C28.3791 18.3065 28.2039 18.2068 28.2031 17.9594C28.2024 17.7111 28.3765 17.4087 28.5926 17.284Z" fill="#AA6256"/>
<path d="M13.2737 11.5107L13.2789 8.82404C13.2789 8.73348 13.2941 8.65559 13.3203 8.59051C13.0804 8.55838 12.9095 8.72635 12.909 9.03923L12.9038 11.7259L13.2737 11.5107Z" fill="#9EA9C9"/>
<path d="M22.991 17.166L13.2737 11.5107L12.7783 11.7988L22.9902 17.596L22.991 17.166Z" fill="#F3F1FC"/>
<path d="M22.9959 14.9102L22.9911 17.1659L13.2739 11.5109L13.2788 8.82412C13.2788 8.73356 13.2945 8.65506 13.321 8.59106C13.3923 8.60072 13.4695 8.62729 13.5517 8.67439L22.3571 13.8053C22.7109 14.0093 22.9959 14.5032 22.9959 14.9102Z" fill="white"/>
<path d="M6.17287 14.2161H6.18229L5.54084 13.8458L4.50537 14.4475L6.17287 15.4101V14.2161Z" fill="#4C5C75"/>
<path d="M6.17307 15.4101L4.50557 14.4474L4.50146 16.0734L6.17307 17.0385V15.4101Z" fill="#1D2943"/>
<path d="M5.67055 17.0542L5.66596 18.6547L3.24072 17.2544L3.24531 15.6541L3.72507 15.9309L3.72422 16.2047L4.09711 16.42L4.09784 16.1462L5.67055 17.0542Z" fill="#E3E7F0"/>
<path d="M5.98479 17.0714L5.97996 18.902L5.61528 19.1145L2.77393 17.4747L2.77996 15.6428L3.14464 15.4303L5.98479 17.0714Z" fill="#1D2943"/>
<path d="M15.6662 11.2455L15.6583 11.2411V11.2317L15.6503 11.2364L14.0935 10.3376L13.8568 10.4751L13.7199 10.396L13.7207 10.1223L13.241 9.8454L3.24561 15.6541L3.72536 15.931L3.72452 16.2047L4.09741 16.42L4.33409 16.2825L5.6549 17.045L5.49092 17.1403L5.48633 18.7838L15.6538 12.8751L15.6583 11.2501L15.6662 11.2455Z" fill="#9EA9C9"/>
<path d="M3.72545 15.9309L13.7208 10.1223L13.72 10.396L3.72461 16.2047L3.72545 15.9309Z" fill="#9EA9C9"/>
<path d="M3.24561 15.6541L13.241 9.8454L13.7207 10.1223L3.72536 15.931L3.24561 15.6541Z" fill="#C9CEE2"/>
<path d="M3.72461 16.2047L13.72 10.396L14.0929 10.6113L4.0975 16.42L3.72461 16.2047Z" fill="#B0B8CF"/>
<path d="M4.09814 16.1462L14.0935 10.3376L15.6662 11.2455L5.67085 17.0542L4.09814 16.1462Z" fill="#C9CEE2"/>
<path d="M13.8323 11.4141C13.9325 11.4721 13.9832 11.5481 13.9836 11.624C13.9841 11.6998 13.9343 11.7758 13.8348 11.8336L6.65619 15.9777C6.45695 16.0935 6.13272 16.0935 5.9319 15.9775C5.73133 15.8616 5.73024 15.674 5.92949 15.5582L13.108 11.4141C13.3074 11.2982 13.6316 11.2982 13.8323 11.4141Z" fill="#9EA9C9"/>
<path d="M16.2866 5.72401V6.00174L15.7492 6.3145C15.5548 6.4268 15.2385 6.42801 15.0428 6.3145C14.945 6.25774 14.8955 6.18288 14.8955 6.10801L14.8967 5.83389C14.8955 5.75903 14.9438 5.68416 15.0416 5.6274L15.579 5.31586L16.2866 5.72401Z" fill="#1D2943"/>
<path d="M15.7495 6.03688C15.5552 6.14979 15.2394 6.15003 15.0438 6.03712C14.9454 5.98037 14.8961 5.9055 14.8964 5.83087L14.8955 6.10837C14.8953 6.18299 14.9445 6.25762 15.0431 6.3145C15.2387 6.4274 15.5543 6.42728 15.7486 6.31438L16.2861 6.00198L16.287 5.72461L15.7495 6.03688Z" fill="#1D2943"/>
<path d="M16.2867 5.72461L15.7492 6.03688C15.5549 6.14979 15.2391 6.15003 15.0435 6.03712C14.8479 5.92422 14.8467 5.74091 15.0408 5.628L15.5783 5.31561L16.2867 5.72461Z" fill="#9EA9C9"/>
<path d="M16.2868 6.00226V6.11504L16.189 6.05925L16.2868 6.00226Z" fill="#1D2943"/>
<path d="M15.6178 20.7522C15.6124 20.7522 15.6072 20.7508 15.6026 20.7481L13.6269 19.6C13.6223 19.5973 13.6185 19.5935 13.6159 19.5889C13.6132 19.5843 13.6118 19.5791 13.6118 19.5738C13.6118 19.5685 13.6132 19.5633 13.6159 19.5587C13.6185 19.5541 13.6223 19.5503 13.6269 19.5477L15.6157 18.3996C15.6203 18.3969 15.6255 18.3955 15.6308 18.3955C15.6361 18.3955 15.6413 18.3969 15.6459 18.3996L17.6217 19.5478C17.6263 19.5505 17.63 19.5543 17.6327 19.5589C17.6353 19.5635 17.6367 19.5686 17.6366 19.5739C17.6366 19.5792 17.6352 19.5844 17.6326 19.589C17.63 19.5935 17.6262 19.5973 17.6216 19.6L15.6329 20.7481C15.6283 20.7508 15.6231 20.7522 15.6178 20.7522ZM13.7024 19.5739L15.6178 20.6871L17.5462 19.5738L15.6308 18.4607L13.7024 19.5739Z" fill="#B0B8CF"/>
<path d="M13.6421 19.6039C13.6368 19.604 13.6315 19.6026 13.6269 19.6L11.6513 18.4518C11.6467 18.4492 11.6429 18.4454 11.6403 18.4408C11.6376 18.4362 11.6362 18.431 11.6362 18.4257C11.6362 18.4204 11.6376 18.4152 11.6403 18.4106C11.6429 18.406 11.6467 18.4022 11.6513 18.3995L13.6399 17.2514C13.6445 17.2487 13.6497 17.2473 13.6551 17.2473C13.6604 17.2473 13.6656 17.2487 13.6702 17.2514L15.646 18.3995C15.6506 18.4022 15.6544 18.406 15.657 18.4106C15.6597 18.4152 15.6611 18.4204 15.661 18.4257C15.661 18.431 15.6596 18.4362 15.657 18.4408C15.6543 18.4454 15.6505 18.4492 15.6459 18.4518L13.6571 19.6C13.6525 19.6026 13.6473 19.6039 13.6421 19.6039ZM11.7268 18.4257L13.642 19.5388L15.5704 18.4256L13.655 17.3124L11.7268 18.4257ZM21.5707 19.6041C21.5654 19.604 21.5601 19.6026 21.5555 19.6L19.58 18.4518C19.5754 18.4492 19.5716 18.4454 19.5689 18.4408C19.5663 18.4362 19.5649 18.431 19.5649 18.4257C19.5649 18.4204 19.5663 18.4152 19.5689 18.4106C19.5716 18.406 19.5754 18.4022 19.58 18.3995L21.5685 17.2514C21.5731 17.2487 21.5784 17.2473 21.5837 17.2473C21.589 17.2473 21.5943 17.2487 21.5989 17.2514L23.5746 18.3996C23.5792 18.4023 23.583 18.4061 23.5856 18.4107C23.5882 18.4153 23.5896 18.4205 23.5896 18.4258C23.5896 18.431 23.5882 18.4362 23.5855 18.4408C23.5829 18.4454 23.5791 18.4492 23.5745 18.4518L21.5858 19.6C21.5812 19.6026 21.576 19.604 21.5707 19.6041ZM19.6554 18.4257L21.5707 19.539L23.4992 18.4256L21.5836 17.3125L19.6554 18.4257ZM15.605 23.0485C15.5996 23.0484 15.5944 23.047 15.5897 23.0444L13.6139 21.8962C13.6094 21.8936 13.6056 21.8897 13.6029 21.8851C13.6003 21.8806 13.5989 21.8753 13.5989 21.87C13.5989 21.8647 13.6003 21.8595 13.603 21.855C13.6057 21.8504 13.6095 21.8466 13.6141 21.8439L15.6027 20.6958C15.6073 20.6931 15.6125 20.6917 15.6178 20.6917C15.6231 20.6917 15.6284 20.6931 15.633 20.6958L17.6086 21.8441C17.6132 21.8467 17.617 21.8505 17.6196 21.8551C17.6222 21.8597 17.6236 21.8649 17.6236 21.8701C17.6236 21.8754 17.6222 21.8806 17.6196 21.8852C17.617 21.8898 17.6132 21.8936 17.6086 21.8962L15.62 23.0444C15.6155 23.047 15.6103 23.0484 15.605 23.0485ZM13.6894 21.8701L15.605 22.9834L17.5332 21.87L15.6178 20.7569L13.6894 21.8701Z" fill="#B0B8CF"/>
<path d="M17.5933 21.9003C17.588 21.9003 17.5828 21.8989 17.5782 21.8962L15.6024 20.7481C15.5979 20.7454 15.5941 20.7416 15.5914 20.737C15.5888 20.7324 15.5874 20.7272 15.5874 20.7219C15.5874 20.7166 15.5888 20.7114 15.5915 20.7068C15.5941 20.7023 15.598 20.6985 15.6026 20.6958L17.5913 19.5478C17.5959 19.5452 17.6011 19.5438 17.6064 19.5438C17.6117 19.5438 17.6169 19.5452 17.6215 19.5478L19.5972 20.6958C19.6018 20.6985 19.6056 20.7023 19.6083 20.7069C19.6109 20.7115 19.6123 20.7167 19.6123 20.722C19.6123 20.7273 19.6109 20.7325 19.6083 20.7371C19.6056 20.7416 19.6018 20.7455 19.5972 20.7481L17.6084 21.8962C17.6038 21.8989 17.5986 21.9003 17.5933 21.9003ZM15.6779 20.722L17.5933 21.8353L19.5218 20.7219L17.6064 19.6088L15.6779 20.722Z" fill="#B0B8CF"/>
<path d="M19.5819 20.7522C19.5766 20.7522 19.5714 20.7508 19.5667 20.7481L17.5911 19.6C17.5865 19.5973 17.5827 19.5935 17.5801 19.5889C17.5775 19.5844 17.5761 19.5792 17.5761 19.5739C17.5761 19.5686 17.5775 19.5634 17.5801 19.5589C17.5827 19.5543 17.5865 19.5505 17.5911 19.5478L19.5799 18.3996C19.5845 18.3969 19.5897 18.3955 19.595 18.3955C19.6003 18.3955 19.6055 18.3969 19.6101 18.3996L21.5857 19.5478C21.5903 19.5505 21.5941 19.5543 21.5967 19.5589C21.5993 19.5635 21.6007 19.5687 21.6007 19.5739C21.6007 19.5792 21.5993 19.5844 21.5966 19.589C21.594 19.5935 21.5902 19.5973 21.5856 19.6L19.597 20.7481C19.5925 20.7508 19.5872 20.7522 19.5819 20.7522ZM17.6665 19.5739L19.5819 20.6871L21.5103 19.5738L19.595 18.4607L17.6665 19.574V19.5739ZM17.6192 17.3078C17.6139 17.3078 17.6086 17.3064 17.604 17.3037L15.6283 16.1556C15.6237 16.1529 15.6199 16.1491 15.6173 16.1445C15.6147 16.1399 15.6133 16.1347 15.6133 16.1294C15.6133 16.1241 15.6147 16.1189 15.6174 16.1143C15.62 16.1097 15.6238 16.1059 15.6284 16.1033L17.617 14.9552C17.6216 14.9525 17.6268 14.9511 17.6321 14.9511C17.6374 14.9511 17.6426 14.9525 17.6472 14.9552L19.623 16.1033C19.6276 16.1059 19.6314 16.1098 19.6341 16.1143C19.6367 16.1189 19.6381 16.1241 19.6381 16.1294C19.6381 16.1347 19.6367 16.1399 19.6341 16.1445C19.6314 16.1491 19.6276 16.1529 19.623 16.1556L17.6343 17.3037C17.6297 17.3064 17.6245 17.3078 17.6192 17.3078ZM15.7038 16.1295L17.6192 17.2427L19.5477 16.1294L17.6321 15.0163L15.7038 16.1295Z" fill="#B0B8CF"/>
<path d="M15.6305 18.4559C15.6252 18.4559 15.62 18.4545 15.6153 18.4518L13.6395 17.3037C13.635 17.301 13.6312 17.2972 13.6285 17.2926C13.6259 17.288 13.6245 17.2828 13.6245 17.2775C13.6245 17.2722 13.6259 17.267 13.6286 17.2624C13.6313 17.2578 13.6351 17.254 13.6397 17.2514L15.6284 16.1033C15.633 16.1006 15.6382 16.0992 15.6435 16.0992C15.6489 16.0992 15.6541 16.1006 15.6587 16.1033L17.6344 17.2514C17.6389 17.254 17.6428 17.2579 17.6454 17.2624C17.6481 17.267 17.6494 17.2722 17.6494 17.2775C17.6494 17.2828 17.6481 17.288 17.6454 17.2926C17.6428 17.2972 17.6389 17.301 17.6344 17.3037L15.6455 18.4518C15.641 18.4545 15.6358 18.4559 15.6305 18.4559ZM13.715 17.2776L15.6305 18.3907L17.559 17.2775L15.6435 16.1642L13.715 17.2776Z" fill="#B0B8CF"/>
<path d="M19.5949 18.4559C19.5896 18.4559 19.5843 18.4545 19.5797 18.4518L17.6039 17.3037C17.5993 17.301 17.5955 17.2972 17.5929 17.2926C17.5902 17.288 17.5889 17.2828 17.5889 17.2775C17.5889 17.2722 17.5903 17.267 17.5929 17.2624C17.5956 17.2578 17.5994 17.254 17.604 17.2514L19.5926 16.1033C19.5972 16.1006 19.6024 16.0992 19.6078 16.0992C19.6131 16.0992 19.6183 16.1006 19.6229 16.1033L21.5986 17.2514C21.6032 17.254 21.607 17.2579 21.6096 17.2624C21.6123 17.267 21.6137 17.2722 21.6137 17.2775C21.6137 17.2828 21.6123 17.288 21.6096 17.2926C21.607 17.2972 21.6032 17.301 21.5986 17.3037L19.61 18.4518C19.6054 18.4545 19.6002 18.4559 19.5949 18.4559ZM17.6794 17.2776L19.5949 18.3907L21.5231 17.2775L19.6077 16.1642L17.6794 17.2776Z" fill="#B0B8CF"/>
<path d="M17.6062 19.6041C17.6009 19.604 17.5956 19.6026 17.591 19.6L15.6153 18.4518C15.6107 18.4492 15.6069 18.4454 15.6043 18.4408C15.6016 18.4362 15.6002 18.431 15.6002 18.4257C15.6002 18.4204 15.6016 18.4152 15.6043 18.4106C15.6069 18.406 15.6107 18.4022 15.6153 18.3995L17.6041 17.2514C17.6087 17.2488 17.6139 17.2474 17.6192 17.2474C17.6245 17.2474 17.6297 17.2488 17.6343 17.2514L19.6101 18.3995C19.6147 18.4022 19.6185 18.406 19.6211 18.4106C19.6238 18.4152 19.6252 18.4204 19.6252 18.4257C19.6251 18.431 19.6237 18.4362 19.6211 18.4408C19.6184 18.4454 19.6146 18.4492 19.61 18.4518L17.6212 19.6C17.6166 19.6026 17.6115 19.604 17.6062 19.6041ZM15.6908 18.4257L17.6062 19.539L19.5347 18.4256L17.6191 17.3125L15.6908 18.4257ZM15.6435 16.1595C15.6381 16.1596 15.6329 16.1582 15.6282 16.1556L13.6526 15.0073C13.648 15.0046 13.6442 15.0008 13.6416 14.9963C13.639 14.9917 13.6376 14.9865 13.6376 14.9812C13.6376 14.9759 13.639 14.9708 13.6416 14.9662C13.6442 14.9616 13.648 14.9578 13.6526 14.9551L15.6412 13.807C15.6458 13.8043 15.651 13.8029 15.6563 13.8029C15.6616 13.8029 15.6669 13.8043 15.6715 13.807L17.6473 14.9551C17.6518 14.9578 17.6556 14.9616 17.6583 14.9662C17.6609 14.9708 17.6623 14.976 17.6623 14.9813C17.6623 14.9866 17.6609 14.9918 17.6582 14.9964C17.6556 15.001 17.6517 15.0048 17.6471 15.0074L15.6585 16.1556C15.654 16.1582 15.6487 16.1596 15.6435 16.1595ZM13.728 14.9813L15.6435 16.0945L17.5718 14.9812L15.6563 13.868L13.728 14.9813ZM13.6289 21.9002C13.6236 21.9002 13.6183 21.8989 13.6137 21.8962L11.6381 20.7481C11.6336 20.7455 11.6297 20.7416 11.6271 20.7371C11.6244 20.7325 11.623 20.7273 11.623 20.722C11.623 20.7167 11.6244 20.7115 11.6271 20.7069C11.6297 20.7023 11.6336 20.6985 11.6381 20.6958L13.6267 19.5477C13.6313 19.545 13.6365 19.5436 13.6418 19.5436C13.6471 19.5436 13.6523 19.545 13.6569 19.5477L15.6327 20.6958C15.6373 20.6985 15.6411 20.7023 15.6438 20.7069C15.6464 20.7115 15.6478 20.7167 15.6478 20.722C15.6478 20.7273 15.6464 20.7325 15.6438 20.7371C15.6411 20.7416 15.6373 20.7455 15.6327 20.7481L13.644 21.8962C13.6394 21.8989 13.6342 21.9002 13.6289 21.9002ZM11.7135 20.722L13.6289 21.8351L15.5574 20.7219L13.6418 19.6087L11.7135 20.722Z" fill="#B0B8CF"/>
<path d="M11.6403 23.0485C11.635 23.0485 11.6297 23.047 11.6251 23.0444L9.64931 21.8962C9.64473 21.8936 9.64092 21.8898 9.63829 21.8852C9.63565 21.8806 9.63427 21.8754 9.63428 21.8701C9.63429 21.8648 9.6357 21.8596 9.63836 21.855C9.64102 21.8504 9.64484 21.8466 9.64943 21.844L11.6383 20.6958C11.6429 20.6932 11.6481 20.6918 11.6534 20.6918C11.6587 20.6918 11.6639 20.6932 11.6684 20.6958L13.6441 21.844C13.6487 21.8466 13.6525 21.8504 13.6552 21.855C13.6578 21.8596 13.6592 21.8648 13.6592 21.8701C13.6592 21.8754 13.6578 21.8806 13.6552 21.8852C13.6525 21.8898 13.6487 21.8936 13.6441 21.8962L11.6553 23.0444C11.6507 23.047 11.6456 23.0484 11.6403 23.0485ZM9.72478 21.8702L11.6403 22.9833L13.5688 21.8699L11.6532 20.7568L9.72478 21.87V21.8702Z" fill="#B0B8CF"/>
<path d="M9.66499 21.9002C9.65966 21.9002 9.65442 21.8989 9.64978 21.8962L7.67411 20.748C7.66955 20.7453 7.66578 20.7415 7.66316 20.7369C7.66054 20.7323 7.65917 20.7271 7.65918 20.7219C7.65919 20.7166 7.66059 20.7114 7.66323 20.7068C7.66587 20.7023 7.66966 20.6985 7.67423 20.6958L9.66294 19.5477C9.66753 19.545 9.67273 19.5436 9.67803 19.5436C9.68333 19.5436 9.68854 19.545 9.69313 19.5477L11.6689 20.6958C11.6735 20.6985 11.6773 20.7023 11.68 20.7069C11.6826 20.7115 11.684 20.7167 11.684 20.722C11.684 20.7273 11.6826 20.7325 11.68 20.7371C11.6773 20.7416 11.6735 20.7455 11.6689 20.7481L9.68009 21.8962C9.67549 21.8989 9.67029 21.9002 9.66499 21.9002ZM7.74958 20.722L9.66499 21.8351L11.5934 20.7219L9.67803 19.6087L7.74958 20.722Z" fill="#B0B8CF"/>
<path d="M7.68908 20.7521C7.68374 20.7521 7.67849 20.7507 7.67387 20.748L5.6982 19.6C5.69361 19.5973 5.6898 19.5935 5.68715 19.5889C5.6845 19.5843 5.68311 19.5791 5.68311 19.5738C5.68311 19.5685 5.6845 19.5633 5.68715 19.5587C5.6898 19.5541 5.69361 19.5503 5.6982 19.5477L7.68703 18.3996C7.69162 18.3969 7.69682 18.3955 7.70212 18.3955C7.70742 18.3955 7.71263 18.3969 7.71722 18.3996L9.69301 19.5477C9.69759 19.5503 9.70139 19.5542 9.70403 19.5588C9.70667 19.5634 9.70805 19.5686 9.70804 19.5739C9.70803 19.5792 9.70662 19.5844 9.70396 19.589C9.7013 19.5935 9.69748 19.5973 9.69289 19.6L7.70418 20.748C7.69959 20.7507 7.69439 20.7521 7.68908 20.7521ZM5.77367 19.5739L7.68908 20.687L9.61753 19.5736L7.702 18.4605L5.77367 19.5739Z" fill="#B0B8CF"/>
<path d="M11.6534 20.7522C11.6481 20.7522 11.6428 20.7508 11.6382 20.7481L9.66255 19.6C9.65796 19.5973 9.65415 19.5935 9.65151 19.5889C9.64886 19.5843 9.64746 19.5791 9.64746 19.5738C9.64746 19.5685 9.64886 19.5633 9.65151 19.5587C9.65415 19.5541 9.65796 19.5503 9.66255 19.5477L11.6514 18.3996C11.656 18.3969 11.6612 18.3955 11.6665 18.3955C11.6718 18.3955 11.677 18.3969 11.6816 18.3996L13.6571 19.5477C13.6617 19.5503 13.6655 19.5541 13.6682 19.5587C13.6708 19.5633 13.6722 19.5685 13.6722 19.5738C13.6722 19.5791 13.6708 19.5843 13.6682 19.5889C13.6655 19.5935 13.6617 19.5973 13.6571 19.6L11.6685 20.7481C11.6639 20.7508 11.6587 20.7522 11.6534 20.7522ZM9.73803 19.5739L11.6534 20.6871L13.5818 19.5738L11.6664 18.4607L9.73803 19.5739Z" fill="#B0B8CF"/>
<path d="M9.67781 19.604C9.67248 19.604 9.66723 19.6026 9.66259 19.6L7.6868 18.4517C7.68225 18.4491 7.67847 18.4452 7.67585 18.4407C7.67324 18.4361 7.67186 18.4309 7.67188 18.4256C7.67189 18.4203 7.67328 18.4151 7.67592 18.4106C7.67856 18.406 7.68236 18.4022 7.68692 18.3996L9.67575 17.2514C9.68034 17.2488 9.68555 17.2474 9.69085 17.2474C9.69615 17.2474 9.70135 17.2488 9.70594 17.2514L11.6816 18.3996C11.6862 18.4022 11.69 18.406 11.6927 18.4106C11.6953 18.4152 11.6967 18.4204 11.6967 18.4257C11.6967 18.431 11.6953 18.4362 11.6927 18.4408C11.69 18.4454 11.6862 18.4492 11.6816 18.4518L9.69278 19.6C9.68822 19.6026 9.68306 19.604 9.67781 19.604ZM7.76228 18.4258L9.67781 19.5389L11.6063 18.4256L9.69073 17.3124L7.76228 18.4258Z" fill="#B0B8CF"/>
<path d="M11.6666 18.456C11.6613 18.4559 11.6561 18.4545 11.6515 18.4518L9.67568 17.3037C9.67109 17.3011 9.66729 17.2972 9.66465 17.2926C9.66202 17.288 9.66063 17.2828 9.66064 17.2775C9.66066 17.2722 9.66206 17.267 9.66472 17.2624C9.66738 17.2579 9.6712 17.2541 9.6758 17.2514L11.6644 16.1033C11.669 16.1006 11.6742 16.0992 11.6795 16.0992C11.6848 16.0992 11.69 16.1006 11.6946 16.1033L13.6704 17.2514C13.675 17.2541 13.6788 17.2579 13.6814 17.2625C13.6841 17.2671 13.6855 17.2723 13.6855 17.2776C13.6855 17.2829 13.6841 17.2881 13.6814 17.2927C13.6788 17.2973 13.675 17.3011 13.6704 17.3037L11.6817 18.4518C11.6771 18.4545 11.6719 18.4559 11.6666 18.456ZM9.75115 17.2776L11.6666 18.3907L13.595 17.2774L11.6795 16.1643L9.75115 17.2776Z" fill="#B0B8CF"/>
<path d="M13.6551 17.3078C13.6497 17.3078 13.6445 17.3064 13.6399 17.3037L11.6642 16.1556C11.6596 16.1529 11.6558 16.1491 11.6532 16.1445C11.6505 16.1399 11.6491 16.1347 11.6491 16.1294C11.6491 16.1241 11.6505 16.1189 11.6532 16.1143C11.6558 16.1098 11.6596 16.1059 11.6642 16.1033L13.653 14.9552C13.6576 14.9525 13.6628 14.9511 13.6681 14.9511C13.6734 14.9511 13.6786 14.9525 13.6832 14.9552L15.659 16.1033C15.6636 16.106 15.6674 16.1098 15.67 16.1144C15.6727 16.119 15.6741 16.1242 15.674 16.1295C15.674 16.1348 15.6726 16.14 15.67 16.1446C15.6673 16.1491 15.6635 16.1529 15.6589 16.1556L13.6702 17.3037C13.6656 17.3063 13.6604 17.3077 13.6551 17.3077V17.3078ZM11.7397 16.1295L13.6551 17.2426L15.5835 16.1293L13.6681 15.0161L11.7397 16.1295ZM13.6163 24.1966C13.611 24.1966 13.6057 24.1952 13.6011 24.1925L11.6254 23.0444C11.6209 23.0417 11.617 23.0379 11.6144 23.0333C11.6117 23.0288 11.6104 23.0235 11.6104 23.0183C11.6104 23.013 11.6117 23.0077 11.6144 23.0032C11.617 22.9986 11.6209 22.9948 11.6254 22.9921L13.6143 21.844C13.6189 21.8413 13.6241 21.8399 13.6294 21.8399C13.6347 21.8399 13.6399 21.8413 13.6445 21.844L15.6203 22.9921C15.6248 22.9948 15.6286 22.9986 15.6313 23.0032C15.6339 23.0078 15.6353 23.013 15.6353 23.0183C15.6353 23.0236 15.6339 23.0288 15.6312 23.0334C15.6285 23.038 15.6247 23.0418 15.6201 23.0444L13.6314 24.1925C13.6268 24.1952 13.6216 24.1966 13.6163 24.1966ZM11.7009 23.0183L13.6163 24.1315L15.5448 23.0182L13.6292 21.9051L11.7008 23.0184L11.7009 23.0183Z" fill="#B0B8CF"/>
<path d="M14.2322 18.4214L14.2286 20.048L12.8037 20.8763L7.33105 17.7162L7.33588 16.0908L7.33468 16.0896L8.76079 15.2625L14.2322 18.4214Z" fill="#111D33"/>
<path d="M12.8078 19.2499L14.233 18.4216L14.2287 20.0476L12.8037 20.8759L12.8078 19.2499Z" fill="#111D33"/>
<path d="M14.233 18.4214L12.8078 19.2495L7.33545 16.0902L8.7606 15.2621L14.233 18.4214Z" fill="#4C5C75"/>
<path d="M12.808 19.2499L12.8039 20.8758L7.33154 17.7164L7.33565 16.0903L12.808 19.2499Z" fill="#1D2943"/>
<path d="M8.7813 14.672L8.77284 15.2552L7.33586 16.0896V16.0908L4.50537 14.4558L4.51382 13.8726C4.51503 13.7083 4.57662 13.5973 4.67443 13.5514C4.66718 13.5538 4.66114 13.5574 4.65511 13.561L6.09088 12.7266C6.18024 12.6759 6.30099 12.6831 6.43624 12.7604L8.29948 13.8363C8.56635 13.9909 8.7825 14.3653 8.7813 14.672Z" fill="#1D2943"/>
<path d="M6.86335 14.6713C7.13022 14.8255 7.34637 15.1997 7.34552 15.5069L7.33659 16.0903L4.50537 14.4558L4.51419 13.8724C4.51515 13.5651 4.73215 13.4409 4.99962 13.5953L6.86335 14.6713Z" fill="#1D2943"/>
<path d="M7.33639 16.0902L7.34545 15.5069C7.34665 15.1995 7.1305 14.8254 6.86327 14.6713L4.99942 13.5951C4.86515 13.5179 4.74355 13.5107 4.65527 13.5613L6.09177 12.7268C6.17992 12.6756 6.30152 12.6826 6.43641 12.7606L8.29965 13.8368C8.56688 13.9909 8.78303 14.365 8.78182 14.6724L8.77337 15.2556L7.33639 16.0902Z" fill="#4C5C75"/>
<path d="M8.51588 16.7719L8.36373 17.0969L7.33599 16.0902L7.27344 15.1716L8.23984 15.859L8.51588 16.7719Z" fill="#1D2943"/>
<path d="M9.86181 15.898L8.51576 16.7719C8.02345 16.2443 7.49792 15.6573 7.27344 15.1715L8.73107 14.3931C8.96135 14.8584 9.39546 15.4046 9.86181 15.898Z" fill="#4C5C75"/>
<path d="M12.1552 17.113L12.1544 17.7974C12.1542 17.874 12.104 17.9504 12.0035 18.0089C11.8012 18.1264 11.4721 18.1264 11.2685 18.0089C11.1661 17.9497 11.1151 17.8723 11.1152 17.7949L11.116 17.1104C11.1157 17.1878 11.1668 17.2653 11.2692 17.3244C11.4728 17.4419 11.802 17.4419 12.0042 17.3244C12.1047 17.266 12.1549 17.1896 12.1552 17.113Z" fill="white"/>
<path d="M12.2557 17.1136L12.2545 17.3575C12.2545 17.4493 12.1941 17.5411 12.0721 17.6111C11.8294 17.7536 11.4321 17.7536 11.187 17.6111C11.0638 17.5398 11.0022 17.4469 11.0034 17.3539V17.1112C11.0034 17.0182 11.0638 16.9264 11.1858 16.8552C11.4297 16.7139 11.8258 16.7139 12.0709 16.8552C12.1941 16.9264 12.2557 17.0206 12.2557 17.1136Z" fill="#CC104A"/>
<path d="M12.2554 17.1135L12.2544 17.3569C12.2542 17.4492 12.1936 17.5412 12.0726 17.6116C11.829 17.7531 11.4326 17.7531 11.1874 17.6116C11.0642 17.5404 11.0027 17.447 11.0029 17.3538L11.0038 17.1104C11.0035 17.2036 11.065 17.2969 11.1883 17.3682C11.4334 17.5097 11.8299 17.5097 12.0734 17.3682C12.1944 17.2978 12.2552 17.2057 12.2554 17.1135Z" fill="#CC104A"/>
<path d="M12.0707 16.8555C12.3159 16.997 12.3171 17.2265 12.0735 17.3682C11.8299 17.5098 11.4335 17.5097 11.1884 17.3682C10.9432 17.2267 10.9424 16.9972 11.186 16.8557C11.4295 16.7142 11.8256 16.7138 12.0707 16.8555Z" fill="#F45170"/>
<path d="M5.62043 17.283L5.98535 17.0709L5.98016 18.9022L5.61523 19.1144L5.62043 17.283Z" fill="#111D33"/>
<path d="M2.7793 15.643L3.14434 15.4309L5.98497 17.0709L5.62005 17.283L2.7793 15.643Z" fill="#4C5C75"/>
<path d="M5.62036 17.283L5.61517 19.1144L2.77441 17.4743L2.77961 15.6429L5.62036 17.283Z" fill="#1D2943"/>
</svg>
