<svg width="40" height="40" viewBox="0 0 40 40" fill="none" xmlns="http://www.w3.org/2000/svg">
<g clip-path="url(#clip0_167_1336)">
<path d="M25.7107 23.472L7.71866 13.0864C7.50826 12.9616 7.39626 12.7976 7.39626 12.64L7.36426 25.488C7.36426 25.652 7.46826 25.8104 7.67866 25.9352L25.6779 36.3272C25.8875 36.448 26.1619 36.5088 26.4363 36.5088L26.4763 23.6544C26.2011 23.6544 25.9243 23.5936 25.7107 23.472Z" fill="#525566"/>
<path d="M38.7155 16.804L27.2275 23.4784C27.0203 23.5968 26.7483 23.6552 26.4755 23.6544L26.4355 36.5088C26.7099 36.5088 26.9843 36.448 27.1939 36.3264L38.6763 29.6528C38.8867 29.5344 38.9851 29.3768 38.9851 29.2192L39.0251 16.3712C39.0251 16.5288 38.9195 16.68 38.7155 16.804Z" fill="#474B59"/>
<path d="M38.7044 15.9232C39.1284 16.168 39.13 16.56 38.7132 16.8024L27.23 23.476C26.814 23.7184 26.1364 23.7184 25.7124 23.4736L7.71636 13.0832C7.29716 12.8408 7.29076 12.4464 7.70756 12.204L19.1908 5.53119C19.6068 5.28879 20.2884 5.29119 20.7084 5.53359L38.7044 15.9232Z" fill="#5B5E71"/>
<path d="M38.1806 14.5472V16.1568C38.1806 16.3144 38.075 16.472 37.8654 16.5904L28.8654 21.8192C28.4518 22.0624 27.7622 22.0624 27.3486 21.8192L10.447 12.064C10.2366 11.9464 10.1318 11.7816 10.1318 11.624L10.1382 10.0216C10.1382 10.1792 10.243 10.3368 10.4534 10.4616L27.3486 20.216C27.7686 20.4592 28.4526 20.4592 28.8726 20.216L37.8718 14.9872C38.075 14.8624 38.1806 14.7048 38.1806 14.5472Z" fill="#3F434F"/>
<path d="M37.867 14.104C38.2862 14.3456 38.2878 14.7432 37.8718 14.9848L28.8718 20.216C28.455 20.4584 27.7694 20.4584 27.3502 20.216L10.4526 10.4592C10.0334 10.2176 10.035 9.82236 10.4518 9.58076L19.4518 4.35036C19.8678 4.10796 20.5502 4.10556 20.9694 4.34796L37.867 14.104Z" fill="#3D3D3D"/>
<path d="M26.4941 19.1048L26.4541 22.0008C26.1889 22.0039 25.9271 21.9406 25.6925 21.8168L7.69411 11.4248C7.48451 11.3008 7.37891 11.1432 7.37891 10.9784L7.41171 8.0896C7.41171 8.2472 7.52371 8.4112 7.73411 8.536L25.7261 18.9208C25.9421 19.0456 26.2181 19.1048 26.4941 19.1048Z" fill="#525566"/>
<path d="M38.7349 12.2536L27.2461 18.928C27.0397 19.0456 26.7677 19.1048 26.4941 19.104L26.4541 22C26.7285 22 27.0029 21.9384 27.2133 21.8168L38.6957 15.144C38.9053 15.0256 39.0045 14.8688 39.0045 14.7104L39.0437 11.8208C39.0437 11.9792 38.9381 12.1288 38.7349 12.2536Z" fill="#474B59"/>
<path d="M38.7236 11.3728C39.1468 11.6176 39.1492 12.0096 38.7324 12.252L27.2492 18.9256C26.8324 19.1672 26.1548 19.1672 25.7316 18.9232L7.73562 8.53281C7.31562 8.29041 7.30922 7.89601 7.72602 7.65361L19.2092 0.980009C19.626 0.738409 20.3076 0.740009 20.7268 0.983209L38.7236 11.3728Z" fill="#5B5E71"/>
<path d="M24.5389 24.4968C24.7349 24.6096 24.8909 24.8808 24.8909 25.1056L24.8805 28.6336C24.8805 28.8576 24.7221 28.948 24.5269 28.8352L19.9181 26.1744C19.7229 26.0616 19.5637 25.7888 19.5645 25.564L19.5741 22.036C19.5749 21.812 19.7349 21.724 19.9301 21.836L24.5389 24.4968ZM24.4741 26.4632L24.4781 25.1144C24.4758 25.0703 24.463 25.0274 24.4408 24.9892C24.4185 24.9511 24.3874 24.9189 24.3501 24.8952L20.1173 22.4512C20.0453 22.4096 19.9885 22.44 19.9877 22.5224L19.9845 23.8712C19.9845 23.9536 20.0405 24.052 20.1125 24.0936L24.3445 26.5368C24.4165 26.5784 24.4741 26.5456 24.4741 26.4632Z" fill="#CAD0DD"/>
<path d="M24.3416 25.0264L24.3352 26.3928L23.188 25.7344L22.5088 25.3384L21.964 25.0264L20.7256 24.312V24.0784L20.732 22.9384L21.3336 23.2856L22.6928 24.0712L23.2376 24.3896L23.9176 24.7792L24.3416 25.0264Z" fill="#658BEE"/>
<path d="M25.6782 24.648L25.671 28.1736C25.671 28.2856 25.6302 28.364 25.567 28.4008L24.779 28.86C24.843 28.8232 24.8798 28.7448 24.8798 28.6328L24.891 25.1072C24.885 24.9854 24.85 24.8667 24.7891 24.761C24.7282 24.6553 24.643 24.5655 24.5406 24.4992L19.9294 21.8352C19.8326 21.7792 19.743 21.7712 19.6758 21.8128L20.467 21.3544C20.531 21.3168 20.6198 21.3208 20.7206 21.3768L25.3278 24.0408C25.4298 24.1075 25.5148 24.1973 25.5756 24.303C25.6365 24.4086 25.6716 24.5271 25.6782 24.6488V24.648Z" fill="#E4E8F4"/>
<path d="M24.3492 24.8952C24.4212 24.936 24.478 25.032 24.4772 25.1144L24.474 26.4632C24.474 26.5456 24.4164 26.5784 24.3452 26.5368L20.1124 24.0936C20.0749 24.0693 20.0437 24.0365 20.0215 23.9978C19.9992 23.9592 19.9865 23.9157 19.9844 23.8712L19.9876 22.5224C19.9876 22.44 20.0452 22.4104 20.1172 22.4512L24.3492 24.8952ZM24.3356 26.3944L24.3396 25.0232L20.7316 22.94L20.7276 24.3112L24.3356 26.3944Z" fill="#363A44"/>
<path d="M24.4711 27.0216L24.4687 27.3216C24.4687 27.3456 24.4607 27.3616 24.4487 27.3696L24.3503 27.4256C24.3639 27.4192 24.3719 27.4032 24.3719 27.3792V27.0784C24.3706 27.0536 24.3636 27.0294 24.3514 27.0077C24.3392 26.986 24.3221 26.9675 24.3015 26.9536L23.9415 26.7456C23.9207 26.7344 23.9031 26.732 23.8887 26.74L23.9871 26.6832C23.9991 26.6768 24.0175 26.6768 24.0375 26.6888L24.4007 26.8968C24.4383 26.9208 24.4711 26.9752 24.4711 27.0216Z" fill="#748BFD"/>
<path d="M24.3024 26.9544C24.323 26.9681 24.3402 26.9865 24.3524 27.008C24.3646 27.0296 24.3716 27.0537 24.3728 27.0784L24.372 27.38C24.372 27.4256 24.34 27.444 24.3008 27.4216L23.9392 27.2128C23.9182 27.1993 23.9008 27.1811 23.8883 27.1595C23.8758 27.1379 23.8685 27.1137 23.8672 27.0888L23.8688 26.7872C23.8688 26.7408 23.9008 26.7232 23.9408 26.7456L24.3024 26.9544Z" fill="#4562EF"/>
<path d="M23.7719 26.6128L23.7695 26.9128C23.7695 26.9368 23.7615 26.9528 23.7495 26.9608L23.6511 27.0168C23.6655 27.0104 23.6735 26.9944 23.6735 26.9704V26.6696C23.6722 26.6448 23.6652 26.6205 23.653 26.5989C23.6408 26.5772 23.6237 26.5587 23.6031 26.5448L23.2423 26.3368C23.2223 26.3256 23.2039 26.3232 23.1895 26.3312L23.2879 26.2744C23.3007 26.268 23.3183 26.268 23.3383 26.28L23.7015 26.488C23.7399 26.512 23.7719 26.5664 23.7719 26.6128Z" fill="#F9607F"/>
<path d="M23.6033 26.5456C23.624 26.5593 23.6411 26.5777 23.6534 26.5992C23.6656 26.6207 23.6726 26.6449 23.6737 26.6696V26.9712C23.6737 27.0168 23.6409 27.0352 23.6017 27.0128L23.2409 26.8048C23.2199 26.7912 23.2024 26.7728 23.1898 26.7511C23.1773 26.7294 23.1702 26.705 23.1689 26.68V26.3784C23.1697 26.332 23.2017 26.3144 23.2417 26.3368L23.6033 26.5456Z" fill="#F34858"/>
<path d="M23.0726 26.2041L23.071 26.5041C23.071 26.5281 23.063 26.5441 23.051 26.5521L22.9518 26.6081C22.9662 26.6017 22.9742 26.5857 22.9742 26.5617V26.2617C22.9731 26.2367 22.9662 26.2123 22.954 26.1905C22.9417 26.1687 22.9246 26.15 22.9038 26.1361L22.543 25.9289C22.523 25.9169 22.5046 25.9145 22.4902 25.9225L22.5894 25.8657C22.6014 25.8593 22.6198 25.8593 22.6398 25.8721L23.0022 26.0793C23.0406 26.1033 23.0726 26.1577 23.0726 26.2041Z" fill="#F9BB4A"/>
<path d="M22.9041 26.1368C22.9249 26.1504 22.9422 26.1687 22.9546 26.1902C22.967 26.2118 22.9741 26.236 22.9753 26.2608L22.9737 26.5624C22.9737 26.608 22.9417 26.6264 22.9033 26.604L22.5417 26.396C22.5207 26.3824 22.5032 26.364 22.4906 26.3423C22.4781 26.3206 22.4709 26.2962 22.4697 26.2712L22.4705 25.9696C22.4705 25.924 22.5025 25.9056 22.5425 25.928L22.9041 26.1368Z" fill="#EFAC41"/>
<path d="M24.4711 27.8064L24.4687 28.1064C24.4687 28.1304 24.4607 28.1464 24.4487 28.1544L24.3503 28.2104C24.3639 28.204 24.3727 28.188 24.3727 28.164V27.8632C24.3714 27.8383 24.3642 27.814 24.3519 27.7924C24.3395 27.7707 24.3222 27.7522 24.3015 27.7384L23.9415 27.5304C23.9207 27.5192 23.9031 27.5168 23.8887 27.5248L23.9871 27.468C23.9991 27.4616 24.0175 27.4616 24.0375 27.4736L24.4007 27.6816C24.4383 27.7056 24.4711 27.76 24.4711 27.8064Z" fill="#BAC1CE"/>
<path d="M24.3024 27.7392C24.3229 27.7528 24.34 27.7711 24.3522 27.7925C24.3645 27.8139 24.3715 27.8378 24.3728 27.8624L24.372 28.164C24.372 28.2104 24.34 28.228 24.3008 28.2064L23.9392 27.9976C23.9181 27.984 23.9006 27.9656 23.8881 27.9439C23.8756 27.9222 23.8684 27.8979 23.8672 27.8728L23.8688 27.5712C23.8688 27.5256 23.9008 27.5072 23.9408 27.5304L24.3024 27.7392Z" fill="#37617B"/>
<path d="M23.7719 27.3976L23.7695 27.6976C23.7695 27.7216 23.7615 27.7376 23.7495 27.7456L23.6511 27.8016C23.6655 27.7952 23.6735 27.7792 23.6735 27.7552V27.4544C23.6722 27.4296 23.6652 27.4053 23.653 27.3837C23.6408 27.362 23.6237 27.3435 23.6031 27.3296L23.2423 27.1216C23.2223 27.1104 23.2039 27.108 23.1895 27.116L23.2879 27.0592C23.3007 27.0528 23.3183 27.0528 23.3383 27.0648L23.7015 27.2728C23.7399 27.2968 23.7719 27.3512 23.7719 27.3976Z" fill="#9AD898"/>
<path d="M23.6033 27.3304C23.624 27.3441 23.6411 27.3624 23.6534 27.384C23.6656 27.4055 23.6726 27.4297 23.6737 27.4544V27.756C23.6737 27.8016 23.6409 27.82 23.6017 27.7976L23.2409 27.5888C23.22 27.5753 23.2025 27.557 23.19 27.5355C23.1775 27.5139 23.1703 27.4897 23.1689 27.4648V27.1632C23.1697 27.1168 23.2017 27.0992 23.2417 27.1216L23.6033 27.3304Z" fill="#6EBA6E"/>
<path d="M23.0726 26.9888L23.071 27.2888C23.071 27.3128 23.063 27.3288 23.051 27.3368L22.9518 27.3928C22.9662 27.3864 22.9742 27.3704 22.9742 27.3464V27.0456C22.973 27.0207 22.966 26.9965 22.9538 26.9749C22.9416 26.9532 22.9245 26.9347 22.9038 26.9208L22.543 26.7128C22.523 26.7016 22.5046 26.6992 22.4902 26.7072L22.5894 26.6504C22.6014 26.644 22.6198 26.644 22.6398 26.656L23.0022 26.864C23.0406 26.888 23.0726 26.9424 23.0726 26.9888Z" fill="#5B5E71"/>
<path d="M22.9041 26.9216C22.9249 26.9352 22.9422 26.9535 22.9546 26.9751C22.967 26.9966 22.9741 27.0208 22.9753 27.0456L22.9737 27.3472C22.9737 27.3928 22.9417 27.4112 22.9033 27.3888L22.5417 27.1808C22.5207 27.1672 22.5032 27.1488 22.4906 27.1271C22.4781 27.1054 22.4709 27.081 22.4697 27.056L22.4705 26.7544C22.4705 26.708 22.5025 26.6904 22.5425 26.7128L22.9041 26.9216Z" fill="#474B59"/>
<path d="M22.6928 24.0712L21.964 25.0264L20.7256 24.312V24.0784L21.3336 23.2856L22.6928 24.0712ZM23.9176 24.7792L23.188 25.7344L22.5088 25.3384L23.2376 24.3896L23.9176 24.7792Z" fill="#8FACFC"/>
<path d="M20.8964 28.2264L11.386 22.7296C11.3503 22.7077 11.3129 22.6889 11.274 22.6736C11.242 22.7776 11.226 22.8976 11.226 23.0248L11.21 26.7904L22.2204 33.148L22.2284 30.532C22.2364 29.6864 21.638 28.6488 20.8956 28.2264H20.8964Z" fill="#363A44"/>
<path d="M11.2101 26.7904L10.0293 27.2688L22.2197 34.3056V33.148L11.2101 26.7904Z" fill="#5B5E71"/>
<path d="M11.2101 26.7904L11.2261 23.0248C11.2261 22.8968 11.2421 22.7768 11.2741 22.6728C10.5877 22.3464 10.0453 22.6888 10.0453 23.4952L10.0293 27.2688L11.2101 26.7904Z" fill="#474B59"/>
<path d="M22.2279 32.5136L22.2199 33.1688L12.1503 39.0248C11.7455 39.2584 11.0743 39.2584 10.6623 39.0248L1.27028 33.6048C1.06068 33.4832 0.955078 33.3216 0.955078 33.1592V32.5048C0.955078 32.6584 1.06068 32.82 1.27028 32.9416L10.6607 38.36C11.0735 38.6032 11.7447 38.6032 12.1567 38.36L22.2271 32.512L22.2279 32.5136Z" fill="#525566"/>
<path d="M22.2257 32.5104L12.1537 38.3632C11.7441 38.6016 11.0753 38.6016 10.6617 38.3632L1.27372 32.9432C0.855324 32.7016 0.853724 32.3136 1.26332 32.0752L11.3353 26.2224L22.2257 32.5104Z" fill="#5B5E71"/>
<path d="M21.8265 32.1816V32.3192L11.4433 38.3632L2.08333 32.916L1.84493 32.7792L1.59773 32.6344L1.47773 32.5664L1.46973 32.4384L1.70813 32.5744L1.94653 32.7192L2.19373 32.856L11.4353 38.2272L21.8265 32.1816Z" fill="#CAD0DD"/>
<path d="M21.8265 32.1816L11.4353 38.2272L2.19373 32.856L1.95533 32.7112L1.70813 32.5744L1.46973 32.4296L11.8273 26.4016L12.0657 26.5464L12.3129 26.6832L12.5521 26.828L21.8265 32.1816Z" fill="#E7EFFB"/>
<path d="M21.8265 31.9808V32.1184L11.4433 38.1624L2.08333 32.7152L1.84493 32.5784L1.59773 32.4336L1.47773 32.3656L1.46973 32.2376L1.70813 32.3736L1.94653 32.5184L2.19373 32.6552L11.4353 38.0256L21.8265 31.9808Z" fill="#CAD0DD"/>
<path d="M21.8265 31.9808L11.4353 38.0256L2.19373 32.6552L1.95533 32.5104L1.70813 32.3736L1.46973 32.2288L11.8273 26.2008L12.0657 26.3456L12.3129 26.4824L12.5521 26.6272L21.8265 31.9808Z" fill="#E7EFFB"/>
<path d="M21.8265 31.7792V31.9176L11.4433 37.9608L2.08333 32.5136L1.84493 32.3776L1.59773 32.2328L1.47773 32.164L1.46973 32.0368L1.70813 32.1728L1.94653 32.3176L2.19373 32.4544L11.4353 37.8248L21.8265 31.7792Z" fill="#CAD0DD"/>
<path d="M21.8265 31.7792L11.4353 37.8248L2.19373 32.4544L1.95533 32.3096L1.70813 32.1728L1.46973 32.028L11.8273 26L12.0657 26.1448L12.3129 26.2816L12.5521 26.4264L21.8265 31.7792Z" fill="#E7EFFB"/>
<path d="M21.8265 31.5784V31.716L11.4433 37.76L2.08333 32.3128L1.84493 32.1768L1.59773 32.032L1.47773 31.9632L1.46973 31.8352L1.70813 31.972L1.94653 32.1168L2.19373 32.2528L11.4353 37.624L21.8265 31.5784Z" fill="#CAD0DD"/>
<path d="M21.8265 31.5784L11.4353 37.624L2.19373 32.2528L1.95533 32.108L1.70813 31.972L1.46973 31.8272L11.8273 25.7992L12.0657 25.944L12.3129 26.08L12.5521 26.2248L21.8265 31.5784Z" fill="#E4E8F4"/>
<path d="M7.8081 35.2984L7.8049 36.4984L7.6129 36.612L7.6153 35.4112C7.6153 35.1112 7.4081 34.7528 7.1497 34.604L5.6129 33.7144C5.4833 33.64 5.3649 33.6344 5.2793 33.6816L5.4753 33.5688C5.5601 33.5216 5.6753 33.5272 5.8057 33.6016L7.3449 34.4912C7.6041 34.64 7.8105 34.9976 7.8081 35.2984Z" fill="#5B5E71"/>
<path d="M7.15022 34.6032C7.40862 34.7528 7.61582 35.1112 7.61422 35.4104L7.61102 36.6128L5.14062 35.1856L5.14382 33.984C5.14462 33.6848 5.35502 33.5672 5.61182 33.7152L7.15022 34.6032Z" fill="#525566"/>
<path d="M33.016 9.6136L33.004 12.368L21.46 5.7024L21.4712 2.948L33.016 9.6136Z" fill="#363A44"/>
<path d="M35.4688 11.0296L33.004 12.368L21.46 5.7024L21.4712 2.948L35.4688 11.0296Z" fill="#525566"/>
<path d="M21.6738 5.58002L21.6834 4.90002L32.8018 11.32L32.793 11.9992L21.6738 5.58002Z" fill="#2D2D2D"/>
<path opacity="0.2" d="M33.0038 12.368L22.8686 17.2688L11.3926 10.6432L21.5286 5.74243L33.0038 12.368Z" fill="#E4E8F4"/>
<path d="M31.9786 10.88C28.4666 11.2 25.3226 12.16 22.9226 13.544C20.5226 14.936 18.8586 16.752 18.2826 18.784C15.2826 17.032 12.2746 15.288 9.2666 13.544C9.8346 11.504 11.4986 9.68796 13.9066 8.30396C16.3066 6.91996 19.4426 5.95996 22.9546 5.63196C25.9626 7.38396 28.9706 9.12796 31.9786 10.88Z" fill="#E4E8F4"/>
<path d="M20.1719 10.404L21.5703 11.2168C22.3482 10.8709 23.1474 10.5751 23.9631 10.3312L22.5687 9.52075C21.7231 9.77675 20.9231 10.072 20.1719 10.404Z" fill="#EFAC41"/>
<path d="M19.3652 7.0848L20.7596 7.896C21.6529 7.65473 22.5592 7.46429 23.474 7.3256L22.0796 6.5144C21.1356 6.66 20.23 6.8496 19.3652 7.0848Z" fill="#E63044"/>
<path d="M16.3066 8.15761L17.701 8.96801C18.481 8.62459 19.2815 8.32963 20.0978 8.08481L18.7042 7.27441C17.8586 7.53041 17.0586 7.82481 16.3074 8.15761H16.3066Z" fill="#F34858"/>
<path d="M18.2401 9.28078L19.6337 10.0912C20.4137 9.74775 21.2141 9.45279 22.0305 9.20798L20.6361 8.39758C19.7905 8.65358 18.9913 8.94878 18.2401 9.28078Z" fill="#6EBA6E"/>
<path d="M21.2988 8.20797L22.6932 9.01917C23.5865 8.77798 24.4928 8.58754 25.4076 8.44877L24.0132 7.63757C23.0984 7.77634 22.1921 7.96678 21.2988 8.20797Z" fill="#65AA65"/>
<path d="M17.1434 12.1528C16.5887 12.5657 16.0744 13.0301 15.6074 13.54C16.073 13.812 16.5354 14.08 17.0018 14.3512C17.4688 13.8403 17.9846 13.3762 18.5418 12.9656L17.1434 12.1528Z" fill="#FED57A"/>
<path d="M15.2108 11.0295C14.6561 11.4424 14.1418 11.9068 13.6748 12.4167C14.1404 12.6887 14.6028 12.9567 15.0692 13.2279C15.5362 12.7178 16.0505 12.253 16.6052 11.8399L15.2108 11.0295Z" fill="#9AD898"/>
<path d="M20.4926 12.3472C20.159 12.54 19.839 12.7408 19.5342 12.9504L20.9278 13.76C21.2334 13.5504 21.5526 13.3496 21.8862 13.1568C22.2206 12.9648 22.5686 12.78 22.9302 12.6032L21.5358 11.7928C21.1734 11.9688 20.8254 12.1536 20.4918 12.3464L20.4926 12.3472Z" fill="#576CFB"/>
<path d="M13.2772 9.90637C12.7225 10.3192 12.2082 10.7837 11.7412 11.2936L13.1356 12.1048C13.6026 11.5946 14.1169 11.1298 14.6716 10.7168L13.2772 9.90637Z" fill="#F9607F"/>
<path d="M18.56 11.224C18.2264 11.4168 17.9064 11.6176 17.6016 11.8272L18.996 12.6376C19.3016 12.428 19.6208 12.2272 19.9544 12.0344C20.288 11.8416 20.6368 11.6576 20.9984 11.4808L19.604 10.6704C19.2416 10.8464 18.8936 11.0312 18.56 11.224Z" fill="#F9BB4A"/>
<path d="M23.2322 9.33194L24.6258 10.1423C25.5192 9.90115 26.4254 9.71071 27.3402 9.57194L25.9458 8.76074C25.0018 8.90634 24.0962 9.09594 23.2314 9.33114L23.2322 9.33194Z" fill="#E5A03C"/>
<path d="M14.6946 8.97755C14.361 9.16955 14.041 9.37115 13.7354 9.58075L15.1306 10.3912C15.4362 10.1816 15.7554 9.98075 16.089 9.78795C16.4234 9.59595 16.7706 9.41115 17.133 9.23435L15.7386 8.42395C15.3762 8.59995 15.0282 8.78475 14.6946 8.97755Z" fill="#FA5168"/>
<path d="M25.1641 10.4552L26.5593 11.2656C27.4526 11.0257 28.3585 10.8353 29.2729 10.6952L27.8785 9.88477C26.9345 10.0296 26.0321 10.2208 25.1641 10.4552Z" fill="#3C5DD6"/>
<path d="M16.6273 10.1008C16.2937 10.2928 15.9737 10.4944 15.6689 10.704L17.0633 11.5144C17.3689 11.3048 17.6881 11.104 18.0217 10.9112C18.3553 10.7184 18.7033 10.5344 19.0657 10.3576L17.6713 9.54724C17.3089 9.72324 16.9609 9.90804 16.6273 10.1008Z" fill="#75CA75"/>
<path d="M22.1084 11.5296L23.5028 12.34C24.2807 11.9945 25.08 11.6989 25.8956 11.4552L24.5012 10.644C23.6556 10.9 22.8556 11.1952 22.1084 11.5296Z" fill="#4562EF"/>
<path d="M19.08 13.2784C18.496 13.712 17.984 14.1744 17.54 14.664L18.9344 15.4744C19.4014 14.9635 19.9172 14.4994 20.4744 14.0888L19.08 13.2784Z" fill="#748BFD"/>
<path d="M21.4715 2.948L10.3555 8.7608L21.4603 5.7024L21.4715 2.948Z" fill="#474B59"/>
</g>
<defs>
<clipPath id="clip0_167_1336">
<rect width="40" height="40" fill="white"/>
</clipPath>
</defs>
</svg>
