<svg width="32" height="32" viewBox="0 0 32 32" fill="none" xmlns="http://www.w3.org/2000/svg">
<path d="M22.8518 0.544067L22.5221 0.736067L22.4932 8.24701C22.6163 8.17456 22.6803 8.15282 22.824 8.05863V8.05501L23.1501 7.86543L23.173 3.13667L24.5327 2.2781L25.5326 2.85652L25.8622 2.66452L25.8634 2.28414L22.8518 0.544067ZM23.1742 2.57033L23.1778 1.49561L24.0654 2.00761L23.1742 2.57033Z" fill="#9EA9C9"/>
<path d="M22.8434 3.32794L23.1724 3.13666L23.1495 7.86566L22.8203 8.05693L22.8434 3.32794ZM22.8491 1.3059L23.1782 1.11462L23.174 2.58336L22.8449 2.77476L22.8491 1.3059Z" fill="#B0B8CF"/>
<path d="M24.5192 2.26977L24.8484 2.07849L23.1728 3.13654L22.8438 3.32782L24.5192 2.26977ZM25.5339 2.47541L25.8631 2.28414L25.862 2.66476L25.5328 2.85603L25.5339 2.47541Z" fill="#B0B8CF"/>
<path d="M22.5225 0.735831L22.8516 0.544556L25.863 2.28415L25.5338 2.47542L22.5225 0.735831Z" fill="#E3E7F0"/>
<path d="M22.522 0.73584L25.5334 2.47543L25.5322 2.85605L24.522 2.27184L22.8464 3.32977L22.8234 8.05877C22.6794 8.15259 22.6163 8.17433 22.4922 8.24666L22.522 0.73584ZM22.8481 2.77659L24.0653 2.00811L22.8522 1.30773L22.8481 2.77659Z" fill="#9EA9C9"/>
<path d="M14.3921 30.571L14.391 31.0207C14.3908 31.1319 14.3176 31.2431 14.1715 31.328C13.8778 31.4986 13.3996 31.4986 13.1035 31.3276C12.9549 31.2419 12.8806 31.129 12.8809 31.0163L12.8818 30.5668C12.8816 30.6793 12.9558 30.7921 13.1045 30.8781C13.4006 31.0489 13.8789 31.0489 14.1725 30.8783C14.3186 30.7934 14.3917 30.6823 14.3921 30.571Z" fill="#1D2943"/>
<path d="M14.1689 30.2594C14.465 30.4304 14.4666 30.7074 14.1724 30.8783C13.8789 31.0489 13.4006 31.0489 13.1045 30.878C12.809 30.7074 12.8074 30.4304 13.1011 30.2598C13.3952 30.0888 13.8734 30.0888 14.1689 30.2594Z" fill="#4C5C75"/>
<path d="M14.1737 28.9192L14.1733 30.5323C14.1733 30.6114 14.1217 30.6905 14.0179 30.751C13.809 30.8732 13.4687 30.8742 13.2578 30.7531C13.1518 30.6922 13.0986 30.612 13.0986 30.5319L13.0989 28.9187C13.0989 28.9989 13.152 29.0791 13.2581 29.14C13.469 29.261 13.8094 29.2601 14.0182 29.138C14.122 29.0774 14.1737 28.9983 14.1737 28.9192Z" fill="#C9CEE2"/>
<path d="M14.0166 28.699C14.2271 28.8205 14.2285 29.0174 14.0194 29.139C13.8101 29.2606 13.4698 29.2606 13.2592 29.139C13.0486 29.0174 13.0476 28.8202 13.2568 28.6987C13.466 28.5771 13.806 28.5774 14.0166 28.699Z" fill="#9EA9C9"/>
<path d="M10.4642 28.2888L10.4633 28.7385C10.463 28.8497 10.3899 28.9608 10.2438 29.0457C9.95008 29.2163 9.47189 29.2163 9.1758 29.0454C9.02715 28.9596 8.95288 28.8468 8.95313 28.7341L8.95409 28.2844C8.95385 28.3971 9.02811 28.5099 9.17676 28.5957C9.47285 28.7667 9.95104 28.7667 10.2447 28.5961C10.3908 28.5111 10.4639 28.4 10.4642 28.2888Z" fill="#1D2943"/>
<path d="M10.2412 27.9772C10.5373 28.1481 10.5388 28.4252 10.2447 28.5961C9.95101 28.7667 9.47282 28.7667 9.17673 28.5957C8.88125 28.4251 8.87968 28.1481 9.17335 27.9774C9.46739 27.8066 9.9457 27.8066 10.2412 27.9772Z" fill="#4C5C75"/>
<path d="M10.246 26.637L10.2456 28.2501C10.2456 28.3291 10.1939 28.4082 10.0902 28.4688C9.8813 28.591 9.54101 28.592 9.33005 28.4709C9.22403 28.41 9.1709 28.3298 9.1709 28.2496L9.17114 26.6365C9.17114 26.7167 9.22427 26.7968 9.33042 26.8577C9.54125 26.9787 9.88166 26.9778 10.0904 26.8556C10.1942 26.795 10.2459 26.7161 10.246 26.637Z" fill="#C9CEE2"/>
<path d="M10.0899 26.4166C10.3003 26.5382 10.3018 26.7351 10.0926 26.8567C9.88337 26.9783 9.54308 26.9783 9.33249 26.8567C9.12189 26.7351 9.1208 26.5379 9.33007 26.4165C9.53922 26.2949 9.87927 26.295 10.0899 26.4166Z" fill="#9EA9C9"/>
<path d="M22.6947 25.7463L22.6938 26.196C22.6935 26.3072 22.6203 26.4183 22.4742 26.5033C22.1805 26.6739 21.7024 26.6739 21.4063 26.5029C21.2575 26.4172 21.1832 26.3043 21.1836 26.1916L21.1846 25.7421C21.1842 25.8546 21.2586 25.9674 21.4072 26.0533C21.7033 26.2242 22.1815 26.2242 22.4752 26.0536C22.6213 25.9687 22.6945 25.8576 22.6947 25.7463Z" fill="#1D2943"/>
<path d="M22.4715 25.4346C22.7678 25.6056 22.7693 25.8826 22.4752 26.0536C22.1815 26.2242 21.7033 26.2242 21.4072 26.0532C21.1117 25.8826 21.1102 25.6057 21.4037 25.4349C21.6979 25.2641 22.1761 25.2641 22.4717 25.4347L22.4715 25.4346Z" fill="#4C5C75"/>
<path d="M22.4755 24.0945L22.4752 25.7076C22.4752 25.7866 22.4235 25.8658 22.3198 25.9263C22.1109 26.0485 21.7706 26.0495 21.5597 25.9284C21.4535 25.8675 21.4004 25.7873 21.4004 25.7072L21.4006 24.094C21.4006 24.1742 21.4538 24.2544 21.56 24.3153C21.7709 24.4363 22.1112 24.4354 22.3201 24.3133C22.4238 24.2527 22.4755 24.1736 22.4755 24.0945Z" fill="#C9CEE2"/>
<path d="M22.3192 23.8742C22.5298 23.9957 22.5313 24.1927 22.3221 24.3143C22.1129 24.4359 21.7726 24.4359 21.562 24.3143C21.3514 24.1927 21.3503 23.9955 21.5596 23.874C21.7688 23.7525 22.1086 23.7526 22.3192 23.8742Z" fill="#9EA9C9"/>
<path d="M22.7472 18.0978L25.6088 16.4348L25.598 20.8875L22.7363 22.5504L22.7472 18.0978Z" fill="#C9CEE2"/>
<path d="M20.0176 16.5218L22.8792 14.8589L25.609 16.4349L22.7474 18.0979L20.0176 16.5218Z" fill="#E3E7F0"/>
<path d="M22.7476 18.0978L22.7367 22.1144L20.0068 20.5383L20.0178 16.5217L22.7476 18.0978Z" fill="#B0B8CF"/>
<path d="M13.6606 21.963L22.8005 16.6515L22.7824 25.0583L13.6426 30.3698L13.6606 21.963Z" fill="#4C5C75"/>
<path d="M21.7328 19.7858L21.7148 25.6787L14.71 29.7495L14.7281 23.8565L21.7328 19.7858Z" fill="#F3F1FC"/>
<path d="M21.3688 20.4165L20.7977 20.7483L20.7842 25.1379L21.3533 25.47L21.3688 20.4165Z" fill="#E9E7FC"/>
<path d="M20.7841 25.1378L15.0763 28.4548L15.0742 29.1187L21.3532 25.4699L20.7841 25.1378Z" fill="white"/>
<path d="M20.7975 20.7483L15.0897 24.0653L15.0762 28.4549L20.784 25.1378L20.7975 20.7483Z" fill="#C6C8E5"/>
<path d="M9.12988 19.347L18.2697 14.0355L22.8006 16.6514L13.6607 21.9629L9.12988 19.347Z" fill="#8892AD"/>
<path d="M13.6603 21.963L13.6423 30.3698L9.11133 27.7539L9.12944 19.347L13.6603 21.963Z" fill="#1D2943"/>
<path d="M8.06836 23.4658L10.93 21.8027L13.6598 23.3788L10.7981 25.0419L8.06836 23.4658Z" fill="#E3E7F0"/>
<path d="M13.6606 23.3788L13.6498 27.831L10.7879 29.4938V29.495L8.05762 27.918L8.06849 23.4657L10.7987 25.0416L13.6606 23.3788Z" fill="#B0B8CF"/>
<path d="M13.6606 23.3789L13.6496 27.8315L10.7881 29.4943L10.7988 25.0417L13.6606 23.3789Z" fill="#C9CEE2"/>
<path d="M10.7983 25.0419L10.7874 29.4945L8.05762 27.9185L8.06848 23.4658L10.7983 25.0419Z" fill="#B0B8CF"/>
<path d="M10.9473 29.2174L10.9573 26.5586L10.9692 26.5516L13.4999 25.0813L13.4898 27.7397L13.4778 27.7467L10.9473 29.2174ZM11.0055 26.5864L10.9958 29.1333L13.4416 27.7119L13.4512 25.1652L11.0055 26.5865V26.5864Z" fill="#9EA9C9"/>
<path d="M28.8326 13.923L25.3584 15.9421C25.3645 15.9386 25.3702 15.9345 25.3755 15.9299L28.8499 13.9106C28.8445 13.9152 28.8388 13.9194 28.8326 13.923Z" fill="#E3E7F0"/>
<path d="M25.7114 15.6439L29.1858 13.6248L28.8503 13.9107L25.376 15.93L25.7114 15.6439Z" fill="#9EA9C9"/>
<path d="M25.7675 14.5541L25.7648 15.5011C25.7646 15.5642 25.7455 15.6146 25.7109 15.6439L29.1853 13.6247C29.2199 13.5955 29.2389 13.545 29.239 13.482L29.2417 12.5348L25.7675 14.5541Z" fill="#B0B8CF"/>
<path d="M25.7433 14.4181C25.759 14.4654 25.7674 14.5119 25.7673 14.554L29.2415 12.5348C29.2409 12.4885 29.2328 12.4426 29.2175 12.3989L25.7432 14.4182L25.7433 14.4181Z" fill="#B0B8CF"/>
<path d="M29.2177 12.399L25.7434 14.4183L24.4473 10.5945L27.9215 8.5752L29.2177 12.399Z" fill="#C9CEE2"/>
<path d="M24.2311 10.3135C24.3232 10.3666 24.4072 10.4758 24.4476 10.5945L25.7438 14.4183C25.7597 14.4654 25.7679 14.512 25.7679 14.5541L25.7653 15.5012C25.765 15.5642 25.7459 15.6147 25.7114 15.6439L25.3759 15.93C25.3301 15.9694 25.2606 15.9676 25.1873 15.9253L21.6468 13.8812C21.5136 13.8042 21.4059 13.6177 21.4063 13.4643L21.4191 8.96777C21.4195 8.81441 21.528 8.75283 21.6612 8.82975L24.2311 10.3135Z" fill="#9EA9C9"/>
<path d="M27.7052 8.29425L25.1353 6.81054C25.0682 6.7719 25.0074 6.76827 24.9636 6.79363L21.4893 8.81289C21.5331 8.78741 21.594 8.79104 21.661 8.8298L24.2309 10.3134C24.323 10.3665 24.4071 10.4757 24.4474 10.5944L27.9216 8.57525C27.8813 8.45643 27.7972 8.34738 27.7052 8.29425Z" fill="#E3E7F0"/>
<path d="M12.4764 25.1563C12.4767 25.1423 12.4739 25.1284 12.4682 25.1155L12.5509 25.1636C12.5566 25.1764 12.5593 25.1904 12.559 25.2044C12.5593 25.2689 12.5139 25.3476 12.4576 25.38L12.375 25.3319C12.4312 25.2995 12.4766 25.2208 12.4764 25.1563ZM12.454 25.0962L12.5366 25.1443C12.5427 25.1496 12.5477 25.1562 12.5511 25.1636L12.4682 25.1155C12.4649 25.1081 12.46 25.1015 12.454 25.0962Z" fill="#4C5C75"/>
<path d="M12.3027 25.3392C12.3212 25.3498 12.3467 25.3483 12.3748 25.332L12.4575 25.38C12.4294 25.3963 12.4039 25.3979 12.3855 25.3873L12.3027 25.3392ZM12.4537 25.0963C12.4515 25.0944 12.4491 25.0927 12.4466 25.0912L12.5293 25.1392C12.5317 25.1407 12.5341 25.1424 12.5365 25.1443L12.4777 25.1101L12.4656 25.1033L12.4626 25.1015C12.4606 25.1003 12.4586 25.099 12.4566 25.0978C12.4557 25.0975 12.4544 25.0969 12.4537 25.0963Z" fill="#4C5C75"/>
<path d="M12.3027 25.3391L12.3031 25.3392L12.3858 25.3873L12.3855 25.3872L12.3027 25.3391Z" fill="#4C5C75"/>
<path d="M12.4465 25.0911L12.5291 25.1391C12.5106 25.1283 12.485 25.1299 12.4567 25.1463L12.374 25.0981C12.4023 25.0818 12.428 25.0804 12.4465 25.0911Z" fill="#B28AFD"/>
<path d="M12.4741 25.0437L12.5568 25.0918C12.5312 25.0768 12.4959 25.079 12.4566 25.1015L12.374 25.0535C12.4131 25.0309 12.4484 25.0288 12.4741 25.0437Z" fill="#1D2943"/>
<path d="M12.3848 25.3871L12.302 25.3391C12.2839 25.3284 12.2725 25.3058 12.2725 25.2738C12.2722 25.2092 12.3176 25.1306 12.3739 25.0981L12.4565 25.1462C12.4003 25.1787 12.3549 25.2573 12.3551 25.3218C12.3552 25.3539 12.3665 25.3765 12.3848 25.387V25.3871Z" fill="#B28AFD"/>
<path d="M12.5292 25.3049C12.5689 25.2364 12.569 25.1623 12.5293 25.1392C12.4897 25.1162 12.4253 25.153 12.3855 25.2214C12.3457 25.2899 12.3456 25.364 12.3853 25.3871C12.425 25.4101 12.4894 25.3733 12.5292 25.3049Z" fill="#B28AFD"/>
<path d="M12.3581 25.4346L12.2754 25.3865C12.2502 25.3718 12.2345 25.3406 12.2344 25.2962C12.2341 25.2071 12.2969 25.0983 12.3745 25.0535L12.4572 25.1015C12.3796 25.1462 12.3169 25.2551 12.3171 25.3442C12.3172 25.3887 12.3328 25.4198 12.3581 25.4346Z" fill="#1D2943"/>
<path d="M12.4565 25.1015C12.5342 25.0566 12.5975 25.0926 12.5978 25.1818C12.598 25.2712 12.5352 25.3799 12.4574 25.4248C12.3798 25.4696 12.3166 25.4336 12.3164 25.3443C12.3162 25.2551 12.379 25.1462 12.4565 25.1015ZM12.4574 25.38C12.5136 25.3476 12.5589 25.2689 12.5589 25.2044C12.5586 25.1398 12.513 25.1139 12.4567 25.1462C12.4006 25.1787 12.3552 25.2573 12.3553 25.3218C12.3555 25.3864 12.4012 25.4124 12.4574 25.38ZM12.3735 24.8041C12.4298 24.7716 12.4751 24.693 12.475 24.6284L12.5577 24.6765C12.5578 24.741 12.5124 24.8197 12.4562 24.8522L12.3735 24.8041Z" fill="#4C5C75"/>
<path d="M12.4736 24.6073L12.5563 24.6554C12.5576 24.6623 12.5583 24.6694 12.5583 24.6765L12.4756 24.6284C12.4756 24.6213 12.4749 24.6143 12.4736 24.6073Z" fill="#4C5C75"/>
<path d="M12.4733 24.6073C12.4721 24.6005 12.4701 24.5939 12.4672 24.5876L12.5498 24.6357C12.5526 24.6415 12.5546 24.6481 12.5561 24.6554L12.4733 24.6073ZM12.3019 24.8114C12.3202 24.8219 12.3457 24.8203 12.3738 24.8042L12.4566 24.8522C12.4284 24.8684 12.4029 24.87 12.3845 24.8595L12.3019 24.8114Z" fill="#4C5C75"/>
<path d="M12.4674 24.5876C12.4629 24.5775 12.4554 24.5689 12.4458 24.5632L12.5285 24.6113C12.538 24.617 12.5455 24.6255 12.55 24.6357L12.5087 24.6115L12.5033 24.6085L12.4925 24.6022L12.4874 24.5992L12.4771 24.5932C12.4742 24.5915 12.4697 24.59 12.4674 24.5876ZM12.3018 24.811L12.302 24.8114L12.3847 24.8593L12.3844 24.8592L12.3018 24.811Z" fill="#4C5C75"/>
<path d="M12.4454 24.5632L12.5281 24.6112C12.5096 24.6004 12.484 24.6019 12.4556 24.6182L12.373 24.5702C12.4013 24.5539 12.4269 24.5524 12.4454 24.5632Z" fill="#F45170"/>
<path d="M12.4733 24.5157L12.5559 24.5637C12.5304 24.5489 12.4949 24.551 12.4556 24.5736L12.373 24.5256C12.4122 24.503 12.4477 24.5007 12.4733 24.5157Z" fill="#1D2943"/>
<path d="M12.3839 24.8592L12.3012 24.8111C12.283 24.8005 12.2716 24.7779 12.2715 24.7459C12.2714 24.6814 12.3168 24.6027 12.3729 24.5702L12.4556 24.6183C12.3994 24.6507 12.354 24.7293 12.3542 24.7938C12.3542 24.8259 12.3657 24.8485 12.3839 24.8592Z" fill="#F45170"/>
<path d="M12.4559 24.6183C12.5121 24.5858 12.5577 24.612 12.558 24.6765C12.5581 24.741 12.5127 24.8197 12.4565 24.8522C12.4004 24.8846 12.3546 24.8585 12.3545 24.7939C12.3543 24.7294 12.3997 24.6508 12.4559 24.6183Z" fill="#F45170"/>
<path d="M12.3561 24.9067L12.2735 24.8587C12.2481 24.8439 12.2324 24.8128 12.2324 24.7684C12.2322 24.679 12.2949 24.5703 12.3725 24.5255L12.4552 24.5736C12.3776 24.6183 12.3148 24.7271 12.3151 24.8163C12.3151 24.8607 12.3307 24.892 12.3561 24.9067Z" fill="#1D2943"/>
<path d="M12.4556 24.5735C12.5334 24.5286 12.5965 24.5646 12.5969 24.6538C12.597 24.7432 12.5342 24.852 12.4565 24.8969C12.3789 24.9416 12.3157 24.9056 12.3154 24.8164C12.3152 24.727 12.3781 24.6183 12.4556 24.5735ZM12.4565 24.8521C12.5126 24.8196 12.558 24.741 12.5579 24.6764C12.5577 24.6119 12.512 24.5859 12.4559 24.6182C12.3996 24.6507 12.3542 24.7293 12.3544 24.7938C12.3546 24.8584 12.4003 24.8845 12.4565 24.8521ZM12.8937 24.9153C12.894 24.9012 12.8913 24.8873 12.8856 24.8745L12.9682 24.9225C12.9739 24.9354 12.9767 24.9493 12.9764 24.9633C12.9766 25.0279 12.9312 25.1066 12.875 25.139L12.7923 25.091C12.8484 25.0585 12.8938 24.9799 12.8937 24.9153Z" fill="#4C5C75"/>
<path d="M12.8855 24.8745C12.881 24.8643 12.8734 24.8558 12.8639 24.8501L12.9466 24.8982C12.9561 24.9039 12.9636 24.9124 12.9681 24.9226C12.9438 24.9084 12.9195 24.8943 12.8952 24.8802C12.8923 24.8785 12.8877 24.877 12.8855 24.8745ZM12.7197 25.098C12.7383 25.1089 12.7639 25.1073 12.7922 25.091L12.8748 25.1391C12.8465 25.1554 12.8209 25.1568 12.8024 25.1461L12.7197 25.098Z" fill="#4C5C75"/>
<path d="M12.8644 24.8501L12.9472 24.8982C12.9287 24.8874 12.903 24.889 12.8747 24.9053L12.792 24.8572C12.8204 24.8409 12.846 24.8394 12.8644 24.8501Z" fill="#FFD06C"/>
<path d="M12.8912 24.8027L12.9738 24.8507C12.9484 24.8359 12.9129 24.838 12.8736 24.8605L12.791 24.8125C12.8301 24.7899 12.8656 24.7877 12.8912 24.8027Z" fill="#1D2943"/>
<path d="M12.8029 25.146L12.7201 25.098C12.7019 25.0875 12.6906 25.0649 12.6904 25.0328C12.6903 24.9682 12.7356 24.8895 12.7917 24.8572L12.8745 24.9052C12.8183 24.9376 12.773 25.0163 12.773 25.0808C12.7733 25.1129 12.7845 25.1355 12.8029 25.146Z" fill="#FFD06C"/>
<path d="M12.8748 24.9053C12.931 24.8729 12.9767 24.8989 12.9769 24.9634C12.977 25.028 12.9316 25.1066 12.8755 25.1391C12.8193 25.1715 12.7736 25.1455 12.7734 25.0809C12.7732 25.0163 12.8186 24.9377 12.8748 24.9053Z" fill="#FFD06C"/>
<path d="M12.7751 25.1936L12.6924 25.1455C12.6671 25.1308 12.6515 25.0997 12.6514 25.0552C12.6511 24.9661 12.7139 24.8572 12.7916 24.8125L12.8743 24.8604C12.7966 24.9054 12.7338 25.014 12.7341 25.1032C12.7341 25.1476 12.7498 25.1789 12.7751 25.1936Z" fill="#1D2943"/>
<path d="M12.8746 24.8605C12.9523 24.8157 13.0155 24.8517 13.0159 24.9408C13.016 25.0302 12.9532 25.1388 12.8754 25.1839C12.7978 25.2287 12.7346 25.1927 12.7344 25.1033C12.7341 25.0141 12.7969 24.9053 12.8745 24.8606L12.8746 24.8605ZM12.8753 25.1391C12.9316 25.1066 12.977 25.028 12.9767 24.9634C12.9766 24.8989 12.9308 24.8728 12.8747 24.9054C12.8185 24.9377 12.7733 25.0163 12.7733 25.0809C12.7735 25.1455 12.8191 25.1715 12.8753 25.1391ZM12.7915 24.5632C12.8478 24.5306 12.8932 24.452 12.8929 24.3874L12.9756 24.4355C12.9758 24.5001 12.9305 24.5788 12.8742 24.6113L12.7915 24.5632ZM12.8917 24.3706L12.9744 24.4187C12.9753 24.424 12.9756 24.4294 12.9756 24.4355L12.8929 24.3874C12.8929 24.3818 12.8925 24.3762 12.8917 24.3706Z" fill="#4C5C75"/>
<path d="M12.8918 24.3707C12.8907 24.3624 12.8883 24.3542 12.8848 24.3466L12.9675 24.3946C12.971 24.4023 12.9733 24.4104 12.9744 24.4188L12.8918 24.3706V24.3707Z" fill="#4C5C75"/>
<path d="M12.8845 24.3465C12.88 24.3364 12.8724 24.3278 12.8628 24.3221L12.9455 24.3702C12.9551 24.3759 12.9626 24.3844 12.9671 24.3946L12.9258 24.3706L12.9204 24.3674L12.9095 24.3613C12.9065 24.3593 12.9023 24.3569 12.8992 24.3552L12.8891 24.3493C12.8878 24.3485 12.8856 24.3477 12.8845 24.3465ZM12.7188 24.5701C12.7372 24.5809 12.7628 24.5795 12.7911 24.5632L12.8738 24.6112C12.8455 24.6275 12.8199 24.629 12.8013 24.6181L12.7188 24.5701Z" fill="#4C5C75"/>
<path d="M12.8632 24.3222L12.9459 24.3702C12.9275 24.3595 12.9019 24.361 12.8735 24.3773L12.7908 24.3293C12.8191 24.313 12.8447 24.3114 12.8632 24.3222ZM12.8019 24.6182L12.7193 24.5702C12.7009 24.5596 12.6896 24.537 12.6895 24.5049C12.6893 24.4404 12.7346 24.3616 12.7908 24.3293L12.8735 24.3773C12.8175 24.4097 12.772 24.4884 12.7722 24.5529C12.7723 24.585 12.7836 24.6077 12.8019 24.6182Z" fill="#57B3FE"/>
<path d="M12.8728 24.3773C12.9291 24.3447 12.9747 24.3709 12.975 24.4354C12.9751 24.5 12.9298 24.5787 12.8735 24.6111C12.8174 24.6436 12.7717 24.6174 12.7715 24.5529C12.7714 24.4884 12.8166 24.4097 12.8728 24.3773Z" fill="#57B3FE"/>
<path d="M12.8907 24.2748C12.8651 24.2599 12.8297 24.262 12.7905 24.2845C12.7128 24.3295 12.65 24.4381 12.6504 24.5275C12.6504 24.5718 12.6661 24.6031 12.6914 24.6177L12.774 24.6658C12.7487 24.6512 12.7331 24.6199 12.733 24.5754C12.7327 24.4862 12.7955 24.3774 12.8732 24.3327C12.9123 24.31 12.9478 24.308 12.9734 24.3228L12.8907 24.2748Z" fill="#1D2943"/>
<path d="M12.8726 24.3325C12.9504 24.2877 13.0135 24.3237 13.0139 24.4129C13.0141 24.5023 12.9514 24.611 12.8736 24.6559C12.7959 24.7008 12.7327 24.6647 12.7324 24.5753C12.7322 24.4861 12.795 24.3773 12.8726 24.3326V24.3325ZM12.8735 24.6112C12.9297 24.5786 12.975 24.5 12.9749 24.4354C12.9747 24.3709 12.929 24.3448 12.8727 24.3773C12.8167 24.4097 12.7713 24.4884 12.7714 24.5529C12.7717 24.6174 12.8173 24.6434 12.8735 24.6112ZM13.1372 24.8573C13.1557 24.8678 13.1811 24.8662 13.2093 24.8501L13.292 24.898C13.2639 24.9143 13.2384 24.9159 13.2199 24.9052L13.1372 24.8573ZM13.3107 24.6744C13.3106 24.6424 13.2992 24.6198 13.281 24.6091L13.3637 24.6572C13.3818 24.6678 13.3933 24.6904 13.3933 24.7224C13.3936 24.787 13.3482 24.8656 13.2919 24.898L13.2093 24.8501C13.2654 24.8174 13.3108 24.739 13.3107 24.6744Z" fill="#4C5C75"/>
<path d="M13.1367 24.8572L13.1371 24.8574L13.2198 24.9055L13.2194 24.9052L13.1367 24.8572Z" fill="#4C5C75"/>
<path d="M13.2814 24.6092L13.3642 24.6573C13.3456 24.6464 13.32 24.648 13.2917 24.6644L13.209 24.6163C13.2372 24.5999 13.263 24.5986 13.2814 24.6092Z" fill="#8FABFE"/>
<path d="M13.3092 24.5617L13.3919 24.6098C13.3663 24.595 13.3308 24.597 13.2917 24.6195L13.209 24.5715C13.2481 24.5489 13.2836 24.5469 13.3092 24.5617Z" fill="#1D2943"/>
<path d="M13.2197 24.9052L13.137 24.8571C13.1189 24.8465 13.1075 24.8239 13.1074 24.7919C13.1072 24.7273 13.1526 24.6487 13.2089 24.6163L13.2915 24.6644C13.2353 24.6968 13.1899 24.7755 13.19 24.84C13.1901 24.872 13.2015 24.8946 13.2197 24.9052Z" fill="#8FABFE"/>
<path d="M13.3641 24.823C13.4039 24.7545 13.404 24.6803 13.3643 24.6573C13.3246 24.6342 13.2602 24.671 13.2205 24.7395C13.1807 24.8079 13.1806 24.8821 13.2203 24.9051C13.2599 24.9282 13.3243 24.8914 13.3641 24.823Z" fill="#8FABFE"/>
<path d="M13.1921 24.9528L13.1094 24.9046C13.0842 24.89 13.0685 24.8587 13.0684 24.8142C13.0681 24.7251 13.1309 24.6163 13.2086 24.5715L13.2913 24.6196C13.2136 24.6644 13.1508 24.7732 13.1511 24.8623C13.1512 24.9067 13.1668 24.9381 13.1921 24.9528Z" fill="#1D2943"/>
<path d="M13.2919 24.6195C13.3695 24.5748 13.4328 24.6107 13.4332 24.6999C13.4334 24.7893 13.3705 24.898 13.2929 24.9429C13.2151 24.9877 13.1519 24.9517 13.1517 24.8624C13.1514 24.7732 13.2142 24.6643 13.2919 24.6195ZM13.2927 24.8981C13.3489 24.8657 13.3942 24.787 13.3942 24.7225C13.3939 24.658 13.3483 24.632 13.292 24.6644C13.2359 24.6968 13.1905 24.7755 13.1906 24.84C13.1908 24.9045 13.2365 24.9306 13.2927 24.8981ZM13.3102 24.1465C13.3106 24.1325 13.3078 24.1186 13.3022 24.1057L13.3849 24.1538C13.3905 24.1666 13.3933 24.1806 13.393 24.1946C13.3931 24.2592 13.3477 24.3378 13.2915 24.3703L13.2088 24.3222C13.2651 24.2899 13.3104 24.2111 13.3102 24.1465ZM13.1367 24.3295C13.1552 24.34 13.1807 24.3385 13.2088 24.3222L13.2915 24.3703C13.2634 24.3865 13.2379 24.388 13.2194 24.3775L13.1367 24.3295Z" fill="#4C5C75"/>
<path d="M13.3014 24.1057C13.2969 24.0955 13.2893 24.087 13.2798 24.0813L13.3625 24.1294C13.3721 24.1351 13.3796 24.1436 13.3841 24.1538L13.3428 24.1297L13.3162 24.1143L13.3111 24.1114C13.3082 24.1097 13.3037 24.1082 13.3014 24.1057ZM13.1357 24.3292L13.136 24.3294L13.2187 24.3775L13.2183 24.3773L13.1357 24.3292Z" fill="#4C5C75"/>
<path d="M13.2802 24.0812L13.3629 24.1293C13.3445 24.1184 13.3189 24.12 13.2905 24.1363L13.2079 24.0882C13.2361 24.0719 13.2617 24.0705 13.2802 24.0812ZM13.2189 24.3772L13.1362 24.3293C13.1179 24.3186 13.1066 24.2959 13.1064 24.2639C13.1063 24.1995 13.1517 24.1207 13.2079 24.0882L13.2905 24.1363C13.2342 24.1688 13.1889 24.2474 13.1892 24.312C13.1892 24.344 13.2006 24.3667 13.2189 24.3772Z" fill="#78E75A"/>
<path d="M13.2909 24.1365C13.347 24.1039 13.3927 24.1301 13.3929 24.1945C13.393 24.2592 13.3476 24.3378 13.2915 24.3702C13.2353 24.4027 13.1896 24.3765 13.1895 24.312C13.1892 24.2476 13.2346 24.1688 13.2909 24.1363V24.1365Z" fill="#78E75A"/>
<path d="M13.3077 24.0338C13.2821 24.0189 13.2467 24.021 13.2075 24.0435C13.1299 24.0884 13.0671 24.1972 13.0674 24.2864C13.0674 24.3309 13.0831 24.362 13.1084 24.3767L13.191 24.4248C13.1658 24.4101 13.1501 24.3789 13.15 24.3345C13.1497 24.2451 13.2125 24.1364 13.2903 24.0916C13.3293 24.0691 13.3648 24.0669 13.3904 24.0819L13.3077 24.0338Z" fill="#1D2943"/>
<path d="M13.2906 24.0916C13.3684 24.0467 13.4316 24.0827 13.4319 24.1719C13.4321 24.2613 13.3692 24.3701 13.2916 24.415C13.2139 24.4598 13.1508 24.4238 13.1504 24.3344C13.1501 24.2451 13.2128 24.1364 13.2906 24.0916ZM13.2914 24.3702C13.3476 24.3377 13.393 24.2591 13.3929 24.1945C13.3926 24.13 13.347 24.1039 13.2908 24.1363C13.2346 24.1688 13.1892 24.2474 13.1894 24.312C13.1895 24.3765 13.2353 24.4026 13.2914 24.3702Z" fill="#4C5C75"/>
<path d="M11.0459 25.643C11.0459 25.7396 11.0797 25.8068 11.1344 25.8387L11.2598 25.9116C11.2052 25.8798 11.1712 25.812 11.1712 25.7161C11.1705 25.5229 11.307 25.2874 11.4752 25.1901C11.5594 25.1414 11.636 25.1369 11.6921 25.1687L11.5667 25.0965C11.5114 25.0639 11.4346 25.0684 11.3498 25.117C11.1816 25.2145 11.0452 25.4498 11.0459 25.643Z" fill="#FFD06C"/>
<path d="M11.6909 25.6652C11.8101 25.4601 11.8104 25.2379 11.6916 25.1689C11.5728 25.0998 11.3799 25.2101 11.2607 25.4153C11.1415 25.6204 11.1412 25.8426 11.26 25.9116C11.3788 25.9806 11.5717 25.8703 11.6909 25.6652Z" fill="#FEBC1F"/>
<path d="M11.4719 25.8967L11.4274 25.8707L11.4258 25.2185L11.4703 25.2443L11.4719 25.8967Z" fill="#CC104A"/>
<path d="M11.4703 25.2444L11.4258 25.2185L11.498 25.1768L11.5426 25.2027L11.4703 25.2444Z" fill="#F45170"/>
<path d="M11.5429 25.2028L11.5446 25.8551L11.4723 25.8967L11.4707 25.2444L11.5429 25.2028Z" fill="#E93565"/>
<path d="M25.5336 2.46895L6.26118 13.867L5.94238 13.6834L25.2148 2.2854L25.5336 2.46895Z" fill="#B0B8CF"/>
<path d="M6.26043 13.867L25.5329 2.4762V2.84208L6.25922 14.2401L5.94043 14.0554L5.94164 13.6895L6.26043 13.873V13.867Z" fill="#B0B8CF"/>
<path d="M6.26085 13.8672L25.5338 2.47559L25.5327 2.84208L6.25977 14.2399L6.26085 13.8672Z" fill="#B0B8CF"/>
<path d="M5.94238 13.6831L25.2153 2.28528L25.5344 2.46943L6.26142 13.8672L5.94238 13.6831Z" fill="#E3E7F0"/>
<path d="M6.26141 13.8735L6.26032 14.2399L5.94141 14.0558L5.94237 13.6893L6.26141 13.8735Z" fill="#7A7C81"/>
<path d="M3.49768 11.8817L3.1685 12.073L3.13867 19.4899C3.26281 19.4175 3.32222 19.372 3.46978 19.3959L3.79896 19.2046L3.82202 14.4756L5.18208 13.6168L6.2597 14.2399L6.58888 14.0487L6.58996 13.6682L3.49768 11.8817ZM3.82371 13.9059L3.82673 12.8343L4.71174 13.3453L3.82371 13.9059Z" fill="#9EA9C9"/>
<path d="M3.49279 14.6669L3.82197 14.4757L3.7989 19.2046L3.46973 19.3959L3.49279 14.6669ZM3.49859 12.6449L3.82776 12.4536L3.82354 13.9225L3.49436 14.1137L3.49859 12.6449Z" fill="#B0B8CF"/>
<path d="M5.16876 13.6089L5.49793 13.4175L3.82234 14.4755L3.49316 14.6668L5.16876 13.6089ZM6.2611 13.8593L6.59028 13.668L6.58919 14.0485L6.26002 14.2398L6.2611 13.8593Z" fill="#B0B8CF"/>
<path d="M3.16895 12.073L3.49812 11.8817L6.59041 13.6682L6.26123 13.8594L3.16895 12.073Z" fill="#E3E7F0"/>
<path d="M3.1685 12.073L6.26078 13.8593L6.25958 14.2398L5.16844 13.6089L3.49285 14.6668L3.4699 19.3958C3.3221 19.3719 3.26281 19.4175 3.13867 19.4898L3.1685 12.073ZM3.49454 14.1136L4.71174 13.3451L3.49864 12.6448L3.49454 14.1136Z" fill="#9EA9C9"/>
<path d="M18.3965 15.4063L21.6311 13.5266C21.631 13.587 21.6736 13.661 21.7263 13.6914L18.4918 15.5712C18.439 15.5408 18.3964 15.4668 18.3965 15.4063Z" fill="#B0B8CF"/>
<path d="M25.1233 15.6529L21.7257 13.6914L18.4912 15.5712L21.8888 17.5327C21.9145 17.5476 21.9388 17.5498 21.9566 17.5394L25.1913 15.6596C25.1733 15.6701 25.1491 15.6679 25.1233 15.6529Z" fill="#E3E7F0"/>
<path d="M25.3841 15.9919L22.1497 17.8717C22.1589 17.8664 22.1677 17.8602 22.1759 17.8531L25.4106 15.9735C25.4022 15.9805 25.3935 15.9867 25.3844 15.9919H25.3841ZM21.9639 17.5347L25.1985 15.6549L25.4104 15.9735L22.1759 17.8531L21.9639 17.5347Z" fill="#C9CEE2"/>
<path d="M18.4367 11.0298C18.4195 11.0398 18.4089 11.061 18.4088 11.0912L18.3965 15.4062L21.6311 13.5265L21.6433 9.21137C21.6435 9.18118 21.6542 9.16005 21.6712 9.15015L18.4367 11.0297V11.0298Z" fill="#B0B8CF"/>
<path d="M21.7393 8.84372C21.6372 8.78479 21.5445 8.77948 21.4776 8.81836L18.2432 10.698C18.3101 10.6591 18.4027 10.6646 18.5048 10.7235L19.9957 11.5842L23.2302 9.70446L21.7394 8.84372H21.7393Z" fill="#E3E7F0"/>
<path d="M19.9963 11.5843L19.9954 11.8973L18.5045 11.0365C18.4519 11.0061 18.4089 11.0305 18.4088 11.0912L18.3964 15.4063C18.3963 15.4666 18.439 15.5408 18.4917 15.5712L21.8893 17.5328C21.9184 17.5497 21.9455 17.5502 21.9639 17.5347L22.1758 17.8531C22.1054 17.9133 22.0007 17.9106 21.8884 17.8459L18.4908 15.8842C18.2879 15.7671 18.1234 15.4821 18.124 15.249L18.1363 10.9339C18.1369 10.7008 18.3025 10.6064 18.5055 10.7235L19.9963 11.5843Z" fill="#C9CEE2"/>
<path d="M19.9961 11.5843L23.2306 9.70447L23.2298 10.0176L19.9951 11.8973L19.9961 11.5843Z" fill="#C9CEE2"/>
<path d="M6.8584 22.1114L19.0668 15.0166C19.0667 15.077 19.1093 15.151 19.1621 15.1814L6.95367 22.2763C6.9009 22.2458 6.85828 22.1718 6.8584 22.1113V22.1114Z" fill="#B0B8CF"/>
<path d="M22.8196 17.4819L10.6113 24.5767C10.6204 24.5714 10.6291 24.5652 10.6374 24.5581L22.8457 17.4634C22.8375 17.4704 22.8288 17.4767 22.8196 17.4819Z" fill="#C9CEE2"/>
<path d="M22.8466 17.4634L22.6347 17.1449L22.6258 17.1501C22.608 17.1592 22.585 17.1573 22.5601 17.1429L19.1625 15.1814L6.9541 22.2762L10.3517 24.2378C10.3774 24.2526 10.4016 24.2548 10.4195 24.2444L10.4268 24.2403L10.6381 24.5581L22.8466 17.4634Z" fill="#C9CEE2"/>
<path d="M22.5601 17.1429L19.1625 15.1814L6.9541 22.2762L10.3517 24.2378C10.3774 24.2526 10.4016 24.2548 10.4195 24.2444L22.6279 17.1496C22.6101 17.1601 22.5858 17.1579 22.5601 17.1429Z" fill="#E3E7F0"/>
<path d="M10.4258 24.2397L22.6342 17.1449L22.8461 17.4634L10.6377 24.5581L10.4258 24.2397Z" fill="#C9CEE2"/>
<path d="M6.89849 17.7348C6.88134 17.7449 6.87072 17.766 6.87072 17.7961L6.8584 22.1112L19.0668 15.0165L19.0793 10.7012C19.0793 10.671 19.0899 10.6499 19.107 10.64L6.89873 17.7347L6.89849 17.7348Z" fill="#B0B8CF"/>
<path d="M19.1762 10.3337C19.074 10.2748 18.9814 10.2695 18.9144 10.3084L6.70605 17.4031C6.77295 17.3642 6.86545 17.3696 6.96761 17.4285L8.45857 18.2893L20.6669 11.1946L19.176 10.3337H19.1762Z" fill="#E3E7F0"/>
<path d="M8.45812 18.2892L8.45728 18.6022L6.96644 17.7415C6.91379 17.711 6.8708 17.7354 6.87068 17.7961L6.85836 22.1112C6.85824 22.1716 6.90087 22.2457 6.95364 22.2762L10.3512 24.2377C10.3803 24.2546 10.4075 24.2551 10.4258 24.2397L10.6377 24.5581C10.5673 24.6182 10.4626 24.6156 10.3503 24.5508L6.95267 22.5892C6.7498 22.472 6.58534 22.1871 6.58594 21.954L6.59826 17.6388C6.59886 17.4058 6.76441 17.3113 6.96728 17.4285L8.45812 18.2892Z" fill="#C9CEE2"/>
<path d="M8.45788 18.2893L20.6664 11.1945L20.6655 11.5076L8.45703 18.6023L8.45788 18.2893Z" fill="#C9CEE2"/>
<path d="M24.1586 15.9287L22.4209 16.9387C22.4268 16.9352 22.4325 16.9311 22.4377 16.9266L24.1753 15.9167C24.1701 15.9213 24.1644 15.9253 24.1584 15.9288L24.1586 15.9287Z" fill="#E3E7F0"/>
<path d="M23.9889 15.6975L22.0447 14.5751C22.0295 14.5652 22.0169 14.5519 22.0078 14.5361C21.9987 14.5204 21.9935 14.5028 21.9925 14.4847L21.9992 12.1589C21.9992 12.1424 22.0051 12.1308 22.0145 12.1254L20.2767 13.1352C20.2673 13.1407 20.2615 13.1523 20.2614 13.1687L20.2549 15.4945C20.2548 15.5278 20.2782 15.5683 20.3071 15.585L22.2511 16.7074C22.2651 16.7155 22.2784 16.7167 22.2882 16.711L24.0258 15.7012C24.0162 15.7068 24.0029 15.7056 23.9889 15.6975Z" fill="#BF7D5A"/>
<path d="M22.0447 14.5751L20.3068 15.585C20.2916 15.5751 20.279 15.5617 20.27 15.5459C20.261 15.5302 20.2558 15.5125 20.2549 15.4944L20.2613 13.1687C20.2613 13.1523 20.2673 13.1407 20.2766 13.1351L22.0143 12.1254C22.005 12.1308 21.9992 12.1423 21.9992 12.1588L21.9925 14.4847C21.9935 14.5028 21.9988 14.5204 22.0078 14.5361C22.0169 14.5518 22.0295 14.5652 22.0447 14.5751Z" fill="#DBA660"/>
<path d="M22.5214 16.1786C22.5371 16.225 22.5454 16.2716 22.5453 16.3131L22.5441 16.7394C22.5438 16.8018 22.525 16.8519 22.4909 16.881L22.4374 16.9267C22.3916 16.9657 22.3236 16.964 22.2506 16.9219L20.3065 15.7994C20.1749 15.7234 20.0679 15.5382 20.0684 15.3868L20.0749 13.061C20.0754 12.9095 20.183 12.8482 20.3147 12.9243L21.5375 13.6302C21.6283 13.6826 21.7123 13.7919 21.7519 13.9084L22.5214 16.1786ZM22.3573 16.6317L22.3585 16.2053C22.3583 16.1953 22.3566 16.1853 22.3533 16.1758L21.5838 13.9056C21.5755 13.8806 21.559 13.8592 21.5369 13.8448L20.3141 13.1389C20.2852 13.1222 20.2617 13.1356 20.2616 13.1687L20.255 15.4945C20.2549 15.5277 20.2784 15.5683 20.3072 15.585L22.2512 16.7074C22.2672 16.7166 22.2822 16.7171 22.2921 16.7084L22.3457 16.6627C22.3532 16.6564 22.3573 16.6453 22.3573 16.6317Z" fill="#8A4852"/>
<path d="M24.3722 13.2142C24.372 13.2978 24.3425 13.3566 24.2949 13.3843L9.58063 21.9621C9.62808 21.9344 9.65767 21.8756 9.65791 21.792C9.65839 21.6238 9.54017 21.4189 9.39358 21.3344C9.32004 21.2919 9.25326 21.2879 9.20508 21.3159L23.9194 12.7381C23.9677 12.7101 24.0345 12.7141 24.108 12.7566C24.2544 12.8411 24.3727 13.046 24.3722 13.2142Z" fill="#4C5C75"/>
<path d="M9.58013 21.9621C9.68345 21.9021 9.68317 21.7088 9.57949 21.5304C9.47581 21.352 9.308 21.256 9.20467 21.3161C9.10134 21.3761 9.10163 21.5694 9.20531 21.7478C9.30898 21.9262 9.4768 22.0222 9.58013 21.9621Z" fill="#4C5C75"/>
<g opacity="0.5">
<path d="M11.0439 23.1571L11.0414 24.0659C11.0411 24.1617 11.0122 24.2391 10.9599 24.2837L10.6377 24.5581L13.8722 22.6785L14.1944 22.404C14.2467 22.3593 14.2757 22.282 14.276 22.1861L14.2785 21.2773L11.0439 23.1571Z" fill="#678AEE"/>
<path d="M14.2411 21.0703L12.9974 17.4006L9.7627 19.2804L11.0066 22.9502C11.0307 23.0216 11.0435 23.0931 11.0433 23.1571L14.278 21.2773C14.277 21.2068 14.2645 21.1368 14.2411 21.0703Z" fill="#748BFD"/>
<path d="M9.43321 18.8523C9.5728 18.9328 9.70237 19.101 9.76311 19.2803L11.0069 22.9501C11.0303 23.0166 11.0427 23.0865 11.0437 23.1571L11.0412 24.0658C11.0409 24.1616 11.012 24.239 10.9597 24.2836L10.6375 24.558L10.4256 24.2396L10.7476 23.965C10.7612 23.9535 10.7686 23.9335 10.7688 23.9085L10.7713 22.9997C10.7713 22.9832 10.7682 22.9647 10.7618 22.946L9.51798 19.2764C9.50216 19.2299 9.46847 19.1862 9.43225 19.1653L8.45703 18.6022L8.45788 18.2892L9.43321 18.8523Z" fill="#566DF9"/>
<path d="M12.6679 16.9725L11.6925 16.4094L8.45801 18.2892L9.43322 18.8523C9.57282 18.9328 9.70238 19.101 9.76312 19.2804L12.9977 17.4006C12.9369 17.2211 12.8074 17.053 12.6679 16.9725Z" fill="#8FABFE"/>
</g>
<path d="M10.6312 24.544L6.73047 26.8109C6.73659 26.8073 6.74237 26.8032 6.74774 26.7986L10.6485 24.5317C10.6431 24.5363 10.6373 24.5404 10.6312 24.544ZM7.085 26.5112L10.9857 24.2443L10.6485 24.5317L6.74774 26.7986L7.085 26.5112Z" fill="#9EA9C9"/>
<path d="M7.14172 25.4157L7.13894 26.3676C7.13882 26.431 7.11962 26.4819 7.08496 26.5112L10.9857 24.2443C11.0205 24.2149 11.0396 24.1641 11.0397 24.1008L11.0425 23.1488L7.14172 25.4157ZM7.11744 25.2791C7.13338 25.3266 7.14184 25.3733 7.1416 25.4156L11.0425 23.1488C11.0418 23.1023 11.0337 23.0562 11.0183 23.0123L7.11744 25.2791Z" fill="#B0B8CF"/>
<path d="M5.81445 21.4356L9.71519 19.1688L11.0181 23.0122L7.1174 25.2791L5.81445 21.4356Z" fill="#C9CEE2"/>
<path d="M5.597 21.1534C5.68962 21.2067 5.77403 21.3164 5.8146 21.4357L7.11754 25.2792C7.13348 25.3266 7.14193 25.3734 7.14169 25.4156L7.13904 26.3677C7.13892 26.4311 7.11972 26.4819 7.08506 26.5112L6.74779 26.7986C6.70166 26.8383 6.63187 26.8364 6.55821 26.7939L2.99956 24.7393C2.86553 24.662 2.75733 24.4744 2.75781 24.3203L2.77061 19.8007C2.77098 19.6466 2.88002 19.5846 3.01393 19.6619L5.597 21.1534Z" fill="#9EA9C9"/>
<path d="M9.4984 18.8864L6.91546 17.3951C6.84783 17.3562 6.78685 17.3525 6.74278 17.3782L2.8418 19.645C2.88599 19.6194 2.94709 19.623 3.01448 19.6619L5.59754 21.1532C5.69016 21.2067 5.77457 21.3163 5.81514 21.4358L9.71588 19.1689C9.67531 19.0495 9.59102 18.9399 9.4984 18.8864Z" fill="#E3E7F0"/>
<path d="M6.48438 21.6867C7.2985 20.8462 8.29219 20.312 9.40869 19.9873L10.3491 22.7612C9.52558 23.5254 8.53708 24.0741 7.42481 24.4605L6.48438 21.6867Z" fill="#4C5C75"/>
<path d="M6.71875 21.7747L9.30133 20.2738L10.1147 22.6733L7.53215 24.1742L6.71875 21.7747Z" fill="#57B3FE"/>
<path d="M24.2588 15.1687L23.4893 12.8986C23.4498 12.782 23.3657 12.6727 23.275 12.6203L22.0522 11.9144C21.9858 11.8761 21.9257 11.8726 21.8822 11.8979L20.1445 12.9077C20.188 12.8825 20.2481 12.886 20.3144 12.9243L21.5372 13.6302C21.628 13.6826 21.712 13.7919 21.7517 13.9084L22.5211 16.1786C22.5368 16.225 22.5451 16.2716 22.545 16.3131L22.5438 16.7394C22.5436 16.8018 22.5247 16.8519 22.4907 16.881L22.4372 16.9267L24.1748 15.9168L24.2285 15.8712C24.2625 15.8422 24.2813 15.792 24.2816 15.7296L24.2828 15.3033C24.2821 15.2574 24.274 15.212 24.2588 15.1687Z" fill="#AA6256"/>
<path d="M23.6019 14.8853L22.5684 15.4859L22.6191 15.6355L23.8371 14.9276L23.6019 14.8853Z" fill="#8A4852"/>
<path d="M23.3281 13.4277L23.1436 13.535L23.6013 14.8854L23.8366 14.9277L23.3281 13.4277Z" fill="#51383C"/>
<path d="M23.1439 13.5349L22.1104 14.1355L22.5681 15.4859L23.6017 14.8853L23.1439 13.5349Z" fill="#BF7D5A"/>
<path d="M23.1439 13.5349L22.1104 14.1355L22.2479 14.6062L23.2999 13.9949L23.1439 13.5349Z" fill="#4C5C75"/>
<path d="M22.0612 14.8307L21.9203 14.8983L21.6084 13.9788L21.7517 13.9086L22.0612 14.8307Z" fill="#8A4852"/>
<g opacity="0.5">
<path d="M22.582 16.4522L22.5796 17.361C22.5792 17.4567 22.5502 17.5341 22.498 17.5787L22.1758 17.8532L25.4104 15.9735L25.7325 15.699C25.7849 15.6544 25.8138 15.5771 25.8141 15.4812L25.8167 14.5724L22.582 16.4522Z" fill="#678AEE"/>
<path d="M25.7793 14.3654L24.5354 10.6957L21.3008 12.5755L22.5447 16.2452C22.5688 16.3167 22.5816 16.3882 22.5814 16.4522L25.816 14.5724C25.8151 14.5019 25.8027 14.432 25.7793 14.3654Z" fill="#748BFD"/>
<path d="M20.9713 12.1473C21.1109 12.2279 21.2405 12.3961 21.3012 12.5754L22.5451 16.2451C22.5692 16.3166 22.582 16.3881 22.5818 16.4521L22.5794 17.3609C22.579 17.4567 22.55 17.5341 22.4978 17.5786L22.1756 17.8531L21.9637 17.5347L22.2857 17.2601C22.2992 17.2486 22.3068 17.2285 22.3068 17.2035L22.3094 16.2947C22.3094 16.2782 22.3062 16.2597 22.2998 16.241L21.0561 12.5714C21.0404 12.5249 21.0066 12.4812 20.9705 12.4603L19.9951 11.8972L19.9961 11.5842L20.9713 12.1473Z" fill="#566DF9"/>
<path d="M24.206 10.2675L23.2306 9.70447L19.9961 11.5843L20.9713 12.1473C21.1109 12.2279 21.2405 12.3961 21.3012 12.5754L24.5359 10.6956C24.475 10.5162 24.3454 10.3482 24.206 10.2675Z" fill="#8FABFE"/>
</g>
<path d="M9.05225 16.2478L9.04948 17.2104C9.04948 17.2554 9.01965 17.3003 8.96024 17.3348C8.84129 17.4039 8.64736 17.4041 8.52673 17.3346C8.46647 17.2998 8.4364 17.2539 8.43652 17.2083L8.4393 16.2456C8.43918 16.2914 8.46925 16.3371 8.52951 16.3719C8.65014 16.4416 8.84407 16.4413 8.96301 16.3722C9.02243 16.3376 9.05213 16.2927 9.05225 16.2478Z" fill="#4C5C75"/>
<path d="M8.96128 16.1211C9.08204 16.1908 9.083 16.3026 8.96321 16.3723C8.84427 16.4414 8.65034 16.4416 8.5297 16.3719C8.40992 16.3029 8.40931 16.1902 8.52825 16.1211C8.64804 16.0514 8.84161 16.0521 8.96128 16.1211Z" fill="#4C5C75"/>
<path d="M9.43244 16.2727C9.81644 16.4943 9.81765 16.8521 9.43776 17.0729C9.05714 17.2941 8.43948 17.2946 8.0556 17.0729C7.67317 16.8521 7.67124 16.494 8.05185 16.2727C8.43175 16.052 9.05001 16.052 9.43244 16.2727Z" fill="#497BFE"/>
<path d="M9.71624 16.6164L7.77148 16.6212L8.1288 14.7258H9.35844L9.71624 16.6164Z" fill="#497BFE"/>
<path d="M9.17957 14.5128C9.42277 14.6532 9.42349 14.8799 9.18295 15.0196C8.9418 15.1597 8.55056 15.1601 8.30748 15.0196C8.06524 14.8798 8.06392 14.6529 8.30506 14.5128C8.54561 14.373 8.93734 14.373 9.17957 14.5128Z" fill="#57B3FE"/>
<path d="M8.97746 14.6309C9.10739 14.7059 9.10788 14.827 8.97927 14.9016C8.85043 14.9765 8.6414 14.9767 8.51159 14.9016C8.38214 14.827 8.38141 14.7058 8.51026 14.6309C8.63886 14.5561 8.84801 14.5561 8.97746 14.6309Z" fill="#4C5C75"/>
<path d="M13.0902 13.9013L13.0876 14.8639C13.0874 14.9089 13.0577 14.9538 12.9982 14.9883C12.8794 15.0574 12.6854 15.0577 12.5647 14.988C12.5046 14.9532 12.4745 14.9075 12.4746 14.8617L12.4773 13.8992C12.4773 13.9448 12.5072 13.9907 12.5675 14.0255C12.6882 14.095 12.8822 14.0948 13.001 14.0257C13.0604 13.9912 13.09 13.9463 13.0902 13.9013Z" fill="#4C5C75"/>
<path d="M12.9994 13.7745C13.12 13.8442 13.1211 13.956 13.0012 14.0257C12.8824 14.0948 12.6885 14.095 12.5677 14.0254C12.448 13.9563 12.4474 13.8437 12.5663 13.7745C12.6862 13.705 12.8797 13.7054 12.9994 13.7745Z" fill="#4C5C75"/>
<path d="M13.4697 13.9262C13.8535 14.1479 13.8548 14.5057 13.4749 14.7264C13.0942 14.9476 12.4765 14.948 12.0928 14.7264C11.7103 14.5057 11.7083 14.1474 12.0889 13.9262C12.4688 13.7054 13.0874 13.7054 13.4697 13.9262Z" fill="#FEBC1F"/>
<path d="M13.7543 14.2698L11.8096 14.2746L12.1668 12.3793H13.3965L13.7543 14.2698Z" fill="#FEBC1F"/>
<path d="M13.2176 12.1661C13.4608 12.3066 13.4617 12.5332 13.221 12.6731C12.98 12.8131 12.5887 12.8134 12.3455 12.6731C12.1033 12.5332 12.1021 12.3063 12.3431 12.1662C12.5838 12.0263 12.9755 12.0263 13.2177 12.1662L13.2176 12.1661Z" fill="#FFD06C"/>
<path d="M13.0146 12.2844C13.1445 12.3593 13.145 12.4804 13.0164 12.5552C12.8876 12.63 12.6785 12.6301 12.5486 12.5552C12.4193 12.4804 12.4185 12.3592 12.5474 12.2844C12.6759 12.2096 12.885 12.2096 13.0146 12.2844Z" fill="#4C5C75"/>
<path d="M17.1274 11.5547L17.1247 12.5173C17.1247 12.5622 17.0948 12.6072 17.0354 12.6417C16.9166 12.7108 16.7227 12.7111 16.6019 12.6415C16.5417 12.6067 16.5116 12.5609 16.5117 12.5151L16.5145 11.5525C16.5144 11.5983 16.5444 11.644 16.6047 11.6788C16.7253 11.7485 16.9193 11.7482 17.0382 11.679C17.0976 11.6445 17.1273 11.5997 17.1274 11.5547Z" fill="#4C5C75"/>
<path d="M17.0364 11.428C17.1572 11.4977 17.1582 11.6095 17.0384 11.6792C16.9194 11.7482 16.7255 11.7485 16.6049 11.6788C16.4852 11.6097 16.4845 11.4971 16.6034 11.428C16.7233 11.3583 16.9168 11.3589 17.0364 11.428Z" fill="#4C5C75"/>
<path d="M17.5077 11.5796C17.8916 11.8012 17.8929 12.159 17.5129 12.3797C17.1323 12.601 16.5146 12.6014 16.1307 12.3797C15.7484 12.159 15.7464 11.8008 16.127 11.5796C16.5069 11.3589 17.1253 11.3589 17.5077 11.5796Z" fill="#72D561"/>
<path d="M17.7924 11.9233L15.8477 11.9281L16.205 10.0327H17.4347L17.7924 11.9233Z" fill="#72D561"/>
<path d="M17.2559 9.81972C17.4989 9.96003 17.4998 10.1866 17.2591 10.3264C17.018 10.4665 16.6267 10.4668 16.3837 10.3264C16.1414 10.1866 16.1401 9.95967 16.3812 9.8196C16.6219 9.67976 17.0136 9.67976 17.2557 9.8196L17.2559 9.81972Z" fill="#78E75A"/>
<path d="M17.0528 9.93777C17.1827 10.0128 17.1832 10.1339 17.0545 10.2086C16.9257 10.2835 16.7167 10.2835 16.5868 10.2086C16.4573 10.1338 16.4566 10.0126 16.5856 9.93777C16.714 9.86303 16.9233 9.86303 17.0528 9.93777Z" fill="#4C5C75"/>
<path d="M21.1655 9.20811L21.1628 10.1706C21.1626 10.2157 21.1329 10.2606 21.0735 10.295C20.9546 10.3642 20.7606 10.3645 20.64 10.2948C20.5798 10.26 20.5497 10.2142 20.5498 10.1686L20.5526 9.20593C20.5525 9.2517 20.5825 9.29746 20.6427 9.33224C20.7634 9.40192 20.9574 9.40156 21.0762 9.33248C21.1357 9.29795 21.1654 9.25303 21.1655 9.20811Z" fill="#4C5C75"/>
<path d="M21.0746 9.08137C21.1952 9.15105 21.1963 9.26287 21.0765 9.33254C20.9576 9.40162 20.7635 9.40198 20.643 9.3323C20.5232 9.26323 20.5226 9.15057 20.6415 9.08149C20.7613 9.01182 20.9549 9.01218 21.0746 9.08137Z" fill="#4C5C75"/>
<path d="M21.5458 9.23315C21.9298 9.45474 21.931 9.81253 21.5511 10.0333C21.1705 10.2545 20.5528 10.2549 20.1689 10.0333C19.7865 9.81253 19.7844 9.45425 20.1652 9.23315C20.5451 9.01229 21.1635 9.01229 21.5458 9.23315Z" fill="#DF3260"/>
<path d="M21.8305 9.57669L19.8857 9.58152L20.2429 7.68616H21.4727L21.8305 9.57669Z" fill="#DF3260"/>
<path d="M21.2939 7.47316C21.5371 7.61348 21.5378 7.84014 21.2973 7.97997C21.0561 8.12004 20.6649 8.12041 20.4218 7.97997C20.1794 7.84014 20.1782 7.61324 20.4194 7.47316C20.6599 7.33333 21.0516 7.33333 21.2939 7.47316Z" fill="#F45170"/>
<path d="M21.0908 7.59119C21.2207 7.66605 21.2212 7.78717 21.0926 7.86192C20.9637 7.93679 20.7547 7.93691 20.6248 7.86192C20.4954 7.78717 20.4947 7.66605 20.6236 7.59119C20.7522 7.51632 20.9614 7.51632 21.0909 7.59119H21.0908Z" fill="#4C5C75"/>
<path d="M20.7972 20.7488L20.7839 23.1494L19.1699 21.6945L20.7972 20.7488Z" fill="white"/>
<path d="M20.7837 23.1494L15.0732 26.3253V24.066L19.1697 21.6946L20.7837 23.1494Z" fill="#DEDFFB"/>
<path d="M13.0681 26.6607C13.1458 26.6157 13.2091 26.652 13.2093 26.7411C13.2096 26.8304 13.1468 26.9395 13.069 26.9843C12.9913 27.0292 12.928 26.9931 12.9277 26.9037C12.9275 26.8144 12.9904 26.7056 13.0681 26.6607Z" fill="white"/>
<path d="M13.1502 26.5581C13.1147 26.5375 13.0657 26.5403 13.0114 26.5716C12.904 26.6337 12.817 26.7841 12.8174 26.9078C12.8176 26.9692 12.8392 27.0125 12.8743 27.0328L12.9315 27.0661C12.8965 27.0457 12.8747 27.0024 12.8747 26.941C12.8744 26.8174 12.9612 26.6669 13.0688 26.6049C13.1229 26.5735 13.1719 26.5707 13.2074 26.5913L13.1502 26.5581Z" fill="#1D2943"/>
<path d="M13.0681 26.605C13.1755 26.5429 13.2631 26.5926 13.2635 26.7162C13.2638 26.8398 13.1768 26.9904 13.0693 27.0525C12.9618 27.1145 12.8743 27.0647 12.874 26.941C12.8737 26.8175 12.9605 26.6669 13.0681 26.605ZM13.0692 26.9905C13.1469 26.9456 13.2097 26.8367 13.2095 26.7473C13.2092 26.6581 13.146 26.622 13.0682 26.6669C12.9904 26.7117 12.9276 26.8208 12.9279 26.91C12.9281 26.9993 12.9914 27.0355 13.0692 26.9905Z" fill="#4C5C75"/>
<path d="M23.436 19.8117C23.436 19.9361 23.3491 20.0871 23.2416 20.1486C23.1849 20.1812 23.1342 20.1825 23.0979 20.1583L23.046 20.1293C23.011 20.1088 22.9893 20.0653 22.9893 20.0037C22.9893 19.8806 23.0762 19.7296 23.1837 19.668C23.2368 19.6366 23.2863 19.6342 23.3213 19.6548L23.3793 19.6874C23.3771 19.686 23.3746 19.6852 23.3721 19.6849C23.4119 19.7031 23.436 19.7477 23.436 19.8117Z" fill="#1D2943"/>
<path d="M23.2409 19.7568C23.3187 19.712 23.3819 19.7481 23.3822 19.8373C23.3824 19.9267 23.3196 20.0356 23.2419 20.0805C23.1641 20.1255 23.1008 20.0892 23.1006 19.9999C23.1003 19.9106 23.1631 19.8018 23.2409 19.7568Z" fill="white"/>
<path d="M23.3219 19.6542C23.2866 19.6337 23.2374 19.6366 23.1833 19.6679C23.0758 19.7299 22.9889 19.8804 22.9893 20.0039C22.9894 20.0655 23.0111 20.1086 23.046 20.1289L23.1034 20.1622C23.0684 20.1419 23.0466 20.0987 23.0466 20.0372C23.0461 19.9137 23.1331 19.7631 23.2405 19.7011C23.2946 19.6698 23.3438 19.6669 23.3792 19.6875L23.3219 19.6542Z" fill="#1D2943"/>
<path d="M23.2404 19.7012C23.3479 19.639 23.4356 19.6888 23.4359 19.8123C23.4363 19.9361 23.3492 20.0866 23.2418 20.1487C23.1343 20.2108 23.0467 20.1608 23.0464 20.0373C23.046 19.9137 23.133 19.7633 23.2404 19.7012ZM23.2416 20.0868C23.3193 20.0418 23.3821 19.9329 23.3818 19.8436C23.3816 19.7542 23.3184 19.7181 23.2406 19.763C23.1629 19.8079 23.1 19.9169 23.1002 20.0061C23.1006 20.0955 23.1638 20.1317 23.2415 20.0868M7.8843 13.5473C7.86764 13.5374 7.84445 13.5388 7.81909 13.5537C7.76838 13.5829 7.72696 13.6543 7.72696 13.7126C7.72696 13.7416 7.73722 13.762 7.75389 13.7714L7.28536 13.4997C7.26906 13.4898 7.25879 13.4696 7.25879 13.4405C7.25843 13.382 7.29985 13.3107 7.35056 13.2815C7.37641 13.2667 7.39923 13.2656 7.41589 13.275L7.8843 13.5473Z" fill="#4C5C75"/>
<path d="M7.8187 13.5535C7.86942 13.5241 7.91047 13.5479 7.91071 13.6064C7.91084 13.6648 7.87002 13.7357 7.81918 13.7652C7.76834 13.7946 7.72681 13.7711 7.72656 13.7126C7.72632 13.6542 7.76762 13.5829 7.81858 13.5536L7.8187 13.5535Z" fill="#1D2943"/>
<path d="M12.0825 11.1217C12.0659 11.1118 12.0427 11.1133 12.0173 11.1281C11.9666 11.1574 11.9252 11.2287 11.9252 11.2872C11.9252 11.3159 11.9355 11.3364 11.9521 11.346L11.4836 11.0742C11.4673 11.0642 11.457 11.0441 11.457 11.015C11.4567 10.9565 11.4981 10.8852 11.5488 10.8559C11.5746 10.8411 11.5975 10.84 11.6141 10.8495L12.0825 11.1217Z" fill="#4C5C75"/>
<path d="M12.0179 11.1282C12.0686 11.0989 12.1097 11.1225 12.1099 11.181C12.1101 11.2394 12.0692 11.3103 12.0184 11.3398C11.9676 11.3691 11.926 11.3457 11.9258 11.2872C11.9257 11.2288 11.9671 11.1575 12.0179 11.1282Z" fill="#1D2943"/>
<path d="M16.2818 8.6577C16.2651 8.6478 16.2419 8.64937 16.2166 8.66422C16.1658 8.69332 16.1244 8.76469 16.1244 8.82314C16.1244 8.852 16.1347 8.8724 16.1513 8.88194L15.6828 8.61025C15.6665 8.60022 15.6563 8.58006 15.6563 8.55096C15.6559 8.49251 15.6973 8.42114 15.748 8.39192C15.7739 8.37719 15.7967 8.37598 15.8134 8.38552L16.2818 8.6577Z" fill="#4C5C75"/>
<path d="M16.2162 8.66421C16.2669 8.63487 16.3079 8.65853 16.3082 8.71698C16.3084 8.77543 16.2675 8.84643 16.2166 8.87577C16.1658 8.90512 16.1243 8.88181 16.124 8.82324C16.1238 8.76468 16.1653 8.69355 16.2162 8.66421Z" fill="#1D2943"/>
<path d="M20.48 6.15239C20.4633 6.14249 20.4402 6.14394 20.4148 6.15879C20.3641 6.18801 20.3227 6.25926 20.3227 6.31771C20.3227 6.34657 20.3329 6.36709 20.3496 6.37651L19.8811 6.10481C19.8648 6.09491 19.8545 6.07475 19.8545 6.04565C19.8541 5.98708 19.8956 5.91583 19.9463 5.88661C19.9721 5.87176 19.9949 5.87067 20.0116 5.88009L20.4801 6.15227L20.48 6.15239Z" fill="#4C5C75"/>
<path d="M20.4144 6.15872C20.4651 6.12937 20.5062 6.15304 20.5064 6.21149C20.5065 6.26993 20.4657 6.34094 20.4149 6.37028C20.364 6.39962 20.3225 6.37632 20.3223 6.31787C20.3223 6.25931 20.3636 6.18818 20.4144 6.15872Z" fill="#1D2943"/>
<path d="M24.6782 3.66979C24.6616 3.66013 24.6384 3.66158 24.613 3.67631C24.5623 3.70553 24.5209 3.7769 24.5209 3.83534C24.5209 3.86408 24.5312 3.88461 24.5478 3.89415L24.0793 3.62233C24.063 3.61243 24.0527 3.59238 24.0527 3.56316C24.0524 3.50472 24.0938 3.43335 24.1445 3.40413C24.1704 3.3894 24.1932 3.38819 24.2098 3.39773L24.6784 3.66991L24.6782 3.66979Z" fill="#4C5C75"/>
<path d="M24.6136 3.6763C24.6643 3.64695 24.7054 3.67062 24.7056 3.72907C24.7058 3.78751 24.6649 3.85851 24.6141 3.88786C24.5633 3.9172 24.5217 3.8939 24.5215 3.83533C24.5215 3.77688 24.5627 3.70564 24.6135 3.6763H24.6136Z" fill="#1D2943"/>
<path d="M16.8507 27.0872V26.8071L16.8495 26.6247V26.3434L16.8483 26.0451L16.8471 25.3387H16.8459L15.6045 23.7556L18.3662 22.1616L19.6075 23.7447L19.6099 24.4511V24.7482L19.6111 25.0308V25.2131L19.6123 25.4932L16.8507 27.0872Z" fill="#E93565"/>
<path d="M15.6045 23.7555L16.8463 25.3389L19.6076 23.7447L18.3658 22.1613L15.6045 23.7555Z" fill="#F45170"/>
<path d="M19.612 25.4935L16.8509 27.0876L16.8502 26.807L16.8497 26.6244L16.8492 26.3428L16.8484 26.0454L16.8467 25.339L19.6077 23.7449L19.6094 24.451V24.4513L19.6103 24.7487L19.6108 25.0304L19.6112 25.2126L19.612 25.4935Z" fill="#E93565"/>
<path d="M19.6105 24.7487L16.8495 26.3428L16.8486 26.0454L19.6097 24.4513L19.6105 24.7487ZM19.6115 25.2127L16.8504 26.807L16.85 26.6244L19.611 25.0304L19.6115 25.2127Z" fill="#FFD06C"/>
</svg>
