<svg width="33" height="32" viewBox="0 0 33 32" fill="none" xmlns="http://www.w3.org/2000/svg">
<path d="M28.8715 3.65376C24.8609 5.31456 7.66506 12.4374 2.9137 14.3789C-0.272862 15.6224 1.59242 16.7882 1.59242 16.7882C1.59242 16.7882 4.31242 17.7206 6.64394 18.4202C8.97546 19.1197 10.219 18.3424 10.219 18.3424L21.1771 10.959C25.0628 8.3168 24.1303 10.4928 23.1979 11.4253C21.1771 13.4461 17.8353 16.6323 15.0375 19.1971C13.794 20.2851 14.4158 21.2179 14.9598 21.6842C16.9806 23.3939 22.4983 26.8912 22.8094 27.1245C24.4513 28.2867 27.6807 29.96 28.1719 26.425L30.115 14.2234C30.7367 10.1043 31.3585 6.296 31.4363 5.208C31.6692 2.56576 28.8715 3.65376 28.8715 3.65376Z" fill="white"/>
</svg>
