<svg width="32" height="32" viewBox="0 0 32 32" fill="none" xmlns="http://www.w3.org/2000/svg">
<path d="M16.5609 9.94221V10.9907L30.9528 19.3059C30.8949 19.2722 30.8586 19.2008 30.8586 19.0988C30.8579 18.8947 31.0016 18.646 31.1789 18.5431C31.2684 18.4913 31.35 18.4866 31.4081 18.5204L16.5609 9.94221Z" fill="#F45170"/>
<path d="M22.8056 12.1182L25.4441 10.5845L25.4526 6.92335L22.8141 8.45694L22.8056 12.1182ZM25.4526 6.91611L24.1255 4.6109L21.487 6.14449L22.8141 8.44957L25.4526 6.91611Z" fill="#F3F1FC"/>
<path d="M22.8138 8.45706L25.4532 6.92323L25.4446 10.5844L22.8053 12.1182L22.8138 8.45706Z" fill="#E9E7FC"/>
<path d="M21.4864 6.14412L24.1257 4.61029L25.4532 6.91598L22.8138 8.44981L21.4864 6.14412Z" fill="#F3F1FC"/>
<path d="M21.4864 6.15136L22.8138 8.45706L22.8053 11.4453L21.4692 12.213L18.036 10.2309L18.0532 4.1693L21.4864 6.15136Z" fill="#DEDFFB"/>
<path d="M11.8889 21.6216L26.7053 13.0113L26.6843 17.8486L11.8679 26.2757L11.8889 21.6216Z" fill="#AFB2B9"/>
<path d="M1.1078 15.3972L16.7495 7.2634L26.7053 13.0113L11.8889 21.6216L1.1078 15.3972Z" fill="#1D2943"/>
<path d="M11.8889 21.6216L11.8679 27.3831L1.08679 21.1586L1.1078 15.3972L11.8889 21.6216Z" fill="#111D33"/>
<path d="M30.5159 16.1949L30.5038 21.4091C30.5026 21.688 30.3191 21.9658 29.9543 22.1783L17.7943 29.2449C17.0577 29.6723 15.8598 29.6723 15.1196 29.2449L11.8676 27.3828L11.8882 21.6204L26.7132 13.0058L29.9579 15.4148C30.331 15.6298 30.517 15.9123 30.5158 16.1949H30.5159Z" fill="#111D33"/>
<path d="M29.9668 16.9636L17.8068 24.0303C17.0705 24.4583 15.8733 24.4578 15.1321 24.0298L11.8881 21.6208L11.8679 27.3831L15.1192 29.2444C15.8604 29.6722 17.0576 29.6727 17.7939 29.2447L29.9539 22.1782C30.3195 21.9656 30.5024 21.6878 30.5032 21.4093L30.5162 16.1949C30.5154 16.4732 30.3325 16.7512 29.9668 16.9637V16.9636Z" fill="#111D33"/>
<path d="M29.9573 15.4143C30.6985 15.8423 30.7032 16.5358 29.967 16.9636L17.807 24.0303C17.0705 24.4583 15.8733 24.4578 15.1323 24.0298L11.8881 21.6208L26.7131 13.0053L29.9573 15.4143Z" fill="#4C5C75"/>
<path d="M16.4722 23.9766C16.0465 23.9766 15.6341 23.8817 15.3371 23.7156L12.5677 21.6589L26.688 13.453L29.7516 15.7279L29.7701 15.7388C30.0061 15.8749 30.1416 16.0404 30.1417 16.1928C30.142 16.3427 30.0096 16.5057 29.7787 16.6399L17.6187 23.7064C17.3235 23.8782 16.9057 23.9766 16.4722 23.9766Z" fill="#F8F9FE"/>
<path d="M24.8548 13.2678L12.0959 20.6338L6.15717 17.1827V16.8953L12.0947 20.3463L24.8536 12.9803L24.8548 13.2678Z" fill="#9EA9C9"/>
<path d="M6.15668 16.8955L6.15752 17.1829L12.0956 20.6338L12.0948 20.3465L6.15668 16.8955Z" fill="#9EA9C9"/>
<path d="M12.0948 20.3464L12.0956 20.6338L24.8543 13.2677L24.8535 12.9802L12.0948 20.3464Z" fill="#E9E7FC"/>
<path d="M6.15668 16.8955L12.0948 20.3464L24.8535 12.9802L18.9154 9.52924L6.15668 16.8955Z" fill="#57B3FE"/>
<path d="M6.15668 16.8955L9.6873 18.9473L22.4459 11.581L18.9154 9.52924L6.15668 16.8955Z" fill="#5094FF"/>
<path d="M22.8183 8.45295L22.8108 10.662L5.39556 20.783L5.40305 18.5739L22.8183 8.45295ZM24.1261 4.61717L20.693 2.63559L18.0581 4.16676L18.0533 4.16917L0.642899 14.2872L4.07596 16.2688L4.07909 16.2669L5.40353 18.5664L22.8187 8.44582L21.4943 6.14641L24.1261 4.61717Z" fill="#E9E7FC"/>
<path d="M4.0762 16.2618L21.4913 6.14122L22.8187 8.44582L5.40354 18.5664L4.0762 16.2618Z" fill="#F3F1FC"/>
<path d="M24.1261 4.61717L21.4912 6.14834L21.4852 6.15197L4.07596 16.2688L0.642899 14.2872L18.0533 4.16917L18.0581 4.16676L20.693 2.63559L24.1261 4.61717Z" fill="#E9E7FC"/>
<path d="M1.84755 14.2782L18.3377 4.69494L18.3615 4.68154L20.694 3.32607L22.9213 4.61162L4.07487 15.5638L1.84755 14.2782Z" fill="#C6C8E5"/>
<path d="M4.0762 16.269L5.40353 18.5736L5.39532 20.3917L0.630341 17.6407L0.64302 14.2868L4.0762 16.269Z" fill="#DEDFFB"/>
<path d="M13.583 25.7911C13.5823 25.8931 13.5459 25.965 13.4882 25.9988L12.5593 26.5627C12.6179 26.5287 12.6543 26.4567 12.6543 26.3541C12.655 26.1487 12.5104 25.8983 12.3318 25.7947C12.2418 25.7426 12.1596 25.7379 12.1012 25.7717L13.0292 25.209C13.0876 25.1749 13.1699 25.1796 13.2598 25.2318C13.4393 25.3345 13.583 25.585 13.583 25.7911Z" fill="#B0B8CF"/>
<path d="M12.3317 25.7948C12.5107 25.898 12.655 26.1486 12.6545 26.3541C12.6539 26.5598 12.5085 26.6432 12.3297 26.5399C12.1508 26.4367 12.0057 26.1855 12.0062 25.9799C12.0068 25.7742 12.1528 25.6914 12.3317 25.7948Z" fill="#DEDFFB"/>
<path d="M8.8605 23.1096C8.85978 23.2115 8.82343 23.2834 8.76571 23.3173L7.83687 23.8811C7.89543 23.847 7.93178 23.7752 7.93178 23.6725C7.9325 23.467 7.78796 23.2167 7.60936 23.1131C7.51928 23.061 7.43717 23.0563 7.37872 23.0901L8.30672 22.5274C8.36517 22.4933 8.4474 22.4981 8.53736 22.5502C8.71681 22.6529 8.8605 22.9034 8.8605 23.1096Z" fill="#B0B8CF"/>
<path d="M7.60923 23.1132C7.78819 23.2164 7.93261 23.467 7.93201 23.6725C7.93141 23.8782 7.78602 23.9616 7.60718 23.8584C7.4281 23.755 7.28319 23.5039 7.28368 23.2983C7.28428 23.0926 7.43027 23.0098 7.60923 23.1132Z" fill="#DEDFFB"/>
<path d="M1.51982 19.4159V20.4644L15.9119 28.7796C15.8539 28.7459 15.8177 28.6745 15.8177 28.5725C15.8169 28.3684 15.9605 28.1197 16.1379 28.0168C16.2274 27.965 16.309 27.9603 16.3671 27.9941L1.51982 19.4159Z" fill="#F45170"/>
<path d="M16.4732 28.2039C16.4745 28.4092 16.3295 28.6604 16.1508 28.7642C16.0542 28.8186 15.9685 28.821 15.9093 28.7775C15.9129 28.7812 15.9166 28.7836 15.9202 28.786L15.6086 28.6049C15.5507 28.571 15.5145 28.4986 15.5132 28.3972C15.5132 28.1907 15.6569 27.9407 15.8369 27.8369C15.9262 27.7849 16.0083 27.7801 16.0675 27.8151L16.3791 27.995C16.375 27.9923 16.3705 27.9903 16.3658 27.989C16.4322 28.0192 16.4732 28.0941 16.4732 28.2039Z" fill="#B0B8CF"/>
<path d="M15.5134 28.3967C15.5142 28.4987 15.5506 28.5706 15.6082 28.6045L15.9206 28.7863C15.8621 28.7524 15.8258 28.6806 15.8258 28.5778C15.825 28.3724 15.9695 28.122 16.1482 28.0185C16.2381 27.9663 16.3204 27.9616 16.3788 27.9955L16.0673 27.8144C16.0087 27.7806 15.9266 27.7853 15.8366 27.8373C15.6572 27.94 15.5134 28.1905 15.5134 28.3967Z" fill="#B0B8CF"/>
<path d="M16.1483 28.0185C15.9693 28.1218 15.8249 28.3723 15.8255 28.5778C15.8261 28.7835 15.9714 28.867 16.1503 28.7638C16.3293 28.6605 16.4743 28.4092 16.4737 28.2036C16.4731 27.998 16.3272 27.9151 16.1483 28.0185Z" fill="#DEDFFB"/>
<path d="M14.8637 13.5627C14.9619 13.5059 15.0528 13.516 15.0992 13.5885L15.4957 14.202C15.546 14.2804 15.4791 14.4496 15.3726 14.5111L8.11279 18.7C8.03563 18.7444 7.97247 18.7084 7.97223 18.6192L7.96957 17.702C7.96933 17.6128 8.03213 17.5041 8.10917 17.4596L14.8637 13.5627ZM24.7068 7.886C24.7844 7.84132 24.8476 7.87719 24.8478 7.96643L24.8505 8.88356C24.8507 8.9728 24.7879 9.0816 24.7104 9.12628L22.2823 10.5282C22.1753 10.5899 22.1075 10.4984 22.1578 10.362L22.5495 9.29328C22.5954 9.16757 22.686 9.05274 22.7841 8.9961L24.7068 7.886ZM21.834 9.54469C21.9084 9.5017 21.9613 9.55302 21.9403 9.64697L21.6891 10.7794C21.6751 10.8412 21.6318 10.9038 21.5829 10.9319L16.3793 13.9307C16.3305 13.959 16.2869 13.9467 16.2727 13.9012L15.8494 13.1485C15.8285 13.0786 15.8809 12.9665 15.9553 12.9235L21.834 9.54469Z" fill="#4C5C75"/>
<path d="M19.3523 2.43454L18.3995 2.5594L16.0662 3.91535L16.063 5.04224L17.9789 6.14847L20.3122 4.79252L20.3172 2.9917L19.3523 2.43454Z" fill="#9EA9C9"/>
<path d="M16.0662 3.91535L18.3995 2.5594L19.3523 2.43454L17.0191 3.79049L16.0662 3.91535Z" fill="#E3E7F0"/>
<path d="M17.984 4.34753L20.3172 2.9917L20.3122 4.79251L17.9789 6.14847L17.984 4.34753Z" fill="#B0B8CF"/>
<path d="M17.019 3.79049L19.3523 2.43454L20.3172 2.9917L17.984 4.34754L17.019 3.79049Z" fill="#C9CEE2"/>
<path d="M17.984 4.34754L17.9789 6.14847L16.063 5.04236L16.0662 3.91536L17.019 3.7905L17.984 4.34754Z" fill="#9EA9C9"/>
<path d="M18.4016 3.48535L18.4012 3.88565C18.4011 3.93033 18.3716 3.97501 18.3129 4.00918C18.1946 4.07801 18.0021 4.07801 17.8831 4.00918C17.8232 3.97465 17.7933 3.92936 17.7935 3.88408L17.7939 3.48378C17.7938 3.52906 17.8236 3.57435 17.8835 3.60888C18.0026 3.67771 18.1951 3.67771 18.3134 3.60888C18.3721 3.57483 18.4016 3.53003 18.4016 3.48535Z" fill="#4C5C75"/>
<path d="M18.45 3.46374L18.4488 3.6026C18.4488 3.65574 18.415 3.70766 18.3461 3.74751C18.2073 3.82841 17.9815 3.82841 17.8414 3.74751C17.7713 3.70766 17.7363 3.65453 17.7363 3.6014V3.46253C17.7363 3.4106 17.7713 3.35747 17.8402 3.31762C17.979 3.23672 18.2049 3.23672 18.3449 3.31762C18.415 3.35747 18.45 3.4106 18.45 3.46374Z" fill="#9EA9C9"/>
<path d="M18.4497 3.46409L18.4493 3.60284C18.4493 3.65537 18.4146 3.70778 18.3457 3.74775C18.2069 3.82853 17.9811 3.82853 17.8415 3.74775C17.7712 3.70729 17.7362 3.65416 17.7365 3.60103L17.7369 3.4624C17.7367 3.51553 17.7717 3.56867 17.842 3.60912C17.9817 3.68978 18.2074 3.68978 18.3463 3.60912C18.4151 3.56915 18.4496 3.5165 18.4497 3.46409Z" fill="#9EA9C9"/>
<path d="M18.3446 3.31714C18.4843 3.39768 18.485 3.52846 18.3463 3.60912C18.2075 3.68979 17.9816 3.68979 17.842 3.60912C17.7023 3.52858 17.7019 3.3978 17.8407 3.31726C17.9794 3.23671 18.2049 3.23635 18.3446 3.31714Z" fill="white"/>
<path d="M19.5518 2.81697L19.5513 3.21727C19.5513 3.26195 19.5218 3.30663 19.463 3.3408C19.3447 3.40963 19.1522 3.40963 19.0331 3.3408C18.9733 3.30627 18.9434 3.26098 18.9435 3.2157L18.944 2.8154C18.9439 2.86068 18.9737 2.90597 19.0336 2.9405C19.1527 3.00933 19.3451 3.00933 19.4635 2.9405C19.5222 2.90645 19.5518 2.86165 19.5518 2.81697Z" fill="#4C5C75"/>
<path d="M19.5996 2.79583V2.9347C19.5996 2.98662 19.5646 3.03975 19.4957 3.0796C19.3569 3.16051 19.1311 3.16051 18.9922 3.0796C18.9209 3.03855 18.8859 2.98541 18.8859 2.93228L18.8871 2.79462C18.8871 2.74149 18.9222 2.68836 18.991 2.64851C19.1298 2.5676 19.3545 2.5676 19.4945 2.64851C19.5658 2.68957 19.6008 2.7427 19.5996 2.79583Z" fill="#9EA9C9"/>
<path d="M19.5999 2.79583L19.5995 2.93446C19.5992 2.98699 19.5648 3.03952 19.4958 3.07936C19.357 3.16015 19.1312 3.16015 18.9916 3.07936C18.9214 3.03891 18.8864 2.98578 18.8865 2.93265L18.887 2.79402C18.8869 2.84715 18.9219 2.90029 18.9921 2.94074C19.1318 3.0214 19.3576 3.0214 19.4963 2.94074C19.5652 2.90077 19.5997 2.84824 19.5999 2.79583Z" fill="#9EA9C9"/>
<path d="M19.4946 2.64876C19.6344 2.72942 19.6351 2.86008 19.4963 2.94074C19.3576 3.02141 19.1317 3.02141 18.9921 2.94074C18.8525 2.8602 18.852 2.72942 18.9907 2.64888C19.1295 2.56833 19.3551 2.56809 19.4946 2.64876Z" fill="white"/>
<path d="M16.3072 5.18363L16.0633 5.32552V5.04175L16.3072 5.18363Z" fill="#9EA9C9"/>
<path d="M26.8852 15.1592C26.9794 15.2292 27.0213 15.3169 27.0108 15.3983L27.0469 15.1167C27.0573 15.0352 27.0155 14.9476 26.9211 14.8776C26.7484 14.7492 26.4668 14.7271 26.2912 14.8286C26.2127 14.8738 26.169 14.9364 26.1605 15.0032L26.1246 15.2849C26.133 15.2181 26.1767 15.1556 26.2552 15.1103C26.4308 15.0089 26.7124 15.0308 26.8852 15.1592Z" fill="#4C5C75"/>
<path d="M26.1605 15.0032L26.1246 15.2849C26.1142 15.3665 26.1562 15.4546 26.2512 15.5252C26.4231 15.653 26.7047 15.6748 26.8792 15.574C26.9584 15.5283 27.0023 15.4653 27.0108 15.3984L27.0469 15.1167C27.0383 15.1837 26.9944 15.2466 26.9153 15.2923C26.7407 15.3931 26.459 15.3712 26.2872 15.2435C26.1922 15.1728 26.1502 15.0848 26.1605 15.0032Z" fill="#F45170"/>
<path d="M27.2361 15.1407L27.2349 15.1528L27.1999 15.4221C27.1878 15.5187 27.125 15.608 27.0127 15.6732C26.7615 15.8169 26.3606 15.7867 26.1155 15.6044C25.9791 15.503 25.9187 15.3774 25.9344 15.2603L25.9682 15.0006L25.9706 14.9789C25.9702 14.9817 25.971 14.9847 25.9706 14.9876C25.98 14.8898 26.041 14.7959 26.1578 14.7288C26.4077 14.5839 26.8098 14.6165 27.0562 14.7988C27.1902 14.8991 27.2506 15.0236 27.2361 15.1407Z" fill="#1D2943"/>
<path d="M26.2912 14.8286C26.1167 14.9293 26.1144 15.1151 26.2872 15.2435C26.4591 15.3712 26.7407 15.3931 26.9151 15.2923C27.0907 15.1909 27.0929 15.0052 26.9212 14.8775C26.7484 14.7491 26.4668 14.7271 26.2912 14.8286Z" fill="#F45170"/>
<path d="M25.9701 14.9788L25.9341 15.2605C25.9191 15.3773 25.9794 15.503 26.115 15.6038C26.3605 15.7861 26.762 15.8175 27.0122 15.673C27.1252 15.6078 27.1878 15.5181 27.2 15.4225L27.236 15.1408C27.2239 15.2363 27.1611 15.3261 27.0483 15.3913C26.798 15.5357 26.3965 15.5045 26.1511 15.3221C26.0154 15.2213 25.9551 15.0955 25.97 14.9788H25.9701Z" fill="#1D2943"/>
<path d="M27.0563 14.7995C27.3018 14.9818 27.2985 15.2467 27.0483 15.3912C26.798 15.5357 26.3965 15.5045 26.1511 15.3221C25.9047 15.1389 25.9068 14.8734 26.1572 14.7288C26.4075 14.5844 26.81 14.6163 27.0563 14.7995ZM26.9151 15.2923C27.0907 15.1909 27.0929 15.0052 26.9212 14.8775C26.7484 14.7491 26.4668 14.7271 26.2912 14.8286C26.1167 14.9293 26.1144 15.1151 26.2872 15.2435C26.4591 15.3712 26.7407 15.3931 26.9151 15.2923ZM25.5185 15.9482C25.6129 16.0184 25.6548 16.106 25.6444 16.1875L25.6804 15.9058C25.6908 15.8243 25.649 15.7368 25.5545 15.6665C25.3818 15.5381 25.1001 15.5161 24.9256 15.617C24.8465 15.6626 24.8027 15.7254 24.794 15.7924L24.7581 16.0741C24.7666 16.0071 24.8105 15.9443 24.8897 15.8987C25.0642 15.7979 25.3458 15.8198 25.5185 15.9482Z" fill="#4C5C75"/>
<path d="M24.7941 15.7924L24.7581 16.0741C24.7476 16.1558 24.7897 16.2437 24.8847 16.3142C25.0565 16.4418 25.3381 16.4638 25.5135 16.3625C25.5922 16.3171 25.6359 16.2544 25.6444 16.1876L25.6804 15.9059C25.6719 15.9727 25.6281 16.0354 25.5495 16.0808C25.3741 16.1821 25.0925 16.1601 24.9206 16.0325C24.8257 15.962 24.7836 15.874 24.7941 15.7924Z" fill="#78E75A"/>
<path d="M25.8704 15.9292L25.8692 15.9413L25.8341 16.2106C25.8221 16.3072 25.7593 16.3966 25.647 16.4618C25.3958 16.6055 24.9949 16.5753 24.7498 16.3917C24.6133 16.2915 24.5541 16.1659 24.5686 16.0488L24.6024 15.7892L24.6049 15.7674C24.6045 15.7703 24.6052 15.7732 24.6049 15.7761C24.6143 15.6783 24.6753 15.5845 24.792 15.5175C25.042 15.3726 25.4441 15.4052 25.6904 15.5875C25.8245 15.6877 25.8849 15.8133 25.8704 15.9292Z" fill="#1D2943"/>
<path d="M24.9256 15.617C24.7501 15.7183 24.7478 15.9041 24.9206 16.0324C25.0925 16.1601 25.3741 16.1821 25.5495 16.0807C25.7241 15.98 25.7263 15.7942 25.5545 15.6665C25.3818 15.5381 25.1001 15.5161 24.9256 15.617Z" fill="#78E75A"/>
<path d="M24.6044 15.7672L24.5685 16.0489C24.5535 16.1657 24.6138 16.2915 24.7494 16.3922C24.9949 16.5747 25.3964 16.6059 25.6466 16.4614C25.7596 16.3962 25.8222 16.3066 25.8344 16.211L25.8704 15.9292C25.8582 16.0249 25.7955 16.1145 25.6826 16.1797C25.4324 16.3242 25.0308 16.2929 24.7854 16.1105C24.6498 16.0098 24.5895 15.884 24.6044 15.7672Z" fill="#1D2943"/>
<path d="M25.6907 15.5879C25.9361 15.7702 25.9329 16.0351 25.6826 16.1797C25.4324 16.3242 25.0308 16.2929 24.7854 16.1105C24.539 15.9274 24.5412 15.6618 24.7915 15.5173C25.0419 15.3728 25.4443 15.4047 25.6907 15.5879ZM25.5495 16.0808C25.7241 15.9799 25.7263 15.7942 25.5545 15.6666C25.3818 15.5381 25.1002 15.5161 24.9256 15.617C24.7501 15.7183 24.7478 15.9041 24.9206 16.0324C25.0925 16.1601 25.3741 16.1821 25.5495 16.0807V16.0808ZM28.1613 16.1078C28.2555 16.1779 28.2975 16.2655 28.287 16.3469L28.323 16.0653C28.3334 15.9838 28.2916 15.8963 28.1973 15.8262V15.8261C28.1991 15.8285 28.1965 15.8331 28.1961 15.8361L28.1864 15.912L28.1746 16.0037L28.1613 16.1078L28.1973 15.8261C28.0246 15.6977 27.7429 15.6759 27.5675 15.7772C27.489 15.8225 27.4453 15.885 27.4367 15.9518L27.4008 16.2335C27.4093 16.1668 27.453 16.1043 27.5315 16.0589C27.7069 15.9575 27.9886 15.9795 28.1613 16.1078Z" fill="#4C5C75"/>
<path d="M27.4367 15.9518L27.4008 16.2335C27.3903 16.3152 27.4325 16.4032 27.5275 16.4738C27.6992 16.6016 27.9809 16.6235 28.1554 16.5227C28.2346 16.4769 28.2786 16.4141 28.287 16.347L28.323 16.0653C28.3146 16.1323 28.2706 16.1953 28.1914 16.241C28.0169 16.3417 27.7352 16.3199 27.5635 16.1921C27.4684 16.1215 27.4263 16.0334 27.4367 15.9518Z" fill="#8FABFE"/>
<path d="M28.5126 16.091L28.5114 16.1019L28.4763 16.3724C28.4642 16.4678 28.4026 16.5572 28.2891 16.6224C28.0391 16.7673 27.637 16.7347 27.3907 16.5523C27.2554 16.4521 27.1963 16.3265 27.2108 16.2106L27.247 15.9329V15.928C27.2591 15.8326 27.3218 15.7433 27.4341 15.6781C27.6841 15.5344 28.0862 15.5646 28.3326 15.7481C28.4678 15.8483 28.5271 15.9739 28.5126 16.091Z" fill="#1D2943"/>
<path d="M28.3326 15.7481C28.5779 15.9305 28.5758 16.1961 28.3253 16.3407C28.0751 16.4851 27.6726 16.4532 27.4273 16.2707C27.1809 16.0877 27.1841 15.8227 27.4344 15.6782C27.6847 15.5338 28.0862 15.5649 28.3326 15.7481ZM28.1913 16.241C28.3669 16.1396 28.3691 15.9539 28.1973 15.8261C28.0246 15.6978 27.7429 15.6758 27.5675 15.7772C27.3928 15.8779 27.3907 16.0638 27.5634 16.1921C27.7352 16.3199 28.0169 16.3417 28.1913 16.241Z" fill="#4C5C75"/>
<path d="M27.5675 15.7772C27.3929 15.8779 27.3907 16.0638 27.5634 16.1921C27.7352 16.3199 28.0169 16.3417 28.1913 16.241C28.3669 16.1396 28.3692 15.9539 28.1973 15.8261C28.0246 15.6977 27.7429 15.6758 27.5675 15.7772Z" fill="#8FABFE"/>
<path d="M27.2467 15.9284L27.2108 16.2102C27.1959 16.3266 27.2559 16.4519 27.3913 16.5525C27.6367 16.7349 28.0391 16.7668 28.2895 16.6224C28.4021 16.5573 28.4645 16.4678 28.4766 16.3723L28.5127 16.0906C28.5005 16.186 28.4381 16.2756 28.3254 16.3405C28.0751 16.4851 27.6726 16.4532 27.4273 16.2707C27.2919 16.1701 27.2319 16.0449 27.2467 15.9284Z" fill="#1D2943"/>
<path d="M26.7948 16.8968C26.8892 16.967 26.931 17.0548 26.9206 17.1363L26.9566 16.8546C26.967 16.7731 26.9252 16.6853 26.8307 16.6151C26.6581 16.4868 26.3763 16.4648 26.2018 16.5656C26.1228 16.6113 26.0788 16.674 26.0702 16.7411L26.0342 17.0228C26.0428 16.9558 26.0868 16.893 26.1659 16.8473C26.3404 16.7465 26.6221 16.7685 26.7948 16.8968Z" fill="#4C5C75"/>
<path d="M26.0702 16.7411L26.0342 17.0228C26.0238 17.1044 26.066 17.1923 26.1608 17.2629C26.3326 17.3906 26.6143 17.4125 26.7898 17.3112C26.8684 17.2658 26.9121 17.2031 26.9206 17.1363L26.9565 16.8546C26.9481 16.9214 26.9044 16.984 26.8258 17.0294C26.6502 17.1307 26.3686 17.1089 26.1968 16.9811C26.102 16.9106 26.0598 16.8227 26.0702 16.7411Z" fill="#DBA660"/>
<path d="M27.1468 16.8796C27.1455 16.8832 27.1455 16.8868 27.1455 16.8904L27.1105 17.1609C27.0984 17.2563 27.0369 17.3457 26.9234 17.4109C26.6734 17.5558 26.2713 17.5232 26.0261 17.3409C25.8897 17.2406 25.8305 17.115 25.845 16.9991L25.8812 16.7214C25.8909 16.6248 25.9537 16.533 26.0684 16.4666C26.3196 16.3217 26.7205 16.3531 26.9668 16.5366C27.1021 16.6369 27.1612 16.7624 27.1468 16.8796Z" fill="#1D2943"/>
<path d="M26.2018 16.5656C26.0263 16.6669 26.0241 16.8528 26.1968 16.9811C26.3686 17.1089 26.6502 17.1307 26.8258 17.0294C27.0003 16.9286 27.0026 16.7429 26.8306 16.6152C26.6579 16.4868 26.3763 16.4648 26.2018 16.5656Z" fill="#DBA660"/>
<path d="M25.8811 16.7169L25.8451 16.9986C25.8303 17.115 25.8903 17.2403 26.0257 17.3409C26.271 17.5233 26.6735 17.5553 26.9238 17.4108C27.0365 17.3457 27.0989 17.2562 27.111 17.1607L27.1471 16.879C27.1349 16.9744 27.0725 17.064 26.9598 17.1289C26.7095 17.2736 26.307 17.2416 26.0616 17.0591C25.9263 16.9585 25.8663 16.8333 25.8811 16.7169Z" fill="#1D2943"/>
<path d="M26.967 16.5365C27.2123 16.7189 27.2101 16.9845 26.9597 17.1291C26.7095 17.2736 26.307 17.2416 26.0617 17.0591C25.8153 16.8761 25.8185 16.6111 26.0688 16.4667C26.319 16.3222 26.7205 16.3533 26.967 16.5365ZM26.8257 17.0294C27.0003 16.9286 27.0026 16.7429 26.8307 16.6152C26.6581 16.4868 26.3763 16.4648 26.2018 16.5656C26.0263 16.6669 26.0241 16.8528 26.1968 16.9811C26.3686 17.1089 26.6502 17.1307 26.8258 17.0294H26.8257ZM18.3813 4.36238C18.4622 4.31565 18.5274 4.35345 18.5278 4.4457C18.528 4.53869 18.463 4.65123 18.3823 4.69784C18.3018 4.74433 18.236 4.70726 18.2358 4.6144C18.2354 4.52202 18.301 4.40875 18.3813 4.36238ZM18.8938 5.02593C18.9747 4.97932 19.04 5.01711 19.0402 5.10889C19.0406 5.20187 18.9756 5.31429 18.8947 5.36102C18.8149 5.40715 18.749 5.37008 18.7487 5.27722C18.7485 5.18545 18.814 5.07206 18.8938 5.02605V5.02593ZM18.8926 4.54955C18.9733 4.50294 19.0387 4.54122 19.0389 4.63312C19.0392 4.72598 18.9743 4.8384 18.8934 4.88513C18.8135 4.93126 18.7477 4.89431 18.7473 4.80133C18.7472 4.70955 18.8126 4.59568 18.8926 4.54955ZM18.8911 4.07088C18.972 4.02415 19.0372 4.06195 19.0376 4.15432C19.0378 4.2473 18.9729 4.35973 18.8921 4.40646C18.8121 4.45259 18.7463 4.41552 18.746 4.32265C18.7457 4.23028 18.8112 4.11701 18.8911 4.07088ZM19.4028 4.25491C19.4832 4.20854 19.5485 4.24694 19.5489 4.33872C19.549 4.4317 19.4841 4.544 19.4037 4.59049C19.3233 4.63686 19.2576 4.59991 19.2572 4.50705C19.257 4.41527 19.3225 4.3014 19.4028 4.25491ZM19.4014 3.77624C19.4818 3.72987 19.5472 3.76767 19.5474 3.85992C19.5477 3.9529 19.4827 4.06533 19.4024 4.11182C19.322 4.15819 19.2562 4.12124 19.2559 4.02825C19.2557 3.93588 19.3211 3.82261 19.4014 3.77624ZM19.914 4.43991C19.9948 4.39318 20.0601 4.43097 20.0605 4.52287C20.0607 4.61573 19.9958 4.72815 19.9149 4.77488C19.8346 4.82125 19.7688 4.7843 19.7684 4.69144C19.7682 4.59967 19.8336 4.48628 19.914 4.43991ZM19.9126 3.96051C19.9935 3.9139 20.0588 3.9523 20.0591 4.04407C20.0594 4.13705 19.9945 4.24936 19.9135 4.29609C19.8332 4.34258 19.7674 4.30563 19.7671 4.21277C19.7668 4.12087 19.8323 4.00688 19.9126 3.96051ZM19.9113 3.48184C19.9922 3.43523 20.0574 3.47302 20.0577 3.56528C20.058 3.65826 19.993 3.77068 19.9122 3.81742C19.8318 3.86379 19.766 3.82684 19.7657 3.73398C19.7655 3.6416 19.831 3.52833 19.9113 3.48184ZM18.3826 4.84105C18.4635 4.79432 18.5287 4.83272 18.5291 4.9245C18.5293 5.01748 18.4644 5.1299 18.3836 5.17663C18.3032 5.223 18.2374 5.18605 18.2371 5.09307C18.2369 5.0013 18.3023 4.88742 18.3826 4.84105ZM18.3839 5.32033C18.4649 5.2736 18.5302 5.31151 18.5304 5.40329C18.5307 5.49627 18.4658 5.60857 18.3849 5.6553C18.3045 5.70179 18.2388 5.66472 18.2384 5.57186C18.2382 5.48009 18.3036 5.3667 18.3839 5.32033ZM19.4041 4.73419C19.4845 4.68782 19.5498 4.72573 19.5502 4.81751C19.5504 4.91037 19.4855 5.02279 19.405 5.06928C19.3247 5.11565 19.2589 5.0787 19.2586 4.98572C19.2583 4.89394 19.3238 4.78068 19.4041 4.73419Z" fill="#4C5C75"/>
<path d="M17.9076 21.494L17.9265 21.2892C17.9248 21.3075 17.9132 21.3249 17.8915 21.3375L17.6804 21.4592L17.6613 21.664L17.8724 21.542C17.8942 21.5296 17.906 21.5122 17.9076 21.494ZM16.701 21.414C16.6991 21.4349 16.7105 21.4568 16.7352 21.4742L16.9447 21.6212L16.9636 21.4166L16.7541 21.2694C16.7295 21.2521 16.7181 21.2301 16.7201 21.2094L16.701 21.414Z" fill="#111D33"/>
<path d="M17.1737 20.4298C17.176 20.4225 17.1785 20.4165 17.1798 20.4092L17.1628 20.6012C17.1579 20.6459 17.1289 20.6882 17.0758 20.7184L15.8791 21.4103C15.7668 21.4743 15.5833 21.4634 15.4722 21.3861L15.029 21.0734C14.9698 21.0323 14.9433 20.9804 14.9481 20.9321L14.9662 20.7268V20.7353C14.9674 20.6894 14.9964 20.6447 15.052 20.6109L16.2486 19.9202C16.3646 19.8538 16.5445 19.8622 16.6556 19.9407L17.1 20.2523C17.1591 20.2945 17.1869 20.3464 17.1809 20.3972C17.1797 20.408 17.1772 20.4189 17.1736 20.4298H17.1737Z" fill="#DF3260"/>
<path d="M17.181 20.3972L17.1798 20.4092C17.1784 20.4165 17.176 20.4225 17.1737 20.4298C17.1772 20.4189 17.1798 20.408 17.181 20.3972Z" fill="#DF3260"/>
<path d="M16.7559 21.1607C16.7084 21.1882 16.7079 21.2369 16.7541 21.2694L16.9636 21.4166L16.7525 21.5385C16.704 21.5664 16.7045 21.6146 16.7516 21.6477L16.9375 21.7783C16.9846 21.8114 17.0607 21.817 17.1093 21.789L17.3203 21.667L17.5273 21.8125C17.5753 21.8462 17.6523 21.8512 17.7 21.8238L17.888 21.7151C17.9365 21.6871 17.9353 21.6383 17.8874 21.6046L17.6804 21.4592L17.8915 21.3374C17.9384 21.3103 17.9387 21.2606 17.8916 21.2275L17.7057 21.0968C17.6586 21.0637 17.5817 21.0597 17.5348 21.0868L17.3237 21.2087L17.1142 21.0614C17.068 21.0291 16.9926 21.024 16.9441 21.052L16.7561 21.1607H16.7559Z" fill="#4C5C75"/>
<path d="M16.6858 22.3352C16.6858 22.3376 16.6846 22.34 16.6833 22.3424C16.6846 22.3412 16.6858 22.34 16.6858 22.3388L16.6677 22.5332C16.6664 22.5513 16.6544 22.5694 16.6314 22.5827L16.1267 22.8737C16.0808 22.9003 16.0035 22.8967 15.9564 22.8641L15.7704 22.7336C15.7451 22.7155 15.733 22.6938 15.7354 22.6721L15.7547 22.4728V22.468C15.756 22.4499 15.768 22.4318 15.7898 22.4185L16.2945 22.1287C16.3428 22.0997 16.4189 22.1033 16.4672 22.1371L16.6532 22.2675C16.6785 22.2856 16.6894 22.3074 16.687 22.3279L16.6858 22.3352Z" fill="#C9CEE2"/>
<path d="M16.6858 22.3352V22.3388C16.6858 22.34 16.6846 22.3412 16.6833 22.3424C16.6846 22.34 16.6858 22.3376 16.6858 22.3352Z" fill="#C9CEE2"/>
<path d="M17.181 20.3972L17.1798 20.4092C17.1784 20.4165 17.176 20.4225 17.1737 20.4298C17.1772 20.4189 17.1798 20.408 17.181 20.3972Z" fill="#DF3260"/>
<path d="M15.0524 20.611C14.9401 20.6759 14.9365 20.791 15.0476 20.8691L15.4917 21.1811C15.6028 21.2591 15.7855 21.2699 15.898 21.205L17.0946 20.5141C17.2096 20.4476 17.2106 20.3308 17.0995 20.2527L16.6553 19.9407C16.5442 19.8627 16.3641 19.8538 16.2491 19.9202L15.0524 20.611Z" fill="#F45170"/>
<path d="M15.0285 21.0738L15.4727 21.3858C15.5838 21.4638 15.7666 21.4745 15.8789 21.4097L17.0756 20.7187C17.1294 20.6877 17.1583 20.6456 17.1624 20.6016L17.1813 20.3968C17.1772 20.4409 17.1484 20.483 17.0946 20.5139L15.898 21.205C15.7857 21.2699 15.6027 21.2591 15.4917 21.1811L15.0475 20.8691C14.9887 20.8278 14.9621 20.7761 14.9666 20.7269L14.9476 20.9317C14.943 20.9808 14.9697 21.0325 15.0285 21.0738Z" fill="#DF3260"/>
<path d="M17.9047 21.8718L17.9236 21.6671C17.9219 21.6853 17.9102 21.7023 17.888 21.7151L17.7 21.8238C17.6523 21.8513 17.5752 21.8462 17.5273 21.8125L17.3203 21.6671L17.1093 21.7891C17.0607 21.817 16.9846 21.8114 16.9375 21.7782L16.7516 21.6478C16.7262 21.6299 16.7145 21.608 16.7164 21.5868L16.6974 21.7916C16.6954 21.8126 16.7073 21.8347 16.7325 21.8525L16.9185 21.983C16.9656 22.0162 17.0416 22.0217 17.0903 21.9938L17.3014 21.8718L17.5082 22.0172C17.5563 22.051 17.6332 22.056 17.6809 22.0284L17.869 21.9199C17.8911 21.9071 17.9029 21.8899 17.9047 21.8718Z" fill="#1D2943"/>
<path d="M18.8039 22.0829L18.7845 22.2882C18.7833 22.3063 18.7712 22.3232 18.7495 22.3365L18.2447 22.6275C18.1976 22.6553 18.1203 22.6504 18.0732 22.6166L17.8873 22.4862C17.8619 22.4681 17.8511 22.4464 17.8523 22.4258L17.8716 22.2254V22.2242C17.8716 22.2037 17.8837 22.1867 17.9078 22.1723L18.4114 21.8812C18.4597 21.8535 18.5357 21.8583 18.5828 21.8909L18.7688 22.0213C18.7941 22.0394 18.805 22.0612 18.8038 22.0829H18.8039Z" fill="#9EA9C9"/>
<path d="M17.9076 22.1723C17.8599 22.1998 17.8595 22.2485 17.9066 22.2815L18.0926 22.4122C18.1397 22.4453 18.2166 22.4504 18.2643 22.4228L18.769 22.1313C18.8159 22.1044 18.8164 22.0545 18.7692 22.0214L18.5832 21.8909C18.5361 21.8578 18.4592 21.8538 18.4115 21.8812L17.9076 22.1723Z" fill="#C9CEE2"/>
<path d="M18.769 22.1313L18.2643 22.4228C18.2166 22.4503 18.1397 22.4453 18.0926 22.4122L17.9066 22.2815C17.8814 22.2638 17.8698 22.2417 17.8717 22.2207L17.8527 22.4255C17.8508 22.4465 17.8624 22.4686 17.8875 22.4862L18.0735 22.6169C18.1206 22.65 18.1976 22.655 18.2453 22.6275L18.7501 22.3361C18.7717 22.3237 18.7834 22.3063 18.7851 22.2878L18.8042 22.0833C18.8025 22.1015 18.7906 22.1189 18.7692 22.1313H18.769Z" fill="#9EA9C9"/>
<path d="M15.9238 21.7991L15.9057 21.9972C15.9045 22.0165 15.8912 22.0346 15.8682 22.0479L15.3647 22.3389C15.3176 22.3655 15.2415 22.3618 15.1944 22.328L15.0073 22.1976C14.9819 22.1795 14.971 22.1578 14.9735 22.1372L14.9916 21.9368V21.9356C14.9916 21.915 15.0036 21.8969 15.0278 21.8837L15.5326 21.5926C15.5809 21.5649 15.6569 21.5685 15.704 21.6011L15.89 21.7327C15.9178 21.752 15.9286 21.7762 15.9238 21.7991Z" fill="#211A67"/>
<path d="M15.028 21.8838C14.9813 21.9107 14.9791 21.9594 15.0262 21.9925L15.213 22.1236C15.2601 22.1568 15.3372 22.1608 15.3839 22.1337L15.8878 21.8427C15.9364 21.8148 15.9377 21.7656 15.8906 21.7325L15.7038 21.6013C15.6567 21.5682 15.5805 21.5647 15.532 21.5929L15.028 21.8838Z" fill="#423D9B"/>
<path d="M15.9058 21.9976L15.9249 21.7928C15.9231 21.8117 15.9108 21.8296 15.8878 21.8427L15.3839 22.1337C15.3372 22.1608 15.2601 22.1567 15.213 22.1236L15.0262 21.9925C15.0014 21.9749 14.9902 21.9532 14.9922 21.9324L14.9731 22.1372C14.9712 22.1579 14.9823 22.1797 15.0073 22.1971L15.194 22.3284C15.2411 22.3615 15.3181 22.3655 15.3649 22.3384L15.8689 22.0475C15.8918 22.0342 15.9041 22.0164 15.9058 21.9976Z" fill="#211A67"/>
<path d="M18.6335 20.2353L18.6154 20.4334C18.613 20.4527 18.6009 20.4696 18.5792 20.4829L18.0744 20.7739C18.0261 20.8017 17.9501 20.7969 17.903 20.7643L17.717 20.6326C17.6916 20.6157 17.6796 20.594 17.682 20.5735L17.7001 20.3754C17.7001 20.373 17.7001 20.3706 17.7013 20.3682C17.7025 20.3501 17.7158 20.3332 17.7375 20.3199L18.2423 20.0277C18.2894 20.0011 18.3655 20.0035 18.4126 20.0373L18.5997 20.1677C18.6275 20.187 18.6384 20.2124 18.6335 20.2353Z" fill="#B28AFD"/>
<path d="M17.7374 20.3195C17.6897 20.3471 17.6884 20.3951 17.7355 20.4282L17.9223 20.5595C17.9694 20.5925 18.0455 20.597 18.0933 20.5695L18.598 20.2781C18.6456 20.2506 18.6469 20.2014 18.5999 20.1682L18.413 20.0371C18.3659 20.004 18.2899 20.0006 18.2421 20.0281L17.7373 20.3195H17.7374Z" fill="#B28AFD"/>
<path d="M17.9032 20.7641C17.9503 20.7972 18.0265 20.8018 18.0742 20.7743L18.579 20.4829C18.6013 20.4698 18.6135 20.4522 18.6152 20.4336L18.6343 20.2289C18.6326 20.2474 18.6204 20.2652 18.598 20.2781L18.0933 20.5695C18.0456 20.597 17.9694 20.5925 17.9223 20.5594L17.7355 20.4282C17.7106 20.4107 17.6993 20.3889 17.7011 20.3683L17.6821 20.573C17.6802 20.5937 17.6915 20.6155 17.7165 20.633L17.9032 20.7641Z" fill="#7E5AF2"/>
<path d="M19.3955 20.7703L19.3774 20.9695C19.3762 20.9877 19.3641 21.0058 19.3412 21.0178L18.8364 21.3101C18.7893 21.3366 18.712 21.333 18.6649 21.2992L18.479 21.1688C18.4536 21.1507 18.4427 21.1289 18.444 21.1084L18.4633 20.908V20.9067C18.4633 20.8874 18.4754 20.8693 18.4995 20.8548L19.0043 20.5638C19.0526 20.536 19.1286 20.5397 19.1757 20.5735L19.3617 20.7039C19.3895 20.7232 19.4003 20.7474 19.3955 20.7703Z" fill="#9EA9C9"/>
<path d="M18.4996 20.855C18.4519 20.8825 18.4506 20.9305 18.4985 20.9642L18.6845 21.0949C18.7316 21.128 18.8077 21.1324 18.8555 21.1049L19.3602 20.8135C19.4078 20.786 19.4091 20.7369 19.3621 20.7036L19.1761 20.5731C19.1282 20.5394 19.052 20.536 19.0044 20.5634L18.4996 20.855Z" fill="#C9CEE2"/>
<path d="M19.3775 20.9691L19.3965 20.7643C19.3948 20.7828 19.3826 20.8005 19.3602 20.8135L18.8555 21.1049C18.8078 21.1324 18.7316 21.128 18.6845 21.0949L18.4985 20.9642C18.4732 20.9464 18.4615 20.9244 18.4635 20.9035L18.4444 21.1083C18.4425 21.1291 18.4541 21.151 18.4795 21.169L18.6654 21.2996C18.7125 21.3326 18.7887 21.3372 18.8364 21.3097L19.3412 21.0182C19.3635 21.0053 19.3757 20.9876 19.3774 20.9691H19.3775Z" fill="#9EA9C9"/>
<path d="M20.1587 21.3004L20.1575 21.3077V21.3113L20.1406 21.5057C20.1381 21.5238 20.1261 21.5419 20.1043 21.554L19.5996 21.8462C19.5513 21.8728 19.4752 21.868 19.4281 21.8354L19.2421 21.7049C19.2168 21.6868 19.2047 21.6651 19.2071 21.6434L19.2252 21.4465C19.2252 21.4441 19.2252 21.4417 19.2264 21.4393C19.2276 21.4212 19.2397 21.4031 19.2615 21.391L19.7662 21.0987C19.8145 21.071 19.8918 21.0758 19.9389 21.1084L20.1236 21.2388C20.149 21.2569 20.1611 21.2787 20.1587 21.3004Z" fill="#FEBC1F"/>
<path d="M19.2618 21.3904C19.2141 21.4179 19.2137 21.4666 19.2609 21.4996L19.4468 21.6303C19.4939 21.6634 19.5708 21.6685 19.6185 21.6409L20.1233 21.3495C20.1709 21.322 20.1714 21.2723 20.1243 21.2391L19.9383 21.1085C19.8912 21.0754 19.8142 21.0715 19.7666 21.0989L19.2618 21.3904Z" fill="#FFD06C"/>
<path d="M20.1233 21.3494L19.6185 21.6409C19.5708 21.6685 19.4938 21.6634 19.4467 21.6303L19.2607 21.4996C19.2356 21.482 19.224 21.4598 19.226 21.4388L19.2069 21.6436C19.205 21.6646 19.2165 21.6867 19.2418 21.7044L19.4277 21.835C19.4748 21.8681 19.5518 21.8733 19.5995 21.8456L20.1042 21.5542C20.1264 21.5414 20.1384 21.5239 20.1401 21.5053L20.159 21.3006C20.1573 21.3191 20.1454 21.3366 20.1233 21.3494Z" fill="#FEBC1F"/>
<path d="M16.6858 22.3352V22.3388C16.6858 22.34 16.6846 22.3412 16.6833 22.3424C16.6846 22.34 16.6858 22.3376 16.6858 22.3352Z" fill="#C9CEE2"/>
<path d="M15.7903 22.4191C15.7435 22.4461 15.7413 22.4948 15.7893 22.5285L15.9752 22.659C16.0223 22.6922 16.0994 22.6962 16.1461 22.6692L16.65 22.3781C16.6986 22.3502 16.6999 22.301 16.6528 22.2679L16.4668 22.1372C16.4189 22.1037 16.3427 22.1002 16.2942 22.1282L15.7903 22.4191Z" fill="#C9CEE2"/>
<path d="M16.668 22.5331L16.6871 22.3283C16.6853 22.347 16.673 22.365 16.65 22.3781L16.1461 22.6692C16.0994 22.6961 16.0223 22.6921 15.9752 22.659L15.7893 22.5285C15.7639 22.5106 15.7526 22.4886 15.7545 22.4677L15.7354 22.6724C15.7335 22.6933 15.7448 22.7153 15.7703 22.7332L15.9563 22.8638C16.0034 22.8969 16.0803 22.9009 16.1272 22.8738L16.6311 22.5829C16.654 22.5697 16.6663 22.5518 16.668 22.5331Z" fill="#9EA9C9"/>
<path d="M17.4501 22.8642L17.4308 23.0695C17.4284 23.0876 17.4163 23.1057 17.3946 23.119L16.8898 23.4088C16.8427 23.4366 16.7655 23.4329 16.7184 23.3991L16.5324 23.2687C16.507 23.2506 16.4962 23.2289 16.4974 23.2083L16.5167 23.0079V23.0067C16.5167 22.9861 16.5288 22.968 16.5529 22.9547L17.0565 22.6637C17.1048 22.6359 17.1821 22.6396 17.2292 22.6722L17.4151 22.8038C17.4429 22.8231 17.4538 22.8485 17.4477 22.8714C17.4491 22.8692 17.4499 22.8667 17.4501 22.8642Z" fill="#78E75A"/>
<path d="M17.4131 22.9142L16.9083 23.2046C16.8616 23.2316 16.7845 23.2275 16.7375 23.1944L16.5515 23.0639C16.5264 23.0463 16.515 23.0241 16.517 23.0031L16.498 23.2079C16.4961 23.2287 16.5074 23.251 16.5325 23.2686L16.7185 23.3992C16.7656 23.4323 16.8425 23.4363 16.8894 23.4093L17.3941 23.119C17.4168 23.1059 17.4289 23.0881 17.4307 23.0695L17.4497 22.8647C17.448 22.8833 17.4358 22.9011 17.4131 22.9142Z" fill="#5EC363"/>
<path d="M16.5526 22.9545C16.5057 22.9816 16.5044 23.0308 16.5515 23.0639L16.7375 23.1944C16.7845 23.2275 16.8616 23.2316 16.9084 23.2046L17.4132 22.9142C17.4616 22.8862 17.4621 22.8364 17.415 22.8033L17.229 22.6727C17.182 22.6396 17.1049 22.6356 17.0564 22.6636L16.5526 22.9546V22.9545Z" fill="#78E75A"/>
<path d="M31.5049 18.7161C31.5061 18.9287 31.3563 19.1871 31.1728 19.2933C31.0701 19.3525 30.9783 19.3525 30.9167 19.3042L30.6136 19.1291C30.5544 19.0941 30.517 19.0204 30.5158 18.9154C30.5158 18.7029 30.6643 18.4444 30.8491 18.3394C30.9421 18.285 31.0266 18.2802 31.087 18.3152L31.3937 18.4952L31.4009 18.4988C31.4649 18.5314 31.5048 18.6075 31.5048 18.7161H31.5049Z" fill="#DEDFFB"/>
<path d="M30.5162 18.9153C30.517 19.0203 30.5545 19.0942 30.6139 19.1292L30.9356 19.3164C30.8753 19.2815 30.8379 19.2075 30.8379 19.1017C30.837 18.8903 30.9859 18.6323 31.1698 18.5257C31.2626 18.4721 31.3471 18.4671 31.4073 18.5022L31.0865 18.3157C31.0262 18.2807 30.9416 18.2855 30.849 18.3393C30.6642 18.445 30.5162 18.703 30.5162 18.9153Z" fill="#B0B8CF"/>
<path d="M31.1699 18.5258C30.9857 18.6321 30.837 18.89 30.8376 19.1018C30.8382 19.3135 30.9878 19.3995 31.1721 19.2931C31.3564 19.1868 31.5058 18.9282 31.5052 18.7164C31.5045 18.5047 31.3542 18.4193 31.1699 18.5258Z" fill="#DEDFFB"/>
<path d="M7.91186 17.1053V17.1125L7.90328 20.7666L5.26358 22.3013L3.92804 23.0681L0.49498 21.0866L0.511886 14.3521L3.15158 12.8185L6.58464 14.8001V14.8073L7.90932 17.1077L7.91186 17.1053Z" fill="#C6C8E5"/>
<path d="M5.27263 18.6397L7.91196 17.1059L7.90351 20.767L5.26418 22.3009L5.27263 18.6397Z" fill="#E9E7FC"/>
<path d="M3.94518 16.3414L6.58451 14.8075L7.91197 17.1131L5.27263 18.6469L3.94518 16.3414Z" fill="#F3F1FC"/>
<path d="M3.94518 16.3341L5.27264 18.6397L5.26419 22.3009L3.92804 23.0686L0.494858 21.0866L0.512126 14.3519L3.94518 16.3341Z" fill="#DEDFFB"/>
<path d="M1.09959 20.7384L1.11324 15.3962L3.50298 16.7758L4.6685 18.8004L4.66125 21.9509L3.92876 22.3719L1.09959 20.7384Z" fill="#C6C8E5"/>
<path d="M6.80018 18.2248C6.89835 18.168 6.98928 18.1781 7.03565 18.2506L7.43221 18.8641C7.48305 18.9422 7.41555 19.1119 7.30904 19.1732L5.87025 20.004C5.79272 20.0488 5.72945 20.0128 5.72921 19.9236L5.72667 19.0064C5.72643 18.9172 5.7891 18.8084 5.86675 18.7637L6.80018 18.2248Z" fill="#4C5C75"/>
<path d="M0.512115 14.3519L3.15145 12.8181L6.58451 14.8003L3.94517 16.3341L0.512115 14.3519Z" fill="#E9E7FC"/>
<path d="M11.756 8.51985L1.84755 14.2782L4.07487 15.5638L11.756 11.1001V8.51985Z" fill="#C6C8E5"/>
</svg>
