<svg width="32" height="32" viewBox="0 0 32 32" fill="none" xmlns="http://www.w3.org/2000/svg">
<path d="M16.561 9.94221V10.9907L30.9529 19.3059C30.895 19.2722 30.8588 19.2008 30.8588 19.0988C30.858 18.8947 31.0017 18.646 31.179 18.5431C31.2685 18.4913 31.3501 18.4866 31.4082 18.5204L16.561 9.94221Z" fill="#F45170"/>
<path d="M22.8055 12.1182L25.4439 10.5845L25.4524 6.92335L22.8139 8.45694L22.8055 12.1182ZM25.4524 6.91611L24.1253 4.6109L21.4868 6.14449L22.8139 8.44957L25.4524 6.91611Z" fill="#F3F1FC"/>
<path d="M22.8137 8.45706L25.4531 6.92323L25.4445 10.5844L22.8052 12.1182L22.8137 8.45706Z" fill="#E9E7FC"/>
<path d="M21.4863 6.14412L24.1257 4.61029L25.4531 6.91598L22.8138 8.44981L21.4863 6.14412Z" fill="#F3F1FC"/>
<path d="M21.4865 6.15136L22.8139 8.45706L22.8053 11.4453L21.4693 12.213L18.0361 10.2309L18.0533 4.1693L21.4865 6.15136Z" fill="#DEDFFB"/>
<path d="M11.8887 21.6216L26.705 13.0113L26.684 17.8486L11.8677 26.2757L11.8887 21.6216Z" fill="#AFB2B9"/>
<path d="M1.10791 15.3972L16.7496 7.2634L26.7054 13.0113L11.889 21.6216L1.10791 15.3972Z" fill="#1D2943"/>
<path d="M11.889 21.6216L11.868 27.3831L1.08691 21.1586L1.10793 15.3972L11.889 21.6216Z" fill="#111D33"/>
<path d="M30.5159 16.1949L30.5039 21.4091C30.5027 21.688 30.3191 21.9658 29.9543 22.1783L17.7943 29.2449C17.0577 29.6723 15.8598 29.6723 15.1196 29.2449L11.8677 27.3828L11.8882 21.6204L26.7133 13.0058L29.9579 15.4148C30.3311 15.6298 30.517 15.9123 30.5158 16.1949H30.5159Z" fill="#111D33"/>
<path d="M29.9666 16.9636L17.8066 24.0303C17.0703 24.4583 15.8731 24.4578 15.1319 24.0298L11.8878 21.6208L11.8677 27.3831L15.119 29.2444C15.8602 29.6722 17.0574 29.6727 17.7937 29.2447L29.9537 22.1782C30.3192 21.9656 30.5022 21.6878 30.503 21.4093L30.5159 16.1949C30.5152 16.4732 30.3323 16.7512 29.9666 16.9637V16.9636Z" fill="#111D33"/>
<path d="M29.9574 15.4143C30.6986 15.8423 30.7033 16.5358 29.9671 16.9636L17.8071 24.0303C17.0706 24.4583 15.8735 24.4578 15.1324 24.0298L11.8882 21.6208L26.7132 13.0053L29.9574 15.4143Z" fill="#4C5C75"/>
<path d="M16.4724 23.9766C16.0467 23.9766 15.6343 23.8817 15.3373 23.7156L12.5679 21.6589L26.6882 13.453L29.7518 15.7279L29.7703 15.7388C30.0063 15.8749 30.1418 16.0404 30.1419 16.1928C30.1422 16.3427 30.0098 16.5057 29.7789 16.6399L17.6189 23.7064C17.3237 23.8782 16.9059 23.9766 16.4724 23.9766Z" fill="#F8F9FE"/>
<path d="M24.8549 13.2678L12.0959 20.6338L6.15723 17.1827V16.8953L12.0947 20.3463L24.8537 12.9803L24.8549 13.2678Z" fill="#9EA9C9"/>
<path d="M6.15674 16.8955L6.15758 17.1829L12.0957 20.6338L12.0949 20.3465L6.15674 16.8955Z" fill="#9EA9C9"/>
<path d="M12.0947 20.3464L12.0956 20.6338L24.8543 13.2677L24.8534 12.9802L12.0947 20.3464Z" fill="#E9E7FC"/>
<path d="M6.15674 16.8955L12.0949 20.3464L24.8536 12.9802L18.9154 9.52924L6.15674 16.8955Z" fill="#57B3FE"/>
<path d="M6.15674 16.8955L9.68736 18.9473L22.4459 11.581L18.9154 9.52924L6.15674 16.8955Z" fill="#5094FF"/>
<path d="M22.8185 8.45295L22.811 10.662L5.39573 20.783L5.40322 18.5739L22.8185 8.45295ZM24.1262 4.61717L20.6932 2.63559L18.0583 4.16676L18.0535 4.16917L0.643066 14.2872L4.07612 16.2688L4.07926 16.2669L5.4037 18.5664L22.8188 8.44582L21.4945 6.14641L24.1262 4.61717Z" fill="#E9E7FC"/>
<path d="M4.07617 16.2618L21.4913 6.14122L22.8186 8.44582L5.40351 18.5664L4.07617 16.2618Z" fill="#F3F1FC"/>
<path d="M24.1262 4.61717L21.4914 6.14834L21.4853 6.15197L4.07612 16.2688L0.643066 14.2872L18.0535 4.16917L18.0583 4.16676L20.6932 2.63559L24.1262 4.61717Z" fill="#E9E7FC"/>
<path d="M1.84766 14.2782L18.3378 4.69494L18.3616 4.68154L20.6941 3.32607L22.9214 4.61162L4.07498 15.5638L1.84766 14.2782Z" fill="#C6C8E5"/>
<path d="M4.07623 16.269L5.40356 18.5736L5.39535 20.3917L0.630371 17.6407L0.64305 14.2868L4.07623 16.269Z" fill="#DEDFFB"/>
<path d="M13.5829 25.7911C13.5821 25.8931 13.5458 25.965 13.4881 25.9988L12.5592 26.5627C12.6178 26.5287 12.6541 26.4567 12.6541 26.3541C12.6549 26.1487 12.5103 25.8983 12.3317 25.7947C12.2416 25.7426 12.1595 25.7379 12.1011 25.7717L13.0291 25.209C13.0875 25.1749 13.1698 25.1796 13.2597 25.2318C13.4392 25.3345 13.5829 25.585 13.5829 25.7911Z" fill="#B0B8CF"/>
<path d="M12.3319 25.7948C12.5109 25.898 12.6552 26.1486 12.6547 26.3541C12.6541 26.5598 12.5087 26.6432 12.3299 26.5399C12.151 26.4367 12.0059 26.1855 12.0063 25.9799C12.007 25.7742 12.1529 25.6914 12.3319 25.7948Z" fill="#DEDFFB"/>
<path d="M8.86069 23.1096C8.85996 23.2115 8.82362 23.2834 8.7659 23.3173L7.83705 23.8811C7.89562 23.847 7.93196 23.7752 7.93196 23.6725C7.93269 23.467 7.78814 23.2167 7.60955 23.1131C7.51946 23.061 7.43735 23.0563 7.37891 23.0901L8.30691 22.5274C8.36535 22.4933 8.44759 22.4981 8.53755 22.5502C8.71699 22.6529 8.86069 22.9034 8.86069 23.1096Z" fill="#B0B8CF"/>
<path d="M7.60925 23.1132C7.78821 23.2164 7.93263 23.467 7.93202 23.6725C7.93142 23.8782 7.78603 23.9616 7.60719 23.8584C7.42812 23.755 7.28321 23.5039 7.28369 23.2983C7.2843 23.0926 7.43029 23.0098 7.60925 23.1132Z" fill="#DEDFFB"/>
<path d="M1.52002 19.4159V20.4644L15.9121 28.7796C15.8541 28.7459 15.8179 28.6745 15.8179 28.5725C15.8171 28.3684 15.9607 28.1197 16.1381 28.0168C16.2276 27.965 16.3092 27.9603 16.3673 27.9941L1.52002 19.4159Z" fill="#F45170"/>
<path d="M16.4732 28.2039C16.4744 28.4092 16.3295 28.6604 16.1508 28.7642C16.0542 28.8186 15.9684 28.821 15.9093 28.7775C15.9129 28.7812 15.9165 28.7836 15.9201 28.786L15.6086 28.6049C15.5506 28.571 15.5144 28.4986 15.5132 28.3972C15.5132 28.1907 15.6569 27.9407 15.8368 27.8369C15.9262 27.7849 16.0083 27.7801 16.0674 27.8151L16.379 27.995C16.3749 27.9923 16.3704 27.9903 16.3657 27.989C16.4321 28.0192 16.4732 28.0941 16.4732 28.2039Z" fill="#B0B8CF"/>
<path d="M15.5132 28.3967C15.514 28.4987 15.5504 28.5706 15.608 28.6045L15.9204 28.7863C15.8619 28.7524 15.8256 28.6806 15.8256 28.5778C15.8249 28.3724 15.9693 28.122 16.148 28.0185C16.238 27.9663 16.3202 27.9616 16.3786 27.9955L16.0671 27.8144C16.0085 27.7806 15.9264 27.7853 15.8364 27.8373C15.657 27.94 15.5132 28.1905 15.5132 28.3967Z" fill="#B0B8CF"/>
<path d="M16.1485 28.0185C15.9695 28.1218 15.8251 28.3723 15.8257 28.5778C15.8263 28.7835 15.9716 28.867 16.1505 28.7638C16.3295 28.6605 16.4745 28.4092 16.4739 28.2036C16.4733 27.998 16.3274 27.9151 16.1485 28.0185Z" fill="#DEDFFB"/>
<path d="M14.8639 13.5627C14.962 13.5059 15.053 13.516 15.0993 13.5885L15.4959 14.202C15.5461 14.2804 15.4792 14.4496 15.3727 14.5111L8.11294 18.7C8.03578 18.7444 7.97262 18.7084 7.97238 18.6192L7.96973 17.702C7.96949 17.6128 8.03228 17.5041 8.10932 17.4596L14.8639 13.5627ZM24.7069 7.886C24.7846 7.84132 24.8477 7.87719 24.848 7.96643L24.8506 8.88356C24.8509 8.9728 24.7881 9.0816 24.7106 9.12628L22.2824 10.5282C22.1754 10.5899 22.1077 10.4984 22.1579 10.362L22.5497 9.29328C22.5955 9.16757 22.6861 9.05274 22.7843 8.9961L24.7069 7.886ZM21.8342 9.54469C21.9086 9.5017 21.9615 9.55302 21.9404 9.64697L21.6893 10.7794C21.6753 10.8412 21.6319 10.9038 21.583 10.9319L16.3794 13.9307C16.3307 13.959 16.2871 13.9467 16.2728 13.9012L15.8496 13.1485C15.8287 13.0786 15.8811 12.9665 15.9555 12.9235L21.8342 9.54469Z" fill="#4C5C75"/>
<path d="M19.3522 2.43454L18.3995 2.5594L16.0661 3.91535L16.063 5.04224L17.9789 6.14847L20.3121 4.79252L20.3172 2.9917L19.3522 2.43454Z" fill="#9EA9C9"/>
<path d="M16.0664 3.91535L18.3997 2.5594L19.3525 2.43454L17.0193 3.79049L16.0664 3.91535Z" fill="#E3E7F0"/>
<path d="M17.9841 4.34753L20.3173 2.9917L20.3122 4.79251L17.979 6.14847L17.9841 4.34753Z" fill="#B0B8CF"/>
<path d="M17.019 3.79049L19.3523 2.43454L20.3172 2.9917L17.984 4.34754L17.019 3.79049Z" fill="#C9CEE2"/>
<path d="M17.984 4.34754L17.9789 6.14847L16.063 5.04236L16.0661 3.91536L17.019 3.7905L17.984 4.34754Z" fill="#9EA9C9"/>
<path d="M18.4016 3.48535L18.4012 3.88565C18.4011 3.93033 18.3716 3.97501 18.3129 4.00918C18.1946 4.07801 18.0021 4.07801 17.8831 4.00918C17.8232 3.97465 17.7933 3.92936 17.7935 3.88408L17.7939 3.48378C17.7938 3.52906 17.8236 3.57435 17.8835 3.60888C18.0026 3.67771 18.1951 3.67771 18.3134 3.60888C18.3721 3.57483 18.4016 3.53003 18.4016 3.48535Z" fill="#4C5C75"/>
<path d="M18.45 3.46374L18.4488 3.6026C18.4488 3.65574 18.415 3.70766 18.3461 3.74751C18.2073 3.82841 17.9815 3.82841 17.8414 3.74751C17.7713 3.70766 17.7363 3.65453 17.7363 3.6014V3.46253C17.7363 3.4106 17.7713 3.35747 17.8402 3.31762C17.979 3.23672 18.2049 3.23672 18.3449 3.31762C18.415 3.35747 18.45 3.4106 18.45 3.46374Z" fill="#9EA9C9"/>
<path d="M18.4496 3.46409L18.4491 3.60284C18.4491 3.65537 18.4145 3.70778 18.3455 3.74775C18.2068 3.82853 17.981 3.82853 17.8414 3.74775C17.7711 3.70729 17.7361 3.65416 17.7363 3.60103L17.7368 3.4624C17.7366 3.51553 17.7716 3.56867 17.8419 3.60912C17.9816 3.68978 18.2073 3.68978 18.3461 3.60912C18.415 3.56915 18.4495 3.5165 18.4496 3.46409Z" fill="#9EA9C9"/>
<path d="M18.3445 3.31714C18.4842 3.39768 18.4849 3.52846 18.3462 3.60912C18.2074 3.68979 17.9815 3.68979 17.8419 3.60912C17.7022 3.52858 17.7018 3.3978 17.8406 3.31726C17.9793 3.23671 18.2048 3.23635 18.3445 3.31714Z" fill="white"/>
<path d="M19.5516 2.81697L19.5511 3.21727C19.5511 3.26195 19.5217 3.30663 19.4628 3.3408C19.3445 3.40963 19.152 3.40963 19.033 3.3408C18.9732 3.30627 18.9432 3.26098 18.9434 3.2157L18.9438 2.8154C18.9437 2.86068 18.9735 2.90597 19.0334 2.9405C19.1525 3.00933 19.345 3.00933 19.4633 2.9405C19.522 2.90645 19.5516 2.86165 19.5516 2.81697Z" fill="#4C5C75"/>
<path d="M19.5994 2.79583V2.9347C19.5994 2.98662 19.5644 3.03975 19.4956 3.0796C19.3567 3.16051 19.1309 3.16051 18.992 3.0796C18.9208 3.03855 18.8857 2.98541 18.8857 2.93228L18.8869 2.79462C18.8869 2.74149 18.922 2.68836 18.9908 2.64851C19.1297 2.5676 19.3543 2.5676 19.4943 2.64851C19.5656 2.68957 19.6006 2.7427 19.5994 2.79583Z" fill="#9EA9C9"/>
<path d="M19.6001 2.79583L19.5997 2.93446C19.5994 2.98699 19.565 3.03952 19.496 3.07936C19.3572 3.16015 19.1314 3.16015 18.9918 3.07936C18.9216 3.03891 18.8866 2.98578 18.8867 2.93265L18.8872 2.79402C18.8871 2.84715 18.9221 2.90029 18.9923 2.94074C19.132 3.0214 19.3578 3.0214 19.4965 2.94074C19.5654 2.90077 19.5999 2.84824 19.6001 2.79583Z" fill="#9EA9C9"/>
<path d="M19.4948 2.64876C19.6345 2.72942 19.6353 2.86008 19.4965 2.94074C19.3578 3.02141 19.1318 3.02141 18.9922 2.94074C18.8527 2.8602 18.8522 2.72942 18.9909 2.64888C19.1297 2.56833 19.3552 2.56809 19.4948 2.64876Z" fill="white"/>
<path d="M16.3074 5.18363L16.0635 5.32552V5.04175L16.3074 5.18363Z" fill="#9EA9C9"/>
<path d="M26.8851 15.1592C26.9793 15.2292 27.0212 15.3169 27.0107 15.3983L27.0468 15.1167C27.0572 15.0352 27.0154 14.9476 26.921 14.8776C26.7483 14.7492 26.4667 14.7271 26.2912 14.8286C26.2127 14.8738 26.1689 14.9364 26.1605 15.0032L26.1245 15.2849C26.133 15.2181 26.1767 15.1556 26.2552 15.1103C26.4307 15.0089 26.7123 15.0308 26.8851 15.1592Z" fill="#4C5C75"/>
<path d="M26.1606 15.0032L26.1246 15.2849C26.1142 15.3665 26.1562 15.4546 26.2513 15.5252C26.4231 15.653 26.7047 15.6748 26.8792 15.574C26.9584 15.5283 27.0024 15.4653 27.0108 15.3984L27.0469 15.1167C27.0383 15.1837 26.9944 15.2466 26.9153 15.2923C26.7407 15.3931 26.4591 15.3712 26.2872 15.2435C26.1922 15.1728 26.1502 15.0848 26.1606 15.0032Z" fill="#F45170"/>
<path d="M27.2363 15.1407L27.2351 15.1528L27.2001 15.4221C27.188 15.5187 27.1252 15.608 27.0129 15.6732C26.7617 15.8169 26.3608 15.7867 26.1157 15.6044C25.9792 15.503 25.9189 15.3774 25.9346 15.2603L25.9684 15.0006L25.9708 14.9789C25.9704 14.9817 25.9711 14.9847 25.9708 14.9876C25.9802 14.8898 26.0412 14.7959 26.158 14.7288C26.4079 14.5839 26.81 14.6165 27.0564 14.7988C27.1904 14.8991 27.2508 15.0236 27.2363 15.1407Z" fill="#1D2943"/>
<path d="M26.2914 14.8286C26.1169 14.9293 26.1146 15.1151 26.2874 15.2435C26.4593 15.3712 26.7409 15.3931 26.9154 15.2923C27.0909 15.1909 27.0931 15.0052 26.9214 14.8775C26.7486 14.7491 26.467 14.7271 26.2914 14.8286Z" fill="#F45170"/>
<path d="M25.9703 14.9788L25.9344 15.2605C25.9194 15.3773 25.9796 15.503 26.1153 15.6038C26.3607 15.7861 26.7623 15.8175 27.0125 15.673C27.1255 15.6078 27.188 15.5181 27.2002 15.4225L27.2362 15.1408C27.2241 15.2363 27.1614 15.3261 27.0486 15.3913C26.7982 15.5357 26.3967 15.5045 26.1514 15.3221C26.0156 15.2213 25.9554 15.0955 25.9702 14.9788H25.9703Z" fill="#1D2943"/>
<path d="M27.0565 14.7995C27.302 14.9818 27.2987 15.2467 27.0485 15.3912C26.7982 15.5357 26.3967 15.5045 26.1513 15.3221C25.9049 15.1389 25.907 14.8734 26.1574 14.7288C26.4077 14.5844 26.8102 14.6163 27.0565 14.7995ZM26.9153 15.2923C27.0909 15.1909 27.0931 15.0052 26.9214 14.8775C26.7486 14.7491 26.467 14.7271 26.2914 14.8286C26.1169 14.9293 26.1146 15.1151 26.2874 15.2435C26.4593 15.3712 26.7409 15.3931 26.9153 15.2923ZM25.5187 15.9482C25.6131 16.0184 25.655 16.106 25.6446 16.1875L25.6806 15.9058C25.691 15.8243 25.6492 15.7368 25.5547 15.6665C25.382 15.5381 25.1003 15.5161 24.9258 15.617C24.8467 15.6626 24.8029 15.7254 24.7942 15.7924L24.7583 16.0741C24.7668 16.0071 24.8107 15.9443 24.8899 15.8987C25.0644 15.7979 25.346 15.8198 25.5187 15.9482Z" fill="#4C5C75"/>
<path d="M24.7939 15.7924L24.7579 16.0741C24.7474 16.1558 24.7896 16.2437 24.8845 16.3142C25.0563 16.4418 25.3379 16.4638 25.5134 16.3625C25.592 16.3171 25.6357 16.2544 25.6443 16.1876L25.6802 15.9059C25.6717 15.9727 25.628 16.0354 25.5493 16.0808C25.3739 16.1821 25.0923 16.1601 24.9205 16.0325C24.8255 15.962 24.7834 15.874 24.7939 15.7924Z" fill="#78E75A"/>
<path d="M25.8703 15.9292L25.8691 15.9413L25.834 16.2106C25.822 16.3072 25.7592 16.3966 25.6469 16.4618C25.3957 16.6055 24.9948 16.5753 24.7497 16.3917C24.6132 16.2915 24.5541 16.1659 24.5685 16.0488L24.6024 15.7892L24.6048 15.7674C24.6044 15.7703 24.6051 15.7732 24.6048 15.7761C24.6142 15.6783 24.6752 15.5845 24.7919 15.5175C25.0419 15.3726 25.444 15.4052 25.6904 15.5875C25.8244 15.6877 25.8848 15.8133 25.8703 15.9292Z" fill="#1D2943"/>
<path d="M24.9256 15.617C24.7501 15.7183 24.7478 15.9041 24.9206 16.0324C25.0924 16.1601 25.3741 16.1821 25.5495 16.0807C25.7241 15.98 25.7263 15.7942 25.5545 15.6665C25.3818 15.5381 25.1001 15.5161 24.9256 15.617Z" fill="#78E75A"/>
<path d="M24.6045 15.7672L24.5686 16.0489C24.5537 16.1657 24.6139 16.2915 24.7495 16.3922C24.995 16.5747 25.3965 16.6059 25.6467 16.4614C25.7598 16.3962 25.8223 16.3066 25.8345 16.211L25.8705 15.9292C25.8583 16.0249 25.7956 16.1145 25.6827 16.1797C25.4325 16.3242 25.0309 16.2929 24.7855 16.1105C24.6499 16.0098 24.5897 15.884 24.6045 15.7672Z" fill="#1D2943"/>
<path d="M25.6905 15.5879C25.9359 15.7702 25.9328 16.0351 25.6824 16.1797C25.4322 16.3242 25.0306 16.2929 24.7852 16.1105C24.5389 15.9274 24.5411 15.6618 24.7914 15.5173C25.0417 15.3728 25.4442 15.4047 25.6905 15.5879ZM25.5494 16.0808C25.724 15.9799 25.7262 15.7942 25.5543 15.6666C25.3816 15.5381 25.1 15.5161 24.9254 15.617C24.75 15.7183 24.7477 15.9041 24.9205 16.0324C25.0923 16.1601 25.3739 16.1821 25.5494 16.0807V16.0808ZM28.1612 16.1078C28.2554 16.1779 28.2974 16.2655 28.2869 16.3469L28.3229 16.0653C28.3332 15.9838 28.2915 15.8963 28.1972 15.8262V15.8261C28.199 15.8285 28.1963 15.8331 28.196 15.8361L28.1863 15.912L28.1745 16.0037L28.1612 16.1078L28.1972 15.8261C28.0245 15.6977 27.7428 15.6759 27.5673 15.7772C27.4888 15.8225 27.4451 15.885 27.4365 15.9518L27.4007 16.2335C27.4091 16.1668 27.4528 16.1043 27.5313 16.0589C27.7068 15.9575 27.9885 15.9795 28.1612 16.1078Z" fill="#4C5C75"/>
<path d="M27.4369 15.9518L27.401 16.2335C27.3905 16.3152 27.4326 16.4032 27.5277 16.4738C27.6994 16.6016 27.9811 16.6235 28.1556 16.5227C28.2348 16.4769 28.2788 16.4141 28.2872 16.347L28.3232 16.0653C28.3147 16.1323 28.2708 16.1953 28.1916 16.241C28.0171 16.3417 27.7354 16.3199 27.5636 16.1921C27.4686 16.1215 27.4265 16.0334 27.4369 15.9518Z" fill="#8FABFE"/>
<path d="M28.5125 16.091L28.5113 16.1019L28.4761 16.3724C28.4641 16.4678 28.4025 16.5572 28.289 16.6224C28.039 16.7673 27.6369 16.7347 27.3906 16.5523C27.2553 16.4521 27.1961 16.3265 27.2106 16.2106L27.2469 15.9329V15.928C27.2589 15.8326 27.3217 15.7433 27.434 15.6781C27.684 15.5344 28.0861 15.5646 28.3324 15.7481C28.4677 15.8483 28.527 15.9739 28.5125 16.091Z" fill="#1D2943"/>
<path d="M28.3326 15.7481C28.578 15.9305 28.5758 16.1961 28.3254 16.3407C28.0752 16.4851 27.6727 16.4532 27.4273 16.2707C27.181 16.0877 27.1841 15.8227 27.4345 15.6782C27.6848 15.5338 28.0863 15.5649 28.3326 15.7481ZM28.1914 16.241C28.3669 16.1396 28.3692 15.9539 28.1974 15.8261C28.0247 15.6978 27.743 15.6758 27.5675 15.7772C27.3929 15.8779 27.3907 16.0638 27.5634 16.1921C27.7353 16.3199 28.017 16.3417 28.1914 16.241Z" fill="#4C5C75"/>
<path d="M27.5674 15.7772C27.3927 15.8779 27.3906 16.0638 27.5633 16.1921C27.7351 16.3199 28.0168 16.3417 28.1912 16.241C28.3668 16.1396 28.369 15.9539 28.1972 15.8261C28.0245 15.6977 27.7428 15.6758 27.5674 15.7772Z" fill="#8FABFE"/>
<path d="M27.2467 15.9284L27.2107 16.2102C27.1959 16.3266 27.2559 16.4519 27.3912 16.5525C27.6366 16.7349 28.0391 16.7668 28.2894 16.6224C28.4021 16.5573 28.4645 16.4678 28.4766 16.3723L28.5127 16.0906C28.5005 16.186 28.4381 16.2756 28.3254 16.3405C28.0751 16.4851 27.6726 16.4532 27.4272 16.2707C27.2919 16.1701 27.2318 16.0449 27.2467 15.9284Z" fill="#1D2943"/>
<path d="M26.7947 16.8968C26.8891 16.967 26.9309 17.0548 26.9205 17.1363L26.9565 16.8546C26.9669 16.7731 26.9251 16.6853 26.8307 16.6151C26.658 16.4868 26.3763 16.4648 26.2018 16.5656C26.1227 16.6113 26.0787 16.674 26.0702 16.7411L26.0342 17.0228C26.0428 16.9558 26.0867 16.893 26.1658 16.8473C26.3403 16.7465 26.622 16.7685 26.7947 16.8968Z" fill="#4C5C75"/>
<path d="M26.0702 16.7411L26.0343 17.0228C26.0239 17.1044 26.066 17.1923 26.1608 17.2629C26.3326 17.3906 26.6144 17.4125 26.7898 17.3112C26.8684 17.2658 26.9121 17.2031 26.9206 17.1363L26.9566 16.8546C26.9481 16.9214 26.9044 16.984 26.8258 17.0294C26.6502 17.1307 26.3686 17.1089 26.1968 16.9811C26.102 16.9106 26.0599 16.8227 26.0702 16.7411Z" fill="#DBA660"/>
<path d="M27.1466 16.8796C27.1454 16.8832 27.1454 16.8868 27.1454 16.8904L27.1104 17.1609C27.0983 17.2563 27.0368 17.3457 26.9232 17.4109C26.6733 17.5558 26.2712 17.5232 26.026 17.3409C25.8896 17.2406 25.8304 17.115 25.8449 16.9991L25.8811 16.7214C25.8908 16.6248 25.9536 16.533 26.0683 16.4666C26.3195 16.3217 26.7204 16.3531 26.9667 16.5366C27.102 16.6369 27.1611 16.7624 27.1466 16.8796Z" fill="#1D2943"/>
<path d="M26.202 16.5656C26.0264 16.6669 26.0242 16.8528 26.1969 16.9811C26.3688 17.1089 26.6504 17.1307 26.8259 17.0294C27.0004 16.9286 27.0027 16.7429 26.8308 16.6152C26.6581 16.4868 26.3765 16.4648 26.202 16.5656Z" fill="#DBA660"/>
<path d="M25.881 16.7169L25.845 16.9986C25.8301 17.115 25.8901 17.2403 26.0255 17.3409C26.2709 17.5233 26.6734 17.5553 26.9237 17.4108C27.0363 17.3457 27.0988 17.2562 27.1109 17.1607L27.147 16.879C27.1348 16.9744 27.0723 17.064 26.9597 17.1289C26.7093 17.2736 26.3069 17.2416 26.0615 17.0591C25.9261 16.9585 25.8661 16.8333 25.881 16.7169Z" fill="#1D2943"/>
<path d="M26.967 16.5365C27.2124 16.7189 27.2102 16.9845 26.9598 17.1291C26.7096 17.2736 26.3071 17.2416 26.0617 17.0591C25.8154 16.8761 25.8185 16.6111 26.0688 16.4667C26.319 16.3222 26.7206 16.3533 26.967 16.5365ZM26.8257 17.0294C27.0003 16.9286 27.0026 16.7429 26.8308 16.6152C26.6581 16.4868 26.3764 16.4648 26.2019 16.5656C26.0263 16.6669 26.0242 16.8528 26.1968 16.9811C26.3687 17.1089 26.6503 17.1307 26.8258 17.0294H26.8257ZM18.3814 4.36238C18.4623 4.31565 18.5275 4.35345 18.5278 4.4457C18.5281 4.53869 18.4631 4.65123 18.3823 4.69784C18.3019 4.74433 18.2361 4.70726 18.2358 4.6144C18.2355 4.52202 18.301 4.40875 18.3814 4.36238ZM18.8938 5.02593C18.9747 4.97932 19.0401 5.01711 19.0403 5.10889C19.0407 5.20187 18.9757 5.31429 18.8948 5.36102C18.815 5.40715 18.749 5.37008 18.7488 5.27722C18.7486 5.18545 18.814 5.07206 18.8938 5.02605V5.02593ZM18.8926 4.54955C18.9734 4.50294 19.0387 4.54122 19.039 4.63312C19.0392 4.72598 18.9744 4.8384 18.8935 4.88513C18.8135 4.93126 18.7477 4.89431 18.7474 4.80133C18.7472 4.70955 18.8127 4.59568 18.8926 4.54955ZM18.8912 4.07088C18.9721 4.02415 19.0373 4.06195 19.0377 4.15432C19.0379 4.2473 18.9729 4.35973 18.8921 4.40646C18.8122 4.45259 18.7464 4.41552 18.746 4.32265C18.7458 4.23028 18.8112 4.11701 18.8912 4.07088ZM19.4028 4.25491C19.4832 4.20854 19.5486 4.24694 19.5489 4.33872C19.549 4.4317 19.4842 4.544 19.4038 4.59049C19.3234 4.63686 19.2577 4.59991 19.2573 4.50705C19.2571 4.41527 19.3225 4.3014 19.4028 4.25491ZM19.4015 3.77624C19.4819 3.72987 19.5472 3.76767 19.5475 3.85992C19.5477 3.9529 19.4828 4.06533 19.4025 4.11182C19.322 4.15819 19.2562 4.12124 19.256 4.02825C19.2557 3.93588 19.3212 3.82261 19.4015 3.77624ZM19.9141 4.43991C19.9949 4.39318 20.0602 4.43097 20.0606 4.52287C20.0608 4.61573 19.9958 4.72815 19.9149 4.77488C19.8346 4.82125 19.7688 4.7843 19.7685 4.69144C19.7682 4.59967 19.8337 4.48628 19.9141 4.43991ZM19.9126 3.96051C19.9935 3.9139 20.0589 3.9523 20.0591 4.04407C20.0595 4.13705 19.9945 4.24936 19.9136 4.29609C19.8333 4.34258 19.7675 4.30563 19.7671 4.21277C19.7669 4.12087 19.8323 4.00688 19.9126 3.96051ZM19.9113 3.48184C19.9922 3.43523 20.0574 3.47302 20.0578 3.56528C20.058 3.65826 19.9931 3.77068 19.9123 3.81742C19.8319 3.86379 19.766 3.82684 19.7658 3.73398C19.7656 3.6416 19.831 3.52833 19.9113 3.48184ZM18.3827 4.84105C18.4636 4.79432 18.5288 4.83272 18.5292 4.9245C18.5294 5.01748 18.4644 5.1299 18.3836 5.17663C18.3032 5.223 18.2374 5.18605 18.2372 5.09307C18.2369 5.0013 18.3024 4.88742 18.3827 4.84105ZM18.384 5.32033C18.4649 5.2736 18.5302 5.31151 18.5305 5.40329C18.5307 5.49627 18.4659 5.60857 18.385 5.6553C18.3046 5.70179 18.2389 5.66472 18.2385 5.57186C18.2383 5.48009 18.3037 5.3667 18.384 5.32033ZM19.4041 4.73419C19.4846 4.68782 19.5499 4.72573 19.5503 4.81751C19.5505 4.91037 19.4855 5.02279 19.4051 5.06928C19.3248 5.11565 19.259 5.0787 19.2586 4.98572C19.2584 4.89394 19.3238 4.78068 19.4041 4.73419Z" fill="#4C5C75"/>
<path d="M17.9075 21.494L17.9264 21.2892C17.9247 21.3075 17.9132 21.3249 17.8914 21.3375L17.6803 21.4592L17.6613 21.664L17.8723 21.542C17.8941 21.5296 17.9059 21.5122 17.9075 21.494ZM16.7009 21.414C16.699 21.4349 16.7104 21.4568 16.7351 21.4742L16.9446 21.6212L16.9635 21.4166L16.754 21.2694C16.7294 21.2521 16.718 21.2301 16.72 21.2094L16.7009 21.414Z" fill="#111D33"/>
<path d="M17.1739 20.4298C17.1762 20.4225 17.1787 20.4165 17.18 20.4092L17.163 20.6012C17.1581 20.6459 17.1291 20.6882 17.076 20.7184L15.8793 21.4103C15.767 21.4743 15.5835 21.4634 15.4724 21.3861L15.0292 21.0734C14.97 21.0323 14.9435 20.9804 14.9483 20.9321L14.9664 20.7268V20.7353C14.9676 20.6894 14.9966 20.6447 15.0522 20.6109L16.2488 19.9202C16.3648 19.8538 16.5447 19.8622 16.6558 19.9407L17.1002 20.2523C17.1593 20.2945 17.1871 20.3464 17.1811 20.3972C17.1799 20.408 17.1774 20.4189 17.1738 20.4298H17.1739Z" fill="#DF3260"/>
<path d="M17.1811 20.3972L17.1799 20.4092C17.1785 20.4165 17.1761 20.4225 17.1738 20.4298C17.1773 20.4189 17.1799 20.408 17.1811 20.3972Z" fill="#DF3260"/>
<path d="M16.756 21.1607C16.7085 21.1882 16.708 21.2369 16.7542 21.2694L16.9637 21.4166L16.7527 21.5385C16.7041 21.5664 16.7046 21.6146 16.7517 21.6477L16.9377 21.7783C16.9847 21.8114 17.0608 21.817 17.1094 21.789L17.3204 21.667L17.5274 21.8125C17.5754 21.8462 17.6524 21.8512 17.7001 21.8238L17.8881 21.7151C17.9367 21.6871 17.9354 21.6383 17.8875 21.6046L17.6805 21.4592L17.8916 21.3374C17.9385 21.3103 17.9388 21.2606 17.8917 21.2275L17.7058 21.0968C17.6587 21.0637 17.5818 21.0597 17.5349 21.0868L17.3238 21.2087L17.1143 21.0614C17.0681 21.0291 16.9927 21.024 16.9442 21.052L16.7562 21.1607H16.756Z" fill="#4C5C75"/>
<path d="M16.686 22.3352C16.686 22.3376 16.6848 22.34 16.6836 22.3424C16.6848 22.3412 16.686 22.34 16.686 22.3388L16.6679 22.5332C16.6667 22.5513 16.6546 22.5694 16.6317 22.5827L16.1269 22.8737C16.081 22.9003 16.0037 22.8967 15.9566 22.8641L15.7707 22.7336C15.7453 22.7155 15.7332 22.6938 15.7357 22.6721L15.755 22.4728V22.468C15.7562 22.4499 15.7683 22.4318 15.79 22.4185L16.2947 22.1287C16.343 22.0997 16.4191 22.1033 16.4674 22.1371L16.6534 22.2675C16.6787 22.2856 16.6896 22.3074 16.6872 22.3279L16.686 22.3352Z" fill="#C9CEE2"/>
<path d="M16.686 22.3352V22.3388C16.686 22.34 16.6848 22.3412 16.6836 22.3424C16.6848 22.34 16.686 22.3376 16.686 22.3352Z" fill="#C9CEE2"/>
<path d="M17.1811 20.3972L17.1799 20.4092C17.1785 20.4165 17.1761 20.4225 17.1738 20.4298C17.1773 20.4189 17.1799 20.408 17.1811 20.3972Z" fill="#DF3260"/>
<path d="M15.0525 20.611C14.9402 20.6759 14.9366 20.791 15.0477 20.8691L15.4918 21.1811C15.6029 21.2591 15.7856 21.2699 15.8981 21.205L17.0947 20.5141C17.2097 20.4476 17.2107 20.3308 17.0996 20.2527L16.6554 19.9407C16.5443 19.8627 16.3642 19.8538 16.2492 19.9202L15.0525 20.611Z" fill="#F45170"/>
<path d="M15.0287 21.0738L15.4728 21.3858C15.5839 21.4638 15.7667 21.4745 15.879 21.4097L17.0757 20.7187C17.1296 20.6877 17.1584 20.6456 17.1625 20.6016L17.1815 20.3968C17.1774 20.4409 17.1485 20.483 17.0948 20.5139L15.8981 21.205C15.7858 21.2699 15.6029 21.2591 15.4919 21.1811L15.0476 20.8691C14.9888 20.8278 14.9623 20.7761 14.9667 20.7269L14.9478 20.9317C14.9432 20.9808 14.9699 21.0325 15.0287 21.0738Z" fill="#DF3260"/>
<path d="M17.9048 21.8718L17.9237 21.6671C17.922 21.6853 17.9103 21.7023 17.8881 21.7151L17.7001 21.8238C17.6524 21.8513 17.5754 21.8462 17.5274 21.8125L17.3204 21.6671L17.1094 21.7891C17.0608 21.817 16.9847 21.8114 16.9377 21.7782L16.7517 21.6478C16.7263 21.6299 16.7146 21.608 16.7165 21.5868L16.6975 21.7916C16.6955 21.8126 16.7074 21.8347 16.7326 21.8525L16.9186 21.983C16.9657 22.0162 17.0417 22.0217 17.0904 21.9938L17.3015 21.8718L17.5083 22.0172C17.5564 22.051 17.6333 22.056 17.681 22.0284L17.8692 21.9199C17.8913 21.9071 17.903 21.8899 17.9048 21.8718Z" fill="#1D2943"/>
<path d="M18.8038 22.0829L18.7844 22.2882C18.7832 22.3063 18.7711 22.3232 18.7493 22.3365L18.2446 22.6275C18.1975 22.6553 18.1202 22.6504 18.0731 22.6166L17.8872 22.4862C17.8618 22.4681 17.8509 22.4464 17.8521 22.4258L17.8715 22.2254V22.2242C17.8715 22.2037 17.8835 22.1867 17.9077 22.1723L18.4112 21.8812C18.4595 21.8535 18.5356 21.8583 18.5827 21.8909L18.7687 22.0213C18.794 22.0394 18.8049 22.0612 18.8037 22.0829H18.8038Z" fill="#9EA9C9"/>
<path d="M17.9076 22.1723C17.8599 22.1998 17.8596 22.2485 17.9066 22.2815L18.0926 22.4122C18.1397 22.4453 18.2166 22.4504 18.2643 22.4228L18.7691 22.1313C18.8159 22.1044 18.8164 22.0545 18.7692 22.0214L18.5832 21.8909C18.5361 21.8578 18.4592 21.8538 18.4115 21.8812L17.9076 22.1723Z" fill="#C9CEE2"/>
<path d="M18.769 22.1313L18.2643 22.4228C18.2166 22.4503 18.1397 22.4453 18.0926 22.4122L17.9066 22.2815C17.8814 22.2638 17.8698 22.2417 17.8717 22.2207L17.8527 22.4255C17.8508 22.4465 17.8624 22.4686 17.8875 22.4862L18.0735 22.6169C18.1206 22.65 18.1976 22.655 18.2453 22.6275L18.7501 22.3361C18.7717 22.3237 18.7834 22.3063 18.7851 22.2878L18.8042 22.0833C18.8025 22.1015 18.7906 22.1189 18.7692 22.1313H18.769Z" fill="#9EA9C9"/>
<path d="M15.9238 21.7991L15.9057 21.9972C15.9045 22.0165 15.8912 22.0346 15.8683 22.0479L15.3647 22.3389C15.3176 22.3655 15.2415 22.3618 15.1945 22.328L15.0073 22.1976C14.9819 22.1795 14.9711 22.1578 14.9735 22.1372L14.9916 21.9368V21.9356C14.9916 21.915 15.0037 21.8969 15.0278 21.8837L15.5326 21.5926C15.5809 21.5649 15.6569 21.5685 15.704 21.6011L15.89 21.7327C15.9178 21.752 15.9286 21.7762 15.9238 21.7991Z" fill="#211A67"/>
<path d="M15.0278 21.8838C14.9811 21.9107 14.9789 21.9594 15.026 21.9925L15.2128 22.1236C15.2599 22.1568 15.3369 22.1608 15.3837 22.1337L15.8876 21.8427C15.9361 21.8148 15.9375 21.7656 15.8904 21.7325L15.7035 21.6013C15.6565 21.5682 15.5803 21.5647 15.5317 21.5929L15.0278 21.8838Z" fill="#423D9B"/>
<path d="M15.9056 21.9976L15.9247 21.7928C15.9228 21.8117 15.9105 21.8296 15.8876 21.8427L15.3837 22.1337C15.3369 22.1608 15.2599 22.1567 15.2128 22.1236L15.026 21.9925C15.0011 21.9749 14.99 21.9532 14.9919 21.9324L14.9729 22.1372C14.9709 22.1579 14.982 22.1797 15.007 22.1971L15.1937 22.3284C15.2408 22.3615 15.3179 22.3655 15.3647 22.3384L15.8686 22.0475C15.8916 22.0342 15.9039 22.0164 15.9056 21.9976Z" fill="#211A67"/>
<path d="M18.6335 20.2353L18.6154 20.4334C18.613 20.4527 18.6009 20.4696 18.5791 20.4829L18.0744 20.7739C18.0261 20.8017 17.95 20.7969 17.9029 20.7643L17.717 20.6326C17.6916 20.6157 17.6795 20.594 17.6819 20.5735L17.7001 20.3754C17.7001 20.373 17.7001 20.3706 17.7013 20.3682C17.7025 20.3501 17.7158 20.3332 17.7375 20.3199L18.2422 20.0277C18.2893 20.0011 18.3654 20.0035 18.4125 20.0373L18.5997 20.1677C18.6275 20.187 18.6383 20.2124 18.6335 20.2353Z" fill="#B28AFD"/>
<path d="M17.7372 20.3195C17.6895 20.3471 17.6882 20.3951 17.7353 20.4282L17.9221 20.5595C17.9692 20.5925 18.0453 20.597 18.0931 20.5695L18.5978 20.2781C18.6454 20.2506 18.6467 20.2014 18.5996 20.1682L18.4128 20.0371C18.3657 20.004 18.2897 20.0006 18.2418 20.0281L17.7371 20.3195H17.7372Z" fill="#B28AFD"/>
<path d="M17.9034 20.7641C17.9505 20.7972 18.0267 20.8018 18.0744 20.7743L18.5792 20.4829C18.6015 20.4698 18.6137 20.4522 18.6154 20.4336L18.6345 20.2289C18.6328 20.2474 18.6206 20.2652 18.5983 20.2781L18.0935 20.5695C18.0458 20.597 17.9696 20.5925 17.9225 20.5594L17.7357 20.4282C17.7108 20.4107 17.6995 20.3889 17.7013 20.3683L17.6823 20.573C17.6804 20.5937 17.6918 20.6155 17.7168 20.633L17.9034 20.7641Z" fill="#7E5AF2"/>
<path d="M19.3955 20.7703L19.3774 20.9695C19.3762 20.9877 19.3641 21.0058 19.3411 21.0178L18.8364 21.3101C18.7893 21.3366 18.712 21.333 18.6649 21.2992L18.479 21.1688C18.4536 21.1507 18.4427 21.1289 18.4439 21.1084L18.4633 20.908V20.9067C18.4633 20.8874 18.4753 20.8693 18.4995 20.8548L19.0042 20.5638C19.0525 20.536 19.1286 20.5397 19.1757 20.5735L19.3617 20.7039C19.3894 20.7232 19.4003 20.7474 19.3955 20.7703Z" fill="#9EA9C9"/>
<path d="M18.4998 20.855C18.4521 20.8825 18.4508 20.9305 18.4987 20.9642L18.6847 21.0949C18.7318 21.128 18.8078 21.1324 18.8557 21.1049L19.3604 20.8135C19.408 20.786 19.4093 20.7369 19.3622 20.7036L19.1763 20.5731C19.1283 20.5394 19.0521 20.536 19.0045 20.5634L18.4998 20.855Z" fill="#C9CEE2"/>
<path d="M19.3776 20.9691L19.3966 20.7643C19.3949 20.7828 19.3827 20.8005 19.3603 20.8135L18.8556 21.1049C18.8079 21.1324 18.7317 21.128 18.6846 21.0949L18.4986 20.9642C18.4733 20.9464 18.4616 20.9244 18.4636 20.9035L18.4445 21.1083C18.4426 21.1291 18.4542 21.151 18.4796 21.169L18.6655 21.2996C18.7126 21.3326 18.7888 21.3372 18.8365 21.3097L19.3413 21.0182C19.3636 21.0053 19.3758 20.9876 19.3775 20.9691H19.3776Z" fill="#9EA9C9"/>
<path d="M20.1589 21.3004L20.1577 21.3077V21.3113L20.1408 21.5057C20.1384 21.5238 20.1263 21.5419 20.1045 21.554L19.5998 21.8462C19.5515 21.8728 19.4754 21.868 19.4283 21.8354L19.2424 21.7049C19.217 21.6868 19.2049 21.6651 19.2073 21.6434L19.2254 21.4465C19.2254 21.4441 19.2254 21.4417 19.2267 21.4393C19.2279 21.4212 19.2399 21.4031 19.2617 21.391L19.7664 21.0987C19.8147 21.071 19.892 21.0758 19.9391 21.1084L20.1239 21.2388C20.1492 21.2569 20.1613 21.2787 20.1589 21.3004Z" fill="#FEBC1F"/>
<path d="M19.2617 21.3904C19.214 21.4179 19.2135 21.4666 19.2607 21.4996L19.4467 21.6303C19.4938 21.6634 19.5707 21.6685 19.6184 21.6409L20.1231 21.3495C20.1707 21.322 20.1712 21.2723 20.1241 21.2391L19.9381 21.1085C19.891 21.0754 19.814 21.0715 19.7664 21.0989L19.2617 21.3904Z" fill="#FFD06C"/>
<path d="M20.1232 21.3494L19.6184 21.6409C19.5707 21.6685 19.4937 21.6634 19.4466 21.6303L19.2606 21.4996C19.2355 21.482 19.2239 21.4598 19.2258 21.4388L19.2067 21.6436C19.2048 21.6646 19.2164 21.6867 19.2416 21.7044L19.4276 21.835C19.4747 21.8681 19.5516 21.8733 19.5993 21.8456L20.1041 21.5542C20.1263 21.5414 20.1383 21.5239 20.1399 21.5053L20.1589 21.3006C20.1572 21.3191 20.1453 21.3366 20.1232 21.3494Z" fill="#FEBC1F"/>
<path d="M16.686 22.3352V22.3388C16.686 22.34 16.6848 22.3412 16.6836 22.3424C16.6848 22.34 16.686 22.3376 16.686 22.3352Z" fill="#C9CEE2"/>
<path d="M15.7904 22.4191C15.7437 22.4461 15.7415 22.4948 15.7894 22.5285L15.9754 22.659C16.0225 22.6922 16.0995 22.6962 16.1463 22.6692L16.6502 22.3781C16.6987 22.3502 16.7 22.301 16.6529 22.2679L16.467 22.1372C16.419 22.1037 16.3428 22.1002 16.2943 22.1282L15.7904 22.4191Z" fill="#C9CEE2"/>
<path d="M16.6681 22.5331L16.6872 22.3283C16.6854 22.347 16.6731 22.365 16.6502 22.3781L16.1462 22.6692C16.0995 22.6961 16.0225 22.6921 15.9754 22.659L15.7894 22.5285C15.7641 22.5106 15.7527 22.4886 15.7546 22.4677L15.7356 22.6724C15.7336 22.6933 15.745 22.7153 15.7705 22.7332L15.9564 22.8638C16.0035 22.8969 16.0804 22.9009 16.1273 22.8738L16.6312 22.5829C16.6541 22.5697 16.6665 22.5518 16.6681 22.5331Z" fill="#9EA9C9"/>
<path d="M17.4499 22.8642L17.4306 23.0695C17.4282 23.0876 17.4161 23.1057 17.3944 23.119L16.8896 23.4088C16.8425 23.4366 16.7652 23.4329 16.7181 23.3991L16.5322 23.2687C16.5068 23.2506 16.496 23.2289 16.4972 23.2083L16.5165 23.0079V23.0067C16.5165 22.9861 16.5286 22.968 16.5527 22.9547L17.0563 22.6637C17.1046 22.6359 17.1818 22.6396 17.2289 22.6722L17.4149 22.8038C17.4427 22.8231 17.4535 22.8485 17.4475 22.8714C17.4488 22.8692 17.4497 22.8667 17.4499 22.8642Z" fill="#78E75A"/>
<path d="M17.4128 22.9142L16.9081 23.2046C16.8614 23.2316 16.7843 23.2275 16.7372 23.1944L16.5513 23.0639C16.5261 23.0463 16.5148 23.0241 16.5167 23.0031L16.4978 23.2079C16.4958 23.2287 16.5072 23.251 16.5323 23.2686L16.7183 23.3992C16.7654 23.4323 16.8423 23.4363 16.8891 23.4093L17.3939 23.119C17.4166 23.1059 17.4287 23.0881 17.4305 23.0695L17.4494 22.8647C17.4477 22.8833 17.4356 22.9011 17.4128 22.9142Z" fill="#5EC363"/>
<path d="M16.5524 22.9545C16.5055 22.9816 16.5042 23.0308 16.5513 23.0639L16.7373 23.1944C16.7843 23.2275 16.8614 23.2316 16.9082 23.2046L17.413 22.9142C17.4614 22.8862 17.4619 22.8364 17.4148 22.8033L17.2288 22.6727C17.1818 22.6396 17.1047 22.6356 17.0562 22.6636L16.5524 22.9546V22.9545Z" fill="#78E75A"/>
<path d="M31.5047 18.7161C31.5059 18.9287 31.3561 19.1871 31.1727 19.2933C31.0699 19.3525 30.9781 19.3525 30.9165 19.3042L30.6134 19.1291C30.5543 19.0941 30.5168 19.0204 30.5156 18.9154C30.5156 18.7029 30.6642 18.4444 30.8489 18.3394C30.9419 18.285 31.0264 18.2802 31.0868 18.3152L31.3935 18.4952L31.4008 18.4988C31.4648 18.5314 31.5046 18.6075 31.5046 18.7161H31.5047Z" fill="#DEDFFB"/>
<path d="M30.5161 18.9153C30.517 19.0203 30.5544 19.0942 30.6138 19.1292L30.9355 19.3164C30.8752 19.2815 30.8378 19.2075 30.8378 19.1017C30.837 18.8903 30.9858 18.6323 31.1698 18.5257C31.2625 18.4721 31.347 18.4671 31.4073 18.5022L31.0864 18.3157C31.0262 18.2807 30.9415 18.2855 30.8489 18.3393C30.6642 18.445 30.5161 18.703 30.5161 18.9153Z" fill="#B0B8CF"/>
<path d="M31.1697 18.5258C30.9855 18.6321 30.8368 18.89 30.8374 19.1018C30.838 19.3135 30.9876 19.3995 31.1719 19.2931C31.3562 19.1868 31.5055 18.9282 31.5049 18.7164C31.5043 18.5047 31.354 18.4193 31.1697 18.5258Z" fill="#DEDFFB"/>
<path d="M7.91199 17.1053V17.1125L7.90342 20.7666L5.26372 22.3013L3.92817 23.0681L0.495117 21.0866L0.512023 14.3521L3.15172 12.8185L6.58478 14.8001V14.8073L7.90946 17.1077L7.91199 17.1053Z" fill="#C6C8E5"/>
<path d="M5.27261 18.6397L7.91195 17.1059L7.9035 20.767L5.26416 22.3009L5.27261 18.6397Z" fill="#E9E7FC"/>
<path d="M3.94531 16.3414L6.58465 14.8075L7.91211 17.1131L5.27277 18.6469L3.94531 16.3414Z" fill="#F3F1FC"/>
<path d="M3.94495 16.3341L5.27241 18.6397L5.26396 22.3009L3.92781 23.0686L0.494629 21.0866L0.511897 14.3519L3.94495 16.3341Z" fill="#DEDFFB"/>
<path d="M1.09961 20.7384L1.11325 15.3962L3.50299 16.7758L4.66851 18.8004L4.66127 21.9509L3.92877 22.3719L1.09961 20.7384Z" fill="#C6C8E5"/>
<path d="M6.80007 18.2248C6.89825 18.168 6.98917 18.1781 7.03554 18.2506L7.4321 18.8641C7.48294 18.9422 7.41544 19.1119 7.30893 19.1732L5.87014 20.004C5.79262 20.0488 5.72934 20.0128 5.7291 19.9236L5.72656 19.0064C5.72632 18.9172 5.78899 18.8084 5.86664 18.7637L6.80007 18.2248Z" fill="#4C5C75"/>
<path d="M0.512207 14.3519L3.15154 12.8181L6.5846 14.8003L3.94526 16.3341L0.512207 14.3519Z" fill="#E9E7FC"/>
<path d="M11.7561 8.51985L1.84766 14.2782L4.07498 15.5638L11.7561 11.1001V8.51985Z" fill="#C6C8E5"/>
</svg>
