<svg width="24" height="24" viewBox="0 0 24 24" fill="none" xmlns="http://www.w3.org/2000/svg">
<path d="M22.2026 4.13794H1.79742C0.804703 4.13794 0 4.94264 0 5.93536V8.91375H24V5.93536C24 4.94264 23.1953 4.13794 22.2026 4.13794Z" fill="#82AFFF"/>
<path d="M0 18.0646C0 19.0573 0.804703 19.8621 1.79742 19.8621H22.2026C23.1952 19.8621 24 19.0574 24 18.0646V15.0862H0V18.0646Z" fill="#73AF00"/>
<path d="M24 9.56718H0V14.4323H24V9.56718Z" fill="#F5F5F5"/>
<path d="M0 9.37931V9.56727H24V9.37931V8.9137H0V9.37931Z" fill="#FF4B55"/>
<path d="M0 14.6207V15.0863H24V14.6207V14.4327H0V14.6207Z" fill="#FF4B55"/>
<path d="M5.32067 8.06582C4.47354 8.06582 3.78687 7.38079 3.78687 6.53671C3.78687 5.68954 4.4735 5.00142 5.32067 5.00142C5.32395 5.00142 5.32714 5.00142 5.33032 5.00146C5.3802 5.00212 5.39768 4.93589 5.35371 4.91231C5.09285 4.77248 4.79515 4.69335 4.47865 4.69565C3.46503 4.70287 2.64167 5.54282 2.65245 6.55645C2.66304 7.55962 3.48317 8.37164 4.49192 8.37164C4.80406 8.37164 5.09759 8.29265 5.35521 8.15474C5.39904 8.13126 5.38132 8.06503 5.33164 8.06573C5.32789 8.06582 5.32428 8.06582 5.32067 8.06582Z" fill="#F5F5F5"/>
<path d="M6.52104 7.64297L6.45255 7.84837L6.23604 7.85001C6.208 7.8502 6.19638 7.88601 6.21893 7.90265L6.39311 8.03128L6.32777 8.23772C6.31933 8.26443 6.34975 8.28656 6.37258 8.27025L6.54874 8.14434L6.7249 8.27025C6.74772 8.28656 6.7781 8.26443 6.76971 8.23772L6.70436 8.03128L6.8785 7.90265C6.90105 7.88601 6.88943 7.8502 6.86139 7.85001L6.64488 7.84837L6.5764 7.64297C6.56754 7.61639 6.52994 7.61639 6.52104 7.64297Z" fill="#F5F5F5"/>
<path d="M8.04643 7.64297L7.97794 7.84837L7.76143 7.85001C7.7334 7.8502 7.72177 7.88601 7.74432 7.90265L7.91846 8.03128L7.85311 8.23772C7.84468 8.26443 7.8751 8.28656 7.89793 8.27025L8.07408 8.14434L8.25024 8.27025C8.27307 8.28656 8.30344 8.26443 8.29505 8.23772L8.22971 8.03128L8.40385 7.90265C8.4264 7.88601 8.41477 7.8502 8.38674 7.85001L8.17022 7.84837L8.10174 7.64297C8.09288 7.61639 8.05524 7.61639 8.04643 7.64297Z" fill="#F5F5F5"/>
<path d="M9.57182 7.64297L9.50333 7.84837L9.28682 7.85001C9.25879 7.8502 9.24716 7.88601 9.26971 7.90265L9.44389 8.03128L9.37855 8.23772C9.37011 8.26443 9.40054 8.28656 9.42336 8.27025L9.59952 8.14434L9.77568 8.27025C9.7985 8.28656 9.82888 8.26443 9.82049 8.23772L9.75514 8.03128L9.92929 7.90265C9.95183 7.88601 9.94021 7.8502 9.91218 7.85001L9.69566 7.84837L9.62718 7.64297C9.61832 7.61639 9.58068 7.61639 9.57182 7.64297Z" fill="#F5F5F5"/>
<path d="M11.0972 7.64297L11.0287 7.84837L10.8122 7.85001C10.7842 7.8502 10.7726 7.88601 10.7951 7.90265L10.9692 8.03128L10.9039 8.23772C10.8955 8.26443 10.9259 8.28656 10.9487 8.27025L11.1249 8.14434L11.301 8.27025C11.3238 8.28656 11.3542 8.26443 11.3458 8.23772L11.2805 8.03128L11.4546 7.90265C11.4772 7.88601 11.4656 7.8502 11.4375 7.85001L11.221 7.84837L11.1525 7.64297C11.1437 7.61639 11.1061 7.61639 11.0972 7.64297Z" fill="#F5F5F5"/>
<path d="M12.6226 7.64297L12.5541 7.84837L12.3376 7.85001C12.3096 7.8502 12.2979 7.88601 12.3205 7.90265L12.4947 8.03128L12.4293 8.23772C12.4209 8.26443 12.4513 8.28656 12.4741 8.27025L12.6503 8.14434L12.8265 8.27025C12.8493 8.28656 12.8797 8.26443 12.8713 8.23772L12.8059 8.03128L12.9801 7.90265C13.0027 7.88601 12.991 7.8502 12.963 7.85001L12.7465 7.84837L12.678 7.64297C12.6691 7.61639 12.6315 7.61639 12.6226 7.64297Z" fill="#F5F5F5"/>
<path d="M8.04643 6.21928L7.97794 6.42469L7.76143 6.42633C7.7334 6.42652 7.72177 6.46233 7.74432 6.47897L7.91846 6.6076L7.85311 6.81403C7.84468 6.84075 7.8751 6.86288 7.89793 6.84657L8.07408 6.72066L8.25024 6.84657C8.27307 6.86288 8.30344 6.84075 8.29505 6.81403L8.22971 6.6076L8.40385 6.47897C8.4264 6.46233 8.41477 6.42652 8.38674 6.42633L8.17022 6.42469L8.10174 6.21928C8.09288 6.19261 8.05524 6.19261 8.04643 6.21928Z" fill="#F5F5F5"/>
<path d="M9.57182 6.21928L9.50333 6.42469L9.28682 6.42633C9.25879 6.42652 9.24716 6.46233 9.26971 6.47897L9.44389 6.6076L9.37855 6.81403C9.37011 6.84075 9.40054 6.86288 9.42336 6.84657L9.59952 6.72066L9.77568 6.84657C9.7985 6.86288 9.82888 6.84075 9.82049 6.81403L9.75514 6.6076L9.92929 6.47897C9.95183 6.46233 9.94021 6.42652 9.91218 6.42633L9.69566 6.42469L9.62718 6.21928C9.61832 6.19261 9.58068 6.19261 9.57182 6.21928Z" fill="#F5F5F5"/>
<path d="M11.0972 6.21928L11.0287 6.42469L10.8122 6.42633C10.7842 6.42652 10.7726 6.46233 10.7951 6.47897L10.9692 6.6076L10.9039 6.81403C10.8955 6.84075 10.9259 6.86288 10.9487 6.84657L11.1249 6.72066L11.301 6.84657C11.3238 6.86288 11.3542 6.84075 11.3458 6.81403L11.2805 6.6076L11.4546 6.47897C11.4772 6.46233 11.4656 6.42652 11.4375 6.42633L11.221 6.42469L11.1525 6.21928C11.1437 6.19261 11.1061 6.19261 11.0972 6.21928Z" fill="#F5F5F5"/>
<path d="M12.6226 6.21928L12.5541 6.42469L12.3376 6.42633C12.3096 6.42652 12.2979 6.46233 12.3205 6.47897L12.4947 6.6076L12.4293 6.81403C12.4209 6.84075 12.4513 6.86288 12.4741 6.84657L12.6503 6.72066L12.8265 6.84657C12.8493 6.86288 12.8797 6.84075 12.8713 6.81403L12.8059 6.6076L12.9801 6.47897C13.0027 6.46233 12.991 6.42652 12.963 6.42633L12.7465 6.42469L12.678 6.21928C12.6691 6.19261 12.6315 6.19261 12.6226 6.21928Z" fill="#F5F5F5"/>
<path d="M9.57182 7.64297L9.50333 7.84837L9.28682 7.85001C9.25879 7.8502 9.24716 7.88601 9.26971 7.90265L9.44389 8.03128L9.37855 8.23772C9.37011 8.26443 9.40054 8.28656 9.42336 8.27025L9.59952 8.14434L9.77568 8.27025C9.7985 8.28656 9.82888 8.26443 9.82049 8.23772L9.75514 8.03128L9.92929 7.90265C9.95183 7.88601 9.94021 7.8502 9.91218 7.85001L9.69566 7.84837L9.62718 7.64297C9.61832 7.61639 9.58068 7.61639 9.57182 7.64297Z" fill="#F5F5F5"/>
<path d="M9.57182 4.79549L9.50333 5.0009L9.28682 5.00254C9.25879 5.00273 9.24716 5.03854 9.26971 5.05518L9.44389 5.1838L9.37855 5.39024C9.37011 5.41696 9.40054 5.43909 9.42336 5.42277L9.59952 5.29687L9.77568 5.42277C9.7985 5.43909 9.82888 5.41696 9.82049 5.39024L9.75514 5.1838L9.92929 5.05518C9.95183 5.03854 9.94021 5.00273 9.91218 5.00254L9.69566 5.0009L9.62718 4.79549C9.61832 4.76891 9.58068 4.76891 9.57182 4.79549Z" fill="#F5F5F5"/>
<path d="M11.0972 7.64297L11.0287 7.84837L10.8122 7.85001C10.7842 7.8502 10.7726 7.88601 10.7951 7.90265L10.9692 8.03128L10.9039 8.23772C10.8955 8.26443 10.9259 8.28656 10.9487 8.27025L11.1249 8.14434L11.301 8.27025C11.3238 8.28656 11.3542 8.26443 11.3458 8.23772L11.2805 8.03128L11.4546 7.90265C11.4772 7.88601 11.4656 7.8502 11.4375 7.85001L11.221 7.84837L11.1525 7.64297C11.1437 7.61639 11.1061 7.61639 11.0972 7.64297Z" fill="#F5F5F5"/>
<path d="M12.6226 7.64297L12.5541 7.84837L12.3376 7.85001C12.3096 7.8502 12.2979 7.88601 12.3205 7.90265L12.4947 8.03128L12.4293 8.23772C12.4209 8.26443 12.4513 8.28656 12.4741 8.27025L12.6503 8.14434L12.8265 8.27025C12.8493 8.28656 12.8797 8.26443 12.8713 8.23772L12.8059 8.03128L12.9801 7.90265C13.0027 7.88601 12.991 7.8502 12.963 7.85001L12.7465 7.84837L12.678 7.64297C12.6691 7.61639 12.6315 7.61639 12.6226 7.64297Z" fill="#F5F5F5"/>
<path d="M11.0972 4.79549L11.0287 5.0009L10.8122 5.00254C10.7842 5.00273 10.7726 5.03854 10.7951 5.05518L10.9692 5.1838L10.9039 5.39024C10.8955 5.41696 10.9259 5.43909 10.9487 5.42277L11.1249 5.29687L11.301 5.42277C11.3238 5.43909 11.3542 5.41696 11.3458 5.39024L11.2805 5.1838L11.4546 5.05518C11.4772 5.03854 11.4656 5.00273 11.4375 5.00254L11.221 5.0009L11.1525 4.79549C11.1437 4.76891 11.1061 4.76891 11.0972 4.79549Z" fill="#F5F5F5"/>
<path d="M12.6226 4.79549L12.5541 5.0009L12.3376 5.00254C12.3096 5.00273 12.2979 5.03854 12.3205 5.05518L12.4947 5.1838L12.4293 5.39024C12.4209 5.41696 12.4513 5.43909 12.4741 5.42277L12.6503 5.29687L12.8265 5.42277C12.8493 5.43909 12.8797 5.41696 12.8713 5.39024L12.8059 5.1838L12.9801 5.05518C13.0027 5.03854 12.991 5.00273 12.963 5.00254L12.7465 5.0009L12.678 4.79549C12.6691 4.76891 12.6315 4.76891 12.6226 4.79549Z" fill="#F5F5F5"/>
</svg>
