<svg width="24" height="24" viewBox="0 0 24 24" fill="none" xmlns="http://www.w3.org/2000/svg">
<path d="M22.2026 4.1377H1.79742C0.804703 4.1377 0 4.9424 0 5.93512V8.91351H24V5.93512C24 4.9424 23.1953 4.1377 22.2026 4.1377Z" fill="#82AFFF"/>
<path d="M0 18.0648C0 19.0575 0.804703 19.8622 1.79742 19.8622H22.2026C23.1952 19.8622 24 19.0575 24 18.0648V15.0864H0V18.0648Z" fill="#73AF00"/>
<path d="M24 9.56738H0V14.4325H24V9.56738Z" fill="#F5F5F5"/>
<path d="M0 9.37918V9.56715H24V9.37918V8.91357H0V9.37918Z" fill="#FF4B55"/>
<path d="M0 14.6206V15.0862H24V14.6206V14.4326H0V14.6206Z" fill="#FF4B55"/>
<path d="M5.31969 8.06602C4.47257 8.06602 3.78589 7.38099 3.78589 6.53691C3.78589 5.68974 4.47252 5.00161 5.31969 5.00161C5.32297 5.00161 5.32616 5.00161 5.32935 5.00166C5.37922 5.00232 5.39671 4.93608 5.35274 4.91251C5.09188 4.77268 4.79417 4.69355 4.47767 4.69585C3.46405 4.70307 2.64069 5.54302 2.65147 6.55665C2.66207 7.55982 3.48219 8.37183 4.49094 8.37183C4.80308 8.37183 5.09661 8.29285 5.35424 8.15494C5.39807 8.13146 5.38035 8.06522 5.33066 8.06593C5.32691 8.06602 5.3233 8.06602 5.31969 8.06602Z" fill="#F5F5F5"/>
<path d="M6.52055 7.64298L6.45206 7.84839L6.23555 7.85003C6.20752 7.85021 6.19589 7.88603 6.21844 7.90267L6.39263 8.03129L6.32728 8.23773C6.31884 8.26445 6.34927 8.28657 6.37209 8.27026L6.54825 8.14436L6.72441 8.27026C6.74724 8.28657 6.77761 8.26445 6.76922 8.23773L6.70388 8.03129L6.87802 7.90267C6.90056 7.88603 6.88894 7.85021 6.86091 7.85003L6.64439 7.84839L6.57591 7.64298C6.56705 7.6164 6.52945 7.6164 6.52055 7.64298Z" fill="#F5F5F5"/>
<path d="M8.04594 7.64298L7.97745 7.84839L7.76094 7.85003C7.73291 7.85021 7.72128 7.88603 7.74383 7.90267L7.91797 8.03129L7.85263 8.23773C7.84419 8.26445 7.87461 8.28657 7.89744 8.27026L8.07359 8.14436L8.24975 8.27026C8.27258 8.28657 8.30295 8.26445 8.29456 8.23773L8.22922 8.03129L8.40336 7.90267C8.42591 7.88603 8.41428 7.85021 8.38625 7.85003L8.16973 7.84839L8.10125 7.64298C8.09239 7.6164 8.05475 7.6164 8.04594 7.64298Z" fill="#F5F5F5"/>
<path d="M9.57182 7.64298L9.50333 7.84839L9.28682 7.85003C9.25879 7.85021 9.24716 7.88603 9.26971 7.90267L9.44389 8.03129L9.37855 8.23773C9.37011 8.26445 9.40054 8.28657 9.42336 8.27026L9.59952 8.14436L9.77568 8.27026C9.7985 8.28657 9.82888 8.26445 9.82049 8.23773L9.75514 8.03129L9.92929 7.90267C9.95183 7.88603 9.94021 7.85021 9.91218 7.85003L9.69566 7.84839L9.62718 7.64298C9.61832 7.6164 9.58068 7.6164 9.57182 7.64298Z" fill="#F5F5F5"/>
<path d="M11.0972 7.64298L11.0287 7.84839L10.8122 7.85003C10.7842 7.85021 10.7726 7.88603 10.7951 7.90267L10.9692 8.03129L10.9039 8.23773C10.8955 8.26445 10.9259 8.28657 10.9487 8.27026L11.1249 8.14436L11.301 8.27026C11.3238 8.28657 11.3542 8.26445 11.3458 8.23773L11.2805 8.03129L11.4546 7.90267C11.4772 7.88603 11.4656 7.85021 11.4375 7.85003L11.221 7.84839L11.1525 7.64298C11.1437 7.6164 11.1061 7.6164 11.0972 7.64298Z" fill="#F5F5F5"/>
<path d="M12.6226 7.64298L12.5541 7.84839L12.3376 7.85003C12.3096 7.85021 12.2979 7.88603 12.3205 7.90267L12.4947 8.03129L12.4293 8.23773C12.4209 8.26445 12.4513 8.28657 12.4741 8.27026L12.6503 8.14436L12.8265 8.27026C12.8493 8.28657 12.8797 8.26445 12.8713 8.23773L12.8059 8.03129L12.9801 7.90267C13.0027 7.88603 12.991 7.85021 12.963 7.85003L12.7465 7.84839L12.678 7.64298C12.6691 7.6164 12.6315 7.6164 12.6226 7.64298Z" fill="#F5F5F5"/>
<path d="M8.04594 6.21971L7.97745 6.42512L7.76094 6.42676C7.73291 6.42695 7.72128 6.46276 7.74383 6.4794L7.91797 6.60802L7.85263 6.81446C7.84419 6.84118 7.87461 6.8633 7.89744 6.84699L8.07359 6.72109L8.24975 6.84699C8.27258 6.8633 8.30295 6.84118 8.29456 6.81446L8.22922 6.60802L8.40336 6.4794C8.42591 6.46276 8.41428 6.42695 8.38625 6.42676L8.16973 6.42512L8.10125 6.21971C8.09239 6.19304 8.05475 6.19304 8.04594 6.21971Z" fill="#F5F5F5"/>
<path d="M9.57182 6.21971L9.50333 6.42512L9.28682 6.42676C9.25879 6.42695 9.24716 6.46276 9.26971 6.4794L9.44389 6.60802L9.37855 6.81446C9.37011 6.84118 9.40054 6.8633 9.42336 6.84699L9.59952 6.72109L9.77568 6.84699C9.7985 6.8633 9.82888 6.84118 9.82049 6.81446L9.75514 6.60802L9.92929 6.4794C9.95183 6.46276 9.94021 6.42695 9.91218 6.42676L9.69566 6.42512L9.62718 6.21971C9.61832 6.19304 9.58068 6.19304 9.57182 6.21971Z" fill="#F5F5F5"/>
<path d="M11.0972 6.21971L11.0287 6.42512L10.8122 6.42676C10.7842 6.42695 10.7726 6.46276 10.7951 6.4794L10.9692 6.60802L10.9039 6.81446C10.8955 6.84118 10.9259 6.8633 10.9487 6.84699L11.1249 6.72109L11.301 6.84699C11.3238 6.8633 11.3542 6.84118 11.3458 6.81446L11.2805 6.60802L11.4546 6.4794C11.4772 6.46276 11.4656 6.42695 11.4375 6.42676L11.221 6.42512L11.1525 6.21971C11.1437 6.19304 11.1061 6.19304 11.0972 6.21971Z" fill="#F5F5F5"/>
<path d="M12.6226 6.21971L12.5541 6.42512L12.3376 6.42676C12.3096 6.42695 12.2979 6.46276 12.3205 6.4794L12.4947 6.60802L12.4293 6.81446C12.4209 6.84118 12.4513 6.8633 12.4741 6.84699L12.6503 6.72109L12.8265 6.84699C12.8493 6.8633 12.8797 6.84118 12.8713 6.81446L12.8059 6.60802L12.9801 6.4794C13.0027 6.46276 12.991 6.42695 12.963 6.42676L12.7465 6.42512L12.678 6.21971C12.6691 6.19304 12.6315 6.19304 12.6226 6.21971Z" fill="#F5F5F5"/>
<path d="M9.57182 7.64298L9.50333 7.84839L9.28682 7.85003C9.25879 7.85021 9.24716 7.88603 9.26971 7.90267L9.44389 8.03129L9.37855 8.23773C9.37011 8.26445 9.40054 8.28657 9.42336 8.27026L9.59952 8.14436L9.77568 8.27026C9.7985 8.28657 9.82888 8.26445 9.82049 8.23773L9.75514 8.03129L9.92929 7.90267C9.95183 7.88603 9.94021 7.85021 9.91218 7.85003L9.69566 7.84839L9.62718 7.64298C9.61832 7.6164 9.58068 7.6164 9.57182 7.64298Z" fill="#F5F5F5"/>
<path d="M9.57182 4.79581L9.50333 5.00122L9.28682 5.00286C9.25879 5.00305 9.24716 5.03886 9.26971 5.0555L9.44389 5.18412L9.37855 5.39056C9.37011 5.41728 9.40054 5.43941 9.42336 5.42309L9.59952 5.29719L9.77568 5.42309C9.7985 5.43941 9.82888 5.41728 9.82049 5.39056L9.75514 5.18412L9.92929 5.0555C9.95183 5.03886 9.94021 5.00305 9.91218 5.00286L9.69566 5.00122L9.62718 4.79581C9.61832 4.76923 9.58068 4.76923 9.57182 4.79581Z" fill="#F5F5F5"/>
<path d="M11.0972 7.64298L11.0287 7.84839L10.8122 7.85003C10.7842 7.85021 10.7726 7.88603 10.7951 7.90267L10.9692 8.03129L10.9039 8.23773C10.8955 8.26445 10.9259 8.28657 10.9487 8.27026L11.1249 8.14436L11.301 8.27026C11.3238 8.28657 11.3542 8.26445 11.3458 8.23773L11.2805 8.03129L11.4546 7.90267C11.4772 7.88603 11.4656 7.85021 11.4375 7.85003L11.221 7.84839L11.1525 7.64298C11.1437 7.6164 11.1061 7.6164 11.0972 7.64298Z" fill="#F5F5F5"/>
<path d="M12.6226 7.64298L12.5541 7.84839L12.3376 7.85003C12.3096 7.85021 12.2979 7.88603 12.3205 7.90267L12.4947 8.03129L12.4293 8.23773C12.4209 8.26445 12.4513 8.28657 12.4741 8.27026L12.6503 8.14436L12.8265 8.27026C12.8493 8.28657 12.8797 8.26445 12.8713 8.23773L12.8059 8.03129L12.9801 7.90267C13.0027 7.88603 12.991 7.85021 12.963 7.85003L12.7465 7.84839L12.678 7.64298C12.6691 7.6164 12.6315 7.6164 12.6226 7.64298Z" fill="#F5F5F5"/>
<path d="M11.0972 4.79581L11.0287 5.00122L10.8122 5.00286C10.7842 5.00305 10.7726 5.03886 10.7951 5.0555L10.9692 5.18412L10.9039 5.39056C10.8955 5.41728 10.9259 5.43941 10.9487 5.42309L11.1249 5.29719L11.301 5.42309C11.3238 5.43941 11.3542 5.41728 11.3458 5.39056L11.2805 5.18412L11.4546 5.0555C11.4772 5.03886 11.4656 5.00305 11.4375 5.00286L11.221 5.00122L11.1525 4.79581C11.1437 4.76923 11.1061 4.76923 11.0972 4.79581Z" fill="#F5F5F5"/>
<path d="M12.6226 4.79581L12.5541 5.00122L12.3376 5.00286C12.3096 5.00305 12.2979 5.03886 12.3205 5.0555L12.4947 5.18412L12.4293 5.39056C12.4209 5.41728 12.4513 5.43941 12.4741 5.42309L12.6503 5.29719L12.8265 5.42309C12.8493 5.43941 12.8797 5.41728 12.8713 5.39056L12.8059 5.18412L12.9801 5.0555C13.0027 5.03886 12.991 5.00305 12.963 5.00286L12.7465 5.00122L12.678 4.79581C12.6691 4.76923 12.6315 4.76923 12.6226 4.79581Z" fill="#F5F5F5"/>
</svg>
