<svg width="160" height="89" viewBox="0 0 160 89" fill="none" xmlns="http://www.w3.org/2000/svg">
<path fill-rule="evenodd" clip-rule="evenodd" d="M13.7004 9.53027H44.3912C49.5272 9.53027 53.7292 13.737 53.7292 18.8785V49.6039C53.7292 54.7455 49.5272 58.9523 44.3912 58.9523H19.5215V56.9208H44.3912C48.407 56.9208 51.7 53.6242 51.7 49.6039V18.8785C51.7 14.8582 48.407 11.5617 44.3912 11.5617H13.7004C9.68474 11.5617 6.39156 14.8584 6.39156 18.8785V49.6039C6.39156 52.8265 8.5076 55.5836 11.4156 56.5511V58.667C7.3748 57.6397 4.3623 53.9571 4.3623 49.6039V18.8785C4.3623 13.737 8.56459 9.53027 13.7004 9.53027Z" fill="white"/>
<path fill-rule="evenodd" clip-rule="evenodd" d="M30.2955 18.8855C38.3274 19.5226 44.6468 26.249 44.6468 34.4534C44.6468 34.9759 44.6208 35.4923 44.5709 36.0018H43.4979H40.5674H30.2135V32.4216H40.4929C39.6037 27.3662 35.4545 23.4357 30.2955 22.8835V18.8855ZM43.4815 40.3846C41.299 45.7015 36.2717 49.5476 30.2955 50.0218V46.0236C34.0232 45.6246 37.2241 43.4613 39.0486 40.3846H43.4815ZM28.1849 50.0481C23.9512 49.8177 20.1666 47.8971 17.4926 44.9485V62.3727H15.9239C15.0735 62.3727 14.2436 62.2778 13.4453 62.0982V34.4534C13.4453 26.1172 19.9699 19.307 28.1849 18.8594V22.8482C22.1674 23.2893 17.4221 28.3165 17.4221 34.4534L17.4926 35.736C18.0999 41.2778 22.5925 45.6489 28.1849 46.0589V50.0481Z" fill="white"/>
<path fill-rule="evenodd" clip-rule="evenodd" d="M61.4479 9.53027H62.6794C62.8 9.53027 62.8988 9.62905 62.8988 9.74987V58.7329C62.8988 58.8533 62.8 58.9523 62.6794 58.9523H61.4479C61.3273 58.9523 61.2285 58.8533 61.2285 58.7329V9.74987C61.2285 9.62905 61.3273 9.53027 61.4479 9.53027Z" fill="white"/>
<path d="M75.1145 15.565H70.6094V32.6309H73.069V26.6335H75.1145C78.451 26.6335 80.3503 24.6586 80.3503 21.0748C80.3503 17.5883 78.451 15.565 75.1145 15.565ZM75.0901 24.293H73.069V17.9055H75.0901C76.941 17.9055 77.842 18.9782 77.842 21.0748C77.842 23.2691 76.941 24.293 75.0901 24.293ZM87.5345 32.9478C90.7979 32.9478 92.7459 30.7779 92.7459 27.2185V20.9773C92.7459 17.4177 90.7979 15.248 87.5345 15.248C84.2712 15.248 82.323 17.4177 82.323 20.9773V27.2185C82.323 30.7779 84.2712 32.9478 87.5345 32.9478ZM87.5345 30.5341C85.7569 30.5341 84.8556 29.364 84.8556 27.2185V20.9773C84.8556 18.8319 85.7569 17.6615 87.5345 17.6615C89.2879 17.6615 90.2133 18.8319 90.2133 20.9773V27.2185C90.2133 29.364 89.2879 30.5341 87.5345 30.5341ZM98.1281 30.2904V15.565H95.6685V32.6309H103.778V30.2904H98.1281ZM105.653 15.565V32.6309H108.113V15.565H105.653ZM116.052 32.899C119.12 32.899 121.044 31.0217 121.093 27.6817V23.3422H115.979V25.5363H118.682V27.6817C118.682 29.6322 117.708 30.5341 116.076 30.5341C114.493 30.5341 113.519 29.6322 113.519 27.5598V20.6361C113.519 18.5637 114.444 17.6615 116.003 17.6615C117.562 17.6615 118.438 18.5149 118.536 20.4898H120.971C120.849 17.1252 119.023 15.2969 116.003 15.2969C112.91 15.2969 111.011 17.1495 111.011 20.6117V27.5598C111.011 31.0217 112.983 32.899 116.052 32.899ZM131.053 32.6309H133.78L130.079 26.0971C132.027 25.39 133.147 23.5616 133.147 20.9042C133.147 17.5152 131.296 15.565 128.033 15.565H123.625V32.6309H126.085V26.4384H127.619L131.053 32.6309ZM126.085 17.9055H128.009C129.713 17.9055 130.614 18.9293 130.614 20.9529C130.614 22.9763 129.713 24.0979 127.984 24.0979H126.085V17.9055ZM143.034 32.6309H145.591L141.305 15.565H138.651L134.365 32.6309H136.946L137.725 29.1934H142.231L143.034 32.6309ZM138.261 26.9016L139.308 22.3181C139.576 21.1967 139.82 19.5632 139.942 18.6612H140.015C140.136 19.5632 140.404 21.1967 140.648 22.3181L141.719 26.9016H138.261ZM155.527 17.8811V15.565H147.491V32.6309H149.951V25.2193H155.089V22.9763H149.951V17.8811H155.527ZM73.069 53.4358V48.2185H78.4997V45.9511H73.069V41.0022H78.9624V38.686H70.6094V55.7519H79.2059V53.4358H73.069ZM91.1873 55.7519L87.1205 46.902L90.9438 38.686H88.2406L85.781 44.464L83.297 38.686H80.5938L84.4174 46.902L80.3503 55.7519H83.0778L85.781 49.4376L88.4598 55.7519H91.1873ZM101.562 38.686H91.9665V41.0265H95.4976V55.7519H98.0059V41.0265H101.562V38.686ZM110.962 55.7519H113.689L109.988 49.2181C111.936 48.511 113.056 46.6827 113.056 44.0252C113.056 40.6363 111.205 38.686 107.942 38.686H103.534V55.7519H105.994V49.5595H107.528L110.962 55.7519ZM105.994 41.0265H107.918C109.622 41.0265 110.523 42.0504 110.523 44.074C110.523 46.0973 109.622 47.219 107.893 47.219H105.994V41.0265ZM122.943 55.7519H125.5L121.214 38.686H118.56L114.274 55.7519H116.855L117.634 52.3144H122.14L122.943 55.7519ZM118.17 50.0226L119.217 45.4391C119.485 44.3177 119.729 42.6842 119.85 41.7823H119.924C120.045 42.6842 120.313 44.3177 120.557 45.4391L121.628 50.0226H118.17Z" fill="white"/>
<path d="M8.78699 69.9404H4.3623V77.2532H5.18326V70.7204H7.96604V77.2532H8.78699V69.9404ZM12.8776 77.4203C14.3385 77.4203 15.3126 76.4871 15.3126 74.7739V72.4198C15.3126 70.7064 14.3385 69.7732 12.8776 69.7732C11.4167 69.7732 10.4427 70.7064 10.4427 72.4198V74.7739C10.4427 76.4871 11.4167 77.4203 12.8776 77.4203ZM12.8776 76.6125C11.8897 76.6125 11.2775 76.0414 11.2775 74.7739V72.4198C11.2775 71.1522 11.8897 70.581 12.8776 70.581C13.8655 70.581 14.4777 71.1522 14.4777 72.4198V74.7739C14.4777 76.0414 13.8655 76.6125 12.8776 76.6125ZM16.1196 77.309C17.4274 77.309 17.9144 76.1947 18.0396 73.9938C18.0815 73.1998 18.1509 71.8069 18.1788 70.7204H20.3076V77.2532H21.1286V69.9404H17.3718C17.3439 71.3055 17.3161 72.5172 17.2326 73.8684C17.1353 75.3311 16.9822 76.515 16.1196 76.515V77.309ZM22.965 77.2532H23.8139L26.0818 72.6705C26.3183 72.1829 26.5688 71.6676 26.6662 71.3472L26.694 71.3611C26.6662 71.9462 26.6384 72.5451 26.6384 73.3113V77.2532H27.4593V69.9404H26.6105L24.2729 74.7042C24.1339 74.9967 23.9113 75.4982 23.786 75.7906L23.7583 75.7629C23.7999 75.2195 23.786 74.6624 23.786 74.1191V69.9404H22.965V77.2532ZM32.9273 69.9404H29.2959V77.2532H30.1168V70.7343H32.9273V69.9404ZM36.5589 69.7732C35.8493 69.7732 35.2233 70.0796 34.8336 70.6229L34.7223 69.9404H34.0543V79.7605H34.8614V76.5985C35.2649 77.1558 35.905 77.4203 36.5589 77.4203C37.9642 77.4203 38.8268 76.4871 38.8268 74.6763V72.573C38.8268 70.7204 37.8807 69.7732 36.5589 69.7732ZM37.9921 74.6763C37.9921 76.0693 37.4494 76.6544 36.378 76.6544C35.4598 76.6544 34.8614 75.8463 34.8614 74.6763V72.5451C34.8614 71.1801 35.5433 70.5393 36.378 70.5393C37.3937 70.5393 37.9921 71.1382 37.9921 72.573V74.6763ZM42.6252 69.7732C41.2757 69.7732 40.3712 70.595 40.3156 71.8486H41.1365C41.1922 71.0407 41.7626 70.5672 42.5975 70.5672C43.5436 70.5672 44.0446 71.1382 44.0446 72.2108V72.9909H42.5975C40.9973 72.9909 40.093 73.771 40.093 75.1778C40.093 76.5985 41.0669 77.4203 42.4027 77.4203C43.1958 77.4203 43.7522 77.0582 44.0863 76.5707L44.1558 77.2532H44.8653V72.1969C44.8653 70.7064 44.0167 69.7732 42.6252 69.7732ZM42.5279 76.6125C41.5817 76.6125 40.9278 76.1529 40.9278 75.1917C40.9278 74.2585 41.4982 73.7571 42.5696 73.7571H44.0446V75.1917C44.0446 76.0275 43.4601 76.6125 42.5279 76.6125ZM50.8206 69.8289H50.4588V67.2241H49.6517V69.8289H49.29C47.7595 69.8289 46.5212 70.8875 46.5212 72.7262V74.537C46.5212 76.3339 47.7734 77.3646 49.29 77.3646H49.6517V79.7605H50.4588V77.3646H50.8206C52.3371 77.3646 53.5894 76.3339 53.5894 74.537V72.7262C53.5894 70.8875 52.351 69.8289 50.8206 69.8289ZM49.29 76.5567C48.2326 76.5567 47.3561 75.8882 47.3561 74.537V72.7262C47.3561 71.3194 48.2187 70.6368 49.29 70.6368H49.6517V76.5567H49.29ZM52.7546 74.537C52.7546 75.8882 51.878 76.5567 50.8206 76.5567H50.4588V70.6368H50.8206C51.892 70.6368 52.7546 71.3194 52.7546 72.7262V74.537ZM55.2451 77.2532H56.094L58.3619 72.6705C58.5984 72.1829 58.8489 71.6676 58.9462 71.3472L58.9741 71.3611C58.9462 71.9462 58.9185 72.5451 58.9185 73.3113V77.2532H59.7394V69.9404H58.8906L56.553 74.7042C56.414 74.9967 56.1913 75.4982 56.0661 75.7906L56.0383 75.7629C56.08 75.2195 56.0661 74.6624 56.0661 74.1191V69.9404H55.2451V77.2532ZM63.3847 69.9404C61.9935 69.9404 61.0751 70.8737 61.0751 72.2665C61.0751 73.4644 61.6734 74.3419 62.5916 74.537L60.8246 77.2532H61.7986L63.4682 74.5788H64.5813V77.2532H65.4022V69.9404H63.3847ZM64.5813 73.8127H63.3013C62.3829 73.8127 61.9099 73.2555 61.9099 72.2665C61.9099 71.3055 62.4525 70.7343 63.3847 70.7343H64.5813V73.8127ZM74.7663 69.9404H70.3417V77.2532H71.1625V70.7204H73.9454V77.2532H74.7663V69.9404ZM78.8569 77.4203C80.3179 77.4203 81.2919 76.4871 81.2919 74.7739V72.4198C81.2919 70.7064 80.3179 69.7732 78.8569 69.7732C77.396 69.7732 76.422 70.7064 76.422 72.4198V74.7739C76.422 76.4871 77.396 77.4203 78.8569 77.4203ZM78.8569 76.6125C77.869 76.6125 77.2569 76.0414 77.2569 74.7739V72.4198C77.2569 71.1522 77.869 70.581 78.8569 70.581C79.8448 70.581 80.457 71.1522 80.457 72.4198V74.7739C80.457 76.0414 79.8448 76.6125 78.8569 76.6125ZM82.0989 77.309C83.4068 77.309 83.8937 76.1947 84.0189 73.9938C84.0607 73.1998 84.1302 71.8069 84.1581 70.7204H86.287V77.2532H87.1078V69.9404H83.3511C83.3232 71.3055 83.2955 72.5172 83.212 73.8684C83.1146 75.3311 82.9615 76.515 82.0989 76.515V77.309ZM92.5481 69.9404V73.0745H89.7653V69.9404H88.9444V77.2532H89.7653V73.8545H92.5481V77.2532H93.3691V69.9404H92.5481ZM97.4596 77.4203C98.9206 77.4203 99.8946 76.4871 99.8946 74.7739V72.4198C99.8946 70.7064 98.9206 69.7732 97.4596 69.7732C95.9988 69.7732 95.0247 70.7064 95.0247 72.4198V74.7739C95.0247 76.4871 95.9988 77.4203 97.4596 77.4203ZM97.4596 76.6125C96.4718 76.6125 95.8596 76.0414 95.8596 74.7739V72.4198C95.8596 71.1522 96.4718 70.581 97.4596 70.581C98.4476 70.581 99.0598 71.1522 99.0598 72.4198V74.7739C99.0598 76.0414 98.4476 76.6125 97.4596 76.6125ZM105.182 69.9404H101.55V77.2532H102.371V70.7343H105.182V69.9404ZM108.257 77.4203C109.718 77.4203 110.692 76.4871 110.692 74.7739V72.4198C110.692 70.7064 109.718 69.7732 108.257 69.7732C106.796 69.7732 105.822 70.7064 105.822 72.4198V74.7739C105.822 76.4871 106.796 77.4203 108.257 77.4203ZM108.257 76.6125C107.269 76.6125 106.657 76.0414 106.657 74.7739V72.4198C106.657 71.1522 107.269 70.581 108.257 70.581C109.245 70.581 109.857 71.1522 109.857 72.4198V74.7739C109.857 76.0414 109.245 76.6125 108.257 76.6125ZM117.69 77.3926C119.137 77.3926 120.07 76.4593 120.111 74.7877H119.277C119.235 76.0136 118.664 76.5847 117.69 76.5847C116.758 76.5847 116.188 76.0136 116.188 74.7877V72.378C116.188 71.1522 116.758 70.581 117.69 70.581C118.664 70.581 119.221 71.1522 119.263 72.378H120.098C120.056 70.7064 119.137 69.7732 117.69 69.7732C116.285 69.7732 115.353 70.7064 115.353 72.378V74.7877C115.353 76.4593 116.285 77.3926 117.69 77.3926ZM125.969 69.9404H121.544V77.2532H122.365V70.7204H125.148V77.2532H125.969V69.9404ZM131.702 75.0106C131.59 76.0832 131.061 76.5847 130.004 76.5847C129.044 76.5847 128.46 76.0136 128.46 74.7877V73.9938H132.425V72.378C132.425 70.7064 131.451 69.7732 129.99 69.7732C128.571 69.7732 127.625 70.7064 127.625 72.378V74.7877C127.625 76.4593 128.557 77.3926 129.976 77.3926C131.507 77.3926 132.411 76.5428 132.523 75.0106H131.702ZM130.004 70.581C131.006 70.581 131.604 71.1522 131.604 72.378V73.2276H128.46V72.378C128.46 71.1522 129.044 70.581 130.004 70.581ZM138.005 77.2532H139.02L136.001 73.1163L138.659 69.9404H137.601L135.973 71.9322C135.611 72.378 135.25 72.8237 134.888 73.2555V69.9404H134.067V77.2532H134.888V74.4535L135.458 73.7571L138.005 77.2532ZM143.626 69.9404H139.187V70.7064H140.996V77.2532H141.817V70.7064H143.626V69.9404ZM147.215 69.7732C146.506 69.7732 145.88 70.0796 145.49 70.6229L145.379 69.9404H144.711V79.7605H145.518V76.5985C145.921 77.1558 146.562 77.4203 147.215 77.4203C148.621 77.4203 149.483 76.4871 149.483 74.6763V72.573C149.483 70.7204 148.537 69.7732 147.215 69.7732ZM148.649 74.6763C148.649 76.0693 148.106 76.6544 147.035 76.6544C146.116 76.6544 145.518 75.8463 145.518 74.6763V72.5451C145.518 71.1801 146.2 70.5393 147.035 70.5393C148.05 70.5393 148.649 71.1382 148.649 72.573V74.6763ZM153.282 69.7732C151.932 69.7732 151.028 70.595 150.972 71.8486H151.793C151.849 71.0407 152.419 70.5672 153.254 70.5672C154.2 70.5672 154.701 71.1382 154.701 72.2108V72.9909H153.254C151.654 72.9909 150.75 73.771 150.75 75.1778C150.75 76.5985 151.724 77.4203 153.059 77.4203C153.852 77.4203 154.409 77.0582 154.743 76.5707L154.812 77.2532H155.522V72.1969C155.522 70.7064 154.673 69.7732 153.282 69.7732ZM153.184 76.6125C152.238 76.6125 151.584 76.1529 151.584 75.1917C151.584 74.2585 152.155 73.7571 153.226 73.7571H154.701V75.1917C154.701 76.0275 154.117 76.6125 153.184 76.6125Z" fill="white"/>
</svg>
