<svg width="32" height="32" viewBox="0 0 32 32" fill="none" xmlns="http://www.w3.org/2000/svg">
<g clip-path="url(#clip0_199_3425)">
<path d="M12.2614 25.0735L12.236 25.0916L12.2058 25.1085C12.2251 25.0976 12.2432 25.0856 12.2614 25.0735Z" fill="#1D2943"/>
<path d="M13.7321 23.3431C13.7309 23.9311 13.5232 24.3441 13.1887 24.5397L12.236 25.0916L12.2613 25.0735C12.2432 25.0856 12.2251 25.0976 12.2058 25.1085C11.8665 25.3065 11.3967 25.2788 10.8787 24.9793C9.84986 24.384 9.01665 22.9422 9.02028 21.76C9.02148 21.1574 9.24005 20.7384 9.58903 20.55C9.58058 20.5536 9.57212 20.5585 9.56367 20.5633L10.5466 19.9933C10.8859 19.7965 11.3557 19.8243 11.8737 20.1237C12.9037 20.7179 13.7357 22.1597 13.7321 23.3431Z" fill="#1D2943"/>
<path d="M12.2614 25.0735L12.236 25.0916L12.2058 25.1085C12.2251 25.0976 12.2432 25.0856 12.2614 25.0735Z" fill="#1D2943"/>
<path d="M13.7322 23.3429C13.7308 23.931 13.523 24.3445 13.1883 24.5396L12.2057 25.1087C12.5404 24.9145 12.7483 24.5003 12.7496 23.9128C12.753 22.7292 11.9212 21.2881 10.8909 20.6933C10.3729 20.3938 9.90353 20.366 9.56396 20.5636L10.5465 19.9936C10.8854 19.7967 11.3554 19.8246 11.8735 20.124C12.9037 20.7182 13.7356 22.1592 13.7322 23.3429Z" fill="#4C5C75"/>
<path d="M12.2058 25.109C12.9329 24.6864 12.9309 23.3264 12.2015 22.0711C11.472 20.8159 10.2913 20.1408 9.56425 20.5633C8.8372 20.9859 8.83914 22.3459 9.56859 23.6012C10.298 24.8564 11.4788 25.5315 12.2058 25.109Z" fill="#1D2943"/>
<path d="M10.6596 20.9184C10.1691 20.6348 9.72438 20.6085 9.40365 20.7948L6.61084 22.4233V28.1833L11.904 25.0976C12.2209 24.9131 12.4176 24.5216 12.4188 23.9649C12.422 22.8446 11.6346 21.4808 10.6596 20.9184Z" fill="#4C5C75"/>
<path d="M10.2641 14.7945C10.2641 15.0445 10.1759 15.2208 10.0334 15.3029L9.72914 15.484L9.7545 15.4659C9.60959 15.5674 9.39948 15.5637 9.16521 15.4285C8.72687 15.1761 8.37306 14.5627 8.37427 14.0591C8.37548 13.8092 8.46363 13.6329 8.60733 13.5507L8.91042 13.3708C9.05412 13.2875 9.25337 13.2984 9.47435 13.4264C9.91148 13.6787 10.2653 14.291 10.2641 14.7945Z" fill="#FEBC1F"/>
<path d="M9.47394 13.426C9.25368 13.2987 9.05408 13.2868 8.91002 13.3707L8.60571 13.5509C8.74989 13.4671 8.94938 13.479 9.16976 13.6062C9.60762 13.859 9.96155 14.4716 9.9601 14.9748C9.95937 15.2247 9.8711 15.4008 9.72861 15.4835L10.0329 15.3033C10.1753 15.2205 10.2636 15.0446 10.2643 14.7945C10.2657 14.2913 9.9118 13.6787 9.47394 13.426Z" fill="#FFD06C"/>
<path d="M9.16993 13.6063C9.60779 13.859 9.96172 14.4716 9.96027 14.9748C9.95882 15.478 9.60259 15.6812 9.16474 15.4285C8.72688 15.1756 8.37331 14.5625 8.37476 14.0593C8.37621 13.5562 8.73207 13.3534 9.16993 13.6063Z" fill="#FEBC1F"/>
<path d="M9.16889 14.0111C9.41197 14.1515 9.60856 14.4918 9.60784 14.7714C9.60711 15.0509 9.4092 15.1638 9.16587 15.0234C8.92255 14.883 8.72633 14.5423 8.72705 14.2629C8.72778 13.9833 8.92569 13.8707 9.16889 14.0111Z" fill="#F3A250"/>
<path d="M9.40505 14.7854C9.40445 14.8903 9.36725 14.9647 9.30724 14.9993L8.07482 15.7227C8.13471 15.6879 8.1719 15.6136 8.17251 15.5087C8.17311 15.2971 8.02446 15.0393 7.84043 14.9333C7.74745 14.8799 7.66365 14.8745 7.60303 14.9099L8.83557 14.1865C8.89619 14.1513 8.98011 14.1567 9.07297 14.21C9.257 14.3161 9.40565 14.5738 9.40505 14.7854Z" fill="#4C5C75"/>
<path d="M30.4813 0.707662C30.2094 0.550681 29.9632 0.53619 29.7853 0.639436L29.3274 0.9057C29.5053 0.802334 29.7516 0.816945 30.0234 0.973926C30.5638 1.28584 31.0005 2.04188 30.9988 2.6628C30.9979 2.97133 30.8889 3.18845 30.7132 3.29073L31.171 3.02458C31.3468 2.92242 31.4557 2.70519 31.4565 2.39666C31.4584 1.77586 31.0217 1.01981 30.4813 0.707903V0.707662Z" fill="#E3E7F0"/>
<path d="M30.0235 0.973813C30.5639 1.28572 31.0005 2.04177 30.9988 2.66269C30.997 3.28349 30.5575 3.53454 30.0171 3.22251C29.4767 2.91048 29.0404 2.15383 29.0422 1.53303C29.0441 0.912108 29.4832 0.661904 30.0235 0.973813Z" fill="#C9CEE2"/>
<path d="M30.4494 3.35356L29.4073 3.36612L28.6201 2.03734L29.1738 1.04968L30.4494 3.35356Z" fill="#C9CEE2"/>
<path d="M29.592 3.0101C29.5908 3.18519 29.5292 3.30836 29.4302 3.36632L29.1766 3.51364C29.1742 3.51485 29.1718 3.51606 29.1706 3.51727C29.0692 3.57523 28.9303 3.56678 28.7757 3.47863C28.4702 3.30112 28.2227 2.87244 28.2239 2.52104C28.2251 2.34595 28.2867 2.22398 28.3857 2.16602L28.6453 2.01508C28.7455 1.95591 28.8856 1.96436 29.039 2.05372C29.3457 2.23002 29.5932 2.6587 29.592 3.0101Z" fill="#F3A250"/>
<path d="M29.0395 2.05332C28.8854 1.96444 28.7458 1.95611 28.6451 2.01467L28.3857 2.1655C28.4865 2.10693 28.626 2.11514 28.78 2.20414C29.0862 2.38092 29.3337 2.80912 29.3327 3.161C29.3321 3.33585 29.2704 3.4589 29.1709 3.51674L29.4303 3.36604C29.5298 3.30808 29.5916 3.18503 29.5921 3.0103C29.593 2.65842 29.3456 2.23022 29.0395 2.05332Z" fill="#FFD06C"/>
<path d="M28.7798 2.20411C29.0861 2.3809 29.3335 2.80909 29.3325 3.16097C29.3316 3.51285 29.0824 3.65486 28.7763 3.47819C28.4702 3.30153 28.2229 2.87273 28.2239 2.52097C28.2248 2.16921 28.4738 2.02733 28.7798 2.20411Z" fill="#F3A250"/>
<path d="M28.9538 3.22503C28.9531 3.35544 28.9069 3.44794 28.8324 3.49117L27.7464 4.11765C27.821 4.07441 27.8672 3.98192 27.8679 3.8515C27.8686 3.5885 27.6839 3.26802 27.455 3.13615C27.3396 3.06974 27.2353 3.06309 27.1599 3.10705L28.2459 2.48057C28.3211 2.43662 28.4254 2.44326 28.541 2.50955C28.7697 2.64154 28.9546 2.96202 28.9538 3.22503Z" fill="#4C5C75"/>
<path d="M27.4551 3.13603C27.6839 3.26814 27.8684 3.58826 27.8677 3.85126C27.8668 4.11414 27.6812 4.22053 27.4523 4.08842C27.2235 3.95632 27.0385 3.63596 27.0393 3.37295C27.0399 3.10995 27.2261 3.00393 27.4551 3.13603Z" fill="#1D2943"/>
<path d="M1.41943 28.1267L3.48579 26.9259L3.8588 27.1412L1.79245 28.342L1.41943 28.1267Z" fill="#DCDCDC"/>
<path d="M1.79247 28.342L3.85882 27.1412L3.85786 27.5005L1.7915 28.7014L1.79247 28.342Z" fill="#78E75A"/>
<path d="M1.99314 25.175L4.05949 23.9742L3.48579 26.9258L1.41943 28.1266L1.99314 25.175Z" fill="#ACACAC"/>
<path d="M5.26489 30.3468L7.33125 29.146L7.7045 29.3615L5.63815 30.5623L5.26489 30.3468Z" fill="#DCDCDC"/>
<path d="M5.08301 26.9591L7.14936 25.7583L7.70435 29.3615L5.638 30.5623L5.08301 26.9591Z" fill="#414F64"/>
<path d="M1.99316 25.175L4.05952 23.9742L7.14951 25.7583L5.08316 26.9591L1.99316 25.175Z" fill="#414F65"/>
<path d="M5.08179 26.9591L5.63678 30.5623L1.41821 28.1267L1.9918 25.175L5.08179 26.9591Z" fill="#4C5C75"/>
<path d="M8.57836 30.226L6.51103 31.4264L5.26376 30.7066L5.26497 30.3467L5.6381 30.5617L5.08263 26.9596L1.99372 25.1748L1.41893 28.1261L1.79206 28.3422V28.7009L0.543457 27.9812L1.40444 22.1511L5.68024 24.6193L7.74648 23.419L8.57836 30.226Z" fill="#5EC363"/>
<path d="M5.67993 24.6196L7.74629 23.4188L8.57792 30.2258L6.51157 31.4266L5.67993 24.6196Z" fill="#78E75A"/>
<path d="M5.68 24.6196L6.51164 31.4265L5.26376 30.7061L5.26485 30.3468L5.6381 30.5623L5.08311 26.9591L1.99312 25.1751L1.41941 28.1267L1.79242 28.342L1.79146 28.7013L0.543457 27.9808L1.4048 22.1514L5.68 24.6196Z" fill="#5EC363"/>
<path d="M1.40479 22.1513L3.47114 20.9505L7.74634 23.4188L5.67999 24.6195L1.40479 22.1513ZM24.2792 14.8437L26.3456 13.6429L26.7186 13.8582L24.6522 15.059L24.2792 14.8437Z" fill="#DCDCDC"/>
<path d="M24.6521 15.0591L26.7184 13.8583L26.7175 14.2175L24.6511 15.4184L24.6521 15.0591Z" fill="#78E75A"/>
<path d="M24.853 11.8922L26.9194 10.6914L26.3457 13.643L24.2793 14.8438L24.853 11.8922Z" fill="#ACACAC"/>
<path d="M28.1245 17.0638L30.1909 15.863L30.5642 16.0786L28.4979 17.2794L28.1245 17.0638Z" fill="#DCDCDC"/>
<path d="M27.9429 13.6762L30.0092 12.4755L30.5642 16.0787L28.4979 17.2794L27.9429 13.6762Z" fill="#414F64"/>
<path d="M24.8528 11.8922L26.9191 10.6914L30.0091 12.4754L27.9428 13.6762L24.8528 11.8922Z" fill="#414F65"/>
<path d="M27.9418 13.6762L28.4968 17.2794L24.2781 14.8438L24.8518 11.8922L27.9418 13.6762Z" fill="#4C5C75"/>
<path d="M31.4374 16.943L29.3711 18.1433L28.1239 17.4236L28.1251 17.0638L28.4981 17.2799L27.9427 13.6766L24.8526 11.8919L24.279 14.8443L24.6522 15.0593L24.651 15.4179L23.4036 14.6982L24.2645 8.86816L28.5405 11.3364L30.6066 10.1361L31.4374 16.943Z" fill="#5EC363"/>
<path d="M28.5398 11.3366L30.6061 10.1359L31.4378 16.9428L29.3714 18.1436L28.5398 11.3366Z" fill="#78E75A"/>
<path d="M28.5399 11.3366L29.3715 18.1436L28.1236 17.4232L28.1246 17.0638L28.498 17.2793L27.943 13.6761L24.853 11.8921L24.2793 14.8437L24.6523 15.059L24.6513 15.4184L23.4033 14.6978L24.2647 8.86841L28.5399 11.3366Z" fill="#5EC363"/>
<path d="M24.2646 8.86851L26.331 7.66772L30.6062 10.136L28.5398 11.3367L24.2646 8.86851Z" fill="#DCDCDC"/>
<path d="M3.06688 21.4437L28.0053 6.95105L28.0041 7.38685L3.06567 21.8795L3.06688 21.4437Z" fill="#C9CEE2"/>
<path d="M1.40747 20.4854L26.3459 5.9928L28.0054 6.95099L3.067 21.4436L1.40747 20.4854Z" fill="#F3F1FC"/>
<path d="M3.06567 21.8795L28.0041 7.38684L28.9487 7.93217L4.01034 22.4248L3.06567 21.8795Z" fill="#9EA9C9"/>
<path d="M30.6099 8.45386L30.6052 10.1396L5.66693 24.6326L1.40308 22.1704L1.40791 20.4859L3.06708 21.4434L3.06587 21.8794L4.01017 22.4252L4.01138 21.9893L5.67055 22.9468L30.6099 8.45386Z" fill="#78E75A"/>
<path d="M5.67121 22.9471L30.6096 8.45447L30.6049 10.1396L5.6665 24.6322L5.67121 22.9471Z" fill="#78E75A"/>
<path d="M5.67115 22.9472L5.66644 24.6323L1.40259 22.1706L1.40742 20.4855L3.06695 21.4437L3.06574 21.8795L4.01041 22.4248L4.01161 21.989L5.67115 22.9472Z" fill="#5EC363"/>
<path d="M4.01147 21.989L28.9499 7.49634L30.6094 8.45453L5.67101 22.9471L4.01147 21.989Z" fill="#F3F1FC"/>
<path d="M29.6404 8.13008L29.638 9.01521L26.1059 11.0692L21.8457 8.60947L21.8481 7.72434L25.3814 5.67151L29.6404 8.13008Z" fill="#B0B8CF"/>
<path d="M29.6409 8.13025L29.6384 9.01538L26.1055 11.0686L26.108 10.1834L29.6409 8.13025Z" fill="#9EA9C9"/>
<path d="M26.108 10.1835L26.1054 11.0687L21.8459 8.6095L21.8485 7.72424L26.108 10.1835Z" fill="#B0B8CF"/>
<path d="M29.6408 8.13031L26.1079 10.1835L21.8484 7.72421L25.3814 5.67114L29.6408 8.13031Z" fill="#E3E7F0"/>
<path d="M24.4486 10.112L24.0462 10.3461L23.5039 10.0017V9.56689L24.4486 10.112Z" fill="#B0B8CF"/>
<path d="M27.8708 3.88957L28.1919 3.70288L28.1797 8.0032L27.8586 8.18976L27.8708 3.88957Z" fill="#9EA9C9"/>
<path d="M27.1367 3.4655L27.4579 3.27893L28.1921 3.70278L27.871 3.88947L27.1367 3.4655Z" fill="#E3E7F0"/>
<path d="M27.8709 3.88955L27.8587 8.18974L25.5774 6.87267L27.1366 3.46558L27.8709 3.88955Z" fill="#B0B8CF"/>
<path d="M24.7234 4.85888L25.6536 4.32056L26.3877 4.74453L25.4576 5.28273L24.7234 4.85888Z" fill="#C9CEE2"/>
<path d="M24.7234 4.85898L27.2312 3.41101L27.9654 3.83498L25.4576 5.28283L24.7234 4.85898Z" fill="#E3E7F0"/>
<path d="M25.7786 5.09665L25.7666 9.39673L25.4454 9.58269L23.1643 8.26646L24.7233 4.85876L25.4574 5.28261L25.7786 5.09665Z" fill="#B0B8CF"/>
<path d="M25.4575 5.28276L25.7787 5.09619L25.7665 9.39639L25.4453 9.58307L25.4575 5.28276Z" fill="#9EA9C9"/>
<path d="M25.4576 5.28274L25.4454 9.58305L23.1641 8.26598L24.7234 4.85889L25.4576 5.28274Z" fill="#B0B8CF"/>
<path d="M27.8713 3.88916L27.27 7.84992L25.7686 8.71102L25.7789 5.09647L27.8713 3.88916Z" fill="#C9CEE2"/>
<path d="M28.5889 3.52891C28.5879 3.68866 28.5314 3.80181 28.4401 3.8547L24.2982 6.24444C24.3894 6.19131 24.446 6.07828 24.4469 5.91852C24.4478 5.59635 24.2215 5.20389 23.9413 5.04244C23.7999 4.96118 23.672 4.95309 23.5798 5.00682L27.7218 2.61721C27.814 2.56335 27.9419 2.57156 28.0833 2.65283C28.3634 2.8144 28.5898 3.20673 28.5889 3.52891Z" fill="#FFD06C"/>
<path d="M23.9414 5.04226C24.2215 5.20407 24.4476 5.59616 24.4466 5.91821C24.4456 6.24027 24.2184 6.37044 23.938 6.20863C23.6578 6.04682 23.4312 5.65448 23.4321 5.33243C23.4331 5.01038 23.6611 4.88045 23.9414 5.04226Z" fill="#F3A250"/>
<path d="M24.2963 5.91199C24.2955 6.04241 24.2494 6.13478 24.1749 6.17801L23.0889 6.80449C23.1635 6.76126 23.2097 6.66888 23.2104 6.53847C23.2112 6.27534 23.0264 5.95498 22.7974 5.82299C22.682 5.75658 22.5777 5.74994 22.5024 5.79401L23.5883 5.16742C23.6636 5.12346 23.768 5.13022 23.8834 5.19652C24.1122 5.3285 24.2971 5.64887 24.2964 5.91199H24.2963Z" fill="#4C5C75"/>
<path d="M22.7976 5.82295C23.0265 5.95505 23.2109 6.27517 23.2102 6.53818C23.2095 6.80118 23.0238 6.90757 22.7948 6.77546C22.566 6.64323 22.3811 6.32287 22.3818 6.05987C22.3826 5.79686 22.5688 5.69084 22.7976 5.82295Z" fill="#1D2943"/>
<path d="M16.494 12.9762C16.3599 12.8989 16.174 12.911 15.9689 13.0305C15.5586 13.267 15.2268 13.8414 15.228 14.3133L15.2316 15.1581L12.3352 13.4758L12.3315 12.6297C12.3303 12.158 12.6623 11.5835 13.0726 11.347C13.2777 11.2286 13.4636 11.2166 13.5987 11.2938L16.494 12.9762Z" fill="#C9CEE2"/>
<path d="M15.9681 13.03C16.1734 12.9116 16.3594 12.8996 16.4938 12.9767C16.629 13.0538 16.7127 13.219 16.7134 13.4553L16.7167 14.3003L15.2308 15.1583L15.2275 14.3132C15.2262 13.8411 15.5578 13.2669 15.9681 13.03Z" fill="#B0B8CF"/>
<path d="M15.2666 11.6682C15.1049 11.5753 14.8809 11.5898 14.6338 11.7325C14.14 12.0176 13.7409 12.7087 13.7424 13.2769L13.7463 14.2942L17.232 16.3198L17.2281 15.3026C17.2265 14.7343 17.6257 14.0431 18.1196 13.7581C18.3666 13.6155 18.5905 13.6009 18.7523 13.6939L15.2666 11.6682Z" fill="#C9CEE2"/>
<path d="M15.2666 11.6682C15.1049 11.5753 14.8809 11.5898 14.6338 11.7325C14.14 12.0176 13.7409 12.7087 13.7424 13.2769L13.7463 14.2942L15.793 15.4836L15.7891 14.4664C15.7874 13.8981 16.1866 13.2069 16.6805 12.9218C16.9276 12.7793 17.1515 12.7647 17.3133 12.8576L15.2666 11.6682Z" fill="#4C5C75"/>
<path d="M18.1196 13.7581C18.3665 13.6156 18.5905 13.601 18.7523 13.694C18.9151 13.7867 19.0158 13.9856 19.0167 14.2701L19.0205 15.2873L17.232 16.3198L17.228 15.3027C17.2265 14.7344 17.6257 14.0431 18.1196 13.7581Z" fill="#B0B8CF"/>
<path d="M15.5028 15.3101L15.1004 15.5441L14.5581 15.1999V14.765L15.5028 15.3101Z" fill="#4C5C75"/>
<path d="M20.8579 15.9278C20.9071 15.8985 20.9763 15.9025 21.052 15.9464C21.2028 16.0334 21.3244 16.2454 21.3244 16.4189C21.3238 16.5047 21.2938 16.565 21.2447 16.5937L21.5372 16.423C21.5864 16.3945 21.6169 16.334 21.6169 16.2483C21.6176 16.0748 21.4954 15.8634 21.3444 15.7764C21.2687 15.7325 21.2002 15.7286 21.1504 15.7571L20.8579 15.9278Z" fill="#111D33"/>
<path d="M21.0519 15.9464C20.901 15.8592 20.7783 15.9295 20.7778 16.1031C20.7774 16.2762 20.8991 16.4871 21.0501 16.5744C21.2012 16.6616 21.3239 16.5918 21.3242 16.4186C21.3249 16.2451 21.203 16.0336 21.0519 15.9465V15.9464Z" fill="#1D2943"/>
<path d="M21.7913 15.924C21.7516 15.925 21.7125 15.9532 21.6843 16.0072C21.6281 16.1146 21.6356 16.2844 21.7003 16.3863C21.7326 16.4366 21.7727 16.4609 21.8122 16.4594L21.3799 16.4745C21.3403 16.476 21.2997 16.4519 21.2679 16.4015C21.2028 16.2997 21.1959 16.1301 21.2522 16.0226C21.2803 15.9686 21.3191 15.9407 21.359 15.939L21.7913 15.924Z" fill="#4C5C75"/>
<path d="M21.6844 16.0072C21.7407 15.8995 21.839 15.8953 21.9039 15.997C21.9688 16.0985 21.9758 16.2679 21.9195 16.3755C21.8632 16.483 21.7652 16.4877 21.7003 16.3861C21.6354 16.2843 21.6281 16.1148 21.6844 16.0072Z" fill="#111D33"/>
<path d="M23.5633 15.9581C23.5299 15.9591 23.4969 15.9828 23.4733 16.0282C23.4259 16.1185 23.4322 16.2615 23.4867 16.3472C23.5138 16.3893 23.5476 16.4099 23.5808 16.4085L21.8379 16.4135C21.8045 16.4148 21.7705 16.3945 21.7437 16.3522C21.689 16.2667 21.6832 16.1239 21.7304 16.0335C21.7541 15.9881 21.7867 15.9647 21.8204 15.9632L23.5633 15.9581Z" fill="#4C5C75"/>
<path d="M23.4732 16.0281C23.5205 15.9376 23.6033 15.934 23.658 16.0196C23.7123 16.1051 23.7183 16.2475 23.671 16.3379C23.6237 16.4285 23.5412 16.4324 23.4866 16.3469C23.432 16.2613 23.426 16.1187 23.4733 16.0281H23.4732Z" fill="#111D33"/>
<path d="M25.3397 15.7219C25.2979 15.7231 25.2696 15.842 25.2399 15.8987C25.181 16.0114 25.1888 16.1897 25.2567 16.2968C25.2906 16.3495 25.3292 16.4649 25.3706 16.4632L23.5622 16.4449C23.5206 16.4465 23.4781 16.4211 23.4445 16.3682C23.3763 16.2615 23.3691 16.0832 23.4281 15.9704C23.4577 15.9137 23.4984 15.8846 23.5403 15.8826L25.3397 15.7219Z" fill="#DBA660"/>
<path d="M25.2007 15.8369C25.2787 15.6878 25.4149 15.6818 25.5049 15.8228C25.5946 15.9635 25.6044 16.1983 25.5264 16.3473C25.4484 16.4963 25.3126 16.5027 25.2228 16.362C25.1327 16.2209 25.1228 15.9859 25.2007 15.8367V15.8369Z" fill="#AA6256"/>
<path d="M20.127 14.4712C20.0427 14.4222 19.9259 14.429 19.7973 14.5032L19.1637 14.8691C19.1094 14.9005 19.0601 14.9033 19.0246 14.8828L20.2926 15.6195C20.3281 15.6401 20.3772 15.6372 20.4315 15.6058L21.0651 15.24C21.1939 15.1657 21.3105 15.1591 21.3948 15.208L20.1269 14.4711L20.127 14.4712ZM18.4287 18.6898L17.1609 17.953L17.1511 14.3071L18.419 15.044L18.4287 18.6898Z" fill="#72D561"/>
<path d="M17.4019 17.814L17.3938 14.7273L18.1781 15.1831L18.1863 18.2699L17.4019 17.814Z" fill="#5EC363"/>
<path d="M20.0977 14.2329C20.0135 14.184 19.8968 14.1911 19.768 14.2655L18.4189 15.044L17.1511 14.3074L18.5003 13.5281C18.629 13.4544 18.7458 13.4472 18.83 13.4961L20.0977 14.2329Z" fill="#78E75A"/>
<path d="M10.1326 19.4713L10.1301 20.3564L6.13196 22.6798L1.86328 20.2152L1.8657 19.33L5.86389 17.0067L10.1326 19.4713Z" fill="#B0B8CF"/>
<path d="M10.1323 19.4708L10.1299 20.356L6.13184 22.6794L6.13437 21.7943L10.1323 19.4708Z" fill="#9EA9C9"/>
<path d="M6.1345 21.7943L6.13196 22.6794L1.86353 20.2151L1.86606 19.33L6.1345 21.7943Z" fill="#B0B8CF"/>
<path d="M10.1324 19.4708L6.1344 21.7943L1.86597 19.3299L5.86403 17.0065L10.1324 19.4708Z" fill="#E3E7F0"/>
<path d="M4.46615 21.7176L4.06379 21.9517L3.52148 21.6075V21.1725L4.46615 21.7176ZM6.33676 17.6846L9.04565 16.1104L9.03454 19.5984L6.32565 21.1725L6.33676 17.6846Z" fill="#B0B8CF"/>
<path d="M4.65723 14.9993L7.36612 13.4252L9.04569 16.1104L6.3368 17.6847L4.65723 14.9993Z" fill="#C9CEE2"/>
<path d="M3.46606 14.3116L6.17483 12.7374L7.36608 13.4251L4.65719 14.9993L3.46606 14.3116Z" fill="#E3E7F0"/>
<path d="M3.94781 14.3108L6.17549 13.0164L6.88469 13.4257L4.65688 14.7203L3.94781 14.3108ZM4.65736 14.9993L6.33694 17.6846L6.32583 21.1725L3.44873 19.5114L3.46624 14.3116L4.65736 14.9993Z" fill="#9EA9C9"/>
<path d="M5.51726 20.7067L5.2685 20.8528V20.854L3.85205 20.0377L4.28918 17.5562C4.12979 17.3557 4.02231 17.0937 4.02352 16.8643C4.02352 16.6928 4.08511 16.572 4.18292 16.5165L4.43167 16.3716C4.53069 16.3136 4.66715 16.3221 4.81809 16.409C5.11877 16.5817 5.36028 17.0019 5.36028 17.3473C5.35907 17.5175 5.29869 17.6383 5.20209 17.6951L5.09582 17.7566L5.2685 18.9654L5.51726 20.7067Z" fill="#C9CEE2"/>
<path d="M4.84155 17.8733L5.09139 17.728L5.51778 20.707L5.26794 20.8523L4.84155 17.8733Z" fill="#E3E7F0"/>
<path d="M4.81826 16.409C4.66732 16.3218 4.53062 16.3137 4.43185 16.3712L4.18188 16.5163C4.28066 16.459 4.41748 16.4671 4.5683 16.5541C4.8685 16.7274 5.11085 17.1474 5.10988 17.4919C5.1094 17.6631 5.04902 17.7837 4.9517 17.8402L5.20142 17.695C5.29887 17.6384 5.35924 17.518 5.35961 17.3468C5.36069 17.0021 5.11834 16.5823 4.81826 16.409Z" fill="white"/>
<path d="M4.56861 16.5542C4.86868 16.7274 5.11104 17.1474 5.11007 17.4919C5.10935 17.7207 5.00176 17.859 4.84164 17.8751L5.26802 20.8542L3.85205 20.0373L4.28894 17.556C4.12954 17.3553 4.02304 17.0935 4.02364 16.8647C4.02461 16.52 4.26878 16.381 4.56861 16.5542Z" fill="#C9CEE2"/>
<path d="M4.55432 16.7154C4.43852 16.6485 4.3337 16.6423 4.25799 16.6863L3.89331 16.8982C3.96902 16.8542 4.07384 16.8604 4.18952 16.9272C4.41956 17.06 4.6054 17.3818 4.60468 17.6462C4.60431 17.7774 4.55794 17.8699 4.48308 17.9134L4.84776 17.7015C4.92262 17.658 4.96899 17.5655 4.96936 17.4342C4.9702 17.1699 4.78424 16.8481 4.55432 16.7154Z" fill="#4C5C75"/>
<path d="M4.18942 16.9273C4.41946 17.0601 4.6053 17.3818 4.60458 17.6461C4.60385 17.9104 4.4168 18.0172 4.18676 17.8844C3.95673 17.7516 3.77101 17.4295 3.77173 17.1653C3.77258 16.901 3.95938 16.7945 4.18942 16.9273Z" fill="#1D2943"/>
<path d="M4.53326 17.8722L4.04142 18.7425L2.93604 16.7059L4.02343 16.8645L4.43122 17.3189L4.48822 17.5035L4.53326 17.8722Z" fill="#1D2943"/>
<path d="M3.33577 16.8224C3.09982 16.6861 2.88608 16.6734 2.73176 16.7631L2.33447 16.994C2.4888 16.9043 2.70253 16.9169 2.93849 17.0531C3.40738 17.3239 3.78619 17.9799 3.78474 18.5187C3.78401 18.7865 3.68934 18.975 3.53695 19.0636L3.93423 18.8327C4.08674 18.7441 4.1813 18.5556 4.18202 18.2879C4.18359 17.7491 3.80466 17.0931 3.33577 16.8224Z" fill="#E3E7F0"/>
<path d="M2.93848 17.0532C3.40737 17.3238 3.78618 17.9799 3.78473 18.5187C3.78328 19.0575 3.40182 19.2752 2.93293 19.0045C2.46404 18.7337 2.08523 18.0772 2.08692 17.5385C2.08837 16.9996 2.46947 16.7825 2.93848 17.0531V17.0532Z" fill="#C9CEE2"/>
<path d="M4.18177 18.2879C4.18177 18.556 4.08637 18.7444 3.93422 18.8325L3.55143 19.0547C3.55505 19.0511 3.55988 19.0475 3.56471 19.0438C3.40894 19.1537 3.18313 19.1489 2.93316 19.004C2.46464 18.7335 2.08547 18.0778 2.08667 17.538C2.08788 17.2699 2.18328 17.0816 2.33543 16.9934L2.7315 16.7628C2.88607 16.6734 3.0998 16.6855 3.33528 16.8219C3.80501 17.0924 4.18418 17.7493 4.18177 18.2879Z" fill="#9EA9C9"/>
<path d="M3.33577 16.8224C3.09982 16.6861 2.88608 16.6734 2.73176 16.7631L2.33447 16.994C2.4888 16.9043 2.70253 16.9169 2.93849 17.0531C3.40738 17.3239 3.78619 17.9799 3.78474 18.5187C3.78401 18.7865 3.68934 18.975 3.53695 19.0636L3.93423 18.8327C4.08674 18.7441 4.1813 18.5556 4.18202 18.2879C4.18359 17.7491 3.80466 17.0931 3.33577 16.8224Z" fill="#E3E7F0"/>
<path d="M2.93848 17.0532C3.40737 17.3238 3.78618 17.9799 3.78473 18.5187C3.78328 19.0575 3.40182 19.2752 2.93293 19.0045C2.46404 18.7337 2.08523 18.0772 2.08692 17.5385C2.08837 16.9996 2.46947 16.7825 2.93848 17.0531V17.0532Z" fill="#C9CEE2"/>
<path d="M3.59788 18.4107C3.59788 18.5275 3.57458 18.6247 3.53328 18.6995C3.42701 18.8961 3.19782 18.9423 2.93337 18.7897C2.56796 18.5784 2.2726 18.0664 2.27368 17.6462C2.27429 17.3716 2.40181 17.2042 2.59187 17.1809C2.69234 17.1668 2.81116 17.1946 2.93771 17.2679C3.3036 17.4791 3.59945 17.9905 3.59788 18.4107Z" fill="#B0B8CF"/>
<path d="M3.59772 18.4107C3.59772 18.5275 3.57442 18.6247 3.53312 18.6995C3.43217 18.7132 3.31383 18.686 3.18728 18.6126C2.82139 18.4015 2.52602 17.8895 2.52759 17.4687C2.52759 17.3525 2.55054 17.2559 2.59171 17.1809C2.69218 17.1668 2.81101 17.1946 2.93756 17.2679C3.30344 17.4791 3.59929 17.9905 3.59772 18.4107Z" fill="#9EA9C9"/>
<path d="M19.0816 14.1279L19.0768 14.3658C19.0768 14.4455 19.0236 14.5264 18.9186 14.5868C18.7072 14.7111 18.3619 14.7099 18.1482 14.588C18.0407 14.5252 17.9875 14.4443 17.9875 14.3622L17.9924 14.1255C17.9924 14.0446 18.0455 13.9649 18.1506 13.9033C18.3631 13.7801 18.7072 13.7801 18.921 13.9033C19.0285 13.9649 19.0828 14.047 19.0816 14.1279Z" fill="#AA6256"/>
<path d="M19.082 14.1275L19.0771 14.3657C19.077 14.446 19.0242 14.5261 18.9189 14.5874C18.7069 14.7105 18.3619 14.7104 18.1488 14.5874C18.0413 14.5253 17.9876 14.4438 17.9878 14.3625L17.9926 14.1245C17.9923 14.2058 18.046 14.2872 18.1536 14.3492C18.3666 14.4724 18.7117 14.4724 18.9236 14.3492C19.0291 14.288 19.0818 14.208 19.082 14.1275Z" fill="#AA6256"/>
<path d="M18.9214 13.9031C19.1345 14.0262 19.1356 14.2262 18.9235 14.3493C18.7116 14.4725 18.3665 14.4725 18.1535 14.3493C17.9398 14.226 17.9387 14.0263 18.1507 13.9031C18.3628 13.78 18.7078 13.7797 18.9214 13.9031Z" fill="#DBA660"/>
<path d="M18.8386 12.5685L18.836 14.0755C18.836 14.1196 18.8069 14.1638 18.7488 14.1974C18.632 14.2654 18.442 14.2653 18.3246 14.1974C18.2654 14.1633 18.2357 14.1185 18.2358 14.0737L18.2385 12.5667C18.2384 12.6116 18.268 12.6564 18.3273 12.6907C18.4446 12.7583 18.6347 12.7585 18.7515 12.6907C18.8094 12.6569 18.8385 12.6127 18.8386 12.5685Z" fill="white"/>
<path d="M18.7503 12.4449C18.8676 12.5126 18.8682 12.6229 18.7515 12.6907C18.6347 12.7586 18.4446 12.7583 18.3273 12.6907C18.2095 12.6227 18.2089 12.5127 18.3257 12.4449C18.4425 12.377 18.6325 12.3769 18.7503 12.4449Z" fill="#FEBC1F"/>
<path d="M21.7536 14.4C21.7531 14.4854 21.7229 14.5458 21.6743 14.5739L21.2337 14.8282C21.2824 14.7999 21.3126 14.7394 21.3131 14.6543C21.3136 14.4824 21.1928 14.2728 21.0432 14.1866C20.9677 14.1433 20.8995 14.1389 20.8503 14.1677L21.2909 13.9135C21.3401 13.8847 21.4082 13.8892 21.4837 13.9326C21.6333 14.0188 21.7542 14.228 21.7536 14.4Z" fill="#1D2943"/>
<path d="M21.0432 14.1866C21.1928 14.2729 21.3133 14.4821 21.3128 14.6539C21.3123 14.8259 21.191 14.8954 21.0414 14.8091C20.8919 14.7226 20.7709 14.5132 20.7715 14.3414C20.772 14.1696 20.8936 14.1001 21.0432 14.1866Z" fill="#1D2943"/>
<path d="M21.62 14.5631C21.62 14.6742 21.5802 14.7539 21.5162 14.7901L20.939 15.1234C20.9462 15.1197 20.9535 15.1149 20.9595 15.1089C20.8943 15.1608 20.7965 15.1608 20.6878 15.098C20.491 14.9857 20.3328 14.7104 20.334 14.4858C20.334 14.3662 20.3787 14.2853 20.4511 14.2515L20.4366 14.2588L21.0138 13.9255C21.079 13.888 21.1684 13.8941 21.2662 13.9508C21.463 14.0631 21.6212 14.3373 21.62 14.5631Z" fill="#1D2943"/>
<path d="M21.6199 14.5625C21.6193 14.6742 21.5797 14.7533 21.516 14.7902L20.9391 15.123C21.0029 15.0861 21.0424 15.007 21.043 14.8953C21.0437 14.6702 20.8855 14.3959 20.6896 14.2831C20.5907 14.2263 20.5015 14.2205 20.437 14.2581L21.014 13.9253C21.0783 13.8876 21.1677 13.8934 21.2666 13.9502C21.4623 14.0631 21.6205 14.3373 21.6199 14.5625Z" fill="#4C5C75"/>
<path d="M20.6897 14.2829C20.8856 14.396 21.0435 14.67 21.0428 14.8951C21.0422 15.1202 20.8833 15.2112 20.6873 15.0981C20.4914 14.985 20.3331 14.7108 20.3337 14.4857C20.3345 14.2606 20.4937 14.1698 20.6897 14.2829Z" fill="#1D2943"/>
<path d="M20.9026 14.8754C20.9014 14.9611 20.8712 15.0215 20.8229 15.0493L20.5802 15.1894C20.585 15.1869 20.5886 15.1845 20.5922 15.1809C20.5427 15.2183 20.4703 15.2171 20.3882 15.17C20.2384 15.0843 20.1177 14.8742 20.1177 14.7027C20.1189 14.6134 20.1515 14.5518 20.2034 14.5264C20.2078 14.5227 20.2133 14.5205 20.2191 14.5204C20.2143 14.5204 20.2107 14.5216 20.207 14.524L20.4389 14.3888C20.4884 14.3598 20.5572 14.3646 20.6321 14.4081C20.7818 14.4938 20.9026 14.7039 20.9026 14.8754Z" fill="#1D2943"/>
<path d="M20.2072 14.524C20.2108 14.5216 20.2144 14.5204 20.2192 14.5204C20.2135 14.5206 20.2079 14.5227 20.2035 14.5264C20.2011 14.5264 20.1999 14.5276 20.1975 14.5288L20.2072 14.524Z" fill="#1D2943"/>
<path d="M20.207 14.524C20.2106 14.5216 20.2142 14.5204 20.2191 14.5204C20.2133 14.5206 20.2078 14.5227 20.2034 14.5264C20.2046 14.5252 20.2058 14.524 20.207 14.524Z" fill="#1D2943"/>
<path d="M20.902 14.8755C20.9015 14.9608 20.8713 15.0211 20.8225 15.0494L20.5801 15.1894C20.6288 15.1611 20.659 15.1007 20.6595 15.0155C20.66 14.8435 20.5392 14.634 20.3896 14.5478C20.3142 14.5044 20.2459 14.5001 20.1968 14.5288L20.4393 14.389C20.4884 14.3603 20.5566 14.3646 20.6321 14.408C20.7817 14.4942 20.9025 14.7036 20.902 14.8755Z" fill="#4C5C75"/>
<path d="M20.3897 14.5478C20.5394 14.6341 20.6599 14.8434 20.6594 15.0151C20.6589 15.187 20.5375 15.2566 20.3879 15.1703C20.2383 15.0839 20.1174 14.8744 20.1179 14.7026C20.1184 14.5307 20.2401 14.4614 20.3896 14.5478H20.3897Z" fill="#1D2943"/>
<path d="M20.5317 15.0026C20.5312 15.069 20.5078 15.1161 20.4699 15.1381L19.9289 15.4503C19.9667 15.4282 19.9902 15.3812 19.9906 15.3148C19.9909 15.181 19.8969 15.0178 19.7805 14.9507C19.7217 14.917 19.6687 14.9136 19.6304 14.936L20.1714 14.6238C20.2096 14.6015 20.2628 14.6048 20.3216 14.6387C20.438 14.7058 20.532 14.8687 20.5317 15.0026Z" fill="white"/>
<path d="M19.7807 14.9507C19.8971 15.018 19.991 15.1809 19.9906 15.3146C19.9903 15.4484 19.8957 15.5027 19.7793 15.4354C19.6628 15.3681 19.5687 15.2051 19.5691 15.0712C19.5695 14.9374 19.6641 14.8834 19.7807 14.9507Z" fill="#1D2943"/>
<path d="M19.768 14.2652C20.024 14.1174 20.2323 14.2367 20.2332 14.5303L20.2358 15.4948C20.2362 15.6183 20.3237 15.6682 20.4317 15.6059L21.0653 15.24C21.3213 15.0923 21.5295 15.2116 21.5303 15.5052L21.5337 16.8972L18.4289 18.6898L18.4192 15.044L19.768 14.2652Z" fill="#5EC363"/>
<path d="M22.994 15.5108L22.9929 15.6436L22.8045 15.7535L21.178 14.8611L21.1792 14.7283L21.4628 14.5629L22.994 15.5108Z" fill="#293240"/>
<path d="M22.9934 15.5115L22.9931 15.6443L22.8042 15.754L22.8046 15.6212L22.9934 15.5115Z" fill="#3B475A"/>
<path d="M22.8047 15.6213L22.8043 15.754L21.1782 14.8609L21.1786 14.728L22.8047 15.6213Z" fill="#293240"/>
<path d="M21.4624 14.563L22.9934 15.5114L22.8046 15.6212L21.1785 14.7279L21.4624 14.563Z" fill="#414F65"/>
<path d="M22.0861 9.10358L21.9215 9.00854L17.252 11.7223C17.2497 12.5451 17.8304 13.5511 18.5468 13.9647L23.2164 11.2511L23.217 11.062C22.5914 10.7008 22.0841 9.82219 22.0861 9.10358Z" fill="#4C5C75"/>
<path d="M18.5472 13.7756L23.2168 11.062L23.2162 11.2511L18.5466 13.9647L18.5472 13.7756Z" fill="#111D33"/>
<path d="M17.4165 11.8171L22.0861 9.10364C22.084 9.82225 22.5913 10.7009 23.217 11.062L18.5474 13.7756C17.9217 13.4146 17.4145 12.5358 17.4165 11.8171Z" fill="#4C5C75"/>
<path d="M17.252 11.7223L21.9214 9.00854L22.086 9.10358L17.4164 11.8172L17.252 11.7223Z" fill="#111D33"/>
<path d="M17.4164 11.8172C17.4144 12.5359 17.9217 13.4144 18.5473 13.7756L18.5467 13.9647C17.8304 13.5511 17.2495 12.5451 17.252 11.7223L17.4164 11.8172Z" fill="#1D2943"/>
<path d="M7.76267 15.211L7.65145 15.2947L7.02051 14.2966L7.13172 14.2129L7.76267 15.211Z" fill="#29313F"/>
<path d="M7.13186 14.2129L7.02065 14.2966L5.4873 15.1818L5.59852 15.0981L7.13186 14.2129Z" fill="#262E3B"/>
<path d="M7.13173 14.2129L7.76268 15.211L6.22933 16.0963L5.59839 15.0981L7.13173 14.2129Z" fill="#F3516F"/>
<path d="M7.76272 15.2111L7.65151 15.2947L6.11816 16.18L6.22938 16.0963L7.76272 15.2111Z" fill="#7A2938"/>
<path d="M6.22946 16.0963L6.11825 16.18L5.4873 15.1818L5.59852 15.0981L6.22946 16.0963Z" fill="#822B3C"/>
<path d="M8.50929 15.9799L8.3982 16.0634L6.48267 17.1694L6.59388 17.0857L8.50929 15.9799Z" fill="#262E3B"/>
<path d="M7.22023 13.9404L5.3047 15.0463L5.1936 15.13L6.48266 17.1694L6.59375 17.0857L8.50929 15.9799L7.22023 13.9404ZM6.22932 16.0964L5.59837 15.0982L7.13172 14.213L7.76266 15.2111L6.22932 16.0964Z" fill="#4C5C74"/>
<path d="M6.59388 17.0857L6.48266 17.1694L5.1936 15.1299L5.3047 15.0463L6.59388 17.0857Z" fill="#29313F"/>
<path d="M5.30469 15.0463L7.22022 13.9404L8.50928 15.9799L6.59386 17.0857L5.30469 15.0463ZM7.76265 15.2111L7.13171 14.213L5.59836 15.0982L6.22931 16.0964L7.76265 15.2111Z" fill="#4C5C74"/>
<path d="M7.16399 14.8402C7.24562 14.8293 7.3072 14.8625 7.34802 14.9404C7.36263 14.9682 7.37011 14.9976 7.37096 15.0298C7.37241 15.0614 7.36299 15.093 7.34464 15.1249C7.32701 15.1563 7.29633 15.1841 7.25407 15.2086C7.21156 15.233 7.17292 15.2454 7.13814 15.2442C7.10575 15.2444 7.07408 15.2347 7.04734 15.2164C7.02215 15.199 7.00159 15.1756 6.98744 15.1485C6.94663 15.0707 6.95279 14.9984 7.00519 14.9318C6.97737 14.9357 6.94904 14.9306 6.92429 14.9173C6.89857 14.9045 6.87671 14.8822 6.85956 14.8495C6.84664 14.8242 6.83927 14.7965 6.83795 14.7682C6.83653 14.7379 6.84364 14.7078 6.85848 14.6813C6.87393 14.6511 6.8999 14.6261 6.93697 14.6047C6.97392 14.5833 7.00797 14.5737 7.04045 14.5762C7.07161 14.5783 7.09938 14.5872 7.12148 14.6045C7.14491 14.6222 7.1629 14.6431 7.17546 14.6671C7.19261 14.6997 7.19901 14.7311 7.1955 14.7607C7.19321 14.7908 7.18198 14.8172 7.16399 14.8402ZM7.29501 15.0209C7.29473 15.0026 7.2904 14.9846 7.28233 14.9682C7.26325 14.9317 7.23704 14.9106 7.20468 14.9042C7.16992 14.8974 7.13389 14.904 7.10373 14.9225C7.07225 14.9398 7.04813 14.968 7.03587 15.0017C7.02282 15.0343 7.02596 15.0688 7.04504 15.1052C7.05265 15.1197 7.06461 15.1328 7.08079 15.1446C7.09856 15.1567 7.11952 15.1634 7.14104 15.1637C7.16483 15.1649 7.19091 15.1574 7.21869 15.1413C7.24646 15.1254 7.26651 15.1063 7.27822 15.0846C7.28953 15.0653 7.29525 15.0433 7.29501 15.0209ZM6.92368 14.8187C6.93556 14.8418 6.95568 14.8597 6.98008 14.8688C7.00507 14.8781 7.03478 14.8735 7.06799 14.8543C7.10107 14.8352 7.12064 14.8113 7.12655 14.7843C7.13239 14.7583 7.12879 14.731 7.11641 14.7075C7.10276 14.6816 7.08344 14.664 7.05748 14.6565C7.03212 14.6485 7.00435 14.6546 6.97271 14.6729C6.94107 14.691 6.92127 14.7125 6.91414 14.7392C6.90701 14.766 6.91047 14.7944 6.92381 14.8187M6.74026 15.0848C6.82177 15.074 6.88347 15.1072 6.92429 15.185C6.9389 15.2128 6.94639 15.2423 6.94723 15.2744C6.94868 15.306 6.93926 15.3378 6.92163 15.3692C6.90316 15.4011 6.87261 15.4287 6.83022 15.4532C6.78784 15.4778 6.74992 15.4896 6.7143 15.4889C6.68192 15.4891 6.65024 15.4795 6.62349 15.4612C6.59834 15.4437 6.57783 15.4204 6.56371 15.3932C6.5229 15.3155 6.52906 15.243 6.58147 15.1765C6.55364 15.1803 6.52531 15.1753 6.50056 15.162C6.47472 15.1493 6.45298 15.1268 6.43584 15.0941C6.42287 15.0689 6.41546 15.0412 6.4141 15.0129C6.41289 14.9835 6.41977 14.9545 6.43475 14.9259C6.45008 14.8957 6.47617 14.8707 6.51312 14.8493C6.55007 14.828 6.58412 14.8183 6.61661 14.8209C6.64861 14.8224 6.67565 14.8318 6.69775 14.8491C6.72106 14.8669 6.73905 14.8877 6.75173 14.9119C6.76888 14.9445 6.776 14.9753 6.7725 15.0049C6.76972 15.0341 6.75859 15.0619 6.74026 15.0848ZM6.87128 15.2656C6.87099 15.2473 6.86666 15.2293 6.8586 15.2129C6.8394 15.1764 6.81331 15.1552 6.78083 15.1489C6.74614 15.1422 6.71016 15.1486 6.68 15.1671C6.6485 15.1844 6.62437 15.2126 6.61214 15.2464C6.5991 15.279 6.60211 15.3134 6.62131 15.3499C6.6288 15.3644 6.64076 15.3774 6.65706 15.3894C6.67496 15.4011 6.69578 15.4077 6.71719 15.4083C6.74098 15.4095 6.76719 15.402 6.79484 15.386C6.82261 15.37 6.84278 15.351 6.85437 15.3292C6.86568 15.3099 6.87152 15.2879 6.87128 15.2656ZM6.49996 15.0634C6.51186 15.0866 6.53197 15.1044 6.55635 15.1134C6.58134 15.1227 6.61105 15.1181 6.64414 15.0989C6.67734 15.0799 6.69691 15.0561 6.7027 15.0289C6.70851 15.003 6.70491 14.9758 6.69256 14.9522C6.67904 14.9263 6.65971 14.9086 6.63363 14.9012C6.60839 14.8932 6.5805 14.8993 6.54886 14.9176C6.51734 14.9357 6.49742 14.9573 6.4903 14.9839C6.48313 15.0106 6.48659 15.0392 6.49996 15.0634ZM6.31713 15.3291C6.39876 15.3182 6.45962 15.3519 6.50044 15.4297C6.51517 15.4575 6.52254 15.4869 6.52338 15.5191C6.52495 15.5507 6.51541 15.5825 6.49778 15.6138C6.47943 15.6457 6.44876 15.6735 6.40637 15.6979C6.36411 15.7224 6.32607 15.7342 6.29045 15.7335C6.25811 15.7337 6.22648 15.7241 6.19976 15.7059C6.17476 15.6882 6.15445 15.6647 6.14059 15.6374C6.0999 15.5596 6.10521 15.4877 6.15762 15.4212C6.12978 15.4251 6.10145 15.42 6.07671 15.4066C6.05099 15.394 6.02913 15.3715 6.01199 15.3389C5.99904 15.3136 5.99167 15.2859 5.99037 15.2575C5.98916 15.2283 5.99593 15.1993 6.01174 15.1701C6.02624 15.1404 6.05232 15.1154 6.08927 15.094C6.12634 15.0727 6.16039 15.063 6.19288 15.0655C6.22476 15.0671 6.25181 15.0765 6.27475 15.0933C6.29733 15.1116 6.31532 15.1324 6.32788 15.1564C6.34503 15.189 6.35227 15.2199 6.34865 15.2495C6.34595 15.2785 6.33494 15.3061 6.31713 15.3291ZM6.44755 15.5102C6.44726 15.492 6.44293 15.474 6.43487 15.4576C6.41567 15.4211 6.38947 15.3999 6.3571 15.3936C6.32236 15.3867 6.28628 15.3932 6.25615 15.4118C6.22477 15.4292 6.20068 15.4574 6.18829 15.491C6.17525 15.5236 6.17839 15.5581 6.19747 15.5945C6.20507 15.609 6.21703 15.6221 6.23321 15.634C6.25115 15.6458 6.27201 15.6524 6.29347 15.653C6.31725 15.6543 6.34334 15.6467 6.37111 15.6308C6.39888 15.6147 6.41893 15.5956 6.43064 15.5739C6.44224 15.5521 6.44827 15.5311 6.44755 15.5104M6.07623 15.3081C6.08813 15.3312 6.10824 15.349 6.13262 15.3581C6.15762 15.3674 6.1872 15.3628 6.22041 15.3436C6.25422 15.324 6.27318 15.3007 6.27898 15.2736C6.28478 15.2476 6.28119 15.2204 6.26883 15.1969C6.26312 15.1848 6.25501 15.174 6.24501 15.1651C6.23501 15.1563 6.22331 15.1495 6.21063 15.1453C6.18467 15.1378 6.15665 15.144 6.12513 15.1622C6.0935 15.1803 6.07369 15.202 6.06657 15.2286C6.05944 15.2554 6.0629 15.2838 6.07623 15.3081Z" fill="white"/>
<path d="M26.3108 9.86615C26.1997 9.93075 26.0184 9.93075 25.9063 9.86615C25.7941 9.8013 25.7936 9.69637 25.9049 9.63176C26.0164 9.56692 26.1975 9.56692 26.3095 9.63176C26.4216 9.69637 26.4224 9.80142 26.3108 9.86615Z" fill="#4C5C75"/>
<path d="M26.2685 9.82023L26.2316 9.84161L26.108 9.77036L25.9854 9.84161L25.9481 9.82023L26.0708 9.74887L25.9475 9.67762L25.9842 9.65613L26.1079 9.72737L26.2304 9.65613L26.2678 9.67762L26.1451 9.74887L26.2685 9.82023Z" fill="#1D2943"/>
<path d="M22.6485 7.81766C22.5372 7.88238 22.356 7.88238 22.244 7.81766C22.1317 7.75281 22.1313 7.648 22.2425 7.58339C22.354 7.51843 22.5351 7.51843 22.647 7.58339C22.7593 7.648 22.76 7.75281 22.6485 7.81766Z" fill="#4C5C75"/>
<path d="M22.6059 7.77177L22.569 7.79327L22.4455 7.72202L22.3228 7.79327L22.2856 7.77177L22.4082 7.70053L22.2849 7.62928L22.3216 7.60779L22.4453 7.67903L22.568 7.60779L22.6052 7.62928L22.4825 7.70053L22.6059 7.77177Z" fill="#1D2943"/>
<path d="M29.2142 8.24759C29.1028 8.31231 28.9217 8.31231 28.8096 8.24759C28.6973 8.18274 28.697 8.07793 28.8082 8.01332C28.9197 7.94836 29.1008 7.94836 29.2127 8.01332C29.325 8.07793 29.3256 8.18274 29.2142 8.24759Z" fill="#4C5C75"/>
<path d="M29.1716 8.2017L29.1347 8.2232L29.0112 8.15195L28.8885 8.2232L28.8513 8.2017L28.9739 8.13046L28.8506 8.05921L28.8873 8.03772L29.0109 8.10897L29.1336 8.03772L29.1708 8.05921L29.0481 8.13046L29.1716 8.2017Z" fill="#1D2943"/>
<path d="M6.29736 21.5608C6.18615 21.6255 6.00502 21.6255 5.89283 21.5608C5.78065 21.496 5.78017 21.3912 5.89151 21.3266C6.00296 21.2616 6.18409 21.2616 6.29603 21.3266C6.40822 21.3912 6.40882 21.496 6.29736 21.5608Z" fill="#4C5C75"/>
<path d="M6.2548 21.5149L6.21809 21.5364L6.09444 21.4652L5.97175 21.5364L5.93456 21.5149L6.05725 21.4437L5.93384 21.3724L5.97067 21.351L6.0942 21.4222L6.21689 21.351L6.2542 21.3724L6.13151 21.4437L6.2548 21.5149Z" fill="#1D2943"/>
<path d="M9.76007 19.5501C9.64885 19.6147 9.4676 19.6147 9.35554 19.5501C9.24324 19.4851 9.24288 19.3803 9.35409 19.3157C9.46555 19.2507 9.6468 19.2507 9.75862 19.3157C9.87092 19.3803 9.87153 19.4851 9.76007 19.55V19.5501Z" fill="#4C5C75"/>
<path d="M9.71769 19.5041L9.68086 19.5256L9.55733 19.4543L9.43464 19.5256L9.39745 19.5041L9.52014 19.4328L9.39673 19.3616L9.43356 19.3401L9.55709 19.4113L9.67978 19.3401L9.71697 19.3616L9.59428 19.4328L9.71769 19.5041Z" fill="#1D2943"/>
<path d="M2.76251 19.4075C2.6513 19.4721 2.47016 19.4721 2.35798 19.4075C2.24568 19.3425 2.24532 19.2377 2.35653 19.1731C2.46811 19.1081 2.64924 19.1081 2.76106 19.1731C2.87336 19.2377 2.87397 19.3425 2.76251 19.4074V19.4075Z" fill="#4C5C75"/>
<path d="M2.72014 19.3615L2.68343 19.383L2.55977 19.3117L2.43709 19.383L2.39989 19.3615L2.52258 19.2902L2.39917 19.219L2.436 19.1975L2.55953 19.2688L2.68222 19.1975L2.71953 19.219L2.59685 19.2902L2.72014 19.3615Z" fill="#1D2943"/>
<path d="M7.71916 15.5797C7.82264 15.5199 7.96876 15.5721 8.04544 15.696C8.12211 15.8199 8.10026 15.969 7.99677 16.0288C7.89268 16.0888 7.74657 16.0368 7.66989 15.9129C7.59333 15.7888 7.61507 15.6398 7.71916 15.5797ZM7.1219 15.9245C7.22599 15.8644 7.37211 15.9165 7.44879 16.0404C7.52547 16.1644 7.50361 16.3135 7.39952 16.3737C7.29603 16.4333 7.14992 16.3811 7.07336 16.2573C6.99668 16.1332 7.01854 15.9842 7.1219 15.9245ZM6.52537 16.269C6.62886 16.2092 6.77497 16.2612 6.85153 16.3853C6.92821 16.5091 6.90648 16.6582 6.80299 16.7181C6.6995 16.7779 6.55327 16.7257 6.47671 16.6016C6.40003 16.4777 6.42189 16.3287 6.52537 16.269Z" fill="#C9CEE2"/>
</g>
<defs>
<clipPath id="clip0_199_3425">
<rect width="32" height="32" fill="white"/>
</clipPath>
</defs>
</svg>
