<svg width="32" height="32" viewBox="0 0 32 32" fill="none" xmlns="http://www.w3.org/2000/svg">
<g clip-path="url(#clip0_199_3425)">
<path d="M12.2616 25.0735L12.2362 25.0916L12.2061 25.1085C12.2254 25.0976 12.2435 25.0856 12.2616 25.0735Z" fill="#1D2943"/>
<path d="M13.7324 23.3431C13.7312 23.9311 13.5235 24.3441 13.189 24.5397L12.2362 25.0916L12.2616 25.0735C12.2435 25.0856 12.2254 25.0976 12.206 25.1085C11.8667 25.3065 11.397 25.2788 10.8789 24.9793C9.8501 24.384 9.0169 22.9422 9.02052 21.76C9.02173 21.1574 9.24029 20.7384 9.58928 20.55C9.58082 20.5536 9.57237 20.5585 9.56392 20.5633L10.5469 19.9933C10.8862 19.7965 11.3559 19.8243 11.874 20.1237C12.904 20.7179 13.736 22.1597 13.7324 23.3431Z" fill="#1D2943"/>
<path d="M12.2616 25.0735L12.2362 25.0916L12.2061 25.1085C12.2254 25.0976 12.2435 25.0856 12.2616 25.0735Z" fill="#1D2943"/>
<path d="M13.7327 23.3429C13.7313 23.931 13.5235 24.3445 13.1888 24.5396L12.2062 25.1087C12.5409 24.9145 12.7488 24.5003 12.7501 23.9128C12.7535 22.7292 11.9217 21.2881 10.8914 20.6933C10.3734 20.3938 9.90402 20.366 9.56445 20.5636L10.547 19.9936C10.8859 19.7967 11.3558 19.8246 11.874 20.124C12.9042 20.7182 13.736 22.1592 13.7327 23.3429Z" fill="#4C5C75"/>
<path d="M12.2061 25.109C12.9331 24.6864 12.9312 23.3264 12.2017 22.0711C11.4723 20.8159 10.2916 20.1408 9.5645 20.5633C8.83744 20.9859 8.83938 22.3459 9.56883 23.6012C10.2983 24.8564 11.479 25.5315 12.2061 25.109Z" fill="#1D2943"/>
<path d="M10.6601 20.9184C10.1696 20.6348 9.72487 20.6085 9.40414 20.7948L6.61133 22.4233V28.1833L11.9045 25.0976C12.2214 24.9131 12.4181 24.5216 12.4193 23.9649C12.4225 22.8446 11.6351 21.4808 10.6601 20.9184Z" fill="#4C5C75"/>
<path d="M10.2638 14.7945C10.2638 15.0445 10.1757 15.2208 10.0332 15.3029L9.72889 15.484L9.75425 15.4659C9.60935 15.5674 9.39923 15.5637 9.16497 15.4285C8.72663 15.1761 8.37282 14.5627 8.37403 14.0591C8.37523 13.8092 8.46339 13.6329 8.60708 13.5507L8.91018 13.3708C9.05388 13.2875 9.25312 13.2984 9.4741 13.4264C9.91123 13.6787 10.265 14.291 10.2638 14.7945Z" fill="#FEBC1F"/>
<path d="M9.4737 13.426C9.25344 13.2987 9.05383 13.2868 8.90977 13.3707L8.60547 13.5509C8.74965 13.4671 8.94914 13.479 9.16951 13.6062C9.60737 13.859 9.9613 14.4716 9.95985 14.9748C9.95913 15.2247 9.87086 15.4008 9.72837 15.4835L10.0327 15.3033C10.175 15.2205 10.2633 15.0446 10.264 14.7945C10.2655 14.2913 9.91155 13.6787 9.4737 13.426Z" fill="#FFD06C"/>
<path d="M9.17018 13.6063C9.60803 13.859 9.96196 14.4716 9.96051 14.9748C9.95907 15.478 9.60284 15.6812 9.16498 15.4285C8.72713 15.1756 8.37356 14.5625 8.375 14.0593C8.37645 13.5562 8.73232 13.3534 9.17018 13.6063Z" fill="#FEBC1F"/>
<path d="M9.16938 14.0111C9.41246 14.1515 9.60905 14.4918 9.60833 14.7714C9.6076 15.0509 9.40968 15.1638 9.16636 15.0234C8.92304 14.883 8.72682 14.5423 8.72754 14.2629C8.72827 13.9833 8.92618 13.8707 9.16938 14.0111Z" fill="#F3A250"/>
<path d="M9.40456 14.7854C9.40396 14.8903 9.36676 14.9647 9.30675 14.9993L8.07433 15.7227C8.13422 15.6879 8.17141 15.6136 8.17202 15.5087C8.17262 15.2971 8.02397 15.0393 7.83994 14.9333C7.74696 14.8799 7.66316 14.8745 7.60254 14.9099L8.83508 14.1865C8.8957 14.1513 8.97963 14.1567 9.07249 14.21C9.25652 14.3161 9.40517 14.5738 9.40456 14.7854Z" fill="#4C5C75"/>
<path d="M30.4811 0.707662C30.2091 0.550681 29.9629 0.53619 29.7851 0.639436L29.3271 0.9057C29.505 0.802334 29.7514 0.816945 30.0232 0.973926C30.5636 1.28584 31.0002 2.04188 30.9985 2.6628C30.9977 2.97133 30.8886 3.18845 30.7129 3.29073L31.1707 3.02458C31.3465 2.92242 31.4555 2.70519 31.4563 2.39666C31.4581 1.77586 31.0215 1.01981 30.4811 0.707903V0.707662Z" fill="#E3E7F0"/>
<path d="M30.0233 0.973813C30.5636 1.28572 31.0003 2.04177 30.9986 2.66269C30.9968 3.28349 30.5572 3.53454 30.0169 3.22251C29.4765 2.91048 29.0402 2.15383 29.042 1.53303C29.0438 0.912108 29.483 0.661904 30.0233 0.973813Z" fill="#C9CEE2"/>
<path d="M30.4494 3.35356L29.4073 3.36612L28.6201 2.03734L29.1738 1.04968L30.4494 3.35356Z" fill="#C9CEE2"/>
<path d="M29.5918 3.0101C29.5906 3.18519 29.529 3.30836 29.43 3.36632L29.1764 3.51364C29.174 3.51485 29.1716 3.51606 29.1704 3.51727C29.0689 3.57523 28.9301 3.56678 28.7755 3.47863C28.47 3.30112 28.2224 2.87244 28.2236 2.52104C28.2248 2.34595 28.2864 2.22398 28.3854 2.16602L28.6451 2.01508C28.7453 1.95591 28.8854 1.96436 29.0387 2.05372C29.3454 2.23002 29.593 2.6587 29.5918 3.0101Z" fill="#F3A250"/>
<path d="M29.0395 2.05332C28.8854 1.96444 28.7458 1.95611 28.6451 2.01467L28.3857 2.1655C28.4865 2.10693 28.626 2.11514 28.78 2.20414C29.0862 2.38092 29.3337 2.80912 29.3327 3.161C29.3321 3.33585 29.2704 3.4589 29.1709 3.51674L29.4303 3.36604C29.5298 3.30808 29.5916 3.18503 29.5921 3.0103C29.593 2.65842 29.3456 2.23022 29.0395 2.05332Z" fill="#FFD06C"/>
<path d="M28.7796 2.20411C29.0858 2.3809 29.3333 2.80909 29.3323 3.16097C29.3313 3.51285 29.0822 3.65486 28.7761 3.47819C28.47 3.30153 28.2227 2.87273 28.2236 2.52097C28.2246 2.16921 28.4736 2.02733 28.7796 2.20411Z" fill="#F3A250"/>
<path d="M28.9541 3.22503C28.9534 3.35544 28.9071 3.44794 28.8326 3.49117L27.7467 4.11765C27.8213 4.07441 27.8674 3.98192 27.8681 3.8515C27.8689 3.5885 27.6841 3.26802 27.4553 3.13615C27.3398 3.06974 27.2355 3.06309 27.1602 3.10705L28.2461 2.48057C28.3213 2.43662 28.4257 2.44326 28.5412 2.50955C28.7699 2.64154 28.9548 2.96202 28.9541 3.22503Z" fill="#4C5C75"/>
<path d="M27.4548 3.13603C27.6837 3.26814 27.8682 3.58826 27.8674 3.85126C27.8666 4.11414 27.681 4.22053 27.452 4.08842C27.2232 3.95632 27.0382 3.63596 27.0391 3.37295C27.0397 3.10995 27.2259 3.00393 27.4548 3.13603Z" fill="#1D2943"/>
<path d="M1.41895 28.1267L3.4853 26.9259L3.85831 27.1412L1.79196 28.342L1.41895 28.1267Z" fill="#DCDCDC"/>
<path d="M1.79198 28.342L3.85834 27.1412L3.85737 27.5005L1.79102 28.7014L1.79198 28.342Z" fill="#78E75A"/>
<path d="M1.99265 25.175L4.05901 23.9742L3.4853 26.9258L1.41895 28.1266L1.99265 25.175Z" fill="#ACACAC"/>
<path d="M5.26465 30.3468L7.331 29.146L7.70426 29.3615L5.6379 30.5623L5.26465 30.3468Z" fill="#DCDCDC"/>
<path d="M5.08301 26.9591L7.14936 25.7583L7.70435 29.3615L5.638 30.5623L5.08301 26.9591Z" fill="#414F64"/>
<path d="M1.99316 25.175L4.05952 23.9742L7.14951 25.7583L5.08316 26.9591L1.99316 25.175Z" fill="#414F65"/>
<path d="M5.08155 26.9591L5.63654 30.5623L1.41797 28.1267L1.99155 25.175L5.08155 26.9591Z" fill="#4C5C75"/>
<path d="M8.57787 30.226L6.51055 31.4264L5.26327 30.7066L5.26448 30.3467L5.63761 30.5617L5.08214 26.9596L1.99323 25.1748L1.41844 28.1261L1.79157 28.3422V28.7009L0.542969 27.9812L1.40395 22.1511L5.67975 24.6193L7.74599 23.419L8.57787 30.226Z" fill="#5EC363"/>
<path d="M5.67969 24.6196L7.74604 23.4188L8.57768 30.2258L6.51133 31.4266L5.67969 24.6196Z" fill="#78E75A"/>
<path d="M5.67951 24.6196L6.51115 31.4265L5.26327 30.7061L5.26436 30.3468L5.63761 30.5623L5.08262 26.9591L1.99263 25.1751L1.41892 28.1267L1.79193 28.342L1.79097 28.7013L0.542969 27.9808L1.40431 22.1514L5.67951 24.6196Z" fill="#5EC363"/>
<path d="M1.4043 22.1513L3.47065 20.9505L7.74585 23.4188L5.6795 24.6195L1.4043 22.1513ZM24.2787 14.8437L26.3451 13.6429L26.7181 13.8582L24.6518 15.059L24.2787 14.8437Z" fill="#DCDCDC"/>
<path d="M24.6523 15.0591L26.7187 13.8583L26.7177 14.2175L24.6514 15.4184L24.6523 15.0591Z" fill="#78E75A"/>
<path d="M24.853 11.8922L26.9194 10.6914L26.3457 13.643L24.2793 14.8438L24.853 11.8922Z" fill="#ACACAC"/>
<path d="M28.124 17.0638L30.1904 15.863L30.5638 16.0786L28.4974 17.2794L28.124 17.0638Z" fill="#DCDCDC"/>
<path d="M27.9434 13.6762L30.0097 12.4755L30.5647 16.0787L28.4983 17.2794L27.9434 13.6762Z" fill="#414F64"/>
<path d="M24.8525 11.8922L26.9189 10.6914L30.0089 12.4754L27.9425 13.6762L24.8525 11.8922Z" fill="#414F65"/>
<path d="M27.942 13.6762L28.497 17.2794L24.2783 14.8438L24.852 11.8922L27.942 13.6762Z" fill="#4C5C75"/>
<path d="M31.4371 16.943L29.3709 18.1433L28.1236 17.4236L28.1248 17.0638L28.4978 17.2799L27.9425 13.6766L24.8524 11.8919L24.2788 14.8443L24.6519 15.0593L24.6507 15.4179L23.4033 14.6982L24.2643 8.86816L28.5402 11.3364L30.6063 10.1361L31.4371 16.943Z" fill="#5EC363"/>
<path d="M28.54 11.3366L30.6064 10.1359L31.438 16.9428L29.3717 18.1436L28.54 11.3366Z" fill="#78E75A"/>
<path d="M28.5399 11.3366L29.3715 18.1436L28.1236 17.4232L28.1246 17.0638L28.498 17.2793L27.943 13.6761L24.853 11.8921L24.2793 14.8437L24.6523 15.059L24.6513 15.4184L23.4033 14.6978L24.2647 8.86841L28.5399 11.3366Z" fill="#5EC363"/>
<path d="M24.2646 8.86851L26.331 7.66772L30.6062 10.136L28.5398 11.3367L24.2646 8.86851Z" fill="#DCDCDC"/>
<path d="M3.06664 21.4437L28.005 6.95105L28.0038 7.38685L3.06543 21.8795L3.06664 21.4437Z" fill="#C9CEE2"/>
<path d="M1.40723 20.4854L26.3456 5.9928L28.0051 6.95099L3.06676 21.4436L1.40723 20.4854Z" fill="#F3F1FC"/>
<path d="M3.06543 21.8795L28.0038 7.38684L28.9485 7.93217L4.01009 22.4248L3.06543 21.8795Z" fill="#9EA9C9"/>
<path d="M30.6101 8.45386L30.6054 10.1396L5.66717 24.6326L1.40332 22.1704L1.40815 20.4859L3.06732 21.4434L3.06611 21.8794L4.01041 22.4252L4.01162 21.9893L5.67079 22.9468L30.6101 8.45386Z" fill="#78E75A"/>
<path d="M5.67073 22.9471L30.6091 8.45447L30.6044 10.1396L5.66602 24.6322L5.67073 22.9471Z" fill="#78E75A"/>
<path d="M5.6709 22.9472L5.66619 24.6323L1.40234 22.1706L1.40717 20.4855L3.06671 21.4437L3.0655 21.8795L4.01016 22.4248L4.01137 21.989L5.6709 22.9472Z" fill="#5EC363"/>
<path d="M4.01172 21.989L28.9501 7.49634L30.6096 8.45453L5.67125 22.9471L4.01172 21.989Z" fill="#F3F1FC"/>
<path d="M29.6404 8.13008L29.638 9.01521L26.1059 11.0692L21.8457 8.60947L21.8481 7.72434L25.3814 5.67151L29.6404 8.13008Z" fill="#B0B8CF"/>
<path d="M29.6409 8.13025L29.6384 9.01538L26.1055 11.0686L26.108 10.1834L29.6409 8.13025Z" fill="#9EA9C9"/>
<path d="M26.1077 10.1835L26.1052 11.0687L21.8457 8.6095L21.8482 7.72424L26.1077 10.1835Z" fill="#B0B8CF"/>
<path d="M29.6411 8.13031L26.1081 10.1835L21.8486 7.72421L25.3817 5.67114L29.6411 8.13031Z" fill="#E3E7F0"/>
<path d="M24.4486 10.112L24.0462 10.3461L23.5039 10.0017V9.56689L24.4486 10.112Z" fill="#B0B8CF"/>
<path d="M27.8706 3.88957L28.1917 3.70288L28.1795 8.0032L27.8584 8.18976L27.8706 3.88957Z" fill="#9EA9C9"/>
<path d="M27.1367 3.4655L27.4579 3.27893L28.1921 3.70278L27.871 3.88947L27.1367 3.4655Z" fill="#E3E7F0"/>
<path d="M27.8706 3.88955L27.8584 8.18974L25.5771 6.87267L27.1363 3.46558L27.8706 3.88955Z" fill="#B0B8CF"/>
<path d="M24.7236 4.85888L25.6538 4.32056L26.388 4.74453L25.4578 5.28273L24.7236 4.85888Z" fill="#C9CEE2"/>
<path d="M24.7236 4.85898L27.2315 3.41101L27.9657 3.83498L25.4578 5.28283L24.7236 4.85898Z" fill="#E3E7F0"/>
<path d="M25.7784 5.09665L25.7663 9.39673L25.4451 9.58269L23.1641 8.26646L24.723 4.85876L25.4572 5.28261L25.7784 5.09665Z" fill="#B0B8CF"/>
<path d="M25.4575 5.28276L25.7787 5.09619L25.7665 9.39639L25.4453 9.58307L25.4575 5.28276Z" fill="#9EA9C9"/>
<path d="M25.4576 5.28274L25.4454 9.58305L23.1641 8.26598L24.7234 4.85889L25.4576 5.28274Z" fill="#B0B8CF"/>
<path d="M27.8713 3.88916L27.27 7.84992L25.7686 8.71102L25.7789 5.09647L27.8713 3.88916Z" fill="#C9CEE2"/>
<path d="M28.5891 3.52891C28.5881 3.68866 28.5316 3.80181 28.4403 3.8547L24.2984 6.24444C24.3896 6.19131 24.4463 6.07828 24.4471 5.91852C24.4481 5.59635 24.2218 5.20389 23.9415 5.04244C23.8001 4.96118 23.6722 4.95309 23.5801 5.00682L27.7221 2.61721C27.8142 2.56335 27.9421 2.57156 28.0835 2.65283C28.3637 2.8144 28.5901 3.20673 28.5891 3.52891Z" fill="#FFD06C"/>
<path d="M23.9409 5.04226C24.221 5.20407 24.4471 5.59616 24.4461 5.91821C24.4451 6.24027 24.2179 6.37044 23.9375 6.20863C23.6573 6.04682 23.4307 5.65448 23.4316 5.33243C23.4326 5.01038 23.6606 4.88045 23.9409 5.04226Z" fill="#F3A250"/>
<path d="M24.2967 5.91199C24.296 6.04241 24.2499 6.13478 24.1754 6.17801L23.0894 6.80449C23.1639 6.76126 23.2102 6.66888 23.2109 6.53847C23.2116 6.27534 23.0269 5.95498 22.7979 5.82299C22.6825 5.75658 22.5782 5.74994 22.5029 5.79401L23.5888 5.16742C23.6641 5.12346 23.7684 5.13022 23.8839 5.19652C24.1127 5.3285 24.2976 5.64887 24.2969 5.91199H24.2967Z" fill="#4C5C75"/>
<path d="M22.7976 5.82295C23.0265 5.95505 23.2109 6.27517 23.2102 6.53818C23.2095 6.80118 23.0238 6.90757 22.7948 6.77546C22.566 6.64323 22.3811 6.32287 22.3818 6.05987C22.3826 5.79686 22.5688 5.69084 22.7976 5.82295Z" fill="#1D2943"/>
<path d="M16.4935 12.9762C16.3594 12.8989 16.1735 12.911 15.9684 13.0305C15.5581 13.267 15.2263 13.8414 15.2275 14.3133L15.2311 15.1581L12.3347 13.4758L12.3311 12.6297C12.3299 12.158 12.6618 11.5835 13.0721 11.347C13.2772 11.2286 13.4631 11.2166 13.5983 11.2938L16.4935 12.9762Z" fill="#C9CEE2"/>
<path d="M15.9681 13.03C16.1734 12.9116 16.3594 12.8996 16.4938 12.9767C16.629 13.0538 16.7127 13.219 16.7134 13.4553L16.7167 14.3003L15.2308 15.1583L15.2275 14.3132C15.2262 13.8411 15.5578 13.2669 15.9681 13.03Z" fill="#B0B8CF"/>
<path d="M15.2664 11.6682C15.1047 11.5753 14.8807 11.5898 14.6336 11.7325C14.1397 12.0176 13.7406 12.7087 13.7422 13.2769L13.7461 14.2942L17.2318 16.3198L17.2279 15.3026C17.2262 14.7343 17.6254 14.0431 18.1193 13.7581C18.3664 13.6155 18.5903 13.6009 18.7521 13.6939L15.2664 11.6682Z" fill="#C9CEE2"/>
<path d="M15.2664 11.6682C15.1047 11.5753 14.8807 11.5898 14.6336 11.7325C14.1397 12.0176 13.7406 12.7087 13.7422 13.2769L13.7461 14.2942L15.7927 15.4836L15.7889 14.4664C15.7872 13.8981 16.1864 13.2069 16.6803 12.9218C16.9273 12.7793 17.1512 12.7647 17.313 12.8576L15.2664 11.6682Z" fill="#4C5C75"/>
<path d="M18.1201 13.7581C18.367 13.6156 18.591 13.601 18.7528 13.694C18.9156 13.7867 19.0163 13.9856 19.0171 14.2701L19.021 15.2873L17.2325 16.3198L17.2285 15.3027C17.227 14.7344 17.6262 14.0431 18.1201 13.7581Z" fill="#B0B8CF"/>
<path d="M15.5023 15.3101L15.0999 15.5441L14.5576 15.1999V14.765L15.5023 15.3101Z" fill="#4C5C75"/>
<path d="M20.8584 15.9278C20.9075 15.8985 20.9767 15.9025 21.0525 15.9464C21.2033 16.0334 21.3249 16.2454 21.3249 16.4189C21.3243 16.5047 21.2943 16.565 21.2452 16.5937L21.5376 16.423C21.5869 16.3945 21.6173 16.334 21.6173 16.2483C21.6181 16.0748 21.4959 15.8634 21.3449 15.7764C21.2692 15.7325 21.2007 15.7286 21.1509 15.7571L20.8584 15.9278Z" fill="#111D33"/>
<path d="M21.0515 15.9464C20.9005 15.8592 20.7778 15.9295 20.7773 16.1031C20.7769 16.2762 20.8986 16.4871 21.0496 16.5744C21.2007 16.6616 21.3234 16.5918 21.3238 16.4186C21.3244 16.2451 21.2025 16.0336 21.0515 15.9465V15.9464Z" fill="#1D2943"/>
<path d="M21.7911 15.924C21.7514 15.925 21.7122 15.9532 21.6841 16.0072C21.6278 16.1146 21.6353 16.2844 21.7 16.3863C21.7324 16.4366 21.7725 16.4609 21.812 16.4594L21.3797 16.4745C21.3401 16.476 21.2995 16.4519 21.2676 16.4015C21.2025 16.2997 21.1956 16.1301 21.2519 16.0226C21.2801 15.9686 21.3188 15.9407 21.3588 15.939L21.7911 15.924Z" fill="#4C5C75"/>
<path d="M21.6844 16.0072C21.7407 15.8995 21.839 15.8953 21.9039 15.997C21.9688 16.0985 21.9758 16.2679 21.9195 16.3755C21.8632 16.483 21.7652 16.4877 21.7003 16.3861C21.6354 16.2843 21.6281 16.1148 21.6844 16.0072Z" fill="#111D33"/>
<path d="M23.5631 15.9581C23.5296 15.9591 23.4967 15.9828 23.473 16.0282C23.4257 16.1185 23.432 16.2615 23.4864 16.3472C23.5136 16.3893 23.5474 16.4099 23.5806 16.4085L21.8376 16.4135C21.8043 16.4148 21.7702 16.3945 21.7434 16.3522C21.6887 16.2667 21.6829 16.1239 21.7302 16.0335C21.7538 15.9881 21.7864 15.9647 21.8201 15.9632L23.5631 15.9581Z" fill="#4C5C75"/>
<path d="M23.4732 16.0281C23.5205 15.9376 23.6033 15.934 23.658 16.0196C23.7123 16.1051 23.7183 16.2475 23.671 16.3379C23.6237 16.4285 23.5412 16.4324 23.4866 16.3469C23.432 16.2613 23.426 16.1187 23.4733 16.0281H23.4732Z" fill="#111D33"/>
<path d="M25.3401 15.7219C25.2984 15.7231 25.2701 15.842 25.2404 15.8987C25.1815 16.0114 25.1893 16.1897 25.2572 16.2968C25.2911 16.3495 25.3296 16.4649 25.3711 16.4632L23.5626 16.4449C23.5211 16.4465 23.4786 16.4211 23.445 16.3682C23.3768 16.2615 23.3696 16.0832 23.4286 15.9704C23.4582 15.9137 23.4989 15.8846 23.5408 15.8826L25.3401 15.7219Z" fill="#DBA660"/>
<path d="M25.2009 15.8369C25.279 15.6878 25.4152 15.6818 25.5051 15.8228C25.5949 15.9635 25.6046 16.1983 25.5266 16.3473C25.4486 16.4963 25.3129 16.5027 25.223 16.362C25.133 16.2209 25.1231 15.9859 25.2009 15.8367V15.8369Z" fill="#AA6256"/>
<path d="M20.1272 14.4712C20.043 14.4222 19.9262 14.429 19.7976 14.5032L19.164 14.8691C19.1096 14.9005 19.0604 14.9033 19.0249 14.8828L20.2928 15.6195C20.3283 15.6401 20.3775 15.6372 20.4318 15.6058L21.0654 15.24C21.1941 15.1657 21.3108 15.1591 21.395 15.208L20.1271 14.4711L20.1272 14.4712ZM18.429 18.6898L17.1611 17.953L17.1514 14.3071L18.4193 15.044L18.429 18.6898Z" fill="#72D561"/>
<path d="M17.4016 17.814L17.3936 14.7273L18.1779 15.1831L18.1861 18.2699L17.4016 17.814Z" fill="#5EC363"/>
<path d="M20.0979 14.2329C20.0137 14.184 19.8971 14.1911 19.7682 14.2655L18.4192 15.044L17.1514 14.3074L18.5006 13.5281C18.6293 13.4544 18.7461 13.4472 18.8302 13.4961L20.0979 14.2329Z" fill="#78E75A"/>
<path d="M10.1326 19.4713L10.1301 20.3564L6.13196 22.6798L1.86328 20.2152L1.8657 19.33L5.86389 17.0067L10.1326 19.4713Z" fill="#B0B8CF"/>
<path d="M10.1323 19.4708L10.1299 20.356L6.13184 22.6794L6.13437 21.7943L10.1323 19.4708Z" fill="#9EA9C9"/>
<path d="M6.13425 21.7943L6.13172 22.6794L1.86328 20.2151L1.86582 19.33L6.13425 21.7943Z" fill="#B0B8CF"/>
<path d="M10.1326 19.4708L6.13465 21.7943L1.86621 19.3299L5.86428 17.0065L10.1326 19.4708Z" fill="#E3E7F0"/>
<path d="M4.46615 21.7176L4.06379 21.9517L3.52148 21.6075V21.1725L4.46615 21.7176ZM6.33676 17.6846L9.04565 16.1104L9.03454 19.5984L6.32565 21.1725L6.33676 17.6846Z" fill="#B0B8CF"/>
<path d="M4.65723 14.9993L7.36612 13.4252L9.04569 16.1104L6.3368 17.6847L4.65723 14.9993Z" fill="#C9CEE2"/>
<path d="M3.46582 14.3116L6.17459 12.7374L7.36583 13.4251L4.65694 14.9993L3.46582 14.3116Z" fill="#E3E7F0"/>
<path d="M3.94732 14.3108L6.175 13.0164L6.8842 13.4257L4.65639 14.7203L3.94732 14.3108ZM4.65688 14.9993L6.33645 17.6846L6.32534 21.1725L3.44824 19.5114L3.46575 14.3116L4.65688 14.9993Z" fill="#9EA9C9"/>
<path d="M5.51775 20.7067L5.26899 20.8528V20.854L3.85254 20.0377L4.28967 17.5562C4.13027 17.3557 4.0228 17.0937 4.02401 16.8643C4.02401 16.6928 4.0856 16.572 4.18341 16.5165L4.43216 16.3716C4.53118 16.3136 4.66763 16.3221 4.81858 16.409C5.11926 16.5817 5.36077 17.0019 5.36077 17.3473C5.35956 17.5175 5.29918 17.6383 5.20258 17.6951L5.09631 17.7566L5.26899 18.9654L5.51775 20.7067Z" fill="#C9CEE2"/>
<path d="M4.8418 17.8733L5.09164 17.728L5.51802 20.707L5.26818 20.8523L4.8418 17.8733Z" fill="#E3E7F0"/>
<path d="M4.81802 16.409C4.66707 16.3218 4.53038 16.3137 4.4316 16.3712L4.18164 16.5163C4.28042 16.459 4.41723 16.4671 4.56806 16.5541C4.86825 16.7274 5.11061 17.1474 5.10964 17.4919C5.10916 17.6631 5.04878 17.7837 4.95145 17.8402L5.20117 17.695C5.29862 17.6384 5.359 17.518 5.35936 17.3468C5.36045 17.0021 5.11809 16.5823 4.81802 16.409Z" fill="white"/>
<path d="M4.56812 16.5542C4.8682 16.7274 5.11055 17.1474 5.10959 17.4919C5.10886 17.7207 5.00127 17.859 4.84115 17.8751L5.26753 20.8542L3.85156 20.0373L4.28845 17.556C4.12906 17.3553 4.02255 17.0935 4.02315 16.8647C4.02412 16.52 4.26829 16.381 4.56812 16.5542Z" fill="#C9CEE2"/>
<path d="M4.55457 16.7154C4.43876 16.6485 4.33395 16.6423 4.25823 16.6863L3.89355 16.8982C3.96927 16.8542 4.07408 16.8604 4.18977 16.9272C4.4198 17.06 4.60565 17.3818 4.60492 17.6462C4.60456 17.7774 4.55819 17.8699 4.48332 17.9134L4.848 17.7015C4.92287 17.658 4.96924 17.5655 4.9696 17.4342C4.97045 17.1699 4.78448 16.8481 4.55457 16.7154Z" fill="#4C5C75"/>
<path d="M4.18918 16.9273C4.41921 17.0601 4.60506 17.3818 4.60433 17.6461C4.60361 17.9104 4.41656 18.0172 4.18652 17.8844C3.95648 17.7516 3.77076 17.4295 3.77149 17.1653C3.77233 16.901 3.95914 16.7945 4.18918 16.9273Z" fill="#1D2943"/>
<path d="M4.53277 17.8722L4.04094 18.7425L2.93555 16.7059L4.02294 16.8645L4.43073 17.3189L4.48773 17.5035L4.53277 17.8722Z" fill="#1D2943"/>
<path d="M3.33528 16.8224C3.09933 16.6861 2.88559 16.6734 2.73127 16.7631L2.33398 16.994C2.48831 16.9043 2.70204 16.9169 2.938 17.0531C3.40689 17.3239 3.7857 17.9799 3.78425 18.5187C3.78352 18.7865 3.68885 18.975 3.53646 19.0636L3.93374 18.8327C4.08626 18.7441 4.18081 18.5556 4.18153 18.2879C4.1831 17.7491 3.80417 17.0931 3.33528 16.8224Z" fill="#E3E7F0"/>
<path d="M2.93848 17.0532C3.40737 17.3238 3.78618 17.9799 3.78473 18.5187C3.78328 19.0575 3.40182 19.2752 2.93293 19.0045C2.46404 18.7337 2.08523 18.0772 2.08692 17.5385C2.08837 16.9996 2.46947 16.7825 2.93848 17.0531V17.0532Z" fill="#C9CEE2"/>
<path d="M4.18201 18.2879C4.18201 18.556 4.08662 18.7444 3.93446 18.8325L3.55167 19.0547C3.55529 19.0511 3.56012 19.0475 3.56495 19.0438C3.40918 19.1537 3.18337 19.1489 2.93341 19.004C2.46488 18.7335 2.08571 18.0778 2.08692 17.538C2.08812 17.2699 2.18352 17.0816 2.33567 16.9934L2.73175 16.7628C2.88631 16.6734 3.10005 16.6855 3.33552 16.8219C3.80526 17.0924 4.18443 17.7493 4.18201 18.2879Z" fill="#9EA9C9"/>
<path d="M3.33528 16.8224C3.09933 16.6861 2.88559 16.6734 2.73127 16.7631L2.33398 16.994C2.48831 16.9043 2.70204 16.9169 2.938 17.0531C3.40689 17.3239 3.7857 17.9799 3.78425 18.5187C3.78352 18.7865 3.68885 18.975 3.53646 19.0636L3.93374 18.8327C4.08626 18.7441 4.18081 18.5556 4.18153 18.2879C4.1831 17.7491 3.80417 17.0931 3.33528 16.8224Z" fill="#E3E7F0"/>
<path d="M2.93848 17.0532C3.40737 17.3238 3.78618 17.9799 3.78473 18.5187C3.78328 19.0575 3.40182 19.2752 2.93293 19.0045C2.46404 18.7337 2.08523 18.0772 2.08692 17.5385C2.08837 16.9996 2.46947 16.7825 2.93848 17.0531V17.0532Z" fill="#C9CEE2"/>
<path d="M3.59764 18.4107C3.59764 18.5275 3.57433 18.6247 3.53303 18.6995C3.42677 18.8961 3.19758 18.9423 2.93312 18.7897C2.56772 18.5784 2.27235 18.0664 2.27344 17.6462C2.27404 17.3716 2.40156 17.2042 2.59163 17.1809C2.6921 17.1668 2.81092 17.1946 2.93747 17.2679C3.30336 17.4791 3.59921 17.9905 3.59764 18.4107Z" fill="#B0B8CF"/>
<path d="M3.59748 18.4107C3.59748 18.5275 3.57417 18.6247 3.53287 18.6995C3.43192 18.7132 3.31358 18.686 3.18703 18.6126C2.82115 18.4015 2.52578 17.8895 2.52735 17.4687C2.52735 17.3525 2.55029 17.2559 2.59147 17.1809C2.69194 17.1668 2.81076 17.1946 2.93731 17.2679C3.3032 17.4791 3.59905 17.9905 3.59748 18.4107Z" fill="#9EA9C9"/>
<path d="M19.0813 14.1279L19.0765 14.3658C19.0765 14.4455 19.0234 14.5264 18.9183 14.5868C18.707 14.7111 18.3616 14.7099 18.1479 14.588C18.0404 14.5252 17.9873 14.4443 17.9873 14.3622L17.9921 14.1255C17.9921 14.0446 18.0453 13.9649 18.1503 13.9033C18.3629 13.7801 18.707 13.7801 18.9207 13.9033C19.0282 13.9649 19.0825 14.047 19.0813 14.1279Z" fill="#AA6256"/>
<path d="M19.0815 14.1275L19.0766 14.3657C19.0765 14.446 19.0237 14.5261 18.9184 14.5874C18.7064 14.7105 18.3614 14.7104 18.1483 14.5874C18.0408 14.5253 17.9871 14.4438 17.9873 14.3625L17.9921 14.1245C17.9918 14.2058 18.0455 14.2872 18.1531 14.3492C18.3661 14.4724 18.7112 14.4724 18.9232 14.3492C19.0286 14.288 19.0813 14.208 19.0815 14.1275Z" fill="#AA6256"/>
<path d="M18.9211 13.9031C19.1343 14.0262 19.1353 14.2262 18.9233 14.3493C18.7114 14.4725 18.3663 14.4725 18.1532 14.3493C17.9395 14.226 17.9384 14.0263 18.1505 13.9031C18.3625 13.78 18.7075 13.7797 18.9211 13.9031Z" fill="#DBA660"/>
<path d="M18.8382 12.5685L18.8355 14.0755C18.8355 14.1196 18.8064 14.1638 18.7483 14.1974C18.6315 14.2654 18.4415 14.2653 18.3241 14.1974C18.2649 14.1633 18.2352 14.1185 18.2354 14.0737L18.238 12.5667C18.2379 12.6116 18.2675 12.6564 18.3268 12.6907C18.4441 12.7583 18.6342 12.7585 18.751 12.6907C18.8089 12.6569 18.838 12.6127 18.8382 12.5685Z" fill="white"/>
<path d="M18.75 12.4449C18.8674 12.5126 18.868 12.6229 18.7512 12.6907C18.6344 12.7586 18.4444 12.7583 18.327 12.6907C18.2093 12.6227 18.2087 12.5127 18.3254 12.4449C18.4422 12.377 18.6323 12.3769 18.75 12.4449Z" fill="#FEBC1F"/>
<path d="M21.7538 14.4C21.7533 14.4854 21.7232 14.5458 21.6745 14.5739L21.234 14.8282C21.2826 14.7999 21.3128 14.7394 21.3133 14.6543C21.3138 14.4824 21.193 14.2728 21.0434 14.1866C20.968 14.1433 20.8997 14.1389 20.8506 14.1677L21.2911 13.9135C21.3404 13.8847 21.4085 13.8892 21.4839 13.9326C21.6336 14.0188 21.7544 14.228 21.7538 14.4Z" fill="#1D2943"/>
<path d="M21.0432 14.1866C21.1928 14.2729 21.3133 14.4821 21.3128 14.6539C21.3123 14.8259 21.191 14.8954 21.0414 14.8091C20.8919 14.7226 20.7709 14.5132 20.7715 14.3414C20.772 14.1696 20.8936 14.1001 21.0432 14.1866Z" fill="#1D2943"/>
<path d="M21.62 14.5631C21.62 14.6742 21.5802 14.7539 21.5162 14.7901L20.939 15.1234C20.9462 15.1197 20.9535 15.1149 20.9595 15.1089C20.8943 15.1608 20.7965 15.1608 20.6878 15.098C20.491 14.9857 20.3328 14.7104 20.334 14.4858C20.334 14.3662 20.3787 14.2853 20.4511 14.2515L20.4366 14.2588L21.0138 13.9255C21.079 13.888 21.1684 13.8941 21.2662 13.9508C21.463 14.0631 21.6212 14.3373 21.62 14.5631Z" fill="#1D2943"/>
<path d="M21.6204 14.5625C21.6198 14.6742 21.5802 14.7533 21.5164 14.7902L20.9396 15.123C21.0034 15.0861 21.0428 15.007 21.0434 14.8953C21.0442 14.6702 20.886 14.3959 20.6901 14.2831C20.5912 14.2263 20.502 14.2205 20.4375 14.2581L21.0145 13.9253C21.0788 13.8876 21.1682 13.8934 21.2671 13.9502C21.4628 14.0631 21.621 14.3373 21.6204 14.5625Z" fill="#4C5C75"/>
<path d="M20.69 14.2829C20.8858 14.396 21.0438 14.67 21.0431 14.8951C21.0425 15.1202 20.8835 15.2112 20.6876 15.0981C20.4917 14.985 20.3334 14.7108 20.334 14.4857C20.3347 14.2606 20.494 14.1698 20.69 14.2829Z" fill="#1D2943"/>
<path d="M20.9031 14.8754C20.9019 14.9611 20.8717 15.0215 20.8234 15.0493L20.5807 15.1894C20.5855 15.1869 20.5891 15.1845 20.5927 15.1809C20.5432 15.2183 20.4708 15.2171 20.3887 15.17C20.2389 15.0843 20.1182 14.8742 20.1182 14.7027C20.1194 14.6134 20.152 14.5518 20.2039 14.5264C20.2083 14.5227 20.2138 14.5205 20.2196 14.5204C20.2148 14.5204 20.2111 14.5216 20.2075 14.524L20.4394 14.3888C20.4889 14.3598 20.5577 14.3646 20.6326 14.4081C20.7823 14.4938 20.9031 14.7039 20.9031 14.8754Z" fill="#1D2943"/>
<path d="M20.2069 14.524C20.2105 14.5216 20.2142 14.5204 20.219 14.5204C20.2132 14.5206 20.2077 14.5227 20.2033 14.5264C20.2009 14.5264 20.1997 14.5276 20.1973 14.5288L20.2069 14.524Z" fill="#1D2943"/>
<path d="M20.2067 14.524C20.2104 14.5216 20.214 14.5204 20.2188 14.5204C20.2131 14.5206 20.2075 14.5227 20.2031 14.5264C20.2043 14.5252 20.2055 14.524 20.2067 14.524Z" fill="#1D2943"/>
<path d="M20.9025 14.8755C20.902 14.9608 20.8718 15.0211 20.823 15.0494L20.5805 15.1894C20.6293 15.1611 20.6595 15.1007 20.66 15.0155C20.6605 14.8435 20.5397 14.634 20.3901 14.5478C20.3146 14.5044 20.2464 14.5001 20.1973 14.5288L20.4397 14.389C20.4889 14.3603 20.5571 14.3646 20.6326 14.408C20.7822 14.4942 20.903 14.7036 20.9025 14.8755Z" fill="#4C5C75"/>
<path d="M20.39 14.5478C20.5396 14.6341 20.6601 14.8434 20.6596 15.0151C20.6591 15.187 20.5378 15.2566 20.3882 15.1703C20.2386 15.0839 20.1177 14.8744 20.1182 14.7026C20.1186 14.5307 20.2404 14.4614 20.3899 14.5478H20.39Z" fill="#1D2943"/>
<path d="M20.5322 15.0026C20.5317 15.069 20.5083 15.1161 20.4703 15.1381L19.9294 15.4503C19.9672 15.4282 19.9907 15.3812 19.9911 15.3148C19.9914 15.181 19.8974 15.0178 19.781 14.9507C19.7221 14.917 19.6691 14.9136 19.6309 14.936L20.1718 14.6238C20.2101 14.6015 20.2633 14.6048 20.3221 14.6387C20.4385 14.7058 20.5325 14.8687 20.5322 15.0026Z" fill="white"/>
<path d="M19.7809 14.9507C19.8973 15.018 19.9913 15.1809 19.9909 15.3146C19.9905 15.4484 19.896 15.5027 19.7796 15.4354C19.663 15.3681 19.569 15.2051 19.5693 15.0712C19.5697 14.9374 19.6644 14.8834 19.7809 14.9507Z" fill="#1D2943"/>
<path d="M19.7678 14.2652C20.0238 14.1174 20.2321 14.2367 20.2329 14.5303L20.2356 15.4948C20.2359 15.6183 20.3235 15.6682 20.4314 15.6059L21.065 15.24C21.321 15.0923 21.5292 15.2116 21.5301 15.5052L21.5335 16.8972L18.4286 18.6898L18.4189 15.044L19.7678 14.2652Z" fill="#5EC363"/>
<path d="M22.9938 15.5108L22.9927 15.6436L22.8043 15.7535L21.1777 14.8611L21.1789 14.7283L21.4626 14.5629L22.9938 15.5108Z" fill="#293240"/>
<path d="M22.9939 15.5115L22.9935 15.6443L22.8047 15.754L22.805 15.6212L22.9939 15.5115Z" fill="#3B475A"/>
<path d="M22.8042 15.6213L22.8038 15.754L21.1777 14.8609L21.1781 14.728L22.8042 15.6213Z" fill="#293240"/>
<path d="M21.4626 14.563L22.9937 15.5114L22.8048 15.6212L21.1787 14.7279L21.4626 14.563Z" fill="#414F65"/>
<path d="M22.0861 9.10358L21.9215 9.00854L17.252 11.7223C17.2497 12.5451 17.8304 13.5511 18.5468 13.9647L23.2164 11.2511L23.217 11.062C22.5914 10.7008 22.0841 9.82219 22.0861 9.10358Z" fill="#4C5C75"/>
<path d="M18.5475 13.7756L23.2171 11.062L23.2165 11.2511L18.5469 13.9647L18.5475 13.7756Z" fill="#111D33"/>
<path d="M17.416 11.8171L22.0856 9.10364C22.0836 9.82225 22.5908 10.7009 23.2165 11.062L18.5469 13.7756C17.9213 13.4146 17.414 12.5358 17.416 11.8171Z" fill="#4C5C75"/>
<path d="M17.252 11.7223L21.9214 9.00854L22.086 9.10358L17.4164 11.8172L17.252 11.7223Z" fill="#111D33"/>
<path d="M17.4164 11.8172C17.4144 12.5359 17.9217 13.4144 18.5473 13.7756L18.5467 13.9647C17.8304 13.5511 17.2495 12.5451 17.252 11.7223L17.4164 11.8172Z" fill="#1D2943"/>
<path d="M7.76267 15.211L7.65145 15.2947L7.02051 14.2966L7.13172 14.2129L7.76267 15.211Z" fill="#29313F"/>
<path d="M7.13186 14.2129L7.02065 14.2966L5.4873 15.1818L5.59852 15.0981L7.13186 14.2129Z" fill="#262E3B"/>
<path d="M7.13198 14.2129L7.76292 15.211L6.22958 16.0963L5.59863 15.0981L7.13198 14.2129Z" fill="#F3516F"/>
<path d="M7.76272 15.2111L7.65151 15.2947L6.11816 16.18L6.22938 16.0963L7.76272 15.2111Z" fill="#7A2938"/>
<path d="M6.22946 16.0963L6.11825 16.18L5.4873 15.1818L5.59852 15.0981L6.22946 16.0963Z" fill="#822B3C"/>
<path d="M8.50905 15.9799L8.39795 16.0634L6.48242 17.1694L6.59364 17.0857L8.50905 15.9799Z" fill="#262E3B"/>
<path d="M7.21999 13.9404L5.30445 15.0463L5.19336 15.13L6.48242 17.1694L6.59351 17.0857L8.50904 15.9799L7.21999 13.9404ZM6.22907 16.0964L5.59813 15.0982L7.13147 14.213L7.76242 15.2111L6.22907 16.0964Z" fill="#4C5C74"/>
<path d="M6.59363 17.0857L6.48242 17.1694L5.19336 15.1299L5.30445 15.0463L6.59363 17.0857Z" fill="#29313F"/>
<path d="M5.30469 15.0463L7.22022 13.9404L8.50928 15.9799L6.59386 17.0857L5.30469 15.0463ZM7.76265 15.2111L7.13171 14.213L5.59836 15.0982L6.22931 16.0964L7.76265 15.2111Z" fill="#4C5C74"/>
<path d="M7.16399 14.8402C7.24562 14.8293 7.3072 14.8625 7.34802 14.9404C7.36263 14.9682 7.37011 14.9976 7.37096 15.0298C7.37241 15.0614 7.36299 15.093 7.34464 15.1249C7.32701 15.1563 7.29633 15.1841 7.25407 15.2086C7.21156 15.233 7.17292 15.2454 7.13814 15.2442C7.10575 15.2444 7.07408 15.2347 7.04734 15.2164C7.02215 15.199 7.00159 15.1756 6.98744 15.1485C6.94663 15.0707 6.95279 14.9984 7.00519 14.9318C6.97737 14.9357 6.94904 14.9306 6.92429 14.9173C6.89857 14.9045 6.87671 14.8822 6.85956 14.8495C6.84664 14.8242 6.83927 14.7965 6.83795 14.7682C6.83653 14.7379 6.84364 14.7078 6.85848 14.6813C6.87393 14.6511 6.8999 14.6261 6.93697 14.6047C6.97392 14.5833 7.00797 14.5737 7.04045 14.5762C7.07161 14.5783 7.09938 14.5872 7.12148 14.6045C7.14491 14.6222 7.1629 14.6431 7.17546 14.6671C7.19261 14.6997 7.19901 14.7311 7.1955 14.7607C7.19321 14.7908 7.18198 14.8172 7.16399 14.8402ZM7.29501 15.0209C7.29473 15.0026 7.2904 14.9846 7.28233 14.9682C7.26325 14.9317 7.23704 14.9106 7.20468 14.9042C7.16992 14.8974 7.13389 14.904 7.10373 14.9225C7.07225 14.9398 7.04813 14.968 7.03587 15.0017C7.02282 15.0343 7.02596 15.0688 7.04504 15.1052C7.05265 15.1197 7.06461 15.1328 7.08079 15.1446C7.09856 15.1567 7.11952 15.1634 7.14104 15.1637C7.16483 15.1649 7.19091 15.1574 7.21869 15.1413C7.24646 15.1254 7.26651 15.1063 7.27822 15.0846C7.28953 15.0653 7.29525 15.0433 7.29501 15.0209ZM6.92368 14.8187C6.93556 14.8418 6.95568 14.8597 6.98008 14.8688C7.00507 14.8781 7.03478 14.8735 7.06799 14.8543C7.10107 14.8352 7.12064 14.8113 7.12655 14.7843C7.13239 14.7583 7.12879 14.731 7.11641 14.7075C7.10276 14.6816 7.08344 14.664 7.05748 14.6565C7.03212 14.6485 7.00435 14.6546 6.97271 14.6729C6.94107 14.691 6.92127 14.7125 6.91414 14.7392C6.90701 14.766 6.91047 14.7944 6.92381 14.8187M6.74026 15.0848C6.82177 15.074 6.88347 15.1072 6.92429 15.185C6.9389 15.2128 6.94639 15.2423 6.94723 15.2744C6.94868 15.306 6.93926 15.3378 6.92163 15.3692C6.90316 15.4011 6.87261 15.4287 6.83022 15.4532C6.78784 15.4778 6.74992 15.4896 6.7143 15.4889C6.68192 15.4891 6.65024 15.4795 6.62349 15.4612C6.59834 15.4437 6.57783 15.4204 6.56371 15.3932C6.5229 15.3155 6.52906 15.243 6.58147 15.1765C6.55364 15.1803 6.52531 15.1753 6.50056 15.162C6.47472 15.1493 6.45298 15.1268 6.43584 15.0941C6.42287 15.0689 6.41546 15.0412 6.4141 15.0129C6.41289 14.9835 6.41977 14.9545 6.43475 14.9259C6.45008 14.8957 6.47617 14.8707 6.51312 14.8493C6.55007 14.828 6.58412 14.8183 6.61661 14.8209C6.64861 14.8224 6.67565 14.8318 6.69775 14.8491C6.72106 14.8669 6.73905 14.8877 6.75173 14.9119C6.76888 14.9445 6.776 14.9753 6.7725 15.0049C6.76972 15.0341 6.75859 15.0619 6.74026 15.0848ZM6.87128 15.2656C6.87099 15.2473 6.86666 15.2293 6.8586 15.2129C6.8394 15.1764 6.81331 15.1552 6.78083 15.1489C6.74614 15.1422 6.71016 15.1486 6.68 15.1671C6.6485 15.1844 6.62437 15.2126 6.61214 15.2464C6.5991 15.279 6.60211 15.3134 6.62131 15.3499C6.6288 15.3644 6.64076 15.3774 6.65706 15.3894C6.67496 15.4011 6.69578 15.4077 6.71719 15.4083C6.74098 15.4095 6.76719 15.402 6.79484 15.386C6.82261 15.37 6.84278 15.351 6.85437 15.3292C6.86568 15.3099 6.87152 15.2879 6.87128 15.2656ZM6.49996 15.0634C6.51186 15.0866 6.53197 15.1044 6.55635 15.1134C6.58134 15.1227 6.61105 15.1181 6.64414 15.0989C6.67734 15.0799 6.69691 15.0561 6.7027 15.0289C6.70851 15.003 6.70491 14.9758 6.69256 14.9522C6.67904 14.9263 6.65971 14.9086 6.63363 14.9012C6.60839 14.8932 6.5805 14.8993 6.54886 14.9176C6.51734 14.9357 6.49742 14.9573 6.4903 14.9839C6.48313 15.0106 6.48659 15.0392 6.49996 15.0634ZM6.31713 15.3291C6.39876 15.3182 6.45962 15.3519 6.50044 15.4297C6.51517 15.4575 6.52254 15.4869 6.52338 15.5191C6.52495 15.5507 6.51541 15.5825 6.49778 15.6138C6.47943 15.6457 6.44876 15.6735 6.40637 15.6979C6.36411 15.7224 6.32607 15.7342 6.29045 15.7335C6.25811 15.7337 6.22648 15.7241 6.19976 15.7059C6.17476 15.6882 6.15445 15.6647 6.14059 15.6374C6.0999 15.5596 6.10521 15.4877 6.15762 15.4212C6.12978 15.4251 6.10145 15.42 6.07671 15.4066C6.05099 15.394 6.02913 15.3715 6.01199 15.3389C5.99904 15.3136 5.99167 15.2859 5.99037 15.2575C5.98916 15.2283 5.99593 15.1993 6.01174 15.1701C6.02624 15.1404 6.05232 15.1154 6.08927 15.094C6.12634 15.0727 6.16039 15.063 6.19288 15.0655C6.22476 15.0671 6.25181 15.0765 6.27475 15.0933C6.29733 15.1116 6.31532 15.1324 6.32788 15.1564C6.34503 15.189 6.35227 15.2199 6.34865 15.2495C6.34595 15.2785 6.33494 15.3061 6.31713 15.3291ZM6.44755 15.5102C6.44726 15.492 6.44293 15.474 6.43487 15.4576C6.41567 15.4211 6.38947 15.3999 6.3571 15.3936C6.32236 15.3867 6.28628 15.3932 6.25615 15.4118C6.22477 15.4292 6.20068 15.4574 6.18829 15.491C6.17525 15.5236 6.17839 15.5581 6.19747 15.5945C6.20507 15.609 6.21703 15.6221 6.23321 15.634C6.25115 15.6458 6.27201 15.6524 6.29347 15.653C6.31725 15.6543 6.34334 15.6467 6.37111 15.6308C6.39888 15.6147 6.41893 15.5956 6.43064 15.5739C6.44224 15.5521 6.44827 15.5311 6.44755 15.5104M6.07623 15.3081C6.08813 15.3312 6.10824 15.349 6.13262 15.3581C6.15762 15.3674 6.1872 15.3628 6.22041 15.3436C6.25422 15.324 6.27318 15.3007 6.27898 15.2736C6.28478 15.2476 6.28119 15.2204 6.26883 15.1969C6.26312 15.1848 6.25501 15.174 6.24501 15.1651C6.23501 15.1563 6.22331 15.1495 6.21063 15.1453C6.18467 15.1378 6.15665 15.144 6.12513 15.1622C6.0935 15.1803 6.07369 15.202 6.06657 15.2286C6.05944 15.2554 6.0629 15.2838 6.07623 15.3081Z" fill="white"/>
<path d="M26.3103 9.86615C26.1992 9.93075 26.018 9.93075 25.9058 9.86615C25.7936 9.8013 25.7931 9.69637 25.9044 9.63176C26.0159 9.56692 26.197 9.56692 26.309 9.63176C26.4212 9.69637 26.4219 9.80142 26.3103 9.86615Z" fill="#4C5C75"/>
<path d="M26.2682 9.82023L26.2314 9.84161L26.1077 9.77036L25.9852 9.84161L25.9479 9.82023L26.0706 9.74887L25.9473 9.67762L25.984 9.65613L26.1076 9.72737L26.2302 9.65613L26.2675 9.67762L26.1448 9.74887L26.2682 9.82023Z" fill="#1D2943"/>
<path d="M22.6483 7.81766C22.5369 7.88238 22.3558 7.88238 22.2437 7.81766C22.1314 7.75281 22.1311 7.648 22.2423 7.58339C22.3537 7.51843 22.5349 7.51843 22.6468 7.58339C22.7591 7.648 22.7597 7.75281 22.6483 7.81766Z" fill="#4C5C75"/>
<path d="M22.6061 7.77177L22.5693 7.79327L22.4458 7.72202L22.3231 7.79327L22.2859 7.77177L22.4084 7.70053L22.2852 7.62928L22.3219 7.60779L22.4455 7.67903L22.5682 7.60779L22.6054 7.62928L22.4827 7.70053L22.6061 7.77177Z" fill="#1D2943"/>
<path d="M29.2137 8.24759C29.1023 8.31231 28.9212 8.31231 28.8092 8.24759C28.6969 8.18274 28.6965 8.07793 28.8077 8.01332C28.9192 7.94836 29.1003 7.94836 29.2122 8.01332C29.3245 8.07793 29.3251 8.18274 29.2137 8.24759Z" fill="#4C5C75"/>
<path d="M29.1716 8.2017L29.1347 8.2232L29.0112 8.15195L28.8885 8.2232L28.8513 8.2017L28.9739 8.13046L28.8506 8.05921L28.8873 8.03772L29.0109 8.10897L29.1336 8.03772L29.1708 8.05921L29.0481 8.13046L29.1716 8.2017Z" fill="#1D2943"/>
<path d="M6.29761 21.5608C6.18639 21.6255 6.00526 21.6255 5.89308 21.5608C5.7809 21.496 5.78041 21.3912 5.89175 21.3266C6.00321 21.2616 6.18434 21.2616 6.29628 21.3266C6.40846 21.3912 6.40906 21.496 6.29761 21.5608Z" fill="#4C5C75"/>
<path d="M6.25456 21.5149L6.21785 21.5364L6.0942 21.4652L5.97151 21.5364L5.93432 21.5149L6.057 21.4437L5.93359 21.3724L5.97042 21.351L6.09396 21.4222L6.21664 21.351L6.25396 21.3724L6.13127 21.4437L6.25456 21.5149Z" fill="#1D2943"/>
<path d="M9.76056 19.5501C9.64934 19.6147 9.46809 19.6147 9.35603 19.5501C9.24373 19.4851 9.24336 19.3803 9.35458 19.3157C9.46604 19.2507 9.64729 19.2507 9.75911 19.3157C9.87141 19.3803 9.87201 19.4851 9.76056 19.55V19.5501Z" fill="#4C5C75"/>
<path d="M9.71745 19.5041L9.68062 19.5256L9.55709 19.4543L9.4344 19.5256L9.39721 19.5041L9.5199 19.4328L9.39648 19.3616L9.43331 19.3401L9.55685 19.4113L9.67953 19.3401L9.71673 19.3616L9.59404 19.4328L9.71745 19.5041Z" fill="#1D2943"/>
<path d="M2.76251 19.4075C2.6513 19.4721 2.47016 19.4721 2.35798 19.4075C2.24568 19.3425 2.24532 19.2377 2.35653 19.1731C2.46811 19.1081 2.64924 19.1081 2.76106 19.1731C2.87336 19.2377 2.87397 19.3425 2.76251 19.4074V19.4075Z" fill="#4C5C75"/>
<path d="M2.72038 19.3615L2.68367 19.383L2.56002 19.3117L2.43733 19.383L2.40014 19.3615L2.52283 19.2902L2.39941 19.219L2.43624 19.1975L2.55978 19.2688L2.68246 19.1975L2.71978 19.219L2.59709 19.2902L2.72038 19.3615Z" fill="#1D2943"/>
<path d="M7.71891 15.5797C7.8224 15.5199 7.96851 15.5721 8.04519 15.696C8.12187 15.8199 8.10001 15.969 7.99653 16.0288C7.89244 16.0888 7.74632 16.0368 7.66964 15.9129C7.59309 15.7888 7.61482 15.6398 7.71891 15.5797ZM7.12166 15.9245C7.22575 15.8644 7.37186 15.9165 7.44854 16.0404C7.52522 16.1644 7.50336 16.3135 7.39927 16.3737C7.29579 16.4333 7.14967 16.3811 7.07312 16.2573C6.99644 16.1332 7.01829 15.9842 7.12166 15.9245ZM6.52513 16.269C6.62862 16.2092 6.77473 16.2612 6.85129 16.3853C6.92797 16.5091 6.90623 16.6582 6.80275 16.7181C6.69926 16.7779 6.55302 16.7257 6.47647 16.6016C6.39979 16.4777 6.42164 16.3287 6.52513 16.269Z" fill="#C9CEE2"/>
</g>
<defs>
<clipPath id="clip0_199_3425">
<rect width="32" height="32" fill="white"/>
</clipPath>
</defs>
</svg>
