<svg width="32" height="33" viewBox="0 0 32 33" fill="none" xmlns="http://www.w3.org/2000/svg">
<rect y="0.987305" width="32" height="32" rx="6" fill="#E8E8E8"/>
<path d="M24.7835 12.337C24.6845 11.9415 24.4829 11.5791 24.199 11.2865C23.9152 10.9938 23.5591 10.7813 23.1668 10.6703C21.7335 10.3203 16.0002 10.3203 16.0002 10.3203C16.0002 10.3203 10.2668 10.3203 8.83348 10.7036C8.44119 10.8146 8.08513 11.0272 7.80127 11.3198C7.51741 11.6125 7.31581 11.9748 7.21682 12.3703C6.9545 13.8249 6.82618 15.3006 6.83348 16.7786C6.82413 18.2678 6.95246 19.7547 7.21682 21.2203C7.32595 21.6035 7.53207 21.9521 7.81527 22.2324C8.09847 22.5127 8.44917 22.7152 8.83348 22.8203C10.2668 23.2036 16.0002 23.2036 16.0002 23.2036C16.0002 23.2036 21.7335 23.2036 23.1668 22.8203C23.5591 22.7093 23.9152 22.4968 24.199 22.2041C24.4829 21.9115 24.6845 21.5491 24.7835 21.1536C25.0438 19.71 25.1721 18.2456 25.1668 16.7786C25.1762 15.2894 25.0478 13.8026 24.7835 12.337Z" stroke="#181818" stroke-width="1.25" stroke-linecap="round" stroke-linejoin="round"/>
<path d="M14.1252 19.5036L18.9168 16.7786L14.1252 14.0536V19.5036Z" stroke="#181818" stroke-width="1.25" stroke-linecap="round" stroke-linejoin="round"/>
</svg>
