<svg width="20" height="21" viewBox="0 0 20 21" fill="none" xmlns="http://www.w3.org/2000/svg">
<path d="M18.7834 6.33698C18.6844 5.94149 18.4828 5.57912 18.1989 5.28648C17.915 4.99385 17.559 4.7813 17.1667 4.67031C15.7334 4.32031 10 4.32031 10 4.32031C10 4.32031 4.2667 4.32031 2.83336 4.70365C2.44107 4.81463 2.08501 5.02718 1.80115 5.31982C1.51729 5.61246 1.31569 5.97482 1.2167 6.37031C0.954374 7.82494 0.826059 9.30057 0.833362 10.7786C0.824012 12.2678 0.952335 13.7547 1.2167 15.2203C1.32583 15.6035 1.53195 15.9521 1.81515 16.2324C2.09835 16.5127 2.44905 16.7152 2.83336 16.8203C4.2667 17.2036 10 17.2036 10 17.2036C10 17.2036 15.7334 17.2036 17.1667 16.8203C17.559 16.7093 17.915 16.4968 18.1989 16.2041C18.4828 15.9115 18.6844 15.5491 18.7834 15.1536C19.0437 13.71 19.172 12.2456 19.1667 10.7786C19.176 9.28944 19.0477 7.80256 18.7834 6.33698Z" stroke="#181818" stroke-width="1.25" stroke-linecap="round" stroke-linejoin="round"/>
<path d="M8.12503 13.5036L12.9167 10.7786L8.12503 8.05365V13.5036Z" stroke="#181818" stroke-width="1.25" stroke-linecap="round" stroke-linejoin="round"/>
</svg>
