<?xml version="1.0" encoding="UTF-8"?>
<!DOCTYPE svg PUBLIC "-//W3C//DTD SVG 1.1//EN" "http://www.w3.org/Graphics/SVG/1.1/DTD/svg11.dtd">
<!-- Creator: CorelDRAW -->
<svg xmlns="http://www.w3.org/2000/svg" xml:space="preserve" width="22.8598mm" height="22.8598mm" version="1.1" style="shape-rendering:geometricPrecision; text-rendering:geometricPrecision; image-rendering:optimizeQuality; fill-rule:evenodd; clip-rule:evenodd"
viewBox="0 0 2285.98 2285.98"
 xmlns:xlink="http://www.w3.org/1999/xlink"
 xmlns:xodm="http://www.corel.com/coreldraw/odm/2003">
 <defs>
  <style type="text/css">
   <![CDATA[
    .fil3 {fill:url(#id0);fill-rule:nonzero}
    .fil12 {fill:url(#id1);fill-rule:nonzero}
    .fil2 {fill:url(#id2);fill-rule:nonzero}
    .fil6 {fill:url(#id3);fill-rule:nonzero}
    .fil16 {fill:url(#id4);fill-rule:nonzero}
    .fil14 {fill:url(#id5);fill-rule:nonzero}
    .fil13 {fill:url(#id6);fill-rule:nonzero}
    .fil4 {fill:url(#id7);fill-rule:nonzero}
    .fil15 {fill:url(#id8);fill-rule:nonzero}
    .fil9 {fill:url(#id9);fill-rule:nonzero}
    .fil1 {fill:url(#id10);fill-rule:nonzero}
    .fil7 {fill:url(#id11);fill-rule:nonzero}
    .fil10 {fill:url(#id12);fill-rule:nonzero}
    .fil5 {fill:url(#id13);fill-rule:nonzero}
    .fil0 {fill:url(#id14);fill-rule:nonzero}
    .fil17 {fill:url(#id15);fill-rule:nonzero}
    .fil11 {fill:url(#id16);fill-rule:nonzero}
    .fil8 {fill:url(#id17);fill-rule:nonzero}
   ]]>
  </style>
  <linearGradient id="id0" gradientUnits="userSpaceOnUse" x1="1195.41" y1="1748.93" x2="1469.71" y2="1748.93">
   <stop offset="0" style="stop-opacity:1; stop-color:#FBAF49"/>
   <stop offset="0.0313725" style="stop-opacity:1; stop-color:#EF9E37"/>
   <stop offset="0.129412" style="stop-opacity:1; stop-color:#E69032"/>
   <stop offset="0.211765" style="stop-opacity:1; stop-color:#F2AF43"/>
   <stop offset="0.309804" style="stop-opacity:1; stop-color:#FFD366"/>
   <stop offset="0.380392" style="stop-opacity:1; stop-color:#FFCD61"/>
   <stop offset="0.490196" style="stop-opacity:1; stop-color:#FEC85D"/>
   <stop offset="0.639216" style="stop-opacity:1; stop-color:#FFCA56"/>
   <stop offset="0.741176" style="stop-opacity:1; stop-color:#FFCE4E"/>
   <stop offset="0.780392" style="stop-opacity:1; stop-color:#FFCF5A"/>
   <stop offset="0.858824" style="stop-opacity:1; stop-color:#FFD366"/>
   <stop offset="0.921569" style="stop-opacity:1; stop-color:#FDC157"/>
   <stop offset="1" style="stop-opacity:1; stop-color:#FBAF49"/>
  </linearGradient>
  <linearGradient id="id1" gradientUnits="userSpaceOnUse" xlink:href="#id0" x1="1261.16" y1="2186.42" x2="1374.43" y2="2186.42">
  </linearGradient>
  <linearGradient id="id2" gradientUnits="userSpaceOnUse" xlink:href="#id0" x1="1017.9" y1="1483.79" x2="1127.06" y2="1483.79">
  </linearGradient>
  <linearGradient id="id3" gradientUnits="userSpaceOnUse" xlink:href="#id0" x1="353.16" y1="588.68" x2="943.56" y2="588.68">
  </linearGradient>
  <linearGradient id="id4" gradientUnits="userSpaceOnUse" xlink:href="#id0" x1="1721.01" y1="2179.55" x2="2124.71" y2="2179.55">
  </linearGradient>
  <linearGradient id="id5" gradientUnits="userSpaceOnUse" xlink:href="#id0" x1="1550.67" y1="2184.71" x2="1625.46" y2="2184.71">
  </linearGradient>
  <linearGradient id="id6" gradientUnits="userSpaceOnUse" xlink:href="#id0" x1="1413.79" y1="2185.74" x2="1506.88" y2="2185.74">
  </linearGradient>
  <linearGradient id="id7" gradientUnits="userSpaceOnUse" xlink:href="#id0" x1="1537.12" y1="1348.96" x2="2035.39" y2="1348.96">
  </linearGradient>
  <linearGradient id="id8" gradientUnits="userSpaceOnUse" xlink:href="#id0" x1="172.69" y1="2179.55" x2="576.39" y2="2179.55">
  </linearGradient>
  <linearGradient id="id9" gradientUnits="userSpaceOnUse" xlink:href="#id0" x1="956.24" y1="2185.74" x2="1049.32" y2="2185.74">
  </linearGradient>
  <linearGradient id="id10" gradientUnits="userSpaceOnUse" xlink:href="#id0" x1="1020.41" y1="1747.69" x2="1244.75" y2="1747.69">
  </linearGradient>
  <linearGradient id="id11" gradientUnits="userSpaceOnUse" xlink:href="#id0" x1="683.48" y1="2184.71" x2="768.52" y2="2184.71">
  </linearGradient>
  <linearGradient id="id12" gradientUnits="userSpaceOnUse" xlink:href="#id0" x1="1085.25" y1="2184.71" x2="1171.84" y2="2184.71">
  </linearGradient>
  <linearGradient id="id13" gradientUnits="userSpaceOnUse" xlink:href="#id0" x1="1941.11" y1="1729.22" x2="2277.52" y2="1729.22">
  </linearGradient>
  <linearGradient id="id14" gradientUnits="userSpaceOnUse" xlink:href="#id0" x1="8.46" y1="1508.63" x2="1161.8" y2="1508.63">
  </linearGradient>
  <linearGradient id="id15" gradientUnits="userSpaceOnUse" xlink:href="#id0" x1="585.97" y1="1067.2" x2="1391.2" y2="1067.2">
  </linearGradient>
  <linearGradient id="id16" gradientUnits="userSpaceOnUse" xlink:href="#id0" x1="1207.76" y1="2184.71" x2="1221.96" y2="2184.71">
  </linearGradient>
  <linearGradient id="id17" gradientUnits="userSpaceOnUse" xlink:href="#id0" x1="803.59" y1="2184.8" x2="916.87" y2="2184.8">
  </linearGradient>
 </defs>
 <g id="Слой_x0020_1">
  <metadata id="CorelCorpID_0Corel-Layer"/>
  <g id="_1235143391040">
   <path class="fil0" d="M588.04 1495.47c22.1,-61.82 39.31,-120.45 50.7,-169.83 27.39,-118.67 42.32,-111.2 42.32,-111.2 -9.95,87.13 23.56,351.68 23.56,351.68 -41.45,-32.79 -80.34,-55.63 -116.58,-70.65zm131.23 -482.38c-69.25,53.46 -170.09,318.31 -200.46,431.29 -2.27,8.43 -5.51,18.3 -9.6,29.33 -171.98,-22.92 -265.61,130.94 -265.61,130.94 102.16,-67 178.3,-89.51 243.38,-77.95 -69.44,151.44 -224.56,396.01 -321.52,362.14 -268.4,-93.74 87.11,-576.45 206.34,-676.5 -354.22,269.03 -494.55,748.2 -215.15,790.03 166.84,24.98 316.77,-216.79 407.54,-443.89 74.96,49.17 142.06,147.22 232.89,272.19 191.35,263.26 364.71,141.26 364.71,141.26 -443.04,14.12 -442.52,-958.84 -442.52,-958.84z"/>
   <path class="fil1" d="M1122.42 1737.35c-11.61,-113.03 -27.1,-146.33 -65.81,-145.55 -46.86,0.93 -54.97,139.36 16.26,250.08 71.23,110.71 171.88,38.71 171.88,38.71 -54.97,16.26 -110.71,-30.2 -122.33,-143.24z"/>
   <path class="fil2" d="M1017.9 1483.79c0,30.15 24.44,54.58 54.58,54.58 30.15,0 54.59,-24.43 54.59,-54.58 0,-30.15 -24.44,-54.58 -54.59,-54.58 -30.14,0 -54.58,24.43 -54.58,54.58z"/>
   <path class="fil3" d="M1359.54 1731.35c-97.55,-96 -21.67,-171.88 12.39,-161.81 34.07,10.06 19.36,51.87 61.17,49.55 41.81,-2.33 48.96,-50.98 15.48,-86.72 -57.29,-61.16 -217.56,-41.03 -226.85,99.1 -10.16,153.2 86.71,147.88 122.33,246.99 38,105.74 -103.75,102.97 -148.66,56.52 0,0 25.56,82.84 137.82,58.84 112.27,-24 123.88,-166.46 26.32,-262.47z"/>
   <path class="fil4" d="M1687.94 822.48c37.96,-1.95 35.04,244.28 16.55,410.7 -10.63,95.65 -44.08,183.26 -70.61,240.48 7.7,-205.7 23.74,-649.63 54.06,-651.18zm-80.77 928.46c-0.02,-0.08 0,-0.27 0.06,-0.54 0,0.5 -0.02,0.69 -0.06,0.54zm124.57 -32.12c122.63,13.63 60.34,282.24 205.35,275.43 91.8,-4.32 98.3,-77.86 98.3,-77.86 -20.44,23.36 -150.4,94.3 -145.01,-46.72 5.84,-152.8 -69.1,-232.6 -145.99,-239.41 -76.88,-6.81 -108.03,51.58 -108.03,51.58 0,0 -0.77,-3.69 -1.84,-10.08 34.13,-96.19 90.78,-256.2 113.76,-342.23 34.07,-127.49 90.52,-654.01 -64.23,-630.65 -154.74,23.35 -122.63,497.32 -122.63,637.46 0,140.15 -12.61,446.64 -21.52,532.49 -8.91,85.85 3.77,126.59 34.02,130.4 16.39,2.06 23.51,-0.12 33.25,-35.15 9.73,-35.04 36.46,-255.05 124.57,-245.26z"/>
   <path class="fil5" d="M2203.77 1682.06c-50.6,5.84 -142.09,122.63 -157.66,102.19 -15.57,-20.43 17.52,-150.85 122.63,-159.61 105.11,-8.76 62.28,-52.55 4.86,-55.47 -57.42,-2.92 -154.44,58.18 -207.3,152.8 -78.83,141.12 40.88,213.13 171.29,70.07 77.43,-84.94 137.23,31.14 65.21,97.32 0,0 68.13,-0.97 73.97,-72.99 5.84,-72.02 -22.39,-140.15 -73,-134.31z"/>
   <path class="fil6" d="M378.62 614.52c12.55,82.19 66.77,220.3 89.03,288.22 22.26,67.91 34.82,135.26 -37.1,235.7 0,0 99.31,-103.3 71.92,-211.16 -27.4,-107.87 -83.9,-232.28 -29.11,-324.74 54.79,-92.46 124.99,-122.71 163.22,-41.66 33.15,70.25 53.44,159.78 89.85,179.41 3.06,9.83 11.17,40 3.88,63.94 0,0 13.37,-22.72 12.81,-44.34 12.08,18.75 22.92,42.93 22.92,42.93 0.25,-30.72 -12.37,-50.14 -20.18,-58.91 37.88,-4.72 83.91,-56.29 102.02,-78.34 29.08,53.74 73.02,56.37 73.02,56.37 -6.55,-3.85 -12.6,-8.11 -18.19,-12.61 4.36,-11.42 8.64,-22.87 12.76,-34.37 6.54,-18.19 6.18,-40.85 17.67,-54.67 17.92,-19.46 11.05,-54.24 -7.72,-84.93 21.3,62.14 7.38,70.75 1.07,84.11 -10.58,27.75 -20.51,55.75 -31.34,83.39 -21.35,-19.42 -34.68,-41.47 -40.88,-53.27 12.18,-12.73 24.38,-25.43 36.67,-38.06 6.92,-7.11 6.71,-13.52 2.03,-21.53 -14.41,-24.68 -31.71,-46.93 -54.86,-64.61 -3.27,-2.49 -18.64,-9.73 -21.5,-12.73 14.08,-11.08 31.52,8.22 35.58,10.59 -4.76,-14.93 -11.1,-32.85 -16.12,-51.11 -5.27,-19.21 -5.38,-62.82 -1.03,-70.46 13.93,5.39 -4.5,57.51 19.93,87.15 3.07,-15.8 4.4,-31.45 9.4,-45.91 4.97,-14.37 24.15,-41.89 26.57,-60.07 0,0 3.95,12.59 0.41,21.9 -15.36,27.11 -19.44,54.97 -16.53,85.37 5.5,-9.96 10.53,-20.26 14.29,-30.97 4.33,-12.32 14.6,-22.47 31.66,-34.52 1.69,9.38 -19.72,21.66 -21.75,38.8 -1.21,10.34 -4.98,20.4 -6.07,32.63 10.32,-10.94 24.66,-30.53 44.14,-38.53 1.71,1.32 -2.02,6.38 -9.53,11.39 -22.55,18.68 -25.08,36.11 -13.37,50.68 -5.4,-20.18 1.9,-34.65 17.21,-47.08 5.77,-4.67 13.62,-10.91 7.94,-20.94 -12.38,7.13 -22.61,9.83 -37.24,23.65 0.84,-4.72 0.21,-12.17 2.54,-15.99 4.63,-7.55 10.79,-14.21 16.25,-21.29 5.71,-7.39 7.79,-15.12 2.91,-23.85 -15.53,16.6 -32.53,17.57 -42.8,50.95 -0.4,-17.79 3.42,-24.67 7.12,-36.03 3.38,-10.38 8.1,-20.65 9.39,-31.29 0.93,-7.64 -2.76,-15.81 -4.42,-23.75 -1.8,-0.14 -1.69,-0.14 -3.49,-0.28 -4.71,11.4 -7.58,23.94 -14.24,34.16 -9.96,15.3 -16.33,31.35 -18.89,49.03 -0.82,5.65 -2.87,20.15 -2.87,20.15 -3.61,-6.56 -6.39,-15.37 -6.74,-21.88 -0.8,-15.16 -0.58,-30.37 -0.97,-45.56 -0.21,-8.42 -4.46,-13.7 -16.3,-16.15 0,0 -5.64,40.13 -3.39,72.48 0.58,8.37 10.63,39.39 10.63,39.39 -14.08,-6.14 -23.06,-1.23 -28.36,5.46 -1.35,1.71 -0.77,4.27 1.16,5.28 31.75,16.75 55.92,40.89 74.51,70.78 5.55,8.94 5.72,16.45 -1.73,23.92 -10.34,10.39 -20.72,20.75 -31.09,31.11l-0.72 -2.23c0,0 -81.04,97.02 -107.29,93.02 0,0 17.12,-66.77 5.13,-92.45 0,0 -22.25,2.85 -61.63,-40.52 -39.38,-43.38 -51.37,-65.64 -58.79,-85.61 -7.42,-19.98 -35.95,-50.23 -83.32,-33.11 0,0 -20.87,-25.69 -14.27,-57.72 0,0 21.69,10.93 53.08,4.08 0,0 -111.86,-5.14 -100.45,-140.4 11.42,-135.26 89.03,-141.54 115.29,-140.97 26.25,0.57 53.83,27.42 46.22,106.16 -9.02,93.42 -52.5,169.5 -52.5,169.5 1.71,-1.14 26.25,-30.25 38.81,-66.77 12.55,-36.53 40.26,-95.54 33.42,-150.9 -6.85,-55.36 -8.31,-88.23 -64.81,-124.76 -56.5,-36.53 -138.12,-72.48 -214.02,9.13 -75.91,81.61 0,267.67 43.37,329.88 0,0 -62.78,114.14 -50.22,196.32z"/>
   <path class="fil7" d="M748.16 2223.81c-3.77,3.53 -8.96,5.3 -15.57,5.3l-34.91 0 0 -39.35 34.91 0c6.73,0 11.95,1.88 15.65,5.65 3.71,3.76 5.56,8.44 5.56,14.02 0,6.05 -1.88,10.85 -5.64,14.38zm-50.48 -83.51l34.22 0c6.16,0 10.98,1.75 14.46,5.23 3.48,3.48 5.22,7.89 5.22,13.25 0,5.37 -1.71,9.76 -5.13,13.18 -3.42,3.43 -8.28,5.14 -14.55,5.14l-34.22 0 0 -36.8zm48.59 42.61c5.59,-1.14 10.33,-4.08 14.21,-8.81 3.87,-4.73 5.81,-10.52 5.81,-17.37 0,-8.67 -2.88,-15.68 -8.64,-21.04 -5.75,-5.37 -13.54,-8.05 -23.35,-8.05l-50.82 0 0 114.14 52.02 0c10.26,0 18.33,-2.83 24.21,-8.47 5.87,-5.65 8.81,-13.09 8.81,-22.33 0,-6.85 -2.2,-13.01 -6.59,-18.49 -4.39,-5.47 -9.61,-8.66 -15.66,-9.58z"/>
   <path class="fil8" d="M890.61 2218.08c-7.7,8.72 -17.82,13.09 -30.37,13.09 -12.66,0 -22.82,-4.37 -30.46,-13.09 -7.65,-8.73 -11.47,-19.82 -11.47,-33.28 0,-13.58 3.82,-24.7 11.47,-33.37 7.64,-8.67 17.8,-13.01 30.46,-13.01 12.55,0 22.67,4.34 30.37,13.01 7.7,8.67 11.55,19.79 11.55,33.37 0,13.46 -3.85,24.55 -11.55,33.28zm-30.37 -92.32c-16.77,0 -30.4,5.59 -40.9,16.77 -10.5,11.18 -15.74,25.27 -15.74,42.27 0,17 5.24,31.08 15.74,42.26 10.5,11.18 24.13,16.77 40.9,16.77 16.65,0 30.25,-5.59 40.81,-16.77 10.55,-11.18 15.83,-25.26 15.83,-42.26 0,-17 -5.28,-31.09 -15.83,-42.27 -10.56,-11.18 -24.16,-16.77 -40.81,-16.77z"/>
   <path class="fil9" d="M1035.12 2197.12c0,10.6 -2.8,18.93 -8.39,24.98 -5.59,6.05 -13.58,9.07 -23.95,9.07 -10.39,0 -18.37,-3.02 -23.96,-9.07 -5.59,-6.05 -8.39,-14.38 -8.39,-24.98l0 -69.48 -14.2 0 0 69.82c0,14.37 3.96,25.7 11.89,33.96 7.93,8.27 19.48,12.41 34.66,12.41 15.17,0 26.71,-4.14 34.64,-12.41 7.93,-8.26 11.9,-19.64 11.9,-34.13l0 -69.65 -14.2 0 0 69.48z"/>
   <polygon class="fil10" points="1085.25,2140.3 1121.36,2140.3 1121.36,2241.78 1135.56,2241.78 1135.56,2140.3 1171.83,2140.3 1171.83,2127.64 1085.25,2127.64 "/>
   <polygon class="fil11" points="1207.77,2241.78 1221.97,2241.78 1221.97,2127.64 1207.77,2127.64 "/>
   <path class="fil12" d="M1349.28 2216.79l-16.09 -17.45 -9.92 8.38 16.25 17.63c-6.39,3.88 -13.63,5.82 -21.73,5.82 -12.66,0 -22.81,-4.37 -30.46,-13.09 -7.64,-8.73 -11.46,-19.82 -11.46,-33.28 0,-13.58 3.82,-24.7 11.46,-33.37 7.65,-8.67 17.8,-13.01 30.46,-13.01 12.55,0 22.67,4.34 30.38,13.01 7.7,8.67 11.55,19.79 11.55,33.37 0,12.77 -3.49,23.44 -10.44,31.99zm9.32 -74.26c-10.55,-11.18 -24.16,-16.77 -40.81,-16.77 -16.77,0 -30.4,5.59 -40.89,16.77 -10.5,11.18 -15.75,25.27 -15.75,42.27 0,16.99 5.25,31.08 15.75,42.26 10.49,11.18 24.12,16.77 40.89,16.77 11.64,0 21.9,-2.85 30.8,-8.56l11.13 11.81 9.92 -8.55 -10.95 -11.64c10.49,-11.07 15.74,-25.1 15.74,-42.09 0,-17 -5.28,-31.09 -15.83,-42.27z"/>
   <path class="fil13" d="M1492.67 2197.12c0,10.6 -2.79,18.93 -8.38,24.98 -5.59,6.05 -13.58,9.07 -23.96,9.07 -10.38,0 -18.37,-3.02 -23.95,-9.07 -5.6,-6.05 -8.39,-14.38 -8.39,-24.98l0 -69.48 -14.2 0 0 69.82c0,14.37 3.96,25.7 11.89,33.96 7.93,8.27 19.48,12.41 34.65,12.41 15.17,0 26.72,-4.14 34.65,-12.41 7.93,-8.26 11.89,-19.64 11.89,-34.13l0 -69.65 -14.2 0 0 69.48z"/>
   <polygon class="fil14" points="1550.68,2241.78 1625.45,2241.78 1625.45,2229.11 1564.88,2229.11 1564.88,2189.76 1624.25,2189.76 1624.25,2177.1 1564.88,2177.1 1564.88,2140.31 1625.45,2140.31 1625.45,2127.64 1550.68,2127.64 "/>
   <polygon class="fil15" points="172.7,2185.62 576.38,2185.62 576.38,2173.48 172.7,2173.48 "/>
   <polygon class="fil16" points="1721.02,2185.62 2124.7,2185.62 2124.7,2173.48 1721.02,2173.48 "/>
   <path class="fil17" d="M761.84 899.64c77.44,-34.69 151.72,-169.7 151.72,-169.7 -88.8,125.94 -154.24,154.6 -154.24,154.6 -99.41,-24.77 -172.64,-219.69 -172.64,-220.75l-0.71 5.66c22.25,138.8 105.18,200.64 145.46,222.95 0.45,1.33 0.91,2.64 1.37,3.96 13.94,100.05 65.01,370.65 242.24,557.45 0,0 -141.62,-185.86 -196.45,-446.35 205.63,423.8 612.62,463.15 612.62,463.15 -432.47,-75.71 -618.49,-542.24 -629.3,-570.26 -0.03,-0.23 -0.05,-0.47 -0.07,-0.71z"/>
  </g>
 </g>
</svg>
