<?xml version="1.0" encoding="UTF-8"?>
<!DOCTYPE svg PUBLIC "-//W3C//DTD SVG 1.1//EN" "http://www.w3.org/Graphics/SVG/1.1/DTD/svg11.dtd">
<!-- Creator: CorelDRAW -->
<svg xmlns="http://www.w3.org/2000/svg" xml:space="preserve" width="22.8598mm" height="22.8598mm" version="1.1" style="shape-rendering:geometricPrecision; text-rendering:geometricPrecision; image-rendering:optimizeQuality; fill-rule:evenodd; clip-rule:evenodd"
viewBox="0 0 2285.98 2285.98"
 xmlns:xlink="http://www.w3.org/1999/xlink"
 xmlns:xodm="http://www.corel.com/coreldraw/odm/2003">
 <defs>
  <style type="text/css">
   <![CDATA[
    .str0 {stroke:#373435;stroke-width:20;stroke-miterlimit:22.9256}
    .fil5 {fill:none}
    .fil3 {fill:none;fill-rule:nonzero}
    .fil1 {fill:#FEFEFE}
    .fil4 {fill:#29292A}
    .fil2 {fill:#373435;fill-rule:nonzero}
    .fil7 {fill:#C63338;fill-rule:nonzero}
    .fil0 {fill:#29292A;fill-rule:nonzero}
    .fil6 {fill:url(#id6)}
   ]]>
  </style>
     <clipPath id="id0" style="clip-rule:nonzero">
      <path d="M740.19 1057.77l145.77 0 0 61.91c14.08,-26.94 28.56,-45.46 43.42,-55.57 15,-10.12 33.38,-15.11 55.28,-15.11 23.08,0 48.25,6.7 75.5,20.1l-48.24 103.22c-18.39,-7.19 -32.99,-10.72 -43.68,-10.72 -20.34,0 -36.25,7.92 -47.47,23.64 -16.03,22.17 -24.12,63.73 -24.12,124.54l0 127.46 -156.46 0 0 -379.47zm823.65 225.93l-312.15 0c2.87,23.27 9.52,40.7 20.34,52.16 15,16.45 34.69,24.61 58.94,24.61 15.38,0 29.99,-3.53 43.68,-10.6 8.47,-4.51 17.6,-12.43 27.25,-23.76l153.33 13.16c-23.47,38.02 -51.76,65.44 -84.88,81.89 -33.12,16.57 -80.71,24.86 -142.64,24.86 -53.85,0 -96.1,-7.07 -127,-21.33 -30.77,-14.13 -56.33,-36.68 -76.67,-67.51 -20.2,-30.95 -30.38,-67.26 -30.38,-108.94 0,-59.35 20.34,-107.48 61.02,-144.16 40.56,-36.68 96.75,-55.08 168.34,-55.08 58.15,0 103.91,8.28 137.55,24.73 33.64,16.46 59.33,40.22 76.93,71.54 17.6,31.19 26.34,71.89 26.34,121.98l0 16.45zm-158.03 -69.46c-3,-28.27 -11.21,-48.5 -24.38,-60.69 -13.17,-12.18 -30.38,-18.28 -51.9,-18.28 -24.77,0 -44.59,9.27 -59.45,27.67 -9.39,11.45 -15.39,28.51 -18,51.3l153.73 0z"/>
     </clipPath>
     <clipPath id="id1">
      <path d="M406.88 704.19l279.34 734.33 -166.69 0 -25.72 -83.8 -178.55 -0.1 -24.78 83.9 -163.48 0 279.88 -734.33zm55.93 538.08l-112.41 0 56.21 -179.61 56.2 179.61z"/>
     </clipPath>
     <clipPath id="id2">
      <path d="M1791.21 1106.23c14.44,9.54 30.36,20.54 46.42,32.01 16.06,11.48 32.27,23.43 49.31,36.41 17.03,12.98 34.9,27 51.35,40.46 16.46,13.46 31.51,26.36 48.4,41.62 16.89,15.26 35.62,32.87 56.38,53.61 20.76,20.73 43.54,44.59 60.43,62.89 16.89,18.29 27.89,31.03 36.22,40.98 8.34,9.96 14,17.13 16.83,20.72 2.84,3.59 2.84,3.59 1.79,3.59 -1.04,0 -3.13,0 -30.76,0 -27.63,0 -80.81,0 -107.39,0 -26.59,0 -26.59,0 -26.65,0 -0.07,0 -0.19,0 -2.88,-3.15 -2.68,-3.14 -7.93,-9.42 -17.9,-20.18 -9.96,-10.75 -24.64,-25.96 -40.13,-41.3 -15.48,-15.34 -31.78,-30.81 -47.82,-45.57 -16.04,-14.76 -31.84,-28.82 -46.08,-41.08 -14.24,-12.26 -26.94,-22.72 -40.6,-33.72 -13.67,-11 -28.31,-22.53 -43.67,-34.36 -15.36,-11.82 -31.44,-23.94 -47.3,-35.6 -15.86,-11.66 -31.49,-22.87 -47.29,-33.89 -15.79,-11.02 -31.75,-21.85 -49.03,-33.1 -17.29,-11.24 -35.89,-22.9 -53.55,-33.88 -17.66,-10.98 -34.36,-21.27 -49.33,-30.22 -14.97,-8.96 -28.2,-16.56 -42.92,-24.79 -14.72,-8.23 -30.93,-17.08 -45.81,-25.08 -14.89,-8 -28.45,-15.16 -44.82,-23.65 -16.38,-8.5 -35.56,-18.34 -57.33,-29.05 -21.77,-10.71 -46.13,-22.29 -68.85,-32.69 -22.72,-10.4 -43.81,-19.62 -67.6,-29.85 -23.8,-10.23 -50.3,-21.48 -76.54,-32.03 -26.23,-10.54 -52.2,-20.38 -75.73,-29.04 -23.52,-8.66 -44.61,-16.15 -69.69,-24.73 -25.08,-8.58 -54.15,-18.25 -81.75,-27.1 -27.6,-8.85 -53.73,-16.87 -81.18,-24.79 -27.46,-7.92 -56.24,-15.74 -81.26,-22.35 -25.01,-6.62 -46.26,-12.03 -69.4,-17.53 -23.13,-5.5 -48.15,-11.08 -74.94,-16.89 -26.8,-5.81 -55.37,-11.85 -82.93,-17.24 -27.56,-5.4 -54.1,-10.16 -67.27,-12.6 -13.17,-2.44 -12.96,-2.56 -8.74,-2.77 4.21,-0.2 12.44,-0.49 34.4,1.39 21.95,1.88 57.64,5.93 93.44,10.71 35.81,4.77 71.74,10.27 102.11,15.21 30.37,4.95 55.18,9.33 84.71,14.91 29.52,5.58 63.76,12.36 93.63,18.73 29.87,6.37 55.39,12.32 84.14,19.35 28.76,7.03 60.77,15.14 90.04,22.93 29.27,7.8 55.82,15.28 85.24,23.94 29.42,8.66 61.71,18.5 89.7,27.56 28,9.06 51.69,17.33 77.68,26.67 25.99,9.35 54.27,19.76 81.74,30.27 27.48,10.5 54.15,21.08 78.75,31.38 24.6,10.3 47.14,20.3 72.01,31.78 24.87,11.47 52.08,24.41 76.95,36.74 24.87,12.32 47.41,24.02 70.42,36.44 23.01,12.43 46.49,25.58 67.35,37.73 20.86,12.16 39.1,23.32 54.7,32.95 15.6,9.62 28.56,17.71 43,27.25z"/>
     </clipPath>
     <clipPath id="id3">
      <path d="M1648.78 1335.5c11.72,-15.17 29.79,-38.7 43.23,-56.06 13.44,-17.37 22.24,-28.58 26.65,-34.18 4.4,-5.6 4.4,-5.6 6.68,-3.95 2.27,1.66 6.82,4.96 14.92,11.21 8.11,6.24 19.77,15.42 34.4,27.37 14.64,11.95 32.26,26.67 42.45,35.27 10.19,8.6 12.96,11.08 14.35,12.32 1.38,1.24 1.38,1.24 0.43,2.48 -0.95,1.24 -2.85,3.72 -8.54,11.13 -5.68,7.4 -15.15,19.72 -28.47,36.78 -13.31,17.06 -30.47,38.85 -39.05,49.75 -8.58,10.9 -8.58,10.9 -8.74,10.9 -0.17,0 -0.5,0 -2.36,0 -1.86,0 -5.25,0 -34.55,0 -29.3,0 -84.49,0 -112.16,0 -27.66,0 -27.78,0 -27.54,-0.48 0.25,-0.48 0.87,-1.43 4.76,-6.67 3.89,-5.23 11.04,-14.74 20.1,-26.63 9.05,-11.88 20.01,-26.15 28.17,-36.69 8.17,-10.55 13.55,-17.37 25.27,-32.55z"/>
     </clipPath>
     <clipPath id="id4">
      <path d="M1934.39 1049.52c29.34,0 72.21,0.09 93.65,0.13 21.44,0.04 21.44,0.04 21.09,0.43 -0.35,0.39 -1.05,1.18 -7.4,9.32 -6.35,8.15 -18.34,23.66 -34.69,44.74 -16.35,21.09 -37.07,47.76 -47.43,61.1 -10.35,13.33 -10.35,13.33 -10.85,12.84 -0.5,-0.5 -1.49,-1.49 -5.31,-4.57 -3.83,-3.08 -10.49,-8.25 -24.42,-18.86 -13.93,-10.6 -35.15,-26.65 -50.2,-37.73 -15.05,-11.08 -23.94,-17.2 -28.42,-20.28 -4.49,-3.08 -4.58,-3.12 -3.85,-4.05 0.72,-0.93 2.25,-2.75 7.9,-10.03 5.64,-7.28 15.4,-20.01 20.28,-26.38 4.88,-6.37 4.88,-6.37 5.52,-6.39 0.64,-0.02 1.92,-0.06 10.46,-0.12 8.54,-0.06 24.33,-0.15 53.67,-0.15z"/>
     </clipPath>
    <clipPath id="id5" style="clip-rule:nonzero">
     <path d="M637.83 1574.1l30.18 0c10.75,-0.57 16.11,-6.08 16.11,-16.52 0,-9.76 -5.43,-14.64 -16.31,-14.68l-29.98 0 0 31.2zm0 17.68l0 31.63 -19.72 0 0 -98.4 48.42 0c11.75,0 20.53,2.56 26.4,7.72 6.38,5.54 9.55,14.1 9.55,25.65 0,11.54 -3.12,20.07 -9.41,25.62 -5.73,5.01 -14.45,7.58 -26.14,7.72l-29.1 0.06zm164.71 -22.95c3.16,-0.09 5.94,-0.55 8.32,-1.36 4.8,-1.57 7.19,-5.29 7.19,-11.17 0,-6.47 -2.48,-10.47 -7.45,-12.06 -2.4,-0.72 -5.18,-1.14 -8.34,-1.23l-31.95 0 0 25.82 32.23 0zm16.52 13.73c6.41,4.12 11.65,10.77 15.72,20 1.13,2.52 2.17,4.78 3.17,6.77 0.37,0.76 2.33,5.46 5.89,14.08l-21.19 0c-1.39,-3.4 -2.16,-5.16 -2.22,-5.3l-0.07 0c-0.6,-1.15 -1.76,-3.72 -3.47,-7.65 -4.97,-11.19 -9.71,-18.51 -14.22,-22 -1.84,-1.44 -4.78,-2.15 -8.8,-2.15 -6.18,0.02 -14.03,0.04 -23.56,0.04l0 37.06 -19.71 0 0 -98.4 44.29 0c13.49,0.09 23.5,2.24 30,6.42 8.09,5.25 12.11,13.62 12.11,25.13 0,10.26 -3.98,18 -11.97,23.23 -1.6,1.04 -3.56,1.96 -5.97,2.77zm169.13 -8.32c0,18.24 -4.3,31.48 -12.92,39.76 -8.23,7.91 -21.13,11.83 -38.74,11.83 -17.66,0 -30.59,-3.92 -38.81,-11.83 -8.58,-8.28 -12.86,-21.52 -12.86,-39.76 0,-17.66 3.93,-30.58 11.84,-38.81 8.27,-8.58 21.54,-12.85 39.83,-12.85 17.61,0 30.51,3.95 38.74,11.83 8.62,8.28 12.92,21.55 12.92,39.83zm-26.54 25.59c4.56,-4.37 6.84,-12.9 6.84,-25.59 0,-12.74 -2.28,-21.29 -6.84,-25.66 -4.39,-4.25 -12.76,-6.38 -25.12,-6.38 -12.74,0 -21.29,2.29 -25.66,6.85 -4.21,4.39 -6.31,12.78 -6.31,25.19 0,12.69 2.26,21.22 6.77,25.59 4.39,4.25 12.78,6.38 25.2,6.38 12.36,0 20.73,-2.13 25.12,-6.38zm150.17 -56.82l-52.81 0 0 22.03 43.34 0 0 17.66 -43.34 0 0 40.71 -19.72 0 0 -98.4 72.53 0 0 18zm122.53 0l-55.52 0 0 22.03 46.04 0 0 17.66 -46.04 0 0 22.7 55.52 0 0 18.01 -75.24 0 0 -98.4 75.24 0 0 18zm66.05 52.08c0.42,8.09 8.97,12.25 25.68,12.46 10.57,0 17.48,-1.11 20.79,-3.35 3.28,-2.22 4.94,-5.27 4.94,-9.11l0 -2.84c-0.14,-3.42 -1.36,-5.76 -3.65,-6.96 -4.11,-2.22 -12.44,-3.54 -24.94,-3.93 -12.51,-0.23 -21.98,-2.06 -28.43,-5.5 -5.11,-2.75 -8.67,-5.62 -10.71,-8.6 -2.26,-3.33 -3.37,-7.97 -3.37,-13.94 0,-11.3 4.35,-19.46 13.06,-24.52 7.26,-4.14 18.03,-6.22 32.31,-6.22 13.71,0 24.16,1.92 31.35,5.75 9.38,5.02 14.08,13.34 14.08,24.99l-19.7 0c0,-3.83 -1.22,-6.42 -3.65,-7.72 -4.16,-2.26 -11.51,-3.4 -22.08,-3.4 -10.84,0 -18.3,1.21 -22.42,3.61 -2.17,1.25 -3.26,3.84 -3.26,7.72 0.05,3.38 1.25,5.71 3.59,6.96 4.16,2.22 12.48,3.42 24.98,3.6 12.46,0.17 21.96,1.99 28.46,5.48 8.85,4.74 13.52,12.39 14.01,22.95 0.04,0.86 0.07,1.72 0.07,2.57 0,11.65 -4.7,20.02 -14.08,25.06 -7.19,3.79 -17.64,5.68 -31.35,5.68 -14.28,0 -25.05,-2.05 -32.31,-6.21 -8.71,-5.07 -13.06,-13.22 -13.06,-24.53l19.69 0zm138.53 0c0.41,8.09 8.96,12.25 25.68,12.46 10.56,0 17.47,-1.11 20.78,-3.35 3.28,-2.22 4.94,-5.27 4.94,-9.11l0 -2.84c-0.14,-3.42 -1.36,-5.76 -3.65,-6.96 -4.11,-2.22 -12.44,-3.54 -24.94,-3.93 -12.51,-0.23 -21.98,-2.06 -28.43,-5.5 -5.11,-2.75 -8.67,-5.62 -10.7,-8.6 -2.27,-3.33 -3.38,-7.97 -3.38,-13.94 0,-11.3 4.35,-19.46 13.06,-24.52 7.26,-4.14 18.03,-6.22 32.32,-6.22 13.7,0 24.15,1.92 31.34,5.75 9.38,5.02 14.08,13.34 14.08,24.99l-19.7 0c0,-3.83 -1.22,-6.42 -3.65,-7.72 -4.16,-2.26 -11.51,-3.4 -22.07,-3.4 -10.85,0 -18.31,1.21 -22.43,3.61 -2.17,1.25 -3.25,3.84 -3.25,7.72 0.04,3.38 1.24,5.71 3.58,6.96 4.16,2.22 12.48,3.42 24.98,3.6 12.46,0.17 21.96,1.99 28.46,5.48 8.85,4.74 13.52,12.39 14.01,22.95 0.04,0.86 0.07,1.72 0.07,2.57 0,11.65 -4.7,20.02 -14.08,25.06 -7.19,3.79 -17.64,5.68 -31.34,5.68 -14.29,0 -25.06,-2.05 -32.32,-6.21 -8.71,-5.07 -13.06,-13.22 -13.06,-24.53l19.7 0zm141.91 -70.08l0 98.4 -19.71 0 0 -98.4 19.71 0zm154.43 49.23c0,18.24 -4.3,31.48 -12.92,39.76 -8.23,7.91 -21.13,11.83 -38.74,11.83 -17.67,0 -30.59,-3.92 -38.81,-11.83 -8.58,-8.28 -12.86,-21.52 -12.86,-39.76 0,-17.66 3.93,-30.58 11.84,-38.81 8.27,-8.58 21.54,-12.85 39.83,-12.85 17.61,0 30.51,3.95 38.74,11.83 8.62,8.28 12.92,21.55 12.92,39.83zm-26.54 25.59c4.56,-4.37 6.84,-12.9 6.84,-25.59 0,-12.74 -2.28,-21.29 -6.84,-25.66 -4.39,-4.25 -12.76,-6.38 -25.12,-6.38 -12.74,0 -21.29,2.29 -25.66,6.85 -4.21,4.39 -6.31,12.78 -6.31,25.19 0,12.69 2.26,21.22 6.77,25.59 4.39,4.25 12.78,6.38 25.2,6.38 12.36,0 20.73,-2.13 25.12,-6.38zm77.64 23.58l0 -98.4 22.49 0 56.47 70.5 0 -70.5 19.65 0 0 98.4 -22.43 0 -56.47 -70.5 0 70.5 -19.71 0zm141.57 0l44.36 -98.4 21.61 0 44.08 98.4 -21.54 0 -11.31 -25.2 -44.28 0 -11.38 25.2 -21.54 0zm69.76 -41.79l-14.63 -32.78 -14.7 32.78 29.33 0zm102.97 -56.61l0 80.39 58.3 0 0 17.94 -78.02 0.07 0 -98.4 19.72 0z"/>
    </clipPath>
  <linearGradient id="id6" gradientUnits="userSpaceOnUse" x1="2158.98" y1="1049.33" x2="408.63" y2="1049.33">
   <stop offset="0" style="stop-opacity:1; stop-color:#792829"/>
   <stop offset="0.129412" style="stop-opacity:1; stop-color:#B32F34"/>
   <stop offset="0.34902" style="stop-opacity:1; stop-color:#EE373F"/>
   <stop offset="0.52549" style="stop-opacity:1; stop-color:#BD3136"/>
   <stop offset="0.819608" style="stop-opacity:1; stop-color:#8C2B2C"/>
   <stop offset="0.886275" style="stop-opacity:1; stop-color:#BD3135"/>
   <stop offset="1" style="stop-opacity:1; stop-color:#EE373F"/>
  </linearGradient>
 </defs>
 <g id="Слой_x0020_1">
  <metadata id="CorelCorpID_0Corel-Layer"/>
  <g id="_2631534667856">
   <g>
    <path class="fil0" d="M740.19 1057.77l145.77 0 0 61.91c14.08,-26.94 28.56,-45.46 43.42,-55.57 15,-10.12 33.38,-15.11 55.28,-15.11 23.08,0 48.25,6.7 75.5,20.1l-48.24 103.22c-18.39,-7.19 -32.99,-10.72 -43.68,-10.72 -20.34,0 -36.25,7.92 -47.47,23.64 -16.03,22.17 -24.12,63.73 -24.12,124.54l0 127.46 -156.46 0 0 -379.47zm823.65 225.93l-312.15 0c2.87,23.27 9.52,40.7 20.34,52.16 15,16.45 34.69,24.61 58.94,24.61 15.38,0 29.99,-3.53 43.68,-10.6 8.47,-4.51 17.6,-12.43 27.25,-23.76l153.33 13.16c-23.47,38.02 -51.76,65.44 -84.88,81.89 -33.12,16.57 -80.71,24.86 -142.64,24.86 -53.85,0 -96.1,-7.07 -127,-21.33 -30.77,-14.13 -56.33,-36.68 -76.67,-67.51 -20.2,-30.95 -30.38,-67.26 -30.38,-108.94 0,-59.35 20.34,-107.48 61.02,-144.16 40.56,-36.68 96.75,-55.08 168.34,-55.08 58.15,0 103.91,8.28 137.55,24.73 33.64,16.46 59.33,40.22 76.93,71.54 17.6,31.19 26.34,71.89 26.34,121.98l0 16.45zm-158.03 -69.46c-3,-28.27 -11.21,-48.5 -24.38,-60.69 -13.17,-12.18 -30.38,-18.28 -51.9,-18.28 -24.77,0 -44.59,9.27 -59.45,27.67 -9.39,11.45 -15.39,28.51 -18,51.3l153.73 0z"/>
    <g style="clip-path:url(#id0)">
     <g>
      <g>
       <path id="_1" class="fil1 str0" d="M-1024.71 3060.21l1129.93 0 0 390.01 -1129.93 0c-20,0 -36.35,-16.35 -36.35,-36.35l0 -317.31c0,-20 16.35,-36.35 36.35,-36.35z"/>
       <g>
        <g>
         <path class="fil2" d="M-821.35 3120.78l-59.03 0 -58.1 35.54 0 54.37 51.67 -30.89 1.35 0 0 177.07 64.11 0 0 -236.09zm151.21 242.53c64.22,0.11 104.09,-45.88 104.25,-124 0.11,-77.69 -40.03,-121.73 -104.25,-121.73 -64.33,0 -103.98,43.77 -104.2,121.73 -0.22,77.8 39.87,123.89 104.2,124zm0 -52.1c-22.13,0 -38.03,-22.23 -37.82,-71.9 0.27,-48.53 15.69,-70.11 37.82,-70.11 22.13,0 37.71,21.58 37.81,70.11 0.11,49.67 -15.68,71.9 -37.81,71.9z"/>
        </g>
        <g>
         <path class="fil2" d="M-485.9 3313.84l-0.32 -22.43 3.71 0 51.65 -52.59 22.44 0 -55.04 55.66 -1.52 0 -20.92 19.36zm-16.91 43.03l0 -157.4 18.14 0 0 157.4 -18.14 0zm75.01 0l-46.12 -58.39 12.91 -12.62 56.26 71.01 -23.05 0zm85.45 46.71c-8.76,0 -16.27,-1.08 -22.58,-3.32 -6.31,-2.24 -11.54,-5.16 -15.72,-8.76 -4.19,-3.61 -7.51,-7.47 -9.96,-11.58l14.46 -10.14c1.63,2.17 3.72,4.62 6.21,7.43 2.52,2.78 5.98,5.2 10.35,7.29 4.36,2.09 10.14,3.1 17.24,3.1 9.52,0 17.38,-2.31 23.59,-6.89 6.2,-4.62 9.3,-11.86 9.3,-21.67l0 -23.99 -1.51 0c-1.34,2.17 -3.25,4.8 -5.66,7.94 -2.42,3.17 -5.92,5.95 -10.46,8.4 -4.55,2.42 -10.65,3.64 -18.32,3.64 -9.53,0 -18.07,-2.27 -25.65,-6.78 -7.54,-4.51 -13.53,-11.03 -17.89,-19.65 -4.36,-8.62 -6.57,-19.08 -6.57,-31.35 0,-12.11 2.13,-22.65 6.39,-31.63 4.26,-8.98 10.17,-15.98 17.75,-20.92 7.57,-4.94 16.33,-7.39 26.29,-7.39 7.68,0 13.77,1.26 18.32,3.79 4.51,2.52 8.01,5.41 10.46,8.62 2.41,3.21 4.29,5.8 5.63,7.86l1.83 0 0 -18.76 17.53 0 0 121.44c0,10.14 -2.3,18.4 -6.88,24.78 -4.59,6.39 -10.72,11.08 -18.43,14.07 -7.73,2.99 -16.27,4.47 -25.72,4.47zm-0.62 -64.85c7.29,0 13.42,-1.66 18.47,-4.97 5.02,-3.36 8.84,-8.12 11.44,-14.4 2.59,-6.24 3.93,-13.71 3.93,-22.43 0,-8.52 -1.3,-16.02 -3.86,-22.51 -2.56,-6.52 -6.35,-11.61 -11.37,-15.29 -5.01,-3.68 -11.21,-5.55 -18.61,-5.55 -7.67,0 -14.06,1.94 -19.14,5.84 -5.13,3.89 -8.95,9.13 -11.48,15.69 -2.52,6.56 -3.78,13.81 -3.78,21.82 0,8.18 1.3,15.44 3.85,21.71 2.6,6.28 6.46,11.18 11.55,14.75 5.08,3.57 11.43,5.34 19,5.34z"/>
        </g>
       </g>
      </g>
     </g>
    </g>
    <path class="fil3" d="M740.19 1057.77l145.77 0 0 61.91c14.08,-26.94 28.56,-45.46 43.42,-55.57 15,-10.12 33.38,-15.11 55.28,-15.11 23.08,0 48.25,6.7 75.5,20.1l-48.24 103.22c-18.39,-7.19 -32.99,-10.72 -43.68,-10.72 -20.34,0 -36.25,7.92 -47.47,23.64 -16.03,22.17 -24.12,63.73 -24.12,124.54l0 127.46 -156.46 0 0 -379.47zm823.65 225.93l-312.15 0c2.87,23.27 9.52,40.7 20.34,52.16 15,16.45 34.69,24.61 58.94,24.61 15.38,0 29.99,-3.53 43.68,-10.6 8.47,-4.51 17.6,-12.43 27.25,-23.76l153.33 13.16c-23.47,38.02 -51.76,65.44 -84.88,81.89 -33.12,16.57 -80.71,24.86 -142.64,24.86 -53.85,0 -96.1,-7.07 -127,-21.33 -30.77,-14.13 -56.33,-36.68 -76.67,-67.51 -20.2,-30.95 -30.38,-67.26 -30.38,-108.94 0,-59.35 20.34,-107.48 61.02,-144.16 40.56,-36.68 96.75,-55.08 168.34,-55.08 58.15,0 103.91,8.28 137.55,24.73 33.64,16.46 59.33,40.22 76.93,71.54 17.6,31.19 26.34,71.89 26.34,121.98l0 16.45zm-158.03 -69.46c-3,-28.27 -11.21,-48.5 -24.38,-60.69 -13.17,-12.18 -30.38,-18.28 -51.9,-18.28 -24.77,0 -44.59,9.27 -59.45,27.67 -9.39,11.45 -15.39,28.51 -18,51.3l153.73 0z"/>
    <path class="fil4" d="M406.88 704.19l279.34 734.33 -166.69 0 -25.72 -83.8 -178.55 -0.1 -24.78 83.9 -163.48 0 279.88 -734.33zm55.93 538.08l-112.41 0 56.21 -179.61 56.2 179.61z"/>
    <g style="clip-path:url(#id1)">
     <g>
      <g>
       <path id="_1_0" class="fil1 str0" d="M-1024.71 3060.21l1129.93 0 0 390.01 -1129.93 0c-20,0 -36.35,-16.35 -36.35,-36.35l0 -317.31c0,-20 16.35,-36.35 36.35,-36.35z"/>
       <g>
        <g>
         <path class="fil2" d="M-821.35 3120.78l-59.03 0 -58.1 35.54 0 54.37 51.67 -30.89 1.35 0 0 177.07 64.11 0 0 -236.09zm151.21 242.53c64.22,0.11 104.09,-45.88 104.25,-124 0.11,-77.69 -40.03,-121.73 -104.25,-121.73 -64.33,0 -103.98,43.77 -104.2,121.73 -0.22,77.8 39.87,123.89 104.2,124zm0 -52.1c-22.13,0 -38.03,-22.23 -37.82,-71.9 0.27,-48.53 15.69,-70.11 37.82,-70.11 22.13,0 37.71,21.58 37.81,70.11 0.11,49.67 -15.68,71.9 -37.81,71.9z"/>
        </g>
        <g>
         <path class="fil2" d="M-485.9 3313.84l-0.32 -22.43 3.71 0 51.65 -52.59 22.44 0 -55.04 55.66 -1.52 0 -20.92 19.36zm-16.91 43.03l0 -157.4 18.14 0 0 157.4 -18.14 0zm75.01 0l-46.12 -58.39 12.91 -12.62 56.26 71.01 -23.05 0zm85.45 46.71c-8.76,0 -16.27,-1.08 -22.58,-3.32 -6.31,-2.24 -11.54,-5.16 -15.72,-8.76 -4.19,-3.61 -7.51,-7.47 -9.96,-11.58l14.46 -10.14c1.63,2.17 3.72,4.62 6.21,7.43 2.52,2.78 5.98,5.2 10.35,7.29 4.36,2.09 10.14,3.1 17.24,3.1 9.52,0 17.38,-2.31 23.59,-6.89 6.2,-4.62 9.3,-11.86 9.3,-21.67l0 -23.99 -1.51 0c-1.34,2.17 -3.25,4.8 -5.66,7.94 -2.42,3.17 -5.92,5.95 -10.46,8.4 -4.55,2.42 -10.65,3.64 -18.32,3.64 -9.53,0 -18.07,-2.27 -25.65,-6.78 -7.54,-4.51 -13.53,-11.03 -17.89,-19.65 -4.36,-8.62 -6.57,-19.08 -6.57,-31.35 0,-12.11 2.13,-22.65 6.39,-31.63 4.26,-8.98 10.17,-15.98 17.75,-20.92 7.57,-4.94 16.33,-7.39 26.29,-7.39 7.68,0 13.77,1.26 18.32,3.79 4.51,2.52 8.01,5.41 10.46,8.62 2.41,3.21 4.29,5.8 5.63,7.86l1.83 0 0 -18.76 17.53 0 0 121.44c0,10.14 -2.3,18.4 -6.88,24.78 -4.59,6.39 -10.72,11.08 -18.43,14.07 -7.73,2.99 -16.27,4.47 -25.72,4.47zm-0.62 -64.85c7.29,0 13.42,-1.66 18.47,-4.97 5.02,-3.36 8.84,-8.12 11.44,-14.4 2.59,-6.24 3.93,-13.71 3.93,-22.43 0,-8.52 -1.3,-16.02 -3.86,-22.51 -2.56,-6.52 -6.35,-11.61 -11.37,-15.29 -5.01,-3.68 -11.21,-5.55 -18.61,-5.55 -7.67,0 -14.06,1.94 -19.14,5.84 -5.13,3.89 -8.95,9.13 -11.48,15.69 -2.52,6.56 -3.78,13.81 -3.78,21.82 0,8.18 1.3,15.44 3.85,21.71 2.6,6.28 6.46,11.18 11.55,14.75 5.08,3.57 11.43,5.34 19,5.34z"/>
        </g>
       </g>
      </g>
     </g>
    </g>
    <path class="fil5" d="M406.88 704.19l279.34 734.33 -166.69 0 -25.72 -83.8 -178.55 -0.1 -24.78 83.9 -163.48 0 279.88 -734.33zm55.93 538.08l-112.41 0 56.21 -179.61 56.2 179.61z"/>
    <path class="fil6" d="M1791.21 1106.23c14.44,9.54 30.36,20.54 46.42,32.01 16.06,11.48 32.27,23.43 49.31,36.41 17.03,12.98 34.9,27 51.35,40.46 16.46,13.46 31.51,26.36 48.4,41.62 16.89,15.26 35.62,32.87 56.38,53.61 20.76,20.73 43.54,44.59 60.43,62.89 16.89,18.29 27.89,31.03 36.22,40.98 8.34,9.96 14,17.13 16.83,20.72 2.84,3.59 2.84,3.59 1.79,3.59 -1.04,0 -3.13,0 -30.76,0 -27.63,0 -80.81,0 -107.39,0 -26.59,0 -26.59,0 -26.65,0 -0.07,0 -0.19,0 -2.88,-3.15 -2.68,-3.14 -7.93,-9.42 -17.9,-20.18 -9.96,-10.75 -24.64,-25.96 -40.13,-41.3 -15.48,-15.34 -31.78,-30.81 -47.82,-45.57 -16.04,-14.76 -31.84,-28.82 -46.08,-41.08 -14.24,-12.26 -26.94,-22.72 -40.6,-33.72 -13.67,-11 -28.31,-22.53 -43.67,-34.36 -15.36,-11.82 -31.44,-23.94 -47.3,-35.6 -15.86,-11.66 -31.49,-22.87 -47.29,-33.89 -15.79,-11.02 -31.75,-21.85 -49.03,-33.1 -17.29,-11.24 -35.89,-22.9 -53.55,-33.88 -17.66,-10.98 -34.36,-21.27 -49.33,-30.22 -14.97,-8.96 -28.2,-16.56 -42.92,-24.79 -14.72,-8.23 -30.93,-17.08 -45.81,-25.08 -14.89,-8 -28.45,-15.16 -44.82,-23.65 -16.38,-8.5 -35.56,-18.34 -57.33,-29.05 -21.77,-10.71 -46.13,-22.29 -68.85,-32.69 -22.72,-10.4 -43.81,-19.62 -67.6,-29.85 -23.8,-10.23 -50.3,-21.48 -76.54,-32.03 -26.23,-10.54 -52.2,-20.38 -75.73,-29.04 -23.52,-8.66 -44.61,-16.15 -69.69,-24.73 -25.08,-8.58 -54.15,-18.25 -81.75,-27.1 -27.6,-8.85 -53.73,-16.87 -81.18,-24.79 -27.46,-7.92 -56.24,-15.74 -81.26,-22.35 -25.01,-6.62 -46.26,-12.03 -69.4,-17.53 -23.13,-5.5 -48.15,-11.08 -74.94,-16.89 -26.8,-5.81 -55.37,-11.85 -82.93,-17.24 -27.56,-5.4 -54.1,-10.16 -67.27,-12.6 -13.17,-2.44 -12.96,-2.56 -8.74,-2.77 4.21,-0.2 12.44,-0.49 34.4,1.39 21.95,1.88 57.64,5.93 93.44,10.71 35.81,4.77 71.74,10.27 102.11,15.21 30.37,4.95 55.18,9.33 84.71,14.91 29.52,5.58 63.76,12.36 93.63,18.73 29.87,6.37 55.39,12.32 84.14,19.35 28.76,7.03 60.77,15.14 90.04,22.93 29.27,7.8 55.82,15.28 85.24,23.94 29.42,8.66 61.71,18.5 89.7,27.56 28,9.06 51.69,17.33 77.68,26.67 25.99,9.35 54.27,19.76 81.74,30.27 27.48,10.5 54.15,21.08 78.75,31.38 24.6,10.3 47.14,20.3 72.01,31.78 24.87,11.47 52.08,24.41 76.95,36.74 24.87,12.32 47.41,24.02 70.42,36.44 23.01,12.43 46.49,25.58 67.35,37.73 20.86,12.16 39.1,23.32 54.7,32.95 15.6,9.62 28.56,17.71 43,27.25z"/>
    <g style="clip-path:url(#id2)">
     <g>
      <g>
       <path id="_1_1" class="fil1 str0" d="M-1024.71 3060.21l1129.93 0 0 390.01 -1129.93 0c-20,0 -36.35,-16.35 -36.35,-36.35l0 -317.31c0,-20 16.35,-36.35 36.35,-36.35z"/>
       <g>
        <g>
         <path class="fil2" d="M-821.35 3120.78l-59.03 0 -58.1 35.54 0 54.37 51.67 -30.89 1.35 0 0 177.07 64.11 0 0 -236.09zm151.21 242.53c64.22,0.11 104.09,-45.88 104.25,-124 0.11,-77.69 -40.03,-121.73 -104.25,-121.73 -64.33,0 -103.98,43.77 -104.2,121.73 -0.22,77.8 39.87,123.89 104.2,124zm0 -52.1c-22.13,0 -38.03,-22.23 -37.82,-71.9 0.27,-48.53 15.69,-70.11 37.82,-70.11 22.13,0 37.71,21.58 37.81,70.11 0.11,49.67 -15.68,71.9 -37.81,71.9z"/>
        </g>
        <g>
         <path class="fil2" d="M-485.9 3313.84l-0.32 -22.43 3.71 0 51.65 -52.59 22.44 0 -55.04 55.66 -1.52 0 -20.92 19.36zm-16.91 43.03l0 -157.4 18.14 0 0 157.4 -18.14 0zm75.01 0l-46.12 -58.39 12.91 -12.62 56.26 71.01 -23.05 0zm85.45 46.71c-8.76,0 -16.27,-1.08 -22.58,-3.32 -6.31,-2.24 -11.54,-5.16 -15.72,-8.76 -4.19,-3.61 -7.51,-7.47 -9.96,-11.58l14.46 -10.14c1.63,2.17 3.72,4.62 6.21,7.43 2.52,2.78 5.98,5.2 10.35,7.29 4.36,2.09 10.14,3.1 17.24,3.1 9.52,0 17.38,-2.31 23.59,-6.89 6.2,-4.62 9.3,-11.86 9.3,-21.67l0 -23.99 -1.51 0c-1.34,2.17 -3.25,4.8 -5.66,7.94 -2.42,3.17 -5.92,5.95 -10.46,8.4 -4.55,2.42 -10.65,3.64 -18.32,3.64 -9.53,0 -18.07,-2.27 -25.65,-6.78 -7.54,-4.51 -13.53,-11.03 -17.89,-19.65 -4.36,-8.62 -6.57,-19.08 -6.57,-31.35 0,-12.11 2.13,-22.65 6.39,-31.63 4.26,-8.98 10.17,-15.98 17.75,-20.92 7.57,-4.94 16.33,-7.39 26.29,-7.39 7.68,0 13.77,1.26 18.32,3.79 4.51,2.52 8.01,5.41 10.46,8.62 2.41,3.21 4.29,5.8 5.63,7.86l1.83 0 0 -18.76 17.53 0 0 121.44c0,10.14 -2.3,18.4 -6.88,24.78 -4.59,6.39 -10.72,11.08 -18.43,14.07 -7.73,2.99 -16.27,4.47 -25.72,4.47zm-0.62 -64.85c7.29,0 13.42,-1.66 18.47,-4.97 5.02,-3.36 8.84,-8.12 11.44,-14.4 2.59,-6.24 3.93,-13.71 3.93,-22.43 0,-8.52 -1.3,-16.02 -3.86,-22.51 -2.56,-6.52 -6.35,-11.61 -11.37,-15.29 -5.01,-3.68 -11.21,-5.55 -18.61,-5.55 -7.67,0 -14.06,1.94 -19.14,5.84 -5.13,3.89 -8.95,9.13 -11.48,15.69 -2.52,6.56 -3.78,13.81 -3.78,21.82 0,8.18 1.3,15.44 3.85,21.71 2.6,6.28 6.46,11.18 11.55,14.75 5.08,3.57 11.43,5.34 19,5.34z"/>
        </g>
       </g>
      </g>
     </g>
    </g>
    <path class="fil5" d="M1791.21 1106.23c14.44,9.54 30.36,20.54 46.42,32.01 16.06,11.48 32.27,23.43 49.31,36.41 17.03,12.98 34.9,27 51.35,40.46 16.46,13.46 31.51,26.36 48.4,41.62 16.89,15.26 35.62,32.87 56.38,53.61 20.76,20.73 43.54,44.59 60.43,62.89 16.89,18.29 27.89,31.03 36.22,40.98 8.34,9.96 14,17.13 16.83,20.72 2.84,3.59 2.84,3.59 1.79,3.59 -1.04,0 -3.13,0 -30.76,0 -27.63,0 -80.81,0 -107.39,0 -26.59,0 -26.59,0 -26.65,0 -0.07,0 -0.19,0 -2.88,-3.15 -2.68,-3.14 -7.93,-9.42 -17.9,-20.18 -9.96,-10.75 -24.64,-25.96 -40.13,-41.3 -15.48,-15.34 -31.78,-30.81 -47.82,-45.57 -16.04,-14.76 -31.84,-28.82 -46.08,-41.08 -14.24,-12.26 -26.94,-22.72 -40.6,-33.72 -13.67,-11 -28.31,-22.53 -43.67,-34.36 -15.36,-11.82 -31.44,-23.94 -47.3,-35.6 -15.86,-11.66 -31.49,-22.87 -47.29,-33.89 -15.79,-11.02 -31.75,-21.85 -49.03,-33.1 -17.29,-11.24 -35.89,-22.9 -53.55,-33.88 -17.66,-10.98 -34.36,-21.27 -49.33,-30.22 -14.97,-8.96 -28.2,-16.56 -42.92,-24.79 -14.72,-8.23 -30.93,-17.08 -45.81,-25.08 -14.89,-8 -28.45,-15.16 -44.82,-23.65 -16.38,-8.5 -35.56,-18.34 -57.33,-29.05 -21.77,-10.71 -46.13,-22.29 -68.85,-32.69 -22.72,-10.4 -43.81,-19.62 -67.6,-29.85 -23.8,-10.23 -50.3,-21.48 -76.54,-32.03 -26.23,-10.54 -52.2,-20.38 -75.73,-29.04 -23.52,-8.66 -44.61,-16.15 -69.69,-24.73 -25.08,-8.58 -54.15,-18.25 -81.75,-27.1 -27.6,-8.85 -53.73,-16.87 -81.18,-24.79 -27.46,-7.92 -56.24,-15.74 -81.26,-22.35 -25.01,-6.62 -46.26,-12.03 -69.4,-17.53 -23.13,-5.5 -48.15,-11.08 -74.94,-16.89 -26.8,-5.81 -55.37,-11.85 -82.93,-17.24 -27.56,-5.4 -54.1,-10.16 -67.27,-12.6 -13.17,-2.44 -12.96,-2.56 -8.74,-2.77 4.21,-0.2 12.44,-0.49 34.4,1.39 21.95,1.88 57.64,5.93 93.44,10.71 35.81,4.77 71.74,10.27 102.11,15.21 30.37,4.95 55.18,9.33 84.71,14.91 29.52,5.58 63.76,12.36 93.63,18.73 29.87,6.37 55.39,12.32 84.14,19.35 28.76,7.03 60.77,15.14 90.04,22.93 29.27,7.8 55.82,15.28 85.24,23.94 29.42,8.66 61.71,18.5 89.7,27.56 28,9.06 51.69,17.33 77.68,26.67 25.99,9.35 54.27,19.76 81.74,30.27 27.48,10.5 54.15,21.08 78.75,31.38 24.6,10.3 47.14,20.3 72.01,31.78 24.87,11.47 52.08,24.41 76.95,36.74 24.87,12.32 47.41,24.02 70.42,36.44 23.01,12.43 46.49,25.58 67.35,37.73 20.86,12.16 39.1,23.32 54.7,32.95 15.6,9.62 28.56,17.71 43,27.25z"/>
    <path class="fil4" d="M1648.78 1335.5c11.72,-15.17 29.79,-38.7 43.23,-56.06 13.44,-17.37 22.24,-28.58 26.65,-34.18 4.4,-5.6 4.4,-5.6 6.68,-3.95 2.27,1.66 6.82,4.96 14.92,11.21 8.11,6.24 19.77,15.42 34.4,27.37 14.64,11.95 32.26,26.67 42.45,35.27 10.19,8.6 12.96,11.08 14.35,12.32 1.38,1.24 1.38,1.24 0.43,2.48 -0.95,1.24 -2.85,3.72 -8.54,11.13 -5.68,7.4 -15.15,19.72 -28.47,36.78 -13.31,17.06 -30.47,38.85 -39.05,49.75 -8.58,10.9 -8.58,10.9 -8.74,10.9 -0.17,0 -0.5,0 -2.36,0 -1.86,0 -5.25,0 -34.55,0 -29.3,0 -84.49,0 -112.16,0 -27.66,0 -27.78,0 -27.54,-0.48 0.25,-0.48 0.87,-1.43 4.76,-6.67 3.89,-5.23 11.04,-14.74 20.1,-26.63 9.05,-11.88 20.01,-26.15 28.17,-36.69 8.17,-10.55 13.55,-17.37 25.27,-32.55z"/>
    <g style="clip-path:url(#id3)">
     <g>
      <g>
       <path id="_1_2" class="fil1 str0" d="M-1024.71 3060.21l1129.93 0 0 390.01 -1129.93 0c-20,0 -36.35,-16.35 -36.35,-36.35l0 -317.31c0,-20 16.35,-36.35 36.35,-36.35z"/>
       <g>
        <g>
         <path class="fil2" d="M-821.35 3120.78l-59.03 0 -58.1 35.54 0 54.37 51.67 -30.89 1.35 0 0 177.07 64.11 0 0 -236.09zm151.21 242.53c64.22,0.11 104.09,-45.88 104.25,-124 0.11,-77.69 -40.03,-121.73 -104.25,-121.73 -64.33,0 -103.98,43.77 -104.2,121.73 -0.22,77.8 39.87,123.89 104.2,124zm0 -52.1c-22.13,0 -38.03,-22.23 -37.82,-71.9 0.27,-48.53 15.69,-70.11 37.82,-70.11 22.13,0 37.71,21.58 37.81,70.11 0.11,49.67 -15.68,71.9 -37.81,71.9z"/>
        </g>
        <g>
         <path class="fil2" d="M-485.9 3313.84l-0.32 -22.43 3.71 0 51.65 -52.59 22.44 0 -55.04 55.66 -1.52 0 -20.92 19.36zm-16.91 43.03l0 -157.4 18.14 0 0 157.4 -18.14 0zm75.01 0l-46.12 -58.39 12.91 -12.62 56.26 71.01 -23.05 0zm85.45 46.71c-8.76,0 -16.27,-1.08 -22.58,-3.32 -6.31,-2.24 -11.54,-5.16 -15.72,-8.76 -4.19,-3.61 -7.51,-7.47 -9.96,-11.58l14.46 -10.14c1.63,2.17 3.72,4.62 6.21,7.43 2.52,2.78 5.98,5.2 10.35,7.29 4.36,2.09 10.14,3.1 17.24,3.1 9.52,0 17.38,-2.31 23.59,-6.89 6.2,-4.62 9.3,-11.86 9.3,-21.67l0 -23.99 -1.51 0c-1.34,2.17 -3.25,4.8 -5.66,7.94 -2.42,3.17 -5.92,5.95 -10.46,8.4 -4.55,2.42 -10.65,3.64 -18.32,3.64 -9.53,0 -18.07,-2.27 -25.65,-6.78 -7.54,-4.51 -13.53,-11.03 -17.89,-19.65 -4.36,-8.62 -6.57,-19.08 -6.57,-31.35 0,-12.11 2.13,-22.65 6.39,-31.63 4.26,-8.98 10.17,-15.98 17.75,-20.92 7.57,-4.94 16.33,-7.39 26.29,-7.39 7.68,0 13.77,1.26 18.32,3.79 4.51,2.52 8.01,5.41 10.46,8.62 2.41,3.21 4.29,5.8 5.63,7.86l1.83 0 0 -18.76 17.53 0 0 121.44c0,10.14 -2.3,18.4 -6.88,24.78 -4.59,6.39 -10.72,11.08 -18.43,14.07 -7.73,2.99 -16.27,4.47 -25.72,4.47zm-0.62 -64.85c7.29,0 13.42,-1.66 18.47,-4.97 5.02,-3.36 8.84,-8.12 11.44,-14.4 2.59,-6.24 3.93,-13.71 3.93,-22.43 0,-8.52 -1.3,-16.02 -3.86,-22.51 -2.56,-6.52 -6.35,-11.61 -11.37,-15.29 -5.01,-3.68 -11.21,-5.55 -18.61,-5.55 -7.67,0 -14.06,1.94 -19.14,5.84 -5.13,3.89 -8.95,9.13 -11.48,15.69 -2.52,6.56 -3.78,13.81 -3.78,21.82 0,8.18 1.3,15.44 3.85,21.71 2.6,6.28 6.46,11.18 11.55,14.75 5.08,3.57 11.43,5.34 19,5.34z"/>
        </g>
       </g>
      </g>
     </g>
    </g>
    <path class="fil5" d="M1648.78 1335.5c11.72,-15.17 29.79,-38.7 43.23,-56.06 13.44,-17.37 22.24,-28.58 26.65,-34.18 4.4,-5.6 4.4,-5.6 6.68,-3.95 2.27,1.66 6.82,4.96 14.92,11.21 8.11,6.24 19.77,15.42 34.4,27.37 14.64,11.95 32.26,26.67 42.45,35.27 10.19,8.6 12.96,11.08 14.35,12.32 1.38,1.24 1.38,1.24 0.43,2.48 -0.95,1.24 -2.85,3.72 -8.54,11.13 -5.68,7.4 -15.15,19.72 -28.47,36.78 -13.31,17.06 -30.47,38.85 -39.05,49.75 -8.58,10.9 -8.58,10.9 -8.74,10.9 -0.17,0 -0.5,0 -2.36,0 -1.86,0 -5.25,0 -34.55,0 -29.3,0 -84.49,0 -112.16,0 -27.66,0 -27.78,0 -27.54,-0.48 0.25,-0.48 0.87,-1.43 4.76,-6.67 3.89,-5.23 11.04,-14.74 20.1,-26.63 9.05,-11.88 20.01,-26.15 28.17,-36.69 8.17,-10.55 13.55,-17.37 25.27,-32.55z"/>
    <path class="fil4" d="M1934.39 1049.52c29.34,0 72.21,0.09 93.65,0.13 21.44,0.04 21.44,0.04 21.09,0.43 -0.35,0.39 -1.05,1.18 -7.4,9.32 -6.35,8.15 -18.34,23.66 -34.69,44.74 -16.35,21.09 -37.07,47.76 -47.43,61.1 -10.35,13.33 -10.35,13.33 -10.85,12.84 -0.5,-0.5 -1.49,-1.49 -5.31,-4.57 -3.83,-3.08 -10.49,-8.25 -24.42,-18.86 -13.93,-10.6 -35.15,-26.65 -50.2,-37.73 -15.05,-11.08 -23.94,-17.2 -28.42,-20.28 -4.49,-3.08 -4.58,-3.12 -3.85,-4.05 0.72,-0.93 2.25,-2.75 7.9,-10.03 5.64,-7.28 15.4,-20.01 20.28,-26.38 4.88,-6.37 4.88,-6.37 5.52,-6.39 0.64,-0.02 1.92,-0.06 10.46,-0.12 8.54,-0.06 24.33,-0.15 53.67,-0.15z"/>
    <g style="clip-path:url(#id4)">
     <g>
      <g>
       <path id="_1_3" class="fil1 str0" d="M-1024.71 3060.21l1129.93 0 0 390.01 -1129.93 0c-20,0 -36.35,-16.35 -36.35,-36.35l0 -317.31c0,-20 16.35,-36.35 36.35,-36.35z"/>
       <g>
        <g>
         <path class="fil2" d="M-821.35 3120.78l-59.03 0 -58.1 35.54 0 54.37 51.67 -30.89 1.35 0 0 177.07 64.11 0 0 -236.09zm151.21 242.53c64.22,0.11 104.09,-45.88 104.25,-124 0.11,-77.69 -40.03,-121.73 -104.25,-121.73 -64.33,0 -103.98,43.77 -104.2,121.73 -0.22,77.8 39.87,123.89 104.2,124zm0 -52.1c-22.13,0 -38.03,-22.23 -37.82,-71.9 0.27,-48.53 15.69,-70.11 37.82,-70.11 22.13,0 37.71,21.58 37.81,70.11 0.11,49.67 -15.68,71.9 -37.81,71.9z"/>
        </g>
        <g>
         <path class="fil2" d="M-485.9 3313.84l-0.32 -22.43 3.71 0 51.65 -52.59 22.44 0 -55.04 55.66 -1.52 0 -20.92 19.36zm-16.91 43.03l0 -157.4 18.14 0 0 157.4 -18.14 0zm75.01 0l-46.12 -58.39 12.91 -12.62 56.26 71.01 -23.05 0zm85.45 46.71c-8.76,0 -16.27,-1.08 -22.58,-3.32 -6.31,-2.24 -11.54,-5.16 -15.72,-8.76 -4.19,-3.61 -7.51,-7.47 -9.96,-11.58l14.46 -10.14c1.63,2.17 3.72,4.62 6.21,7.43 2.52,2.78 5.98,5.2 10.35,7.29 4.36,2.09 10.14,3.1 17.24,3.1 9.52,0 17.38,-2.31 23.59,-6.89 6.2,-4.62 9.3,-11.86 9.3,-21.67l0 -23.99 -1.51 0c-1.34,2.17 -3.25,4.8 -5.66,7.94 -2.42,3.17 -5.92,5.95 -10.46,8.4 -4.55,2.42 -10.65,3.64 -18.32,3.64 -9.53,0 -18.07,-2.27 -25.65,-6.78 -7.54,-4.51 -13.53,-11.03 -17.89,-19.65 -4.36,-8.62 -6.57,-19.08 -6.57,-31.35 0,-12.11 2.13,-22.65 6.39,-31.63 4.26,-8.98 10.17,-15.98 17.75,-20.92 7.57,-4.94 16.33,-7.39 26.29,-7.39 7.68,0 13.77,1.26 18.32,3.79 4.51,2.52 8.01,5.41 10.46,8.62 2.41,3.21 4.29,5.8 5.63,7.86l1.83 0 0 -18.76 17.53 0 0 121.44c0,10.14 -2.3,18.4 -6.88,24.78 -4.59,6.39 -10.72,11.08 -18.43,14.07 -7.73,2.99 -16.27,4.47 -25.72,4.47zm-0.62 -64.85c7.29,0 13.42,-1.66 18.47,-4.97 5.02,-3.36 8.84,-8.12 11.44,-14.4 2.59,-6.24 3.93,-13.71 3.93,-22.43 0,-8.52 -1.3,-16.02 -3.86,-22.51 -2.56,-6.52 -6.35,-11.61 -11.37,-15.29 -5.01,-3.68 -11.21,-5.55 -18.61,-5.55 -7.67,0 -14.06,1.94 -19.14,5.84 -5.13,3.89 -8.95,9.13 -11.48,15.69 -2.52,6.56 -3.78,13.81 -3.78,21.82 0,8.18 1.3,15.44 3.85,21.71 2.6,6.28 6.46,11.18 11.55,14.75 5.08,3.57 11.43,5.34 19,5.34z"/>
        </g>
       </g>
      </g>
     </g>
    </g>
    <path class="fil5" d="M1934.39 1049.52c29.34,0 72.21,0.09 93.65,0.13 21.44,0.04 21.44,0.04 21.09,0.43 -0.35,0.39 -1.05,1.18 -7.4,9.32 -6.35,8.15 -18.34,23.66 -34.69,44.74 -16.35,21.09 -37.07,47.76 -47.43,61.1 -10.35,13.33 -10.35,13.33 -10.85,12.84 -0.5,-0.5 -1.49,-1.49 -5.31,-4.57 -3.83,-3.08 -10.49,-8.25 -24.42,-18.86 -13.93,-10.6 -35.15,-26.65 -50.2,-37.73 -15.05,-11.08 -23.94,-17.2 -28.42,-20.28 -4.49,-3.08 -4.58,-3.12 -3.85,-4.05 0.72,-0.93 2.25,-2.75 7.9,-10.03 5.64,-7.28 15.4,-20.01 20.28,-26.38 4.88,-6.37 4.88,-6.37 5.52,-6.39 0.64,-0.02 1.92,-0.06 10.46,-0.12 8.54,-0.06 24.33,-0.15 53.67,-0.15z"/>
   </g>
   <path class="fil7" d="M637.83 1574.1l30.18 0c10.75,-0.57 16.11,-6.08 16.11,-16.52 0,-9.76 -5.43,-14.64 -16.31,-14.68l-29.98 0 0 31.2zm0 17.68l0 31.63 -19.72 0 0 -98.4 48.42 0c11.75,0 20.53,2.56 26.4,7.72 6.38,5.54 9.55,14.1 9.55,25.65 0,11.54 -3.12,20.07 -9.41,25.62 -5.73,5.01 -14.45,7.58 -26.14,7.72l-29.1 0.06zm164.71 -22.95c3.16,-0.09 5.94,-0.55 8.32,-1.36 4.8,-1.57 7.19,-5.29 7.19,-11.17 0,-6.47 -2.48,-10.47 -7.45,-12.06 -2.4,-0.72 -5.18,-1.14 -8.34,-1.23l-31.95 0 0 25.82 32.23 0zm16.52 13.73c6.41,4.12 11.65,10.77 15.72,20 1.13,2.52 2.17,4.78 3.17,6.77 0.37,0.76 2.33,5.46 5.89,14.08l-21.19 0c-1.39,-3.4 -2.16,-5.16 -2.22,-5.3l-0.07 0c-0.6,-1.15 -1.76,-3.72 -3.47,-7.65 -4.97,-11.19 -9.71,-18.51 -14.22,-22 -1.84,-1.44 -4.78,-2.15 -8.8,-2.15 -6.18,0.02 -14.03,0.04 -23.56,0.04l0 37.06 -19.71 0 0 -98.4 44.29 0c13.49,0.09 23.5,2.24 30,6.42 8.09,5.25 12.11,13.62 12.11,25.13 0,10.26 -3.98,18 -11.97,23.23 -1.6,1.04 -3.56,1.96 -5.97,2.77zm169.13 -8.32c0,18.24 -4.3,31.48 -12.92,39.76 -8.23,7.91 -21.13,11.83 -38.74,11.83 -17.66,0 -30.59,-3.92 -38.81,-11.83 -8.58,-8.28 -12.86,-21.52 -12.86,-39.76 0,-17.66 3.93,-30.58 11.84,-38.81 8.27,-8.58 21.54,-12.85 39.83,-12.85 17.61,0 30.51,3.95 38.74,11.83 8.62,8.28 12.92,21.55 12.92,39.83zm-26.54 25.59c4.56,-4.37 6.84,-12.9 6.84,-25.59 0,-12.74 -2.28,-21.29 -6.84,-25.66 -4.39,-4.25 -12.76,-6.38 -25.12,-6.38 -12.74,0 -21.29,2.29 -25.66,6.85 -4.21,4.39 -6.31,12.78 -6.31,25.19 0,12.69 2.26,21.22 6.77,25.59 4.39,4.25 12.78,6.38 25.2,6.38 12.36,0 20.73,-2.13 25.12,-6.38zm150.17 -56.82l-52.81 0 0 22.03 43.34 0 0 17.66 -43.34 0 0 40.71 -19.72 0 0 -98.4 72.53 0 0 18zm122.53 0l-55.52 0 0 22.03 46.04 0 0 17.66 -46.04 0 0 22.7 55.52 0 0 18.01 -75.24 0 0 -98.4 75.24 0 0 18zm66.05 52.08c0.42,8.09 8.97,12.25 25.68,12.46 10.57,0 17.48,-1.11 20.79,-3.35 3.28,-2.22 4.94,-5.27 4.94,-9.11l0 -2.84c-0.14,-3.42 -1.36,-5.76 -3.65,-6.96 -4.11,-2.22 -12.44,-3.54 -24.94,-3.93 -12.51,-0.23 -21.98,-2.06 -28.43,-5.5 -5.11,-2.75 -8.67,-5.62 -10.71,-8.6 -2.26,-3.33 -3.37,-7.97 -3.37,-13.94 0,-11.3 4.35,-19.46 13.06,-24.52 7.26,-4.14 18.03,-6.22 32.31,-6.22 13.71,0 24.16,1.92 31.35,5.75 9.38,5.02 14.08,13.34 14.08,24.99l-19.7 0c0,-3.83 -1.22,-6.42 -3.65,-7.72 -4.16,-2.26 -11.51,-3.4 -22.08,-3.4 -10.84,0 -18.3,1.21 -22.42,3.61 -2.17,1.25 -3.26,3.84 -3.26,7.72 0.05,3.38 1.25,5.71 3.59,6.96 4.16,2.22 12.48,3.42 24.98,3.6 12.46,0.17 21.96,1.99 28.46,5.48 8.85,4.74 13.52,12.39 14.01,22.95 0.04,0.86 0.07,1.72 0.07,2.57 0,11.65 -4.7,20.02 -14.08,25.06 -7.19,3.79 -17.64,5.68 -31.35,5.68 -14.28,0 -25.05,-2.05 -32.31,-6.21 -8.71,-5.07 -13.06,-13.22 -13.06,-24.53l19.69 0zm138.53 0c0.41,8.09 8.96,12.25 25.68,12.46 10.56,0 17.47,-1.11 20.78,-3.35 3.28,-2.22 4.94,-5.27 4.94,-9.11l0 -2.84c-0.14,-3.42 -1.36,-5.76 -3.65,-6.96 -4.11,-2.22 -12.44,-3.54 -24.94,-3.93 -12.51,-0.23 -21.98,-2.06 -28.43,-5.5 -5.11,-2.75 -8.67,-5.62 -10.7,-8.6 -2.27,-3.33 -3.38,-7.97 -3.38,-13.94 0,-11.3 4.35,-19.46 13.06,-24.52 7.26,-4.14 18.03,-6.22 32.32,-6.22 13.7,0 24.15,1.92 31.34,5.75 9.38,5.02 14.08,13.34 14.08,24.99l-19.7 0c0,-3.83 -1.22,-6.42 -3.65,-7.72 -4.16,-2.26 -11.51,-3.4 -22.07,-3.4 -10.85,0 -18.31,1.21 -22.43,3.61 -2.17,1.25 -3.25,3.84 -3.25,7.72 0.04,3.38 1.24,5.71 3.58,6.96 4.16,2.22 12.48,3.42 24.98,3.6 12.46,0.17 21.96,1.99 28.46,5.48 8.85,4.74 13.52,12.39 14.01,22.95 0.04,0.86 0.07,1.72 0.07,2.57 0,11.65 -4.7,20.02 -14.08,25.06 -7.19,3.79 -17.64,5.68 -31.34,5.68 -14.29,0 -25.06,-2.05 -32.32,-6.21 -8.71,-5.07 -13.06,-13.22 -13.06,-24.53l19.7 0zm141.91 -70.08l0 98.4 -19.71 0 0 -98.4 19.71 0zm154.43 49.23c0,18.24 -4.3,31.48 -12.92,39.76 -8.23,7.91 -21.13,11.83 -38.74,11.83 -17.67,0 -30.59,-3.92 -38.81,-11.83 -8.58,-8.28 -12.86,-21.52 -12.86,-39.76 0,-17.66 3.93,-30.58 11.84,-38.81 8.27,-8.58 21.54,-12.85 39.83,-12.85 17.61,0 30.51,3.95 38.74,11.83 8.62,8.28 12.92,21.55 12.92,39.83zm-26.54 25.59c4.56,-4.37 6.84,-12.9 6.84,-25.59 0,-12.74 -2.28,-21.29 -6.84,-25.66 -4.39,-4.25 -12.76,-6.38 -25.12,-6.38 -12.74,0 -21.29,2.29 -25.66,6.85 -4.21,4.39 -6.31,12.78 -6.31,25.19 0,12.69 2.26,21.22 6.77,25.59 4.39,4.25 12.78,6.38 25.2,6.38 12.36,0 20.73,-2.13 25.12,-6.38zm77.64 23.58l0 -98.4 22.49 0 56.47 70.5 0 -70.5 19.65 0 0 98.4 -22.43 0 -56.47 -70.5 0 70.5 -19.71 0zm141.57 0l44.36 -98.4 21.61 0 44.08 98.4 -21.54 0 -11.31 -25.2 -44.28 0 -11.38 25.2 -21.54 0zm69.76 -41.79l-14.63 -32.78 -14.7 32.78 29.33 0zm102.97 -56.61l0 80.39 58.3 0 0 17.94 -78.02 0.07 0 -98.4 19.72 0z"/>
   <g style="clip-path:url(#id5)">
    <g>
     <g>
      <path id="_1_4" class="fil1 str0" d="M-1024.71 3060.21l1129.93 0 0 390.01 -1129.93 0c-20,0 -36.35,-16.35 -36.35,-36.35l0 -317.31c0,-20 16.35,-36.35 36.35,-36.35z"/>
      <g>
       <g>
        <path class="fil2" d="M-821.35 3120.78l-59.03 0 -58.1 35.54 0 54.37 51.67 -30.89 1.35 0 0 177.07 64.11 0 0 -236.09zm151.21 242.53c64.22,0.11 104.09,-45.88 104.25,-124 0.11,-77.69 -40.03,-121.73 -104.25,-121.73 -64.33,0 -103.98,43.77 -104.2,121.73 -0.22,77.8 39.87,123.89 104.2,124zm0 -52.1c-22.13,0 -38.03,-22.23 -37.82,-71.9 0.27,-48.53 15.69,-70.11 37.82,-70.11 22.13,0 37.71,21.58 37.81,70.11 0.11,49.67 -15.68,71.9 -37.81,71.9z"/>
       </g>
       <g>
        <path class="fil2" d="M-485.9 3313.84l-0.32 -22.43 3.71 0 51.65 -52.59 22.44 0 -55.04 55.66 -1.52 0 -20.92 19.36zm-16.91 43.03l0 -157.4 18.14 0 0 157.4 -18.14 0zm75.01 0l-46.12 -58.39 12.91 -12.62 56.26 71.01 -23.05 0zm85.45 46.71c-8.76,0 -16.27,-1.08 -22.58,-3.32 -6.31,-2.24 -11.54,-5.16 -15.72,-8.76 -4.19,-3.61 -7.51,-7.47 -9.96,-11.58l14.46 -10.14c1.63,2.17 3.72,4.62 6.21,7.43 2.52,2.78 5.98,5.2 10.35,7.29 4.36,2.09 10.14,3.1 17.24,3.1 9.52,0 17.38,-2.31 23.59,-6.89 6.2,-4.62 9.3,-11.86 9.3,-21.67l0 -23.99 -1.51 0c-1.34,2.17 -3.25,4.8 -5.66,7.94 -2.42,3.17 -5.92,5.95 -10.46,8.4 -4.55,2.42 -10.65,3.64 -18.32,3.64 -9.53,0 -18.07,-2.27 -25.65,-6.78 -7.54,-4.51 -13.53,-11.03 -17.89,-19.65 -4.36,-8.62 -6.57,-19.08 -6.57,-31.35 0,-12.11 2.13,-22.65 6.39,-31.63 4.26,-8.98 10.17,-15.98 17.75,-20.92 7.57,-4.94 16.33,-7.39 26.29,-7.39 7.68,0 13.77,1.26 18.32,3.79 4.51,2.52 8.01,5.41 10.46,8.62 2.41,3.21 4.29,5.8 5.63,7.86l1.83 0 0 -18.76 17.53 0 0 121.44c0,10.14 -2.3,18.4 -6.88,24.78 -4.59,6.39 -10.72,11.08 -18.43,14.07 -7.73,2.99 -16.27,4.47 -25.72,4.47zm-0.62 -64.85c7.29,0 13.42,-1.66 18.47,-4.97 5.02,-3.36 8.84,-8.12 11.44,-14.4 2.59,-6.24 3.93,-13.71 3.93,-22.43 0,-8.52 -1.3,-16.02 -3.86,-22.51 -2.56,-6.52 -6.35,-11.61 -11.37,-15.29 -5.01,-3.68 -11.21,-5.55 -18.61,-5.55 -7.67,0 -14.06,1.94 -19.14,5.84 -5.13,3.89 -8.95,9.13 -11.48,15.69 -2.52,6.56 -3.78,13.81 -3.78,21.82 0,8.18 1.3,15.44 3.85,21.71 2.6,6.28 6.46,11.18 11.55,14.75 5.08,3.57 11.43,5.34 19,5.34z"/>
       </g>
      </g>
     </g>
    </g>
   </g>
   <path class="fil3" d="M637.83 1574.1l30.18 0c10.75,-0.57 16.11,-6.08 16.11,-16.52 0,-9.76 -5.43,-14.64 -16.31,-14.68l-29.98 0 0 31.2zm0 17.68l0 31.63 -19.72 0 0 -98.4 48.42 0c11.75,0 20.53,2.56 26.4,7.72 6.38,5.54 9.55,14.1 9.55,25.65 0,11.54 -3.12,20.07 -9.41,25.62 -5.73,5.01 -14.45,7.58 -26.14,7.72l-29.1 0.06zm164.71 -22.95c3.16,-0.09 5.94,-0.55 8.32,-1.36 4.8,-1.57 7.19,-5.29 7.19,-11.17 0,-6.47 -2.48,-10.47 -7.45,-12.06 -2.4,-0.72 -5.18,-1.14 -8.34,-1.23l-31.95 0 0 25.82 32.23 0zm16.52 13.73c6.41,4.12 11.65,10.77 15.72,20 1.13,2.52 2.17,4.78 3.17,6.77 0.37,0.76 2.33,5.46 5.89,14.08l-21.19 0c-1.39,-3.4 -2.16,-5.16 -2.22,-5.3l-0.07 0c-0.6,-1.15 -1.76,-3.72 -3.47,-7.65 -4.97,-11.19 -9.71,-18.51 -14.22,-22 -1.84,-1.44 -4.78,-2.15 -8.8,-2.15 -6.18,0.02 -14.03,0.04 -23.56,0.04l0 37.06 -19.71 0 0 -98.4 44.29 0c13.49,0.09 23.5,2.24 30,6.42 8.09,5.25 12.11,13.62 12.11,25.13 0,10.26 -3.98,18 -11.97,23.23 -1.6,1.04 -3.56,1.96 -5.97,2.77zm169.13 -8.32c0,18.24 -4.3,31.48 -12.92,39.76 -8.23,7.91 -21.13,11.83 -38.74,11.83 -17.66,0 -30.59,-3.92 -38.81,-11.83 -8.58,-8.28 -12.86,-21.52 -12.86,-39.76 0,-17.66 3.93,-30.58 11.84,-38.81 8.27,-8.58 21.54,-12.85 39.83,-12.85 17.61,0 30.51,3.95 38.74,11.83 8.62,8.28 12.92,21.55 12.92,39.83zm-26.54 25.59c4.56,-4.37 6.84,-12.9 6.84,-25.59 0,-12.74 -2.28,-21.29 -6.84,-25.66 -4.39,-4.25 -12.76,-6.38 -25.12,-6.38 -12.74,0 -21.29,2.29 -25.66,6.85 -4.21,4.39 -6.31,12.78 -6.31,25.19 0,12.69 2.26,21.22 6.77,25.59 4.39,4.25 12.78,6.38 25.2,6.38 12.36,0 20.73,-2.13 25.12,-6.38zm150.17 -56.82l-52.81 0 0 22.03 43.34 0 0 17.66 -43.34 0 0 40.71 -19.72 0 0 -98.4 72.53 0 0 18zm122.53 0l-55.52 0 0 22.03 46.04 0 0 17.66 -46.04 0 0 22.7 55.52 0 0 18.01 -75.24 0 0 -98.4 75.24 0 0 18zm66.05 52.08c0.42,8.09 8.97,12.25 25.68,12.46 10.57,0 17.48,-1.11 20.79,-3.35 3.28,-2.22 4.94,-5.27 4.94,-9.11l0 -2.84c-0.14,-3.42 -1.36,-5.76 -3.65,-6.96 -4.11,-2.22 -12.44,-3.54 -24.94,-3.93 -12.51,-0.23 -21.98,-2.06 -28.43,-5.5 -5.11,-2.75 -8.67,-5.62 -10.71,-8.6 -2.26,-3.33 -3.37,-7.97 -3.37,-13.94 0,-11.3 4.35,-19.46 13.06,-24.52 7.26,-4.14 18.03,-6.22 32.31,-6.22 13.71,0 24.16,1.92 31.35,5.75 9.38,5.02 14.08,13.34 14.08,24.99l-19.7 0c0,-3.83 -1.22,-6.42 -3.65,-7.72 -4.16,-2.26 -11.51,-3.4 -22.08,-3.4 -10.84,0 -18.3,1.21 -22.42,3.61 -2.17,1.25 -3.26,3.84 -3.26,7.72 0.05,3.38 1.25,5.71 3.59,6.96 4.16,2.22 12.48,3.42 24.98,3.6 12.46,0.17 21.96,1.99 28.46,5.48 8.85,4.74 13.52,12.39 14.01,22.95 0.04,0.86 0.07,1.72 0.07,2.57 0,11.65 -4.7,20.02 -14.08,25.06 -7.19,3.79 -17.64,5.68 -31.35,5.68 -14.28,0 -25.05,-2.05 -32.31,-6.21 -8.71,-5.07 -13.06,-13.22 -13.06,-24.53l19.69 0zm138.53 0c0.41,8.09 8.96,12.25 25.68,12.46 10.56,0 17.47,-1.11 20.78,-3.35 3.28,-2.22 4.94,-5.27 4.94,-9.11l0 -2.84c-0.14,-3.42 -1.36,-5.76 -3.65,-6.96 -4.11,-2.22 -12.44,-3.54 -24.94,-3.93 -12.51,-0.23 -21.98,-2.06 -28.43,-5.5 -5.11,-2.75 -8.67,-5.62 -10.7,-8.6 -2.27,-3.33 -3.38,-7.97 -3.38,-13.94 0,-11.3 4.35,-19.46 13.06,-24.52 7.26,-4.14 18.03,-6.22 32.32,-6.22 13.7,0 24.15,1.92 31.34,5.75 9.38,5.02 14.08,13.34 14.08,24.99l-19.7 0c0,-3.83 -1.22,-6.42 -3.65,-7.72 -4.16,-2.26 -11.51,-3.4 -22.07,-3.4 -10.85,0 -18.31,1.21 -22.43,3.61 -2.17,1.25 -3.25,3.84 -3.25,7.72 0.04,3.38 1.24,5.71 3.58,6.96 4.16,2.22 12.48,3.42 24.98,3.6 12.46,0.17 21.96,1.99 28.46,5.48 8.85,4.74 13.52,12.39 14.01,22.95 0.04,0.86 0.07,1.72 0.07,2.57 0,11.65 -4.7,20.02 -14.08,25.06 -7.19,3.79 -17.64,5.68 -31.34,5.68 -14.29,0 -25.06,-2.05 -32.32,-6.21 -8.71,-5.07 -13.06,-13.22 -13.06,-24.53l19.7 0zm141.91 -70.08l0 98.4 -19.71 0 0 -98.4 19.71 0zm154.43 49.23c0,18.24 -4.3,31.48 -12.92,39.76 -8.23,7.91 -21.13,11.83 -38.74,11.83 -17.67,0 -30.59,-3.92 -38.81,-11.83 -8.58,-8.28 -12.86,-21.52 -12.86,-39.76 0,-17.66 3.93,-30.58 11.84,-38.81 8.27,-8.58 21.54,-12.85 39.83,-12.85 17.61,0 30.51,3.95 38.74,11.83 8.62,8.28 12.92,21.55 12.92,39.83zm-26.54 25.59c4.56,-4.37 6.84,-12.9 6.84,-25.59 0,-12.74 -2.28,-21.29 -6.84,-25.66 -4.39,-4.25 -12.76,-6.38 -25.12,-6.38 -12.74,0 -21.29,2.29 -25.66,6.85 -4.21,4.39 -6.31,12.78 -6.31,25.19 0,12.69 2.26,21.22 6.77,25.59 4.39,4.25 12.78,6.38 25.2,6.38 12.36,0 20.73,-2.13 25.12,-6.38zm77.64 23.58l0 -98.4 22.49 0 56.47 70.5 0 -70.5 19.65 0 0 98.4 -22.43 0 -56.47 -70.5 0 70.5 -19.71 0zm141.57 0l44.36 -98.4 21.61 0 44.08 98.4 -21.54 0 -11.31 -25.2 -44.28 0 -11.38 25.2 -21.54 0zm69.76 -41.79l-14.63 -32.78 -14.7 32.78 29.33 0zm102.97 -56.61l0 80.39 58.3 0 0 17.94 -78.02 0.07 0 -98.4 19.72 0z"/>
  </g>
 </g>
</svg>
