<?xml version="1.0" encoding="UTF-8"?>
<!DOCTYPE svg PUBLIC "-//W3C//DTD SVG 1.1//EN" "http://www.w3.org/Graphics/SVG/1.1/DTD/svg11.dtd">
<!-- Creator: CorelDRAW -->
<svg xmlns="http://www.w3.org/2000/svg" xml:space="preserve" width="22.8598mm" height="22.8598mm" version="1.1" style="shape-rendering:geometricPrecision; text-rendering:geometricPrecision; image-rendering:optimizeQuality; fill-rule:evenodd; clip-rule:evenodd"
viewBox="0 0 2285.98 2285.98"
 xmlns:xlink="http://www.w3.org/1999/xlink"
 xmlns:xodm="http://www.corel.com/coreldraw/odm/2003">
 <defs>
  <style type="text/css">
   <![CDATA[
    .fil2 {fill:#004D71}
    .fil3 {fill:#004D71;fill-rule:nonzero}
    .fil1 {fill:url(#id0)}
    .fil0 {fill:url(#id1)}
   ]]>
  </style>
  <radialGradient id="id0" gradientUnits="userSpaceOnUse" gradientTransform="matrix(-1.72049 1.73824 -1.67905 -1.7018 3814 655)" cx="896.45" cy="819.05" r="446.78" fx="896.45" fy="819.05">
   <stop offset="0" style="stop-opacity:1; stop-color:#F58634"/>
   <stop offset="1" style="stop-opacity:1; stop-color:#EF4D37"/>
  </radialGradient>
  <radialGradient id="id1" gradientUnits="userSpaceOnUse" gradientTransform="matrix(-1.96672 1.98707 -1.96677 -1.98698 4420 -98)" xlink:href="#id0" cx="1048.93" cy="665" r="316.69" fx="1048.93" fy="665">
  </radialGradient>
 </defs>
 <g id="Слой_x0020_1">
  <metadata id="CorelCorpID_0Corel-Layer"/>
  <g id="_2630800451376">
   <g>
    <path class="fil0" d="M428.94 1321.41c11.51,98.06 51.19,189.29 107,275.03l79.12 0c-60.06,-84.7 -104.63,-173.7 -119.81,-265.71l-5.64 -34.24 -1.83 0.15c74.01,-6.2 143.48,-24.38 206.61,-52.75 66.87,-30.07 126.42,-71.45 176.5,-122.03 50.08,-50.61 91.03,-110.76 120.79,-178.33 29,-65.84 47.22,-138.49 52.76,-216l4.48 -62.53 -61.9 4.51c-76.71,5.61 -148.62,24.03 -213.79,53.32 -66.87,30.07 -126.4,71.44 -176.5,122.03 -50.09,50.61 -91.05,110.75 -120.8,178.33 -28.04,63.7 -46.03,133.78 -52.18,208.46l0.13 -1.56 -33.89 -5.71c-91.07,-15.34 -179.17,-60.37 -263,-121.05l0 79.94c84.87,56.39 175.17,96.47 272.22,108.1l20.07 2.41 6.81 0.49 0.48 6.88 2.37 20.26zm104.58 -96.8c55.86,-8.27 108.96,-25.56 157.74,-50.35 50.05,-25.45 95.42,-58.69 134.42,-98.08 38.99,-39.41 71.89,-85.24 97.08,-135.81 24.54,-49.29 41.65,-102.92 49.83,-159.37l6.6 -45.55 -45.08 6.66c-55.88,8.27 -108.96,25.55 -157.75,50.35 -50.05,25.45 -95.41,58.69 -134.42,98.08 -39,39.41 -71.9,85.23 -97.09,135.81 -24.53,49.29 -41.65,102.92 -49.82,159.37l-6.59 45.56 45.08 -6.67z"/>
    <path class="fil1" d="M422.39 975.85c32.1,-67.06 74.97,-127.69 126.29,-179.53 24.39,-24.64 50.88,-47.46 79.18,-68.15 11.44,-8.37 23.18,-16.36 35.21,-24.01 -0.67,-0.43 -1.33,-0.85 -1.99,-1.27l-534.09 0 0 314.94c77.33,61.54 158.04,110.06 240.15,131.63 10.48,-61.14 29.3,-119.43 55.25,-173.61zm182.97 81.35c-14.07,28.28 -25.34,58.31 -33.42,89.7 31.07,-8.16 60.79,-19.55 88.8,-33.78 43.29,-22.01 82.74,-50.99 116.9,-85.48 34.14,-34.51 62.82,-74.37 84.61,-118.11 14.09,-28.3 25.35,-58.33 33.42,-89.7 -31.05,8.15 -60.77,19.53 -88.78,33.77 -43.3,22.01 -82.75,50.99 -116.9,85.48 -34.16,34.51 -62.84,74.36 -84.63,118.12zm313.57 113.19c-51.3,51.85 -111.32,95.18 -177.68,127.61 -53.63,26.21 -111.34,45.22 -171.84,55.81 21.35,82.96 69.37,164.5 130.28,242.63l311.74 0 -0.01 -539.56c-0.42,-0.68 -0.85,-1.36 -1.28,-2.05 -26.13,42.01 -56.76,80.77 -91.21,115.56zm-462.99 426.05c-44.35,-75.44 -76.75,-155.34 -90.72,-240.69 -84.48,-14.12 -163.56,-46.85 -238.23,-91.65l0 332.34 328.95 0z"/>
   </g>
   <path class="fil2" d="M1325.22 922.82l-90.39 0 0 -52.67c0,-12.61 4.3,-23.49 13.18,-32.25 8.73,-9.02 19.51,-13.5 31.92,-13.5 12.48,0 23.18,4.48 31.93,13.5 8.93,8.76 13.36,19.64 13.36,32.25l0 52.67zm41.93 -52.67c0,-24.38 -8.55,-45.18 -25.59,-62.27 -17.1,-17.21 -37.5,-25.85 -61.63,-25.85 -24.13,0 -44.53,8.64 -61.57,25.85 -17.1,17.09 -25.65,37.89 -25.65,62.27l0 171.5c0,4.55 -1.46,8.45 -4.62,11.46 -3.17,3.2 -6.84,4.87 -11.34,4.87l-0.51 0c-4.5,0 -8.36,-1.67 -11.34,-4.87 -3.17,-3.01 -4.81,-6.91 -4.81,-11.46 0,-25.3 0,-50.59 0,-75.9 -11.67,0 -21.44,4.08 -29.58,12.3 -8.32,8.41 -12.36,18.29 -12.36,30.07l0 33.53c0,16.33 5.7,30.02 17.04,41.67 11.35,11.39 24.9,17.02 41.05,17.02l0.51 0c15.96,0 29.7,-5.63 41.04,-17.02 11.34,-11.65 17.04,-25.34 17.04,-41.67l0 -76.28 67.59 0 22.8 -41.98 0 127.29 40.28 0 1.65 0c9.31,0 17.29,-3.39 23.94,-9.92 0.86,-0.89 1.66,-1.81 2.41,-2.74l0 13.24c0,16.31 5.57,30.14 16.91,41.59 11.28,11.46 24.83,17.08 40.79,17.08l100.59 0c15.96,0 29.71,-5.62 40.86,-17.08 11.27,-11.45 17.04,-25.28 17.04,-41.59l0 -0.58c8.16,0 15.2,-3.01 21.15,-9.03 5.95,-5.76 8.93,-13.11 8.93,-21.37l0 -12.16 -42.12 0c-11.91,-15.36 -27.11,-23.04 -45.86,-23.04l-4.82 0 -29.51 0c-5,0 -9.12,-1.54 -11.84,-4.73 -2.98,-3.14 -4.31,-6.53 -4.31,-10.11 0,-3.4 1.41,-6.66 4.31,-9.92 2.78,-3.14 6.84,-4.86 11.84,-4.86l47.33 0 20.08 -42.18 -67.41 0c-15.95,0 -29.65,5.45 -40.98,16.63 -11.27,11.14 -16.91,24.58 -16.91,40.33 0,15.74 5.57,29.24 16.91,40.51 11.27,11.07 25.02,16.7 40.98,16.7l26.73 0 7.6 0c4.42,0 8.17,1.66 11.34,4.86 3.16,3.2 4.62,6.92 4.62,11.46l0 7.49c0,4.47 -1.46,8.44 -4.62,11.58 -3.17,3 -6.91,4.73 -11.34,4.73l-100.59 0c-4.43,0 -8.17,-1.73 -11.33,-4.73 -2.92,-3.14 -4.63,-7.11 -4.63,-11.58l0 -43.14c-22.69,0 -45.39,0 -68.09,0l0 -137.97z"/>
   <path class="fil2" d="M2076.96 1368.49l-41.98 0 -4.76 0c-7.78,0 -14.33,-2.63 -19.51,-7.88 -5.19,-5.24 -7.8,-11.45 -7.8,-18.36 0,-6.98 2.61,-13.13 7.8,-18.36 5.18,-5.25 11.71,-7.88 19.51,-7.88l46.74 0 0 52.29 0 0.19zm-916.92 0l0 0c-11.71,0 -21.53,4.09 -29.89,12.54 -8.17,8.25 -12.23,18.17 -12.23,30.01l20.97 0 0 0c47.21,0 88.08,0 135.3,0 22.42,0 48.07,0 77.4,0 29.14,0 55.99,0 80.5,0 9.32,0 17.3,-3.39 23.76,-9.92 6.72,-6.78 10.01,-14.84 10.01,-24.18l0 -3.02c3.04,5.82 7.02,11.19 11.91,16.14 12.98,12.92 28.95,20.02 47.69,20.98l79.54 0c8.37,0 15.26,-3.02 20.97,-8.82 0.58,-0.6 1.17,-1.2 1.71,-1.81 0,3.54 0,7.09 0,10.63l41.74 21.37 0 -88.88c0,-7.88 2.61,-14.41 7.79,-19.64 5.19,-5.25 11.34,-7.88 18.18,-7.88 6.91,0 12.82,2.62 18.06,7.88 5.2,5.22 7.79,11.79 7.79,19.64l0 67.32 51.93 0c8.56,0 15.62,-3.18 21.35,-8.83 1.19,-1.18 2.23,-2.48 3.16,-3.81l0 12.83 41.75 21.37 0 -88.88c0,-7.88 2.61,-14.41 7.79,-19.64 5.19,-5.25 11.34,-7.88 18.18,-7.88 6.9,0 12.82,2.62 18.06,7.88 5.19,5.22 7.78,11.79 7.78,19.64l0 67.32 51.94 0c8.55,0 15.67,-3.13 21.35,-8.83 5.47,-5.5 8.37,-12.48 8.66,-20.77 2.43,3.41 5.23,6.67 8.38,9.76 13.54,13.31 29.9,20.6 48.65,20.03 0,0 25.58,0 25.58,0l21.16 -42.55 0 42.55 39.9 0c11.72,0 21.54,-4.09 29.9,-12.54 8.17,-8.26 12.23,-18.17 12.23,-30.01l-40.1 0 0 -95.04 -88.67 0c-18.74,0 -35.1,6.73 -48.65,20.04 -13.55,13.3 -20.4,29.43 -20.4,48.76 0,9.5 1.65,18.23 4.95,26.24l-33.14 0 0 -24.96c0,-19.14 -6.53,-35.59 -19.51,-49.28 -13.16,-13.88 -29.13,-20.8 -48.07,-20.8 -18.88,0 -34.94,7.02 -48.01,20.8 -13.07,13.79 -19.71,30.16 -19.71,49.28l0 24.96 -34.7 0 0 -24.96c0,-19.14 -6.53,-35.59 -19.51,-49.28 -13.16,-13.88 -29.14,-20.8 -48.08,-20.8 -18.88,0 -34.94,7.02 -48.01,20.8 -13.07,13.79 -19.7,30.16 -19.7,49.28l0 24.96 -27.87 0 0 -73.47 0 -21.37 -41.74 21.37 -0.19 18.56 0 54.91 -30.39 0c-7.77,0 -14.32,-2.63 -19.51,-7.88 -5.18,-5.24 -7.79,-11.45 -7.79,-18.36l0 -47.23 0 -21.37 -41.74 21.37 0 18.48 0 9.52 0 19.23c0,9.5 1.64,18.25 4.89,26.24l-45.5 0c7.41,-12.35 11.09,-26.43 11.09,-41.98 0,-24.39 -8.49,-45.18 -25.59,-62.46 -17.1,-17.22 -37.5,-25.86 -61.63,-25.86l-50.3 -0.19c-7.79,0 -14.25,-2.62 -19.44,-7.87 -5.2,-5.24 -7.79,-11.46 -7.79,-18.37 0,-6.97 2.59,-13.12 7.79,-18.36 5.19,-5.25 11.65,-7.88 19.44,-7.88l80.93 0 21.16 -42.55 -102.09 0c-18.85,0 -35.03,6.72 -48.77,20.03 -13.74,13.31 -20.58,29.44 -20.58,48.76 0,19.26 6.84,35.58 20.58,48.9 13.74,13.31 29.89,19.9 48.77,19.9l50.3 0.19c12.48,0 23.25,3.9 31.92,11.96 8.93,7.88 13.37,18.24 13.37,30.98 0,12.54 -4.44,23.23 -13.37,31.87 -8.67,8.64 -19.44,12.93 -31.92,12.93 -62.68,0 -118.99,0 -181.67,0z"/>
   <path class="fil3" d="M1163.65 1512.87c-10.51,0 -18.35,3.93 -23.51,11.8l-0.73 -9.89 -18.24 0 0 106.19 20.58 0 0 -37.16c4.96,6.39 11.73,9.58 20.29,9.58 9.54,0 17.33,-3.78 23.36,-11.35 6.03,-7.57 9.05,-17.41 9.05,-29.5 0,-11.99 -2.92,-21.63 -8.76,-28.9 -5.84,-7.18 -13.19,-10.77 -22.04,-10.77zm-5.99 62.24c-4.96,0 -9.03,-2.07 -12.19,-6.2 -3.16,-4.13 -4.74,-9.58 -4.74,-16.37 0,-6.78 1.56,-12.22 4.67,-16.29 3.11,-4.09 7.2,-6.13 12.26,-6.13 5.06,0 9.15,2.04 12.26,6.13 3.12,4.07 4.68,9.51 4.68,16.29 0,6.79 -1.56,12.24 -4.68,16.37 -3.11,4.13 -7.2,6.2 -12.26,6.2zm92.26 -62.24c-9.44,0 -16.64,4.03 -21.6,12.09l0 -39.08 -20.58 0 0 105.01 20.58 0 0 -40.71c0,-5.6 1.36,-10.1 4.09,-13.49 2.72,-3.39 6.27,-5.09 10.65,-5.09 3.5,0 6.2,1.13 8.1,3.39 1.9,2.26 2.85,5.46 2.85,9.59l0 46.31 20.58 0 0 -51.03c0,-8.36 -2.16,-14.95 -6.49,-19.76 -4.33,-4.82 -10.39,-7.23 -18.18,-7.23zm108.9 78.02c-1.94,-3.44 -2.91,-8.75 -2.91,-15.93l0 -33.63c0,-18.87 -10.86,-28.32 -32.56,-28.32 -20.15,0 -30.85,8.16 -32.11,24.49l18.83 0.29c0.48,-3.54 1.8,-6.09 3.94,-7.67 2.14,-1.57 5.3,-2.36 9.48,-2.36 8.47,0 12.71,2.76 12.71,8.26l0 5.61 -26.28 5.31c-15.28,3.05 -22.92,10.71 -22.92,23 0,6.98 2.38,12.59 7.15,16.82 4.77,4.23 11.1,6.34 18.98,6.34 10.12,0 17.86,-3.29 23.21,-9.88 0,0.2 0.54,2.75 1.61,7.67l20.87 0zm-39.85 -13.13c-3.7,0 -6.59,-0.84 -8.68,-2.5 -2.1,-1.68 -3.14,-3.89 -3.14,-6.64 0,-5.11 3.26,-8.31 9.78,-9.59l19.27 -4.13 0 5.61c0,5.3 -1.58,9.51 -4.75,12.61 -3.16,3.09 -7.32,4.64 -12.48,4.64zm91.38 -65.63c-8.07,0 -13.77,4.28 -17.08,12.83l0.3 -10.18 -20.15 0 0 76.11 20.58 0 0 -37.02c0,-14.65 6.23,-21.98 18.69,-21.98 0.29,0 1.7,0.1 4.23,0.3l0 -19.03c-1.94,-0.69 -4.13,-1.03 -6.57,-1.03zm102.92 0.74c-9.93,0 -17.32,4.57 -22.19,13.71 -3.69,-9.14 -10.9,-13.71 -21.6,-13.71 -8.96,0 -15.77,3.88 -20.44,11.65l-0.29 -9.74 -20.15 0 0 76.11 20.59 0 0 -40.71c0,-5.6 1.24,-10.1 3.72,-13.49 2.48,-3.39 5.72,-5.09 9.71,-5.09 3.3,0 5.81,1.15 7.51,3.47 1.71,2.3 2.56,5.33 2.56,9.06l0 46.76 20.58 0 0 -40.71c0,-5.6 1.24,-10.1 3.72,-13.49 2.48,-3.39 5.72,-5.09 9.71,-5.09 3.31,0 5.82,1.15 7.52,3.47 1.7,2.3 2.56,5.33 2.56,9.06l0 46.76 20.58 0 0 -50.89c0,-8.25 -2.14,-14.84 -6.43,-19.76 -4.28,-4.91 -10.17,-7.37 -17.66,-7.37zm108.32 78.02c-1.95,-3.44 -2.92,-8.75 -2.92,-15.93l0 -33.63c0,-18.87 -10.85,-28.32 -32.55,-28.32 -20.15,0 -30.85,8.16 -32.12,24.49l18.83 0.29c0.49,-3.54 1.8,-6.09 3.94,-7.67 2.15,-1.57 5.31,-2.36 9.49,-2.36 8.47,0 12.7,2.76 12.7,8.26l0 5.61 -26.27 5.31c-15.28,3.05 -22.92,10.71 -22.92,23 0,6.98 2.38,12.59 7.15,16.82 4.77,4.23 11.1,6.34 18.98,6.34 10.12,0 17.86,-3.29 23.21,-9.88 0,0.2 0.53,2.75 1.61,7.67l20.87 0zm-39.85 -13.13c-3.7,0 -6.6,-0.84 -8.69,-2.5 -2.09,-1.68 -3.14,-3.89 -3.14,-6.64 0,-5.11 3.26,-8.31 9.78,-9.59l19.27 -4.13 0 5.61c0,5.3 -1.58,9.51 -4.74,12.61 -3.17,3.09 -7.33,4.64 -12.48,4.64zm86.71 15.63c9.44,0 17.22,-2.53 23.36,-7.59 6.13,-5.06 9.97,-12.12 11.53,-21.17l-20.15 0c-2.33,8.36 -7.15,12.54 -14.45,12.54 -5.25,0 -9.34,-2.09 -12.26,-6.27 -2.92,-4.18 -4.38,-10.1 -4.38,-17.77 0,-7.67 1.46,-13.59 4.38,-17.77 2.92,-4.18 7.01,-6.27 12.26,-6.27 7.4,0 12.21,4.08 14.45,12.24l20.15 0c-1.56,-9.04 -5.35,-16.05 -11.39,-21.01 -6.03,-4.97 -13.86,-7.45 -23.5,-7.45 -11,0 -19.8,3.64 -26.42,10.91 -6.52,7.18 -9.78,16.96 -9.78,29.35 0,12.39 3.26,22.17 9.78,29.35 6.62,7.28 15.42,10.91 26.42,10.91zm119.56 -37.9c0,-12.98 -3.6,-23.35 -10.8,-31.12 -7.2,-7.67 -16.5,-11.5 -27.89,-11.5 -11.28,0 -20.29,3.73 -27,11.21 -6.71,7.47 -10.07,16.96 -10.07,28.46 0,12 3.5,21.83 10.51,29.5 7,7.67 16.59,11.5 28.76,11.5 8.66,0 15.95,-2.09 21.89,-6.26 5.94,-4.18 10.17,-10.3 12.7,-18.37l-20.44 -1.47c-2.43,6.59 -7.29,9.88 -14.59,9.88 -5.16,0 -9.3,-1.62 -12.41,-4.87 -3.12,-3.24 -4.87,-7.72 -5.26,-13.42l54.6 0 0 -3.54zm-26.57 -23.01c2.92,2.95 4.67,7.08 5.26,12.39l-33.43 0c0.48,-5.11 2.24,-9.24 5.25,-12.39 3.02,-2.95 6.86,-4.42 11.54,-4.42 4.67,0 8.46,1.47 11.38,4.42zm86.13 23.01c0,5.61 -1.36,10.11 -4.09,13.5 -2.72,3.39 -6.27,5.09 -10.65,5.09 -3.51,0 -6.21,-1.14 -8.11,-3.4 -1.89,-2.26 -2.84,-5.46 -2.84,-9.58l0 -46.32 -20.58 0 0 51.03c0,8.36 2.16,14.95 6.49,19.77 4.33,4.82 10.39,7.22 18.18,7.22 9.63,0 16.88,-4.07 21.75,-12.23l0.29 10.32 20.14 0 0 -76.11 -20.58 0 0 40.71zm76.35 -25.37l0 -15.34 -14.02 0.45 0 -23.89 -20.58 0 0 23.74 -10.22 -0.3 0 15.34 10.22 -0.44 0 39.82c0,7.67 1.63,13.16 4.89,16.45 3.26,3.29 8.69,4.94 16.28,4.94l13.43 0 0 -16.67 -6.86 0c-2.53,0 -4.36,-0.56 -5.48,-1.69 -1.12,-1.13 -1.68,-2.98 -1.68,-5.54l0 -37.31 14.02 0.44zm32.26 -25.36l0 -18.88 -20.58 0 0 18.88 20.58 0zm0 86.13l0 -76.11 -20.58 0 0 76.11 20.58 0zm49.78 2.5c9.44,0 17.22,-2.53 23.35,-7.59 6.14,-5.06 9.98,-12.12 11.54,-21.17l-20.15 0c-2.33,8.36 -7.15,12.54 -14.45,12.54 -5.25,0 -9.34,-2.09 -12.26,-6.27 -2.92,-4.18 -4.38,-10.1 -4.38,-17.77 0,-7.67 1.46,-13.59 4.38,-17.77 2.92,-4.18 7.01,-6.27 12.26,-6.27 7.39,0 12.21,4.08 14.45,12.24l20.15 0c-1.56,-9.04 -5.36,-16.05 -11.39,-21.01 -6.03,-4.97 -13.87,-7.45 -23.5,-7.45 -11,0 -19.81,3.64 -26.43,10.91 -6.52,7.18 -9.78,16.96 -9.78,29.35 0,12.39 3.26,22.17 9.78,29.35 6.62,7.28 15.43,10.91 26.43,10.91zm114.45 -2.5c-1.95,-3.44 -2.92,-8.75 -2.92,-15.93l0 -33.63c0,-18.87 -10.85,-28.32 -32.56,-28.32 -20.14,0 -30.85,8.16 -32.11,24.49l18.83 0.29c0.49,-3.54 1.8,-6.09 3.94,-7.67 2.14,-1.57 5.3,-2.36 9.49,-2.36 8.47,0 12.7,2.76 12.7,8.26l0 5.61 -26.27 5.31c-15.29,3.05 -22.93,10.71 -22.93,23 0,6.98 2.39,12.59 7.16,16.82 4.76,4.23 11.09,6.34 18.97,6.34 10.13,0 17.87,-3.29 23.22,-9.88 0,0.2 0.53,2.75 1.6,7.67l20.88 0zm-39.86 -13.13c-3.69,0 -6.59,-0.84 -8.68,-2.5 -2.09,-1.68 -3.14,-3.89 -3.14,-6.64 0,-5.11 3.26,-8.31 9.78,-9.59l19.27 -4.13 0 5.61c0,5.3 -1.58,9.51 -4.74,12.61 -3.17,3.09 -7.33,4.64 -12.49,4.64zm75.04 13.13l0 -105.01 -20.58 0 0 105.01 20.58 0z"/>
  </g>
 </g>
</svg>
