<?xml version="1.0" encoding="UTF-8"?>
<!DOCTYPE svg PUBLIC "-//W3C//DTD SVG 1.1//EN" "http://www.w3.org/Graphics/SVG/1.1/DTD/svg11.dtd">
<!-- Creator: CorelDRAW -->
<svg xmlns="http://www.w3.org/2000/svg" xml:space="preserve" width="22.8598mm" height="22.8598mm" version="1.1" style="shape-rendering:geometricPrecision; text-rendering:geometricPrecision; image-rendering:optimizeQuality; fill-rule:evenodd; clip-rule:evenodd"
viewBox="0 0 2285.98 2285.98"
 xmlns:xlink="http://www.w3.org/1999/xlink"
 xmlns:xodm="http://www.corel.com/coreldraw/odm/2003">
 <defs>
  <style type="text/css">
   <![CDATA[
    .fil5 {fill:#FEFEFE}
    .fil0 {fill:#FEFEFE}
    .fil2 {fill:#F9A032}
    .fil4 {fill:#057A7C}
    .fil1 {fill:#F9A032;fill-rule:nonzero}
    .fil3 {fill:#057A7C;fill-rule:nonzero}
   ]]>
  </style>
 </defs>
 <g id="Слой_x0020_1">
  <metadata id="CorelCorpID_0Corel-Layer"/>
  <g id="_1271618225888">
   <rect class="fil0" x="22.46" y="22.47" width="2241.06" height="2241.05" rx="1120.53" ry="1120.52"/>
   <path class="fil1" d="M1142.99 36.47c-304.28,0 -580.91,124.49 -781.47,325.05 -200.56,200.56 -325.05,477.19 -325.05,781.47 0,304.28 124.49,580.91 325.05,781.47 200.56,200.56 477.19,325.05 781.47,325.05 304.28,0 580.91,-124.49 781.47,-325.05 200.56,-200.56 325.05,-477.19 325.05,-781.47 0,-304.28 -124.49,-580.91 -325.05,-781.47 -200.56,-200.56 -477.19,-325.05 -781.47,-325.05zm0 -28.01c312.01,0 595.65,127.63 801.28,333.26 205.62,205.62 333.25,489.26 333.25,801.27 0,312.01 -127.63,595.65 -333.25,801.27 -205.63,205.63 -489.27,333.26 -801.28,333.26 -312.01,0 -595.65,-127.63 -801.28,-333.26 -205.62,-205.62 -333.26,-489.26 -333.26,-801.27 0,-312.01 127.64,-595.65 333.26,-801.27 205.63,-205.63 489.27,-333.26 801.28,-333.26z"/>
   <g>
    <path class="fil0" d="M1142.99 184.62c529.3,0 958.38,429.08 958.38,958.37 0,529.29 -429.08,958.37 -958.38,958.37 -529.3,0 -958.37,-429.08 -958.37,-958.37 0,-529.29 429.07,-958.37 958.37,-958.37z"/>
    <path class="fil2" d="M461.85 1705.67c-24.46,10.86 -53.35,4.36 -69,-17.16 -16.76,-23.05 -12.44,-55.26 9.01,-75.04 -27.03,11 -58.02,1.2 -71.74,-23.78 -14.17,-25.77 -4.84,-58.38 20.68,-74.87 -28.99,9.1 -60.04,-4.56 -70.81,-31.92 -10.42,-26.46 1.76,-56.48 27.36,-70.28 -28.84,3.75 -56.27,-13.49 -63.28,-41.05 -7.03,-27.64 8.96,-55.99 36.26,-66.38 -29.21,0.23 -54.4,-20.37 -57.9,-48.69 -3.45,-27.98 15.5,-53.8 43.35,-61.03 -28.52,-3.87 -50.4,-27.25 -50.31,-55.44 0.08,-28.01 21.82,-51.12 50.08,-55.04 -27.5,-7.6 -46,-33.38 -42.4,-61.15 3.7,-28.63 29.59,-49.23 59.24,-48.3 -27.83,-10.27 -44.11,-39.07 -36.81,-67 7.05,-26.98 33.67,-43.9 61.87,-40.83 -24.51,-14.29 -35.85,-43.73 -25.48,-69.61 10.43,-26.04 39.23,-39.51 66.98,-32.65 -22.83,-17.2 -30.57,-48.04 -16.96,-72.56 13.85,-24.95 44.92,-34.61 71.91,-23.45 -21.41,-19.87 -25.62,-52.14 -8.74,-75.14 16.53,-22.53 47.62,-28.43 72.73,-15.05 -17.63,-22.34 -17.37,-53.98 1.86,-74.26 19.85,-20.95 52.88,-22.36 76.3,-4.17 -16.43,-24.68 -12.62,-57.53 9.72,-75.8 21.65,-17.71 53.26,-15.64 74.24,3.62 -11.54,-26.04 -3.39,-56.65 20.31,-71.51 22.93,-14.38 52.8,-9.21 71.38,10.84 -6.71,-26.5 5.2,-54.38 29.74,-65.81 26.48,-12.33 58.17,-1.07 73.04,25.13 -6.82,-29.35 8.86,-59.1 36.69,-67.97 26.78,-8.55 55.57,5.19 67.89,31.07 -1.35,-28.64 17.54,-54.33 45.19,-59.45 27.79,-5.14 54.77,12.31 63.6,39.8 2.05,-28.8 24.11,-52.16 52.33,-53.77 28.88,-1.65 53.95,20.08 58.44,49.48 4.87,-29.34 30.21,-50.74 59.07,-48.72 25.56,1.78 45.82,21.37 50.64,46.48 11.14,-23.01 35.78,-36.71 60.93,-31.84 28.29,5.47 47.21,32.5 44.53,61.96 12.03,-27.03 41.72,-41.41 69.08,-32.4 28.02,9.22 43.45,39.6 35.86,69.15 14.94,-26.61 47.09,-37.9 73.71,-25.19 24.46,11.67 36.11,39.71 29.08,66.18 18.77,-19.94 48.74,-24.85 71.57,-10.24 22.82,14.62 30.91,43.89 20.65,69.28 21.1,-17.46 51.45,-18.62 72.29,-1.29 21.55,17.92 25.51,49.46 10.48,73.74 23.38,-16.41 55.09,-14.27 74.23,6.21 20.23,21.66 19.05,55.93 -2.1,78.19 25.94,-16.43 59.79,-10.93 77.1,13.12 15.93,22.12 12.53,52.53 -6.64,72.35 26.16,-8.71 55.05,1.38 68.11,25.31 12.93,23.7 6.04,53.12 -14.98,70.47 26.79,-5 53.79,8.57 63.69,33.69 10.89,27.63 -2.88,59.16 -30.85,72.04 30.23,-5.87 59.81,11.69 67.1,40.49 6.55,25.9 -7.09,52.39 -31.28,64.15 26.82,2.17 49.16,21.89 52.47,48.4 3.46,27.72 -15.07,53.36 -42.49,60.9 28.14,4.12 49.68,27.29 49.65,55.23 -0.04,28.65 -22.74,52.23 -51.94,55.38 28.55,6.88 48.04,33.18 44.39,61.6 -3.59,27.97 -28.35,48.3 -57.13,48.4 26.68,10.8 42.1,38.88 35.02,66.18 -7.23,27.92 -35.43,45.12 -64.71,40.56 26.29,13.67 38.82,44.24 28.12,71.02 -10.26,25.65 -38.36,39.13 -65.73,32.99 22.08,17.3 29.43,47.59 16.05,71.76 -13.1,23.68 -41.71,33.63 -67.67,25.1 18.69,19.94 21.75,50.08 5.82,71.95 -17.33,23.8 -50.9,29.19 -76.68,13 20.64,22.38 21.5,56.37 1.28,77.78 -18.68,19.77 -49.09,22.21 -72.15,7.24 13.39,24.02 8.91,54.2 -12.07,71.5 -22.1,18.23 -54.73,15.76 -75.77,-4.73 12.88,26.39 5.03,58.15 -19.2,73.44 -23.42,14.79 -54.17,9.14 -72.7,-12.03 7.82,27.03 -4.01,55.97 -29.09,67.72 -24.41,11.43 -53.28,2.8 -69.33,-19.15 3.27,26.99 -11.92,53.02 -37.55,61.34 -27.05,8.79 -56.27,-5.22 -68.48,-31.62 1.99,29.02 -16.9,55.36 -44.84,60.67 -27.65,5.25 -54.61,-11.9 -63.68,-39.14 -2.06,28.63 -23.94,51.92 -52.04,53.66 -26.98,1.68 -50.73,-17.08 -57.51,-43.52 -6.79,26.44 -30.55,45.19 -57.53,43.51 -28.51,-1.77 -50.62,-25.73 -52.1,-54.95 -8.69,27.94 -36.05,45.67 -64.11,40.32 -28.06,-5.35 -46.97,-31.91 -44.76,-61.09 -12.14,26.63 -41.52,40.77 -68.68,31.92 -27.16,-8.85 -42.57,-37.57 -36.7,-66.24 -15.4,24.88 -46.32,35.21 -72.15,23.01 -25.83,-12.2 -37.5,-42.64 -28.07,-70.33 -18.41,22.74 -50.38,29.08 -74.47,13.72 -23.64,-15.07 -31.54,-45.85 -19.67,-71.84 -21.13,19.23 -52.86,21.1 -74.43,3.18 -21.44,-17.81 -25.49,-49.09 -10.76,-73.32 -23.33,16.12 -54.79,13.92 -73.84,-6.44 -18.17,-19.42 -19.1,-49.03 -3.81,-70.99zm681.14 -1553.21c-547.05,0 -990.53,443.48 -990.53,990.53 0,547.05 443.48,990.53 990.53,990.53 547.06,0 990.53,-443.48 990.53,-990.53 0,-547.05 -443.47,-990.53 -990.53,-990.53z"/>
    <g>
     <g>
      <path class="fil1" d="M1738.82 1646.81l0 -3.12c-44.21,0 -84.29,-17.98 -113.33,-47.02 -29.05,-29.05 -47.03,-69.12 -47.03,-113.34 0,-44.21 17.98,-84.29 47.03,-113.33 29.04,-29.05 69.12,-47.03 113.33,-47.03 44.22,0 84.29,17.98 113.34,47.03 29.04,29.04 47.02,69.12 47.02,113.33l0 0c0,44.22 -17.98,84.29 -47.02,113.34 -29.05,29.04 -69.12,47.02 -113.34,47.02l0 6.23c91.87,-0.01 166.58,-74.72 166.59,-166.59 -0.01,-91.86 -74.72,-166.58 -166.59,-166.58 -91.86,0 -166.57,74.72 -166.58,166.58l0 0c0.01,91.87 74.72,166.58 166.58,166.59l0 -3.11z"/>
      <path class="fil1" d="M1738.82 1615.68l0 -3.11c-35.63,0 -67.92,-14.49 -91.34,-37.9 -23.41,-23.41 -37.89,-55.7 -37.9,-91.34 0.01,-35.63 14.49,-67.92 37.9,-91.34 23.42,-23.41 55.71,-37.89 91.34,-37.9 35.64,0.01 67.93,14.49 91.34,37.9 23.41,23.42 37.9,55.71 37.9,91.34 0,35.64 -14.49,67.93 -37.9,91.34 -23.41,23.41 -55.7,37.9 -91.34,37.9l0 6.23c74.71,-0.01 135.46,-60.76 135.46,-135.47 0,-74.7 -60.75,-135.45 -135.46,-135.46 -74.7,0.01 -135.45,60.76 -135.46,135.46 0.01,74.71 60.76,135.46 135.46,135.47l0 -3.12z"/>
      <path class="fil1" d="M1738.82 1584.56l0 -3.11c-27.05,0 -51.56,-11 -69.34,-28.77 -17.78,-17.78 -28.77,-42.29 -28.77,-69.35l0 0c0,-27.05 10.99,-51.56 28.77,-69.34 17.78,-17.78 42.29,-28.77 69.34,-28.77 27.06,0 51.57,10.99 69.35,28.77 17.77,17.78 28.77,42.29 28.77,69.34 0,27.06 -11,51.57 -28.77,69.35 -17.78,17.77 -42.29,28.77 -69.35,28.77l0 6.23c57.55,-0.01 104.34,-46.8 104.34,-104.35l0 0c0,-57.54 -46.79,-104.33 -104.34,-104.34 -57.54,0.01 -104.33,46.8 -104.34,104.34 0.01,57.55 46.8,104.34 104.34,104.35l0 -3.12z"/>
      <path class="fil1" d="M1738.82 1553.44l0 -3.11c-18.47,0 -35.2,-7.51 -47.35,-19.65 -12.13,-12.14 -19.64,-28.87 -19.64,-47.35 0,-18.47 7.51,-35.2 19.64,-47.35 12.15,-12.14 28.88,-19.64 47.35,-19.64 18.48,0 35.21,7.5 47.35,19.64 12.14,12.15 19.65,28.88 19.65,47.35 0,18.48 -7.51,35.21 -19.65,47.35 -12.14,12.14 -28.87,19.65 -47.35,19.65l0 6.22c40.38,0 73.22,-32.83 73.22,-73.22 0,-40.38 -32.84,-73.21 -73.22,-73.22 -40.38,0.01 -73.21,32.84 -73.22,73.22 0.01,40.39 32.84,73.22 73.22,73.22l0 -3.11z"/>
      <path class="fil1" d="M1777.81 1483.33l-3.11 0c0,9.92 -4.01,18.87 -10.51,25.37 -6.5,6.5 -15.45,10.51 -25.37,10.51 -9.91,0 -18.86,-4.01 -25.36,-10.51 -6.5,-6.5 -10.51,-15.45 -10.51,-25.37 0,-9.91 4.01,-18.86 10.51,-25.36 6.5,-6.5 15.45,-10.51 25.36,-10.51 9.92,0 18.87,4.01 25.37,10.51 6.5,6.5 10.51,15.45 10.51,25.36l6.22 0c0,-23.25 -18.85,-42.09 -42.1,-42.09 -23.25,0 -42.09,18.84 -42.1,42.09 0.01,23.26 18.85,42.1 42.1,42.1 23.25,0 42.1,-18.84 42.1,-42.1l-3.11 0z"/>
     </g>
     <g>
      <path class="fil1" d="M609.02 1678.19l0 -1.92c-27.3,0 -52.04,-11.1 -69.97,-29.03 -17.93,-17.94 -29.03,-42.67 -29.03,-69.97 0,-27.3 11.1,-52.04 29.03,-69.97 17.93,-17.93 42.67,-29.03 69.97,-29.03 27.3,0 52.04,11.09 69.97,29.03 17.93,17.93 29.03,42.67 29.03,69.97l0 0c0,27.3 -11.1,52.03 -29.03,69.97 -17.93,17.93 -42.67,29.03 -69.97,29.03l0 3.84c56.72,0 102.84,-46.13 102.85,-102.84 -0.01,-56.72 -46.13,-102.84 -102.85,-102.85 -56.71,0.01 -102.84,46.13 -102.84,102.85l0 0c0,56.71 46.13,102.84 102.84,102.84l0 -1.92z"/>
      <path class="fil1" d="M609.02 1658.98l0 -1.93c-22,0 -41.93,-8.94 -56.39,-23.39 -14.45,-14.46 -23.4,-34.39 -23.4,-56.39 0,-22 8.95,-41.94 23.4,-56.39 14.46,-14.46 34.39,-23.4 56.39,-23.4 22,0 41.94,8.94 56.39,23.4 14.45,14.45 23.4,34.39 23.4,56.39 0,22 -8.95,41.93 -23.4,56.39 -14.45,14.45 -34.39,23.39 -56.39,23.39l0 3.85c46.12,-0.01 83.63,-37.51 83.63,-83.63 0,-46.12 -37.51,-83.63 -83.63,-83.63 -46.12,0 -83.63,37.51 -83.63,83.63 0,46.12 37.51,83.62 83.63,83.63l0 -1.92z"/>
      <path class="fil1" d="M609.02 1639.76l0 -1.92c-16.7,0 -31.83,-6.79 -42.81,-17.76 -10.97,-10.98 -17.76,-26.11 -17.76,-42.81l0 0c0,-16.71 6.79,-31.84 17.76,-42.82 10.98,-10.97 26.11,-17.76 42.81,-17.76 16.71,0 31.84,6.79 42.81,17.76 10.98,10.98 17.77,26.11 17.77,42.82 0,16.7 -6.79,31.83 -17.77,42.81 -10.97,10.97 -26.1,17.76 -42.81,17.76l0 3.84c35.53,0 64.41,-28.89 64.42,-64.41l0 0c-0.01,-35.53 -28.89,-64.42 -64.42,-64.42 -35.52,0 -64.41,28.89 -64.41,64.42 0,35.52 28.89,64.41 64.41,64.41l0 -1.92z"/>
      <path class="fil1" d="M609.02 1620.55l0 -1.92c-11.4,0 -21.73,-4.64 -29.23,-12.13 -7.49,-7.5 -12.13,-17.83 -12.13,-29.23 0,-11.41 4.64,-21.74 12.13,-29.24 7.5,-7.49 17.83,-12.12 29.23,-12.12 11.41,0 21.74,4.63 29.23,12.12 7.5,7.5 12.13,17.83 12.13,29.24 0,11.4 -4.63,21.73 -12.13,29.23 -7.49,7.49 -17.82,12.13 -29.23,12.13l0 3.84c24.93,0 45.2,-20.27 45.21,-45.2 -0.01,-24.93 -20.28,-45.2 -45.21,-45.21 -24.93,0.01 -45.2,20.28 -45.2,45.21 0,24.93 20.27,45.2 45.2,45.2l0 -1.92z"/>
      <path class="fil1" d="M633.09 1577.27l-1.92 0c0,6.12 -2.48,11.64 -6.49,15.66 -4.01,4.01 -9.54,6.48 -15.66,6.48 -6.12,0 -11.64,-2.47 -15.66,-6.48 -4.01,-4.02 -6.49,-9.54 -6.49,-15.66 0,-6.12 2.48,-11.65 6.49,-15.66 4.02,-4.01 9.54,-6.49 15.66,-6.49 6.12,0 11.65,2.48 15.66,6.49 4.01,4.01 6.49,9.54 6.49,15.66l3.84 0c0,-14.36 -11.63,-25.99 -25.99,-25.99 -14.35,0 -25.99,11.63 -25.99,25.99 0,14.35 11.64,25.99 25.99,25.99 14.36,0 25.99,-11.64 25.99,-25.99l-1.92 0z"/>
     </g>
     <path class="fil1" d="M331.23 1405.15l76.18 -6.92 4.07 -21.34c-7.03,-0.62 -10.36,-3.68 -10.36,-9.13 0,-2.1 1.11,-5.55 2.96,-9.91l28.48 -63.83 80.25 -7.28 5.18 46.09c0.73,7.48 1.47,12.87 1.47,16.22 0,11.75 -3.7,17.12 -14.42,19.77l-4.44 20.96 95.78 -8.7 3.7 -21.3c-9.24,-2.1 -12.57,-8.09 -14.42,-20.51l-36.24 -247.14 -64.72 5.88 -128.7 266.3c-4.81,10.08 -8.87,16.75 -21.08,19.95l-3.69 20.89zm120.56 -153.56l45.12 -99.74 11.09 94.63 -56.21 5.11zm144.97 105.13c22.92,17.22 51.03,24.32 83.94,21.33 57.7,-5.24 94.31,-41.69 94.31,-89.94 0,-28.52 -17.75,-40.33 -55.84,-50.72 -23.3,-6.27 -34.39,-9.47 -34.39,-19.53 0,-10.91 10.35,-19.82 25.88,-21.23 21.45,-1.94 31.07,5.99 31.07,26.13l12.2 6.44 31.81 -43.57c-19.6,-17.52 -46.6,-25.14 -78.41,-22.25 -48.81,4.43 -82.47,40.2 -82.47,77.95 0,26.85 15.91,40.09 49.19,49.65 25.51,7.33 41.42,7.57 41.42,24.35 0,16.36 -13.31,26.8 -37.35,28.98 -21.83,1.98 -36.24,-8.88 -36.24,-21.04 0,-2.94 0.73,-5.52 2.21,-8.18l-15.16 -9.53 -32.17 51.16zm197.48 6.41l58.43 -5.3 29.59 -152.86c10.72,-12.3 21.08,-18.69 30.32,-19.53 11.84,-1.07 18.5,5.87 18.5,20.21 0,3.35 -0.37,7.16 -1.12,11.42l-26.62 136.17 56.21 -5.11 29.96 -154.57c7.39,-10.73 17.38,-16.68 28.47,-17.68 13.31,-1.21 19.97,5.32 19.97,20.07 0,3.36 -0.37,7.16 -1.11,11.43l-14.79 77.89c-1.48,7.83 -2.22,14.61 -2.22,20.48 0,25.59 15.16,40.57 39.95,38.32 19.22,-1.74 39.19,-11.94 58.43,-30.89l-12.21 -20.29c-5.55,3.87 -10.73,6.01 -15.16,6.42 -7.03,0.64 -11.1,-3.61 -11.1,-11.58 0,-2.51 0.37,-5.49 0.74,-8.04l16.28 -85.37c1.11,-5.97 1.84,-11.91 1.84,-17.36 0,-29.79 -20.34,-47.66 -51.03,-44.88 -19.23,1.75 -41.05,12.12 -63.24,31.33 -10.35,-16.68 -24.04,-23.41 -43.64,-21.63 -17.38,1.58 -34.76,10.29 -54.73,25.52l3.33 -20.85 -73.97 11.74 -3.7 20.47c10.36,-0.1 14.42,4.15 14.42,14.64 0,2.93 -0.37,7.16 -1.47,12.72l-30.33 157.11zm332.47 -119.09c0,57.47 35.14,91.19 91.72,86.06 33.28,-3.02 62.5,-19.1 82.1,-43.95 19.97,-24.88 31.06,-56.09 31.06,-86.71 0,-56.21 -35.5,-89.49 -92.08,-84.35 -65.83,5.97 -112.8,63.09 -112.8,128.95zm112.43 -91.16c21.45,-1.95 31.8,11.79 31.8,40.73 0,53.7 -24.04,95.31 -52.51,97.89 -21.08,1.92 -31.44,-11.4 -31.44,-41.19 0,-53.27 24.78,-94.95 52.15,-97.43zm180.47 77.58c14.06,54.52 28.11,78.41 59.91,75.52 18.49,-1.67 36.62,-12.54 52.52,-31.61l-12.95 -18.96c-5.55,5.12 -10.35,8.08 -15.16,8.51 -7.03,0.64 -12.94,-4.28 -15.9,-13.24l-19.6 -62.82c14.79,-34.9 31.43,-51.93 42.16,-52.9 7.77,-0.71 9.98,4.54 10.35,17.93l16.64 -1.51 10.73 -60.53c-7.4,-1.43 -14.06,-2.08 -20.34,-1.51 -26.26,2.38 -51.41,25.21 -70.26,66.78l-14.43 -54.91 -64.35 5.84 -3.7 19.64c10.73,1.54 12.95,4.27 15.9,13.23l17.39 56.31c-13.69,38.16 -26.26,57.76 -35.88,58.63 -5.91,0.53 -9.24,-2.94 -9.24,-10.49 0,-1.25 0.37,-2.54 0.37,-3.81l-18.49 1.68 -12.57 72.88c5.91,1.97 11.83,2.7 17.01,2.23 25.88,-2.35 48.81,-31.28 69.89,-86.89zm131.28 -24.91c0,57.47 35.14,91.19 91.72,86.06 33.29,-3.02 62.5,-19.1 82.11,-43.94 19.96,-24.89 31.06,-56.1 31.06,-86.72 0,-56.21 -35.5,-89.49 -92.09,-84.35 -65.83,5.97 -112.8,63.09 -112.8,128.95zm112.43 -91.16c21.45,-1.95 31.81,11.79 31.81,40.74 0,53.69 -24.04,95.3 -52.52,97.89 -21.08,1.91 -31.43,-11.41 -31.43,-41.2 0,-53.27 24.78,-94.95 52.14,-97.43zm106.51 160.22l58.44 -5.3 29.95 -152.89c11.47,-12.37 22.56,-18.83 32.18,-19.7 12.2,-1.11 19.23,5.8 19.23,19.22 0,3.36 -0.74,8.04 -1.48,12.31l-14.8 77.68c-1.48,8.11 -2.22,14.89 -2.22,20.76 0,25.59 15.17,40.57 39.57,38.36 19.24,-1.75 39.21,-11.95 58.44,-30.89l-12.2 -20.29c-5.55,3.86 -10.36,5.98 -15.17,6.41 -6.66,0.61 -11.09,-3.61 -11.09,-11.58 0,-2.51 0.37,-5.07 0.73,-7.62l16.28 -86.21c1.1,-5.97 1.85,-11.49 1.85,-16.94 0,-29.79 -20.34,-47.66 -50.67,-44.9 -17.75,1.61 -35.87,9.96 -56.58,25.68l2.59 -20.37 -73.97 11.33 -3.7 20.47c10.36,-0.1 14.43,4.15 14.43,14.63 0,2.94 -0.37,6.75 -1.48,12.3l-30.33 157.54z"/>
     <path class="fil3" d="M316.03 1388.61l76.19 -6.92 4.06 -21.34c-7.02,-0.62 -10.35,-3.68 -10.35,-9.13 0,-2.1 1.11,-5.55 2.96,-9.91l28.47 -63.83 80.26 -7.29 5.18 46.1c0.73,7.48 1.47,12.87 1.47,16.22 0,11.75 -3.7,17.12 -14.42,19.77l-4.44 20.96 95.79 -8.7 3.69 -21.3c-9.25,-2.1 -12.57,-8.09 -14.42,-20.51l-36.24 -247.14 -64.72 5.88 -128.7 266.3c-4.81,10.08 -8.88,16.75 -21.08,19.95l-3.7 20.89zm120.56 -153.56l45.12 -99.74 11.1 94.63 -56.22 5.11zm144.98 105.13c22.93,17.22 51.03,24.32 83.94,21.33 57.7,-5.24 94.31,-41.7 94.31,-89.94 0,-28.52 -17.75,-40.33 -55.85,-50.72 -23.29,-6.27 -34.39,-9.47 -34.39,-19.53 0,-10.91 10.36,-19.82 25.89,-21.23 21.45,-1.94 31.07,5.99 31.07,26.13l12.2 6.44 31.81 -43.57c-19.61,-17.52 -46.6,-25.14 -78.41,-22.25 -48.82,4.43 -82.47,40.2 -82.47,77.95 0,26.85 15.9,40.09 49.19,49.65 25.52,7.33 41.42,7.57 41.42,24.35 0,16.36 -13.32,26.79 -37.35,28.98 -21.82,1.98 -36.25,-8.88 -36.25,-21.04 0,-2.94 0.74,-5.52 2.22,-8.18l-15.16 -9.53 -32.17 51.16zm197.48 6.41l58.43 -5.3 29.59 -152.86c10.72,-12.3 21.08,-18.69 30.32,-19.53 11.84,-1.07 18.49,5.87 18.49,20.21 0,3.35 -0.36,7.16 -1.1,11.42l-26.63 136.17 56.21 -5.11 29.96 -154.57c7.39,-10.73 17.38,-16.68 28.47,-17.68 13.32,-1.21 19.98,5.32 19.98,20.07 0,3.36 -0.37,7.16 -1.11,11.43l-14.8 77.89c-1.47,7.83 -2.22,14.61 -2.22,20.48 0,25.59 15.16,40.57 39.94,38.32 19.23,-1.74 39.2,-11.94 58.44,-30.89l-12.21 -20.29c-5.55,3.87 -10.72,6.01 -15.16,6.42 -7.03,0.64 -11.1,-3.61 -11.1,-11.58 0,-2.51 0.37,-5.49 0.74,-8.04l16.28 -85.37c1.11,-5.97 1.84,-11.91 1.84,-17.36 0,-29.79 -20.34,-47.66 -51.03,-44.88 -19.23,1.75 -41.05,12.12 -63.24,31.33 -10.35,-16.68 -24.04,-23.41 -43.64,-21.63 -17.38,1.58 -34.76,10.29 -54.73,25.52l3.33 -20.85 -73.97 11.74 -3.69 20.47c10.35,-0.1 14.41,4.15 14.41,14.64 0,2.93 -0.37,7.16 -1.47,12.72l-30.33 157.11zm332.47 -119.09c0,57.47 35.14,91.19 91.72,86.06 33.28,-3.02 62.5,-19.1 82.1,-43.95 19.97,-24.88 31.07,-56.09 31.07,-86.71 0,-56.21 -35.51,-89.49 -92.09,-84.35 -65.83,5.97 -112.8,63.09 -112.8,128.95zm112.43 -91.16c21.45,-1.95 31.8,11.79 31.8,40.73 0,53.7 -24.03,95.31 -52.51,97.89 -21.08,1.92 -31.43,-11.41 -31.43,-41.19 0,-53.27 24.77,-94.95 52.14,-97.43zm180.47 77.58c14.06,54.52 28.1,78.41 59.91,75.52 18.49,-1.67 36.62,-12.54 52.52,-31.61l-12.95 -18.96c-5.54,5.12 -10.35,8.08 -15.16,8.51 -7.03,0.64 -12.95,-4.28 -15.9,-13.24l-19.6 -62.82c14.79,-34.9 31.43,-51.93 42.16,-52.9 7.76,-0.71 9.98,4.54 10.35,17.93l16.64 -1.51 10.73 -60.54c-7.39,-1.42 -14.06,-2.07 -20.34,-1.5 -26.26,2.38 -51.4,25.21 -70.27,66.78l-14.42 -54.91 -64.35 5.84 -3.7 19.64c10.73,1.54 12.95,4.27 15.91,13.23l17.38 56.31c-13.69,38.16 -26.26,57.76 -35.88,58.63 -5.92,0.53 -9.24,-2.94 -9.24,-10.49 0,-1.25 0.37,-2.54 0.37,-3.81l-18.49 1.68 -12.58 72.88c5.92,1.97 11.84,2.7 17.01,2.23 25.89,-2.35 48.82,-31.28 69.9,-86.89zm131.29 -24.92c0,57.47 35.13,91.2 91.71,86.07 33.29,-3.02 62.5,-19.1 82.1,-43.94 19.97,-24.89 31.07,-56.1 31.07,-86.72 0,-56.21 -35.51,-89.49 -92.09,-84.35 -65.83,5.97 -112.79,63.09 -112.79,128.94zm112.42 -91.15c21.46,-1.95 31.81,11.79 31.81,40.74 0,53.69 -24.04,95.3 -52.52,97.89 -21.07,1.91 -31.43,-11.41 -31.43,-41.2 0,-53.27 24.77,-94.95 52.14,-97.43zm106.51 160.22l58.43 -5.3 29.96 -152.89c11.46,-12.37 22.56,-18.83 32.18,-19.7 12.2,-1.11 19.22,5.8 19.22,19.22 0,3.36 -0.74,8.04 -1.47,12.31l-14.8 77.68c-1.48,8.11 -2.22,14.89 -2.22,20.76 0,25.59 15.17,40.57 39.57,38.36 19.23,-1.75 39.21,-11.95 58.44,-30.89l-12.21 -20.29c-5.54,3.86 -10.35,5.98 -15.16,6.41 -6.66,0.61 -11.09,-3.61 -11.09,-11.58 0,-2.51 0.37,-5.07 0.73,-7.62l16.28 -86.21c1.11,-5.97 1.85,-11.49 1.85,-16.94 0,-29.79 -20.34,-47.66 -50.67,-44.9 -17.75,1.61 -35.87,9.96 -56.58,25.68l2.59 -20.37 -73.97 11.33 -3.69 20.47c10.35,-0.1 14.41,4.15 14.41,14.63 0,2.94 -0.37,6.75 -1.47,12.3l-30.33 157.54z"/>
     <g>
      <path class="fil2" d="M646.33 1116.53l6.65 -0.24 21.5 -8.65c61.86,-21.19 96.79,-30.28 163.29,-45.62 67.18,-15.51 140.25,-23.89 211.91,-30.05 135.56,-11.66 284.55,-4.92 419.94,16.06 6.56,1.01 8.89,0.4 8.43,-5.9 -6.44,-7.3 -76.14,-27.66 -92.19,-31.83 -221.53,-57.52 -443.92,-25.47 -653.36,57.42 -18.35,7.26 -73.98,31.85 -87.7,41.57l1.53 7.24z"/>
      <path class="fil4" d="M631.22 1105.79l6.65 -0.24 21.5 -8.65c61.86,-21.18 96.79,-30.27 163.29,-45.62 67.18,-15.5 140.25,-23.88 211.91,-30.05 135.56,-11.65 284.55,-4.92 419.94,16.06 6.56,1.02 8.89,0.41 8.43,-5.9 -6.44,-7.3 -76.14,-27.66 -92.19,-31.83 -221.53,-57.51 -443.92,-25.47 -653.36,57.42 -18.35,7.27 -73.98,31.85 -87.69,41.58l1.52 7.23z"/>
     </g>
     <path class="fil2" d="M1617.22 858.32c-25.51,-19.94 -47.28,-34.93 -85.26,-48.28 -47.88,-16.84 -77.28,-18.53 -104.16,-27.18 37.09,-0.82 85.88,4.45 118.49,14.8 34.39,10.91 60.85,29.49 70.93,60.66zm-867.12 36.86l84.24 -22.64c39,-12.66 98.78,-23.67 141.01,-28.71 35.04,-4.18 79.03,-7.34 112.69,5.35 13.43,5.06 16.16,10.7 24.88,18.07 -5.84,10.57 -9.84,22.98 10.6,22.3 8.92,-8.22 6.3,-7.76 5.19,-19.57 13.98,-21.12 29.61,-35.71 66.7,-30.8 59.78,7.91 80.85,40.32 105.28,44.66 20.05,3.56 22.39,-9.7 34.46,-15.16 37.12,-16.76 42.21,18.5 43.38,49.16 -5.09,6.23 -7.34,8.72 -5.97,20.57 5.98,6.06 15.09,13.24 24.87,4.48 9.73,-8.71 1.46,-17.55 -1.06,-25.05l4.39 -9.1c-15.81,-12.46 -5.27,-45.03 14.99,-40.46 21.03,4.74 20.85,72.42 55.71,49.08 7.21,-4.82 10.57,-13.77 24.38,-13.14 17.57,0.79 30.33,24.33 36.86,40.64 19.37,48.42 7.62,52.57 7.16,60.8 -1.44,25.88 41.9,21.24 32.88,-5.1 -2.75,-8.04 -4.21,-2.78 -7.15,-10.75 -16.69,-45.13 45.35,-54.34 50.52,10.54 -13.95,10.4 -4.17,30.21 11.48,29.56 8.01,-0.33 25.4,-11.75 8.73,-32.3 6.93,-29.09 6.93,-101.65 2.44,-132.72 -15.78,-109.27 -240.42,-104.12 -324.28,-104.12 -143.55,0.01 -242.9,10.69 -376,50.33 -31.01,9.23 -173.06,60.55 -188.38,84.08z"/>
     <path class="fil2" d="M829.61 832.21c6.14,-7.25 25.91,-13.76 34.47,-17.78 148.67,-69.92 329.76,-103.05 494.28,-97.58 51.43,1.7 96.08,7.1 145.94,15.16 13.47,2.18 33.02,7.28 45.29,7.68 -112.82,-56.18 -257.46,-75.74 -400.56,-67.56 -72.09,4.12 -239.55,14.45 -294.36,61.2 -28.29,24.14 -44.84,65.68 -25.06,98.88z"/>
     <path class="fil2" d="M1424.04 640.65c-7.78,-4.95 -11.9,-10.82 -22.83,-16.88 -25.15,-13.97 -61.41,-22.22 -90.07,-25.93 50.15,-5.17 100.33,1.66 112.9,42.81zm-513.22 26.61l128.44 -18.83c94.65,-11 187.26,-12.91 281.94,1.7 44.52,6.87 81.42,18.41 123.14,27.11 2.78,-62.33 -31.01,-82.6 -87.41,-91.3 -79.8,-12.32 -242.19,4.57 -320.67,29.74 -23.32,7.48 -44.23,14.87 -66.26,23.49 -11.07,4.34 -56.7,27.77 -59.18,28.09z"/>
     <path class="fil4" d="M1211.92 512.86c-11.79,-13.19 -8,-27.47 13.67,-23.91 7.61,11.67 7.97,14.98 -0.98,23.97l-12.69 -0.06zm-30.2 -45.73l-7.49 3.28c-17.96,5.2 -31.24,12.29 -37.83,33.98 -7.96,26.17 2.72,46.44 9.8,66.75 41.58,-5.43 52.5,-5.87 94.76,-1.96 6.78,-21.93 22.03,-37.82 12.21,-68.61 -7.53,-23.61 -28.15,-29.87 -56.92,-32.87 -13.86,-16.16 -29.6,-57.64 -38.54,-81.11 -5.44,-14.31 -12.35,-30.39 -13.57,-47.07 -1.6,-21.73 6.04,-32.65 13.12,-48.04 -29.69,12.69 -29.87,56.3 -15.94,89.52 12.32,29.39 32.28,53.96 40.4,86.13z"/>
     <path class="fil4" d="M1097.53 499.89c-73.09,-8.01 -52.5,78.89 -34.33,84.55 8.15,-0.67 17.67,-4.79 27.04,-6.8 9.84,-2.11 20.71,-2.75 31.32,-4.29 0.16,-3.76 -6.34,-19.59 -7.35,-28.82 -1.81,-16.57 1.83,-23.1 3.53,-37.57l-12.2 -4.39c0.16,-38.51 48.19,-122.52 -1.01,-139.34l1.62 2.92c0.86,1.22 2.01,2.52 2.7,3.49 13.33,18.58 7.06,41.51 3.32,60.83 -2.16,11.21 -4,23.88 -6.32,35.3 -2.43,11.89 -6.42,23.47 -8.32,34.12z"/>
     <path class="fil5" d="M1617.22 858.32c-10.08,-31.17 -36.54,-49.75 -70.93,-60.66 -32.61,-10.35 -81.4,-15.62 -118.49,-14.8 26.88,8.65 56.28,10.34 104.16,27.18 37.98,13.35 59.75,28.34 85.26,48.28z"/>
     <path class="fil5" d="M1424.04 640.65c-12.57,-41.15 -62.75,-47.98 -112.9,-42.81 28.66,3.71 64.92,11.96 90.07,25.93 10.93,6.06 15.05,11.93 22.83,16.88z"/>
    </g>
    <g>
     <path class="fil0" d="M1572.29 1632.33c-2.28,7.39 -3.99,18.76 -4.39,26.54 15.52,-0.77 27.49,-1.84 43.21,0.58 5.92,0.91 13.52,5.25 18.45,4 1.51,-8.82 -3.54,-20.4 -7.75,-24.79 -9.76,-10.19 -35.65,-6.94 -49.52,-6.33zm-79.01 -207.34c-2.58,45.73 -36.09,99.04 -24.41,139.85 2.41,8.4 8.19,16.33 14.11,20.02 6.99,4.35 17.64,6.54 27.33,5.12 5.06,-0.75 9.04,-2.21 13.34,-3.86 4.92,-1.9 7.37,-3.87 11.76,-5.83l-12.5 56.34c-0.89,1.08 -0.53,0.86 -4.28,1.46 -25.97,4.16 -46.65,6.47 -74.68,11.84 -26.18,5.02 -50.89,10.64 -76.17,17.03 -24.71,6.25 -48.81,12.92 -73.12,19.92 -24.19,6.97 -47.64,14.76 -71.62,21.49 -64.17,17.99 -199.33,66.23 -267.89,53.65 -6.54,-1.2 -12.53,-2.89 -18.18,-5.07l-13.58 -6.16c-4.05,-0.29 -1.22,0.09 -2.28,0.95 -2.64,3.94 1.64,13.38 3.37,17.86 7.64,19.8 27.93,23.74 48.26,24.09 70.48,1.21 170.24,-33.8 236.35,-52.43 12.47,-3.51 23.92,-7.35 36.36,-11.13 75.44,-22.93 198.02,-59.52 273.33,-65.66 -3.46,29.09 -14.34,69.5 4.38,87.55 5.74,5.55 16.24,9.2 26.26,8.19 0.45,-2.55 -3.18,-11.82 -4.16,-22.3 -3.55,-37.9 15.86,-135.82 25.35,-169.34 13.23,-46.78 22.47,-81.29 39.32,-126.41 7.56,-20.28 16.38,-23.84 3.07,-24.33 -25.15,-0.92 -31.12,8.9 -39.19,30.22 -5.18,13.7 -9.57,27.6 -14.07,41.79 -7.93,24.98 -14.87,67.15 -33.63,77.13 -10.2,5.42 -28.76,1.32 -26.8,-24.17 1.1,-14.33 6.32,-32.65 10.54,-45.61 6,-18.4 20.92,-48.79 2.69,-63.22 -4.38,-3.47 -11.4,-8.84 -19.26,-8.98zm-237.93 149.43c0,-19.04 15.49,-64.4 29.05,-77.64 2.65,-2.59 4.38,-5.91 9.8,-5.43 4.19,3.7 5.36,9.84 5.36,17.13 0,27.22 -19.77,69.11 -36.61,69.11 -2.16,0 -7.6,-1.27 -7.6,-3.17zm115.87 -107.49c-3.63,28.97 -25.39,89.49 -39.3,114 -4.79,8.44 -9.18,16.2 -14.88,22.89l-9.09 9.8c-9.93,11.15 -26.97,18.19 -39.67,7.78 -2.09,-1.71 -5.9,-7.6 -7.72,-11.15 -2.26,-4.39 -3.93,-9.7 -4.87,-15.05 52.5,18.04 95.98,-82.41 62.26,-117.94 -17,-17.92 -44.55,-7.77 -55.52,2.72l-9.3 9.5c-24.33,31.86 -41.91,91.09 -23.14,125.54 19.24,35.29 54.82,38.68 87.99,21.37 16.36,-8.54 28.01,-24.63 37.98,-39.22 5.87,-8.6 13.52,-23.28 18.03,-34.16 9.55,-23.09 20.28,-53.42 24.58,-80.38 24.4,6.26 23.45,18.39 18.39,41.69 -6.36,29.32 -20.65,81.97 11.35,99.59 20.44,11.25 41.17,-4.91 40.74,-15.78 -20.04,3.16 -29.69,-9.48 -30.78,-28.3 -1.92,-33 22.29,-72.08 2.17,-103.64 -13.08,-20.53 -34.37,-18.97 -35.73,-25.51 -0.98,-4.72 7.41,-42.94 -16.97,-52.22 -19.11,-7.27 -34.26,11.18 -32.76,36.9 0.41,7 2.24,12.58 5.07,18.26 2.84,5.71 6.92,9.49 11.17,13.31zm-257.62 237.34c2.69,-26.18 1.7,-22.38 7.3,-49.46 3.27,-15.79 7.06,-31.77 10.11,-47.81l31.52 37.36c10,10.2 23.62,26.97 39.93,29.03 7.12,0.89 12.94,-1.29 17.88,-4.79 4.39,-3.11 10.12,-6.59 10.8,-13.05 -17.78,-1.83 -34.75,-19.56 -45.4,-31.96l-26.57 -30.91c-3.09,-3.68 -7.55,-5.86 -10.35,-9.34l6.14 -5.2c4.34,-3.82 8.46,-6.39 12.38,-11 11.89,-14.01 23.87,-21.18 39.71,-42.93 8.2,-11.25 11.65,-23.53 6.44,-37.09 -2.15,-5.59 -5.13,-12.91 -10.37,-13.95 -6.67,9.63 -6.74,18.9 -27.57,39.95 -5.69,5.75 -11.23,10.9 -16.74,16.48 -6.95,7.03 -8.27,7.64 -13.54,16.08l-2.14 2.66c1.02,-10.76 15.67,-78.51 19.13,-96.49 4.38,-22.82 12.21,-55.41 -1.77,-72.74 -2.31,-2.87 -12.18,-11.16 -17.92,-10.63 -2.2,29.95 -9.12,61.03 -14.69,90.18 -5.66,29.66 -11.2,58.88 -16.96,88.52 -3.16,16.26 -25.66,120.66 -24.96,132.05 0.98,15.91 18.39,26.36 27.64,25.04zm-81.82 -90.61c-1.45,12.73 -5.27,26.95 -7.38,40.21 -2.1,13.16 -11.76,28.67 -20.87,36.59 -1.68,1.47 -4.47,3.38 -6.94,4.76 -4.91,2.73 -11.44,5.04 -17.3,1.75 -25.96,-14.64 -3.14,-81.25 11.47,-103.39 19.11,-28.98 36.9,-13.9 33.22,2.05 -2.18,9.47 -6.87,9.98 -7.54,14.92 3.74,3.59 9.3,3.61 15.34,3.11zm12.39 -56.82c-9.41,-7.29 -20.56,-15.76 -38.79,-10.78 -25.01,6.83 -42.11,30.99 -53.27,52.63 -12.33,23.89 -20.55,60.91 -15.67,88.37 5.29,29.74 27.48,51.88 59.25,38.83 15.76,-6.47 19.75,-14.52 28.84,-24.93l1.7 1.84c3.65,5.25 7.32,9.2 13.95,11.17 7.11,2.11 18.88,2.41 24.78,-1.35 -2.1,-7.11 -15.68,-11.89 -11.28,-44.56 3.62,-26.85 17.41,-91.33 24.42,-119.88 1.45,-5.92 5.76,-17.69 6.09,-22.36 -13.62,-2.09 -28.98,4.86 -35.15,18.35 -1.57,3.43 -3.35,9.92 -4.87,12.67zm-271.24 15.33c-0.51,-5 9.58,-46.52 11.34,-54.71 1.99,-9.27 3.97,-18.11 5.95,-27.46 1,-4.72 2.07,-9.53 2.91,-14.17 0.79,-4.38 1.23,-11.98 3.7,-12.73 44.38,0 81.5,24.27 68.52,73.16 -5.02,18.9 -16.86,34.24 -32.42,40.4 -15,5.94 -13.49,3.01 -28.67,0.19 -10.56,-1.96 -20.46,-3.82 -31.33,-4.68zm-9.17 -134.14c-6.62,3.55 -21.18,4.02 -44.59,19.92 -40.85,27.76 -49.27,90.84 -10.73,91.56 13.89,0.26 -2.98,-4.2 6.23,-31.99 6.98,-21.04 23.31,-36.45 41.86,-44.83l-9.76 51.08c-3.28,16.31 -7.03,33.96 -11.11,50.2 -10.22,3.26 -17.78,7.47 -21.36,16.33 -1.99,4.92 -2.14,11.02 0.96,15.15 3.73,4.96 6.23,4.6 11.72,7.81l-13.3 62.42c16.37,-3.84 18.82,-4.44 36.6,-2.75l12.06 -55.87c10.09,-1.86 24.85,-2.44 35.39,-3.51 13.36,-1.36 14.04,-1.03 29.63,7.67 50.07,27.94 60.07,86.43 30.28,133.95 -16.15,25.76 -42.03,40.55 -74.81,43.59 -29.46,2.72 -70.86,-6.93 -80.23,-36.9 -3.59,-11.49 0.6,-23.75 6.64,-30.33 10.36,-11.27 29.37,-11.88 40.78,0.45 4.41,4.76 4.26,6.21 7.74,11.97 7.93,-0.32 16.83,-11.75 18.54,-20.5 5.86,-29.81 -33.87,-51.12 -73.8,-30.33 -29.36,15.28 -43.34,49.32 -33.3,82.64 1.42,4.7 3.8,9.98 6.13,13.71 1.98,3.17 6.41,9.78 9.15,11.33 -1.14,7.56 -13.2,49.91 -13.11,50.24 4.59,8.59 23.85,1.11 29.66,-2.3 8.64,-5.06 11.9,-11.02 14.93,-23.72 6.81,1.12 18.58,10 49.58,10.93 85.85,2.57 158.79,-75.56 140.63,-164.45 -3.48,-17.04 -10.73,-31.1 -19,-43.04 -2.3,-3.32 -4.38,-5.44 -6.76,-8.49 -6.04,-7.76 -8.14,-9.29 -15.76,-15.67l-6.62 -5.03c-0.21,-0.16 -0.84,-0.6 -1.03,-0.78 -1.12,-1.02 -0.55,-0.48 -1.41,-1.6 15.34,-5.91 30.6,-24.67 36.95,-39.42 8.69,-20.18 10.95,-42.07 3.65,-64.6 -13.81,-42.63 -52.37,-58.23 -94.56,-58.23 1.72,-10.4 6.89,-25.89 7.19,-28.56 -14.61,-3.66 -33.5,2.23 -40.5,16.64 -2.18,4.47 -2.82,10.27 -4.56,15.31z"/>
     <path class="fil4" d="M1577.91 1627.74c-2.28,7.32 -3.98,18.56 -4.39,26.25 15.52,-0.77 27.49,-1.83 43.22,0.57 5.91,0.9 13.51,5.19 18.45,3.95 1.5,-8.72 -3.54,-20.16 -7.76,-24.51 -9.75,-10.06 -35.65,-6.86 -49.52,-6.26zm-79.01 -204.97c-2.58,45.21 -36.09,97.91 -24.4,138.26 2.4,8.3 8.18,16.14 14.11,19.79 6.99,4.3 17.63,6.46 27.32,5.06 5.06,-0.74 9.04,-2.18 13.34,-3.82 4.93,-1.87 7.38,-3.82 11.77,-5.76l-12.5 55.7c-0.9,1.06 -0.54,0.85 -4.28,1.44 -25.98,4.12 -46.65,6.4 -74.69,11.71 -26.18,4.96 -50.89,10.51 -76.17,16.83 -24.7,6.18 -48.8,12.78 -73.12,19.7 -24.18,6.88 -47.63,14.59 -71.61,21.23 -64.18,17.8 -199.34,65.48 -267.89,53.05 -6.55,-1.19 -12.54,-2.86 -18.19,-5.02l-13.57 -6.09c-4.06,-0.28 -1.23,0.1 -2.28,0.95 -2.65,3.89 1.64,13.22 3.36,17.65 7.64,19.58 27.93,23.47 48.26,23.82 70.48,1.19 170.25,-33.41 236.36,-51.83 12.47,-3.48 23.92,-7.27 36.36,-11.01 75.44,-22.67 198.02,-58.84 273.33,-64.91 -3.47,28.76 -14.34,68.71 4.37,86.55 5.75,5.48 16.24,9.09 26.27,8.1 0.45,-2.52 -3.19,-11.69 -4.17,-22.05 -3.54,-37.46 15.87,-134.27 25.35,-167.41 13.23,-46.24 22.47,-80.36 39.32,-124.97 7.57,-20.04 16.39,-23.57 3.07,-24.05 -25.15,-0.9 -31.12,8.8 -39.18,29.88 -5.18,13.55 -9.57,27.28 -14.08,41.31 -7.93,24.7 -14.87,66.38 -33.62,76.25 -10.2,5.36 -28.77,1.3 -26.81,-23.9 1.11,-14.16 6.32,-32.27 10.55,-45.08 6,-18.19 20.92,-48.23 2.69,-62.5 -4.38,-3.43 -11.41,-8.74 -19.27,-8.88zm-237.92 147.73c0,-18.83 15.49,-63.67 29.05,-76.76 2.65,-2.55 4.38,-5.84 9.8,-5.36 4.18,3.65 5.36,9.72 5.36,16.93 0,26.91 -19.77,68.32 -36.62,68.32 -2.15,0 -7.59,-1.26 -7.59,-3.13zm115.86 -106.26c-3.62,28.64 -25.38,88.47 -39.3,112.69 -4.79,8.34 -9.18,16.02 -14.88,22.64l-9.09 9.68c-9.92,11.03 -26.96,17.98 -39.67,7.69 -2.08,-1.69 -5.89,-7.51 -7.72,-11.02 -2.26,-4.34 -3.92,-9.59 -4.86,-14.88 52.49,17.83 95.98,-81.47 62.25,-116.6 -17,-17.71 -44.54,-7.67 -55.51,2.69l-9.3 9.39c-24.33,31.5 -41.91,90.06 -23.14,124.11 19.23,34.89 54.82,38.25 87.99,21.13 16.35,-8.44 28,-24.34 37.97,-38.77 5.88,-8.5 13.53,-23.01 18.03,-33.78 9.56,-22.82 20.28,-52.8 24.58,-79.45 24.4,6.19 23.46,18.17 18.4,41.2 -6.37,29 -20.65,81.04 11.35,98.46 20.44,11.13 41.17,-4.85 40.74,-15.6 -20.05,3.13 -29.69,-9.37 -30.79,-27.97 -1.92,-32.62 22.29,-71.26 2.18,-102.47 -13.08,-20.28 -34.38,-18.74 -35.74,-25.21 -0.98,-4.67 7.42,-42.45 -16.96,-51.62 -19.11,-7.19 -34.26,11.05 -32.76,36.47 0.4,6.92 2.24,12.44 5.07,18.06 2.83,5.64 6.92,9.37 11.16,13.16zm-257.61 234.62c2.69,-25.88 1.7,-22.11 7.3,-48.89 3.27,-15.61 7.06,-31.41 10.11,-47.27l31.52 36.94c10,10.08 23.62,26.67 39.92,28.69 7.12,0.89 12.94,-1.27 17.88,-4.72 4.39,-3.08 10.13,-6.52 10.8,-12.91 -17.77,-1.81 -34.74,-19.33 -45.39,-31.6l-26.57 -30.55c-3.1,-3.64 -7.55,-5.8 -10.36,-9.23l6.14 -5.15c4.35,-3.77 8.47,-6.31 12.38,-10.87 11.89,-13.85 23.87,-20.94 39.72,-42.44 8.2,-11.12 11.65,-23.26 6.44,-36.66 -2.15,-5.53 -5.13,-12.76 -10.37,-13.79 -6.68,9.52 -6.74,18.67 -27.57,39.48 -5.7,5.69 -11.23,10.78 -16.75,16.3 -6.95,6.95 -8.27,7.55 -13.53,15.9l-2.15 2.63c1.02,-10.64 15.68,-77.62 19.13,-95.39 4.39,-22.56 12.22,-54.78 -1.76,-71.91 -2.32,-2.84 -12.18,-11.03 -17.93,-10.51 -2.2,29.6 -9.12,60.33 -14.68,89.15 -5.67,29.32 -11.21,58.21 -16.97,87.51 -3.16,16.07 -25.65,119.28 -24.95,130.54 0.97,15.73 18.38,26.06 27.64,24.75zm-81.82 -89.57c-1.45,12.59 -5.27,26.64 -7.39,39.75 -2.1,13.02 -11.75,28.35 -20.86,36.18 -1.68,1.44 -4.47,3.33 -6.94,4.69 -4.91,2.71 -11.45,5 -17.3,1.73 -25.96,-14.47 -3.14,-80.32 11.46,-102.2 19.12,-28.65 36.91,-13.74 33.23,2.03 -2.18,9.36 -6.88,9.86 -7.55,14.75 3.75,3.55 9.3,3.56 15.35,3.07zm12.39 -56.17c-9.42,-7.21 -20.57,-15.58 -38.8,-10.66 -25,6.75 -42.1,30.64 -53.27,52.03 -12.32,23.62 -20.55,60.22 -15.67,87.36 5.29,29.4 27.49,51.29 59.25,38.39 15.76,-6.4 19.76,-14.35 28.84,-24.64l1.7 1.81c3.66,5.2 7.33,9.09 13.96,11.04 7.11,2.09 18.88,2.39 24.78,-1.33 -2.1,-7.03 -15.69,-11.76 -11.28,-44.05 3.61,-26.54 17.41,-90.29 24.41,-118.51 1.45,-5.85 5.77,-17.49 6.1,-22.11 -13.63,-2.07 -28.99,4.81 -35.15,18.14 -1.57,3.39 -3.35,9.81 -4.87,12.53zm-271.24 15.15c-0.51,-4.94 9.58,-45.99 11.34,-54.09 1.98,-9.16 3.96,-17.9 5.95,-27.14 1,-4.67 2.06,-9.42 2.9,-14.01 0.8,-4.33 1.24,-11.84 3.7,-12.59 44.39,0 81.51,24.01 68.53,72.34 -5.02,18.68 -16.86,33.84 -32.43,39.93 -15,5.88 -13.49,2.97 -28.67,0.19 -10.55,-1.94 -20.46,-3.78 -31.32,-4.63zm-9.18 -132.61c-6.61,3.51 -21.18,3.97 -44.58,19.69 -40.85,27.45 -49.28,89.81 -10.73,90.52 13.88,0.26 -2.98,-4.15 6.23,-31.63 6.97,-20.8 23.3,-36.02 41.86,-44.31l-9.77 50.49c-3.28,16.13 -7.02,33.58 -11.1,49.64 -10.22,3.21 -17.78,7.38 -21.36,16.14 -1.99,4.86 -2.15,10.89 0.96,14.98 3.73,4.9 6.23,4.54 11.72,7.72l-13.31 61.7c16.37,-3.8 18.82,-4.39 36.61,-2.71l12.05 -55.24c10.09,-1.83 24.85,-2.41 35.39,-3.47 13.36,-1.34 14.04,-1.02 29.64,7.58 50.06,27.63 60.07,85.45 30.27,132.43 -16.15,25.46 -42.02,40.09 -74.81,43.08 -29.46,2.7 -70.85,-6.85 -80.22,-36.47 -3.59,-11.36 0.59,-23.48 6.64,-29.99 10.36,-11.14 29.37,-11.73 40.78,0.45 4.41,4.71 4.26,6.14 7.73,11.84 7.94,-0.32 16.83,-11.63 18.55,-20.27 5.85,-29.48 -33.87,-50.54 -73.81,-29.99 -29.35,15.11 -43.33,48.76 -33.29,81.7 1.42,4.65 3.8,9.87 6.12,13.55 1.98,3.14 6.42,9.67 9.16,11.21 -1.15,7.47 -13.21,49.34 -13.12,49.66 4.59,8.49 23.85,1.1 29.67,-2.27 8.63,-5 11.89,-10.9 14.92,-23.45 6.82,1.1 18.59,9.88 49.58,10.8 85.86,2.55 158.79,-74.7 140.64,-162.57 -3.48,-16.84 -10.74,-30.74 -19.01,-42.55 -2.3,-3.28 -4.38,-5.37 -6.75,-8.39 -6.05,-7.67 -8.15,-9.19 -15.76,-15.49l-6.63 -4.98c-0.2,-0.16 -0.83,-0.59 -1.02,-0.77 -1.12,-1 -0.55,-0.47 -1.41,-1.58 15.34,-5.84 30.6,-24.39 36.95,-38.97 8.68,-19.95 10.95,-41.59 3.65,-63.86 -13.81,-42.15 -52.37,-57.56 -94.57,-57.56 1.72,-10.29 6.9,-25.6 7.2,-28.24 -14.61,-3.62 -33.5,2.2 -40.51,16.45 -2.17,4.41 -2.82,10.15 -4.56,15.13z"/>
    </g>
   </g>
  </g>
 </g>
</svg>
