<?xml version="1.0" encoding="UTF-8"?>
<!DOCTYPE svg PUBLIC "-//W3C//DTD SVG 1.1//EN" "http://www.w3.org/Graphics/SVG/1.1/DTD/svg11.dtd">
<!-- Creator: CorelDRAW -->
<svg xmlns="http://www.w3.org/2000/svg" xml:space="preserve" width="22.8598mm" height="22.8598mm" version="1.1" style="shape-rendering:geometricPrecision; text-rendering:geometricPrecision; image-rendering:optimizeQuality; fill-rule:evenodd; clip-rule:evenodd"
viewBox="0 0 2285.98 2285.98"
 xmlns:xlink="http://www.w3.org/1999/xlink"
 xmlns:xodm="http://www.corel.com/coreldraw/odm/2003">
 <defs>
  <style type="text/css">
   <![CDATA[
    .fil0 {fill:#F4A3C6;fill-rule:nonzero}
   ]]>
  </style>
 </defs>
 <g id="Слой_x0020_1">
  <metadata id="CorelCorpID_0Corel-Layer"/>
  <g id="_1271998244448">
   <path class="fil0" d="M131.1 1098.96c-5.29,13.83 -8.85,27.76 -10.68,41.8 -1.83,14.03 -1.83,27.15 0,39.35 1.83,12.21 5.29,22.89 10.38,32.04 5.08,9.15 11.69,15.56 19.83,19.22 4.07,1.22 6.1,3.66 6.1,7.33 0,3.25 -2.03,4.88 -6.1,4.88l-136.08 0c-4.07,0 -6.1,-1.83 -6.1,-5.5 0,-3.66 1.83,-5.89 5.49,-6.71 15.87,-5.69 32.04,-19.32 48.51,-40.88 16.48,-21.56 34.07,-52.28 52.79,-92.14l105.56 -222.12c-4.47,-8.14 -9.15,-15.36 -14.03,-21.66 -4.88,-6.31 -10.27,-12.01 -16.17,-17.09 -5.9,-5.09 -12.61,-9.76 -20.14,-14.03 -7.53,-4.28 -15.97,-8.65 -25.32,-13.12 -4.07,-0.82 -6.11,-3.06 -6.11,-6.72 0,-3.66 2.04,-5.49 6.11,-5.49l137.9 0 138.52 300.23c4.88,10.57 10.58,22.68 17.09,36.3 6.51,13.63 13.73,26.85 21.66,39.67 7.93,12.81 16.48,24.41 25.63,34.78 9.15,10.37 19.02,17.8 29.59,22.27 3.26,0.41 4.89,2.54 4.89,6.41 0,3.87 -1.63,5.8 -4.89,5.8l-183.06 0c-4.07,0 -6.1,-2.04 -6.1,-6.11 0,-3.25 2.03,-5.49 6.1,-6.71 14.65,-6.91 21.36,-21.05 20.14,-42.41 -1.22,-21.36 -10.58,-51.15 -28.07,-89.39l-193.44 0zm187.95 -12.21c-3.66,-8.13 -7.43,-16.27 -11.29,-24.41 -3.87,-8.13 -7.63,-16.27 -11.29,-24.41l-45.77 -98.85c-3.66,-8.14 -7.42,-16.27 -11.29,-24.41 -3.86,-8.13 -7.62,-16.27 -11.28,-24.41l-92.15 196.49 183.07 0zm304.49 -56.14l-128.14 -157.43c-14.24,-15.46 -28.89,-28.89 -43.94,-40.28 -15.05,-11.39 -28.47,-18.71 -40.27,-21.96 -3.26,-0.41 -4.88,-2.55 -4.88,-6.41 0,-3.87 1.62,-5.8 4.88,-5.8l182.45 0c4.07,0 6.1,1.63 6.1,4.88 0,3.26 -1.83,5.7 -5.49,7.33 -8.14,4.06 -12.2,9.96 -12.2,17.69 0,7.73 4.06,16.48 12.2,26.24l111.67 132.42 89.09 -108.62c0,-15.87 -2.95,-30 -8.85,-42.41 -5.9,-12.41 -13.52,-20.85 -22.88,-25.32 -4.07,-1.23 -6.1,-3.67 -6.1,-7.33 0,-3.25 2.03,-4.88 6.1,-4.88l136.08 0c4.06,0 6.1,1.83 6.1,5.49 0,3.66 -2.04,5.9 -6.1,6.72 -10.17,5.28 -19.23,10.37 -27.16,15.25 -7.93,4.88 -15.46,10.07 -22.58,15.56 -7.11,5.49 -14.03,11.49 -20.74,18 -6.72,6.51 -13.94,14.04 -21.67,22.58 -4.06,4.88 -8.03,9.76 -11.9,14.65 -3.86,4.88 -7.83,9.56 -11.89,14.03l-47.6 58.58c-4.07,4.48 -8.04,9.15 -11.9,14.04 -3.86,4.88 -7.83,9.76 -11.9,14.64l0 176.35c1.22,28.89 11.39,47.8 30.51,56.75 3.66,0.82 5.49,3.05 5.49,6.71 0,3.67 -2.03,5.5 -6.1,5.5l-150.11 0c-4.07,0 -6.1,-1.83 -6.1,-5.5 0,-3.66 1.83,-5.89 5.49,-6.71 9.36,-4.47 16.88,-11.49 22.58,-21.05 5.69,-9.56 8.95,-21.46 9.76,-35.7l0 -144.01zm829.28 -163.54c-2.04,-29.28 -12.21,-48.2 -30.51,-56.74 -4.07,-1.23 -6.11,-3.67 -6.11,-7.33 0,-3.25 2.04,-4.88 6.11,-4.88l148.89 0c4.07,0 6.1,1.63 6.1,4.88 0,3.26 -1.83,5.7 -5.49,7.33 -19.12,8.95 -29.29,27.86 -30.51,56.74l0 136.08 185.5 0 0 -136.08c-2.03,-29.28 -12.2,-48.2 -30.51,-56.74 -4.07,-1.23 -6.1,-3.67 -6.1,-7.33 0,-3.25 2.03,-4.88 6.1,-4.88l148.89 0c4.07,0 6.1,1.63 6.1,4.88 0,3.26 -1.83,5.7 -5.49,7.33 -19.12,8.95 -29.29,27.86 -30.51,56.74l0 307.55c1.22,28.89 11.39,47.8 30.51,56.75 3.66,0.82 5.49,3.05 5.49,6.71 0,3.67 -2.03,5.5 -6.1,5.5l-148.89 0c-4.07,0 -6.1,-1.83 -6.1,-5.5 0,-3.66 2.03,-5.89 6.1,-6.71 9.36,-4.47 16.58,-11.49 21.66,-21.05 5.09,-9.56 8.04,-21.46 8.85,-35.7l0 -159.26 -185.5 0 0 159.26c0.81,14.24 3.76,26.14 8.85,35.7 5.08,9.56 12.3,16.58 21.66,21.05 4.07,0.82 6.1,3.05 6.1,6.71 0,3.67 -2.03,5.5 -6.1,5.5l-148.89 0c-4.07,0 -6.11,-1.83 -6.11,-5.5 0,-3.66 1.84,-5.89 5.5,-6.71 19.12,-8.95 29.29,-27.86 30.51,-56.75l0 -307.55zm803.03 -68.95l0 122.04c0,3.26 -1.32,4.89 -3.96,4.89 -2.65,0 -4.99,-1.63 -7.02,-4.89 -15.46,-21.96 -30.71,-40.07 -45.77,-54.3 -15.05,-14.24 -29.8,-25.53 -44.24,-33.87 -14.44,-8.34 -28.57,-14.04 -42.41,-17.09 -13.83,-3.05 -27.25,-4.57 -40.27,-4.57l-40.88 0 0 208.08c29.29,-0.82 56.03,-4.17 80.24,-10.07 24.2,-5.9 48.92,-15.36 74.14,-28.38 2.44,-0.81 3.66,-1.22 3.66,-1.22 3.26,0 4.88,2.44 4.88,7.33l0 78.71c0,3.26 -1.42,4.89 -4.27,4.89 -1.63,0 -3.66,-0.61 -6.1,-1.83 -24.41,-12.21 -48.62,-21.26 -72.62,-27.16 -24,-5.9 -50.64,-9.25 -79.93,-10.07l0 200.76 62.24 0c44.34,0 81.05,-11.39 110.14,-34.17 29.09,-22.78 49.94,-56.34 62.55,-100.68 0,-1.63 0.61,-2.85 1.83,-3.67 1.22,-0.81 2.54,-1.22 3.96,-1.22 1.43,0 2.65,0.41 3.67,1.22 1.01,0.82 1.52,2.04 1.52,3.67l-18.3 147.06 -345.99 0c-4.07,0 -6.11,-1.83 -6.11,-5.5 0,-3.66 1.83,-5.89 5.5,-6.71 19.12,-8.95 29.29,-27.86 30.5,-56.75l0 -264.83c0,-28.07 -3.35,-49.94 -10.06,-65.6 -6.72,-15.66 -17.6,-26.95 -32.65,-33.86 -4.07,-1.23 -6.1,-3.67 -6.1,-7.33 0,-3.25 2.03,-4.88 6.1,-4.88l355.75 0zm-876.26 397.86c0,32.95 -6.41,63.26 -19.22,90.92 -12.82,27.66 -30.71,51.56 -53.7,71.7 -22.98,20.14 -50.04,35.8 -81.16,46.99 -31.12,11.19 -64.98,16.78 -101.6,16.78 -33.35,0 -64.37,-4.68 -93.05,-14.04 -28.68,-9.35 -53.4,-22.37 -74.14,-39.05 -20.75,-16.68 -37.02,-36.41 -48.82,-59.19 -11.8,-22.78 -17.7,-47.6 -17.7,-74.45 0,-21.56 3.87,-41.39 11.6,-59.49 7.73,-18.11 18.4,-33.67 32.03,-46.68 13.63,-13.02 30,-23.19 49.13,-30.51 19.12,-7.33 40.27,-10.99 63.46,-10.99 19.12,0 37.02,2.44 53.7,7.33 16.67,4.88 31.22,11.59 43.63,20.13 12.4,8.54 22.17,18.61 29.28,30.21 7.12,11.59 10.68,24.1 10.68,37.52 0,14.24 -4.06,25.53 -12.2,33.87 -8.14,8.34 -19.12,12.51 -32.95,12.51 -10.98,0 -20.34,-2.85 -28.07,-8.54 -2.44,-38.65 -9.15,-68.45 -20.14,-89.4 -10.98,-20.95 -25.63,-31.42 -43.93,-31.42 -10.17,0 -19.83,3.35 -28.99,10.07 -9.15,6.71 -17.08,15.96 -23.8,27.76 -6.71,11.8 -12,25.43 -15.86,40.88 -3.87,15.46 -5.8,32.14 -5.8,50.04 0,26.44 4.37,50.55 13.12,72.31 8.75,21.77 20.95,40.38 36.61,55.84 15.66,15.45 34.48,27.56 56.45,36.3 21.97,8.75 45.97,13.12 72,13.12 24.82,0 47.8,-3.86 68.96,-11.59 21.15,-7.73 39.56,-18.51 55.22,-32.34 15.66,-13.83 27.97,-30.41 36.92,-49.73 8.95,-19.33 13.42,-40.58 13.42,-63.77 0,-24.82 -4.88,-46.17 -14.64,-64.07 -9.77,-17.9 -22.68,-33.57 -38.75,-46.99 -16.07,-13.43 -34.38,-25.22 -54.92,-35.39 -20.54,-10.17 -41.6,-19.73 -63.16,-28.68 -21.56,-8.95 -42.61,-18 -63.15,-27.16 -20.55,-9.15 -38.85,-19.52 -54.92,-31.12 -16.07,-11.59 -28.99,-25.02 -38.75,-40.27 -9.76,-15.26 -14.65,-33.26 -14.65,-54.01 0,-18.3 3.87,-34.88 11.6,-49.73 7.73,-14.85 18.61,-27.56 32.65,-38.14 14.03,-10.57 31.12,-18.71 51.25,-24.41 20.14,-5.69 42.41,-8.54 66.82,-8.54 12.2,0 25.53,0.71 39.97,2.14 14.44,1.42 28.68,3.46 42.71,6.1 14.04,2.64 27.57,5.7 40.58,9.15 13.02,3.46 24.41,7.22 34.17,11.29l0 112.89c0,3.66 -1.72,5.39 -5.18,5.19 -3.46,-0.21 -5.19,-1.93 -5.19,-5.19 -4.47,-18.3 -11.59,-35.39 -21.36,-51.26 -9.76,-15.86 -21.15,-29.59 -34.17,-41.19 -13.02,-11.59 -27.36,-20.64 -43.02,-27.15 -15.66,-6.51 -31.83,-9.76 -48.51,-9.76 -24,0 -43.63,6.4 -58.88,19.22 -15.26,12.81 -22.89,29.39 -22.89,49.73 0,15.05 4.58,28.07 13.73,39.05 9.16,10.99 21.16,20.96 36,29.91 14.85,8.95 31.74,17.28 50.65,25.01 18.92,7.73 38.34,15.97 58.28,24.72 19.93,8.74 39.36,18.61 58.27,29.59 18.92,10.99 35.8,24 50.65,39.06 14.85,15.05 26.85,32.95 36,53.69 9.15,20.75 13.73,45.16 13.73,73.23z"/>
   <path class="fil0" d="M1520.12 1355.08c3.31,-19.62 -0.25,-27.77 -19.11,-27.77 -10.45,-0.01 -14.53,2.54 -14.53,2.54 0,0 2.8,6.37 -0.25,23.96l-18.35 105c-3.32,-0.77 -6.88,-1.28 -9.94,-1.28 -13.51,0 -19.37,7.14 -19.37,15.29 0,7.39 5.61,15.04 20.64,15.04 9.43,0 18.61,-1.78 26.25,-6.88 8.16,3.31 19.63,6.88 34.92,6.88 54.28,0 93.27,-36.44 93.27,-97.35 0,-55.31 -43.83,-93.79 -113.92,-93.79 -54.53,0 -81.8,23.45 -81.8,48.68 0,15.29 10.19,25.49 26.76,25.48 12.99,0.01 19.36,-8.15 19.36,-14.27 0,-1.53 -0.25,-2.29 -0.25,-2.29 0,0 -1.53,0.76 -4.33,0.76 -6.37,0 -10.2,-4.58 -10.2,-11.72 0,-14.53 14.02,-32.62 51.74,-32.62 48.42,0 77.22,28.8 77.22,75.95 0,51.22 -24.98,85.88 -66.26,85.88 -6.12,0 -11.47,-1.02 -15.55,-2.29 3.06,-4.59 5.35,-10.71 6.63,-17.84l17.07 -97.36zm153.68 132.78c38.99,0 63.45,-26.5 65.75,-37.72 1.01,-4.59 -0.77,-6.62 -4.08,-6.62 -6.88,10.7 -22.43,24.21 -49.7,24.21 -21.66,0 -34.91,-14.78 -36.44,-33.9 44.85,-8.41 71.61,-23.7 71.61,-46.89 0,-13 -10.45,-26.5 -36.44,-26.5 -33.9,0 -68.3,27.26 -68.3,72.37 0,34.41 24.21,55.05 57.6,55.05zm10.95 -114.68c5.35,0 8.92,3.57 8.92,8.92 0,16.82 -12.99,32.36 -44.09,39.75 2.81,-31.85 20.65,-48.67 35.17,-48.67zm94.55 32.11c-8.41,-4.33 -12.48,-8.67 -12.49,-16.06 0.01,-8.92 6.89,-16.05 20.9,-16.05 14.27,0 21.67,9.68 21.67,21.66 0,4.59 -1.28,7.39 -1.28,7.39 0,0 3.57,3.57 12.23,3.57 8.92,0 16.82,-5.61 16.82,-15.29 0,-13.25 -14.78,-30.07 -46.38,-30.07 -36.19,0 -54.03,16.82 -54.03,37.46 0,17.07 9.94,25.23 22.18,31.85l24.97 13.26c9.17,4.84 12.49,9.94 12.49,16.05 0,8.41 -6.88,16.06 -21.41,16.06 -14.53,-0.26 -21.15,-9.18 -21.15,-21.66 0,-4.59 1.27,-7.39 1.27,-7.39 0,0 -3.57,-3.57 -12.23,-3.57 -8.92,0 -16.82,5.6 -16.82,15.29 0,13.25 13.76,30.07 46.38,30.07 36.96,0 54.03,-17.33 54.03,-37.46 0,-13.51 -6.63,-23.96 -25.23,-33.64l-21.92 -11.47zm116.21 0c-8.41,-4.33 -12.49,-8.67 -12.48,-16.06 -0.01,-8.92 6.88,-16.05 20.89,-16.05 14.27,0 21.67,9.68 21.67,21.66 0,4.59 -1.28,7.39 -1.28,7.39 0,0 3.57,3.57 12.23,3.57 8.92,0 16.82,-5.61 16.82,-15.29 0,-13.25 -14.78,-30.07 -46.38,-30.07 -36.19,0 -54.03,16.82 -54.03,37.46 0,17.07 9.94,25.23 22.17,31.85l24.98 13.26c9.17,4.84 12.49,9.94 12.49,16.05 0,8.41 -6.88,16.06 -21.41,16.06 -14.52,-0.26 -21.15,-9.18 -21.15,-21.66 0,-4.59 1.27,-7.39 1.27,-7.39 0,0 -3.57,-3.57 -12.23,-3.57 -8.92,0 -16.82,5.6 -16.82,15.29 0,13.25 13.76,30.07 46.38,30.07 36.96,0 54.03,-17.33 54.03,-37.46 0,-13.51 -6.63,-23.96 -25.23,-33.64l-21.92 -11.47zm125.64 82.57c39,0 63.46,-26.5 65.75,-37.72 1.02,-4.59 -0.76,-6.62 -4.07,-6.62 -6.88,10.7 -22.43,24.21 -49.7,24.21 -21.66,0 -34.91,-14.78 -36.44,-33.9 44.85,-8.41 71.61,-23.7 71.61,-46.89 0,-13 -10.45,-26.5 -36.44,-26.5 -33.9,0 -68.3,27.27 -68.3,72.37 0,34.41 24.21,55.05 57.59,55.05zm10.96 -114.68c5.35,0 8.92,3.57 8.92,8.92 0,16.82 -13,32.36 -44.09,39.75 2.81,-31.85 20.65,-48.67 35.17,-48.67zm93.53 12.49c3.06,-17.08 0.76,-25.23 -18.86,-25.23 -9.43,0 -13.25,2.29 -13.25,2.29 0,0 2.55,5.86 -0.25,21.92l-13.51 77.98c-3.06,17.84 -0.77,25.23 18.86,25.23 9.43,0 13.25,-2.29 13.25,-2.29 0,0 -2.55,-5.36 0,-20.39 6.12,-35.93 14.52,-51.74 24.21,-65.24 8.41,-11.73 14.02,-15.04 18.09,-15.04 3.83,0 5.36,2.04 5.36,5.61 0,6.88 -3.32,12.74 -3.32,12.74 0,0 4.85,1.53 11.47,1.53 12.49,0 21.15,-10.19 21.15,-24.47 0,-12.99 -7.9,-19.87 -20.39,-19.87 -11.46,0 -28.54,8.92 -44.85,36.44l2.04 -11.21zm71.87 -25.23c-5.61,0 -8.67,3.05 -8.67,7.39 0,3.31 1.79,5.35 1.79,5.35l16.56 0 -9.43 53.77c-2.29,13 -2.8,21.41 -2.8,27.27 0,20.39 14.78,33.64 33.64,33.64 24.21,0 44.85,-22.17 48.68,-37.72 1.01,-4.33 -1.28,-6.62 -4.59,-6.62 -5.61,10.7 -16.06,22.17 -30.58,22.17 -11.98,0 -17.08,-8.41 -14.53,-22.43l12.23 -70.08 20.65 0c5.6,0 8.66,-3.06 8.66,-7.39 0,-3.32 -1.78,-5.35 -1.78,-5.35l-25.23 0 2.29 -12.75c3.31,-17.84 0.76,-25.23 -18.86,-25.23 -9.43,0 -13.25,2.3 -13.25,2.3 0,0 2.8,5.86 -0.26,21.91l-2.54 13.77 -11.98 0z"/>
  </g>
 </g>
</svg>
