<?xml version="1.0" encoding="UTF-8"?>
<!DOCTYPE svg PUBLIC "-//W3C//DTD SVG 1.1//EN" "http://www.w3.org/Graphics/SVG/1.1/DTD/svg11.dtd">
<!-- Creator: CorelDRAW -->
<svg xmlns="http://www.w3.org/2000/svg" xml:space="preserve" width="22.8598mm" height="22.8598mm" version="1.1" style="shape-rendering:geometricPrecision; text-rendering:geometricPrecision; image-rendering:optimizeQuality; fill-rule:evenodd; clip-rule:evenodd"
viewBox="0 0 2285.98 2285.98"
 xmlns:xlink="http://www.w3.org/1999/xlink"
 xmlns:xodm="http://www.corel.com/coreldraw/odm/2003">
 <defs>
  <style type="text/css">
   <![CDATA[
    .fil2 {fill:#FEFEFE}
    .fil1 {fill:#373435}
    .fil0 {fill:#ED3237}
   ]]>
  </style>
 </defs>
 <g id="Слой_x0020_1">
  <metadata id="CorelCorpID_0Corel-Layer"/>
  <g id="_2630675329872">
   <path class="fil0" d="M275.47 1079.12c27.88,-16.3 55.76,-32.6 83.64,-48.89 120.84,133.9 322.07,187.37 558.23,205.91 -234.58,13.89 -454.92,-17.92 -641.87,-157.02z"/>
   <path class="fil0" d="M126.99 1186.6c36.65,-26.01 73.3,-52.02 109.95,-78.04 219.46,130.47 515.08,186.05 833.11,98.73 166.14,-45.62 365.66,-210.11 562.45,-418.41 78,1.88 156,3.76 234,5.64 -123.42,76.47 -246.84,152.95 -370.27,229.42 128.03,-61.09 261.48,-120.94 390.14,-181.89 18.12,-8.58 35.69,-11.67 55.65,-9.78 127.76,12.11 231.57,94.86 183.86,237.74 -142.23,-150.34 -396.68,-128.05 -695.9,-6.11 -260.27,138.83 -423.42,196.06 -620.72,213.9 -266.27,21.95 -489.92,-13.17 -682.27,-91.2z"/>
   <path class="fil1" d="M583.17 1064.91l36.38 0c19,0 31.36,-3.79 37.16,-11.43 5.72,-7.57 8.58,-25.07 8.58,-52.43 0,-25.5 -3.42,-42.5 -10.26,-50.86 -6.84,-8.35 -20.53,-12.57 -41.2,-12.57l-30.66 0 0 127.29zm0 -139.29l25.98 0c19.83,0 32.96,-3.5 39.17,-10.43 6.29,-7 9.43,-22.36 9.43,-46.07 0,-25.79 -2.72,-41.57 -8.24,-47.43 -5.51,-5.86 -19.83,-8.79 -42.87,-8.79l-23.47 0 0 112.72zm-97.2 139.29l29.33 0 0 -252.01 -29.33 0 0 -12.85 151.95 0c28.42,0 50.77,6 67.25,17.92 16.41,11.93 24.65,28.08 24.65,48.43 0,16.86 -6.57,30.58 -19.62,41.15 -13.13,10.5 -32.55,17.64 -58.38,21.43l0 3.57c29.47,2.5 51.67,9.57 66.54,21.28 14.88,11.65 22.35,27.65 22.35,48.01 0,23.57 -9.5,42.28 -28.42,56.07 -18.99,13.79 -44.76,20.71 -77.23,20.71l-149.09 0 0 -13.71zm383.3 -125.29c0,35.79 0.56,60.36 1.74,73.86 1.19,13.43 3.21,23.5 6.22,30 4.4,10.21 10.61,17.57 18.64,22 8.1,4.5 19,6.71 32.82,6.71 13.9,0 24.86,-2.21 32.96,-6.71 8.03,-4.43 14.25,-11.79 18.65,-22 3.14,-7.07 5.3,-17.79 6.56,-32 1.19,-14.21 1.82,-38.22 1.82,-71.86 0,-33.5 -0.63,-57.36 -1.82,-71.57 -1.26,-14.22 -3.42,-24.93 -6.56,-32 -4.4,-10.22 -10.62,-17.57 -18.65,-22 -8.1,-4.5 -19.06,-6.72 -32.96,-6.72 -13.82,0 -24.72,2.22 -32.82,6.72 -8.03,4.43 -14.24,11.78 -18.64,22 -3.01,6.5 -5.03,16.57 -6.22,30 -1.18,13.5 -1.74,38 -1.74,73.57zm-81.28 0c0,-18.64 3.56,-36.57 10.61,-53.72 7.12,-17.14 17.39,-32.92 30.86,-47.28 14.46,-14.93 29.82,-26 46.02,-33.29 16.27,-7.21 33.94,-10.86 53.21,-10.86 19.35,0 37.15,3.65 53.35,10.86 16.2,7.29 31.57,18.36 46.02,33.29 13.62,14.36 24.02,30.14 31.15,47.36 7.19,17.21 10.75,35.14 10.75,53.64 0,19 -3.56,37.14 -10.75,54.43 -7.13,17.29 -17.53,33.07 -31.15,47.29 -14.03,14.78 -29.26,25.78 -45.6,32.93 -16.34,7.21 -34.28,10.78 -53.77,10.78 -19.41,0 -37.15,-3.57 -53.42,-10.78 -16.2,-7.15 -31.49,-18.15 -45.81,-32.93 -13.47,-14.22 -23.74,-30 -30.86,-47.36 -7.05,-17.43 -10.61,-35.5 -10.61,-54.36zm323.03 142.29l0 -81.72 15.92 0c6.98,23.72 17.25,41.65 30.93,53.79 13.76,12.14 30.52,18.21 50.42,18.21 17.88,0 32.61,-4.85 44.34,-14.64 11.74,-9.78 17.6,-22.21 17.6,-37.28 0,-8.08 -1.4,-14.72 -4.19,-20.01 -2.79,-5.21 -7.54,-10.07 -14.25,-14.5 -7.61,-5.14 -22.69,-10.42 -45.17,-15.71 -8.31,-1.93 -14.67,-3.5 -19.07,-4.57 -26.32,-6.86 -45.46,-16.93 -57.4,-30.14 -11.94,-13.29 -17.88,-31.08 -17.88,-53.36 0,-26.15 7.97,-47.22 23.82,-63.36 15.92,-16.07 36.66,-24.15 62.36,-24.15 10.47,0 20.25,1.51 29.32,4.5 9.08,2.93 17.6,7.43 25.7,13.36l14.94 -12.28 13.13 0 1.68 73.71 -13.83 0c-5.3,-21.64 -14.17,-38.14 -26.6,-49.43 -12.36,-11.35 -27.87,-17 -46.37,-17 -15.36,0 -28,3.86 -37.92,11.5 -9.84,7.72 -14.8,17.43 -14.8,29.15 0,17.57 18.23,30.5 54.61,38.78 4.88,1.07 8.59,1.93 11.17,2.5 34,8.08 57.89,19.57 71.57,34.43 13.76,14.86 20.61,35.93 20.61,63.22 0,28.21 -8.73,51.57 -26.26,70.21 -17.53,18.65 -39.59,27.93 -66.2,27.93 -13.55,0 -25.42,-1.57 -35.61,-4.71 -10.27,-3.07 -19.77,-8.07 -28.63,-14.86l-18.86 16.43 -15.08 0z"/>
   <path class="fil1" d="M1326.17 1338.17l97.28 -100.22c1.81,-2 3,-3.5 3.7,-4.64 0.69,-1.07 1.04,-2.29 1.04,-3.57 0,-1.22 -0.62,-2.36 -1.88,-3.29 -1.19,-1 -2.72,-1.5 -4.47,-1.5l-28 0 0 -12.43 100.41 0 0 12.43 -16.75 0c-8.18,0 -15.16,1.36 -20.89,4 -5.72,2.64 -12.98,8.5 -21.85,17.57l-57.33 59.43 112.63 171.01 32.68 0 0 13.71 -145.31 0 0 -13.71 33.17 0 -84.43 -128.51 0 -10.28zm-106.77 138.79l33.1 0 0 -252.01 -33.1 0 0 -12.43 136.17 0 0 12.43 -33.52 0 0 252.01 33.52 0 0 13.71 -136.17 0 0 -13.71zm384.41 -125.29c0,35.78 0.56,60.35 1.75,73.86 1.19,13.42 3.21,23.5 6.22,30 4.39,10.21 10.61,17.57 18.64,22 8.1,4.5 18.99,6.71 32.82,6.71 13.9,0 24.86,-2.21 32.96,-6.71 8.03,-4.43 14.25,-11.79 18.65,-22 3.14,-7.08 5.3,-17.79 6.56,-32 1.19,-14.22 1.81,-38.22 1.81,-71.86 0,-33.5 -0.62,-57.36 -1.81,-71.58 -1.26,-14.21 -3.42,-24.93 -6.56,-32 -4.4,-10.21 -10.62,-17.57 -18.65,-22 -8.1,-4.5 -19.06,-6.71 -32.96,-6.71 -13.83,0 -24.72,2.21 -32.82,6.71 -8.03,4.43 -14.25,11.79 -18.64,22 -3.01,6.5 -5.03,16.58 -6.22,30 -1.19,13.5 -1.75,38 -1.75,73.58zm-81.28 0c0,-18.65 3.57,-36.57 10.62,-53.72 7.12,-17.14 17.38,-32.93 30.86,-47.29 14.46,-14.93 29.82,-26 46.02,-33.28 16.27,-7.22 33.94,-10.86 53.21,-10.86 19.34,0 37.15,3.64 53.35,10.86 16.2,7.28 31.56,18.35 46.02,33.28 13.62,14.36 24.02,30.15 31.14,47.36 7.2,17.22 10.76,35.15 10.76,53.65 0,19 -3.56,37.14 -10.76,54.43 -7.12,17.28 -17.52,33.07 -31.14,47.28 -14.04,14.79 -29.26,25.79 -45.6,32.93 -16.34,7.22 -34.29,10.79 -53.77,10.79 -19.41,0 -37.15,-3.57 -53.42,-10.79 -16.2,-7.14 -31.49,-18.14 -45.81,-32.93 -13.48,-14.21 -23.74,-30 -30.86,-47.35 -7.05,-17.43 -10.62,-35.5 -10.62,-54.36zm323.04 142.29l0 -81.72 15.92 0c6.98,23.72 17.25,41.64 30.93,53.79 13.76,12.14 30.52,18.21 50.42,18.21 17.88,0 32.61,-4.86 44.34,-14.64 11.73,-9.79 17.6,-22.22 17.6,-37.29 0,-8.07 -1.4,-14.71 -4.19,-20 -2.79,-5.21 -7.54,-10.07 -14.25,-14.5 -7.61,-5.14 -22.69,-10.43 -45.18,-15.71 -8.31,-1.93 -14.66,-3.5 -19.06,-4.58 -26.33,-6.85 -45.46,-16.92 -57.4,-30.14 -11.94,-13.28 -17.88,-31.07 -17.88,-53.36 0,-26.14 7.96,-47.21 23.81,-63.35 15.93,-16.08 36.67,-24.15 62.36,-24.15 10.48,0 20.25,1.5 29.33,4.5 9.08,2.93 17.6,7.43 25.7,13.36l14.94 -12.29 13.13 0 1.68 73.72 -13.83 0c-5.31,-21.64 -14.17,-38.14 -26.6,-49.43 -12.36,-11.36 -27.87,-17 -46.37,-17 -15.36,0 -28,3.85 -37.92,11.5 -9.84,7.71 -14.8,17.43 -14.8,29.14 0,17.57 18.22,30.5 54.6,38.79 4.89,1.07 8.59,1.93 11.18,2.5 34,8.07 57.89,19.57 71.57,34.43 13.76,14.86 20.6,35.93 20.6,63.21 0,28.22 -8.73,51.58 -26.25,70.22 -17.53,18.64 -39.6,27.93 -66.2,27.93 -13.55,0 -25.42,-1.57 -35.62,-4.72 -10.26,-3.07 -19.76,-8.07 -28.63,-14.85l-18.85 16.43 -15.08 0z"/>
   <path class="fil2" d="M2129.65 1174.93c4.93,0 9.74,1.26 14.44,3.8 4.69,2.52 8.35,6.15 10.97,10.85 2.62,4.72 3.93,9.64 3.93,14.74 0,5.06 -1.29,9.94 -3.88,14.6 -2.57,4.68 -6.19,8.3 -10.85,10.88 -4.66,2.59 -9.53,3.88 -14.61,3.88 -5.08,0 -9.96,-1.29 -14.62,-3.88 -4.66,-2.58 -8.28,-6.2 -10.87,-10.88 -2.59,-4.66 -3.89,-9.54 -3.89,-14.6 0,-5.1 1.31,-10.02 3.94,-14.74 2.64,-4.7 6.31,-8.33 11,-10.85 4.7,-2.54 9.5,-3.8 14.44,-3.8zm0 4.86c-4.13,0 -8.15,1.06 -12.05,3.18 -3.91,2.11 -6.96,5.14 -9.17,9.07 -2.2,3.93 -3.3,8.03 -3.3,12.28 0,4.24 1.09,8.29 3.25,12.17 2.16,3.88 5.19,6.91 9.08,9.07 3.89,2.17 7.96,3.26 12.19,3.26 4.23,0 8.29,-1.09 12.18,-3.26 3.89,-2.16 6.92,-5.19 9.07,-9.07 2.15,-3.88 3.23,-7.93 3.23,-12.17 0,-4.25 -1.1,-8.35 -3.29,-12.28 -2.19,-3.93 -5.25,-6.96 -9.17,-9.07 -3.91,-2.12 -7.92,-3.18 -12.02,-3.18zm-12.89 40.74l0 -31.57 10.86 0c3.72,0 6.4,0.29 8.06,0.87 1.68,0.59 2.99,1.6 3.99,3.06 0.98,1.45 1.47,2.99 1.47,4.62 0,2.3 -0.82,4.32 -2.48,6.02 -1.65,1.72 -3.84,2.67 -6.57,2.89 1.11,0.46 2.01,1.02 2.68,1.67 1.27,1.24 2.83,3.32 4.67,6.26l3.85 6.18 -6.18 0 -2.82 -4.97c-2.2,-3.92 -4,-6.38 -5.35,-7.36 -0.93,-0.72 -2.29,-1.08 -4.08,-1.07l-3 0 0 13.4 -5.1 0zm5.1 -17.78l6.19 0c2.96,0 4.98,-0.44 6.05,-1.32 1.08,-0.87 1.62,-2.04 1.62,-3.48 0,-0.93 -0.26,-1.76 -0.78,-2.5 -0.52,-0.74 -1.23,-1.28 -2.15,-1.64 -0.93,-0.36 -2.63,-0.55 -5.13,-0.55l-5.8 0 0 9.49z"/>
  </g>
 </g>
</svg>
