<?xml version="1.0" encoding="UTF-8"?>
<!DOCTYPE svg PUBLIC "-//W3C//DTD SVG 1.1//EN" "http://www.w3.org/Graphics/SVG/1.1/DTD/svg11.dtd">
<!-- Creator: CorelDRAW -->
<svg xmlns="http://www.w3.org/2000/svg" xml:space="preserve" width="22.8598mm" height="22.8598mm" version="1.1" style="shape-rendering:geometricPrecision; text-rendering:geometricPrecision; image-rendering:optimizeQuality; fill-rule:evenodd; clip-rule:evenodd"
viewBox="0 0 2285.98 2285.98"
 xmlns:xlink="http://www.w3.org/1999/xlink"
 xmlns:xodm="http://www.corel.com/coreldraw/odm/2003">
 <defs>
  <style type="text/css">
   <![CDATA[
    .fil1 {fill:#373435}
    .fil0 {fill:#ED3237;fill-rule:nonzero}
   ]]>
  </style>
 </defs>
 <g id="Слой_x0020_1">
  <metadata id="CorelCorpID_0Corel-Layer"/>
  <g id="_2595803008592">
   <path class="fil0" d="M832.5 607.14l0 550.93 114.23 0c103.18,0 181.69,-23.4 235.64,-70.2 53.82,-46.91 80.81,-115.24 80.81,-205.07 0,-72.7 -18.52,-130.65 -53.49,-175.16 -18.17,7.56 -34.1,17.02 -47.25,28.92 -3.93,3.59 -7.16,7.97 -10.61,12.06 25.16,33.71 38.4,78.06 38.4,134.18 0,69.42 -19.53,121.91 -58.56,157.35 -39.15,35.41 -97.19,53.09 -174.13,53.09l-52.79 0 0 -420.92 52.79 0c44.86,0 82.51,6.68 114.47,18.62 6.87,-7.82 14.15,-15.27 22.21,-22.21 10.86,-9.35 22.81,-17.66 35.4,-25.22 -48.54,-24.02 -109.24,-36.37 -182.89,-36.37l-114.23 0zm496.01 486.1c-44.21,0 -81.46,-6.48 -113.04,-18.12 -7.85,9.16 -16.17,17.92 -25.49,26 -9.26,8.11 -19.47,15.21 -30.03,22.01 48.05,22.79 107.41,34.94 179.52,34.94l114.01 0 0 -550.93 -114.01 0c-103.28,0 -181.91,23.31 -235.78,70.17 -53.78,46.79 -80.83,115.37 -80.83,205.49 0,73.5 18.98,131.77 54.99,176.42 16.28,-7.4 30.56,-16.28 42.52,-27.13 5.13,-4.78 9.01,-10.6 13.49,-15.88 -25.05,-33.75 -38.04,-77.99 -38.04,-133.41 0,-69.7 19.52,-122.23 58.55,-157.59 39.1,-35.3 97.16,-52.89 174.14,-52.89l52.78 0 0 420.92 -52.78 0z"/>
   <path class="fil1" d="M890.95 1626.09l0 -6.24 -9.86 0 0 57.75 9.86 0 0 -26.56c0,-4.51 -0.58,-16.75 8.12,-20.91 3.48,-2.08 10.44,-2.43 12.76,0.58 1.74,1.84 3.48,5.54 3.48,8.43l0 38.46 10.44 0 0 -30.26c0,-7.16 1.74,-19.18 15.08,-18.83 9.28,0.23 9.28,10.05 9.86,12.13l0 36.96 9.29 0 0 -35.34c0,-6.13 0.58,-16.52 -11.03,-22.07 -5.8,-2.77 -13.34,-1.73 -19.14,2.2 -4.64,3.12 -5.8,6.58 -6.38,7.16 -2.32,-3.46 -3.48,-5.43 -7.54,-8.55 -3.48,-2.65 -11.6,-3.69 -19.14,0.23 -4.06,2.08 -5.22,4.51 -5.8,4.86zm329.48 51.51l3.48 0 15.08 -36.5 15.66 36.5 2.9 0 23.21 -57.75 -9.28 0 -15.67 36.96 -15.08 -36.96 -2.9 0 -15.66 36.96 -15.08 -36.96 -9.86 0 23.2 57.75zm-221.59 -49.2c13.34,0 17.4,11.89 17.4,13.16l-34.22 0c0.58,-1.61 4.06,-13.16 16.82,-13.16zm-27.15 27.48c1.71,9.33 7.65,22.88 28.31,22.88 17.98,0 25.52,-15.6 25.52,-18.71 -8.12,-3.93 0,0 -8.12,-3.93 -1.16,2.08 -6.38,13.17 -17.4,13.17 -17.4,0 -19.14,-15.83 -19.14,-18.49l45.82 0c0,-7.62 -1.16,-15.24 -6.96,-22.87 -1.74,-1.96 -6.96,-9.24 -20.88,-9.24 -10.44,0 -15.08,4.16 -16.82,5.78 -4.47,3.75 -7.36,8.26 -9.05,12.76 -2.27,6.04 -2.43,12.36 -1.28,18.65zm387.38 -6c0,-1.85 0.58,-21.48 19.14,-21.48 7.54,0 14.5,5.77 17.4,14.32 1.16,4.85 0.58,10.39 -1.16,15.13 0,0.23 -4.64,11.44 -16.24,11.44 -2.9,0 -5.8,-0.7 -8.7,-2.08 -5.8,-2.89 -10.44,-10.63 -10.44,-17.33zm-6.96 12.01c3.06,11.61 15.2,16.87 26.1,16.87 12.18,0 16.82,-6.7 17.98,-7.63l0 6.47 9.28 0 0 -57.75 -9.28 0 0 6.93c-0.58,-0.46 -1.74,-1.73 -3.48,-2.89 -6.38,-4.74 -10.44,-5.2 -17.4,-5.2 -7.33,0 -12.87,2.95 -16.77,6.57 -9.62,8.93 -10.54,24.87 -6.43,36.63zm-303.96 -35.34l0 -6.7 -9.86 0 0 57.75 9.86 0c0,-4.04 0,-25.99 0,-27.84 0,-4.15 0.58,-8.08 2.32,-11.78 1.16,-2.08 5.8,-9.82 14.5,-9.82 3.48,0.12 8.12,2.2 9.86,6.13 1.74,4.04 1.74,9.58 1.74,14.2l0 29.11 9.86 0 -0.58 -36.84c0,-4.05 0,-22.07 -22.04,-22.07 -8.7,0 -14.5,6.7 -15.66,7.86zm107.31 33.73c0,2.65 -0.58,4.73 -2.9,7.04 -2.03,2.02 -5.48,2.29 -8.36,1.4 -4.2,-1.3 -5.73,-4.38 -7.3,-6.13 -6.38,7.16 0,0 -6.38,7.16 2.9,4.39 9.28,8.78 14.5,9.01 5.22,0.23 8.7,0.11 12.76,-3.01 2.9,-2.42 4.64,-5.19 5.8,-9.01 1.16,-3.81 1.16,-8.77 -0.58,-12.59 -1.74,-3.81 -6.96,-7.73 -10.44,-9.81 -3.48,-2.08 -10.44,-5.2 -10.44,-9.94 0,-0.81 1.16,-6.35 6.38,-6.35 5.22,0 8.7,4.62 10.44,6.12 5.8,-7.16 0,0 5.8,-7.16 -1.16,-1.16 -5.8,-7.97 -15.08,-8.43 -11.02,-0.47 -15.08,9.35 -15.66,10.74 -1.16,2.89 -1.16,5.89 -0.58,8.78 1.74,5.43 6.38,9.82 14.5,14.9 3.48,1.96 7.54,4.74 7.54,7.28zm271.48 -35.58l0 -4.85 -9.28 0 0 57.75 9.28 0c0,-7.39 -0.58,-33.61 1.16,-39.15 1.16,-3.59 3.48,-8.09 7.54,-9.48 2.9,-1.04 5.8,0.35 6.38,0.81l4.64 -8.32c-2.5,-1.4 -4.99,-2.99 -8.56,-2.79 -2.82,0.15 -5.92,1.45 -8.13,3.21 -1.5,1.19 -3.03,2.74 -3.03,2.82zm-322.53 -9.01l4.07 0c0,4.27 -2.32,7.97 -3.49,10.86 1.75,1.04 4.07,2.31 5.81,3.46 2.9,-5.77 5.22,-11.32 5.22,-17.09l0 -14.1 -11.61 0 0 16.87zm-553.23 -56.09l39.81 0 26.74 -174.78 98.89 174.78 12.44 0 98.15 -174.78 26.87 174.78 40.43 0 -43.54 -270.56 -13.68 0 -114.45 207.12 -113.82 -207.12 -14.93 0 -42.91 270.56zm-384.38 -34.21l0 -200.9c59.08,0 129.99,-5.6 163.58,50.38 32.96,54.74 6.22,128.75 -56.6,144.3 -27.37,6.84 -75.88,6.22 -106.98,6.22zm-39.81 34.21l111.96 0c65.93,0 125.01,-29.23 141.81,-97.03 8.08,-31.1 4.97,-72.15 -9.96,-100.14 -17.41,-31.72 -46.02,-54.73 -81.47,-64.68 -18.66,-5.6 -42.3,-8.71 -65.31,-8.71l-97.03 0 0 270.56zm1225.92 -156.74l-46.03 0 0 -78.37 55.36 0c14.92,0 29.85,1.87 39.18,7.47 23.64,14.92 23.64,49.13 -2.49,63.44 -9.95,6.22 -29.85,7.46 -46.02,7.46zm-87.08 156.74l41.05 0 0 -121.29 9.33 0 103.6 121.29 50.65 0c-25.99,-30.28 -80.91,-85.9 -104.49,-121.29 36.07,-3.11 65.31,-8.7 84.59,-37.31 13.68,-21.15 13.68,-54.12 0,-74.64 -18.66,-28.61 -49.76,-37.32 -83.97,-37.32l-100.76 0 0 270.56zm257.5 0l178.51 0 0 -36.08 -138.08 0 0 -92.05 138.08 0 0 -35.45 -138.08 0 0 -71.53 138.08 0 0 -35.45 -178.51 0 0 270.56zm-449.07 -197.79l39.81 76.5 -81.48 0 41.67 -76.5zm-151.14 197.79l44.78 0 45.41 -85.83 119.42 0 45.4 85.83 44.78 0 -141.81 -270.56 -16.17 0 -141.81 270.56zm801.11 -235.11l65.31 0 0 235.11 41.67 0 0 -235.11 65.31 0 0 -35.45 -172.29 0 0 35.45zm394.33 235.11l40.43 0 0 -270.56 -40.43 0 0 270.56zm-1645.13 5.6c23.01,0 42.3,-25.5 21.15,-46.65 -5.6,-4.98 -13.06,-8.09 -21.15,-8.09 -6.84,0 -14.3,1.87 -19.9,6.22 -21.77,18.04 -6.84,48.52 19.9,48.52zm1435.52 -240.71l65.31 0 0 235.11 41.67 0 0 -235.11 65.31 0 0 -35.45 -172.29 0 0 35.45zm-596.29 303.91c13.34,0 17.4,11.89 17.4,13.16l-34.22 0c0.58,-1.61 4.06,-13.16 16.82,-13.16zm-27.84 19.4c0,4.28 0,30.96 29,30.96 17.98,0 25.53,-15.6 25.53,-18.71 -8.13,-3.93 0,0 -8.13,-3.93 -1.16,2.08 -6.38,13.17 -17.4,13.17 -17.4,0 -19.14,-15.83 -19.14,-18.49l45.83 0c0,-17.6 -8.68,-32.11 -27.85,-32.11 -16.18,0 -27.84,13.3 -27.84,29.11z"/>
  </g>
 </g>
</svg>
