<?xml version="1.0" encoding="UTF-8"?>
<!DOCTYPE svg PUBLIC "-//W3C//DTD SVG 1.1//EN" "http://www.w3.org/Graphics/SVG/1.1/DTD/svg11.dtd">
<!-- Creator: CorelDRAW -->
<svg xmlns="http://www.w3.org/2000/svg" xml:space="preserve" width="22.8598mm" height="22.8598mm" version="1.1" style="shape-rendering:geometricPrecision; text-rendering:geometricPrecision; image-rendering:optimizeQuality; fill-rule:evenodd; clip-rule:evenodd"
viewBox="0 0 2285.98 2285.98"
 xmlns:xlink="http://www.w3.org/1999/xlink"
 xmlns:xodm="http://www.corel.com/coreldraw/odm/2003">
 <defs>
  <style type="text/css">
   <![CDATA[
    .fil1 {fill:#ED3237;fill-rule:nonzero}
    .fil0 {fill:#00A859;fill-rule:nonzero}
   ]]>
  </style>
 </defs>
 <g id="Слой_x0020_1">
  <metadata id="CorelCorpID_0Corel-Layer"/>
  <g id="_1235568210288">
   <path class="fil0" d="M202.59 1259.27l-194.13 0 0 -232.57 189.66 0 0 54.27 -113.43 0 0 33.27 95.94 0 0 54.27 -95.94 0 0 36.5 117.9 0 0 54.26zm254.49 -143.74l-72.31 0c-1.13,-12 -5.27,-21.37 -12.54,-28.05 -7.27,-6.73 -16.85,-10.06 -28.8,-10.06 -13.57,0 -24.12,5.76 -31.66,17.28 -7.53,11.52 -11.3,28.37 -11.3,50.55 0,19.27 3.23,34.67 9.63,46.14 6.46,11.46 18.52,17.17 36.18,17.17 11.74,0 20.78,-3.61 27.19,-10.77 6.46,-7.16 10.39,-16.74 11.95,-28.64l73.33 0c-1.62,14.7 -5.44,28.05 -11.47,40.06 -5.98,11.95 -13.84,22.12 -23.53,30.52 -9.74,8.35 -21.05,14.7 -33.92,19.11 -12.92,4.36 -26.97,6.57 -42.2,6.57 -18.9,0 -36.02,-2.8 -51.31,-8.45 -15.29,-5.65 -28.37,-13.89 -39.19,-24.71 -10.77,-10.82 -18.95,-23.74 -24.55,-38.82 -5.55,-15.13 -8.35,-32.03 -8.35,-50.82 0,-24.44 5.06,-45.92 15.24,-64.39 10.12,-18.52 24.01,-32.73 41.67,-42.69 17.71,-9.96 37.36,-14.96 59.06,-14.96 17.66,0 33.32,2.09 47.16,6.35 13.78,4.2 25.62,10.44 35.48,18.62 9.9,8.24 17.71,18.2 23.42,29.88 5.76,11.74 9.36,25.09 10.82,40.11zm145.09 -38.11c-15.78,0 -27.24,6.35 -34.3,19.11 -7.05,12.76 -10.6,27.83 -10.6,45.17 0,11.19 1.34,21.85 4.09,31.97 2.74,10.13 7.48,18.47 14.32,25.04 6.78,6.57 15.83,9.85 27.13,9.85 10.61,0 19.33,-2.8 26.17,-8.45 6.84,-5.66 11.84,-13.46 14.96,-23.47 3.18,-9.96 4.74,-21.59 4.74,-34.94 0,-11.2 -1.61,-21.7 -4.79,-31.5 -3.23,-9.85 -8.29,-17.71 -15.29,-23.74 -6.94,-6.03 -15.77,-9.04 -26.43,-9.04zm0.64 -56.85c20.08,0 37.9,3.33 53.35,9.95 15.51,6.63 28.27,15.62 38.39,26.92 10.07,11.36 17.66,24.34 22.77,38.87 5.06,14.54 7.59,29.67 7.59,45.39 0,25.46 -5.33,47.64 -15.93,66.38 -10.61,18.78 -25.2,33 -43.72,42.74 -18.57,9.75 -39.35,14.59 -62.45,14.59 -24.33,0 -45.7,-4.9 -64.06,-14.64 -18.41,-9.8 -32.63,-24.07 -42.64,-42.8 -10.07,-18.74 -15.07,-41.03 -15.07,-66.92 0,-18.09 2.9,-34.56 8.77,-49.42 5.87,-14.81 14.21,-27.57 24.98,-38.17 10.77,-10.61 23.63,-18.79 38.55,-24.44 14.96,-5.66 31.44,-8.45 49.47,-8.45z"/>
   <path class="fil1" d="M932.94 1259.27l-68.48 0 0 -232.57 92.06 0 40.97 145.04 41.13 -145.04 92.01 0 0 232.57 -68.48 0 0 -71.06 0.97 -36.18 3.87 -41.99 -0.64 0 -42.32 149.23 -53.03 0 -42.26 -149.23 -0.59 0 3.23 34.24 1.56 36.23 0 78.76zm435.81 0l-194.14 0 0 -232.57 189.67 0 0 54.27 -113.44 0 0 33.27 95.94 0 0 54.27 -95.94 0 0 36.5 117.91 0 0 54.26zm111.76 -178.3l0 124.04 16.15 0c36.61,0 54.91,-20.89 54.91,-62.67 0,-16.09 -1.88,-28.58 -5.59,-37.41 -3.72,-8.83 -9.64,-15.02 -17.77,-18.58 -8.07,-3.6 -19.16,-5.38 -33.16,-5.38l-14.54 0zm23.9 178.3l-100.13 0 0 -232.57 102.13 0c19.11,0 36.07,2.21 50.93,6.68 14.8,4.41 27.51,11.25 38,20.4 10.56,9.21 18.63,20.84 24.18,34.89 5.54,14.1 8.29,30.58 8.29,49.47 0,80.76 -41.13,121.13 -123.4,121.13z"/>
   <path class="fil1" d="M1840.02 1265.16l-126.96 0 0 -163.23 53.5 0 0 125.15 73.46 0 0 38.08zm77.76 0l-53.51 0 0 -163.23 53.51 0 0 163.23zm83.2 -163.23l58.23 89.14 -2.04 -37.22 0 -51.92 51.24 0 0 163.23 -50.14 0 -58.23 -88.9 2.04 37.21 0 51.69 -51.24 0 0 -163.23 50.14 0zm276.55 163.23l-136.25 0 0 -163.23 133.12 0 0 38.09 -79.62 0 0 23.35 67.34 0 0 38.09 -67.34 0 0 25.62 82.75 0 0 38.08z"/>
  </g>
 </g>
</svg>
