<?xml version="1.0" encoding="UTF-8"?>
<!DOCTYPE svg PUBLIC "-//W3C//DTD SVG 1.1//EN" "http://www.w3.org/Graphics/SVG/1.1/DTD/svg11.dtd">
<!-- Creator: CorelDRAW -->
<svg xmlns="http://www.w3.org/2000/svg" xml:space="preserve" width="22.8598mm" height="22.8598mm" version="1.1" style="shape-rendering:geometricPrecision; text-rendering:geometricPrecision; image-rendering:optimizeQuality; fill-rule:evenodd; clip-rule:evenodd"
viewBox="0 0 2285.98 2285.98"
 xmlns:xlink="http://www.w3.org/1999/xlink"
 xmlns:xodm="http://www.corel.com/coreldraw/odm/2003">
 <defs>
  <style type="text/css">
   <![CDATA[
    .fil0 {fill:#373435;fill-rule:nonzero}
   ]]>
  </style>
 </defs>
 <g id="Слой_x0020_1">
  <metadata id="CorelCorpID_0Corel-Layer"/>
  <g id="_2595802716032">
   <path class="fil0" d="M1145.03 1183.4c-28.38,0.64 -59.28,-2.5 -90.69,-10.56 -31.34,-8.01 -63.62,-20.5 -92.71,-39.6 -7.13,-4.72 -13.95,-9.68 -21.16,-15.66 -6.4,-5.54 -13.57,-11.56 -19.88,-17.87 -13.16,-12.37 -25.21,-26.03 -36.18,-40.59 -22.15,-29.05 -38.78,-62.6 -48.43,-98.1 -9.95,-35.56 -13.3,-72.55 -11.79,-109.08 0.4,-36.56 8.37,-70.8 21.8,-101.97 13.3,-30.93 32.25,-58.14 54.51,-77.42 22.17,-19.48 47.76,-29.7 71.21,-30.46 31.63,-1.04 55.48,14.13 63.09,20.67 3.62,3.18 7.02,6.45 10.29,9.76l61.52 0c-36.36,-49.28 -74.04,-78.36 -137.2,-72.86 -34.24,2.99 -68.67,18.98 -94.98,44.18 -26.57,25.1 -46.78,57.48 -60.56,93.06 -13.7,35.42 -20.96,75.41 -19.92,114.42 -0.09,38.94 4.98,79.11 17.21,117.1 11.9,38.12 31.44,73.89 56.2,104.04 12.36,15.1 25.78,29.05 40.03,41.55 7.08,6.53 14.24,12.08 21.89,18.19 7.11,5.36 15.19,10.76 23.34,15.6 32.08,18.93 66.2,30.13 98.99,36.97 32.85,6.8 64.75,8.53 93.8,6.5 28.87,-2.07 55.37,-7.29 77.86,-13.82 22.6,-6.61 41.6,-14.5 56.7,-21.96 30.24,-14.96 44.98,-27.6 44.98,-27.6 0,0 -15.31,11.98 -45.91,25.65 -30.45,13.57 -76.9,28.24 -134.01,29.86z"/>
   <path class="fil0" d="M1492.47 848.68c0.09,-38.94 -4.98,-79.11 -17.21,-117.1 -11.9,-38.12 -31.44,-73.89 -56.19,-104.04 -12.37,-15.09 -25.79,-29.06 -40.04,-41.54 -7.08,-6.53 -14.25,-12.09 -21.9,-18.2 -7.11,-5.35 -15.18,-10.75 -23.33,-15.6 -32.08,-18.92 -66.2,-30.13 -98.99,-36.97 -32.85,-6.79 -64.74,-8.53 -93.8,-6.5 -28.86,2.07 -55.36,7.29 -77.86,13.84 -22.6,6.59 -41.6,14.49 -56.7,21.93 -30.24,14.98 -44.98,27.61 -44.98,27.61 0,0 15.31,-11.98 45.91,-25.65 30.44,-13.57 76.9,-28.24 134.01,-29.86 28.39,-0.64 59.28,2.5 90.69,10.58 31.34,8 63.62,20.48 92.71,39.59 7.13,4.72 13.95,9.67 21.17,15.66 6.39,5.53 13.56,11.55 19.87,17.86 13.16,12.38 25.21,26.03 36.19,40.59 22.14,29.04 38.77,62.61 48.43,98.1 9.94,35.56 13.29,72.55 11.78,109.08 -0.4,36.56 -8.37,70.81 -21.8,101.98 -13.3,30.93 -32.25,58.13 -54.51,77.41 -22.17,19.49 -47.76,29.7 -71.21,30.47 -31.63,1.03 -55.48,-14.13 -63.09,-20.68 -3.62,-3.17 -7.02,-6.45 -10.29,-9.75l-61.52 0c36.36,49.27 74.04,78.35 137.21,72.84 34.23,-2.98 68.67,-18.97 94.97,-44.17 26.57,-25.1 46.78,-57.47 60.56,-93.06 13.7,-35.41 20.96,-75.41 19.92,-114.42z"/>
   <path class="fil0" d="M1247.37 712.98c39.65,6.28 57.32,18.64 75.02,35.04 17.71,16.39 33.71,16.36 37.68,5.95 2.64,-6.94 -1.36,-12.91 -3.82,-16.53 -19.84,-29.13 -34.42,-46.74 -34.42,-46.74l-265.69 0c0,0 192.03,297.39 193.02,298.77l60.45 0c0,0 -54.21,-83.79 -103.82,-161.75 32.62,0.47 73.93,1.34 79.23,2.63 6.13,1.48 12.58,5.04 19.18,9.61 4.29,3.22 9.3,6.85 16.9,7.99 9.52,1.44 14.57,-7.51 10.11,-13.23 -4.44,-5.73 -27,-34.38 -27,-34.38l-115.81 0c-23.26,-36.72 -43.76,-69.54 -54.67,-88.02 0,0 99.18,-1.62 113.64,0.66z"/>
   <path class="fil0" d="M1039.05 987.02c-39.66,-6.28 -57.31,-18.64 -75.01,-35.03 -17.71,-16.39 -33.72,-16.37 -37.69,-5.95 -2.65,6.94 1.36,12.9 3.82,16.52 19.84,29.13 34.42,46.75 34.42,46.75l265.7 0c0,0 -192.04,-297.4 -193.03,-298.78l-60.46 0c0,0 54.22,83.79 103.83,161.75 -32.62,-0.47 -73.93,-1.34 -79.23,-2.63 -6.12,-1.47 -12.58,-5.04 -19.18,-9.61 -4.29,-3.22 -9.3,-6.85 -16.9,-8 -9.52,-1.43 -14.57,7.52 -10.12,13.24 4.45,5.73 27,34.38 27,34.38l115.82 0c23.26,36.72 43.75,69.54 54.68,88.02 0,0 -99.19,1.64 -113.65,-0.66z"/>
   <path class="fil0" d="M311.66 1349.92c-1.45,-5.14 -12.14,-35.86 -12.14,-39.95 0,-4.22 1.45,-7.91 4.62,-10.28l-304.15 0c27.94,16.22 26.49,47.86 26.49,76.33l0 157.55c0,29.4 1.45,59.59 -26.49,76.34l96.24 0c-27.42,-18.6 -25.58,-46.01 -25.58,-76.34l0 -64.6 168.89 0c12.53,0 15.82,-0.4 22.81,-11.6 6.06,-9.36 11.6,-18.58 17.66,-27.94 -11.6,4.2 -21.88,6.06 -34.02,6.06l-175.34 0 0 -102.31 118.13 0c45.22,0 79.63,3.3 122.88,16.74zm344.15 259.99c-13.05,-10.68 -36.38,-40.48 -57.75,-83.2l-96.76 -193.53c-3.7,-6.98 -7.92,-14.89 -7.92,-20.44 0,-5.67 4.22,-10.28 7.92,-13.05l-89.26 0c4.22,3.3 8.31,7.38 8.31,15.3 0,5.14 -3.69,12.66 -6.46,18.19l-92.95 177.19c-24.65,46.93 -45.22,81.34 -66.58,99.54l94.01 0c-9.77,-6.47 -15.43,-15.83 -15.43,-26.51 0,-7.91 4.74,-19.11 10.68,-30.71l9.36 -17.67 203.29 0 9.23 16.75c5.15,9.36 11.6,26.49 11.6,35.85 0,11.08 -6.06,16.75 -13.85,22.29l92.56 0zm-115.89 -108.37l-170.2 0 87.41 -166.91 82.79 166.91zm454.97 57.61c-29.39,11.73 -64.2,17.27 -100.98,17.27l-143.7 0 232.03 -276.73 -290.57 0c1.32,1.85 5.01,5.54 5.01,9.36 0,3.69 -1.32,9.75 -2.24,12.52l-11.2 29.27c30.18,-14.36 68.42,-17.66 116.8,-17.66l100.47 0 -232.57 276.73 316.67 0c-1.84,-1.85 -4.22,-4.61 -4.22,-8.83 0,-3.7 2.38,-9.77 3.83,-13.06l10.67 -28.87zm489.79 50.76c-24.26,-15.3 -26.1,-35.34 -26.1,-76.34l0 -157.55c0,-40.07 1.84,-61.03 26.1,-76.33l-108.38 0c1.32,1.85 4.62,6.06 4.62,10.68 0,3.29 -3.3,10.28 -6.07,15.42l-119.04 233.36 -122.35 -234.8c-2.77,-5.15 -5.14,-11.61 -5.14,-13.45 0,-4.22 4.22,-8.84 6.59,-11.21l-108.9 0c25.18,14.37 26.5,38.1 26.5,76.33l0 157.55c0,38.63 -1.32,61.96 -26.5,76.34l96.77 0c-24.13,-15.3 -26.11,-35.34 -26.11,-76.34l0 -193.4 130.8 254.44c0.92,1.84 3.16,5.53 3.16,8.83 0,3.7 -3.69,5.55 -5.94,6.47l63.16 0c-2.24,-0.92 -6.46,-2.77 -6.46,-7.39 0,-3.82 2.77,-9.36 4.61,-12.66l128.41 -248.38 0 192.09c0,38.23 -1.85,62.37 -26.5,76.34l96.77 0zm422.28 0c-13.05,-10.68 -36.39,-40.48 -57.75,-83.2l-96.77 -193.53c-3.69,-6.98 -7.91,-14.89 -7.91,-20.44 0,-5.67 4.22,-10.28 7.91,-13.05l-89.25 0c4.22,3.3 8.3,7.38 8.3,15.3 0,5.14 -3.69,12.66 -6.45,18.19l-92.95 177.19c-24.66,46.93 -45.23,81.34 -66.58,99.54l94.01 0c-9.77,-6.47 -15.44,-15.83 -15.44,-26.51 0,-7.91 4.75,-19.11 10.69,-30.71l9.36 -17.67 203.29 0 9.23 16.75c5.14,9.36 11.6,26.49 11.6,35.85 0,11.08 -6.06,16.75 -13.85,22.29l92.56 0zm-115.89 -108.37l-170.2 0 87.41 -166.91 82.79 166.91zm494.92 -201.85l-94.93 0c25.19,13.97 26.64,38.63 26.64,76.33l0 193.94 -183.79 -249.83c-2.77,-3.7 -6.98,-8.84 -6.98,-13.06 0,-3.69 1.84,-5.93 2.76,-7.38l-102.29 0c24.65,14.37 26.49,37.18 26.49,76.33l0 157.55c0,39.55 -1.84,61.43 -26.49,76.34l94.38 0c-22.8,-15.83 -25.57,-32.04 -25.57,-76.34l0 -195.25 185.63 254.32c1.84,2.36 5.14,6.99 5.14,10.8 0,2.78 -2.37,5.55 -3.3,6.47l83.2 0c-5.01,-5.54 -6.87,-12.13 -6.87,-21.89l0 -212c0,-39.54 1.33,-61.43 25.98,-76.33z"/>
   <path class="fil0" d="M459.6 1743.69l0 1.83 0 29.46c-1,-1.16 -2.4,-2.01 -4.78,-2.01 -5.39,0 -13.07,5.08 -29.41,5.08 -22.92,0 -38.76,-12.28 -38.76,-33.58 0,-15.08 9.07,-26.69 24.41,-30.9 6.08,-1.64 9.77,-1.84 16.15,-1.84 13.75,0 24.02,4.04 27.2,4.04 0.6,0 1.6,-0.19 1.99,-0.29l-2.78 9.5c-7.48,-3.64 -18.04,-6.24 -26.61,-6.24 -18.74,0 -30.59,9.6 -30.59,26.39 0,15.93 11.55,25.91 29.89,25.91 7.07,0 14.35,-1.73 18.34,-4.13 5.08,-2.97 5.88,-6.14 5.88,-16.12l0 -5.27 -22.32 0 -0.8 0c-1.8,0 -2.89,0.09 -5.88,1.35l2.09 -4.62c1.39,-3.17 1.6,-3.64 5.08,-3.64l32.89 0c-1.79,1.63 -1.99,3.07 -1.99,5.08z"/>
   <path class="fil0" d="M527.24 1720.09l-18.73 34.45 36.47 0 -17.74 -34.45zm22.73 56.8c1.69,-1.15 2.98,-2.29 2.98,-4.6 0,-1.92 -1.38,-5.47 -2.49,-7.39l-1.99 -3.45 -43.55 0 -1.99 3.64c-1.29,2.41 -2.29,4.7 -2.29,6.33 0,2.21 1.19,4.13 3.28,5.47l-20.12 0c4.57,-3.73 8.96,-10.84 14.25,-20.53l19.92 -36.56c0.6,-1.15 1.41,-2.69 1.41,-3.75 0,-1.63 -0.9,-2.48 -1.8,-3.16l19.14 0c-0.8,0.57 -1.7,1.53 -1.7,2.69 0,1.15 0.9,2.78 1.7,4.22l20.72 39.92c4.58,8.84 9.56,14.97 12.36,17.17l-19.83 0z"/>
   <path class="fil0" d="M620.9 1719.8l-15.54 0 0 21.88 19.43 0c18.04,0 27.31,-2.21 27.31,-11.42 0,-9.89 -11.86,-10.46 -31.2,-10.46zm29.9 57.1c0.5,-0.48 0.99,-1.16 0.99,-2.3 0,-3.75 -4.18,-12 -9.46,-17.09 -8.67,-8.35 -17.74,-8.92 -29.8,-8.92l-7.17 0 0 12.57c0,8.44 0.4,12.57 5.58,15.74l-20.73 0c5.28,-3.08 5.68,-7.49 5.68,-15.74l0 -32.44c0,-8.06 -0.49,-12.76 -5.68,-15.83l38.77 0c7.87,0 14.15,0.48 18.44,1.53 9.25,2.31 14.44,8.16 14.44,16.03 0,9.79 -7.18,15.83 -21.82,17.08 18.03,6.63 19.32,23.89 28.69,29.37l-17.93 0z"/>
   <path class="fil0" d="M768.38 1776.89c5.27,-2.88 5.68,-7.86 5.68,-15.73l0 -39.63 -27.51 51.23c-0.39,0.68 -1,1.83 -1,2.6 0,0.96 0.9,1.34 1.39,1.53l-13.54 0c0.49,-0.19 1.29,-0.57 1.29,-1.34 0,-0.67 -0.5,-1.44 -0.69,-1.82l-28.01 -52.49 0 39.92c0,8.44 0.4,12.57 5.58,15.73l-20.72 0c5.38,-2.97 5.67,-7.77 5.67,-15.73l0 -32.53c0,-7.88 -0.29,-12.77 -5.67,-15.74l23.31 0c-0.49,0.48 -1.39,1.44 -1.39,2.31 0,0.38 0.49,1.72 1.09,2.78l26.21 48.45 25.52 -48.17c0.59,-1.05 1.29,-2.49 1.29,-3.16 0,-0.96 -0.7,-1.83 -1,-2.21l23.22 0c-5.18,3.17 -5.58,7.48 -5.58,15.74l0 32.53c0,8.44 0.4,12.57 5.58,15.73l-20.72 0z"/>
   <path class="fil0" d="M883.65 1772.67c-0.2,0.39 -0.49,1.44 -0.49,2.21 0,1.06 0.6,1.63 1.19,2.02l-70.75 0c5.18,-3.07 5.58,-7.01 5.58,-15.54l0 -32.64c0,-8.44 -0.49,-12.67 -5.58,-15.83l69.75 0c-0.29,0.38 -0.99,1.06 -0.99,1.92 0,0.39 0.1,0.67 0.19,1.05l2.5 7.58c-9.37,-3.26 -19.94,-3.64 -33.09,-3.64l-23.32 0 0 18.9 36.28 0c2.88,0 5.88,-0.19 8.56,-0.96l-2.88 4.7c-1.8,2.88 -2.89,3.18 -4.98,3.18l-1.9 0 -35.08 0 0 24.36 20.04 0 2.19 0c14.94,0 25.01,-0.09 35.17,-3.93l-2.39 6.62z"/>
   <path class="fil0" d="M981.3 1728.63l0 43.75c0,2.03 0.4,3.36 1.5,4.51l-17.84 0c0.19,-0.19 0.7,-0.76 0.7,-1.34 0,-0.76 -0.7,-1.73 -1.1,-2.2l-39.76 -52.49 0 40.3c0,9.12 0.6,12.47 5.49,15.73l-20.24 0c5.28,-3.07 5.68,-7.57 5.68,-15.73l0 -32.53c0,-8.07 -0.4,-12.77 -5.68,-15.74l21.92 0c-0.2,0.29 -0.59,0.77 -0.59,1.53 0,0.87 0.89,1.92 1.49,2.69l39.37 51.54 0 -40.02c0,-7.77 -0.31,-12.86 -5.68,-15.74l20.32 0c-5.28,3.07 -5.58,7.58 -5.58,15.74z"/>
   <path class="fil0" d="M1058.51 1719.52l-6.17 0 0 41.64c0,9.21 0.59,12.38 5.48,15.73l-20.73 0c5.48,-2.68 5.77,-8.05 5.77,-15.73l0 -41.64 -8.66 0c-10.07,0 -18.44,0.66 -26.01,3.73l2.99 -7.19c0.2,-0.58 0.3,-0.86 0.3,-1.45 0,-1.04 -0.7,-1.43 -1.3,-1.72l74.94 0c-0.8,0.38 -1.4,0.77 -1.4,2.01 0,0.39 0.41,1.64 0.6,2.02l2.4 6.33c-8.97,-3.17 -17.54,-3.73 -28.21,-3.73z"/>
   <path class="fil0" d="M1150.37 1776.89c5.49,-2.78 5.78,-8.05 5.78,-15.73l0 -32.53c0,-7.58 -0.29,-13.05 -5.78,-15.74l21.03 0c-5.57,2.59 -5.77,8.35 -5.77,15.74l0 32.53c0,7.49 0.2,13.14 5.77,15.73l-21.03 0z"/>
   <path class="fil0" d="M1266.97 1728.63l0 43.75c0,2.03 0.39,3.36 1.49,4.51l-17.84 0c0.2,-0.19 0.7,-0.76 0.7,-1.34 0,-0.76 -0.7,-1.73 -1.09,-2.2l-39.77 -52.49 0 40.3c0,9.12 0.6,12.47 5.49,15.73l-20.24 0c5.29,-3.07 5.68,-7.57 5.68,-15.73l0 -32.53c0,-8.07 -0.39,-12.77 -5.68,-15.74l21.92 0c-0.19,0.29 -0.59,0.77 -0.59,1.53 0,0.87 0.9,1.92 1.49,2.69l39.37 51.54 0 -40.02c0,-7.77 -0.31,-12.86 -5.68,-15.74l20.33 0c-5.29,3.07 -5.58,7.58 -5.58,15.74z"/>
   <path class="fil0" d="M1355.54 1726.32c-7.08,-6.14 -18.24,-6.52 -31.2,-6.52l-12.25 0 0 50.18 11.46 0c10.56,0 19.53,-0.19 27.1,-3.93 8.08,-3.93 12.46,-11.32 12.46,-21.21 0,-7.29 -2.98,-14.58 -7.57,-18.52zm0.49 45.88c-8.96,4.31 -19.92,4.69 -34.18,4.69l-24.81 0c5.18,-3.16 5.59,-7.29 5.59,-15.64l0 -32.53c0,-8.16 -0.31,-12.67 -5.59,-15.83l33.98 0c9.97,0 18.24,1.53 23.82,3.94 11.16,4.79 18.03,14.87 18.03,27.44 0,13.15 -5.77,22.65 -16.84,27.93z"/>
   <path class="fil0" d="M1468.13 1728.63l0 17.94c0,9.22 -0.19,16.61 -5.79,22.65 -4.97,5.48 -14.34,8.83 -26.4,8.83 -13.05,0 -22.81,-3.75 -28.2,-10.55 -4.48,-5.76 -4.68,-12.2 -4.68,-20.93l0 -17.94c0,-7.77 -0.31,-12.86 -5.68,-15.74l20.53 0c-5.39,2.69 -5.79,7.97 -5.79,15.74l0 17.94c0,8.92 0.6,14.88 6.28,19.58 4.09,3.36 10.57,5.18 17.64,5.18 11.16,0 19.24,-4.51 21.93,-12.28 0.99,-2.88 1.09,-7.39 1.09,-13.24l0 -17.18c0,-7.3 -0.29,-13.34 -5.88,-15.74l20.53 0c-5.38,2.88 -5.58,7.86 -5.58,15.74z"/>
   <path class="fil0" d="M1529.51 1778.05c-11.67,0 -22.33,-2.78 -26.52,-2.78 -1.19,0 -2.09,0.37 -2.69,0.58l-2.59 -12.1c9.26,3.75 19.04,7.29 30.59,7.29 12.46,0 21.43,-4.89 21.43,-13.24 0,-9.69 -10.27,-9.6 -23.22,-11.33 -15.95,-2.1 -28.5,-2.78 -28.5,-16.5 0,-10.94 10.66,-18.23 32.59,-18.23 11.75,0 20.82,2.78 24.21,2.78 0.4,0 1.3,-0.29 1.6,-0.38l-2.79 9.6c-8.08,-3.56 -16.64,-5 -23.43,-5 -14.24,0 -22.42,4.13 -22.42,10.76 0,16.5 51.73,0.85 51.73,27.73 0,12.66 -11.67,20.82 -29.99,20.82z"/>
   <path class="fil0" d="M1630.44 1719.52l-6.19 0 0 41.64c0,9.21 0.6,12.38 5.48,15.73l-20.72 0c5.48,-2.68 5.78,-8.05 5.78,-15.73l0 -41.64 -8.67 0c-10.07,0 -18.43,0.66 -26.01,3.73l2.99 -7.19c0.2,-0.58 0.31,-0.86 0.31,-1.45 0,-1.04 -0.71,-1.43 -1.31,-1.72l74.95 0c-0.8,0.38 -1.4,0.77 -1.4,2.01 0,0.39 0.4,1.64 0.6,2.02l2.38 6.33c-8.96,-3.17 -17.53,-3.73 -28.19,-3.73z"/>
   <path class="fil0" d="M1710.64 1719.8l-15.54 0 0 21.88 19.42 0c18.05,0 27.31,-2.21 27.31,-11.42 0,-9.89 -11.86,-10.46 -31.19,-10.46zm29.89 57.1c0.5,-0.48 1.01,-1.16 1.01,-2.3 0,-3.75 -4.19,-12 -9.48,-17.09 -8.67,-8.35 -17.73,-8.92 -29.79,-8.92l-7.17 0 0 12.57c0,8.44 0.4,12.57 5.58,15.74l-20.73 0c5.28,-3.08 5.68,-7.49 5.68,-15.74l0 -32.44c0,-8.06 -0.5,-12.76 -5.68,-15.83l38.76 0c7.87,0 14.15,0.48 18.44,1.53 9.27,2.31 14.44,8.16 14.44,16.03 0,9.79 -7.16,15.83 -21.82,17.08 18.04,6.63 19.34,23.89 28.71,29.37l-17.95 0z"/>
   <path class="fil0" d="M1841.37 1730.74l-22.22 27.54 0 5.47c0,5.57 0.6,11.32 5.68,13.14l-20.23 0c4.68,-2.01 5.09,-6.52 5.09,-10.26l0 -2.59 0 -5.86 -20.93 -26.1c-7.68,-9.59 -13.76,-16.5 -19.54,-19.19l22.63 0c-1.2,0.87 -2.3,1.82 -2.3,3.94 0,2.29 2,5.17 5.19,9.11l19.73 24.66 21.03 -25.91c2.68,-3.35 4.38,-6.04 4.38,-8.05 0,-2.12 -0.59,-2.79 -2.29,-3.75l22.52 0c-8.57,4.89 -12.86,10.65 -18.74,17.85z"/>
  </g>
 </g>
</svg>
