<?xml version="1.0" encoding="UTF-8"?>
<!DOCTYPE svg PUBLIC "-//W3C//DTD SVG 1.1//EN" "http://www.w3.org/Graphics/SVG/1.1/DTD/svg11.dtd">
<!-- Creator: CorelDRAW -->
<svg xmlns="http://www.w3.org/2000/svg" xml:space="preserve" width="22.8598mm" height="22.8598mm" version="1.1" style="shape-rendering:geometricPrecision; text-rendering:geometricPrecision; image-rendering:optimizeQuality; fill-rule:evenodd; clip-rule:evenodd"
viewBox="0 0 2285.98 2285.98"
 xmlns:xlink="http://www.w3.org/1999/xlink"
 xmlns:xodm="http://www.corel.com/coreldraw/odm/2003">
 <defs>
  <style type="text/css">
   <![CDATA[
    .fil3 {fill:#28563F}
    .fil0 {fill:#28563F;fill-rule:nonzero}
    .fil2 {fill:#28563F}
    .fil1 {fill:#28563F;fill-rule:nonzero}
   ]]>
  </style>
 </defs>
 <g id="Слой_x0020_1">
  <metadata id="CorelCorpID_0Corel-Layer"/>
  <g id="_2630708514384">
   <g>
    <path class="fil0" d="M965.63 1225.38l0 -4.56 26.46 -6.85 0 -300.23 -26.46 -6.84 0 -4.57 264.64 0 -15.52 117.72 -5.93 0 -21.45 -74.83c-3.65,-12.16 -9.27,-21.21 -16.88,-27.14 -7.6,-5.94 -15.97,-8.9 -25.09,-8.9l-86.24 0 0 148.75 46.09 0c4.86,0 9.35,-1.22 13.46,-3.65 4.1,-2.44 7.68,-5.63 10.72,-9.59 5.17,-5.47 9.81,-12.62 13.92,-21.44 4.1,-8.82 6.46,-17.95 7.07,-27.38l4.56 0 0 115.44 -4.56 0 -41.98 -47.91 -49.28 0 0 151.94 26.47 5.48 0 4.56 -120 0zm263.23 0l0 -4.56 27.38 -5.48 124.11 -313.01 42.89 0 121.37 313.01 26.46 5.48 0 4.56 -130.49 0 0 -3.19 32.39 -6.39 -101.29 -261.91 -5.02 0 -43.35 115.9c-6.69,16.42 -11.78,32.24 -15.28,47.45 -3.5,15.21 -5.25,28.44 -5.25,39.7 0,12.17 2.13,23.12 6.39,32.85 4.26,9.73 10.95,17.34 20.07,22.81 9.13,5.48 20.99,8.22 35.59,8.22l0 4.56 -135.97 0zm78.03 -130.95l0 -4.57 121.82 -6.38 0 10.95 -121.82 0zm317.53 130.95l208.52 -315.75 -108.14 0c-6.99,0 -13.61,2.13 -19.84,6.39 -6.24,4.26 -11.87,11.03 -16.89,20.31 -5.02,9.27 -9.5,21.82 -13.46,37.64l-15.51 55.67 -7.3 0 -14.15 -127.31 270.12 0 -208.98 315.75 113.62 0c8.21,0 15.66,-2.43 22.36,-7.3 6.69,-4.87 12.69,-12.85 18.02,-23.95 5.32,-11.11 9.96,-25.94 13.91,-44.49l11.41 -47 6.85 0 15.05 130.04 -275.59 0zm509.17 -329.89c21.9,0 42.13,3.5 60.69,10.49 18.55,7 34.67,17.42 48.36,31.26 13.69,13.84 24.34,31.25 31.94,52.24 7.61,20.99 11.41,45.63 11.41,73.92 0,27.68 -3.65,52.09 -10.95,73.23 -7.3,21.14 -17.8,38.71 -31.49,52.71 -13.68,13.99 -29.81,24.63 -48.36,31.94 -18.56,7.29 -39.09,10.94 -61.6,10.94 -22.81,0 -43.65,-3.65 -62.51,-10.94 -18.86,-7.31 -35.13,-18.03 -48.82,-32.17 -13.69,-14.15 -24.26,-31.79 -31.71,-52.93 -7.45,-21.14 -11.18,-45.4 -11.18,-72.78 0,-25.85 3.65,-49.13 10.95,-69.81 7.3,-20.68 17.72,-38.33 31.26,-52.93 13.53,-14.6 29.73,-25.78 48.59,-33.53 18.86,-7.76 40,-11.64 63.42,-11.64zm0 5.48c-14.3,0 -26.77,3.26 -37.41,9.81 -10.65,6.53 -19.55,16.5 -26.7,29.88 -7.14,13.39 -12.54,30.12 -16.19,50.19 -3.65,20.08 -5.48,43.8 -5.48,71.18 0,27.38 1.83,51.41 5.48,72.1 3.65,20.68 9.05,37.79 16.19,51.33 7.15,13.53 16.05,23.72 26.7,30.57 10.64,6.84 23.11,10.26 37.41,10.26 13.99,0 26.24,-3.34 36.73,-10.04 10.5,-6.69 19.24,-16.8 26.24,-30.34 6.99,-13.53 12.24,-30.57 15.74,-51.1 3.5,-20.53 5.25,-44.79 5.25,-72.78 0,-27.68 -1.75,-51.63 -5.25,-71.86 -3.5,-20.23 -8.75,-36.89 -15.74,-49.97 -7,-13.08 -15.74,-22.89 -26.24,-29.42 -10.49,-6.55 -22.74,-9.81 -36.73,-9.81z"/>
    <g>
     <path class="fil0" d="M976.94 1389.13l0 -76.55 45.2 0 0 8.41 -34.86 0 0 25.09 32.13 0 0 8.41 -32.13 0 0 34.64 -10.34 0zm108.31 -24.42l-30.55 0 -8.86 24.42 -10.79 0 28.85 -76.55 12.6 0 29.19 76.55 -11.24 0 -9.2 -24.42zm-28.28 -7.95l26.01 0 -8.75 -22.94c-1.21,-3.26 -2.65,-7.53 -4.31,-12.83l-0.23 0c-1.44,5.14 -2.76,9.39 -3.97,12.72l-8.75 23.05zm146.58 32.37l-1.93 -33.85c-0.9,-17.26 -1.36,-28.58 -1.36,-33.95l-0.23 0c-2.87,8.78 -6.51,18.7 -10.9,29.75l-14.76 37.59 -8.18 0 -13.63 -37.13c-4.01,-11.36 -7.19,-21.43 -9.54,-30.21l-0.22 0c-0.99,21.05 -1.55,32.63 -1.71,34.75l-2.27 33.05 -9.88 0 5.57 -76.55 13.74 0 14.31 37.82c3.03,8.02 5.79,16.54 8.29,25.55l0.22 0c2.28,-7.8 5.27,-16.35 8.98,-25.66l15.21 -37.71 13.63 0 4.88 76.55 -10.22 0zm40.06 -76.55l10.34 0 0 76.55 -10.34 0 0 -76.55zm42.33 76.55l0 -76.55 10.33 0 0 67.91 36.46 0 0 8.64 -46.79 0zm91.73 0l-10.34 0 0 -32.48 -26.68 -44.07 11.92 0 12.15 21.81c5.07,9.31 7.8,14.42 8.18,15.33l0.23 0c1.06,-2.27 3.86,-7.38 8.4,-15.33l12.49 -21.81 11.93 0 -28.28 43.95 0 32.6z"/>
     <path class="fil0" d="M1466 1389.13l0 -75.53c6.06,-1.13 13.1,-1.7 21.12,-1.7 10.9,0 18.85,2.16 23.85,6.47 4.16,3.64 6.25,8.45 6.25,14.43 0,4.84 -1.44,8.97 -4.32,12.38 -2.88,3.4 -6.51,5.79 -10.9,7.15l0 0.23c5.6,2.04 9.46,7.04 11.58,14.99 3.33,12.72 5.45,19.91 6.36,21.58l-10.67 0c-1.22,-2.05 -2.99,-8.11 -5.34,-18.18 -1.29,-5.3 -3.14,-9.08 -5.57,-11.35 -2.42,-2.27 -6.01,-3.49 -10.78,-3.64l-11.25 0 0 33.17 -10.33 0zm10.33 -68.37l0 27.48 12.15 0c5.68,0 10.17,-1.3 13.46,-3.92 3.29,-2.61 4.94,-6.07 4.94,-10.39 0,-4.92 -1.72,-8.51 -5.16,-10.79 -3.45,-2.27 -8.09,-3.4 -13.92,-3.4 -4.92,0 -8.74,0.34 -11.47,1.02zm113.11 24.19l0 8.4 -33.16 0 0 27.37 37.02 0 0 8.41 -47.35 0 0 -76.55 45.42 0 0 8.41 -35.09 0 0 23.96 33.16 0zm27.48 40.09l2.84 -8.52c5.83,3.71 12.45,5.57 19.87,5.57 5.31,0 9.49,-1.2 12.55,-3.58 3.07,-2.39 4.6,-5.55 4.6,-9.49 0,-3.63 -1.19,-6.56 -3.57,-8.8 -2.39,-2.23 -6.5,-4.26 -12.33,-6.07 -7.57,-2.35 -13.17,-5.25 -16.8,-8.69 -3.64,-3.44 -5.45,-7.85 -5.45,-13.23 0,-6.13 2.44,-11.17 7.32,-15.11 4.88,-3.93 11.22,-5.9 19.02,-5.9 7.8,0 14.12,1.36 18.97,4.09l-2.96 8.17c-4.69,-2.64 -10.1,-3.97 -16.23,-3.97 -5.31,0 -9.24,1.17 -11.81,3.52 -2.58,2.35 -3.87,5.04 -3.87,8.06 0,3.41 1.27,6.19 3.81,8.35 2.54,2.16 6.79,4.18 12.77,6.08 7.42,2.42 12.87,5.35 16.36,8.8 3.48,3.44 5.22,8.08 5.22,13.91 0,6.21 -2.4,11.47 -7.21,15.79 -4.81,4.31 -11.94,6.47 -21.41,6.47 -3.93,0 -7.95,-0.51 -12.04,-1.53 -4.08,-1.03 -7.3,-2.33 -9.65,-3.92zm95.39 4.09l0 -68.14 -26.46 0 0 -8.41 63.37 0 0 8.41 -26.57 0 0 68.14 -10.34 0zm93.69 -24.42l-30.55 0 -8.86 24.42 -10.78 0 28.84 -76.55 12.61 0 29.18 76.55 -11.24 0 -9.2 -24.42zm-28.28 -7.95l26.01 0 -8.74 -22.94c-1.22,-3.26 -2.65,-7.53 -4.32,-12.83l-0.23 0c-1.44,5.14 -2.76,9.39 -3.97,12.72l-8.75 23.05zm70.87 -44.18l10.33 0 0 43.38c0,8.79 1.84,15.35 5.51,19.71 3.67,4.35 8.65,6.53 14.93,6.53 6.67,0 11.87,-2.2 15.62,-6.59 3.75,-4.39 5.62,-10.94 5.62,-19.65l0 -43.38 10.33 0 0 42.93c0,11.81 -2.91,20.59 -8.74,26.35 -5.83,5.75 -13.63,8.63 -23.4,8.63 -9.16,0 -16.48,-2.8 -21.97,-8.4 -5.49,-5.61 -8.23,-14.39 -8.23,-26.35l0 -43.16zm94.71 76.55l0 -75.53c6.05,-1.13 13.09,-1.7 21.12,-1.7 10.9,0 18.85,2.16 23.85,6.47 4.16,3.64 6.24,8.45 6.24,14.43 0,4.84 -1.43,8.97 -4.31,12.38 -2.88,3.4 -6.51,5.79 -10.9,7.15l0 0.23c5.6,2.04 9.46,7.04 11.58,14.99 3.33,12.72 5.45,19.91 6.36,21.58l-10.68 0c-1.21,-2.05 -2.99,-8.11 -5.33,-18.18 -1.29,-5.3 -3.14,-9.08 -5.57,-11.35 -2.42,-2.27 -6.02,-3.49 -10.79,-3.64l-11.24 0 0 33.17 -10.33 0zm10.33 -68.37l0 27.48 12.15 0c5.68,0 10.17,-1.3 13.46,-3.92 3.29,-2.61 4.94,-6.07 4.94,-10.39 0,-4.92 -1.72,-8.51 -5.17,-10.79 -3.44,-2.27 -8.08,-3.4 -13.91,-3.4 -4.92,0 -8.74,0.34 -11.47,1.02zm114.13 43.95l-30.55 0 -8.86 24.42 -10.78 0 28.84 -76.55 12.61 0 29.18 76.55 -11.24 0 -9.2 -24.42zm-28.28 -7.95l26.01 0 -8.75 -22.94c-1.21,-3.26 -2.65,-7.53 -4.31,-12.83l-0.23 0c-1.44,5.14 -2.76,9.39 -3.97,12.72l-8.75 23.05zm84.15 32.37l-9.76 0 0 -76.55 11.69 0 28.05 39.64c6.59,9.46 11.55,17.56 14.88,24.3l0.34 -0.11c-0.75,-7.12 -1.13,-17.19 -1.13,-30.21l0 -33.62 9.76 0 0 76.55 -10.56 0 -27.6 -39.41c-7.49,-11.06 -12.83,-19.57 -16.01,-25.55l-0.34 0.11c0.46,7.65 0.68,17.68 0.68,30.09l0 34.76zm102.67 0l0 -68.14 -26.47 0 0 -8.41 63.37 0 0 8.41 -26.57 0 0 68.14 -10.33 0z"/>
    </g>
   </g>
   <g>
    <g>
     <path class="fil1" d="M411.24 731.73c113.56,0 216.38,46.04 290.8,120.46 74.42,74.42 120.45,177.24 120.45,290.8 0,113.56 -46.03,216.38 -120.45,290.8 -74.42,74.42 -177.24,120.45 -290.8,120.45 -113.56,0 -216.38,-46.03 -290.8,-120.45 -74.42,-74.42 -120.45,-177.24 -120.45,-290.8 0,-113.56 46.03,-216.38 120.45,-290.8 74.42,-74.42 177.24,-120.46 290.8,-120.46zm276.43 134.84c-70.75,-70.75 -168.48,-114.5 -276.43,-114.5 -107.95,0 -205.68,43.75 -276.42,114.5 -70.74,70.74 -114.5,168.47 -114.5,276.42 0,107.95 43.76,205.68 114.5,276.43 70.74,70.74 168.47,114.49 276.42,114.49 107.95,0 205.68,-43.75 276.43,-114.49 70.73,-70.75 114.49,-168.48 114.49,-276.43 0,-107.95 -43.76,-205.68 -114.49,-276.42z"/>
     <path class="fil1" d="M285.46 1462.38c3.92,1.53 5.85,5.94 4.32,9.85 -1.53,3.92 -5.94,5.85 -9.86,4.32 -67.46,-26.58 -124.91,-73.03 -165.14,-132.13 -39.09,-57.42 -61.94,-126.77 -61.94,-201.43 0,-52.77 11.63,-103.09 32.35,-148.43 21.57,-47.21 53.01,-88.99 91.46,-122.5 3.16,-2.77 7.97,-2.45 10.73,0.71 2.76,3.16 2.44,7.96 -0.72,10.73 -36.86,32.12 -66.99,72.15 -87.65,117.38 -19.81,43.33 -30.92,91.51 -30.92,142.11 0,71.52 21.86,137.91 59.26,192.85 38.53,56.61 93.54,101.09 158.11,126.54z"/>
     <path class="fil1" d="M635.82 883.5c-3.16,-2.77 -3.48,-7.57 -0.71,-10.73 2.76,-3.16 7.56,-3.48 10.72,-0.71 38.37,33.53 69.83,75.39 91.43,122.67 20.72,45.34 32.38,95.62 32.38,148.26 0,75.79 -23.65,146.14 -63.93,204.09 -41.46,59.64 -100.57,106.16 -169.65,131.95 -3.93,1.46 -8.31,-0.54 -9.77,-4.47 -1.47,-3.93 0.53,-8.31 4.46,-9.77 66.11,-24.68 122.72,-69.24 162.45,-126.41 38.55,-55.47 61.19,-122.82 61.19,-195.39 0,-50.48 -11.15,-98.61 -30.95,-141.94 -20.69,-45.29 -50.85,-85.42 -87.62,-117.55z"/>
     <path class="fil1" d="M411.24 830.56c86.27,0 164.38,34.97 220.92,91.51 56.54,56.54 91.51,134.65 91.51,220.92 0,86.27 -34.97,164.38 -91.51,220.92 -56.54,56.54 -134.65,91.51 -220.92,91.51 -86.27,0 -164.38,-34.97 -220.92,-91.51 -56.54,-56.54 -91.51,-134.65 -91.51,-220.92 0,-86.27 34.97,-164.38 91.51,-220.92 56.54,-56.54 134.65,-91.51 220.92,-91.51zm206.55 105.88c-52.86,-52.85 -125.89,-85.55 -206.55,-85.55 -80.66,0 -153.69,32.7 -206.54,85.55 -52.86,52.86 -85.56,125.89 -85.56,206.55 0,80.66 32.7,153.69 85.56,206.55 52.85,52.85 125.88,85.55 206.54,85.55 80.66,0 153.69,-32.7 206.55,-85.55 52.85,-52.86 85.55,-125.89 85.55,-206.55 0,-80.66 -32.7,-153.69 -85.55,-206.55z"/>
     <polygon class="fil2" points="402.18,753.86 413.16,776.9 438.36,780.15 419.85,797.71 424.54,822.68 402.13,810.5 379.82,822.68 384.48,797.6 366,780.15 391.3,776.83 "/>
     <polygon class="fil2" points="306.91,768 323.21,787.64 348.44,784.6 334.8,806.16 345.49,829.22 320.76,822.92 302.13,840.21 300.49,814.74 278.29,802.37 302,792.94 "/>
     <polygon class="fil2" points="216.8,805.82 237.33,820.96 261.1,811.95 253.04,836.16 268.96,855.98 243.44,855.8 229.51,877.05 221.8,852.73 197.28,846.06 218.02,831.2 "/>
     <polygon class="fil2" points="498.74,764.97 504.84,789.74 528.87,798.02 507.19,811.48 506.74,836.89 487.25,820.43 462.94,827.86 472.57,804.23 458,783.41 483.44,785.26 "/>
     <polygon class="fil2" points="590.36,798.28 590.14,823.79 611.37,837.75 587.04,845.43 580.33,869.94 565.51,849.17 540.12,850.36 555.29,829.84 546.32,806.07 570.52,814.16 "/>
    </g>
    <path class="fil3" d="M320.1 1137.35c11.99,-10.24 20.05,-23.5 24.53,-37.69 4.48,14.19 12.54,27.45 24.53,37.69 -11.99,10.25 -20.05,23.51 -24.53,37.7 -4.48,-14.19 -12.54,-27.45 -24.53,-37.7zm-11.99 -161.22l0 326.92 -28.81 7.46 0 4.96 130.66 0 0 -4.96 -28.81 -5.97 0 -165.44 53.66 0 45.7 52.17 4.97 0 0 -125.71 -4.97 0c-0.66,10.27 -3.23,20.21 -7.7,29.81 -4.47,9.61 -9.52,17.39 -15.15,23.36 -3.31,4.3 -7.2,7.78 -11.68,10.43 -4.47,2.65 -9.35,3.97 -14.65,3.97l-50.18 0 0 -161.97 93.9 0c9.94,0 19.04,3.23 27.33,9.69 8.28,6.46 14.4,16.31 18.38,29.56l23.35 81.49 6.46 0 16.89 -128.19 -288.16 0 0 4.97 28.81 7.45zm36.52 230.79c4.48,14.2 12.54,27.46 24.53,37.7 -11.99,10.25 -20.05,23.51 -24.53,37.7 -4.48,-14.19 -12.54,-27.45 -24.53,-37.7 11.99,-10.24 20.05,-23.5 24.53,-37.7zm0 -139.14c-4.48,-14.19 -12.54,-27.45 -24.53,-37.7 11.99,-10.24 20.05,-23.5 24.53,-37.69 4.48,14.19 12.54,27.45 24.53,37.69 -11.99,10.25 -20.05,23.51 -24.53,37.7z"/>
    <path class="fil0" d="M329.37 1480.21l-1.19 4.17 -16.44 -4.67 -3.86 13.57 18.36 5.21 -1.18 4.17 -23.48 -6.67 10.77 -37.96 22.53 6.4 -1.18 4.17 -17.4 -4.94 -3.38 11.88 16.45 4.67zm-1.14 21.16l2.21 -4.07c2.63,2.41 5.82,3.96 9.58,4.63 2.69,0.48 4.93,0.25 6.7,-0.68 1.77,-0.93 2.83,-2.4 3.19,-4.4 0.33,-1.84 -0.01,-3.44 -1.02,-4.79 -1,-1.35 -2.91,-2.75 -5.7,-4.2 -3.63,-1.87 -6.21,-3.85 -7.74,-5.93 -1.53,-2.08 -2.06,-4.48 -1.57,-7.21 0.56,-3.11 2.25,-5.44 5.09,-7 2.83,-1.55 6.23,-1.98 10.19,-1.27 3.95,0.71 7.04,1.97 9.25,3.79l-2.24 3.88c-2.14,-1.77 -4.77,-2.93 -7.88,-3.49 -2.69,-0.48 -4.8,-0.24 -6.31,0.72 -1.52,0.96 -2.42,2.21 -2.69,3.74 -0.31,1.73 0.08,3.26 1.17,4.58 1.09,1.33 3.07,2.74 5.93,4.25 3.55,1.9 6.05,3.88 7.51,5.94 1.45,2.07 1.91,4.58 1.39,7.54 -0.57,3.15 -2.26,5.6 -5.09,7.36 -2.84,1.75 -6.65,2.2 -11.46,1.34 -1.99,-0.36 -3.98,-0.98 -5.97,-1.87 -1.98,-0.89 -3.49,-1.84 -4.54,-2.86zm41.89 8.84l4.43 -34.85 -13.53 -1.72 0.54 -4.29 32.41 4.11 -0.55 4.3 -13.59 -1.73 -4.42 34.85 -5.29 -0.67zm59.11 1.88l-26.27 0.66 -0.08 -3.16 4.23 -3.91c5.95,-5.62 9.95,-9.76 12.01,-12.43 2.06,-2.67 3.08,-5.25 3.06,-7.75 -0.06,-2.18 -0.74,-3.99 -2.04,-5.42 -1.31,-1.43 -3.42,-2.11 -6.35,-2.04 -3.16,0.08 -6.11,1.37 -8.86,3.86l-1.91 -3.65c3.29,-2.93 7.21,-4.45 11.77,-4.57 4.06,-0.1 7.18,0.94 9.37,3.13 2.18,2.19 3.31,4.79 3.38,7.79 0.09,3.24 -0.93,6.33 -3.04,9.28 -2.11,2.94 -5.71,6.78 -10.78,11.51l-3.09 2.72 0 0.11 18.49 -0.46 0.11 4.33zm17.3 -0.56l-0.06 0c-4.05,0.31 -7.44,-1.16 -10.17,-4.39 -2.73,-3.24 -4.37,-7.93 -4.92,-14.07 -0.47,-6.23 0.48,-11.19 2.86,-14.9 2.38,-3.7 5.69,-5.72 9.94,-6.04 4.32,-0.33 7.79,1.1 10.42,4.29 2.63,3.18 4.18,7.79 4.63,13.83 0.49,6.38 -0.36,11.43 -2.54,15.16 -2.18,3.73 -5.57,5.77 -10.16,6.12zm-0.13 -4.04l0.05 -0.01c2.85,-0.21 4.89,-1.77 6.14,-4.66 1.25,-2.9 1.68,-6.85 1.3,-11.87 -0.38,-4.91 -1.38,-8.65 -3,-11.23 -1.63,-2.57 -3.88,-3.75 -6.76,-3.53 -2.53,0.19 -4.48,1.74 -5.87,4.64 -1.38,2.91 -1.89,6.71 -1.54,11.42 0.3,4.95 1.34,8.78 3.11,11.48 1.77,2.7 3.96,3.95 6.57,3.76zm43.2 -3.15l-25.88 4.62 -0.55 -3.11 3.59 -4.51c5.04,-6.45 8.37,-11.15 10.01,-14.1 1.63,-2.94 2.25,-5.65 1.85,-8.12 -0.39,-2.15 -1.33,-3.83 -2.84,-5.05 -1.5,-1.22 -3.7,-1.57 -6.58,-1.06 -3.11,0.56 -5.84,2.28 -8.18,5.15l-2.43 -3.31c2.8,-3.4 6.45,-5.49 10.94,-6.3 4,-0.71 7.24,-0.15 9.73,1.69 2.49,1.83 4,4.23 4.53,7.19 0.56,3.19 0.03,6.39 -1.62,9.62 -1.64,3.23 -4.61,7.57 -8.91,13.01l-2.65 3.15 0.02 0.12 18.21 -3.26 0.76 4.27zm3.51 -2.71l0.29 -4.34c1.14,0.32 2.63,0.52 4.45,0.59 1.83,0.07 3.62,-0.15 5.39,-0.65 3.19,-0.9 5.27,-2.3 6.23,-4.2 0.96,-1.9 1.19,-3.68 0.67,-5.36 -0.73,-2.43 -2.25,-3.96 -4.56,-4.58 -2.31,-0.63 -4.85,-0.54 -7.63,0.25l-3.38 0.96 -1.1 -3.89 3.44 -0.97c2.25,-0.64 4.11,-1.73 5.58,-3.27 1.47,-1.53 1.93,-3.29 1.36,-5.28 -0.42,-1.5 -1.36,-2.63 -2.81,-3.37 -1.45,-0.75 -3.36,-0.78 -5.72,-0.11 -3.01,0.85 -5.5,2.51 -7.47,4.98l-2.52 -3.3c0.93,-1.16 2.27,-2.31 4.04,-3.46 1.76,-1.15 3.65,-2.01 5.68,-2.59 3.72,-1.05 6.78,-0.99 9.18,0.19 2.41,1.19 3.96,3 4.65,5.44 0.56,1.95 0.44,3.85 -0.36,5.7 -0.79,1.85 -2.24,3.5 -4.34,4.95l0.03 0.11c2.64,-0.26 5.02,0.22 7.13,1.44 2.12,1.23 3.51,3.04 4.2,5.45 0.87,3.08 0.36,6.04 -1.53,8.89 -1.89,2.85 -5.1,4.92 -9.64,6.21 -2.18,0.62 -4.29,0.92 -6.32,0.91 -2.03,-0.01 -3.68,-0.25 -4.94,-0.7z"/>
   </g>
  </g>
 </g>
</svg>
