<?xml version="1.0" encoding="UTF-8"?>
<!DOCTYPE svg PUBLIC "-//W3C//DTD SVG 1.1//EN" "http://www.w3.org/Graphics/SVG/1.1/DTD/svg11.dtd">
<!-- Creator: CorelDRAW -->
<svg xmlns="http://www.w3.org/2000/svg" xml:space="preserve" width="22.8598mm" height="22.8598mm" version="1.1" style="shape-rendering:geometricPrecision; text-rendering:geometricPrecision; image-rendering:optimizeQuality; fill-rule:evenodd; clip-rule:evenodd"
viewBox="0 0 2285.98 2285.98"
 xmlns:xlink="http://www.w3.org/1999/xlink"
 xmlns:xodm="http://www.corel.com/coreldraw/odm/2003">
 <defs>
  <style type="text/css">
   <![CDATA[
    .fil0 {fill:#44A1D9}
   ]]>
  </style>
 </defs>
 <g id="Слой_x0020_1">
  <metadata id="CorelCorpID_0Corel-Layer"/>
  <g id="_1235309310016">
   <path class="fil0" d="M320.67 1400.57l0 0c58.06,-18.1 99.09,66.55 22.25,88.7 41.62,-23.64 25.38,-87.47 -22.25,-88.7z"/>
   <path class="fil0" d="M343.67 1391.54l0 0c56.11,-27.08 107.5,51.38 35.87,84.12 37.34,-29.83 11.42,-90.38 -35.87,-84.12z"/>
   <path class="fil0" d="M393.64 1093.18l0 0c-14.97,-48.32 48.07,-82.52 80.43,-43.71 3.37,6.57 6.59,12.94 9.64,19.13 9.8,19.84 17.79,37.49 24.16,53.46 35.5,89.03 33.37,182.28 -20.33,261.98 -18.91,28.04 -44.32,53.2 -72.44,71.95 31.22,-36.59 -6.29,-91.58 -51.77,-75.61l2.01 -1.34c9.06,-6.11 17.78,-13.17 25.47,-20.94 7.58,-7.57 14.52,-16.03 20.76,-25.29 23.91,-35.47 33.36,-77.85 27.11,-120.15 -2.56,-17.31 -9.34,-40.86 -15.74,-56.91 -4.96,-12.47 -12.01,-27.89 -21.29,-46.66 -2.49,-5.06 -5.16,-10.37 -8.01,-15.91z"/>
   <path class="fil0" d="M386.92 1080.23l0 0c-14.56,-48.4 48.66,-82.12 80.76,-43.1 -33.37,-63.77 -115.53,-23.23 -80.76,43.1z"/>
   <path class="fil0" d="M372.73 1053.65l0 0c-15.72,-48.1 46.82,-83.2 79.75,-44.91 -33.4,-61.33 -116.01,-21.86 -79.75,44.91z"/>
   <path class="fil0" d="M140.3 1106.45l0 0c-25.91,42.55 -92.02,20.77 -87.8,-28.75 19.13,-39.72 40.63,-78.61 62.49,-116.92 23.28,-40.84 47.24,-81.16 72,-121.13 8.97,-14.52 17.87,-30.11 40.12,-42.28 27.16,-14.85 59.87,-14.72 86.99,0.31 24.47,13.55 34.49,33.52 48.06,55.68 11.27,18.42 22.49,37.04 33.48,55.64 14.15,23.93 28.05,48.05 41.65,72.29 -33.32,-37.74 -95.28,-2.22 -79.27,45.67 -13.42,-23.98 -27.22,-47.72 -41.2,-71.38 -15.25,-25.79 -30.55,-51.56 -46.55,-76.89 -15.87,25.38 -31.2,51.14 -46.43,76.9 -29.16,49.33 -57.99,99.56 -83.54,150.86z"/>
   <path class="fil0" d="M131.52 1124.53l0 0c-32.62,68.76 -111.72,23.22 -84.29,-35.7 -6.35,47.5 54.6,73.28 84.29,35.7z"/>
   <path class="fil0" d="M112.01 1171.36l0 0c-32.12,36.94 -103.61,8.94 -76.11,-56.93 -10.21,47.24 49.27,77.57 81.61,41.81 -2.18,5.48 -4.01,10.51 -5.5,15.12z"/>
   <path class="fil0" d="M1426.58 1320.27l0 0 -11.3 15.66c-1.71,2.37 -1.96,5.34 -0.61,7.97 1.34,2.62 3.86,4.17 6.81,4.17l129.17 0c2.94,0 5.45,-1.53 6.8,-4.13 1.35,-2.61 1.15,-5.55 -0.54,-7.94l-83.05 -117.73c-2.96,-4.18 -6.53,-7.32 -10.65,-9.41 -4.17,-2.1 -8.93,-3.16 -14.24,-3.16 -5.17,0 -9.99,1.11 -14.22,3.24 -4.22,2.11 -7.91,5.25 -10.84,9.32l-85 117.67c-1.71,2.36 -1.95,5.34 -0.61,7.97 1.34,2.62 3.87,4.17 6.81,4.17l28.75 0c5.05,0 9.4,-2.22 12.37,-6.3l61.93 -85 41.27 57.14 -50.43 0c-5.05,0 -9.5,2.3 -12.42,6.36z"/>
   <path class="fil0" d="M1306.89 1342.17l0 0 12.23 -15.69c1.84,-2.36 2.15,-5.37 0.83,-8.07 -1.31,-2.69 -3.9,-4.29 -6.87,-4.29l-95.31 0 0 -100.36c0,-4.21 -3.46,-7.66 -7.65,-7.66l-26.11 0c-4.19,0 -7.65,3.47 -7.65,7.66l0 126.65c0,4.19 3.44,7.66 7.65,7.66l110.8 0c4.88,0 9.08,-2.05 12.08,-5.9z"/>
   <path class="fil0" d="M1136.91 1297.34l0 0c13.64,-9.87 20.45,-22.71 20.45,-38.53 0,-7.91 -1.69,-15.07 -5.08,-21.47 -3.41,-6.41 -8.52,-12.09 -15.37,-17.04 -6.63,-4.73 -14.03,-8.28 -22.2,-10.64 -8.19,-2.37 -17.2,-3.56 -27.01,-3.56l-93.91 0c-4.78,0 -9.04,2.07 -12,5.82l-12.62 15.93c-1.82,2.31 -2.19,5.38 -0.88,8.09 1.31,2.7 3.88,4.31 6.89,4.31l116.76 0c3.25,0 6.27,0.4 9.03,1.19 2.8,0.79 5.36,1.99 7.65,3.59 2.35,1.64 4.13,3.61 5.33,5.88 1.2,2.29 1.8,4.86 1.8,7.7 0,2.84 -0.61,5.43 -1.8,7.74 -1.18,2.3 -2.96,4.31 -5.31,6.03 -2.28,1.67 -4.83,2.92 -7.64,3.75 -2.78,0.83 -5.81,1.24 -9.06,1.24l-116.11 0c-4.21,0 -7.66,3.46 -7.66,7.66l0 55.38c0,4.2 3.44,7.66 7.66,7.66l26.1 0c4.21,0 7.65,-3.44 7.65,-7.66l0 -28.89 77.92 0c19.67,0 36.14,-4.73 49.41,-14.18z"/>
   <path class="fil0" d="M1640.44 1206.1l0 0c-26.88,0 -58.5,13.22 -58.5,44.26 0,13.28 5.73,24.06 17.18,32.35 11.14,7.94 24.97,11.91 41.49,11.89l1.29 0.02 65.78 0 12.2 0 0.12 0 0.36 0c5.94,0 12.89,2.91 12.89,9.75 0,2.93 -1.26,5.3 -3.78,7.12 -2.46,1.75 -5.5,2.63 -9.14,2.63l-0.33 0 -0.12 0 -12.2 0 -102.56 0c-4.83,0 -9.15,2.13 -12.1,5.94l-12.13 15.67c-1.79,2.3 -2.14,5.37 -0.82,8.06 1.32,2.68 3.88,4.28 6.87,4.28l128.92 0 1.06 0c16.31,0 29.96,-3.92 40.97,-11.77 11.3,-8.17 16.95,-18.82 16.95,-31.93 0,-30.65 -31.21,-43.7 -57.75,-43.7l-2.2 0 -64.72 0 -12.77 0 -0.13 0 -0.34 0c-3.82,0 -7.01,-0.92 -9.58,-2.74 -2.64,-1.91 -3.96,-4.4 -3.96,-7.46 0,-7.16 7.3,-10.22 13.49,-10.22l0.39 0 0.13 0 12.77 0 87.28 0c4.91,0 9.14,-2.07 12.13,-5.96l12.22 -15.86c1.81,-2.36 2.11,-5.37 0.8,-8.05 -1.33,-2.68 -3.92,-4.28 -6.87,-4.28l-113.83 0c0,0 0,0 -1.46,0z"/>
   <path class="fil0" d="M1931.49 1234.33l12.32 -15.88c1.83,-2.36 2.13,-5.37 0.82,-8.06 -1.32,-2.68 -3.93,-4.29 -6.87,-4.29l-127.42 0c-4.85,0 -9.18,2.14 -12.13,5.98l-12.2 15.85c-1.8,2.32 -2.13,5.37 -0.81,8.05 1.32,2.68 3.88,4.27 6.87,4.27l48.68 0 0 100.16c0,4.16 3.44,7.66 7.65,7.66l26.3 0c4.22,0 7.66,-3.44 7.66,-7.66l0 -100.16 37.04 0c4.89,0 9.1,-2.06 12.09,-5.92z"/>
   <path class="fil0" d="M855.51 1161.9l0 0 41.19 0c6.66,0 12.08,-5.43 12.08,-12.09l0 -199.82c0,-6.65 -5.43,-12.08 -12.08,-12.08l-41.19 0c-6.65,0 -12.09,5.43 -12.09,12.08l0 72.33 -142.33 0 0 -72.33c0,-6.65 -5.43,-12.08 -12.08,-12.08l-41.51 0c-6.64,0 -12.07,5.43 -12.07,12.08l0 199.82c0,6.65 5.42,12.09 12.07,12.09l41.51 0c6.66,0 12.08,-5.43 12.08,-12.09l0 -73.6 142.33 0 0 73.6c0,6.65 5.44,12.09 12.09,12.09zm274.57 -75.17l0 0 114.3 -128.72c3.23,-3.64 3.98,-8.53 1.98,-12.97 -1.99,-4.44 -6.18,-7.13 -11.02,-7.13l-45.21 0c-7.26,0 -13.59,2.91 -18.31,8.4l-74.27 86.35 -80.13 -86.96c-4.73,-5.14 -10.8,-7.79 -17.77,-7.79l-45.36 0c-4.88,0 -9.1,2.73 -11.06,7.21 -1.97,4.49 -1.14,9.44 2.15,13.03l118.31 129.04 0 62.62c0,6.63 5.43,12.09 12.08,12.09l41.51 0c6.65,0 12.07,-5.43 12.07,-12.09l0 -62.26 0.73 -0.82zm391.18 42.55l0 0c25.55,-21.62 38.33,-48.77 38.33,-81.46 0,-16.34 -3.15,-31.12 -9.44,-44.32 -6.29,-13.2 -15.75,-24.88 -28.36,-35.01 -12.67,-10.18 -27.15,-17.82 -43.42,-22.92 -16.32,-5.1 -34.5,-7.66 -54.51,-7.66l-110.94 0c-7.74,0 -14.57,3.39 -19.24,9.54l-18.95 24.96c-2.79,3.68 -3.28,8.46 -1.2,12.67 2.09,4.22 6.12,6.71 10.81,6.71l139.52 0c10.06,0 19.29,1.37 27.68,4.09 8.44,2.73 16.01,6.85 22.69,12.32 6.74,5.51 11.81,11.84 15.22,18.94 3.4,7.11 5.1,14.98 5.1,23.56 0,8.59 -1.69,16.41 -5.07,23.41 -3.35,6.98 -8.41,13.15 -15.13,18.46 -6.64,5.27 -14.21,9.22 -22.65,11.84 -8.42,2.61 -17.7,3.92 -27.84,3.92l-85.34 0 0 -45.9c0,-6.65 -5.44,-12.08 -12.09,-12.08l-41.5 0c-6.65,0 -12.08,5.44 -12.08,12.08l0 87.38c0,6.65 5.43,12.09 12.08,12.09l138.93 0c39.24,0 71.7,-10.87 97.4,-32.62zm316.49 32.62l0 0 52.55 0c5.17,0 9.6,-3.1 11.35,-7.98 1.77,-4.87 0.34,-10.08 -3.63,-13.4l-55.09 -45.8 4.46 -1.75c8.7,-3.42 16.46,-7.56 23.23,-12.43 6.74,-4.85 12.57,-10.45 17.44,-16.76 4.86,-6.29 8.51,-12.94 10.93,-19.94 2.4,-6.97 3.6,-14.35 3.6,-22.14 0,-13.84 -3.01,-26.07 -9.01,-36.66 -6.03,-10.62 -15.1,-19.69 -27.2,-27.17 -10.89,-6.63 -23.47,-11.62 -37.72,-14.94 -14.31,-3.34 -30.35,-5.02 -48.09,-5.02l-147.61 0c-7.61,0 -14.37,3.3 -19.04,9.29l-19.58 25.09c-2.85,3.64 -3.41,8.47 -1.34,12.72 2.08,4.25 6.12,6.78 10.85,6.78l183.41 0c15.48,0 27.18,2.37 35.13,7.1 8.42,5.01 12.63,12.51 12.63,22.5 0,5.17 -1.44,9.74 -4.29,13.69 -2.78,3.84 -6.9,7.05 -12.33,9.58 -4.14,1.92 -8.85,3.34 -14.08,4.29 -5.19,0.94 -10.88,1.4 -17.06,1.4l-183.22 0c-6.63,0 -12.07,5.44 -12.07,12.08l0 87.38c0,6.65 5.42,12.09 12.07,12.09l41.52 0c6.65,0 12.08,-5.43 12.08,-12.09l0 -45.57 101.96 0 62.73 52.08c4.52,3.75 9.56,5.58 15.42,5.58zm401.44 -32.62l0 0c25.55,-21.62 38.34,-48.77 38.34,-81.46 0,-16.34 -3.15,-31.12 -9.44,-44.32 -6.3,-13.2 -15.75,-24.88 -28.36,-35.01 -12.67,-10.18 -27.15,-17.82 -43.43,-22.92 -16.32,-5.1 -34.49,-7.66 -54.5,-7.66l-69.13 0c-20,0 -38.19,2.56 -54.54,7.66 -16.31,5.1 -30.84,12.75 -43.55,22.92 -12.66,10.13 -22.16,21.81 -28.48,35.01 -6.3,13.18 -9.46,27.96 -9.46,44.32 0,16.38 3.19,31.34 9.56,44.88 6.37,13.56 15.97,25.75 28.76,36.58 25.69,21.74 58.27,32.62 97.71,32.62l69.13 0c39.24,0 71.7,-10.87 97.39,-32.62zm-166.52 -137.49l69.13 0c10.05,0 19.28,1.37 27.67,4.09 8.43,2.73 16.02,6.85 22.7,12.32 6.74,5.51 11.82,11.84 15.21,18.94 3.41,7.11 5.11,14.97 5.11,23.56 0,8.59 -1.69,16.41 -5.06,23.41 -3.37,6.98 -8.43,13.15 -15.15,18.46 -6.64,5.27 -14.2,9.22 -22.65,11.84 -8.42,2.61 -17.7,3.92 -27.83,3.92l-69.13 0c-10.13,0 -19.41,-1.31 -27.82,-3.92 -8.45,-2.62 -16.01,-6.57 -22.66,-11.84 -6.72,-5.31 -11.77,-11.47 -15.14,-18.46 -3.38,-7 -5.07,-14.82 -5.07,-23.41 0,-8.59 1.69,-16.45 5.06,-23.55 3.36,-7.09 8.4,-13.4 15.1,-18.93 6.65,-5.49 14.21,-9.61 22.68,-12.34 8.41,-2.72 17.71,-4.09 27.85,-4.09z"/>
   <path class="fil0" d="M236.3 1404.74c-66.32,-13.4 -119.51,-66.61 -132.93,-132.92 -2.11,-10.51 -3.18,-21.88 -3.18,-34.02 0,-21.2 3.86,-36.07 8.91,-56.34 -28.62,39.48 -91.61,14.52 -85.51,-33.81 -9.11,29.18 -15.13,59.5 -15.13,90.15 0,16.99 1.78,34.34 5.34,51.93 24.69,122.19 132.56,209.93 256.53,209.93 20.39,0 41.15,-2.57 60.99,-7.34 40.75,-26.14 20.08,-90.04 -28.29,-87.32 -20.74,4 -46.06,3.92 -66.73,-0.26z"/>
  </g>
 </g>
</svg>
