<?xml version="1.0" encoding="UTF-8"?>
<!DOCTYPE svg PUBLIC "-//W3C//DTD SVG 1.1//EN" "http://www.w3.org/Graphics/SVG/1.1/DTD/svg11.dtd">
<!-- Creator: CorelDRAW -->
<svg xmlns="http://www.w3.org/2000/svg" xml:space="preserve" width="22.8598mm" height="22.8598mm" version="1.1" style="shape-rendering:geometricPrecision; text-rendering:geometricPrecision; image-rendering:optimizeQuality; fill-rule:evenodd; clip-rule:evenodd"
viewBox="0 0 2285.98 2285.98"
 xmlns:xlink="http://www.w3.org/1999/xlink"
 xmlns:xodm="http://www.corel.com/coreldraw/odm/2003">
 <defs>
  <style type="text/css">
   <![CDATA[
    .fil2 {fill:#3E4763}
    .fil1 {fill:#F58640;fill-rule:nonzero}
    .fil0 {fill:#3E4763;fill-rule:nonzero}
   ]]>
  </style>
 </defs>
 <g id="Слой_x0020_1">
  <metadata id="CorelCorpID_0Corel-Layer"/>
  <g id="_1271998192896">
   <g>
    <path class="fil0" d="M393.88 1528.4l-384.09 -308.33 127.56 -102.4 392.31 157.61c-61.02,-27.66 -88.88,-119.28 -13.77,-192.29l-321.83 -10.84 199.82 -160.41 384.08 308.33 -384.08 308.33z"/>
    <path class="fil1" d="M534.39 1277.08l-6.07 -2.44c-60.08,-28.38 -86.99,-119.18 -12.43,-191.65l-507.43 -17.1 385.41 -308.32 385.42 306.63 -244.9 212.88zm-487.36 -195.69l-38.57 -15.49 0 -0.01 38.57 15.5z"/>
   </g>
   <g>
    <path class="fil2" d="M1442.95 1105.58l103.11 -135.43 -95.22 -123.26 108.17 0 42.07 56.05 41.6 -56.05 105.74 0 -95.31 121.86 106.11 137.2 -108.24 0 -50.9 -69 -50.9 69 -196.02 0 0 -18.93c-19.45,17.22 -44.65,25.48 -74.45,25.48 -29.95,0 -62.34,-5.61 -82.62,-27.18 -20.17,-21.45 -24.93,-52.59 -24.93,-79.71l0 -158.72 93.43 0 0 145.65c0,12.45 1.5,28.01 8.57,39.04 5.88,9.16 18.14,11.01 28.95,11.01 13.16,0 28.03,-2.27 36.27,-12.48 9.63,-11.94 11.14,-33.21 11.14,-47.38l0 -135.84 93.43 0 0 258.69zm-471.13 -78.87l180.97 0 0 79.24 -282.2 0 0 -351.06 101.23 0 0 271.82z"/>
    <path class="fil2" d="M1140.92 1395.25l-80.95 0 0 -73.47 176.18 0 0 201.24 -70.08 0 -6.03 -27.78c-25.75,23.62 -57.99,35.86 -96.5,35.86 -27.15,0 -53.87,-4.11 -78.95,-13.77 -23.27,-8.96 -43.96,-21.68 -61.25,-38.46 -17.55,-17.01 -30.34,-36.99 -39.11,-58.87 -9.54,-23.78 -13.64,-48.8 -13.64,-74.07 0,-25.63 4.02,-51.09 13.63,-75.24 8.78,-22.06 21.57,-42.24 39.05,-59.54 17.23,-17.05 37.89,-30.04 61.26,-39.21 25.06,-9.82 51.8,-14.02 79.01,-14.02 21.38,0 42.51,2.86 62.72,9.28 18.83,5.99 36.28,14.61 51.59,26.29 14.93,11.38 27.04,25 36.26,40.62 9.52,16.12 14.82,33.54 16.28,51.8l0.76 9.6 -96.62 0 -1.78 -6.92c-3.77,-14.7 -10.98,-28.39 -24.5,-37.62 -13.12,-8.96 -28.44,-12.46 -44.71,-12.46 -27.29,0 -50.32,8.01 -67.03,28.05 -18.82,22.55 -24.35,51.67 -24.35,79.37 0,27.15 5.52,55.82 24.69,77.51 17.02,19.26 39.83,27.06 66.69,27.06 44.9,0 69.83,-17.96 77.38,-55.25zm229.84 -229.26l0 73.47 -93.75 0 0 -73.47 93.75 0zm0 93.57l0 263.46 -93.75 0 0 -263.46 93.75 0zm134.61 -93.57l0 357.03 -93.75 0 0 -357.03 93.75 0zm212.73 341.62c-24.06,15.99 -53.26,22.06 -83.78,22.06 -26.61,0 -52.9,-5.49 -73.47,-21.65 -20.05,-15.75 -28.19,-37.12 -28.19,-60.92 0,-11.32 1.68,-22.74 6.13,-33.35 4.4,-10.48 11.7,-19.22 21.23,-26.31 10.83,-8.05 24.23,-13.37 37.52,-17.06 17.56,-4.87 36.37,-7.52 54.61,-9.13 11.79,-1.04 24.05,-2.29 35.64,-4.59 4.62,-0.91 12.88,-2.65 16.98,-5.03 5.16,-2.86 7.37,-6.47 7.37,-11.88 0,-6.56 -1.44,-13.41 -7.31,-17.74 -7.19,-5.3 -21.56,-6.08 -30.34,-6.08 -9.47,0 -21.67,1.13 -29.42,6.65 -7.16,5.1 -9.54,14.49 -10.36,22.3l-0.85 8.1 -93.45 0 0.62 -9.47c1.83,-28.43 14.62,-52.01 40.82,-68.16 28.07,-17.3 63.02,-22.53 96.32,-22.44 58.65,0.16 127.71,13.55 127.71,78.77l0 130.14c0,14.16 1.05,35.31 8.3,48.16l7.37 13.04 -98.31 0 -2.25 -6.11c-1.12,-3.06 -2.08,-6.16 -2.89,-9.3zm217.17 -228.83c19.76,-16.94 44.32,-25.87 73.65,-25.87 33.48,0 62.41,9.45 80.16,33.53 20.61,-21.64 47.37,-33.53 80.53,-33.53 29.38,0 60.6,5.56 81.52,25.86 19.82,19.24 26.39,44.73 26.39,70.48l0 173.77 -93.74 0 0 -150.96c0,-10.69 -0.93,-30.28 -8.58,-39.11 -6.35,-7.33 -17.32,-8.95 -26.98,-8.95 -33.91,0 -39.73,26.83 -39.73,52.8l0 146.22 -93.75 0 0 -153.82c0,-9.85 -0.86,-28.97 -8.34,-36.93 -6.4,-6.82 -17.41,-8.27 -26.7,-8.27 -11.68,0 -20.95,3.89 -28.49,12.03 -9.05,9.77 -11.76,22.6 -11.76,35.07l0 151.92 -93.75 0 0 -263.46 89.57 0 0 19.22zm-223.13 129.95c-11.36,3.49 -24.71,5.02 -33.97,5.94 -12.85,1.28 -30.62,3.98 -41.77,10.33 -7.69,4.37 -9.99,11.27 -9.99,19.25 0,4.57 1.57,8.3 5.06,11.59 4.36,4.1 9.69,6.86 15.6,8.66 6.95,2.1 14.17,2.69 21.45,2.18 7.55,-0.53 14.58,-2.5 21.14,-5.95 6.82,-3.59 12.03,-8.79 16.05,-14.91 5.01,-7.59 6.43,-17.08 6.43,-25.79l0 -11.3z"/>
   </g>
  </g>
 </g>
</svg>
