<?xml version="1.0" encoding="UTF-8"?>
<!DOCTYPE svg PUBLIC "-//W3C//DTD SVG 1.1//EN" "http://www.w3.org/Graphics/SVG/1.1/DTD/svg11.dtd">
<!-- Creator: CorelDRAW -->
<svg xmlns="http://www.w3.org/2000/svg" xml:space="preserve" width="22.8598mm" height="22.8598mm" version="1.1" style="shape-rendering:geometricPrecision; text-rendering:geometricPrecision; image-rendering:optimizeQuality; fill-rule:evenodd; clip-rule:evenodd"
viewBox="0 0 2285.98 2285.98"
 xmlns:xlink="http://www.w3.org/1999/xlink"
 xmlns:xodm="http://www.corel.com/coreldraw/odm/2003">
 <defs>
  <style type="text/css">
   <![CDATA[
    .fil0 {fill:#ED3055}
   ]]>
  </style>
 </defs>
 <g id="Слой_x0020_1">
  <metadata id="CorelCorpID_0Corel-Layer"/>
  <path class="fil0" d="M1818.26 1312.28c-0.08,-3.67 -0.54,-4.39 -1.21,-7.22l-10.81 0 0 74.54 12.02 0c0,-13.13 -2.3,-49.76 3.87,-57.44 11.41,-14.19 30.99,-6.41 30.99,6.95l0 50.49 13.23 0 0 -50.49c0,-17.72 33.66,-20.52 33.66,0l0 50.49 13.23 0c0,-17.85 2.9,-54.63 -6.33,-65.81 -9.55,-11.57 -23.8,-14.23 -35.54,-7.32 -4.56,2.68 -7.27,5.69 -11.03,8.21 -3.74,-2.74 -2.89,-4.4 -8.87,-7.96 -15.59,-9.33 -23.92,-0.66 -33.21,5.56zm-324.61 57.71c-32.16,0 -32.38,-55.31 0,-55.31 30.15,0 30.15,55.31 0,55.31zm-36.07 9.61l10.82 0c0,-5.74 0.82,-4.98 1.2,-9.61 4.29,2.87 4.83,5.27 9.96,8.08 34.74,19.02 65.16,-31.2 39.56,-63.61 -7.65,-9.68 -24.42,-15.61 -38.78,-8.27 -5.69,2.91 -6.13,5.4 -10.74,8.49l0 -39.67 -12.02 0 0 104.59zm-49.29 -9.61c-32.16,0 -32.38,-55.31 0,-55.31 30.15,0 30.15,55.31 0,55.31zm-36.07 9.61l10.82 0c0,-5.74 0.81,-4.98 1.2,-9.61 4.28,2.87 4.82,5.27 9.95,8.08 34.75,19.02 65.17,-31.2 39.57,-63.61 -7.66,-9.68 -24.42,-15.61 -38.78,-8.27 -5.69,2.91 -6.13,5.4 -10.74,8.49l0 -39.67 -12.02 0 0 104.59zm777.86 -9.61c-23.57,0 -18.67,-19.19 -9.69,-22.92 7.45,-3.1 21.28,-2.33 30.13,-2.33 0,13.18 -4.02,25.25 -20.44,25.25zm-26.44 -43.29l12.02 0c0.34,-4.15 2.22,-6.61 4.81,-8.41 6.61,-4.61 30.05,-9.91 30.05,15.63 -25.93,0 -49.29,-4.4 -49.29,27.65 0,12.34 18.46,26.45 40.09,17.24 5.95,-2.53 5.61,-5.14 10.41,-6.42l0 7.21 12.02 0c0,-19.22 2.93,-54.66 -6.46,-66.88 -13.65,-17.78 -53.65,-10.75 -53.65,13.98zm-167.12 43.29c-23.57,0 -18.67,-19.19 -9.69,-22.92 7.44,-3.1 21.27,-2.33 30.13,-2.33 0,13.18 -4.03,25.25 -20.44,25.25zm-26.45 -43.29l12.02 0c0.35,-4.15 2.22,-6.61 4.81,-8.41 6.61,-4.61 30.06,-9.91 30.06,15.63 -25.94,0 -49.29,-4.4 -49.29,27.65 0,12.34 18.46,26.45 40.08,17.24 5.96,-2.53 5.62,-5.14 10.41,-6.42l0 7.21 12.02 0c0,-19.22 2.93,-54.66 -6.45,-66.88 -13.66,-17.78 -53.66,-10.75 -53.66,13.98zm-252.48 43.29c-34.22,0 -34.24,-55.31 0,-55.31 29.93,0 29.93,55.31 0,55.31zm-2.4 12.02c37.66,0 46.94,-47.38 27.38,-67.06 -4.23,-4.26 -4.99,-5.56 -10.91,-8.32 -24.88,-11.64 -50.62,4.5 -52.17,34.75 -1.09,21.47 15.55,40.63 35.7,40.63zm-80.55 3.61c0,1.06 -1.26,13.22 -9.62,13.22l-12.03 0 0 10.82c27.34,0 25.54,1.69 32.9,-20 3.24,-9.53 29.15,-78.91 29.62,-84.6l-12.02 0 -20.44 61.32 -3.6 0c-0.59,-7.01 -18.8,-49.09 -21.64,-61.32l-13.23 0c0.71,3.04 2.41,6.87 3.46,9.76l26.6 70.8zm462.87 -6.02l12.02 0 0 -33.66c5.31,3.55 23.91,23.48 30.88,30.44 4.92,4.93 6.82,3.22 18.42,3.22l-37.56 -38.18 35.15 -36.36c-17.36,0 -11.75,-2.07 -26.75,12.93 -5.25,5.25 -14.83,15.98 -20.14,19.54l0 -62.52 -12.02 0 0 104.59zm137.06 -63.71l40.87 0c-2.98,4.46 -6.82,9.16 -10.44,13.59l-26.02 34.1c-5.32,6.28 -4.41,5.07 -4.41,16.02l57.71 0c0,-14.47 3.68,-10.81 -42.08,-10.81 3.78,-5.65 40.87,-52.84 40.87,-55.31l0 -8.42 -56.5 0 0 10.83zm-899.3 -10.83l-12.02 0 0 10.83 12.02 0 0 52.9c0,13.74 16.96,10.81 28.86,10.81l0 -10.81c-11.74,0 -16.84,1.62 -16.84,-3.61l0 -49.29 16.84 0 0 -10.83 -16.84 0 0 -21.64 -12.02 0 0 21.64zm434.02 0l-12.02 0 0 10.83 12.02 0 0 52.9c0,13.74 16.96,10.81 28.86,10.81l0 -10.81c-11.74,0 -16.84,1.62 -16.84,-3.61l0 -49.29 16.84 0 0 -10.83 -16.84 0 0 -21.64 -12.02 0 0 21.64zm277.72 74.54l12.03 0 0 -42.07c0,-23.68 11.41,-21.64 27.65,-21.64l0 -10.83c-14.85,0 -19.74,-2.08 -25.5,4.56l-1.08 1.32c-0.14,0.17 -0.43,0.53 -0.54,0.67 -0.11,0.13 -0.35,0.45 -0.53,0.67 -0.08,-3.67 -0.55,-4.39 -1.2,-7.22l-10.83 0 0 74.54zm-464.07 0l12.02 0 0 -74.54 -12.02 0 0 74.54zm721.36 0l12.02 0 0 -74.54 -12.02 0 0 74.54zm-924.54 0l12.02 0 0 -74.54 -12.02 0 0 74.54zm-1.21 -90.17l14.43 0 0 -9.61c0,-2.77 -0.84,-3.61 -3.61,-3.61l-10.82 0 0 13.22zm203.19 0l14.42 0 0 -9.61c0,-2.77 -0.83,-3.61 -3.6,-3.61l-10.82 0 0 13.22zm721.36 0l14.43 0 0 -9.61c0,-2.77 -0.84,-3.61 -3.61,-3.61l-10.82 0 0 13.22zm-832.78 -113.71c-23.66,0 -37.24,-5.27 -50.88,-19.94 -24.43,-26.25 -27.08,-100.36 15.91,-122.62 14.97,-7.75 20.66,-7.16 36.77,-7.16 9.52,0 19.96,3.33 26.29,6.87 43.91,24.54 39.64,94.91 18.27,120.17 -1.49,1.76 -2.15,2.54 -3.69,4.38 -8.47,10.08 -27.49,18.3 -42.67,18.3zm61.86 -176.61c-4.05,-0.34 -5.08,-2.81 -7.4,-5.16 -11.69,-11.84 -26.3,-19.83 -42.43,-23.9 -26.93,-6.8 -54.02,-2.74 -77.77,9.03 -7.4,3.67 -12.82,7.48 -19.06,12.32 -6.61,5.14 -17.91,17.05 -22.62,24 -2.16,3.21 -4.6,6.61 -6.41,9.73 -9.13,15.77 -17.49,42.7 -17.98,60.91l-0.85 15.19c0.17,3.34 0.67,2.46 0.88,6.35 0.96,17.8 1.24,28.71 8.19,47.39 17.23,46.24 57.72,79.92 109.25,79.92 26.66,0 58.52,-10.24 74.35,-30.54 1.76,-2.27 0.91,-2.33 4.54,-2.63 0,7 4.34,21.1 4.49,27.79l56.47 0 0 -353.23 -63.65 0 0 122.83zm-407.91 275.23l0 55.58 63.65 0c19.06,0 35.8,-5.61 48.21,-18.14 14.12,-14.25 22.91,-47.74 30.57,-68.94l73.5 -208c1.64,-4.38 2.6,-8.28 4.35,-12.69l17.3 -49.94 -66.35 0c-0.31,3.81 -5.42,16.73 -7.05,21.63 -2.5,7.48 -4.91,13.81 -7.4,21.29 -3.86,11.58 -44.27,124.74 -44.72,130.11l-10.76 0c-1.65,-7.1 -5.54,-15.18 -7.93,-21.65l-24.24 -64.52c-5.23,-14.48 -10.96,-28.76 -16.13,-43.03l-16.24 -43.83 -66.35 0c0.87,3.71 2.37,6.95 3.73,10.63l99.33 261.14c1.57,4.41 -0.61,6.91 -2.09,11.18 -3.24,9.31 -4.35,13.4 -14.66,15.82 -5.35,1.26 -34.77,0.68 -44.17,0.67 -4.1,-0.01 -12.55,-1.63 -12.55,2.69zm541.49 -123.72c0,-13.94 7.96,-23.16 19.84,-27.68 16.32,-6.22 59.65,-4.6 80.57,-4.6 0,29.56 -7.92,54.68 -38.89,62.42 -25.75,6.44 -61.52,2.45 -61.52,-30.14zm-51.1 -99.52l59.17 0c4.02,0 1.52,-3.6 6.87,-12.85 16.68,-28.82 85.47,-35 85.47,31.68 -42.64,0 -100.44,-4.95 -132.82,20.49 -41.48,32.59 -41.18,93.82 -3.08,123.48 34.92,27.2 90.37,27.93 126.05,2.17 8.15,-5.89 10.72,-11.29 15.23,-11.66 0,8.05 3.83,17.24 4.48,25.1l53.79 0 0 -164.96c0,-57.46 -48.43,-97.72 -105.78,-97.72 -31.86,0 -55.14,4.84 -79.03,24.07 -16.12,12.98 -26.62,31.64 -31.45,51.94 -0.67,2.82 -2.9,8.26 1.1,8.26zm-607.83 67.24l37.65 0c0,25.43 -4.18,42.9 -22.76,55.24 -15.73,10.44 -41.56,12.7 -57.82,6.52 -23.22,-8.82 -22.57,-36.13 -14.61,-46.68 10.83,-14.34 32.84,-15.08 57.54,-15.08zm-115.65 -67.24l60.96 0c5.37,0 0.49,-11.52 16.63,-23.71 21.87,-16.53 75.71,-17.35 75.71,42.54 -27.61,0 -75.46,-2.08 -99.84,5.06 -24.22,7.09 -42.93,18.54 -54.97,40.95 -17.08,31.78 -10.34,75.19 18.91,97.96 8.84,6.89 16.12,11.15 27.97,15.07 25.61,8.46 57.47,7.93 81.64,-3.34 7.43,-3.46 18.15,-9.85 23.84,-15.61 2.42,-2.45 3.63,-5.26 7.83,-5.61 0,8.05 3.83,17.24 4.48,25.1l53.79 0 0 -165.86c0,-16.29 -3.93,-29.4 -9.56,-40.64 -20.52,-40.92 -58.49,-56.18 -103.4,-56.18 -27.97,0 -50.17,7.33 -70.83,23.3 -13.72,10.61 -33.16,36.97 -33.16,60.97zm1263.18 103.1c0,-15.4 3.05,-25.79 20.26,-31.74 16.2,-5.6 58.95,-4.12 79.25,-4.12l0 9.86c0,28.57 -16.57,47.15 -39.41,52.93 -18.08,4.57 -40.68,3.73 -53.62,-10.09 -3.25,-3.46 -6.48,-10.31 -6.48,-16.84zm-51.1 -103.1l58.27 0c3.04,0 3,-2.93 3.92,-5.94 11.75,-38.01 88.42,-39.7 88.42,17.6l0 7.17c-42.25,0 -97.42,-4.68 -130.65,19.06 -7.71,5.52 -17.38,15.2 -22.05,23.68 -13.27,24.09 -15.12,56.74 -0.56,80.94 5.46,9.07 11.36,15.13 19.56,21.68 7.76,6.2 16.8,10.83 27.12,14.12 28.06,8.92 58.59,6.65 84.01,-5.44l12.85 -7.77c8.3,-6.08 10.22,-11.38 15.1,-11.79 0.66,7.85 4.48,17.05 4.48,25.1l53.8 0 0 -169.44c0,-14.44 -5.18,-29.25 -10.15,-39.16 -6.64,-13.23 -13.15,-18.89 -22.36,-27.84 -35.05,-34.08 -113.86,-35.21 -151.08,-2.73 -13.96,12.19 -23.82,24.53 -29.68,42.94 -1.66,5.22 -6.23,17.82 -1,17.82zm-193.65 -53.79c0,-8.05 -3.83,-17.24 -4.48,-25.1l-59.17 0 0 254.61c0,2.07 0.63,2.69 2.69,2.69l59.17 0c4.32,0 2.7,-8.45 2.69,-12.55l0 -112.06c0,-25 -2.25,-39.57 7.87,-55.79 6.77,-10.87 23.24,-23.11 40.54,-23.11 18.79,0 31.25,0.39 45.95,15.01 5,4.98 7.05,8.05 10.24,14.87 2.28,4.84 4.77,13.6 4.77,20.33l0 153.3 63.66 0 0 -162.27c0,-32.23 -16.83,-63.4 -41.61,-82.11 -4.3,-3.24 -10.92,-7.16 -15.78,-9.32 -26.88,-12 -59.79,-12.14 -86.66,0.28 -19.52,9.02 -23.82,20.72 -29.88,21.22zm-1254.22 48.42c0,54.58 44.88,69.03 91.7,76.84 9.77,1.63 19.01,3.41 28.48,4.69 21.56,2.9 38.51,7.23 38.51,29.63 0,12.19 -8.31,19.12 -17.14,22.31 -13.41,4.85 -38,5.36 -51.54,1.54 -13.47,-3.81 -27.73,-14.33 -29.04,-30.12l-60.97 0c0,14.69 6.11,27.64 11.6,36.81 5.27,8.78 14.26,20.09 22.46,25.96 45.12,32.28 144.23,30.23 176.63,-18.84 13.4,-20.3 15.2,-46.36 6.54,-68.41 -3.53,-9 -9.7,-18.72 -16.92,-24.32 -13.94,-10.79 -20.13,-14.67 -38.41,-19.87 -14.15,-4.02 -41.02,-7.47 -56.49,-9.85 -17.27,-2.66 -41.75,-5.93 -41.75,-24.58 0,-33.97 68.39,-40.65 88.37,-10.38 11.99,18.16 -17.45,13.96 64.93,13.96 0,-24.78 -9.99,-34.71 -23.18,-51.23l-12.16 -11.15c-30.28,-23.87 -79.01,-26.62 -116.89,-16.33 -12.77,3.47 -20.74,7.62 -31.2,14.52 -7.91,5.21 -11.94,10.13 -17.62,16.45 -2.23,2.48 -3.17,3.84 -4.98,6.67 -5.42,8.41 -10.93,22.15 -10.93,35.7zm-50.84 32.15l0 15.86c-1.9,27.23 -13.62,52.73 -34.49,75.58 -10.84,11.87 -29.92,22.62 -44.93,27.56l-29.26 12.87c-22.69,11.02 -58.03,25.04 -78.97,35.62 -6.64,3.36 -12.95,5.49 -19.59,8.82 -18.3,9.18 -43.19,20.28 -64.93,20.28l-1.4 0c-28.88,-0.04 -31.79,-1.51 -56.5,-11.63 -26.29,-10.79 -53.39,-24.37 -78.75,-34.87l-58.18 -26.07c-6.36,-3.09 -13.31,-5.65 -19.59,-8.82 -26.14,-13.22 -43.51,-27.68 -57.77,-54.9 -11.18,-21.34 -11.71,-37.21 -11.73,-60.5l0 -1.14 0 -1.14c0,-14.73 6.92,-33.55 12.05,-43.83 7.01,-14.05 13.51,-21.43 23.92,-31.93 17.65,-17.77 50.4,-33.09 77.6,-33.09 18.22,0 38.29,3.19 53.2,10.44 30.71,14.94 38.36,32.06 66.51,43.22 30.09,11.92 60.35,12.44 90.09,-0.42 34.04,-14.73 37.47,-30.84 66.69,-43.03 19.61,-8.18 29.41,-10.15 51.4,-10.21l1.06 0c38.5,0 80.5,26.54 98.89,60.8 1.68,3.14 3.42,5.59 4.77,8.94 5.71,14.16 8.99,28.06 9.91,41.59zm-494.41 7.33c0,-29.65 25.17,-55.9 52.86,-55.9 21.47,0 28.03,4.05 44.29,17.42 2.75,2.28 5.03,3.81 7.74,5.98l16.11 11.32c25.22,16.61 62.72,28.04 94.38,28.04 35.26,0 76.77,-12.83 104.49,-33.61 24.16,-18.11 29.95,-29.15 59.02,-29.15 7.55,0 15.92,2.54 21.22,5.22l11.94 7.65c6.15,5.98 8.64,7.1 14.5,18.81 11.3,22.57 4.42,53.53 -16.32,68.36 -12.3,8.79 -57.94,27.64 -72.75,34.03l-88.53 39.78c-27.9,12.04 -36.7,12.88 -65.89,-0.26 -10.02,-4.5 -19.83,-8.33 -30,-13.09l-118.15 -53.28c-12.58,-6.35 -16.31,-7.88 -24.14,-18.97 -5.68,-8.03 -10.77,-18.76 -10.77,-32.35z"/>
 </g>
</svg>
