<?xml version="1.0" encoding="UTF-8"?>
<!DOCTYPE svg PUBLIC "-//W3C//DTD SVG 1.1//EN" "http://www.w3.org/Graphics/SVG/1.1/DTD/svg11.dtd">
<!-- Creator: CorelDRAW -->
<svg xmlns="http://www.w3.org/2000/svg" xml:space="preserve" width="22.8598mm" height="22.8598mm" version="1.1" style="shape-rendering:geometricPrecision; text-rendering:geometricPrecision; image-rendering:optimizeQuality; fill-rule:evenodd; clip-rule:evenodd"
viewBox="0 0 2285.98 2285.98"
 xmlns:xlink="http://www.w3.org/1999/xlink"
 xmlns:xodm="http://www.corel.com/coreldraw/odm/2003">
 <defs>
  <style type="text/css">
   <![CDATA[
    .fil0 {fill:#FEFEFE}
    .fil1 {fill:#00A859}
    .fil2 {fill:#FEFEFE;fill-rule:nonzero}
   ]]>
  </style>
 </defs>
 <g id="Слой_x0020_1">
  <metadata id="CorelCorpID_0Corel-Layer"/>
  <g id="_1271998235040">
   <path class="fil0" d="M8.46 1143.78l0 481.6 24.11 6.24c0.3,0.07 0.6,0.14 0.9,0.22 163.9,42.1 331.92,68.36 499.69,86.59 202.5,22.01 406.27,31.64 609.83,31.64 203.57,0 407.34,-9.63 609.84,-31.64 167.77,-18.23 335.79,-44.49 499.69,-86.59 0.26,-0.06 0.51,-0.13 0.76,-0.19l24.25 -6.14 0 -481.85 -24.54 -5.97c-0.15,-0.04 -0.31,-0.08 -0.46,-0.12 -129.17,-33.18 -260.78,-56.25 -392.68,-73.71 -156.1,-20.66 -313.17,-33.17 -470.37,-39.56l-20.89 -0.85 0.01 -0.72c1.08,-55.86 -21.98,-107.25 -56.23,-149.15l-0.92 -1.13 -64.92 -66.31c-34.3,-40.37 -74.71,-98.75 -55.83,-155.59 2.59,-7.81 6.62,-15.06 9.53,-22.75 5.66,-15 8.29,-30.61 3.98,-46.4 -11.01,-40.28 -54.88,-55.4 -89.79,-38.94 -32.08,15.13 -40.21,45.65 -30.55,79.26 4.39,15.3 13.8,32.57 15.74,48.04 4,31.85 -8.39,57.8 -22.95,84.68 -12.27,22.63 -32.41,48.76 -50.31,66.87 -22.97,23.23 -49.06,46.23 -68.34,72.88 -26.82,37.06 -41.96,81.93 -40.67,128.54l0.02 0.73 -20.69 0.84c-157.24,6.38 -314.34,18.89 -470.46,39.55 -131.93,17.47 -263.56,40.54 -392.75,73.72 -0.2,0.05 -0.4,0.1 -0.6,0.15l-24.4 6.06z"/>
   <path class="fil1" d="M1041.75 1127.75c67.68,15.7 116.39,14.92 172.39,-15.53 38.86,-21.14 74.57,-58.36 83.63,-115.61 20.37,106.59 -100.63,206.04 -221.11,154.59 -13.07,-5.58 -26.44,-12.81 -34.91,-23.45zm3.77 -168.09c-19.98,-10.71 3.16,-51.89 32.72,-62.66 14.32,-4.99 20.52,-1.78 27.03,-0.15 -43.94,13.71 -17.81,67.5 -59.75,62.81zm81.96 -372.51c-35.62,16.8 -0.8,57.7 3.6,92.79 5.23,41.56 -9.71,73.78 -26.8,105.31 -13.14,24.23 -38.99,57.3 -55.84,74.34 -19.62,19.86 -51.78,50.64 -65.11,69.06 -93.43,129.13 16.53,284.94 177.9,270.01 77.28,-7.15 134.62,-54.73 159.1,-107.41 35.48,-76.34 9.26,-131.14 -32.09,-181.65l-64.7 -66.1c-43.75,-51.28 -86.21,-118.91 -62.83,-189.31 4.91,-14.79 17.41,-32.97 12.97,-49.21 -4.75,-17.36 -25.46,-27.61 -46.2,-17.83zm-1086.43 1012.52c282.08,72.46 671.65,117.27 1101.94,117.27 430.29,0 819.86,-44.81 1101.95,-117.27 0.28,-0.08 0.56,-0.15 0.85,-0.22l0 -254.39 0 -175.1c-0.29,-0.07 -0.57,-0.14 -0.85,-0.21 -227.38,-58.41 -524.61,-98.85 -856.7,-112.34 -3.45,19.57 -9.59,39.22 -18.68,58.77 -37.69,81.11 -118.87,131.56 -203.49,139.38 -92.19,8.53 -183.41,-32.14 -234.99,-113.64 -16.89,-26.7 -27.92,-55.33 -33.18,-84.51 -332.15,13.48 -629.44,53.92 -856.85,112.34 -0.29,0.07 -0.57,0.14 -0.85,0.21l0 175.1 0 254.39c0.28,0.07 0.56,0.14 0.85,0.22z"/>
   <g>
    <path class="fil2" d="M319.36 1557.72c54.71,0 87.74,-30.54 87.74,-78.67 0,-48.49 -30.97,-67.89 -70.54,-77.59l-21.33 -5.39c-21.34,-5.75 -36.82,-9.7 -36.82,-26.58 0,-16.17 14.1,-25.51 35.78,-25.51 20.99,0 49.55,7.91 75.02,33.77l3.09 -1.08 -9.63 -71.12 -2.41 -0.72c-3.1,2.52 -6.54,3.23 -10.67,3.23 -12.04,0 -29.93,-8.98 -56.77,-8.98 -51.62,0 -86.03,29.1 -86.03,77.24 0,36.28 20.3,61.78 63.66,72.2l22.02 5.38c21.34,4.67 40.61,11.86 40.61,30.9 0,16.16 -14.11,25.86 -37.51,25.86 -29.59,0 -64.35,-14.73 -88.43,-39.87l-3.44 1.8 14.45 79.02 2.06 0.72c6.54,-3.59 12.04,-4.67 17.55,-4.67 15.48,0 31.31,10.06 61.6,10.06zm274.37 -3.59l86.37 0 0.34 -3.24c-12.39,-8.62 -17.55,-17.24 -17.55,-39.87l0 -165.24c0,-22.63 5.16,-31.25 17.55,-39.87l-0.34 -3.23 -86.37 0 -0.34 3.23c12.73,8.62 17.55,17.24 17.55,39.87l0 52.45 -91.19 0 0 -52.45c0,-22.63 5.16,-31.25 17.55,-39.87l-0.35 -3.23 -86.37 0 -0.34 3.23c12.73,8.62 17.55,17.24 17.55,39.87l0 165.24c0,22.63 -4.82,31.25 -17.55,39.87l0.34 3.24 86.37 0 0.35 -3.24c-12.39,-8.62 -17.55,-17.24 -17.55,-39.87l0 -62.14 91.19 0 0 62.14c0,22.63 -4.82,31.25 -17.55,39.87l0.34 3.24zm120.22 0l81.21 0 0.34 -3.24c-11.01,-7.9 -13.07,-15.44 -6.54,-35.2l5.51 -15.81 90.15 0 5.16 15.81c6.88,19.76 4.82,27.3 -6.53,35.2l0.34 3.24 82.93 0 0.34 -3.24c-10.32,-8.62 -17.21,-16.88 -24.43,-38.07l-74.33 -210.14 -81.89 0 -0.69 3.59c16.86,8.62 18.93,21.91 12.74,39.51l-59.88 167.04c-7.57,21.19 -14.11,29.45 -24.43,38.07l0 3.24zm95.66 -99.15l29.93 -88.72 29.94 88.72 -59.87 0zm334.25 99.15l86.37 0 0.34 -3.24c-12.39,-8.62 -17.55,-17.24 -17.55,-39.87l0 -165.24c0,-22.63 5.16,-31.25 17.55,-39.87l-0.34 -3.23 -86.37 0 -0.35 3.23c12.73,8.62 17.55,17.24 17.55,39.87l0 52.45 -91.18 0 0 -52.45c0,-22.63 5.16,-31.25 17.55,-39.87l-0.35 -3.23 -86.37 0 -0.34 3.23c12.73,8.62 17.55,17.24 17.55,39.87l0 165.24c0,22.63 -4.82,31.25 -17.55,39.87l0.34 3.24 86.37 0 0.35 -3.24c-12.39,-8.62 -17.55,-17.24 -17.55,-39.87l0 -62.14 91.18 0 0 62.14c0,22.63 -4.82,31.25 -17.55,39.87l0.35 3.24zm120.22 0l81.2 0 0.35 -3.24c-11.01,-7.9 -13.08,-15.44 -6.54,-35.2l5.5 -15.81 90.16 0 5.16 15.81c6.88,19.76 4.82,27.3 -6.53,35.2l0.34 3.24 82.92 0 0.35 -3.24c-10.32,-8.62 -17.21,-16.88 -24.43,-38.07l-74.33 -210.14 -81.89 0 -0.69 3.59c16.86,8.62 18.92,21.91 12.73,39.51l-59.87 167.04c-7.57,21.19 -14.11,29.45 -24.43,38.07l0 3.24zm95.65 -99.15l29.94 -88.72 29.94 88.72 -59.88 0zm191.46 99.15l83.61 0 0.34 -3.24c-12.73,-8.62 -17.55,-17.24 -17.55,-39.87l0 -120.34 112.53 163.45 41.29 0 0 -208.35c0,-22.63 5.16,-31.25 17.55,-39.87l-0.35 -3.23 -83.62 0 -0.34 3.23c12.73,8.62 17.55,17.24 17.55,39.87l0 111.72 -108.39 -154.82 -65.38 0 -0.69 3.59c12.05,9.7 20.65,23.71 20.65,46.69l0 158.06c0,22.63 -5.16,31.25 -17.55,39.87l0.35 3.24zm286.07 0l103.23 0c69.16,0 121.81,-54.25 121.81,-125.73 0,-71.48 -52.65,-125.72 -121.81,-125.72l-103.23 0 -0.35 3.23c12.74,8.62 17.55,17.24 17.55,39.87l0 165.24c0,22.63 -4.81,31.25 -17.55,39.87l0.35 3.24zm69.16 -47.78l0 -155.9 33.38 0c39.57,0 69.51,33.41 69.51,77.95 0,44.54 -29.94,77.95 -69.51,77.95l-33.38 0z"/>
   </g>
  </g>
 </g>
</svg>
