<?xml version="1.0" encoding="UTF-8"?>
<!DOCTYPE svg PUBLIC "-//W3C//DTD SVG 1.1//EN" "http://www.w3.org/Graphics/SVG/1.1/DTD/svg11.dtd">
<!-- Creator: CorelDRAW -->
<svg xmlns="http://www.w3.org/2000/svg" xml:space="preserve" width="22.8598mm" height="22.8598mm" version="1.1" style="shape-rendering:geometricPrecision; text-rendering:geometricPrecision; image-rendering:optimizeQuality; fill-rule:evenodd; clip-rule:evenodd"
viewBox="0 0 2285.98 2285.98"
 xmlns:xlink="http://www.w3.org/1999/xlink"
 xmlns:xodm="http://www.corel.com/coreldraw/odm/2003">
 <defs>
  <style type="text/css">
   <![CDATA[
    .fil3 {fill:none}
    .fil1 {fill:#30509B}
    .fil0 {fill:#30509B;fill-rule:nonzero}
    .fil2 {fill:#354A8D;fill-rule:nonzero}
   ]]>
  </style>
    <clipPath id="id0">
     <path d="M1156.46 845.91c0,-8.68 1.59,-18.93 4.38,-25.41 1.68,-3.88 2.64,-6.02 4.58,-9.27 2.97,-4.98 5.25,-8.16 9.84,-11.63l2.66 -2.19c18.87,-14.9 46.68,-15.21 68.1,-3.69 10,5.38 12.45,7.19 21.64,14.38 11.87,9.28 19.95,23.67 25.91,37.12 4.56,10.31 5.71,21.62 6.49,32.92l-1.91 20.15c-2.01,7.91 -4.07,12.47 -7.99,19.03 -2.91,4.87 -8.54,10.8 -13.34,13.67 -17.9,10.7 -35.61,10.07 -55.28,4.99 -19.5,-5.03 -38.45,-22.08 -49.29,-39.36 -9.08,-14.48 -15.79,-33.1 -15.79,-50.71zm-153.74 -38.79c0,-29.62 14.74,-54.04 45.01,-54.04 17.26,0 21.58,1.36 36.23,9.48 11.52,6.39 22.25,18.24 29.43,29.45 13.6,21.21 19.95,51.29 10.32,75.87 -7.65,19.51 -20.86,30.68 -46.2,30.68 -44.34,0 -74.79,-51.02 -74.79,-91.44zm-141.27 -33.26c0,-21.3 7.55,-34.79 23.14,-44.05 19.28,-11.45 37.94,-1.88 52.63,9.13 2.54,1.9 3.16,1.96 5.44,4.26 5.04,5.09 9.74,10 13.81,15.98 1.53,2.25 2.43,3.37 3.89,5.8 15.04,24.98 21.77,71.17 -5.82,90.23 -21.92,15.15 -50.33,2.94 -65.38,-14.16 -4.6,-5.23 -9.91,-12.21 -13.39,-18.47 -1.03,-1.86 -1.6,-3.36 -2.58,-5.04 -6.6,-11.31 -11.74,-30.1 -11.74,-43.68zm222.39 -149.54l6.12 -9.11c10.3,-13.63 30.75,-18.69 47.11,-18.69 9.94,0 22.53,5.1 30.77,10.08 9.96,6.02 19.38,14.75 26.42,24.15 1.53,2.04 2.94,4.01 4.23,6.15 11.64,19.29 14.75,31.31 14.75,55.22 0,23.23 -11.39,45.47 -28.51,56.68 -23.41,15.34 -51.86,9.95 -72.71,-6.69 -34.37,-27.43 -49.76,-77.84 -28.18,-117.79zm-162.14 10.99c0,-6.08 -0.01,-9.43 1.08,-15.55 1.59,-9.01 6.1,-20.68 12.24,-27.24 17.95,-19.19 47.42,-21.42 68.7,-5.31 30.79,23.3 50.47,65.79 38.23,103.28l-2.85 7.53c-12.34,26.34 -33.95,35.45 -61.57,26.92 -3.67,-1.13 -10.93,-4.88 -13.88,-6.89 -8.44,-5.79 -15.09,-12.26 -20.9,-20.67 -6.09,-8.83 -10.93,-16.22 -14.5,-27.06 -3.51,-10.67 -6.55,-21.21 -6.55,-35.01zm65.79 -148.95c0,-12.26 1.07,-20.33 5.11,-31.6 3.24,-9.08 5.77,-14.08 11.79,-22.15 17.7,-23.77 51.86,-29.21 76.45,-13.31 7.22,4.67 16.54,12.35 21.14,19.73 13.53,21.7 11.51,16.92 18.4,41.86 8.39,30.4 -5.32,79.49 -43.3,90.95 -16.16,4.87 -33.17,1.95 -46.38,-6.78 -13.34,-8.81 -21.17,-16.93 -29.77,-31.18 -1.97,-3.25 -5.36,-9.95 -6.61,-13.47 -1.74,-4.86 -3.83,-9.64 -4.76,-15.33 -1.01,-6.18 -2.07,-11.33 -2.07,-18.72zm-17.31 -7.61c0,16.73 1.23,23.64 5.12,39.2 1.29,5.13 2.66,8.37 4.03,13.3 1.03,3.74 3.2,9.21 3.31,14l-13.62 6.47c-23.74,11.49 -44.06,14.78 -57.85,44.66 -8.19,17.76 -9.21,41.71 -4.57,61.65 1.68,7.22 4.71,20.17 4.71,27.16 0,8.98 -14.93,14.43 -21.25,18.23 -12.97,7.8 -23.92,13.32 -33.55,25.32 -26.39,32.86 -12.25,87.01 10.77,117.58 3.67,4.87 7.44,8.36 11.66,12.58 9.37,9.38 20.93,16.98 33.91,20.81 15.38,4.54 33.14,4.1 47.16,-3.79 2.12,-1.19 4.68,-2.53 6.52,-3.86 7.94,-5.7 14.9,-12.39 23.03,-17.83 7.53,6.54 16.32,23.42 24.73,33.46l4.81 4.88c0.52,0.49 0.81,0.86 1.02,1.06l0.68 0.71c0.14,0.14 0.57,0.53 0.72,0.66 27.57,23.52 64.76,33.03 97.27,11.6 11.13,-7.33 19.41,-22.19 24.88,-26.1l12.5 23.21c4.64,7.75 8.68,15.25 14.51,22.19l6.43 6.73c6.3,6.71 15.18,11.17 22.94,15.85 2.32,1.41 4.38,2.59 7.19,3.89 25.08,11.68 62.89,12.87 84.09,-6.86 2.61,-2.43 4.7,-4.75 7.27,-7.28 2.81,-2.79 4.16,-4.81 6.55,-8 4.28,-5.69 7.67,-11.37 11.7,-17.39 7.81,-11.68 14.69,-24.1 22.44,-35.75 11.74,-17.63 22.25,-36.39 33.92,-54.04 1.89,-2.86 3.76,-6.11 5.5,-9.04l51.02 -80.6c13.48,-20.15 18.46,-45.39 10.06,-70.49 -3.92,-11.71 -10.29,-22.94 -18.97,-31.59 -3.35,-3.35 -6.51,-6.81 -10.51,-9.57 -4.2,-2.91 -7.86,-5.58 -12.76,-7.33l-31.26 -8.91c0.35,-4.27 2.73,-8.85 4.24,-12.38 0.96,-2.26 1.75,-2.97 2.93,-5.38 5.25,-10.64 8.75,-22.69 8.75,-36.27 0,-5.68 -1.47,-11.91 -2.62,-16.78 -1.45,-6.11 -3.07,-9.51 -4.89,-14.5 -10.05,-27.64 -39.8,-47.75 -68.66,-48.39 0,-8.07 4.86,-15.91 7.19,-22.6 16.89,-48.46 -9.71,-108.34 -67.44,-108.34 -8.33,0 -15.17,1.83 -22.01,3.62l-154.3 38.92c-13.24,2.99 -27.83,6.25 -40.34,10.91l-9.4 3.76c-17.38,6.87 -32.98,20.73 -39.98,38.29 -4.43,11.11 -9.58,26.84 -9.58,42.37z"/>
    </clipPath>
 </defs>
 <g id="Слой_x0020_1">
  <metadata id="CorelCorpID_0Corel-Layer"/>
  <g id="_1272298464560">
   <g>
    <path class="fil0" d="M477.83 1925.83l32.38 0 0 -240.98 -32.38 0 0 -12.29 137.7 0c37.5,0 65.37,5.6 83.67,16.73 18.24,11.14 27.39,28.28 27.39,51.37 0,24.11 -9.42,42.28 -28.34,54.37 -18.85,12.09 -47.13,18.1 -84.9,18.1l-35.93 0 0 112.7 37.7 0 0 13.12 -137.29 0 0 -13.12zm99.59 -240.98l0 117.62 37.29 0c15.1,0 25.07,-3.21 29.98,-9.63 4.85,-6.35 7.31,-23.49 7.31,-51.36 0,-25.21 -2.46,-40.99 -7.31,-47.2 -4.91,-6.28 -15.5,-9.43 -31.76,-9.43l-35.51 0zm174.24 254.1l0 -13.12 27.46 0 0 -240.98 -27.46 0 0 -12.29 132.79 0 0 12.29 -36.89 0 0 240.98 38.87 0c21.93,0 39.14,-5.81 51.57,-17.42 12.43,-11.67 22.13,-31.14 29.23,-58.4l12.71 0 -3.01 88.94 -225.27 0zm302.39 -88.53l72.27 0 -35.18 -93.37 -37.09 93.37zm-70.83 88.53l0 -13.12 16.39 0c4.44,0 8.13,-1.5 11,-4.44 2.93,-2.94 5.94,-8.26 9.01,-15.98l91.53 -238.18 15.99 0 100.06 258.6 23.64 0 0 13.12 -129.1 0 0 -13.12 32.45 0 -23.43 -62.29 -81.08 0 -17.63 45.49c-0.41,0.75 -0.68,2.05 -0.88,3.69 -0.21,1.64 -0.34,3.62 -0.34,5.87 0,2.32 1.09,4.1 3.14,5.33 2.05,1.3 4.98,1.91 8.67,1.91l23.84 0 0 13.12 -83.26 0zm289.82 3.14l0 -78.14 15.57 0c6.83,22.67 16.87,39.82 30.26,51.43 13.45,11.61 29.85,17.42 49.32,17.42 17.48,0 31.89,-4.65 43.37,-14 11.47,-9.36 17.21,-21.25 17.21,-35.66 0,-7.72 -1.36,-14.07 -4.09,-19.12 -2.74,-4.99 -7.39,-9.63 -13.94,-13.87 -7.45,-4.92 -22.2,-9.97 -44.19,-15.03 -8.13,-1.84 -14.35,-3.34 -18.65,-4.37 -25.75,-6.56 -44.47,-16.19 -56.15,-28.82 -11.68,-12.71 -17.49,-29.72 -17.49,-51.03 0,-25 7.79,-45.14 23.3,-60.58 15.57,-15.37 35.86,-23.09 60.99,-23.09 10.25,0 19.81,1.43 28.69,4.3 8.88,2.8 17.21,7.11 25.14,12.78l14.62 -11.75 12.84 0 1.64 70.49 -13.53 0c-5.19,-20.7 -13.87,-36.47 -26.02,-47.27 -12.09,-10.86 -27.26,-16.26 -45.36,-16.26 -15.02,0 -27.39,3.69 -37.09,11 -9.63,7.38 -14.48,16.67 -14.48,27.87 0,16.8 17.83,29.17 53.42,37.09 4.78,1.02 8.4,1.84 10.92,2.39 33.27,7.72 56.63,18.72 70.02,32.92 13.46,14.21 20.15,34.36 20.15,60.45 0,26.98 -8.54,49.32 -25.68,67.15 -17.15,17.82 -38.73,26.7 -64.76,26.7 -13.25,0 -24.86,-1.5 -34.83,-4.5 -10.04,-2.94 -19.33,-7.72 -28.01,-14.21l-18.44 15.71 -14.75 0zm272.06 -3.14l0 -13.12 32.78 0 0 -240.98 -14.41 0c-17.42,0 -31.22,5.4 -41.26,16.19 -10.1,10.79 -18.98,29.99 -26.7,57.58l-10.66 0 3.21 -86.06 248.29 0 3.42 86.06 -10.66 0c-7.31,-26.77 -16.12,-45.76 -26.37,-56.96 -10.31,-11.21 -23.9,-16.81 -40.84,-16.81l-15.17 0 0 240.98 32.79 0 0 13.12 -134.42 0z"/>
    <g>
     <path class="fil0" d="M334.14 1512.65l0 -20.6 50.86 0 0 -378.56 -43.67 0 0 -19.32 348.84 0 1.29 110.09 -21.24 0c-14.28,-35.62 -28.65,-59.66 -43.35,-72.1 -14.7,-12.45 -36.06,-18.67 -64.06,-18.67l-72.22 0 0 171.89c1.72,0.22 3.65,0.43 5.8,0.54 2.25,0.11 5.14,0.11 9.01,0.11 22.75,0 40.02,-6.01 51.72,-18.03 11.8,-12.02 19.42,-31.55 22.96,-58.59l21.25 0 0 178.34 -21.25 0c-2.25,-28.97 -9.44,-49.68 -21.35,-62.23 -11.91,-12.56 -30.58,-18.89 -55.91,-18.89l-12.23 0 0 185.42 70.07 0c34.55,0 61.59,-9.12 81.01,-27.36 19.53,-18.35 34.88,-48.93 45.93,-91.75l19.96 0 -4.4 139.71 -369.02 0zm426.96 0l0 -20.6 50.22 0 0 -378.56 -51.5 0 0 -19.32 356.14 0 3.76 121.68 -21.89 0c-10.31,-37.66 -24.04,-64.16 -41.21,-79.4 -17.17,-15.35 -42.07,-22.96 -74.79,-22.96l-64.28 0 0.32 171.89c1.51,0.22 3.33,0.33 5.48,0.43 2.25,0.11 5.15,0.22 9.01,0.22 22.32,0 39.38,-6.12 51.08,-18.24 11.8,-12.13 19.42,-31.55 22.96,-58.38l21.25 0 0 178.34 -21.25 0c-2.25,-28.97 -9.44,-49.68 -21.35,-62.23 -11.91,-12.56 -30.37,-18.89 -55.27,-18.89l-12.23 0 0 185.42 61.16 0 0 20.6 -217.61 0zm390.16 0l0 -20.6 50.22 0 0 -378.56 -51.51 0 0 -19.32 356.14 0 3.76 121.68 -21.89 0c-10.3,-37.66 -24.03,-64.16 -41.2,-79.4 -17.17,-15.35 -42.07,-22.96 -74.79,-22.96l-64.28 0 0.32 171.89c1.5,0.22 3.33,0.33 5.47,0.43 2.26,0.11 5.16,0.22 9.02,0.22 22.32,0 39.38,-6.12 51.08,-18.24 11.8,-12.13 19.42,-31.55 22.96,-58.38l21.25 0 0 178.34 -21.25 0c-2.25,-28.97 -9.44,-49.68 -21.35,-62.23 -11.91,-12.56 -30.37,-18.89 -55.27,-18.89l-12.23 0 0 185.42 61.17 0 0 20.6 -217.62 0zm433.3 -139.06l113.52 0 -55.26 -146.69 -58.26 146.69zm-111.28 139.06l0 -20.6 25.76 0c6.97,0 12.76,-2.36 17.27,-6.98 4.61,-4.61 9.34,-12.98 14.17,-25.1l143.78 -374.17 25.11 0 157.2 406.25 37.13 0 0 20.6 -202.8 0 0 -20.6 50.97 0 -36.81 -97.86 -127.37 0 -27.69 71.46c-0.64,1.18 -1.07,3.22 -1.39,5.8 -0.32,2.57 -0.54,5.68 -0.54,9.23 0,3.64 1.72,6.43 4.94,8.36 3.22,2.04 7.83,3.01 13.63,3.01l37.44 0 0 20.6 -130.8 0zm445.63 0l0 -20.6 50.22 0 0 -378.56 -51.5 0 0 -19.32 356.14 0 3.76 121.68 -21.89 0c-10.31,-37.66 -24.04,-64.16 -41.21,-79.4 -17.17,-15.35 -42.06,-22.96 -74.79,-22.96l-64.27 0 0.32 171.89c1.5,0.22 3.32,0.33 5.47,0.43 2.25,0.11 5.15,0.22 9.01,0.22 22.32,0 39.38,-6.12 51.08,-18.24 11.8,-12.13 19.42,-31.55 22.96,-58.38l21.25 0 0 178.34 -21.25 0c-2.25,-28.97 -9.44,-49.68 -21.35,-62.23 -11.91,-12.56 -30.37,-18.89 -55.26,-18.89l-12.23 0 0 185.42 61.16 0 0 20.6 -217.62 0z"/>
     <path class="fil0" d="M8.45 1519.33l0 -123.25 24.57 0c10.78,35.77 26.61,62.81 47.73,81.12 21.22,18.32 47.08,27.48 77.78,27.48 27.59,0 50.32,-7.33 68.42,-22.09 18.1,-14.76 27.15,-33.51 27.15,-56.24 0,-12.17 -2.15,-22.19 -6.46,-30.17 -4.31,-7.86 -11.64,-15.19 -21.98,-21.87 -11.74,-7.75 -35.02,-15.73 -69.71,-23.7 -12.82,-2.91 -22.63,-5.28 -29.41,-6.9 -40.62,-10.34 -70.14,-25.53 -88.56,-45.46 -18.43,-20.04 -27.59,-46.87 -27.59,-80.48 0,-39.43 12.29,-71.21 36.75,-95.56 24.56,-24.24 56.56,-36.42 96.2,-36.42 16.17,0 31.25,2.26 45.26,6.79 14,4.42 27.15,11.2 39.64,20.15l23.06 -18.53 20.26 0 2.58 111.18 -21.33 0c-8.19,-32.64 -21.87,-57.53 -41.05,-74.56 -19.07,-17.13 -42.99,-25.64 -71.54,-25.64 -23.7,0 -43.2,5.82 -58.5,17.35 -15.19,11.63 -22.84,26.29 -22.84,43.96 0,26.5 28.12,46 84.25,58.5 7.54,1.61 13.25,2.91 17.24,3.77 52.47,12.18 89.32,29.52 110.43,51.93 21.23,22.41 31.78,54.19 31.78,95.35 0,42.55 -13.46,77.79 -40.51,105.9 -27.04,28.12 -61.08,42.13 -102.13,42.13 -20.9,0 -39.22,-2.37 -54.95,-7.11 -15.84,-4.64 -30.49,-12.17 -44.17,-22.41l-29.09 24.78 -23.28 0zm51.72 115.39l14.22 -31.03c15.3,8.51 29.31,14.76 41.8,18.96 12.5,4.09 24.03,6.14 34.48,6.14 7.86,0 14.44,-2.48 19.72,-7.43 5.38,-4.96 8.08,-11.32 8.08,-18.86 0,-8.51 -2.37,-14.87 -7.22,-19.07 -4.85,-4.2 -12.07,-6.35 -21.76,-6.35 -2.91,0 -6.04,0.1 -9.27,0.43 -3.23,0.32 -6.9,0.75 -10.88,1.18l0 -64.32 24.56 0 0 36.53c3.56,-0.43 7.01,-0.87 10.24,-1.19 3.23,-0.32 6.57,-0.43 9.91,-0.43 17.89,0 32.32,4.85 43.1,14.65 10.88,9.81 16.27,23.06 16.27,39.65 0,18.1 -6.47,32.32 -19.29,42.67 -12.82,10.34 -30.71,15.51 -53.66,15.51 -13.46,0 -28.44,-2.26 -45.03,-6.79 -16.7,-4.42 -35.12,-11.2 -55.27,-20.25z"/>
    </g>
   </g>
   <path class="fil1" d="M1156.46 845.91c0,-8.68 1.59,-18.93 4.38,-25.41 1.68,-3.88 2.64,-6.02 4.58,-9.27 2.97,-4.98 5.25,-8.16 9.84,-11.63l2.66 -2.19c18.87,-14.9 46.68,-15.21 68.1,-3.69 10,5.38 12.45,7.19 21.64,14.38 11.87,9.28 19.95,23.67 25.91,37.12 4.56,10.31 5.71,21.62 6.49,32.92l-1.91 20.15c-2.01,7.91 -4.07,12.47 -7.99,19.03 -2.91,4.87 -8.54,10.8 -13.34,13.67 -17.9,10.7 -35.61,10.07 -55.28,4.99 -19.5,-5.03 -38.45,-22.08 -49.29,-39.36 -9.08,-14.48 -15.79,-33.1 -15.79,-50.71zm-153.74 -38.79c0,-29.62 14.74,-54.04 45.01,-54.04 17.26,0 21.58,1.36 36.23,9.48 11.52,6.39 22.25,18.24 29.43,29.45 13.6,21.21 19.95,51.29 10.32,75.87 -7.65,19.51 -20.86,30.68 -46.2,30.68 -44.34,0 -74.79,-51.02 -74.79,-91.44zm-141.27 -33.26c0,-21.3 7.55,-34.79 23.14,-44.05 19.28,-11.45 37.94,-1.88 52.63,9.13 2.54,1.9 3.16,1.96 5.44,4.26 5.04,5.09 9.74,10 13.81,15.98 1.53,2.25 2.43,3.37 3.89,5.8 15.04,24.98 21.77,71.17 -5.82,90.23 -21.92,15.15 -50.33,2.94 -65.38,-14.16 -4.6,-5.23 -9.91,-12.21 -13.39,-18.47 -1.03,-1.86 -1.6,-3.36 -2.58,-5.04 -6.6,-11.31 -11.74,-30.1 -11.74,-43.68zm222.39 -149.54l6.12 -9.11c10.3,-13.63 30.75,-18.69 47.11,-18.69 9.94,0 22.53,5.1 30.77,10.08 9.96,6.02 19.38,14.75 26.42,24.15 1.53,2.04 2.94,4.01 4.23,6.15 11.64,19.29 14.75,31.31 14.75,55.22 0,23.23 -11.39,45.47 -28.51,56.68 -23.41,15.34 -51.86,9.95 -72.71,-6.69 -34.37,-27.43 -49.76,-77.84 -28.18,-117.79zm-162.14 10.99c0,-6.08 -0.01,-9.43 1.08,-15.55 1.59,-9.01 6.1,-20.68 12.24,-27.24 17.95,-19.19 47.42,-21.42 68.7,-5.31 30.79,23.3 50.47,65.79 38.23,103.28l-2.85 7.53c-12.34,26.34 -33.95,35.45 -61.57,26.92 -3.67,-1.13 -10.93,-4.88 -13.88,-6.89 -8.44,-5.79 -15.09,-12.26 -20.9,-20.67 -6.09,-8.83 -10.93,-16.22 -14.5,-27.06 -3.51,-10.67 -6.55,-21.21 -6.55,-35.01zm65.79 -148.95c0,-12.26 1.07,-20.33 5.11,-31.6 3.24,-9.08 5.77,-14.08 11.79,-22.15 17.7,-23.77 51.86,-29.21 76.45,-13.31 7.22,4.67 16.54,12.35 21.14,19.73 13.53,21.7 11.51,16.92 18.4,41.86 8.39,30.4 -5.32,79.49 -43.3,90.95 -16.16,4.87 -33.17,1.95 -46.38,-6.78 -13.34,-8.81 -21.17,-16.93 -29.77,-31.18 -1.97,-3.25 -5.36,-9.95 -6.61,-13.47 -1.74,-4.86 -3.83,-9.64 -4.76,-15.33 -1.01,-6.18 -2.07,-11.33 -2.07,-18.72zm-17.31 -7.61c0,16.73 1.23,23.64 5.12,39.2 1.29,5.13 2.66,8.37 4.03,13.3 1.03,3.74 3.2,9.21 3.31,14l-13.62 6.47c-23.74,11.49 -44.06,14.78 -57.85,44.66 -8.19,17.76 -9.21,41.71 -4.57,61.65 1.68,7.22 4.71,20.17 4.71,27.16 0,8.98 -14.93,14.43 -21.25,18.23 -12.97,7.8 -23.92,13.32 -33.55,25.32 -26.39,32.86 -12.25,87.01 10.77,117.58 3.67,4.87 7.44,8.36 11.66,12.58 9.37,9.38 20.93,16.98 33.91,20.81 15.38,4.54 33.14,4.1 47.16,-3.79 2.12,-1.19 4.68,-2.53 6.52,-3.86 7.94,-5.7 14.9,-12.39 23.03,-17.83 7.53,6.54 16.32,23.42 24.73,33.46l4.81 4.88c0.52,0.49 0.81,0.86 1.02,1.06l0.68 0.71c0.14,0.14 0.57,0.53 0.72,0.66 27.57,23.52 64.76,33.03 97.27,11.6 11.13,-7.33 19.41,-22.19 24.88,-26.1l12.5 23.21c4.64,7.75 8.68,15.25 14.51,22.19l6.43 6.73c6.3,6.71 15.18,11.17 22.94,15.85 2.32,1.41 4.38,2.59 7.19,3.89 25.08,11.68 62.89,12.87 84.09,-6.86 2.61,-2.43 4.7,-4.75 7.27,-7.28 2.81,-2.79 4.16,-4.81 6.55,-8 4.28,-5.69 7.67,-11.37 11.7,-17.39 7.81,-11.68 14.69,-24.1 22.44,-35.75 11.74,-17.63 22.25,-36.39 33.92,-54.04 1.89,-2.86 3.76,-6.11 5.5,-9.04l51.02 -80.6c13.48,-20.15 18.46,-45.39 10.06,-70.49 -3.92,-11.71 -10.29,-22.94 -18.97,-31.59 -3.35,-3.35 -6.51,-6.81 -10.51,-9.57 -4.2,-2.91 -7.86,-5.58 -12.76,-7.33l-31.26 -8.91c0.35,-4.27 2.73,-8.85 4.24,-12.38 0.96,-2.26 1.75,-2.97 2.93,-5.38 5.25,-10.64 8.75,-22.69 8.75,-36.27 0,-5.68 -1.47,-11.91 -2.62,-16.78 -1.45,-6.11 -3.07,-9.51 -4.89,-14.5 -10.05,-27.64 -39.8,-47.75 -68.66,-48.39 0,-8.07 4.86,-15.91 7.19,-22.6 16.89,-48.46 -9.71,-108.34 -67.44,-108.34 -8.33,0 -15.17,1.83 -22.01,3.62l-154.3 38.92c-13.24,2.99 -27.83,6.25 -40.34,10.91l-9.4 3.76c-17.38,6.87 -32.98,20.73 -39.98,38.29 -4.43,11.11 -9.58,26.84 -9.58,42.37z"/>
   <g style="clip-path:url(#id0)">
    <g>
     <path id="_1" class="fil2" d="M981.02 540.34c0.17,0.25 59.46,88.98 137.11,36.97 79.07,-52.97 200.07,-113.24 200.42,-113.42l1.45 2.91c-0.35,0.18 -121.14,60.35 -200.06,113.21 -80.36,53.83 -141.44,-37.58 -141.61,-37.84l2.69 -1.83z"/>
     <path class="fil2" d="M1370.33 603.95c-0.27,0.28 -96.3,95.26 -164.13,160.86 -15.81,15.29 -33.16,21.08 -50.09,20.68 -20.58,-0.48 -40.49,-10.17 -56.18,-23.06 -23.15,-19.02 -36.97,-45.09 -40.89,-53.16 -8.87,11.51 -17.66,21.14 -26.98,28.14 -10.01,7.5 -20.62,11.96 -32.55,12.41 -21.13,0.82 -41.61,-8.52 -58.54,-22.46 -19.69,-16.22 -34.61,-38.72 -40.17,-58.7l3.14 -0.87c5.39,19.39 19.92,41.25 39.1,57.05 16.36,13.48 36.1,22.51 56.36,21.73 11.2,-0.43 21.22,-4.65 30.71,-11.77 9.6,-7.2 18.7,-17.4 27.96,-29.65l1.7 -2.24 1.11 2.58c0.04,0.09 14.07,32.19 41.12,54.42 15.19,12.49 34.4,21.86 54.19,22.33 16.1,0.38 32.64,-5.16 47.75,-19.78 67.85,-65.61 163.83,-160.56 164.11,-160.83l2.28 2.32z"/>
    </g>
   </g>
   <path class="fil3" d="M1156.46 845.91c0,-8.68 1.59,-18.93 4.38,-25.41 1.68,-3.88 2.64,-6.02 4.58,-9.27 2.97,-4.98 5.25,-8.16 9.84,-11.63l2.66 -2.19c18.87,-14.9 46.68,-15.21 68.1,-3.69 10,5.38 12.45,7.19 21.64,14.38 11.87,9.28 19.95,23.67 25.91,37.12 4.56,10.31 5.71,21.62 6.49,32.92l-1.91 20.15c-2.01,7.91 -4.07,12.47 -7.99,19.03 -2.91,4.87 -8.54,10.8 -13.34,13.67 -17.9,10.7 -35.61,10.07 -55.28,4.99 -19.5,-5.03 -38.45,-22.08 -49.29,-39.36 -9.08,-14.48 -15.79,-33.1 -15.79,-50.71zm-153.74 -38.79c0,-29.62 14.74,-54.04 45.01,-54.04 17.26,0 21.58,1.36 36.23,9.48 11.52,6.39 22.25,18.24 29.43,29.45 13.6,21.21 19.95,51.29 10.32,75.87 -7.65,19.51 -20.86,30.68 -46.2,30.68 -44.34,0 -74.79,-51.02 -74.79,-91.44zm-141.27 -33.26c0,-21.3 7.55,-34.79 23.14,-44.05 19.28,-11.45 37.94,-1.88 52.63,9.13 2.54,1.9 3.16,1.96 5.44,4.26 5.04,5.09 9.74,10 13.81,15.98 1.53,2.25 2.43,3.37 3.89,5.8 15.04,24.98 21.77,71.17 -5.82,90.23 -21.92,15.15 -50.33,2.94 -65.38,-14.16 -4.6,-5.23 -9.91,-12.21 -13.39,-18.47 -1.03,-1.86 -1.6,-3.36 -2.58,-5.04 -6.6,-11.31 -11.74,-30.1 -11.74,-43.68zm222.39 -149.54l6.12 -9.11c10.3,-13.63 30.75,-18.69 47.11,-18.69 9.94,0 22.53,5.1 30.77,10.08 9.96,6.02 19.38,14.75 26.42,24.15 1.53,2.04 2.94,4.01 4.23,6.15 11.64,19.29 14.75,31.31 14.75,55.22 0,23.23 -11.39,45.47 -28.51,56.68 -23.41,15.34 -51.86,9.95 -72.71,-6.69 -34.37,-27.43 -49.76,-77.84 -28.18,-117.79zm-162.14 10.99c0,-6.08 -0.01,-9.43 1.08,-15.55 1.59,-9.01 6.1,-20.68 12.24,-27.24 17.95,-19.19 47.42,-21.42 68.7,-5.31 30.79,23.3 50.47,65.79 38.23,103.28l-2.85 7.53c-12.34,26.34 -33.95,35.45 -61.57,26.92 -3.67,-1.13 -10.93,-4.88 -13.88,-6.89 -8.44,-5.79 -15.09,-12.26 -20.9,-20.67 -6.09,-8.83 -10.93,-16.22 -14.5,-27.06 -3.51,-10.67 -6.55,-21.21 -6.55,-35.01zm65.79 -148.95c0,-12.26 1.07,-20.33 5.11,-31.6 3.24,-9.08 5.77,-14.08 11.79,-22.15 17.7,-23.77 51.86,-29.21 76.45,-13.31 7.22,4.67 16.54,12.35 21.14,19.73 13.53,21.7 11.51,16.92 18.4,41.86 8.39,30.4 -5.32,79.49 -43.3,90.95 -16.16,4.87 -33.17,1.95 -46.38,-6.78 -13.34,-8.81 -21.17,-16.93 -29.77,-31.18 -1.97,-3.25 -5.36,-9.95 -6.61,-13.47 -1.74,-4.86 -3.83,-9.64 -4.76,-15.33 -1.01,-6.18 -2.07,-11.33 -2.07,-18.72zm-17.31 -7.61c0,16.73 1.23,23.64 5.12,39.2 1.29,5.13 2.66,8.37 4.03,13.3 1.03,3.74 3.2,9.21 3.31,14l-13.62 6.47c-23.74,11.49 -44.06,14.78 -57.85,44.66 -8.19,17.76 -9.21,41.71 -4.57,61.65 1.68,7.22 4.71,20.17 4.71,27.16 0,8.98 -14.93,14.43 -21.25,18.23 -12.97,7.8 -23.92,13.32 -33.55,25.32 -26.39,32.86 -12.25,87.01 10.77,117.58 3.67,4.87 7.44,8.36 11.66,12.58 9.37,9.38 20.93,16.98 33.91,20.81 15.38,4.54 33.14,4.1 47.16,-3.79 2.12,-1.19 4.68,-2.53 6.52,-3.86 7.94,-5.7 14.9,-12.39 23.03,-17.83 7.53,6.54 16.32,23.42 24.73,33.46l4.81 4.88c0.52,0.49 0.81,0.86 1.02,1.06l0.68 0.71c0.14,0.14 0.57,0.53 0.72,0.66 27.57,23.52 64.76,33.03 97.27,11.6 11.13,-7.33 19.41,-22.19 24.88,-26.1l12.5 23.21c4.64,7.75 8.68,15.25 14.51,22.19l6.43 6.73c6.3,6.71 15.18,11.17 22.94,15.85 2.32,1.41 4.38,2.59 7.19,3.89 25.08,11.68 62.89,12.87 84.09,-6.86 2.61,-2.43 4.7,-4.75 7.27,-7.28 2.81,-2.79 4.16,-4.81 6.55,-8 4.28,-5.69 7.67,-11.37 11.7,-17.39 7.81,-11.68 14.69,-24.1 22.44,-35.75 11.74,-17.63 22.25,-36.39 33.92,-54.04 1.89,-2.86 3.76,-6.11 5.5,-9.04l51.02 -80.6c13.48,-20.15 18.46,-45.39 10.06,-70.49 -3.92,-11.71 -10.29,-22.94 -18.97,-31.59 -3.35,-3.35 -6.51,-6.81 -10.51,-9.57 -4.2,-2.91 -7.86,-5.58 -12.76,-7.33l-31.26 -8.91c0.35,-4.27 2.73,-8.85 4.24,-12.38 0.96,-2.26 1.75,-2.97 2.93,-5.38 5.25,-10.64 8.75,-22.69 8.75,-36.27 0,-5.68 -1.47,-11.91 -2.62,-16.78 -1.45,-6.11 -3.07,-9.51 -4.89,-14.5 -10.05,-27.64 -39.8,-47.75 -68.66,-48.39 0,-8.07 4.86,-15.91 7.19,-22.6 16.89,-48.46 -9.71,-108.34 -67.44,-108.34 -8.33,0 -15.17,1.83 -22.01,3.62l-154.3 38.92c-13.24,2.99 -27.83,6.25 -40.34,10.91l-9.4 3.76c-17.38,6.87 -32.98,20.73 -39.98,38.29 -4.43,11.11 -9.58,26.84 -9.58,42.37z"/>
  </g>
 </g>
</svg>
