<?xml version="1.0" encoding="UTF-8"?>
<!DOCTYPE svg PUBLIC "-//W3C//DTD SVG 1.1//EN" "http://www.w3.org/Graphics/SVG/1.1/DTD/svg11.dtd">
<!-- Creator: CorelDRAW -->
<svg xmlns="http://www.w3.org/2000/svg" xml:space="preserve" width="22.8598mm" height="22.8598mm" version="1.1" style="shape-rendering:geometricPrecision; text-rendering:geometricPrecision; image-rendering:optimizeQuality; fill-rule:evenodd; clip-rule:evenodd"
viewBox="0 0 2285.98 2285.98"
 xmlns:xlink="http://www.w3.org/1999/xlink"
 xmlns:xodm="http://www.corel.com/coreldraw/odm/2003">
 <defs>
  <style type="text/css">
   <![CDATA[
    .fil1 {fill:#00ACAE}
    .fil0 {fill:#00ACAE;fill-rule:nonzero}
   ]]>
  </style>
 </defs>
 <g id="Слой_x0020_1">
  <metadata id="CorelCorpID_0Corel-Layer"/>
  <g id="_1235308755600">
   <path class="fil0" d="M2093.33 1434.89l-42.58 0c1.59,-8.9 4.58,-15.65 9.05,-20.18 4.46,-4.58 9.49,-6.84 15.12,-6.84 5.65,0 10.14,2 13.47,6.01 3.36,4.03 5.04,10.05 5.04,18.06 0,0.69 -0.03,1.65 -0.1,2.95zm22.91 17.53c1.26,-5.6 1.91,-11.89 1.91,-18.9 0,-14.62 -3.62,-25.99 -10.89,-34.11 -7.27,-8.11 -17.06,-12.17 -29.37,-12.17 -19.32,0 -34.22,7.73 -44.61,23.24 -7.67,11.49 -11.48,24.55 -11.48,39.22 0,15.07 4.23,27.13 12.73,36.28 8.46,9.11 19.48,13.68 33.02,13.68 9.89,0 18.77,-2.61 26.72,-7.81 7.95,-5.18 14.28,-12.95 19.04,-23.34l-24.25 -4.33c-5.1,9.9 -12.21,14.86 -21.31,14.86 -5.53,0 -10.25,-2.21 -14.1,-6.61 -3.84,-4.39 -5.78,-10.17 -5.78,-17.36 0,-0.62 0.04,-1.52 0.11,-2.65l68.26 0zm-92.51 -62.49l-4.06 21.25 -19.19 0 -16.87 85.8 -27.13 0 16.89 -85.8 -15.16 0 4.08 -21.25 15.25 0 2.16 -11.01c1.75,-9.04 3.39,-15.13 4.98,-18.28 2.12,-4.31 5.29,-7.71 9.53,-10.25 4.24,-2.51 9.75,-3.78 16.57,-3.78 8.27,0 17,1.58 26.14,4.77l-5.19 20.39c-6.43,-2.35 -11.67,-3.5 -15.65,-3.5 -3.07,0 -5.37,1.07 -6.85,3.23 -1,1.4 -2.04,5.06 -3.09,10.96l-1.49 7.47 19.08 0zm-102.77 0l-21.06 107.05 27.14 0 21.07 -107.05 -27.15 0zm8.02 -40.64l27.1 0 -5.13 26.2 -27.14 0 5.17 -26.2zm-83.14 147.69l29.09 -147.69 27.1 0 -29.05 147.69 -27.14 0zm-109.6 -107.05l25.53 0 -3.85 20.14c9.38,-15.24 19.52,-22.83 30.47,-22.83 3.89,0 8.06,1.04 12.48,3.13l-10.47 23.65c-2.46,-0.93 -5.11,-1.41 -7.89,-1.41 -4.68,0 -9.43,1.89 -14.28,5.67 -4.85,3.79 -8.62,8.81 -11.34,15.13 -2.74,6.3 -5.43,16.29 -8.07,29.98l-6.5 33.59 -27.14 0 21.06 -107.05zm-52.31 44.96c0.07,-1.3 0.1,-2.26 0.1,-2.95 0,-8.01 -1.69,-14.03 -5.04,-18.06 -3.33,-4.01 -7.81,-6.01 -13.47,-6.01 -5.62,0 -10.67,2.26 -15.13,6.84 -4.45,4.53 -7.46,11.28 -9.04,20.18l42.58 0zm22.91 17.53l-68.27 0c-0.06,1.13 -0.1,2.03 -0.1,2.65 0,7.19 1.94,12.97 5.79,17.36 3.84,4.4 8.56,6.61 14.08,6.61 9.12,0 16.23,-4.96 21.33,-14.86l24.23 4.33c-4.75,10.39 -11.08,18.16 -19.03,23.34 -7.95,5.2 -16.83,7.81 -26.72,7.81 -13.54,0 -24.55,-4.57 -33.02,-13.68 -8.5,-9.15 -12.73,-21.21 -12.73,-36.28 0,-14.67 3.81,-27.73 11.47,-39.22 10.41,-15.51 25.3,-23.24 44.62,-23.24 12.31,0 22.11,4.06 29.37,12.17 7.27,8.12 10.89,19.49 10.89,34.11 0,7.01 -0.64,13.3 -1.91,18.9zm-155.5 -41.05l13.44 0 -8.63 43.16c-2.42,11.85 -3.65,19.41 -3.65,22.72 0,7.01 2.16,12.52 6.49,16.47 4.36,3.95 11.31,5.94 20.85,5.94 4.9,0 9.67,-0.52 14.34,-1.52l4.27 -21.37c-4.8,0.48 -7.76,0.67 -8.96,0.67 -3.45,0 -5.81,-0.61 -7.13,-1.84 -1.33,-1.24 -1.98,-2.96 -1.98,-5.19 0,-1.14 0.81,-5.75 2.42,-13.86l8.86 -45.18 16.48 0 4.07 -21.44 -16.45 0 7.01 -36.73 -30.73 20.01 -3.25 16.72 -13.38 0 -4.07 21.44zm-64.57 0l4.08 -21.44 13.38 0 3.26 -16.72 30.73 -20.01 -7.01 36.73 26.15 0 -4.07 21.44 -26.19 0 -8.85 45.18c-1.62,8.11 -2.43,12.72 -2.43,13.86 0,2.23 0.65,3.95 1.98,5.19 1.32,1.23 3.68,1.84 7.14,1.84 1.19,0 4.16,-0.19 8.94,-0.67l-4.25 21.37c-4.67,1 -9.44,1.52 -14.35,1.52 -9.54,0 -16.48,-1.99 -20.85,-5.94 -4.33,-3.95 -6.49,-9.46 -6.49,-16.47 0,-3.31 1.23,-10.87 3.64,-22.72l8.64 -43.16 -13.45 0zm-39.77 23.52c0.07,-1.3 0.1,-2.26 0.1,-2.95 0,-8.01 -1.67,-14.03 -5.04,-18.06 -3.33,-4.01 -7.82,-6.01 -13.47,-6.01 -5.63,0 -10.66,2.26 -15.13,6.84 -4.45,4.53 -7.46,11.28 -9.04,20.18l42.58 0zm22.91 17.53l-68.26 0c-0.07,1.13 -0.11,2.03 -0.11,2.65 0,7.19 1.94,12.97 5.79,17.36 3.84,4.4 8.55,6.61 14.08,6.61 9.12,0 16.22,-4.96 21.33,-14.86l24.23 4.33c-4.75,10.39 -11.08,18.16 -19.03,23.34 -7.95,5.2 -16.84,7.81 -26.72,7.81 -13.54,0 -24.55,-4.57 -33.02,-13.68 -8.51,-9.15 -12.74,-21.21 -12.74,-36.28 0,-14.67 3.82,-27.73 11.48,-39.22 10.4,-15.51 25.29,-23.24 44.62,-23.24 12.31,0 22.1,4.06 29.37,12.17 7.27,8.12 10.89,19.49 10.89,34.11 0,7.01 -0.65,13.3 -1.91,18.9zm-180.68 1.07c0,7.26 1.91,13.18 5.76,17.7 3.84,4.54 8.36,6.81 13.56,6.81 4.56,0 8.92,-1.75 13.09,-5.29 4.14,-3.52 7.6,-9.14 10.38,-16.88 2.74,-7.69 4.13,-15.51 4.13,-23.38 0,-7.63 -1.84,-13.65 -5.56,-18.01 -3.72,-4.37 -8.21,-6.57 -13.47,-6.57 -6.85,0 -12.76,3.4 -17.71,10.18 -6.78,9.28 -10.18,21.11 -10.18,35.44zm-36.44 43.49l29.07 -147.69 27.12 0 -9.93 49.09c5.01,-4.02 9.7,-6.87 14.03,-8.6 4.36,-1.68 9.11,-2.54 14.24,-2.54 10.63,0 19.17,3.79 25.59,11.38 6.4,7.56 9.61,18.6 9.61,33.1 0,9.77 -1.53,19.26 -4.53,28.47 -3,9.19 -7.01,16.67 -12.05,22.46 -5.04,5.73 -10.31,10.04 -15.87,12.82 -5.53,2.79 -11.34,4.19 -17.41,4.19 -14.45,0 -25.04,-6.67 -31.8,-19.97l-3.52 17.29 -24.55 0zm-109.01 -107.05l25.52 0 -3.84 20.14c9.36,-15.24 19.51,-22.83 30.47,-22.83 3.87,0 8.04,1.04 12.46,3.13l-10.47 23.65c-2.45,-0.93 -5.1,-1.41 -7.88,-1.41 -4.68,0 -9.44,1.89 -14.28,5.67 -4.84,3.79 -8.63,8.81 -11.35,15.13 -2.74,6.3 -5.42,16.29 -8.07,29.98l-6.49 33.59 -27.15 0 21.08 -107.05zm-56.51 41.83c0,13.89 -3.59,25.67 -10.76,35.34 -5.04,6.84 -11.25,10.29 -18.68,10.29 -5.92,0 -10.83,-2.28 -14.74,-6.82 -3.91,-4.53 -5.84,-10.66 -5.84,-18.38 0,-6.23 1.26,-13.07 3.78,-20.5 2.52,-7.39 6.04,-13.06 10.56,-16.94 4.53,-3.89 9.73,-5.84 15.57,-5.84 5.91,0 10.73,2.08 14.48,6.25 3.75,4.16 5.63,9.69 5.63,16.6zm-77.36 20.8c0,8.49 1.82,16.44 5.4,23.86 3.59,7.39 9.05,13.13 16.35,17.18 7.29,4.03 15.7,6.06 25.16,6.06 17.45,0 31.39,-6.33 41.78,-19 10.4,-12.67 15.6,-27.72 15.6,-45.08 0,-14.78 -4.15,-26.5 -12.46,-35.24 -8.34,-8.73 -19.91,-13.1 -34.7,-13.1 -17.1,0 -30.89,5.92 -41.4,17.74 -10.5,11.83 -15.73,27.67 -15.73,47.58zm1.36 -62.63l-4.07 21.25 -15 0 -4.19 0 -16.87 85.8 -27.14 0 16.9 -85.8 -15.16 0 -558.4 0 11.9 -21.25 550.58 0 15.25 0 2.16 -11.01c1.75,-9.04 3.39,-15.13 4.97,-18.28 2.13,-4.31 5.3,-7.71 9.54,-10.25 4.23,-2.51 9.75,-3.78 16.57,-3.78 8.28,0 17,1.58 26.14,4.77l-5.2 20.39c-6.42,-2.35 -11.66,-3.5 -15.64,-3.5 -3.07,0 -5.36,1.07 -6.85,3.23 -1.01,1.4 -2.04,5.06 -3.1,10.96l-1.48 7.47 11.91 0 7.18 0z"/>
   <polygon class="fil1" points="8.61,1410.99 31.67,1410.99 43.57,1389.75 20.51,1389.75 "/>
   <polygon class="fil1" points="66.62,1389.75 97.34,1389.75 85.45,1410.99 54.72,1410.99 "/>
   <polygon class="fil1" points="128.07,1389.75 166.51,1389.75 154.61,1410.99 116.17,1410.99 "/>
   <polygon class="fil1" points="202.92,1389.75 249.02,1389.75 237.13,1410.99 191.01,1410.99 "/>
   <polygon class="fil1" points="295.12,1389.75 348.91,1389.75 337,1410.99 283.23,1410.99 "/>
   <path class="fil1" d="M1797.73 1191.76c-30.81,6.64 -60.94,11.53 -90.12,14.66 -29.19,3.48 -57.05,5.23 -83.34,5.23 -54.74,0 -98.52,-12.56 -129.95,-39.42 -30.78,-26.16 -47.66,-61.73 -47.66,-106.73 0,-44.99 23,-84.41 50.91,-105 34.04,-25.11 82.02,-37.66 143.91,-37.66 47.98,0 84.6,8.72 110.85,24.06 25.93,15.01 38.89,38.38 38.89,69.06l-121.56 0c-0.95,-6.96 -4.52,-12.55 -10.67,-16.74 -5.84,-3.84 -13.94,-5.92 -23.67,-5.92 -18.48,0 -31.76,6.28 -39.87,18.13 -8.43,12.56 -11.68,27.91 -11.68,56.86 0,26.51 4.22,48.83 11.68,59.64 7.78,10.47 19.77,16.41 37.28,16.41 6.46,0 12.63,-0.71 18.8,-2.44 6.14,-1.42 12.32,-3.5 18.13,-6.64l0 -31.74 -45.39 0 0 -54.77 173.46 0 0 143.01z"/>
   <polygon class="fil1" points="944.25,1211.65 944.25,922.83 1124.78,922.83 1166.6,1093.76 1209.4,922.83 1389.3,922.83 1389.3,1211.65 1278.1,1211.65 1278.45,1005.15 1226.25,1211.65 1106.97,1211.65 1054.47,1005.15 1054.77,1211.65 "/>
   <polygon class="fil1" points="886.89,1211.65 754.31,1211.65 754.31,922.83 886.89,922.83 "/>
   <polygon class="fil1" points="377.97,1211.65 377.97,922.83 506.67,922.83 506.67,1020.5 568.26,1020.5 568.26,922.83 696.95,922.83 696.95,1211.65 568.26,1211.65 568.26,1103.87 506.67,1103.87 506.67,1211.65 "/>
   <path class="fil1" d="M9.11 1117.13l123.16 0c-0.3,8.01 1.3,18.13 8.44,24.06 5.83,4.88 13.94,6.62 24.3,6.29 10.05,0 17.18,-1.76 22.7,-5.24 5.51,-3.49 8.74,-9.42 8.74,-15 0,-9.07 -4.2,-16.05 -12.3,-19.53 -6.82,-2.44 -20.43,-5.93 -40.84,-10.12 -20.43,-4.54 -36.64,-8.02 -48.63,-11.16 -28.84,-7.32 -50.25,-16.74 -63.19,-28.95 -12.99,-12.22 -19.79,-27.91 -19.79,-46.73 0,-27.57 13.61,-49.2 41.18,-64.54 27.25,-15.35 65.81,-23.02 115.38,-23.02 45.06,0 79.41,6.61 103.4,19.88 25.62,14.29 36.32,32.45 36.32,62.79l-114.43 0c-0.98,-8.38 -4.21,-14.66 -9.08,-18.49 -4.88,-4.19 -12.32,-6.29 -21.07,-6.29 -9.08,0 -15.25,1.75 -20.09,4.88 -5.2,3.5 -7.13,7.68 -7.13,13.27 0,10.47 13.6,18.48 41.48,23.7 10.05,2.11 18.16,3.84 24.31,4.91 46.36,10.46 74.87,19.51 91.41,32.08 16.2,12.55 27.88,30.34 27.88,55.11 0,24.76 -14.92,52.67 -43.11,70.11 -28.2,17.44 -66.79,26.51 -115.73,26.51 -49.59,0 -87.51,-7.32 -114.09,-21.96 -26.59,-14.66 -39.88,-35.6 -39.88,-62.45l0 -6.28c0.34,-1.41 0.34,-2.79 0.66,-3.83z"/>
   <polygon class="fil1" points="1855.4,1211.65 1855.4,922.83 2118.15,922.83 2118.15,997.03 1985.18,997.03 1985.18,1028.4 2104.63,1028.4 2104.63,1102.56 1985.18,1102.56 1985.18,1136.66 2118.15,1136.66 2118.15,1211.65 "/>
   <path class="fil1" d="M2191.43 887.83l0 -77.87 32.05 0c6.42,0 11.46,0.99 14.67,1.98 3.67,1.46 5.94,3.93 8.24,7.39 1.81,3.96 2.75,7.9 2.75,11.83 0,5.42 -1.37,10.35 -5.05,14.29 -3.21,3.45 -8.24,5.91 -15.12,6.9 2.29,1.47 4.57,2.96 5.49,3.93 3.22,2.98 5.5,6.42 8.26,10.36l12.36 21.19 -11.9 0 -9.64 -16.27c-2.73,-4.41 -5.01,-7.87 -6.84,-10.33 -1.83,-2.95 -3.22,-4.46 -5.04,-5.43 -1.39,-0.99 -2.75,-1.5 -4.15,-1.98 -0.91,-0.5 -2.76,-0.5 -5.48,-0.5l-10.99 0 0 34.51 -9.61 0zm27.48 17.75c-28.85,0 -52.24,-25.13 -52.24,-56.18 0,-31.06 23.39,-56.69 52.24,-56.69 28.86,0 52.68,25.63 52.68,56.69 0,31.05 -23.82,56.18 -52.68,56.18zm0 6.91c-32.07,0 -58.64,-28.58 -58.64,-63.09 0,-35 26.57,-63.08 58.64,-63.08 32.5,0 58.62,28.08 58.62,63.08 0,34.51 -26.12,63.09 -58.62,63.09zm-17.87 -68.01l20.62 0c4.11,0 7.77,-0.5 10.06,-1.5 2.74,-0.98 4.58,-2.46 5.96,-4.93 0.93,-1.98 1.84,-4.43 1.84,-6.89 0,-3.44 -1.37,-6.4 -3.67,-8.86 -2.77,-2.5 -6.42,-3.48 -11.9,-3.48l-22.91 0 0 25.66z"/>
  </g>
 </g>
</svg>
