<?xml version="1.0" encoding="UTF-8"?>
<!DOCTYPE svg PUBLIC "-//W3C//DTD SVG 1.1//EN" "http://www.w3.org/Graphics/SVG/1.1/DTD/svg11.dtd">
<!-- Creator: CorelDRAW -->
<svg xmlns="http://www.w3.org/2000/svg" xml:space="preserve" width="22.8598mm" height="22.8598mm" version="1.1" style="shape-rendering:geometricPrecision; text-rendering:geometricPrecision; image-rendering:optimizeQuality; fill-rule:evenodd; clip-rule:evenodd"
viewBox="0 0 2285.98 2285.98"
 xmlns:xlink="http://www.w3.org/1999/xlink"
 xmlns:xodm="http://www.corel.com/coreldraw/odm/2003">
 <defs>
  <style type="text/css">
   <![CDATA[
    .fil4 {fill:none}
    .fil0 {fill:#DC3438}
    .fil1 {fill:#BC3437}
    .fil2 {fill:#BB3437}
    .fil3 {fill:#B93437}
   ]]>
  </style>
    <clipPath id="id0">
     <path d="M207.49 2060.44l-196.33 -1014.7c0,0 -20.98,-114.5 73.54,-181.71 94.51,-67.21 230.32,-133.48 230.32,-133.48l81.99 755.55 105.32 -807.83c0,0 -1.22,-42.85 72.98,-68 74.2,-25.15 236.35,-98.76 236.35,-98.76l-160.02 951.88c-11.5,68.39 -23.57,134.39 -35.33,203.74 -1.98,11.63 -2.55,23 -10.23,48.82 -11.01,11.16 -25.95,27.26 -40.51,43.42 -7.5,8.32 -15.12,15.05 -24.77,23.88 -78.95,72.26 -277.16,282.54 -277.16,282.54l-45.43 53.59c-5.19,-28.13 -7.64,-43.09 -10.72,-58.94zm985.65 -1431.25c0,0 -263.5,1.12 -300.64,150.57 -37.15,149.46 -114.73,666.07 -114.73,666.07l256.18 -96.02c0,0 5.95,-2.28 13.47,-5.17 19.07,-7.35 31.73,-23.27 34.58,-43.5 5.33,-37.9 10.83,-75.19 16,-111.53 21.91,-153.71 95.14,-560.42 95.14,-560.42zm727.66 63.25c-48.62,-60.19 -99.92,-76.81 -178.66,-81.9 -78.73,-5.08 -164.85,72.34 -164.85,72.34l5.51 -77.98c0,0 -113.55,-10.08 -199.57,7 -86.02,17.09 -97.42,138.91 -97.42,138.91l-96.78 544.26c0,0 160.3,-25.35 202.5,-40.77 42.2,-15.42 56.97,-10.56 70.97,-59.83 12.11,-42.63 66.68,-297.86 81.16,-365.82 5.16,-24.23 20.43,-40.88 46.28,-43.82 21.2,-2.42 30.89,2.96 37.13,9.14 6.24,6.19 11.73,17.01 11.48,29.17 -0.05,2.56 -1.08,9.89 -2.66,19.86 -5.96,37.44 -19.82,112.2 -19.82,112.2l-53.45 256.76c0,0 152.02,-4.4 223.28,-23.78 18.52,-8.73 30.98,-51.64 45.42,-105.35 22.15,-82.34 43.69,-190.07 57.49,-238.92 6,-21.26 10.68,-27.49 32.5,-33.99 24.22,-7.21 55.78,-9.16 55.61,27.33 -0.2,44.47 -67.63,334.31 -67.63,334.31l200.04 14.57c0,0 25.82,4.76 33.39,-11.48l21.4 -75.03 66.23 -268.32c3.34,-13.53 2.92,-21.67 1.46,-36.36 -6.44,-64.74 -41.44,-90.62 -93.37,-116.28 -42.86,-21.17 -96.97,-33.11 -168.55,-8.78 -19.92,6.5 -49.09,22.56 -49.09,22.56l0 0zm-889.64 -472.31c100.53,-23.72 203.27,40.65 229.47,143.78 10.21,40.17 10.74,80.13 -5.37,112.35 -4.61,9.21 -10.18,16.96 -16.96,24.45 -62.07,68.54 -169.11,60.13 -166.92,62.08 19.35,17.21 71.77,9.46 86.07,9 15,-0.48 -29.26,16.77 -29.48,16.85 -25.75,9.35 -42.44,9.74 -69.74,5.53 -74.08,-11.43 -142,-64.31 -161.65,-144.35 -5.14,-20.91 -4.16,-93.82 38.11,-141.3 11.73,-13.18 24.22,-20.95 39.9,-28.47 37.29,-17.88 88.52,-30.03 86.05,-30.51 -52.05,-10.2 -110.55,32.18 -110.2,23.57 0.48,-11.63 50.18,-45.77 80.72,-52.98z"/>
    </clipPath>
 </defs>
 <g id="Слой_x0020_1">
  <metadata id="CorelCorpID_0Corel-Layer"/>
  <g id="_1235585297904">
   <g>
    <path class="fil0" d="M207.49 2060.44l-196.33 -1014.7c0,0 -20.98,-114.5 73.54,-181.71 94.51,-67.21 230.32,-133.48 230.32,-133.48l81.99 755.55 105.32 -807.83c0,0 -1.22,-42.85 72.98,-68 74.2,-25.15 236.35,-98.76 236.35,-98.76l-160.02 951.88c-11.5,68.39 -23.57,134.39 -35.33,203.74 -1.98,11.63 -2.55,23 -10.23,48.82 -11.01,11.16 -25.95,27.26 -40.51,43.42 -7.5,8.32 -15.12,15.05 -24.77,23.88 -78.95,72.26 -277.16,282.54 -277.16,282.54l-45.43 53.59c-5.19,-28.13 -7.64,-43.09 -10.72,-58.94zm985.65 -1431.25c0,0 -263.5,1.12 -300.64,150.57 -37.15,149.46 -114.73,666.07 -114.73,666.07l256.18 -96.02c0,0 5.95,-2.28 13.47,-5.17 19.07,-7.35 31.73,-23.27 34.58,-43.5 5.33,-37.9 10.83,-75.19 16,-111.53 21.91,-153.71 95.14,-560.42 95.14,-560.42zm727.66 63.25c-48.62,-60.19 -99.92,-76.81 -178.66,-81.9 -78.73,-5.08 -164.85,72.34 -164.85,72.34l5.51 -77.98c0,0 -113.55,-10.08 -199.57,7 -86.02,17.09 -97.42,138.91 -97.42,138.91l-96.78 544.26c0,0 160.3,-25.35 202.5,-40.77 42.2,-15.42 56.97,-10.56 70.97,-59.83 12.11,-42.63 66.68,-297.86 81.16,-365.82 5.16,-24.23 20.43,-40.88 46.28,-43.82 21.2,-2.42 30.89,2.96 37.13,9.14 6.24,6.19 11.73,17.01 11.48,29.17 -0.05,2.56 -1.08,9.89 -2.66,19.86 -5.96,37.44 -19.82,112.2 -19.82,112.2l-53.45 256.76c0,0 152.02,-4.4 223.28,-23.78 18.52,-8.73 30.98,-51.64 45.42,-105.35 22.15,-82.34 43.69,-190.07 57.49,-238.92 6,-21.26 10.68,-27.49 32.5,-33.99 24.22,-7.21 55.78,-9.16 55.61,27.33 -0.2,44.47 -67.63,334.31 -67.63,334.31l200.04 14.57c0,0 25.82,4.76 33.39,-11.48l21.4 -75.03 66.23 -268.32c3.34,-13.53 2.92,-21.67 1.46,-36.36 -6.44,-64.74 -41.44,-90.62 -93.37,-116.28 -42.86,-21.17 -96.97,-33.11 -168.55,-8.78 -19.92,6.5 -49.09,22.56 -49.09,22.56l0 0zm-889.64 -472.31c100.53,-23.72 203.27,40.65 229.47,143.78 10.21,40.17 10.74,80.13 -5.37,112.35 -4.61,9.21 -10.18,16.96 -16.96,24.45 -62.07,68.54 -169.11,60.13 -166.92,62.08 19.35,17.21 71.77,9.46 86.07,9 15,-0.48 -29.26,16.77 -29.48,16.85 -25.75,9.35 -42.44,9.74 -69.74,5.53 -74.08,-11.43 -142,-64.31 -161.65,-144.35 -5.14,-20.91 -4.16,-93.82 38.11,-141.3 11.73,-13.18 24.22,-20.95 39.9,-28.47 37.29,-17.88 88.52,-30.03 86.05,-30.51 -52.05,-10.2 -110.55,32.18 -110.2,23.57 0.48,-11.63 50.18,-45.77 80.72,-52.98z"/>
   </g>
   <g style="clip-path:url(#id0)">
    <g>
     <path id="_1" class="fil1" d="M397 1486.1l45.8 36.52 127.69 -957.45 -8.82 0 -39.13 3.74c0,0 -12.51,8.47 -14.68,12.2 -2.17,3.73 -5.36,26.11 -6.55,31.19 -1.2,5.09 -37.12,226.01 -42.63,241.83 -5.52,15.82 -17.35,96.92 -18.14,118.68 -0.79,21.75 -26.77,138.45 -26.77,138.45l-16.02 264.53 -3.32 51.14 -1.79 11.8 4.36 47.37z"/>
     <path class="fil1" d="M101.11 845.61c3.68,10.5 -0.98,27.4 -4.37,38.02 -3.38,10.61 -5.49,14.97 -8.04,20.55 -2.54,5.6 -5.51,12.42 -8.5,21.43 -2.99,9.01 -6.02,20.18 -6.86,32.29 -0.85,12.11 0.46,25.15 1.48,35.92 1.04,10.76 1.77,19.24 5.85,42.52 4.08,23.28 11.5,61.35 29.75,152.64 18.25,91.27 47.31,235.76 77.9,387.7 30.57,151.94 62.65,311.33 80.65,397.22 18.01,85.9 21.96,98.31 27.79,116.49 5.83,18.19 13.56,42.14 -9.23,58.63 -22.79,16.49 -76.1,25.55 -135.93,22.89 -59.83,-2.66 -126.18,-17.03 -178.92,-62.52 -52.73,-45.5 -91.82,-122.12 -103.48,-304.36 -11.65,-182.23 4.16,-470.09 12.31,-637.42 8.13,-167.34 8.62,-214.17 39.33,-250.88 30.71,-36.71 91.63,-63.32 128.1,-74.54 36.47,-11.24 48.48,-7.1 52.17,3.42z"/>
     <path class="fil1" d="M974.65 683.72c-3.92,5.01 -8.97,11.26 -13.61,19.12 -4.63,7.87 -8.86,17.34 -13.99,30.13 -5.15,12.8 -11.19,28.92 -18.45,66.11 -7.25,37.19 -15.73,95.45 -23.28,143.72 -7.55,48.27 -14.21,86.57 -22.39,135.97 -8.18,49.4 -17.89,109.89 -25.69,159.48 -7.78,49.58 -13.64,88.23 -18.89,117.49 -5.26,29.25 -9.9,49.12 -13.02,61.85 -3.1,12.73 -4.68,18.34 -12.56,23.77 -7.89,5.43 -22.1,10.7 -31.39,12.1 -9.28,1.4 -13.66,-1.06 -14.37,-8.85 -0.69,-7.81 2.28,-20.96 14.87,-100.04 12.58,-79.11 34.76,-224.15 53.27,-337.67 18.51,-113.52 33.34,-195.5 44.67,-241.5 11.33,-46.01 19.13,-56.04 29.9,-65.3 10.75,-9.24 24.42,-17.72 36.35,-23.71 11.92,-5.99 22.07,-9.51 28.14,-9.97 6.06,-0.45 8.01,2.15 7.59,5.33 -0.43,3.2 -3.22,6.96 -7.15,11.97z"/>
     <path class="fil2" d="M1377.93 612.72c-4.86,17.13 -13.95,43.23 -25.77,92.94 -11.83,49.73 -26.37,123.05 -44.68,220.57 -18.29,97.53 -40.33,219.26 -52.21,285.05 -11.89,65.79 -13.59,75.62 -22.73,83.27 -9.14,7.64 -25.7,13.08 -36.34,14.44 -10.65,1.35 -15.37,-1.41 -15.95,-13.33 -0.6,-11.93 2.93,-33.03 14.29,-92.18 11.34,-59.16 30.52,-156.4 46.59,-241.85 16.06,-85.46 29.02,-159.15 38.31,-210.05 9.29,-50.91 14.9,-79.03 25.66,-101.2 10.76,-22.17 26.68,-38.38 40.68,-49.22 14.01,-10.87 26.09,-16.37 31.84,-15.04 5.75,1.32 5.15,9.47 0.31,26.6z"/>
     <path class="fil2" d="M1620.66 802.78c1.55,-2.06 2.43,-4.79 4.98,-4.05 2.54,0.75 6.74,4.95 9.73,10.59 2.99,5.65 4.75,12.72 5.09,19.71 0.33,6.96 -0.77,13.83 -7.08,40.28 -6.31,26.45 -17.82,72.48 -29,120.07 -11.18,47.58 -22.02,96.73 -30.99,135.28 -8.96,38.54 -16.05,66.51 -20.14,80.5 -4.09,13.99 -5.19,13.99 -0.1,13.44 5.09,-0.56 16.37,-1.66 26,-2.43 9.63,-0.79 17.59,-1.22 21.47,-1.67 3.87,-0.44 3.65,-0.88 6.86,-16.09 3.21,-15.2 9.85,-45.17 21.36,-97.77 11.51,-52.6 27.89,-127.86 39.95,-182.42 12.06,-54.56 19.81,-88.42 23.24,-108.94 3.43,-20.52 2.55,-27.71 -0.41,-33.35 -2.98,-5.61 -8.04,-9.69 -15.14,-12.61 -7.1,-2.92 -16.22,-4.68 -27.35,-3.01 -11.11,1.66 -24.19,6.76 -32.64,12.2 -8.44,5.45 -12.23,11.24 -11.77,17.13 0.48,5.9 5.22,11.92 8.7,14.23 3.48,2.33 5.69,0.95 7.24,-1.09z"/>
     <path class="fil3" d="M1953.48 806.16c3.36,-2.3 8.25,-5.57 15.74,-8.49 7.5,-2.95 17.61,-5.54 26.17,-6.61 8.55,-1.07 15.56,-0.57 21.03,1.23 5.45,1.78 9.36,4.88 12.29,9.29 2.94,4.39 4.9,10.1 3.19,25.16 -1.72,15.09 -7.11,39.53 -15.36,76.77 -8.27,37.23 -19.43,87.27 -30.41,138.44 -10.99,51.14 -21.81,103.42 -29.07,139.25 -7.26,35.83 -10.97,55.22 -28.2,63.2 -17.26,7.98 -48.04,4.55 -59.59,-12.83 -11.55,-17.39 -3.85,-48.74 15.91,-117.96 19.77,-69.22 51.59,-176.3 63.8,-233.01 12.22,-56.71 4.82,-63.05 2.05,-66.91 -2.77,-3.85 -0.91,-5.22 2.45,-7.53z"/>
    </g>
   </g>
   <path class="fil4" d="M207.49 2060.44l-196.33 -1014.7c0,0 -20.98,-114.5 73.54,-181.71 94.51,-67.21 230.32,-133.48 230.32,-133.48l81.99 755.55 105.32 -807.83c0,0 -1.22,-42.85 72.98,-68 74.2,-25.15 236.35,-98.76 236.35,-98.76l-160.02 951.88c-11.5,68.39 -23.57,134.39 -35.33,203.74 -1.98,11.63 -2.55,23 -10.23,48.82 -11.01,11.16 -25.95,27.26 -40.51,43.42 -7.5,8.32 -15.12,15.05 -24.77,23.88 -78.95,72.26 -277.16,282.54 -277.16,282.54l-45.43 53.59c-5.19,-28.13 -7.64,-43.09 -10.72,-58.94zm985.65 -1431.25c0,0 -263.5,1.12 -300.64,150.57 -37.15,149.46 -114.73,666.07 -114.73,666.07l256.18 -96.02c0,0 5.95,-2.28 13.47,-5.17 19.07,-7.35 31.73,-23.27 34.58,-43.5 5.33,-37.9 10.83,-75.19 16,-111.53 21.91,-153.71 95.14,-560.42 95.14,-560.42zm727.66 63.25c-48.62,-60.19 -99.92,-76.81 -178.66,-81.9 -78.73,-5.08 -164.85,72.34 -164.85,72.34l5.51 -77.98c0,0 -113.55,-10.08 -199.57,7 -86.02,17.09 -97.42,138.91 -97.42,138.91l-96.78 544.26c0,0 160.3,-25.35 202.5,-40.77 42.2,-15.42 56.97,-10.56 70.97,-59.83 12.11,-42.63 66.68,-297.86 81.16,-365.82 5.16,-24.23 20.43,-40.88 46.28,-43.82 21.2,-2.42 30.89,2.96 37.13,9.14 6.24,6.19 11.73,17.01 11.48,29.17 -0.05,2.56 -1.08,9.89 -2.66,19.86 -5.96,37.44 -19.82,112.2 -19.82,112.2l-53.45 256.76c0,0 152.02,-4.4 223.28,-23.78 18.52,-8.73 30.98,-51.64 45.42,-105.35 22.15,-82.34 43.69,-190.07 57.49,-238.92 6,-21.26 10.68,-27.49 32.5,-33.99 24.22,-7.21 55.78,-9.16 55.61,27.33 -0.2,44.47 -67.63,334.31 -67.63,334.31l200.04 14.57c0,0 25.82,4.76 33.39,-11.48l21.4 -75.03 66.23 -268.32c3.34,-13.53 2.92,-21.67 1.46,-36.36 -6.44,-64.74 -41.44,-90.62 -93.37,-116.28 -42.86,-21.17 -96.97,-33.11 -168.55,-8.78 -19.92,6.5 -49.09,22.56 -49.09,22.56m-889.64 -472.31c100.53,-23.72 203.27,40.65 229.47,143.78 10.21,40.17 10.74,80.13 -5.37,112.35 -4.61,9.21 -10.18,16.96 -16.96,24.45 -62.07,68.54 -169.11,60.13 -166.92,62.08 19.35,17.21 71.77,9.46 86.07,9 15,-0.48 -29.26,16.77 -29.48,16.85 -25.75,9.35 -42.44,9.74 -69.74,5.53 -74.08,-11.43 -142,-64.31 -161.65,-144.35 -5.14,-20.91 -4.16,-93.82 38.11,-141.3 11.73,-13.18 24.22,-20.95 39.9,-28.47 37.29,-17.88 88.52,-30.03 86.05,-30.51 -52.05,-10.2 -110.55,32.18 -110.2,23.57 0.48,-11.63 50.18,-45.77 80.72,-52.98z"/>
   <g>
    <image x="951.38" y="166.61" width="360.06" height="441.57" xlink:href="Vim gel_Images\Vim gel_ImgID1.png"/>
   </g>
   <path class="fil1" d="M1075.44 565.77c-118.93,-56.62 -157.44,-159.13 -97.4,-288.09 -13.64,6.88 -32.75,18.92 -43.35,30.84 -42.27,47.48 -43.25,120.39 -38.11,141.3 19.65,80.04 87.57,132.92 161.65,144.35 27.3,4.21 43.99,3.82 69.74,-5.53 0.22,-0.08 44.48,-17.33 29.48,-16.85 -12.99,0.41 -57.38,6.84 -79.93,-4.85 -0.72,-0.37 -1.41,-0.76 -2.08,-1.17z"/>
   <g>
    <image x="217.18" y="700.73" width="229.93" height="837.91" xlink:href="Vim gel_Images\Vim gel_ImgID2.png"/>
   </g>
   <g>
    <image x="215.89" y="481.49" width="637.52" height="1599.57" xlink:href="Vim gel_Images\Vim gel_ImgID3.png"/>
   </g>
   <g>
    <image x="745.43" y="594.6" width="489.57" height="886.41" xlink:href="Vim gel_Images\Vim gel_ImgID4.png"/>
   </g>
   <g>
    <image x="1381.2" y="553.08" width="250.91" height="236.93" xlink:href="Vim gel_Images\Vim gel_ImgID5.png"/>
   </g>
   <g>
    <image x="1671.76" y="565.65" width="294.97" height="203.55" xlink:href="Vim gel_Images\Vim gel_ImgID6.png"/>
   </g>
   <g>
    <image x="1872.24" y="617.73" width="404.56" height="608.35" xlink:href="Vim gel_Images\Vim gel_ImgID7.png"/>
   </g>
   <g>
    <image x="1165.88" y="714.55" width="471.58" height="621.51" xlink:href="Vim gel_Images\Vim gel_ImgID8.png"/>
   </g>
   <g>
    <image x="1535.41" y="743.89" width="431.05" height="509.98" xlink:href="Vim gel_Images\Vim gel_ImgID9.png"/>
   </g>
  </g>
 </g>
</svg>
